<svg xmlns="http://www.w3.org/2000/svg" xmlns:xlink="http://www.w3.org/1999/xlink" width="169" height="111" viewBox="0 0 169 111">
  <defs>
    <clipPath id="clip-path">
      <rect id="Rectángulo_457454" data-name="Rectángulo 457454" width="91.941" height="92.965" fill="none"/>
    </clipPath>
  </defs>
  <g id="Grupo_1205991" data-name="Grupo 1205991" transform="translate(-1121.422 -1019)">
    <rect id="Rectángulo_455283" data-name="Rectángulo 455283" width="169" height="111" rx="19" transform="translate(1121.422 1019)" fill="#e3a4fe"/>
    <g id="Grupo_1206624" data-name="Grupo 1206624" transform="translate(1160.422 1028)">
      <g id="Grupo_1206623" data-name="Grupo 1206623" clip-path="url(#clip-path)">
        <path id="Trazado_1263996" data-name="Trazado 1263996" d="M5.91,78.306a12.109,12.109,0,0,1,1.451-.28c18.61-.579,37.324.461,55.944.017l14.856,4.321c2.754,1.706,2.678,5.133-.337,6.464-4.093,1.806-9.935,2.564-14.253,4.125L7.1,92.965A7.47,7.47,0,0,1,2.843,79.633l.125-66.994a3.017,3.017,0,0,1,1.679-2.583l41.884-.2c2.033-2.03,3.494-3.817,6.262-4.925C57.367,3.1,65.2,4.239,70.466,3.694A47.164,47.164,0,0,0,83.682,0L81.827,8.769c1.491.695,3.167.989,4.686,1.593.19.076.551-.062.364.42-.3.78-2.251,2.98-2.875,4.052-1.052,1.807-3.632,7.3-3.238,9.21l7.973,7.842.005.691c-3.79,2.929-1.474,7.684,3.2,6.842V54.335c-4.75-.723-6.884,4.038-3.237,7.1.089.455-.485.97-.752,1.3-2.636,3.26-6.689,6.2-9.462,9.444-3-4.058-7.895-2.085-7.325,2.935H56.25c.609-3.1-1.282-5.769-4.606-5-1.167.269-1.8,2.166-2.846,1.683L38.676,61.659c3.858-3.181,2.018-7.792-2.932-7.326l-.268-5.858h-8.79v-2.93h8.79V39.819c1.564-.862,3.337.135,4.65-1.742,1.536-2.2.367-4.238-1.443-5.716l7.671-8.028A13.855,13.855,0,0,1,45.33,12.784H5.91ZM68.236,24.237c-2.817-.973-7.552-5.378-10.32-5.529a4.268,4.268,0,0,0-4.342,3.784c-.255,2.64-.23,8.152.684,10.53,3.354,8.725,16.327,8.463,19.316-.385.473-1.4.925-6.682.385-7.863-.066-.144-1.731-2.032-1.987-2.275a15.74,15.74,0,0,0-3.735-2.524ZM50.392,27.7c-1.4-.087-2.628-.206-2.911,1.465.222,1.54,1.632,1.558,2.911,1.467Zm29.229,2.6c1.59-1.512-.494-3.223-2.33-2.6l-.149,2.672c.341.479,2.069.315,2.479-.076m-34.828.337-2.064,1.725c2.521,4.025.306,8.833-4.07,10.168l0,8.984c4.63,1.141,6.233,5.892,4.313,10.095l6.1,6.2c1.307-.136,2.5-.974,3.856-.968,2.915.013,5.711,2.637,6.421,5.365h9a6.986,6.986,0,0,1,6.435-5.35c1.366-.016,2.533.815,3.841.954l6.01-6.017c.265-.59-.887-2.732-.887-3.852a8.314,8.314,0,0,1,2.067-4.8c.929-.9,2.2-1.139,3.17-1.891l.048-8.712c-3.956-1.472-5.79-4.215-4.951-8.445.1-.516.7-1.346.635-1.681-.09-.48-1.356-1.022-1.295-1.768-.52-.371-1.266,1.409-1.592,1.731a5.024,5.024,0,0,1-4,1.2C87.839,43.925,82.963,61.917,68.977,65.6,49.894,70.618,36.471,47.815,49.858,33.562a4.482,4.482,0,0,1-5.065-2.931M58.642,41.3a11.835,11.835,0,0,1-5.316-3.883c-.312-.353-1.106-2.07-1.6-1.724a44.284,44.284,0,0,0-2.9,4.7A17.381,17.381,0,0,0,48.529,53l1.362-3.561A13.253,13.253,0,0,1,54.94,44.1c1.5-.86,3.657-.958,3.7-2.8M79.153,52.736A16.327,16.327,0,0,0,75.56,35.7a15.2,15.2,0,0,1-6.536,5.741c.194,1.728,2.121,1.755,3.553,2.564,3.535,2,4.668,4.471,6.063,8.054.108.278.1.642.513.682M61.754,42.38l-.454.635c.021.655,2.13,1.995,2.541,2,.359,0,2.493-1.411,2.543-1.994,0-1.212-1.909-.378-2.542-.378-.708,0-1.361-.42-2.087-.259m.088,5.035-2.66-1.335.8,2.662,1.694-.777ZM67.7,48.742c-.253-.993,1.3-1.977.4-2.657l-2.264,1.33.165.55Zm-9.316,4.793-2.532-6.391A10.394,10.394,0,0,0,52,52.62c-.906,2.792-1.579,4.773,1.313,6.509-.05-1.859.418-3.728-1.017-5.2l2.218-2.257c2.768,2.637,1.821,6.382,2.041,9.808l2.352.842c.519-3.243,2.583-6.053,1.064-9.322Zm15.98,5.594a11.5,11.5,0,0,0,1.99-1.869c.542-1.177-1.152-6.155-1.941-7.372a23.505,23.505,0,0,0-2.583-2.739c-.562,0-2.053,5.437-2.662,6.128-.142.161-.252.3-.492.234l-.843-.5-.268.256c-1.395,3.082.693,5.994,1.206,9.06l2.358-.835c.246-3.366-.805-7.283,2.034-9.813l1.97,2.047a10.2,10.2,0,0,0-.769,5.405M64.239,54.336c-.114-1.38,1.484-3.406-.393-4l-1.212.691.812,3.305Zm-2.4,8.788h4l-1.595-5.678-.669-.185ZM11.77,81.236H6.044a6.8,6.8,0,0,0-2.491,2.037,4.568,4.568,0,0,0,1.9,6.276c.194.087,1.313.477,1.387.477H11.77Zm6.126,0H14.7v8.39c.41.544,1.35.47,2.011.413a3.372,3.372,0,0,0,.743-.056l.442-.357Zm44.48,0H20.826v8.79h41.55Zm2.93.533v7.458l2.945-.686-.05-5.8c-.167-.49-2.276-.856-2.9-.967m5.86,1.864v4L77.027,85.9c.08-.549-.024-.621-.454-.878-.546-.327-5.171-1.617-5.408-1.384" transform="translate(0)" fill="#5d0b80"/>
        <path id="Trazado_1263997" data-name="Trazado 1263997" d="M65.615,59v2.93H36.184l-.4.4v5.46H65.216c.781.773.262,2.169.4,3.2H35.385c-1.116,0-2.4-1.673-2.538-2.789a39.881,39.881,0,0,1,.068-6.871c.162-.8,1.443-2.325,2.2-2.325Z" transform="translate(-24.014 -43.285)" fill="#5d0b80"/>
        <path id="Trazado_1263998" data-name="Trazado 1263998" d="M47.793,223.058c.575-.214,2.25,1.595,2.191,1.933l-2.323,2.488c-.559,2.533,1.253,10.183-1.9,11.146-1.1.334-9.08.3-10.541.125a3.03,3.03,0,0,1-2.53-2.8,62.253,62.253,0,0,1,0-9.334,3.4,3.4,0,0,1,3.069-2.791,64.114,64.114,0,0,1,8.79,0c1.673.1,1.662,1.139,3.249-.769m-4.182,3.967H35.887v8.523H44.41V231.02L40.052,235l-3.914-4.121,1.776-2,2.331,1.592Z" transform="translate(-23.851 -163.634)" fill="#5d0b80"/>
        <path id="Trazado_1263999" data-name="Trazado 1263999" d="M48.06,156.067,50,158.01,47.679,160.5c-.559,2.533,1.253,10.183-1.9,11.146-1.1.334-9.08.3-10.541.125a3.03,3.03,0,0,1-2.53-2.8,59.939,59.939,0,0,1,.006-9.062,3.364,3.364,0,0,1,3.328-3.064,60.1,60.1,0,0,1,8.259,0c1.68.114,2.189,1.221,3.763-.779m-4.43,3.977H35.905v8.79h8.523v-4.794l-4.165,3.976-4.073-3.879,2.015-2.208,2.058,1.56Z" transform="translate(-23.869 -114.499)" fill="#5d0b80"/>
        <rect id="Rectángulo_457447" data-name="Rectángulo 457447" width="23.705" height="2.93" transform="translate(8.84 36.489)" fill="#5d0b80"/>
        <rect id="Rectángulo_457448" data-name="Rectángulo 457448" width="17.845" height="2.93" transform="translate(17.896 30.63)" fill="#5d0b80"/>
        <path id="Trazado_1264000" data-name="Trazado 1264000" d="M112.176,240.2H100.19V237h11.586c.781.773.262,2.169.4,3.2" transform="translate(-73.505 -173.875)" fill="#5d0b80"/>
        <rect id="Rectángulo_457449" data-name="Rectángulo 457449" width="5.86" height="2.93" transform="translate(26.685 51.405)" fill="#5d0b80"/>
        <rect id="Rectángulo_457450" data-name="Rectángulo 457450" width="5.86" height="2.93" transform="translate(26.685 69.25)" fill="#5d0b80"/>
        <rect id="Rectángulo_457451" data-name="Rectángulo 457451" width="5.86" height="2.93" transform="translate(8.84 30.63)" fill="#5d0b80"/>
        <path id="Trazado_1264001" data-name="Trazado 1264001" d="M136.707,259.994v2.932l-3.081-.251.133-2.564Z" transform="translate(-98.035 -190.745)" fill="#5d0b80"/>
        <path id="Trazado_1264002" data-name="Trazado 1264002" d="M151.266,114.866a4.482,4.482,0,0,0,5.065,2.931c-13.387,14.253.036,37.056,19.119,32.035,13.985-3.68,18.862-21.672,8.847-32.035a5.026,5.026,0,0,0,4-1.2c.326-.323,1.071-2.1,1.592-1.731-.061.746,1.2,1.288,1.295,1.768.063.334-.533,1.165-.635,1.68-.84,4.23.995,6.973,4.951,8.445l-.048,8.712c-.975.752-2.241.991-3.17,1.891a8.315,8.315,0,0,0-2.067,4.8c0,1.121,1.152,3.263.887,3.852l-6.01,6.017c-1.308-.138-2.475-.969-3.841-.954a6.986,6.986,0,0,0-6.434,5.35h-9c-.71-2.728-3.505-5.351-6.42-5.365-1.36-.006-2.549.831-3.856.967l-6.1-6.2c1.921-4.2.317-8.954-4.313-10.095l0-8.984c4.376-1.335,6.591-6.144,4.07-10.168Z" transform="translate(-106.473 -84.234)" fill="#ffe9a1"/>
        <path id="Trazado_1264003" data-name="Trazado 1264003" d="M119.74,313.789H78.19V305h41.55Zm-35.689-6.127H81.119v3.2h2.932Zm2.927,3.2,3.081-.251-.133-2.83-2.948-.117Zm9.059,0-.251-3.081-2.83.133.133,2.83Zm5.86-3.2H98.964v3.2H101.9Z" transform="translate(-57.364 -223.763)" fill="#ffe9a1"/>
        <path id="Trazado_1264004" data-name="Trazado 1264004" d="M215.419,75.754V71.493a15.74,15.74,0,0,1,3.735,2.524c.256.243,1.921,2.131,1.987,2.275.54,1.182.088,6.463-.385,7.863-2.989,8.848-15.962,9.109-19.316.385-.914-2.377-.939-7.889-.684-10.53a4.268,4.268,0,0,1,4.342-3.784c2.769.151,7.5,4.556,10.32,5.529M204.034,78.88c1.362,1.3,3.7-1.089,1.949-2.345a1.526,1.526,0,0,0-1.949,2.345m12.094-2.548a1.528,1.528,0,0,0,.16,2.683c2.589,1.125,3-3.766-.16-2.683m-8.517,6.645-2.277,1.469c2.035,4.851,9.271,4.8,11.353-.04L214.209,83c-1.5,2.609-4.8,2.792-6.247.056Z" transform="translate(-147.183 -51.517)" fill="#fff9e9"/>
        <path id="Trazado_1264005" data-name="Trazado 1264005" d="M189.464,139.486c-.045,1.845-2.206,1.943-3.7,2.8a13.255,13.255,0,0,0-5.049,5.338l-1.362,3.561a17.382,17.382,0,0,1,.3-12.612,44.328,44.328,0,0,1,2.9-4.7c.493-.346,1.288,1.371,1.6,1.724a11.835,11.835,0,0,0,5.315,3.883" transform="translate(-130.822 -98.187)" fill="#fff9e9"/>
        <path id="Trazado_1264006" data-name="Trazado 1264006" d="M269.278,151.058c-.412-.04-.405-.4-.513-.682-1.395-3.582-2.528-6.058-6.063-8.054-1.432-.809-3.36-.836-3.553-2.564a15.2,15.2,0,0,0,6.536-5.741,16.327,16.327,0,0,1,3.593,17.041" transform="translate(-190.125 -98.322)" fill="#fff9e9"/>
        <path id="Trazado_1264007" data-name="Trazado 1264007" d="M19.984,305v8.79H15.057c-.073,0-1.193-.389-1.387-.477a4.568,4.568,0,0,1-1.9-6.276A6.8,6.8,0,0,1,14.258,305Z" transform="translate(-8.214 -223.763)" fill="#fbce73"/>
        <path id="Trazado_1264008" data-name="Trazado 1264008" d="M259.173,189a10.2,10.2,0,0,1,.769-5.405l-1.97-2.047c-2.839,2.53-1.787,6.447-2.034,9.813l-2.358.835c-.513-3.065-2.6-5.978-1.206-9.06l.268-.256.843.5c.24.063.35-.074.492-.234.609-.691,2.1-6.124,2.662-6.128a23.53,23.53,0,0,1,2.583,2.739c.788,1.216,2.483,6.2,1.941,7.372a11.5,11.5,0,0,1-1.99,1.869" transform="translate(-184.808 -129.87)" fill="#fff"/>
        <path id="Trazado_1264009" data-name="Trazado 1264009" d="M199.487,183.393l1.591-.531c1.519,3.269-.546,6.079-1.064,9.322l-2.352-.842c-.22-3.426.727-7.171-2.041-9.808l-2.218,2.257c1.435,1.468.967,3.338,1.017,5.2-2.891-1.736-2.219-3.717-1.313-6.509A10.394,10.394,0,0,1,196.954,177Z" transform="translate(-141.103 -129.858)" fill="#fff"/>
        <path id="Trazado_1264010" data-name="Trazado 1264010" d="M58.386,305v8.39l-.442.357a3.373,3.373,0,0,1-.743.056c-.661.057-1.6.131-2.011-.413V305Z" transform="translate(-40.49 -223.763)" fill="#ffe9a1"/>
        <path id="Trazado_1264011" data-name="Trazado 1264011" d="M245.19,307c.619.11,2.728.477,2.9.967l.05,5.8-2.945.686Z" transform="translate(-179.884 -225.23)" fill="#fff"/>
        <path id="Trazado_1264012" data-name="Trazado 1264012" d="M267.19,313.922c.237-.233,4.862,1.057,5.408,1.384.43.257.534.329.454.878l-5.861,1.733Z" transform="translate(-196.024 -230.289)" fill="#fbce73"/>
        <path id="Trazado_1264013" data-name="Trazado 1264013" d="M232.19,220.85l1.732-5.863.669.185,1.595,5.678Z" transform="translate(-170.346 -157.725)" fill="#fff"/>
        <path id="Trazado_1264014" data-name="Trazado 1264014" d="M230.6,159.012c.726-.161,1.379.258,2.087.259.633,0,2.544-.834,2.542.378-.05.583-2.184,2-2.543,1.994-.411,0-2.52-1.342-2.541-2Z" transform="translate(-168.848 -116.633)" fill="#fff"/>
        <path id="Trazado_1264015" data-name="Trazado 1264015" d="M181.175,103.877v2.932c-1.279.091-2.689.072-2.911-1.467.284-1.671,1.507-1.552,2.911-1.465" transform="translate(-130.784 -76.178)" fill="#fff"/>
        <path id="Trazado_1264016" data-name="Trazado 1264016" d="M292.105,106.224c-.411.39-2.138.555-2.479.076l.149-2.672c1.837-.627,3.92,1.084,2.331,2.6" transform="translate(-212.485 -75.929)" fill="#fff"/>
        <path id="Trazado_1264017" data-name="Trazado 1264017" d="M236.762,192.993h-.793l-.812-3.305,1.213-.691c1.876.592.279,2.618.392,4" transform="translate(-172.523 -138.656)" fill="#fff"/>
        <path id="Trazado_1264018" data-name="Trazado 1264018" d="M224.855,174.339l-.165.55-1.693.777L222.2,173Z" transform="translate(-163.014 -126.924)" fill="#fff"/>
        <path id="Trazado_1264019" data-name="Trazado 1264019" d="M249.057,175.681l-1.7-.777-.165-.55,2.264-1.33c.9.68-.657,1.664-.4,2.657" transform="translate(-181.356 -126.939)" fill="#fff"/>
        <path id="Trazado_1264020" data-name="Trazado 1264020" d="M52.914,238l-3.366,3.443-2.331-1.592-1.776,2,3.914,4.121,4.358-3.976v4.528H45.19V238Z" transform="translate(-33.153 -174.608)" fill="#ffe9a1"/>
        <path id="Trazado_1264021" data-name="Trazado 1264021" d="M52.914,171l-3.366,3.443-2.058-1.56-2.015,2.208,4.073,3.879,4.165-3.976v4.794H45.19V171Z" transform="translate(-33.153 -125.454)" fill="#ffe9a1"/>
        <path id="Trazado_1264022" data-name="Trazado 1264022" d="M111.185,318.193v-3.2l2.948.117.133,2.83Z" transform="translate(-81.571 -231.096)" fill="#5d0b80"/>
        <path id="Trazado_1264023" data-name="Trazado 1264023" d="M136.707,318.516l-2.948-.118-.133-2.83,2.83-.133Z" transform="translate(-98.035 -231.419)" fill="#5d0b80"/>
        <rect id="Rectángulo_457452" data-name="Rectángulo 457452" width="2.932" height="3.199" transform="translate(23.754 83.898)" fill="#5d0b80"/>
        <rect id="Rectángulo_457453" data-name="Rectángulo 457453" width="2.932" height="3.199" transform="translate(41.6 83.898)" fill="#5d0b80"/>
        <path id="Trazado_1264024" data-name="Trazado 1264024" d="M220.605,118.117l.351.083c1.452,2.736,4.747,2.553,6.247-.056l2.479,1.4c-2.083,4.842-9.318,4.891-11.353.04Z" transform="translate(-160.177 -86.657)" fill="#5d0b80"/>
        <path id="Trazado_1264025" data-name="Trazado 1264025" d="M256.863,92.733c3.164-1.083,2.749,3.809.16,2.683a1.528,1.528,0,0,1-.16-2.683" transform="translate(-187.918 -67.918)" fill="#5d0b80"/>
        <path id="Trazado_1264026" data-name="Trazado 1264026" d="M212.029,95.373a1.526,1.526,0,0,1,1.949-2.345c1.754,1.256-.587,3.648-1.949,2.345" transform="translate(-155.178 -68.011)" fill="#5d0b80"/>
      </g>
    </g>
  </g>
</svg>
