<svg xmlns="http://www.w3.org/2000/svg" xmlns:xlink="http://www.w3.org/1999/xlink" width="70" height="70" viewBox="0 0 70 70">
  <defs>
    <clipPath id="clip-path">
      <rect id="Rectángulo_457472" data-name="Rectángulo 457472" width="38" height="40" fill="#5d0b80"/>
    </clipPath>
  </defs>
  <g id="Grupo_1205993" data-name="Grupo 1205993" transform="translate(0.145 0.275)">
    <circle id="Elipse_5614" data-name="Elipse 5614" cx="35" cy="35" r="35" transform="translate(-0.145 -0.275)" fill="#fff"/>
    <g id="Grupo_1206645" data-name="Grupo 1206645" transform="translate(15.856 14.725)">
      <g id="Grupo_1206644" data-name="Grupo 1206644" clip-path="url(#clip-path)">
        <path id="Trazado_1264134" data-name="Trazado 1264134" d="M24.8,21.1l3.484,1.582c5.345,2.688,10.2,10.055,9.674,16A1.258,1.258,0,0,1,36.729,40L.754,39.908c-.859-.463-.766-1.3-.734-2.145A18.569,18.569,0,0,1,13.173,21.215L11,19.617C2.195,11.324,10.7-3.046,22.545.574,32.062,3.484,33.494,16.4,24.8,21.1M19.947,7.859a1.4,1.4,0,0,1,.1,1.791c-.583.752-2.052.117-2.281,1.555a9.317,9.317,0,0,0,.048,2.228,1.264,1.264,0,0,0,2.384-.086c.064-.32-.054-.842.084-1.063a9.4,9.4,0,0,0,1.684-1.22c2.823-3.651-2.3-7.981-5.605-4.892-1.007.942-1.971,3.914.161,3.832,1.338-.052.912-1.713,1.618-2.224a1.422,1.422,0,0,1,1.81.078m-.114,9.429c1.033-.892-.22-2.618-1.485-1.848-1.516.923.239,2.924,1.485,1.848" transform="translate(0 0)" fill="#5d0b80"/>
      </g>
    </g>
  </g>
</svg>
