<svg xmlns="http://www.w3.org/2000/svg" xmlns:xlink="http://www.w3.org/1999/xlink" width="96" height="96" viewBox="0 0 96 96">
  <defs>
    <clipPath id="clip-path">
      <rect id="Rectángulo_457434" data-name="Rectángulo 457434" width="57.809" height="57.928" fill="#fff"/>
    </clipPath>
  </defs>
  <g id="Grupo_1205988" data-name="Grupo 1205988" transform="translate(-383.746 -8400.001)">
    <path id="Trazado_997400" data-name="Trazado 997400" d="M48,0A48,48,0,1,1,0,48,48,48,0,0,1,48,0Z" transform="translate(383.746 8400.001)" fill="#5d0b80"/>
    <g id="Grupo_1099776" data-name="Grupo 1099776" transform="translate(401.746 8418)">
      <g id="Grupo_1099618" data-name="Grupo 1099618" transform="translate(0.965 -0.15)">
        <rect id="Rectángulo_401104" data-name="Rectángulo 401104" width="59.378" height="60.093" transform="translate(0)" fill="none"/>
      </g>
      <g id="Grupo_1206620" data-name="Grupo 1206620" transform="translate(1.965 0.85)">
        <g id="Grupo_1206619" data-name="Grupo 1206619" clip-path="url(#clip-path)">
          <path id="Trazado_1263983" data-name="Trazado 1263983" d="M108.678,18.4l-.513,1.807c.484.749,1.5,1.035,1.176,2.115-.237.78-3.915,3.656-4.553,4.623-.826.529-1.885-1.339-2.344-1.3l-1.683.7-.058,1.97c-.158.523-1,.615-1.458.658a28.553,28.553,0,0,1-5.219-.083c-1.372-.325-.719-1.466-.894-2.544l-1.8-.7c-.548.371-1.35,1.566-2.1,1.359l-4.619-4.562c-.613-1.332,1.237-1.693,1.118-2.511a12.6,12.6,0,0,0-.674-1.461c-.435-.291-2.1.212-2.442-.731l0-6.636c.24-.714,1.652-.367,2.178-.467.391-.074.99-1.528.931-1.83-.1-.528-1.562-.959-1.165-2.278.225-.747,3.758-3.518,4.376-4.441,1.329-.611,1.65,1.195,2.537,1.145a10.829,10.829,0,0,0,1.61-.7c.4-.587-.436-2.059.6-2.4a42.622,42.622,0,0,1,6.4-.04c1.1.237.5,1.385.654,2.167.073.372,1.488,1.009,1.847.973.737-.074,1-1.59,2.261-1.2a45,45,0,0,1,4.5,4.5c.4,1.329-1.174,1.834-1.167,2.4l.665,1.628c.494.334,2.01-.3,2.446.551-.134,1.143.343,6.241-.131,6.862-.422.554-1.844.4-2.477.432M98.8,2H95.1c.5,2.075-2.973,3.477-4.46,3.134-.5-.115-.739-.557-1.118-.831l-2.7,2.568c-.051.292.594.645.735.99.574,1.4-.939,5.319-3.041,4.714v3.88c2.007-.653,3.466,2.842,3.137,4.281-.114.5-.559.74-.832,1.118l2.568,2.7c.677-.364,1.059-.887,1.915-.886a12.528,12.528,0,0,1,2.619.924A2.416,2.416,0,0,1,95.1,27.035h3.7a2.417,2.417,0,0,1,1.285-2.505c.239-.129,1.79-.759,2.015-.806a2.394,2.394,0,0,1,2.277.829l2.7-2.566c.051-.292-.594-.645-.735-.99-.582-1.416.958-5.211,3.04-4.538v-3.88c-2.406.484-4.259-4.222-2.305-5.576L104.5,4.3c-.837.546-.97.945-2.1.882a11.716,11.716,0,0,1-2.712-1A2.5,2.5,0,0,1,98.8,2" transform="translate(-68.046 0)" fill="#fff"/>
          <path id="Trazado_1263984" data-name="Trazado 1263984" d="M135.2,237.347a1.711,1.711,0,0,1-.92.225,100.4,100.4,0,0,1-13.061,0c-.985-.082-1.064-.169-1.146-1.146-.351-4.2.518-7.619,4.411-9.7a4.82,4.82,0,1,1,6.529,0c4.081,2.078,5.078,6.392,4.186,10.624m-7.936-17.018c-4.492.72-1.918,7.633,1.971,5.323a2.889,2.889,0,0,0-1.971-5.323m6.215,15.3v-2.909a10.568,10.568,0,0,0-.56-1.555,5.815,5.815,0,0,0-10.339,0,10.569,10.569,0,0,0-.56,1.555v2.909Z" transform="translate(-98.845 -179.857)" fill="#fff"/>
          <path id="Trazado_1263985" data-name="Trazado 1263985" d="M15.2,237.241a1.711,1.711,0,0,1-.92.225,100.408,100.408,0,0,1-13.061,0c-.985-.082-1.064-.169-1.146-1.146-.351-4.2.518-7.62,4.411-9.7a4.826,4.826,0,1,1,6.529,0c4.095,2.093,5.079,6.37,4.186,10.624M7.261,220.223c-4.44.7-1.939,7.646,1.971,5.323a2.888,2.888,0,0,0-1.971-5.323m6.215,15.3v-3.085a13.872,13.872,0,0,0-.736-1.732,5.834,5.834,0,0,0-10.163.353,10.568,10.568,0,0,0-.56,1.555v2.909Z" transform="translate(0 -179.751)" fill="#fff"/>
          <path id="Trazado_1263986" data-name="Trazado 1263986" d="M255.191,237.251a1.711,1.711,0,0,1-.92.225,100.392,100.392,0,0,1-13.061,0c-.985-.082-1.064-.169-1.146-1.146-.353-4.225.5-7.6,4.411-9.7a4.826,4.826,0,1,1,6.529,0c4.081,2.078,5.078,6.393,4.186,10.623m-7.932-17.014c-3.168.421-3.212,5.132.036,5.7,4.13.718,4.572-6.309-.036-5.7m6.211,15.293v-2.909a10.566,10.566,0,0,0-.56-1.555,5.834,5.834,0,0,0-10.163-.353,13.871,13.871,0,0,0-.736,1.732v3.085Z" transform="translate(-197.684 -179.761)" fill="#fff"/>
          <rect id="Rectángulo_457418" data-name="Rectángulo 457418" width="1.941" height="1.941" transform="translate(6.776 13.459)" fill="#fff"/>
          <rect id="Rectángulo_457419" data-name="Rectángulo 457419" width="1.941" height="1.941" transform="translate(10.655 13.459)" fill="#fff"/>
          <rect id="Rectángulo_457420" data-name="Rectángulo 457420" width="1.941" height="1.941" transform="translate(45.208 13.459)" fill="#fff"/>
          <rect id="Rectángulo_457421" data-name="Rectángulo 457421" width="1.941" height="1.941" transform="translate(49.086 13.459)" fill="#fff"/>
          <rect id="Rectángulo_457422" data-name="Rectángulo 457422" width="1.941" height="1.941" transform="translate(6.776 17.337)" fill="#fff"/>
          <rect id="Rectángulo_457423" data-name="Rectángulo 457423" width="1.941" height="1.941" transform="translate(6.776 28.796)" fill="#fff"/>
          <rect id="Rectángulo_457424" data-name="Rectángulo 457424" width="1.941" height="1.941" transform="translate(49.086 28.796)" fill="#fff"/>
          <rect id="Rectángulo_457425" data-name="Rectángulo 457425" width="1.941" height="1.941" transform="translate(27.931 30.735)" fill="#fff"/>
          <rect id="Rectángulo_457426" data-name="Rectángulo 457426" width="1.941" height="1.941" transform="translate(6.776 32.674)" fill="#fff"/>
          <rect id="Rectángulo_457427" data-name="Rectángulo 457427" width="1.941" height="1.941" transform="translate(49.086 32.674)" fill="#fff"/>
          <rect id="Rectángulo_457428" data-name="Rectángulo 457428" width="1.941" height="1.941" transform="translate(27.931 34.613)" fill="#fff"/>
          <rect id="Rectángulo_457429" data-name="Rectángulo 457429" width="1.941" height="1.941" transform="translate(49.086 21.215)" fill="#fff"/>
          <rect id="Rectángulo_457430" data-name="Rectángulo 457430" width="1.941" height="1.941" transform="translate(6.776 21.215)" fill="#fff"/>
          <rect id="Rectángulo_457431" data-name="Rectángulo 457431" width="1.941" height="1.941" transform="translate(49.086 17.337)" fill="#fff"/>
          <rect id="Rectángulo_457432" data-name="Rectángulo 457432" width="1.941" height="1.941" transform="translate(6.776 25.094)" fill="#fff"/>
          <rect id="Rectángulo_457433" data-name="Rectángulo 457433" width="1.941" height="1.941" transform="translate(49.086 25.094)" fill="#fff"/>
          <path id="Trazado_1263987" data-name="Trazado 1263987" d="M121.976,33.172c8.226-1.112,13.41,7.98,8.066,14.236a8.682,8.682,0,0,1-15-3.872c-.987-4.571,2.161-9.72,6.93-10.364m.173,1.936c-7.792,1.212-6.728,14.008,1.875,13.334,9.056-.709,7.809-14.841-1.875-13.334" transform="translate(-94.616 -27.247)" fill="#fff"/>
          <path id="Trazado_1263988" data-name="Trazado 1263988" d="M147.8,54.6a.846.846,0,0,1,.462.155,59.03,59.03,0,0,1,5.826,3.88,1.034,1.034,0,0,1,.454.769l-.7,1.046c-1.321.4-4.873,3.728-5.906,3.8-.854.059-1.08-.614-1.143-1.313a49.317,49.317,0,0,1,.02-7.4,1,1,0,0,1,.99-.937m.937,6.831,2.993-2.028-2.993-2.027Z" transform="translate(-120.808 -44.974)" fill="#fff"/>
        </g>
      </g>
    </g>
  </g>
</svg>
