<svg xmlns="http://www.w3.org/2000/svg" xmlns:xlink="http://www.w3.org/1999/xlink" width="96" height="96" viewBox="0 0 96 96">
  <defs>
    <clipPath id="clip-path">
      <rect id="Rect치ngulo_457417" data-name="Rect치ngulo 457417" width="59.378" height="53.15" fill="#fff"/>
    </clipPath>
  </defs>
  <g id="Grupo_1205986" data-name="Grupo 1205986" transform="translate(-383.746 -8400.001)">
    <path id="Trazado_997400" data-name="Trazado 997400" d="M48,0A48,48,0,1,1,0,48,48,48,0,0,1,48,0Z" transform="translate(383.746 8400.001)" fill="#5d0b80"/>
    <g id="Grupo_1099776" data-name="Grupo 1099776" transform="translate(401.746 8418)">
      <g id="Grupo_1099618" data-name="Grupo 1099618" transform="translate(-0.035 0)">
        <rect id="Rect치ngulo_401104" data-name="Rect치ngulo 401104" width="59.378" height="60.093" transform="translate(0)" fill="none"/>
      </g>
      <g id="Grupo_1206618" data-name="Grupo 1206618" transform="translate(-0.035 0)">
        <g id="Grupo_1206617" data-name="Grupo 1206617" clip-path="url(#clip-path)">
          <path id="Trazado_1263979" data-name="Trazado 1263979" d="M12.824,28.348a1.352,1.352,0,0,1-.511-.242,15.235,15.235,0,0,1-4.259-5.98C6.1,21.919,3.972,21.047,3.6,18.888c-.476-2.762.765-4.466,3.645-4.237l-.86-6.508C6.484,2.309,11.775-.6,17.145.1a.919.919,0,0,1,.124,1.832c-2.014.444-3.359-.379-5.715.71-5.005,2.314-2.918,7.739-2.62,12.008h1.524c-.239-2.592.554-5,3.459-5.248a84.514,84.514,0,0,1,10.834,0c2.9.218,3.668,2.5,3.533,5.09l1.35.168c.818-4.476,2.416-10.073-2.949-12.264-1.269-.842-5.222.028-6.007-.755-.636-.635-.1-1.392.695-1.522a13.34,13.34,0,0,1,6.841,1.086c5.342,2.76,4.121,8.539,3.21,13.444,2.88-.2,3.978,1.2,3.726,3.981a3.538,3.538,0,0,1-2.166,2.907c-.584.262-2.033.42-2.32.723a11.764,11.764,0,0,0-.562,1.3,17.957,17.957,0,0,1-4.17,4.96l-.089,3.21c1.75-.387,2.52,1.42,3.77,2.063,1.013.521,2.732.738,3.883,1.189.694.272,1.293.716,1.985.974V30.968c0-.515,1.691-.669,1.691.169V42.381h2.2V22.6h-2.2v4.988c0,.438-1.393.944-1.663.141a49.194,49.194,0,0,1-.032-5.556,1.39,1.39,0,0,1,.259-.756c.643-.849,5.325-.861,5.325.59v2.452c.746.018,1.556.286,2.285.336,4.842.335,8.853-2.18,14.089-.9,1.073.262,1.615.273,1.726,1.487a95.528,95.528,0,0,1,0,12.866c-.04.453-.056.991-.6,1.093-.83.155-2.58-.435-3.552-.507-3.417-.252-5.311.923-8.286,1.179a35.771,35.771,0,0,1-5.662-.166v2.621c0,.09,1,.672,1.186.891.911,1.064.805,5.261.68,6.724a2.906,2.906,0,0,1-2.364,2.877c-2.177.382-5.129.284-6.848-1.117L1.061,51.693a1.481,1.481,0,0,1-.908-1.121A53.2,53.2,0,0,1,.136,42.8c.2-2.941,1.537-6.016,4.256-7.411,1.515-.777,3.581-.947,4.927-1.667,1.08-.578,1.867-2.641,3.505-1.821Zm16.74-11.837c-1.15.112-2.749-.37-3.006-1.644-.268-1.328.439-3.1-1.386-3.686l-11.234-.064c-2.1.395-1.421,1.963-1.662,3.41-.262,1.571-1.728,2.1-3.173,1.984-.809,5.371,3.4,11.16,8.514,12.538,4.335,1.167,9.094-2.644,10.962-6.335a11.2,11.2,0,0,0,.984-6.2m-22.151,0C4.168,15.8,4.7,19.863,7.328,20.234c.515.072.085-.209.085-.256Zm23.842,3.719a2.321,2.321,0,0,0,1.861-3.636l-1.694-.084Zm26.207,5.411a20.434,20.434,0,0,0-6.977-.129c-.613.113-1.32.464-1.95.586a17.859,17.859,0,0,1-7.474.05V37.9a4.811,4.811,0,0,0,1.946.421c4.419.309,7.941-1.512,12.508-1.179.63.046,1.309.3,1.947.335ZM24.153,29.7a11.163,11.163,0,0,1-5,1.361A13.162,13.162,0,0,1,14.515,29.7v3.213l4.816,2.7,4.821-2.7Zm-6.426,6.936-5.4-3.149-1.349,1.049L14.449,39.5a24.131,24.131,0,0,0,3.115-2.44c.129-.147.219-.189.164-.424m6.761,2.871,3.2-4.684c.121-.454-.787-1.066-1.1-1.385l-5.637,3.449ZM1.834,42.635c-.225,2.33.167,4.989,0,7.355H7.244V45.848c0-.552,1.691-.552,1.691,0V49.99h5.5l.268-.409c.115-1.515,2.218-5.518,1.984-6.735a10.848,10.848,0,0,0-1.068-1.984c-.6.449-1.219,1.278-1.958.6l-4.079-5.81c-.306-.178-3.375.8-3.9,1.02-2.346.97-3.61,3.528-3.845,5.962M33.621,49.99v-5.5c0-.832,1.24-1.629,1.833-2.056L35.394,38.5c-.394-.341-.776-.89-1.181-1.186a16.817,16.817,0,0,0-4.441-1.662.717.717,0,0,0-.546.048c-.906.813-3.717,5.766-4.519,5.985-.82.224-1.443-1.039-1.735-.82l-.983,1.983,2.164,7.147h5.58V46.017c0-.838,1.691-.684,1.691-.169V49.99ZM21.593,39.534,19.332,37.86,17.079,39.9l.845,1.611a18.459,18.459,0,0,0,2.595.028c.432-.08,1.23-1.739,1.074-2m.7,10.457c-.265-.9-1.769-6.425-2.2-6.682a3.265,3.265,0,0,0-1.417-.058l-2.305,6.74ZM35.94,44.277a1.058,1.058,0,0,0-.623.729,43.311,43.311,0,0,0,.084,5.656,1.289,1.289,0,0,0,.423.423,25.587,25.587,0,0,0,4.9.006c.384-.19.475-.957.511-1.349.08-.871.124-4.745-.334-5.258a.736.736,0,0,0-.594-.251,30.328,30.328,0,0,0-4.368.044" transform="translate(0 0)" fill="#fff"/>
          <path id="Trazado_1263980" data-name="Trazado 1263980" d="M99.35,133.365c.982-.342,1.625,1.12,3.058.522.363-.151,1.523-1.243,1.869-.091.5,1.651-2.39,2.112-3.564,1.872-.92-.188-2.6-1.407-1.363-2.3" transform="translate(-82.186 -110.74)" fill="#fff"/>
          <path id="Trazado_1263981" data-name="Trazado 1263981" d="M88.338,95.85c1.126-.1,1.4,2.444.142,2.516-1.351.078-1.242-2.417-.142-2.516" transform="translate(-72.697 -79.641)" fill="#fff"/>
          <path id="Trazado_1263982" data-name="Trazado 1263982" d="M132.415,95.853c1.127-.1,1.4,2.443.142,2.516-1.4.081-1.149-2.427-.142-2.516" transform="translate(-109.334 -79.643)" fill="#fff"/>
        </g>
      </g>
    </g>
  </g>
</svg>
