<svg xmlns="http://www.w3.org/2000/svg" xmlns:xlink="http://www.w3.org/1999/xlink" width="127" height="128" viewBox="0 0 127 128">
  <defs>
    <clipPath id="clip-path">
      <rect id="Rect치ngulo_457583" data-name="Rect치ngulo 457583" width="71.021" height="78.153" fill="#5d0b80"/>
    </clipPath>
  </defs>
  <g id="Grupo_1205892" data-name="Grupo 1205892" transform="translate(-0.019)">
    <ellipse id="Elipse_13609" data-name="Elipse 13609" cx="63.5" cy="64" rx="63.5" ry="64" transform="translate(0.019)" fill="#fff"/>
    <g id="Grupo_1099776" data-name="Grupo 1099776" transform="translate(23.859 24)">
      <g id="Grupo_1099618" data-name="Grupo 1099618" transform="translate(0.159 0.081)">
        <rect id="Rect치ngulo_401104" data-name="Rect치ngulo 401104" width="78.706" height="80.124" transform="translate(0)" fill="none"/>
      </g>
      <g id="Grupo_1206700" data-name="Grupo 1206700" transform="translate(4.159 1.081)">
        <g id="Grupo_1206699" data-name="Grupo 1206699" clip-path="url(#clip-path)">
          <path id="Trazado_1264420" data-name="Trazado 1264420" d="M52.393,72.661c-1.078,3.488-3.2,5.789-7.095,5.461-4.44-.374-10.89-4.694-15.329-5.445-5.043-.853-12.7.965-17.506-.4-3.364-.96-4.587-4.319-4.405-7.535-1.581-1.045-3.6-1.214-5.214-2.189-2.462-1.49-3.216-4.134-2.683-6.9L8.156,33.8c.531-7.313-.637-15.463.011-22.675.5-5.57,6.14-5.8,10.527-5.712,1.2-4.128,4.086-6.2,8.453-5.129C31.256,1.284,37.468,4.972,41.27,5.5c4.616.637,15.684-1.227,19.082,1.216,2.441,1.755,2.565,3.876,2.626,6.688,2.49,1.4,5.243,1.433,7.046,3.939a6.681,6.681,0,0,1,.852,5.148L62.881,44.343c-.512,7.333.611,15.433-.012,22.674-.475,5.521-6.065,5.878-10.476,5.644M21.31,5.518h12.9L26.52,2.576c-2.616-.62-4.636.214-5.21,2.942M13.845,7.963a3.878,3.878,0,0,0-3.287,3.161l.118,56.489a4.263,4.263,0,0,0,3.818,2.629H56.543a3.9,3.9,0,0,0,3.942-3.461l-.124-56.257A4.123,4.123,0,0,0,56.543,7.9Zm49.016,28.6c.422-.064.412-.481.542-.772,1.011-2.275,1.958-5.086,2.806-7.463,2.016-5.652,5.3-10.653-3.348-12.064ZM8.176,61.875V41.338L2.919,55.066c-1.907,4.315,1.537,6.289,5.257,6.809M49.727,72.621H37.071l7.447,2.942c2.575.61,4.72-.2,5.21-2.942" transform="translate(0 -0.001)" fill="#5d0b80"/>
          <path id="Trazado_1264421" data-name="Trazado 1264421" d="M98.09,89.137l2.474.92c2.625-2.529,4.26-2.195,6.447.546,2.449,3.07-1.105,4.088-.739,5.5a15.724,15.724,0,0,0,.952,1.932c.5.379,1.9.241,2.588.517,1.714.687,1.781,3.215,1.552,4.771-.527,3.577-3.522,1.873-4.43,3.211a10.486,10.486,0,0,0-.711,2.072c.194.96,1.947,1.487,1.608,3.6-.15.938-2.644,3.368-3.564,3.607-1.952.508-2.933-1.76-4.124-1.527a16.155,16.155,0,0,0-1.967.921c-.577.782,0,2.588-1.229,3.547-.843.656-3.424.658-4.489.495-2.762-.422-1.624-3.514-2.661-4.264a9.439,9.439,0,0,0-2.121-.743c-.837.084-1.876,1.952-3.531,1.635-.984-.189-3.609-2.7-3.753-3.674-.284-1.93,1.1-2.267,1.546-3.461a4.356,4.356,0,0,0-.976-2.594c-.863-.587-2.914-.038-3.657-1.358a13.042,13.042,0,0,1-.216-4.7c.486-2.164,3.385-1.31,4.117-2.331a19.138,19.138,0,0,0,.843-2.025c-.035-1.276-3.215-2.034-.837-5.133,2.224-2.9,3.9-2.836,6.588-.572l2.338-.89c.114-3.623,1.362-4.613,4.94-4.273,2.709.258,2.779,1.954,3.012,4.272M95.4,87.289H92.826c-.4,1.021-.038,2.6-.733,3.445a43.865,43.865,0,0,1-4.244,1.982c-1.742.266-3.152-4.036-5-.078.32,1,1.9,2.04,1.829,3.085-.014.2-1.329,3.491-1.487,3.782-1.262,2.315-5.263-.684-3.743,3.976.954.222,2.771.057,3.453.727.156.153,1.681,3.736,1.735,4.009.223,1.13-1.114,2.267-1.757,3.172l0,.469,1.683,1.617c1.057-.416,1.962-1.835,3.116-1.873.975-.032,2.854,1.416,4.025,1.479,1.161.347.706,3.661,1.248,3.809l2.446-.048.733-3.446c1.284-.385,3.866-2.036,5.04-1.668.6.187,2.294,1.845,2.618,1.7l1.647-1.722-1.885-3.087a42.817,42.817,0,0,1,1.617-4.1c.688-1.182,2.488-.659,3.645-1.13l.126-2.533c-.305-.429-2.747-.14-3.5-.8A42,42,0,0,1,103.65,96.1c-.417-1.509,1.5-2.321,1.77-3.669l-1.75-1.589-3.107,1.9c-1-.682-4.166-1.362-4.6-2.313-.4-.891-.22-2.187-.563-3.137" transform="translate(-58.595 -64.552)" fill="#5d0b80"/>
          <path id="Trazado_1264422" data-name="Trazado 1264422" d="M60.041,248.195a4.231,4.231,0,0,1,2.9-7.079H97.805a4.179,4.179,0,0,1,0,8.352c-11.185-.718-23.59.966-34.632.011a4.827,4.827,0,0,1-3.132-1.285M86.7,243.5h-24c-.968,0-1.7,1.754-1.091,2.763a4.583,4.583,0,0,0,1.091.819h24Zm11.343,0c-2.536-.445-6.282.331-8.955,0v3.582h8.955a9.654,9.654,0,0,0,1.013-.536,1.928,1.928,0,0,0-1.013-3.046" transform="translate(-44.857 -183.537)" fill="#5d0b80"/>
          <path id="Trazado_1264425" data-name="Trazado 1264425" d="M124.2,126.862c11.44-1.931,11.892,15.411.9,14.507-8.384-.689-8.566-13.213-.9-14.507m.478,2.388c-5.08.874-4.894,8.8.238,9.676,7.675,1.309,7.937-11.083-.238-9.676" transform="translate(-90.298 -96.453)" fill="#5d0b80"/>
        </g>
      </g>
    </g>
  </g>
</svg>
