<svg xmlns="http://www.w3.org/2000/svg" xmlns:xlink="http://www.w3.org/1999/xlink" width="96" height="96" viewBox="0 0 96 96">
  <defs>
    <clipPath id="clip-path">
      <rect id="Rectángulo_457611" data-name="Rectángulo 457611" width="55.04" height="55.987" fill="#fff"/>
    </clipPath>
  </defs>
  <g id="Grupo_1205909" data-name="Grupo 1205909" transform="translate(-383.746 -8400.001)">
    <path id="Trazado_997400" data-name="Trazado 997400" d="M48,0A48,48,0,1,1,0,48,48,48,0,0,1,48,0Z" transform="translate(383.746 8400.001)" fill="#5d0b80"/>
    <g id="Grupo_1099776" data-name="Grupo 1099776" transform="translate(401.746 8418)">
      <g id="Grupo_1099618" data-name="Grupo 1099618" transform="translate(0 0)">
        <rect id="Rectángulo_401104" data-name="Rectángulo 401104" width="59.378" height="60.093" transform="translate(0)" fill="none"/>
      </g>
      <g id="Grupo_1206747" data-name="Grupo 1206747" transform="translate(2.425 2)">
        <g id="Grupo_1206746" data-name="Grupo 1206746" clip-path="url(#clip-path)">
          <path id="Trazado_1264564" data-name="Trazado 1264564" d="M0,24.566l1.492-1.884L1.5,3.635C1.839,1.413,3.327.4,5.5.242c10.225-.768,21.4.595,31.724,0a3.663,3.663,0,0,1,3.7,3.614,3.75,3.75,0,0,1,3.568,2.921l.043,16.388c.082.43.961,1.078,1.283,1.51a11.939,11.939,0,0,1,1.04,12.435c.483.8,2.167,1.713,2.124,2.648-.018.4-.411.785-.27,1.067l6.332,6.331c-.358.24-1.062,1.372-1.474,1.16l-6.327-6.333-1.394,1.394,9.2,9.2L53.81,53.81l-7.476-7.391v5.669c0,1.979-2.771,3.979-4.677,3.867-12.893-.169-25.854.312-38.707-.245A5.284,5.284,0,0,1,0,53.155Zm39.1-4.272V3.289c0-.548-1.471-1.363-2.047-1.239H5.334A2.261,2.261,0,0,0,3.286,3.617v18.32c3.82-.379,7.737-.052,11.592-.173.882-.029,1.342,1.7,1.962,1.817L28.258,23.5a11.611,11.611,0,0,1,10.847-3.2m3.615,1.479V6.9c0-.416-1.287-1.365-1.807-1.232v15.28Zm-6.935.049c-14.47,1.222-10.271,23.588,3.778,19.222,10.937-3.4,7.606-20.183-3.778-19.222M25.139,29H18.32c-.61,0-3.177-4.842-3.974-5.391L4.189,23.579a2.934,2.934,0,0,0-2.717,2.87c-.707,7.891.548,16.822,0,24.823a2.953,2.953,0,0,0,2.875,2.875h37.31c1.066.158,2.87-1.172,2.87-2.224V44.776c-1.573,1.15-2.635-1.523-3.859-2.254A11.647,11.647,0,0,1,25.139,29m1.479-3.615H17.909l1.263,1.776,6.6,0ZM45.759,38.7a12.218,12.218,0,0,1-3.365,3.037l1.229,1.229,3.2-3.2Z" transform="translate(0 0)" fill="#fff"/>
          <rect id="Rectángulo_457606" data-name="Rectángulo 457606" width="19.717" height="1.807" transform="translate(14.13 7.478)" fill="#fff"/>
          <path id="Trazado_1264565" data-name="Trazado 1264565" d="M105.717,100.514c-.074.587.221,1.374-.246,1.807H86v-1.807Z" transform="translate(-71.87 -83.999)" fill="#fff"/>
          <path id="Trazado_1264566" data-name="Trazado 1264566" d="M31.372,78.154a45.148,45.148,0,0,1,5.724-.043.982.982,0,0,1,.809.505,21.555,21.555,0,0,1,.089,3.86c-.107.923-.546,1-1.393,1.072a32.476,32.476,0,0,1-4.606-.007c-.788-.081-1.139-.231-1.235-1.065a16.561,16.561,0,0,1,.157-3.956,1.055,1.055,0,0,1,.456-.366m4.812,1.773H32.569v1.807h3.615Z" transform="translate(-25.669 -65.219)" fill="#fff"/>
          <path id="Trazado_1264567" data-name="Trazado 1264567" d="M31.513,23.1a34.877,34.877,0,0,1,5.39-.038c.855.1,1,.434,1.072,1.228.081.891.267,3.827-.655,4.125a36.274,36.274,0,0,1-5.517.076c-.721-.084-.983-.341-1.068-1.068-.079-.678-.1-3.608.255-4.023a.973.973,0,0,1,.523-.3m4.648,1.772H32.546v1.807h3.615Z" transform="translate(-25.645 -19.203)" fill="#fff"/>
          <rect id="Rectángulo_457607" data-name="Rectángulo 457607" width="15.116" height="1.807" transform="translate(14.13 3.863)" fill="#fff"/>
          <rect id="Rectángulo_457608" data-name="Rectángulo 457608" width="15.116" height="1.807" transform="translate(14.13 12.9)" fill="#fff"/>
          <rect id="Rectángulo_457609" data-name="Rectángulo 457609" width="1.645" height="1.809" transform="translate(35.654 7.477)" fill="#fff"/>
          <rect id="Rectángulo_457610" data-name="Rectángulo 457610" width="1.645" height="1.809" transform="translate(35.654 16.514)" fill="#fff"/>
          <path id="Trazado_1264568" data-name="Trazado 1264568" d="M180.752,143.59c10.478-.972,11.787,14.937,1.906,16.036-11.284,1.255-12.475-15.056-1.906-16.036m0,1.806c-8.006.873-7.16,13.47,1.744,12.423,7.584-.892,6.546-13.327-1.744-12.423" transform="translate(-144.967 -119.962)" fill="#fff"/>
        </g>
      </g>
    </g>
  </g>
</svg>
