<svg xmlns="http://www.w3.org/2000/svg" xmlns:xlink="http://www.w3.org/1999/xlink" width="140.5" height="140" viewBox="0 0 140.5 140">
  <defs>
    <clipPath id="clip-path">
      <rect id="Rectángulo_454807" data-name="Rectángulo 454807" width="129.392" height="128.578" fill="#ffdc6b"/>
    </clipPath>
    <clipPath id="clip-path-2">
      <rect id="Rectángulo_455239" data-name="Rectángulo 455239" width="21.905" height="21.167" fill="#f0d5fe"/>
    </clipPath>
    <clipPath id="clip-path-3">
      <rect id="Rectángulo_456963" data-name="Rectángulo 456963" width="88" height="88" transform="translate(-0.213)" fill="#fff" stroke="#707070" stroke-width="1"/>
    </clipPath>
    <clipPath id="clip-path-4">
      <rect id="Rectángulo_457600" data-name="Rectángulo 457600" width="75.311" height="84" fill="none"/>
    </clipPath>
  </defs>
  <g id="Grupo_1205857" data-name="Grupo 1205857" transform="translate(-925.044 -4485.507)">
    <g id="Grupo_1205854" data-name="Grupo 1205854" transform="translate(925.044 4485.507)">
      <g id="Grupo_1177797" data-name="Grupo 1177797" transform="translate(3.608 3.493)">
        <rect id="Rectángulo_454806" data-name="Rectángulo 454806" width="129.392" height="128.578" rx="7" transform="translate(0.059)" fill="#e3a4fe"/>
        <path id="Rectángulo_454808" data-name="Rectángulo 454808" d="M0,0H90.392a12,12,0,0,1,12,12v88.578a0,0,0,0,1,0,0H12a12,12,0,0,1-12-12V0A0,0,0,0,1,0,0Z" transform="translate(15.059 14)" fill="#fff"/>
      </g>
      <g id="OBJECTS" transform="translate(0 0)">
        <g id="Grupo_1178078" data-name="Grupo 1178078">
          <path id="Trazado_998163" data-name="Trazado 998163" d="M0,0V21.167H14.386V13.534h7.52V0Z" transform="translate(0 0)" fill="#5d0b80"/>
          <g id="Grupo_1178077" data-name="Grupo 1178077" transform="translate(0 0)">
            <g id="Grupo_1178076" data-name="Grupo 1178076" clip-path="url(#clip-path-2)">
              <path id="Trazado_998164" data-name="Trazado 998164" d="M13.917,22.751a5.075,5.075,0,1,1,5.075,5.075,5.075,5.075,0,0,1-5.075-5.075" transform="translate(-11.423 -14.509)" fill="#fbf1ff"/>
            </g>
          </g>
        </g>
      </g>
      <rect id="Rectángulo_455274" data-name="Rectángulo 455274" width="13.423" height="19.449" transform="translate(108.404 120.551)" fill="#f0d5fe"/>
      <path id="Sustracción_129" data-name="Sustracción 129" d="M17.284,16.99H7.538V9.581H0V0H17.284Z" transform="translate(140 117.538) rotate(180)" fill="#5d0b80" stroke="rgba(0,0,0,0)" stroke-miterlimit="10" stroke-width="1"/>
    </g>
    <g id="Enmascarar_grupo_1119223" data-name="Enmascarar grupo 1119223" transform="translate(948.896 4510.767)" clip-path="url(#clip-path-3)">
      <g id="Grupo_1206743" data-name="Grupo 1206743" transform="translate(6.787 1.974)">
        <g id="Grupo_1206742" data-name="Grupo 1206742" clip-path="url(#clip-path-4)">
          <path id="Trazado_1264538" data-name="Trazado 1264538" d="M13.456,85.8a1.2,1.2,0,0,1-.217.859c-.74.871-6.792-.142-8.689.7a4.552,4.552,0,0,0-2.164,2.89v3.971H12.613c.668,0,.873.871.842,1.444-.043.822-.268,1.056-1.1,1.187-2.942.462-6.913-.309-9.97.016v45.6a9.505,9.505,0,0,0,.96,1.928c1.76,1.992,7.266,1.3,9.869,1.321,18.562.179,37.141-.132,55.706,0,1.741.009,3.974-1.665,3.974-3.486V96.869c-2.319-.426-8.779.67-10.588-.241a.848.848,0,0,1-.481-.963c.02-.453.469-1.444.842-1.444H72.895V90.251c0-1.075-1.507-2.666-2.515-3.02-1.864-.654-7.237.254-8.212-.452-.271-.2-.528-.956-.584-.98a1.4,1.4,0,0,1,1.089-1.2,38.678,38.678,0,0,1,8.4.25,6.412,6.412,0,0,1,4.168,4.736l.068,52.893a6.412,6.412,0,0,1-5.9,5.654l-63.308,0A6.476,6.476,0,0,1,0,142.931V89.79a6.217,6.217,0,0,1,5.626-5.2,46.332,46.332,0,0,1,6.981.015c.69.132.849.545.849,1.2" transform="translate(0 -64.136)" fill="#040505"/>
          <path id="Trazado_1264539" data-name="Trazado 1264539" d="M109.865,21.664c.006,3.278.087,6.591,0,9.866-.206,7.754-2.31,14.288-8.179,19.616a50.553,50.553,0,0,1-12.342,7.148,2.168,2.168,0,0,1-1.012.206c-7.924-3.155-15.13-6.95-18.987-14.967-2.02-4.2-2.434-7.405-2.556-12-.087-3.275,0-6.588,0-9.866Q66.8,15.1,66.779,8.537l.229-.733L88.328,0,109.5,7.709a2.062,2.062,0,0,1,.374,1.31c.345,3.828-.018,8.689-.011,12.645M74.25,7.706a39.922,39.922,0,0,0-4.507,1.629c-.29.171-.534.252-.547.657.384,7.724-.509,15.927-.01,23.593a23.789,23.789,0,0,0,7.837,15.986c3.3,2.861,7.414,4.423,11.322,6.261,1.6-.345,2.993-1.454,4.434-2.163,8.71-4.289,13.632-9.751,14.688-19.844L107.42,9.79l-.681-.523L88.328,2.648c-4.72,1.6-9.417,3.3-14.078,5.058" transform="translate(-50.687 -0.001)" fill="#040505"/>
          <path id="Trazado_1264540" data-name="Trazado 1264540" d="M23.632,90.02c0,3.278-.087,6.591,0,9.866H20.985c.03-.572-.174-1.444-.842-1.444H9.915V94.472a4.552,4.552,0,0,1,2.164-2.89c1.9-.846,7.948.168,8.689-.7a1.2,1.2,0,0,0,.217-.859Z" transform="translate(-7.529 -68.357)" fill="#fbce73"/>
          <path id="Trazado_1264541" data-name="Trazado 1264541" d="M248.321,89.847c.056.025.312.784.584.98.975.706,6.348-.2,8.212.452,1.008.354,2.515,1.945,2.515,3.02v3.971H249.4c-.373,0-.822.991-.842,1.444h-2.647c.087-3.275.006-6.588,0-9.866.564.12,2.024-.17,2.406,0" transform="translate(-186.737 -68.184)" fill="#fbce73"/>
          <path id="Trazado_1264542" data-name="Trazado 1264542" d="M99.084,135.02c1.809.911,8.27-.186,10.588.241v45.361c0,1.821-2.232,3.5-3.973,3.487-18.566-.129-37.145.182-55.707,0-.012-.652-.665-.877-.928-1.359-.861-1.574-.414-3.426-.516-5.139a74.043,74.043,0,0,0,9.492-.022c.728-.1,1.1-.395,1.1-1.181h2.888c0,.756.261,1.189,1.072,1.215l37.256-.066a3.148,3.148,0,0,0,2.32-2.733c.189-1.39.2-5.306-.5-6.44a3.1,3.1,0,0,0-2.479-1.372l-51.149.012v-4.813c4.2.075,8.416-.042,12.619-.015a1.308,1.308,0,0,0,0-2.617c-4.2.027-8.419-.09-12.619-.015,0-1.762-.006-3.532,0-5.294,0-.514,0-1.179,0-1.685.014-1.842,0-3.693,0-5.535,0-.586,0-1.338,0-1.925a46.571,46.571,0,0,1,.007-6.13c.133-.7.734-1.119,1.336-.629.478.389,1.12,4.083,1.426,5.073,1.015,3.29,2.749,5.967,4.45,8.905a14.852,14.852,0,0,0-3.611.119,1.4,1.4,0,0,0-.244,1.932c.571.581,5.2.912,4.818-1.089,3.91,3.918,10.91,8.768,16.235,10.357a4.716,4.716,0,0,0,2.95.045,65.1,65.1,0,0,0,8.561-4.193,37.558,37.558,0,0,0,7.87-6.208c-.5,2.1,4.453,1.791,4.936.714,1.033-2.3-2.989-1.609-4.214-1.676a33.509,33.509,0,0,0,5.475-12.935c.231-1.39.084-3.047.541-4.392m5.235,11.975c.475-.472.339-1.838-.342-2.069-.8-.271-3.595-.256-3.9.857-.522,1.932,3.633,1.815,4.237,1.212m-2.892,5.17c-.989.187-1.64.753-1.2,1.8.508,1.215,3.79,1.13,4.27.065.852-1.891-1.751-2.11-3.067-1.861m2.893,7.7c-.266-.266-.882-.277-1.255-.308-4.86-.406-10.263.332-15.183,0a1.336,1.336,0,0,0,0,2.672c4.8-.49,10.768.609,15.426,0a1.445,1.445,0,0,0,1.013-2.362" transform="translate(-36.777 -102.528)" fill="#fff9e9"/>
          <path id="Trazado_1264543" data-name="Trazado 1264543" d="M23.632,131.02c.122,4.6.535,7.8,2.556,12,3.857,8.016,11.062,11.812,18.987,14.967a2.167,2.167,0,0,0,1.012-.206,50.554,50.554,0,0,0,12.342-7.148c5.868-5.328,7.973-11.862,8.179-19.616h2.647a.848.848,0,0,0,.481.963c-.457,1.345-.31,3-.541,4.392a33.507,33.507,0,0,1-5.475,12.934c-.188.248-.589.805-.722.963a37.556,37.556,0,0,1-7.87,6.208,65.072,65.072,0,0,1-8.561,4.193,4.717,4.717,0,0,1-2.95-.045c-5.324-1.589-12.325-6.438-16.235-10.357-.325-.325-.06-.826-.963-.963-1.7-2.939-3.436-5.615-4.451-8.905-.305-.99-.947-4.684-1.426-5.073-.6-.489-1.2-.069-1.336.629a46.613,46.613,0,0,0-.007,6.13c-1.407-.509-5.142-.688-3.971,1.686.414.84,3.106.494,3.971.239,0,1.842.014,3.693,0,5.535-1.227-.728-4.221-.875-4.116,1.084.082,1.522,3.176,1.36,4.116.6-.006,1.762,0,3.532,0,5.294-1.457.026-4.116-.582-4.116,1.324s2.659,1.3,4.116,1.324v4.813a5.488,5.488,0,0,0-1.648,1.36c-.84,1.37-.829,6.884.2,8.151a8.58,8.58,0,0,0,1.45,1.077c.1,1.713-.345,3.564.516,5.139.263.481.916.707.928,1.359-2.6-.025-8.109.671-9.869-1.321a9.5,9.5,0,0,1-.96-1.928v-45.6c3.057-.326,7.028.446,9.97-.016.831-.131,1.056-.365,1.1-1.187Z" transform="translate(-7.529 -99.491)" fill="#ffe9a1"/>
          <path id="Trazado_1264544" data-name="Trazado 1264544" d="M116.329,62.022c-.771-.487-1.889-.683-2.406-1.444,9.024-3.863,14.14-9.723,14.689-19.843.364-6.719-.2-13.845-.116-20.6-.215-.654-.786-.8-1.343-1.063-4.634-2.165-10.458-3.528-15.276-5.426-4.562,1.665-9.33,3.035-13.837,4.819-.513-.571-.137-1.65-.241-2.406,4.66-1.757,9.357-3.456,14.078-5.058l18.412,6.62.681.523.048,24.035c-1.056,10.093-5.979,15.556-14.688,19.844" transform="translate(-74.236 -8.354)" fill="#c9e3e6"/>
          <path id="Trazado_1264545" data-name="Trazado 1264545" d="M81.685,34.426c-1.079.427-2.932.956-2.892,2.282.809,14.14-3.955,29.334,10.588,37.79a34.725,34.725,0,0,0,5.72,2.71c1.174.221,1.528-.268,2.467-.669.518.761,1.636.957,2.406,1.444-1.441.709-2.833,1.818-4.434,2.163-3.908-1.838-8.017-3.4-11.322-6.261A23.789,23.789,0,0,1,76.381,57.9c-.5-7.666.393-15.87.01-23.593.013-.4.256-.486.547-.657a39.924,39.924,0,0,1,4.507-1.629c.1.756-.272,1.835.241,2.406" transform="translate(-57.882 -24.315)" fill="#a6d0d4"/>
          <path id="Trazado_1264546" data-name="Trazado 1264546" d="M62.96,285H60.072c0-.786-.368-1.077-1.1-1.181-1.608-.229-8.181.337-8.913-.24-.489-.385-.486-4.49-.214-5.073a2.149,2.149,0,0,1,.478-.485h50.295c.8,0,.708,3.988.613,4.7-.081.61-.2.94-.86,1.065l-36.342,0c-.81.025-1.072.458-1.072,1.214" transform="translate(-37.713 -211.116)" fill="#fbce73"/>
          <path id="Trazado_1264547" data-name="Trazado 1264547" d="M55.287,277.367c0-.756.261-1.189,1.072-1.214l36.342,0c.661-.125.779-.456.86-1.065.1-.715.192-4.7-.613-4.7H42.653a2.148,2.148,0,0,0-.478.485c-.273.583-.275,4.688.214,5.073.733.577,7.305.011,8.913.24.728.1,1.1.395,1.1,1.181s-.368,1.077-1.1,1.181a74,74,0,0,1-9.492.023,8.581,8.581,0,0,1-1.45-1.077c-1.027-1.267-1.038-6.781-.2-8.151a5.488,5.488,0,0,1,1.648-1.36l51.149-.012a3.1,3.1,0,0,1,2.479,1.372c.692,1.134.685,5.05.5,6.44a3.149,3.149,0,0,1-2.32,2.733l-37.256.066c-.81-.025-1.072-.458-1.072-1.214" transform="translate(-30.04 -203.485)" fill="#040505"/>
          <path id="Trazado_1264548" data-name="Trazado 1264548" d="M224.6,236.891a1.445,1.445,0,0,1-1.013,2.362c-4.658.609-10.622-.49-15.426,0a1.336,1.336,0,0,1,0-2.672c4.921.335,10.324-.4,15.183,0,.373.031.99.041,1.255.308" transform="translate(-157.056 -179.556)" fill="#040505"/>
          <path id="Trazado_1264549" data-name="Trazado 1264549" d="M35.928,236.792c4.2-.075,8.416.042,12.619.015a1.308,1.308,0,0,1,0,2.617c-4.2-.027-8.419.09-12.619.015-1.457-.026-4.116.582-4.116-1.324s2.659-1.3,4.116-1.324" transform="translate(-24.157 -179.754)" fill="#040505"/>
          <path id="Trazado_1264550" data-name="Trazado 1264550" d="M65.874,206.851c.9.137.638.637.963.963.386,2-4.247,1.67-4.818,1.089a1.4,1.4,0,0,1,.244-1.933,14.878,14.878,0,0,1,3.611-.119" transform="translate(-46.883 -157.033)" fill="#040505"/>
          <path id="Trazado_1264551" data-name="Trazado 1264551" d="M230.8,207.83c.133-.157.534-.714.722-.963,1.225.068,5.247-.629,4.214,1.677-.483,1.078-5.441,1.388-4.936-.714" transform="translate(-175.233 -157.05)" fill="#040505"/>
          <path id="Trazado_1264552" data-name="Trazado 1264552" d="M264.421,206c1.316-.249,3.919-.03,3.066,1.861-.48,1.065-3.762,1.151-4.27-.065-.436-1.044.214-1.609,1.2-1.8" transform="translate(-199.771 -156.365)" fill="#040505"/>
          <path id="Trazado_1264553" data-name="Trazado 1264553" d="M35.919,206.45c0,.506,0,1.171,0,1.685-.94.76-4.034.922-4.116-.6-.105-1.96,2.889-1.813,4.116-1.084" transform="translate(-24.148 -156.391)" fill="#040505"/>
          <path id="Trazado_1264554" data-name="Trazado 1264554" d="M267.156,177.793c-.605.6-4.76.72-4.238-1.212.3-1.113,3.1-1.128,3.9-.857.681.231.816,1.6.342,2.069" transform="translate(-199.614 -133.326)" fill="#040505"/>
          <path id="Trazado_1264555" data-name="Trazado 1264555" d="M35.678,176.017c0,.587,0,1.339,0,1.925-.865.255-3.557.6-3.971-.239-1.171-2.375,2.564-2.2,3.971-1.686" transform="translate(-23.907 -133.418)" fill="#040505"/>
          <path id="Trazado_1264556" data-name="Trazado 1264556" d="M105.254,68.927c-.938.4-1.292.891-2.467.669a34.737,34.737,0,0,1-5.72-2.71C82.525,58.43,87.289,43.236,86.48,29.1c-.04-1.325,1.813-1.854,2.892-2.282C93.879,25.03,98.647,23.66,103.209,22c4.818,1.9,10.642,3.261,15.276,5.426.558.26,1.129.409,1.343,1.063-.089,6.754.48,13.881.116,20.6-.549,10.121-5.665,15.98-14.689,19.843m-2.463-44.232-13.55,5-.12,20.835c.705,8.287,6.7,14.043,14.309,16.472,7.3-2.657,13.3-8.36,13.865-16.472.457-6.555-.372-13.626,0-20.237l-.124-.6-13.17-4.88a2.071,2.071,0,0,0-1.215-.117" transform="translate(-65.568 -16.702)" fill="#040505"/>
          <path id="Trazado_1264557" data-name="Trazado 1264557" d="M111.546,33.092a2.071,2.071,0,0,1,1.215.117l13.17,4.88.124.6c-.376,6.612.454,13.683,0,20.237-.566,8.111-6.569,13.815-13.865,16.472-7.605-2.429-13.6-8.185-14.309-16.472L98,38.089Zm4.629,21.13c.407-.115,1.068-1.778,1.685-1.925.6-.143.978.238,1.7-.341.194-.155,1.928-2.4,2.106-2.707,1.1-1.878.234-2.578-1.183-3.79s-3.093-2.437-4.676-.865c-2.264,2.247-4.146,5.922-6.372,8.326-.6.321-1.52-1.476-3.221-.59a16.64,16.64,0,0,0-2.931,3.563,2.811,2.811,0,0,0,0,1.712c.25.805,4.9,4.2,5.776,4.328a3.988,3.988,0,0,0,3.6-1c.394-.383,3.759-4.74,3.867-5.039a1.413,1.413,0,0,0-.352-1.673" transform="translate(-74.323 -25.1)" fill="#e3a4fe"/>
          <path id="Trazado_1264558" data-name="Trazado 1264558" d="M134.514,86.356a3.461,3.461,0,0,1-.478-1.1c-.091-1.822,4.082-3.011.147-4.658l-6.995,8.9c-1.608.921-2.495-.493-3.145-.5-.494,0-1.726,1.515-1.455,1.932.32.494,3.609,2.751,4.332,2.65,1.092-.153,3.244-4.446,4.331-5.073.689-.4,1.123-.1,1.579-.227a1.413,1.413,0,0,1,.352,1.673c-.108.3-3.473,4.656-3.867,5.039a3.988,3.988,0,0,1-3.6,1c-.88-.125-5.525-3.523-5.776-4.328a2.811,2.811,0,0,1,0-1.712,16.64,16.64,0,0,1,2.931-3.563c1.7-.886,2.623.911,3.221.59,2.225-2.4,4.108-6.078,6.372-8.326,1.583-1.572,3.247-.358,4.676.865s2.28,1.912,1.183,3.79c-.178.305-1.911,2.552-2.106,2.707-.727.579-1.108.2-1.7.341" transform="translate(-90.978 -59.159)" fill="#040505"/>
          <path id="Trazado_1264559" data-name="Trazado 1264559" d="M143.161,94.854c-.616.148-1.277,1.811-1.685,1.925-.456.128-.89-.17-1.579.227-1.087.627-3.239,4.92-4.331,5.073-.723.1-4.012-2.155-4.332-2.649-.27-.417.961-1.936,1.455-1.932.65.005,1.537,1.419,3.145.5l6.995-8.9c3.935,1.646-.239,2.835-.147,4.658a3.461,3.461,0,0,0,.478,1.1" transform="translate(-99.625 -67.656)" fill="#fbf1ff"/>
        </g>
      </g>
    </g>
  </g>
</svg>
