<svg xmlns="http://www.w3.org/2000/svg" xmlns:xlink="http://www.w3.org/1999/xlink" width="1019.997" height="560" viewBox="0 0 1019.997 560">
  <defs>
    <clipPath id="clip-path">
      <path id="Trazado_611005" data-name="Trazado 611005" d="M0,0H1020V559H0Z" transform="translate(0 0)" fill="#e6fffa"/>
    </clipPath>
    <radialGradient id="radial-gradient" cx="0.5" cy="0.5" r="0.5" gradientUnits="objectBoundingBox">
      <stop offset="0" stop-color="#9d0388"/>
      <stop offset="1" stop-color="#ff85e7"/>
    </radialGradient>
  </defs>
  <g id="Grupo_1206797" data-name="Grupo 1206797" transform="translate(-289.711 -5780)">
    <g id="Grupo_1205923" data-name="Grupo 1205923" transform="translate(290 5780.156)">
      <g id="Grupo_1073695" data-name="Grupo 1073695" transform="translate(1019.711 559.844) rotate(180)">
        <path id="Trazado_608309" data-name="Trazado 608309" d="M0,0H1020V559H0Z" transform="translate(0.003)" fill="#e6fffa"/>
      </g>
      <g id="Grupo_1205928" data-name="Grupo 1205928" transform="translate(11.281 53.605)">
        <g id="Grupo_1115765" data-name="Grupo 1115765" transform="translate(270.478 35.238)">
          <path id="Unión_13" data-name="Unión 13" d="M91.5,413.7,75.427,436.013,33.814,343.585l100.849,10.173-20.077,27.884A191.48,191.48,0,0,0,261.894,413.11C365.963,392.881,434.17,291.759,413.941,187.694a19.752,19.752,0,0,1,38.777-7.538c24.387,125.45-57.834,247.351-183.284,271.735a233.327,233.327,0,0,1-44.542,4.3A230.57,230.57,0,0,1,91.5,413.7ZM4.283,276.037C-20.1,150.587,62.123,28.686,187.57,4.3A230.781,230.781,0,0,1,365.5,42.5L381.577,20.18l41.617,92.426L322.343,102.435,342.42,74.552A191.491,191.491,0,0,0,195.108,43.08C91.042,63.31,22.834,164.431,43.063,268.5a19.753,19.753,0,1,1-38.781,7.538Z" transform="translate(0 0)" fill="#f0d5fe" stroke="rgba(0,0,0,0)" stroke-miterlimit="10" stroke-width="1"/>
          <path id="Trazado_918483" data-name="Trazado 918483" d="M964.442,565.453H835.891a173.76,173.76,0,0,0,169.754,169.754V603.7a45.767,45.767,0,0,1-41.2-38.245" transform="translate(-780.559 -335.067)" fill="#5d0b80"/>
          <path id="Trazado_918484" data-name="Trazado 918484" d="M1414.3,565.453a45.772,45.772,0,0,1-39.883,38.113V735.207A173.759,173.759,0,0,0,1544.17,565.453Z" transform="translate(-1141.319 -335.243)" fill="#ffe9a1"/>
          <path id="Trazado_918485" data-name="Trazado 918485" d="M1413.533,196.647h128.851A173.758,173.758,0,0,0,1371.75,26.877v124.78a45.749,45.749,0,0,1,41.783,44.99" transform="translate(-1139.789 26.176)" fill="#37dbc5"/>
          <path id="Trazado_918486" data-name="Trazado 918486" d="M1004.766,151.774V26.994A173.759,173.759,0,0,0,835.892,196.726h127.53a45.751,45.751,0,0,1,41.343-44.951" transform="translate(-780.56 25.743)" fill="#e3a4fe"/>
          <path id="Trazado_918487" data-name="Trazado 918487" d="M1264.037,473.991a28.781,28.781,0,0,1,49.526-19.948l-3.747,3.524,14.528,4.375-3.475-14.77-3,2.82a34.694,34.694,0,0,0-59.747,24,2.957,2.957,0,1,0,5.913,0" transform="translate(-1063.488 -250.533)" fill="#5d0b80"/>
          <path id="Trazado_918488" data-name="Trazado 918488" d="M1326.765,530.711a2.957,2.957,0,0,0-2.957,2.957,28.781,28.781,0,0,1-49.526,19.948l3.746-3.524-14.528-4.375,3.475,14.77,3-2.82a34.693,34.693,0,0,0,59.747-24,2.957,2.957,0,0,0-2.957-2.957" transform="translate(-1067.09 -311.787)" fill="#5d0b80"/>
          <g id="Grupo_1114317" data-name="Grupo 1114317" transform="translate(94.904 118.381)">
            <path id="Trazado_918489" data-name="Trazado 918489" d="M130.064,62.361" transform="translate(-2.546 -32.237)" fill="url(#radial-gradient)"/>
            <path id="Trazado_918493" data-name="Trazado 918493" d="M206.75,183.486h-60.7l-9.325-42.414h60.7Z" transform="translate(-96.612 -132.537)" fill="#3681b0"/>
            <path id="Trazado_918494" data-name="Trazado 918494" d="M104.934,183.486h60.7l9.325-42.414h-60.7Z" transform="translate(-74.15 -132.537)" fill="#5bb2e2"/>
            <path id="Trazado_918495" data-name="Trazado 918495" d="M139.211,168.1h8.274l1.271-5.781h-8.274Z" transform="translate(-98.371 -147.551)" fill="#d8e6e7"/>
            <path id="Trazado_918496" data-name="Trazado 918496" d="M126.982,223.726h8.274l1.271-5.781h-8.274Z" transform="translate(-89.729 -186.857)" fill="#d8e6e7"/>
            <path id="Trazado_918497" data-name="Trazado 918497" d="M133.1,195.915h8.274l1.271-5.781h-8.274Z" transform="translate(-94.051 -167.205)" fill="#d8e6e7"/>
            <path id="Trazado_918498" data-name="Trazado 918498" d="M178.2,168.1h8.274l1.271-5.781h-8.274Z" transform="translate(-125.924 -147.551)" fill="#d8e6e7"/>
            <path id="Trazado_918499" data-name="Trazado 918499" d="M165.972,223.726h8.274l1.271-5.781h-8.274Z" transform="translate(-117.282 -186.857)" fill="#d8e6e7"/>
            <path id="Trazado_918500" data-name="Trazado 918500" d="M172.088,195.915h8.274l1.271-5.781h-8.274Z" transform="translate(-121.603 -167.205)" fill="#d8e6e7"/>
            <path id="Trazado_918501" data-name="Trazado 918501" d="M159.859,251.538h8.274l1.271-5.781H161.13Z" transform="translate(-112.961 -206.512)" fill="#d8e6e7"/>
            <path id="Trazado_918502" data-name="Trazado 918502" d="M217.192,168.1h8.274l1.271-5.781h-8.274Z" transform="translate(-153.474 -147.551)" fill="#d8e6e7"/>
            <path id="Trazado_918503" data-name="Trazado 918503" d="M204.963,223.726h8.274l1.271-5.781h-8.274Z" transform="translate(-144.834 -186.857)" fill="#d8e6e7"/>
            <path id="Trazado_918504" data-name="Trazado 918504" d="M211.078,195.915h8.274l1.271-5.781h-8.274Z" transform="translate(-149.154 -167.205)" fill="#d8e6e7"/>
            <path id="Trazado_918505" data-name="Trazado 918505" d="M198.848,251.538h8.274l1.271-5.781h-8.274Z" transform="translate(-140.512 -206.512)" fill="#d8e6e7"/>
            <path id="Trazado_918506" data-name="Trazado 918506" d="M256.182,168.1h8.274l1.271-5.781h-8.274Z" transform="translate(-181.026 -147.551)" fill="#d8e6e7"/>
            <path id="Trazado_918507" data-name="Trazado 918507" d="M243.952,223.726h8.274l1.271-5.781h-8.274Z" transform="translate(-172.385 -186.857)" fill="#d8e6e7"/>
            <path id="Trazado_918508" data-name="Trazado 918508" d="M250.067,195.915h8.274l1.271-5.781h-8.274Z" transform="translate(-176.705 -167.205)" fill="#d8e6e7"/>
            <path id="Trazado_918509" data-name="Trazado 918509" d="M237.838,251.538h8.274l1.271-5.781h-8.274Z" transform="translate(-168.063 -206.512)" fill="#d8e6e7"/>
            <path id="Trazado_918510" data-name="Trazado 918510" d="M282.944,223.726h8.274l1.271-5.781h-8.274Z" transform="translate(-199.937 -186.857)" fill="#d8e6e7"/>
            <path id="Trazado_918511" data-name="Trazado 918511" d="M289.061,195.915h8.274l1.271-5.781h-8.274Z" transform="translate(-204.26 -167.205)" fill="#d8e6e7"/>
            <path id="Trazado_918512" data-name="Trazado 918512" d="M276.829,251.538H285.1l1.271-5.781H278.1Z" transform="translate(-195.615 -206.512)" fill="#d8e6e7"/>
            <path id="Trazado_918513" data-name="Trazado 918513" d="M170,123.43a.881.881,0,0,1-.949.793H166.58a.881.881,0,0,1-.948-.793V112.768a.881.881,0,0,1,.948-.792h2.468a.881.881,0,0,1,.949.792Z" transform="translate(-117.041 -111.976)" fill="#f08f35"/>
            <path id="Trazado_918514" data-name="Trazado 918514" d="M212.457,123.43a.88.88,0,0,1-.948.793h-2.467a.881.881,0,0,1-.949-.793V112.768a.882.882,0,0,1,.949-.792h2.467a.881.881,0,0,1,.948.792Z" transform="translate(-147.045 -111.976)" fill="#f08f35"/>
            <path id="Trazado_918515" data-name="Trazado 918515" d="M254.919,123.43a.88.88,0,0,1-.948.793H251.5a.881.881,0,0,1-.948-.793V112.768a.881.881,0,0,1,.948-.792h2.468a.881.881,0,0,1,.948.792Z" transform="translate(-177.05 -111.976)" fill="#f08f35"/>
            <path id="Trazado_918516" data-name="Trazado 918516" d="M297.38,123.43a.881.881,0,0,1-.948.793h-2.468a.88.88,0,0,1-.948-.793V112.768a.881.881,0,0,1,.948-.792h2.468a.881.881,0,0,1,.948.792Z" transform="translate(-207.054 -111.976)" fill="#f08f35"/>
            <path id="Trazado_918517" data-name="Trazado 918517" d="M192.321,183.033a38.542,38.542,0,0,0-3.265,4.492c-.275-.526-.549-1.053-.8-1.589-.4-.845-1.652-.108-1.254.733.454.959.972,1.887,1.452,2.833.76,1.5,1.319-.787,5.123-5.736.57-.742-.691-1.464-1.254-.733" transform="translate(-132.085 -161.972)" fill="#e53c31"/>
            <path id="Trazado_918518" data-name="Trazado 918518" d="M117.157,160.911l16.542,6.76c.621-.239,1.782-.976,1.1-2.939-.653-1.869-8-6.123-8-6.123Z" transform="translate(-82.787 -144.929)" fill="#f3b167"/>
            <path id="Trazado_918519" data-name="Trazado 918519" d="M107.387,190.932s-4.543-1-6.018-.74-4.374,3.4-4.374,3.4L95.622,192.2l3.138-5.1,5.91-2.065,5.852,2.288Z" transform="translate(-67.57 -163.604)" fill="#f3b167"/>
            <path id="Trazado_918520" data-name="Trazado 918520" d="M61.885,149.062,88.838,160.4l2.325-5.526L64.21,143.537a1.169,1.169,0,0,0-1.529.623l-1.417,3.374a1.166,1.166,0,0,0,.622,1.528" transform="translate(-43.225 -134.213)" fill="#347a86"/>
            <rect id="Rectángulo_407289" data-name="Rectángulo 407289" width="6.951" height="4.12" transform="translate(19.71 15.81) rotate(-67.177)" fill="#f08f35"/>
            <path id="Trazado_918521" data-name="Trazado 918521" d="M157.806,182.4l-2.325,5.526a5.925,5.925,0,0,0,3.86.366l1.425-3.388a5.918,5.918,0,0,0-2.961-2.5" transform="translate(-109.868 -161.738)" fill="#347a86"/>
            <path id="Trazado_918522" data-name="Trazado 918522" d="M170.067,190.932l-1.425,3.387,4.543.778.615-1.463Z" transform="translate(-119.169 -167.768)" fill="#fff"/>
            <rect id="Rectángulo_407290" data-name="Rectángulo 407290" width="5.995" height="5.306" transform="matrix(0.388, -0.922, 0.922, 0.388, 40.723, 24.127)" fill="#f08f35"/>
            <path id="Trazado_918523" data-name="Trazado 918523" d="M184.963,201.414l1.79.755a.389.389,0,1,1-.3.717l-1.792-.754Z" transform="translate(-130.487 -175.177)" fill="#1c1c1c"/>
            <path id="Trazado_918524" data-name="Trazado 918524" d="M50.159,201.72,51.3,189.541a13.539,13.539,0,0,1,2.494-6.649l4.177-5.8a3.477,3.477,0,0,1,3.3-1.425l8.376,3.524-4.963,1.292c-5.227,8.487,1.674,11.578,4.558,8.07,2.706-3.294,6.634-8.666,8.4-9.326a2.816,2.816,0,0,1,3.593,2.827c.143,2.236-4.26,8.376-7.961,15.84L63.1,208.819l-2.183,6.161L47.4,206.361Z" transform="translate(-33.498 -156.979)" fill="#f5c382"/>
            <path id="Trazado_918525" data-name="Trazado 918525" d="M146.181,195.956l-3.044-1.939c1.094-2.7,2.512-3.969,3.828-3.234,1.551.868,1.439,2.727-.784,5.173" transform="translate(-101.145 -167.518)" fill="#f7d1a5"/>
            <rect id="Rectángulo_407291" data-name="Rectángulo 407291" width="16.613" height="26.391" transform="translate(0.715 60.961) rotate(-59.807)" fill="#171d9d"/>
            <path id="Trazado_918526" data-name="Trazado 918526" d="M34.892,263.909l2.233-3.835L57.6,271.988l-2.231,3.832Z" transform="translate(-24.655 -216.627)" fill="#4eadd1"/>
            <rect id="Rectángulo_407292" data-name="Rectángulo 407292" width="3.745" height="23.687" transform="translate(0 64.878) rotate(-59.809)" fill="#1727b3"/>
            <path id="Trazado_918527" data-name="Trazado 918527" d="M35.417,296.155a1.505,1.505,0,1,1,2.059-.543,1.5,1.5,0,0,1-2.059.543" transform="translate(-24.497 -240.14)" fill="#dadbdc"/>
          </g>
          <g id="Grupo_1114315" data-name="Grupo 1114315" transform="translate(246.345 262.671)">
            <path id="Trazado_918528" data-name="Trazado 918528" d="M2554.482,771.187v48.492h-43.65V803.566a19.05,19.05,0,0,0,0-32.077v-.3Z" transform="translate(-2446.925 -764.11)" fill="#afebf0"/>
            <rect id="Rectángulo_407293" data-name="Rectángulo 407293" width="43.649" height="3.788" transform="translate(63.907 55.57)" fill="#84d8dd"/>
            <rect id="Rectángulo_407294" data-name="Rectángulo 407294" width="43.649" height="3.788" transform="translate(63.907 59.357)" fill="#afebf0"/>
            <rect id="Rectángulo_407295" data-name="Rectángulo 407295" width="43.649" height="3.788" transform="translate(63.907 63.144)" fill="#84d8dd"/>
            <rect id="Rectángulo_407296" data-name="Rectángulo 407296" width="43.649" height="3.787" transform="translate(63.907 66.934)" fill="#afebf0"/>
            <rect id="Rectángulo_407297" data-name="Rectángulo 407297" width="43.649" height="3.788" transform="translate(63.907 70.72)" fill="#84d8dd"/>
            <rect id="Rectángulo_407298" data-name="Rectángulo 407298" width="43.649" height="3.788" transform="translate(63.907 74.507)" fill="#afebf0"/>
            <rect id="Rectángulo_407299" data-name="Rectángulo 407299" width="7.635" height="5.393" transform="translate(40.005 48.67) rotate(-67.073)" fill="#2a2b2b"/>
            <path id="Trazado_918529" data-name="Trazado 918529" d="M2404.553,911.13l-8.438,19.195c-2.008,4.743,5.17,7.847,7.2,3.047l8.439-19.194Z" transform="translate(-2365.667 -862.935)" fill="#a5b73b"/>
            <path id="Trazado_918530" data-name="Trazado 918530" d="M2424.243,793.452a23.413,23.413,0,1,1,18.214-27.654,23.423,23.423,0,0,1-18.214,27.654" transform="translate(-2365.904 -747.102)" fill="#4b4c4c"/>
            <rect id="Rectángulo_407300" data-name="Rectángulo 407300" width="12.102" height="9.975" transform="matrix(0.441, -0.897, 0.897, 0.441, 18.029, 62.039)" fill="#f6c485"/>
            <path id="Trazado_918531" data-name="Trazado 918531" d="M2412.179,941.151c-2.16-1.218-.252-4.574,1.967-3.323l6.93,3.865a1.931,1.931,0,1,1-1.967,3.322Z" transform="translate(-2376.59 -881.595)" fill="#f6c485"/>
            <path id="Trazado_918532" data-name="Trazado 918532" d="M2409.6,954.748a1.931,1.931,0,0,1,1.9-3.363l6.909,3.81a1.93,1.93,0,0,1-1.9,3.362Z" transform="translate(-2374.737 -891.168)" fill="#f6c485"/>
            <path id="Trazado_918533" data-name="Trazado 918533" d="M2400.749,964.04a1.93,1.93,0,0,1,1.9-3.362l6.812,3.84a1.931,1.931,0,0,1-1.9,3.363Z" transform="translate(-2368.484 -897.73)" fill="#f6c485"/>
            <path id="Trazado_918534" data-name="Trazado 918534" d="M2400.925,977.895a1.588,1.588,0,1,1,1.553-2.758l3.819,2.155a1.588,1.588,0,1,1-1.554,2.756Z" transform="translate(-2368.654 -907.948)" fill="#f6c485"/>
            <path id="Trazado_918535" data-name="Trazado 918535" d="M2369.407,940.85s-.744,3.008,3.682,5.988a44.339,44.339,0,0,0,8.485,3.875l6.011-12.217-6.557-3.936Z" transform="translate(-2347.022 -879.481)" fill="#f6c485"/>
            <path id="Trazado_918536" data-name="Trazado 918536" d="M2393.665,919.315c-1.8,6.78-9.353,7.385-11.578,5.81-3.175-2.271-2.612-5.836-.9-9.373a19.241,19.241,0,0,1,7.235-2.588,2.765,2.765,0,0,0,1.854-.9c.808-.943.667-2.264,1.527-2.282,2.907-.057,2.735,3.221-.461,5.924-2.04,1.725,2.318,3.4,2.318,3.4" transform="translate(-2354.396 -862.126)" fill="#f6c485"/>
            <path id="Trazado_918537" data-name="Trazado 918537" d="M2417.79,910.071c-.03.09-.062.179-.1.272a2.552,2.552,0,0,1-2.228,1.926c.808-.943.667-2.264,1.527-2.282a2.99,2.99,0,0,1,.8.084" transform="translate(-2379.579 -862.126)" fill="#eb4a26"/>
            <rect id="Rectángulo_407301" data-name="Rectángulo 407301" width="16.026" height="10.088" transform="translate(8.814 58.944) rotate(-65.209)" fill="#e53c31"/>
            <rect id="Rectángulo_407302" data-name="Rectángulo 407302" width="14.383" height="20.177" transform="matrix(0.419, -0.908, 0.908, 0.419, 0, 53.966)" fill="#e53c31"/>
            <rect id="Rectángulo_407303" data-name="Rectángulo 407303" width="14.382" height="2.694" transform="matrix(0.42, -0.908, 0.908, 0.42, 18.316, 62.426)" fill="#96d4dd"/>
            <rect id="Rectángulo_407304" data-name="Rectángulo 407304" width="14.384" height="2.274" transform="matrix(0.419, -0.908, 0.908, 0.419, 7.094, 57.244)" fill="#cf2e21"/>
            <path id="Trazado_918538" data-name="Trazado 918538" d="M2358.158,916.953a.914.914,0,1,1,.446,1.213.914.914,0,0,1-.446-1.213" transform="translate(-2339.051 -866.672)" fill="#dadbdc"/>
            <path id="Trazado_918539" data-name="Trazado 918539" d="M2510.832,804.289V772.212a19.05,19.05,0,0,1,0,32.077" transform="translate(-2446.925 -764.833)" fill="#75c8e5"/>
            <path id="Trazado_918540" data-name="Trazado 918540" d="M2440.3,764.95v32.077a19.056,19.056,0,1,1,0-32.077" transform="translate(-2376.395 -757.572)" fill="#96d4dd"/>
            <path id="Trazado_918541" data-name="Trazado 918541" d="M2458.65,798.293a2.62,2.62,0,1,1,1.272-3.48,2.62,2.62,0,0,1-1.272,3.48" transform="translate(-2407.446 -779.724)" fill="#afebf0"/>
            <path id="Trazado_918542" data-name="Trazado 918542" d="M2573.609,807.154h-16.392V790.762h16.392Zm-14.367-2.025h12.343V792.787h-12.343Z" transform="translate(-2479.683 -777.933)" fill="#2a2b2b"/>
            <path id="Trazado_918543" data-name="Trazado 918543" d="M2577.73,807.668l-4.495,4.493-2.664-2.664-.981.982,3.646,3.647,5.476-5.476Z" transform="translate(-2488.419 -789.873)" fill="#e53c31"/>
            <path id="Trazado_918544" data-name="Trazado 918544" d="M2573.609,876.753h-16.392V860.361h16.392Zm-14.367-2.025h12.343V862.386h-12.343Z" transform="translate(-2479.683 -827.083)" fill="#2a2b2b"/>
            <path id="Trazado_918545" data-name="Trazado 918545" d="M2577.73,877.267l-4.495,4.493-2.664-2.665-.981.982,3.646,3.647,5.476-5.476Z" transform="translate(-2488.419 -839.021)" fill="#e53c31"/>
          </g>
          <g id="Grupo_1114316" data-name="Grupo 1114316" transform="translate(253.891 107.441)">
            <path id="Trazado_918546" data-name="Trazado 918546" d="M2407.412,100.721a5.942,5.942,0,0,0-5.952,5.92v51.98a5.941,5.941,0,0,0,5.952,5.917h22.1V100.721Z" transform="translate(-2372.988 -88.97)" fill="#424242"/>
            <path id="Trazado_918547" data-name="Trazado 918547" d="M2540.981,106.641v51.98a5.941,5.941,0,0,1-5.953,5.916h-22.1V100.721h22.1a5.942,5.942,0,0,1,5.953,5.92" transform="translate(-2456.414 -88.97)" fill="#2d2d2d"/>
            <path id="Trazado_918548" data-name="Trazado 918548" d="M2290.877,278.341l11.585,7.779L2305.02,282c7.56,1.48,15.931-14.319,15.931-14.319l-22.595-2.776Z" transform="translate(-2290.229 -211.847)" fill="#f5c382"/>
            <path id="Trazado_918549" data-name="Trazado 918549" d="M2323.517,211.363a9.971,9.971,0,1,0,9.12-10.753,9.971,9.971,0,0,0-9.12,10.753" transform="translate(-2314.63 -163.701)" fill="#ddedeb"/>
            <rect id="Rectángulo_407305" data-name="Rectángulo 407305" width="1.038" height="1.866" transform="matrix(0.997, -0.081, 0.081, 0.997, 17.549, 37.232)" fill="#4d4f50"/>
            <rect id="Rectángulo_407306" data-name="Rectángulo 407306" width="1.865" height="1.038" transform="matrix(0.997, -0.081, 0.081, 0.997, 26.611, 45.685)" fill="#4d4f50"/>
            <rect id="Rectángulo_407307" data-name="Rectángulo 407307" width="1.038" height="1.866" transform="translate(18.981 54.679) rotate(-4.674)" fill="#4d4f50"/>
            <rect id="Rectángulo_407308" data-name="Rectángulo 407308" width="1.864" height="1.038" transform="translate(9.163 47.119) rotate(-4.703)" fill="#4d4f50"/>
            <path id="Trazado_918550" data-name="Trazado 918550" d="M2466.845,114.521h-43.761a.97.97,0,0,0-.969.97v54.971a.97.97,0,0,0,.969.969h44.732v-55.94a.971.971,0,0,0-.97-.97" transform="translate(-2388.445 -99.298)" fill="#ddedeb"/>
            <path id="Trazado_918551" data-name="Trazado 918551" d="M2477.993,56.3V54.018h-.572a4.289,4.289,0,0,0-4.289,4.29v2.964c-3.5.284-6.885,3.022-6.885,7.969h11.745V59.462a1.583,1.583,0,0,1,0-3.166" transform="translate(-2421.475 -54.018)" fill="#544dd4"/>
            <path id="Trazado_918552" data-name="Trazado 918552" d="M2524.677,69.243H2512.93V59.466c.039,0,.077,0,.113-.005a1.582,1.582,0,0,0,0-3.156c-.035,0-.074,0-.113,0V54.022h.571a4.289,4.289,0,0,1,4.291,4.289v2.964a7.415,7.415,0,0,1,4.291,1.8s.005,0,.005,0a7.924,7.924,0,0,1,2.588,6.168" transform="translate(-2456.412 -54.021)" fill="#171d9d"/>
            <path id="Trazado_918553" data-name="Trazado 918553" d="M2572.519,190.981l-12.114,4.95c-.455-.174-1.306-.715-.8-2.152.478-1.369,5.857-4.484,5.857-4.484Z" transform="translate(-2491.225 -155.258)" fill="#f3b167"/>
            <path id="Trazado_918554" data-name="Trazado 918554" d="M2589.45,217.025s2.591-1.583,3.671-1.389,3.2,2.49,3.2,2.49l1.005-1.021-2.3-3.732-4.328-1.512-4.285,1.676Z" transform="translate(-2511.41 -172.147)" fill="#f3b167"/>
            <path id="Trazado_918555" data-name="Trazado 918555" d="M2468.277,218.827h21.2v-21.2h-21.2Zm17.938-3.26h-14.678V200.89h14.678Z" transform="translate(-2422.994 -161.495)" fill="#56bbe0"/>
            <path id="Trazado_918556" data-name="Trazado 918556" d="M2500.439,223.123l-7.754-8.431,2.773-2.553,4.739,5.152,7.124-9.164,2.976,2.312Z" transform="translate(-2441.261 -169.351)" fill="#ed6c4e"/>
            <path id="Trazado_918557" data-name="Trazado 918557" d="M2563.343,175.936l33-16.221,1.133,2.307L2563.759,178.6l.38-1.041-1.136-.5Z" transform="translate(-2493.886 -133.12)" fill="#eb4626"/>
            <path id="Trazado_918558" data-name="Trazado 918558" d="M2549.287,226.048l3.791-1.864-.34,1.123,1.135.493-.378,1.044-3.834-.038Z" transform="translate(-2483.622 -181.37)" fill="#f7cb6b"/>
            <path id="Trazado_918559" data-name="Trazado 918559" d="M2543.323,230.079l1.874.018-.746-1.514Z" transform="translate(-2479.157 -184.661)" fill="#eb4626"/>
            <path id="Trazado_918560" data-name="Trazado 918560" d="M2556.994,167.124l33.715-16.574,1.134,2.306-33,16.22-1.1-.415.34-1.122Z" transform="translate(-2489.388 -126.262)" fill="#cb3a20"/>
            <path id="Trazado_918561" data-name="Trazado 918561" d="M2550.119,216.423l1.1.416-.34,1.122,1.1.415-3.791,1.864-.373-.759Z" transform="translate(-2482.514 -175.561)" fill="#e9b95c"/>
            <path id="Trazado_918562" data-name="Trazado 918562" d="M2392.677,276.087a5.019,5.019,0,0,1-5.9,1.457l2.465-1.457Z" transform="translate(-2362 -220.213)" fill="#dd8e56"/>
            <path id="Trazado_918563" data-name="Trazado 918563" d="M2385.642,187.848l8.763-3.842c3.009-1.612,5.461,2.937,2.439,4.555l-7.667,3.7Z" transform="translate(-2361.149 -151.045)" fill="#f5c382"/>
            <rect id="Rectángulo_407309" data-name="Rectángulo 407309" width="2.211" height="5.385" transform="translate(5.988 37.41) rotate(-49.71)" fill="#4d4f50"/>
            <rect id="Rectángulo_407310" data-name="Rectángulo 407310" width="4.484" height="2.21" transform="matrix(0.647, -0.763, 0.763, 0.647, 4.605, 37.726)" fill="#2d2d2d"/>
            <rect id="Rectángulo_407311" data-name="Rectángulo 407311" width="5.385" height="2.211" transform="translate(24.778 38.116) rotate(-49.673)" fill="#4d4f50"/>
            <rect id="Rectángulo_407312" data-name="Rectángulo 407312" width="2.211" height="4.483" transform="matrix(0.647, -0.763, 0.763, 0.647, 26.514, 34.313)" fill="#2d2d2d"/>
            <path id="Trazado_918564" data-name="Trazado 918564" d="M2314,204.425a12.368,12.368,0,1,0,11.315-13.34A12.368,12.368,0,0,0,2314,204.425m2.967-.247a9.391,9.391,0,1,1,10.129,8.593,9.391,9.391,0,0,1-10.129-8.593" transform="translate(-2307.499 -156.566)" fill="#eb4626"/>
            <path id="Trazado_918565" data-name="Trazado 918565" d="M2361.348,223.1l.92.527,2.773-4.855-.009-1.053-.913.527Z" transform="translate(-2342.969 -176.527)" fill="#2d2d2d"/>
            <path id="Trazado_918566" data-name="Trazado 918566" d="M2348.687,239.174l-.1-1.261-3.841.315-1.026.719,1.131.542Z" transform="translate(-2329.773 -191.644)" fill="#1b50af"/>
            <path id="Trazado_918567" data-name="Trazado 918567" d="M2359.021,237.064a1.064,1.064,0,1,0,1.028-1.1,1.062,1.062,0,0,0-1.028,1.1" transform="translate(-2341.226 -190.185)" fill="#2f2c2a"/>
            <path id="Trazado_918568" data-name="Trazado 918568" d="M2391.216,216.395h0a2.652,2.652,0,0,0,3.766,1.951l1.906-.916c3.176-1.529.864-6.3-2.3-4.782l-1.906.917a2.65,2.65,0,0,0-1.466,2.83" transform="translate(-2365.294 -172.514)" fill="#f5c382"/>
            <path id="Trazado_918569" data-name="Trazado 918569" d="M2389.344,221.258h0a1.966,1.966,0,0,0,2.791,1.446l1.412-.68a1.966,1.966,0,0,0-1.7-3.543l-1.413.679a1.968,1.968,0,0,0-1.087,2.1" transform="translate(-2363.9 -176.937)" fill="#f5d2b1"/>
            <path id="Trazado_918570" data-name="Trazado 918570" d="M2390.154,240.094h0a2.653,2.653,0,0,0,3.767,1.95l1.906-.916c3.177-1.529.864-6.3-2.3-4.782l-1.906.916a2.655,2.655,0,0,0-1.467,2.831" transform="translate(-2364.499 -190.25)" fill="#f5c382"/>
            <path id="Trazado_918571" data-name="Trazado 918571" d="M2393.885,262.824h0a2.171,2.171,0,0,0,3.082,1.6l.836-.4a2.171,2.171,0,0,0-1.882-3.913l-.835.4a2.171,2.171,0,0,0-1.2,2.316" transform="translate(-2367.297 -208.072)" fill="#f5c382"/>
            <path id="Trazado_918572" data-name="Trazado 918572" d="M2288.3,215.122c-.285,21.365,8.611,17.246,10.281,14.57,2.3-3.7-.3-8.947-3.389-12.539,0,0,9.17-5.529,3.5-10.534Z" transform="translate(-2288.297 -168.223)" fill="#f5c382"/>
            <path id="Trazado_918573" data-name="Trazado 918573" d="M2313.842,209.864c.586.911,2.247.838,3.466-.305,1.033-.968,1.259-2.286.5-2.944Z" transform="translate(-2307.415 -168.221)" fill="#f5d2b1"/>
            <path id="Trazado_918574" data-name="Trazado 918574" d="M2389.344,244.815h0a1.966,1.966,0,0,0,2.791,1.446l1.412-.679a1.966,1.966,0,0,0-1.7-3.544l-1.413.68a1.967,1.967,0,0,0-1.087,2.1" transform="translate(-2363.9 -194.567)" fill="#f5d2b1"/>
            <path id="Trazado_918575" data-name="Trazado 918575" d="M2392,265.64h0a1.474,1.474,0,0,0,2.094,1.084l1.06-.509a1.475,1.475,0,0,0-1.279-2.658l-1.059.509a1.475,1.475,0,0,0-.815,1.574" transform="translate(-2365.89 -210.713)" fill="#f5d2b1"/>
            <path id="Trazado_918576" data-name="Trazado 918576" d="M2595.219,222.352l-.839-8.919a9.916,9.916,0,0,0-1.826-4.87l-3.059-4.251a2.763,2.763,0,0,0-2.449-1.241l-6.012,2.955,3.544.769c3.828,6.216-1.226,8.48-3.338,5.91-1.982-2.411-4.858-6.347-6.155-6.83a2.062,2.062,0,0,0-2.632,2.07c-.105,1.638,3.12,6.134,5.829,11.6l7.462,8,1.6,4.513,9.892-6.312Z" transform="translate(-2500.958 -165.568)" fill="#f5c382"/>
            <path id="Trazado_918577" data-name="Trazado 918577" d="M2575.8,216.742c.964-.539,2,.39,2.8,2.369l-2.229,1.42c-1.628-1.791-1.71-3.153-.574-3.789" transform="translate(-2502.892 -175.687)" fill="#f7d1a5"/>
            <rect id="Rectángulo_407313" data-name="Rectángulo 407313" width="19.327" height="12.166" transform="matrix(0.864, -0.503, 0.503, 0.864, 83.116, 67.866)" fill="#171d9d"/>
          </g>
          <g id="Grupo_1114318" data-name="Grupo 1114318" transform="translate(119.484 260.756)">
            <rect id="Rectángulo_407314" data-name="Rectángulo 407314" width="63.602" height="75.087" fill="#96d4dd"/>
            <rect id="Rectángulo_407315" data-name="Rectángulo 407315" width="9.901" height="2.996" transform="translate(26.663 9.252)" fill="#2f66ac"/>
            <rect id="Rectángulo_407316" data-name="Rectángulo 407316" width="4.95" height="2.996" transform="translate(40.039 9.252)" fill="#2f66ac"/>
            <rect id="Rectángulo_407317" data-name="Rectángulo 407317" width="8.365" height="2.996" transform="translate(48.761 9.252)" fill="#2f66ac"/>
            <rect id="Rectángulo_407318" data-name="Rectángulo 407318" width="9.901" height="2.996" transform="translate(26.663 14.634)" fill="#2f66ac"/>
            <rect id="Rectángulo_407319" data-name="Rectángulo 407319" width="4.95" height="2.996" transform="translate(40.039 14.634)" fill="#2f66ac"/>
            <rect id="Rectángulo_407320" data-name="Rectángulo 407320" width="8.365" height="2.996" transform="translate(48.761 14.634)" fill="#2f66ac"/>
            <rect id="Rectángulo_407321" data-name="Rectángulo 407321" width="9.901" height="2.996" transform="translate(26.663 34.708)" fill="#2f66ac"/>
            <rect id="Rectángulo_407322" data-name="Rectángulo 407322" width="4.95" height="2.996" transform="translate(40.039 34.708)" fill="#2f66ac"/>
            <rect id="Rectángulo_407323" data-name="Rectángulo 407323" width="8.365" height="2.996" transform="translate(48.761 34.708)" fill="#2f66ac"/>
            <rect id="Rectángulo_407324" data-name="Rectángulo 407324" width="9.901" height="2.996" transform="translate(26.663 40.088)" fill="#2f66ac"/>
            <rect id="Rectángulo_407325" data-name="Rectángulo 407325" width="4.95" height="2.996" transform="translate(40.039 40.088)" fill="#2f66ac"/>
            <rect id="Rectángulo_407326" data-name="Rectángulo 407326" width="8.365" height="2.996" transform="translate(48.761 40.088)" fill="#2f66ac"/>
            <rect id="Rectángulo_407327" data-name="Rectángulo 407327" width="15.276" height="15.276" transform="translate(6.29 6.444)" fill="#afebf0"/>
            <path id="Trazado_918578" data-name="Trazado 918578" d="M133.9,798.686a3.748,3.748,0,0,1-.752,2.362h-4.381a3.656,3.656,0,0,1-.709-2.362,4.871,4.871,0,0,0,.786-2.265h4.27a4.91,4.91,0,0,0,.785,2.265" transform="translate(-117.053 -779.329)" fill="#e79f63"/>
            <path id="Trazado_918579" data-name="Trazado 918579" d="M128.937,769.506l3.788,2.337-.749,5.321a3.5,3.5,0,0,1-6.077,0l-.749-5.321Z" transform="translate(-115.01 -760.427)" fill="#f2b982"/>
            <path id="Trazado_918580" data-name="Trazado 918580" d="M132.01,771.926l-.387,1.212h-.432l.343-3.042c-.585-.925-1.622-.9-3.123-.742-1.5-.156-2.538-.183-3.122.742l.343,3.042H125.2l-.388-1.212c-2.84-6.806,10.038-6.806,7.2,0" transform="translate(-114.484 -758.543)" fill="#333c3b"/>
            <path id="Trazado_918581" data-name="Trazado 918581" d="M122.313,801.16l-2.457,1.43-2.458-1.43c-2.13.393-3.6.407-5.179,3.218h15.275c-1.584-2.811-3.051-2.825-5.181-3.218" transform="translate(-105.93 -782.658)" fill="#92309a"/>
            <rect id="Rectángulo_407328" data-name="Rectángulo 407328" width="15.275" height="15.275" transform="translate(6.29 30.88)" fill="#afebf0"/>
            <path id="Trazado_918582" data-name="Trazado 918582" d="M133.9,880.758a3.748,3.748,0,0,1-.752,2.362h-4.381a3.656,3.656,0,0,1-.709-2.362,4.871,4.871,0,0,0,.786-2.265h4.27a4.91,4.91,0,0,0,.785,2.265" transform="translate(-117.053 -836.968)" fill="#e79f63"/>
            <path id="Trazado_918583" data-name="Trazado 918583" d="M128.937,851.58l3.788,2.337-.749,5.321a3.5,3.5,0,0,1-6.077,0l-.749-5.321Z" transform="translate(-115.01 -818.067)" fill="#f2b982"/>
            <path id="Trazado_918584" data-name="Trazado 918584" d="M132.01,854l-.387,1.213h-.432l.343-3.043c-.585-.925-1.622-.9-3.123-.742-1.5-.156-2.538-.184-3.122.742l.343,3.043H125.2L124.813,854c-2.84-6.806,10.038-6.806,7.2,0" transform="translate(-114.484 -816.181)" fill="#333c3b"/>
            <path id="Trazado_918585" data-name="Trazado 918585" d="M122.313,883.234l-2.457,1.43-2.458-1.43c-2.13.392-3.6.407-5.179,3.218h15.275c-1.584-2.811-3.051-2.825-5.181-3.218" transform="translate(-105.93 -840.297)" fill="#3a3f93"/>
            <rect id="Rectángulo_407329" data-name="Rectángulo 407329" width="15.275" height="15.276" transform="translate(6.29 54.02)" fill="#afebf0"/>
            <path id="Trazado_918586" data-name="Trazado 918586" d="M133.9,958.486a3.748,3.748,0,0,1-.752,2.361H128.77a3.659,3.659,0,0,1-.708-2.361,4.884,4.884,0,0,0,.786-2.266h4.269a4.935,4.935,0,0,0,.786,2.266" transform="translate(-117.055 -891.554)" fill="#e79f63"/>
            <path id="Trazado_918587" data-name="Trazado 918587" d="M128.94,929.306l3.787,2.337-.748,5.321a3.5,3.5,0,0,1-6.078,0l-.749-5.321Z" transform="translate(-115.012 -872.652)" fill="#d38140"/>
            <path id="Trazado_918588" data-name="Trazado 918588" d="M132.014,931.726l-.386,1.213h-.433l.344-3.043c-.584-.925-1.622-.9-3.122-.742-1.5-.156-2.538-.183-3.122.742l.343,3.043H125.2l-.386-1.213c-2.842-6.806,10.036-6.806,7.2,0" transform="translate(-114.487 -870.766)" fill="#333c3b"/>
            <path id="Trazado_918589" data-name="Trazado 918589" d="M122.316,960.96l-2.457,1.43-2.458-1.43c-2.13.393-3.6.407-5.179,3.218H127.5c-1.583-2.811-3.05-2.825-5.18-3.218" transform="translate(-105.931 -894.882)" fill="#ca43c6"/>
            <path id="Trazado_918590" data-name="Trazado 918590" d="M150.911,872.9a9.283,9.283,0,1,1-9.283-9.283,9.283,9.283,0,0,1,9.283,9.283" transform="translate(-120.063 -826.518)" fill="#e1fdfd"/>
            <path id="Trazado_918591" data-name="Trazado 918591" d="M152.854,879.227l-5.82,5.82-3.9-3.9-1.725,1.725,5.626,5.626,7.545-7.545Z" transform="translate(-126.428 -837.482)" fill="#d04425"/>
            <path id="Trazado_918592" data-name="Trazado 918592" d="M196.5,910.348l-4.8-9.821a.3.3,0,0,1-.051.07c-1.859-3.647-3.977-2.6-4.808-1.4l-.247-.483a2.543,2.543,0,0,0-4.741.667c-1.358-2.639-5.1-1.079-4.75,1.413l-.168-.33c-1.38-2.706-5.247-1.032-4.733,1.546l-5.738-10.694a2.389,2.389,0,1,0-4.145,2.375l6.877,12.988,3.955,8.2-4.175-1.844c-7.928-3.9-8.731-1.027-8.812-.978a1.35,1.35,0,0,0,.068,2.372l11.967,5.985c5.709,4.446,4.139,3.515,9.872,5.832l3.131,6.265,14.726-6.187-2.832-5.353c1.053-3.5,1.562-6.742-.591-10.625" transform="translate(-139.123 -845.129)" fill="#f5c382"/>
            <path id="Trazado_918593" data-name="Trazado 918593" d="M171.566,892.657c1.081-.583,2.194.584,2.933,2.839l-2.584,1.41c-1.671-2.113-1.786-3.472-.35-4.249" transform="translate(-146.907 -846.81)" fill="#e68443"/>
            <rect id="Rectángulo_407330" data-name="Rectángulo 407330" width="21.895" height="13.782" transform="translate(43.987 88.197) rotate(-23.459)" fill="#ca43c6"/>
            <rect id="Rectángulo_407331" data-name="Rectángulo 407331" width="19.652" height="22.796" transform="matrix(0.917, -0.398, 0.398, 0.917, 45.017, 87.75)" fill="#ca43c6"/>
            <rect id="Rectángulo_407332" data-name="Rectángulo 407332" width="19.653" height="3.68" transform="translate(43.552 84.374) rotate(-23.459)" fill="#96d4dd"/>
            <rect id="Rectángulo_407333" data-name="Rectángulo 407333" width="19.652" height="3.107" transform="translate(50.504 100.394) rotate(-23.46)" fill="#92309a"/>
            <path id="Trazado_918594" data-name="Trazado 918594" d="M293.992,1025.78a1.249,1.249,0,1,0-1.643-.647,1.248,1.248,0,0,0,1.643.647" transform="translate(-232.358 -938.722)" fill="#dadbdc"/>
          </g>
        </g>
        <path id="Trazado_918407" data-name="Trazado 918407" d="M10.221,0H277.092a10.221,10.221,0,0,1,10.221,10.221V31.8a10.221,10.221,0,0,1-10.221,10.221H10.221A10.221,10.221,0,0,1,0,31.8V10.221A10.221,10.221,0,0,1,10.221,0Z" transform="translate(16.43 154.537)" fill="#056154"/>
        <path id="Trazado_922050" data-name="Trazado 922050" d="M277.092,0H10.221A10.221,10.221,0,0,0,0,10.221V31.8A10.221,10.221,0,0,0,10.221,42.018H277.092A10.221,10.221,0,0,0,287.313,31.8V10.221A10.221,10.221,0,0,0,277.092,0Z" transform="translate(694.43 154.539)" fill="#056154"/>
        <path id="Trazado_922047" data-name="Trazado 922047" d="M10.221,42.018H277.092A10.221,10.221,0,0,0,287.313,31.8V10.221A10.221,10.221,0,0,0,277.092,0H10.221A10.221,10.221,0,0,0,0,10.221V31.8A10.221,10.221,0,0,0,10.221,42.018Z" transform="translate(16.43 334.363)" fill="#056154"/>
        <path id="Trazado_922049" data-name="Trazado 922049" d="M277.092,42.018H10.221A10.221,10.221,0,0,1,0,31.8V10.221A10.221,10.221,0,0,1,10.221,0H277.092a10.221,10.221,0,0,1,10.221,10.221V31.8A10.221,10.221,0,0,1,277.092,42.018Z" transform="translate(694.43 334.365)" fill="#056154"/>
        <path id="Trazado_1264826" data-name="Trazado 1264826" d="M0,0H62.459V4.542H0Z" transform="translate(127.035 196.555)" fill="#056154"/>
        <path id="Trazado_1264827" data-name="Trazado 1264827" d="M0,0H62.459V4.542H0Z" transform="translate(808.64 196.557)" fill="#056154"/>
        <path id="Trazado_1264828" data-name="Trazado 1264828" d="M0,0H62.459V4.542H0Z" transform="translate(127.035 329.82)" fill="#056154"/>
        <path id="Trazado_1264829" data-name="Trazado 1264829" d="M0,0H62.459V4.542H0Z" transform="translate(808.64 329.822)" fill="#056154"/>
        <path id="Trazado_918408" data-name="Trazado 918408" d="M31.979,0V194.671H0" transform="translate(352.842 198.829) rotate(90)" fill="none" stroke="#056154" stroke-width="3"/>
        <path id="Trazado_922051" data-name="Trazado 922051" d="M31.979,194.671V0H0" transform="translate(839.962 198.829) rotate(90)" fill="none" stroke="#056154" stroke-width="3"/>
        <path id="Trazado_922046" data-name="Trazado 922046" d="M31.979,194.671V0H0" transform="translate(158.171 332.089) rotate(-90)" fill="none" stroke="#056154" stroke-width="3"/>
        <path id="Trazado_922048" data-name="Trazado 922048" d="M31.979,0V194.671H0" transform="translate(645.291 332.089) rotate(-90)" fill="none" stroke="#056154" stroke-width="3"/>
        <path id="Trazado_1264830" data-name="Trazado 1264830" d="M62.262,13.518V18h-2.1V5.914h4.624A4.675,4.675,0,0,1,68,6.969a3.549,3.549,0,0,1,1.191,2.792,3.431,3.431,0,0,1-1.166,2.767,4.9,4.9,0,0,1-3.266.989Zm0-1.693h2.523A2.485,2.485,0,0,0,66.5,11.3a1.937,1.937,0,0,0,.589-1.523,2.09,2.09,0,0,0-.6-1.565,2.3,2.3,0,0,0-1.644-.6H62.262ZM72.978,18H70.961V5.25h2.017Zm7.562,0a3.113,3.113,0,0,1-.232-.838,3.393,3.393,0,0,1-4.565.232,2.47,2.47,0,0,1-.855-1.909,2.55,2.55,0,0,1,1.067-2.2A5.169,5.169,0,0,1,79,12.513h1.237v-.589a1.573,1.573,0,0,0-.39-1.116,1.547,1.547,0,0,0-1.187-.419,1.777,1.777,0,0,0-1.129.344,1.066,1.066,0,0,0-.44.876H75.078a2.239,2.239,0,0,1,.49-1.382A3.263,3.263,0,0,1,76.9,9.218a4.68,4.68,0,0,1,1.88-.365,3.769,3.769,0,0,1,2.515.793,2.827,2.827,0,0,1,.963,2.229v4.051a4.591,4.591,0,0,0,.34,1.934V18Zm-2.216-1.453a2.294,2.294,0,0,0,1.125-.291,1.941,1.941,0,0,0,.793-.78V13.783H79.154a2.973,2.973,0,0,0-1.685.39,1.264,1.264,0,0,0-.564,1.1,1.179,1.179,0,0,0,.386.926A1.5,1.5,0,0,0,78.324,16.547Zm7.919-7.529.058,1.038a3.229,3.229,0,0,1,2.615-1.2q2.806,0,2.855,3.212V18H89.754V12.181a1.85,1.85,0,0,0-.369-1.266,1.554,1.554,0,0,0-1.208-.411,1.944,1.944,0,0,0-1.818,1.1V18H84.342V9.019Zm11.538,9.147a4.173,4.173,0,0,1-3.109-1.208,4.381,4.381,0,0,1-1.191-3.217v-.249A5.389,5.389,0,0,1,94,11.09a3.949,3.949,0,0,1,1.457-1.648,3.851,3.851,0,0,1,2.092-.589,3.525,3.525,0,0,1,2.835,1.17,4.949,4.949,0,0,1,1,3.312v.813H95.515a2.7,2.7,0,0,0,.743,1.76,2.23,2.23,0,0,0,1.639.647,2.731,2.731,0,0,0,2.258-1.121l1.087,1.038a3.631,3.631,0,0,1-1.44,1.249A4.509,4.509,0,0,1,97.781,18.166Zm-.241-7.695a1.7,1.7,0,0,0-1.341.581,3.012,3.012,0,0,0-.652,1.619h3.843v-.149a2.452,2.452,0,0,0-.54-1.531A1.686,1.686,0,0,0,97.54,10.471ZM108.315,18a3.113,3.113,0,0,1-.232-.838,3.393,3.393,0,0,1-4.565.232,2.47,2.47,0,0,1-.855-1.909,2.55,2.55,0,0,1,1.067-2.2,5.169,5.169,0,0,1,3.051-.768h1.237v-.589a1.573,1.573,0,0,0-.39-1.116,1.547,1.547,0,0,0-1.187-.419,1.777,1.777,0,0,0-1.129.344,1.066,1.066,0,0,0-.44.876h-2.017a2.239,2.239,0,0,1,.49-1.382,3.263,3.263,0,0,1,1.332-1.009,4.68,4.68,0,0,1,1.88-.365,3.769,3.769,0,0,1,2.515.793,2.827,2.827,0,0,1,.963,2.229v4.051a4.591,4.591,0,0,0,.34,1.934V18ZM106.1,16.547a2.294,2.294,0,0,0,1.125-.291,1.941,1.941,0,0,0,.793-.78V13.783h-1.087a2.973,2.973,0,0,0-1.685.39,1.264,1.264,0,0,0-.564,1.1,1.179,1.179,0,0,0,.386.926A1.5,1.5,0,0,0,106.1,16.547Zm10.75-5.686a4.991,4.991,0,0,0-.822-.066,1.85,1.85,0,0,0-1.868,1.063V18h-2.017V9.019h1.926l.05,1a2.273,2.273,0,0,1,2.025-1.17,1.888,1.888,0,0,1,.714.116Z" transform="translate(72.43 164.757)" fill="#fff"/>
        <path id="Trazado_1264831" data-name="Trazado 1264831" d="M76.894,17H74.925V11.953H69.839V17H67.862V5.625h1.977v4.734h5.086V5.625h1.969Zm7.2,0a2.93,2.93,0,0,1-.219-.789,3.193,3.193,0,0,1-4.3.219,2.325,2.325,0,0,1-.8-1.8,2.4,2.4,0,0,1,1-2.074,4.865,4.865,0,0,1,2.871-.723h1.164v-.555a1.481,1.481,0,0,0-.367-1.051,1.456,1.456,0,0,0-1.117-.395,1.672,1.672,0,0,0-1.062.324,1,1,0,0,0-.414.824h-1.9a2.107,2.107,0,0,1,.461-1.3,3.071,3.071,0,0,1,1.254-.949,4.4,4.4,0,0,1,1.77-.344,3.547,3.547,0,0,1,2.367.746,2.661,2.661,0,0,1,.906,2.1v3.813a4.321,4.321,0,0,0,.32,1.82V17Zm-2.086-1.367a2.159,2.159,0,0,0,1.059-.273,1.827,1.827,0,0,0,.746-.734V13.031H82.792a2.8,2.8,0,0,0-1.586.367,1.189,1.189,0,0,0-.531,1.039,1.109,1.109,0,0,0,.363.871A1.407,1.407,0,0,0,82.011,15.633Zm9.164.008a1.716,1.716,0,0,0,1.18-.414,1.415,1.415,0,0,0,.5-1.023h1.789a2.789,2.789,0,0,1-.492,1.473,3.228,3.228,0,0,1-1.25,1.082,3.725,3.725,0,0,1-1.7.4,3.6,3.6,0,0,1-2.812-1.148,4.555,4.555,0,0,1-1.039-3.172v-.2a4.479,4.479,0,0,1,1.031-3.09,3.571,3.571,0,0,1,2.813-1.16,3.473,3.473,0,0,1,2.457.879,3.148,3.148,0,0,1,1,2.309H92.855a1.738,1.738,0,0,0-.5-1.2,1.6,1.6,0,0,0-1.184-.469,1.671,1.671,0,0,0-1.422.668,3.408,3.408,0,0,0-.508,2.027v.3a3.465,3.465,0,0,0,.5,2.051A1.669,1.669,0,0,0,91.175,15.641ZM99.8,17.156a3.928,3.928,0,0,1-2.926-1.137,4.124,4.124,0,0,1-1.121-3.027v-.234a5.072,5.072,0,0,1,.488-2.262,3.716,3.716,0,0,1,1.371-1.551,3.625,3.625,0,0,1,1.969-.555,3.318,3.318,0,0,1,2.668,1.1,4.658,4.658,0,0,1,.941,3.117v.766H97.667a2.539,2.539,0,0,0,.7,1.656,2.1,2.1,0,0,0,1.543.609,2.571,2.571,0,0,0,2.125-1.055l1.023.977a3.418,3.418,0,0,1-1.355,1.176A4.244,4.244,0,0,1,99.8,17.156Zm-.227-7.242a1.6,1.6,0,0,0-1.262.547,2.835,2.835,0,0,0-.613,1.523h3.617v-.141a2.307,2.307,0,0,0-.508-1.441A1.586,1.586,0,0,0,99.573,9.914Zm9.516.367a4.7,4.7,0,0,0-.773-.062,1.741,1.741,0,0,0-1.758,1V17h-1.9V8.547h1.813l.047.945a2.139,2.139,0,0,1,1.906-1.1,1.777,1.777,0,0,1,.672.109Z" transform="translate(750.43 164.757)" fill="#fff"/>
        <path id="Trazado_1264832" data-name="Trazado 1264832" d="M70.762,15.186H66.08L65.1,18H62.918L67.483,5.914h1.884L73.941,18H71.75ZM66.67,13.493h3.5L68.421,8.479Zm12.136,3.063a1.824,1.824,0,0,0,1.253-.44,1.5,1.5,0,0,0,.531-1.087h1.9a2.963,2.963,0,0,1-.523,1.565,3.43,3.43,0,0,1-1.328,1.15,3.958,3.958,0,0,1-1.81.423,3.829,3.829,0,0,1-2.988-1.22,4.84,4.84,0,0,1-1.1-3.37v-.208a4.759,4.759,0,0,1,1.1-3.283,3.8,3.8,0,0,1,2.988-1.233,3.69,3.69,0,0,1,2.611.934,3.345,3.345,0,0,1,1.058,2.453h-1.9a1.847,1.847,0,0,0-.527-1.27,1.7,1.7,0,0,0-1.258-.5,1.775,1.775,0,0,0-1.511.71,3.621,3.621,0,0,0-.54,2.154v.324a3.681,3.681,0,0,0,.527,2.179A1.774,1.774,0,0,0,78.805,16.556Zm7.736-9.72V9.019h1.585v1.494H86.542v5.014a1.1,1.1,0,0,0,.2.743.943.943,0,0,0,.726.228,3.107,3.107,0,0,0,.706-.083v1.561a4.968,4.968,0,0,1-1.328.191q-2.324,0-2.324-2.565V10.513H83.047V9.019h1.478V6.835ZM95.108,17.12a3.128,3.128,0,0,1-2.523,1.046,2.788,2.788,0,0,1-2.212-.855,3.637,3.637,0,0,1-.751-2.474V9.019h2.017v5.794q0,1.71,1.419,1.71a1.993,1.993,0,0,0,1.984-1.054V9.019h2.017V18h-1.9Zm9.372.88a3.113,3.113,0,0,1-.232-.838,3.393,3.393,0,0,1-4.565.232,2.47,2.47,0,0,1-.855-1.909,2.55,2.55,0,0,1,1.067-2.2,5.169,5.169,0,0,1,3.051-.768h1.237v-.589a1.573,1.573,0,0,0-.39-1.116,1.547,1.547,0,0,0-1.187-.419,1.777,1.777,0,0,0-1.129.344,1.066,1.066,0,0,0-.44.876H99.018a2.239,2.239,0,0,1,.49-1.382,3.263,3.263,0,0,1,1.332-1.009,4.68,4.68,0,0,1,1.88-.365,3.769,3.769,0,0,1,2.515.793,2.827,2.827,0,0,1,.963,2.229v4.051a4.591,4.591,0,0,0,.34,1.934V18Zm-2.216-1.453a2.294,2.294,0,0,0,1.125-.291,1.941,1.941,0,0,0,.793-.78V13.783h-1.087a2.973,2.973,0,0,0-1.685.39,1.264,1.264,0,0,0-.564,1.1,1.179,1.179,0,0,0,.386.926A1.5,1.5,0,0,0,102.263,16.547Zm10.75-5.686a4.991,4.991,0,0,0-.822-.066,1.85,1.85,0,0,0-1.868,1.063V18h-2.017V9.019h1.926l.05,1a2.273,2.273,0,0,1,2.025-1.17,1.888,1.888,0,0,1,.714.116Z" transform="translate(72.43 343.807)" fill="#fff"/>
        <path id="Trazado_1264833" data-name="Trazado 1264833" d="M61.295,15.369l3.071-9.455h2.308L62.324,18H60.29L55.957,5.914h2.3Zm10.5,2.8a4.173,4.173,0,0,1-3.109-1.208A4.381,4.381,0,0,1,67.5,13.742v-.249a5.389,5.389,0,0,1,.519-2.4,3.949,3.949,0,0,1,1.457-1.648,3.851,3.851,0,0,1,2.092-.589,3.525,3.525,0,0,1,2.835,1.17,4.949,4.949,0,0,1,1,3.312v.813H69.529a2.7,2.7,0,0,0,.743,1.76,2.23,2.23,0,0,0,1.639.647,2.731,2.731,0,0,0,2.258-1.121l1.087,1.038a3.631,3.631,0,0,1-1.44,1.249A4.509,4.509,0,0,1,71.8,18.166Zm-.241-7.695a1.7,1.7,0,0,0-1.341.581,3.012,3.012,0,0,0-.652,1.619h3.843v-.149a2.452,2.452,0,0,0-.54-1.531A1.686,1.686,0,0,0,71.555,10.471Zm10.11.39a4.991,4.991,0,0,0-.822-.066,1.85,1.85,0,0,0-1.868,1.063V18H76.958V9.019h1.926l.05,1a2.273,2.273,0,0,1,2.025-1.17,1.888,1.888,0,0,1,.714.116ZM85.085,18H83.068V9.019h2.017ZM82.943,6.686a1.071,1.071,0,0,1,.295-.772,1.113,1.113,0,0,1,.843-.307,1.127,1.127,0,0,1,.847.307,1.062,1.062,0,0,1,.3.772,1.038,1.038,0,0,1-.3.76,1.136,1.136,0,0,1-.847.3,1.122,1.122,0,0,1-.843-.3A1.046,1.046,0,0,1,82.943,6.686ZM87.816,18V10.513h-1.37V9.019h1.37V8.4a3.593,3.593,0,0,1,.448-1.81,2.788,2.788,0,0,1,1.245-1.137,4.482,4.482,0,0,1,1.934-.382,5.638,5.638,0,0,1,1.274.141q.61.141,1.266.357l-.307,1.668a6.421,6.421,0,0,0-2.092-.4,1.869,1.869,0,0,0-1.336.4,1.61,1.61,0,0,0-.415,1.208v.564H91.6v1.494H89.833V18Zm7.122,0H92.921V9.019h2.017Zm5.927-1.444a1.824,1.824,0,0,0,1.253-.44,1.5,1.5,0,0,0,.531-1.087h1.9a2.963,2.963,0,0,1-.523,1.565,3.43,3.43,0,0,1-1.328,1.15,3.958,3.958,0,0,1-1.81.423,3.829,3.829,0,0,1-2.988-1.22,4.84,4.84,0,0,1-1.1-3.37v-.208a4.759,4.759,0,0,1,1.1-3.283,3.8,3.8,0,0,1,2.988-1.233,3.69,3.69,0,0,1,2.611.934,3.345,3.345,0,0,1,1.058,2.453h-1.9a1.847,1.847,0,0,0-.527-1.27,1.7,1.7,0,0,0-1.258-.5,1.775,1.775,0,0,0-1.511.71,3.621,3.621,0,0,0-.54,2.154v.324a3.681,3.681,0,0,0,.527,2.179A1.774,1.774,0,0,0,100.865,16.556ZM111.44,18a3.113,3.113,0,0,1-.232-.838,3.393,3.393,0,0,1-4.565.232,2.47,2.47,0,0,1-.855-1.909,2.55,2.55,0,0,1,1.067-2.2,5.169,5.169,0,0,1,3.051-.768h1.237v-.589a1.573,1.573,0,0,0-.39-1.116,1.547,1.547,0,0,0-1.187-.419,1.777,1.777,0,0,0-1.129.344,1.066,1.066,0,0,0-.44.876h-2.017a2.239,2.239,0,0,1,.49-1.382A3.263,3.263,0,0,1,107.8,9.218a4.68,4.68,0,0,1,1.88-.365,3.769,3.769,0,0,1,2.515.793,2.827,2.827,0,0,1,.963,2.229v4.051a4.591,4.591,0,0,0,.34,1.934V18Zm-2.216-1.453a2.294,2.294,0,0,0,1.125-.291,1.941,1.941,0,0,0,.793-.78V13.783h-1.087a2.973,2.973,0,0,0-1.685.39,1.264,1.264,0,0,0-.564,1.1,1.179,1.179,0,0,0,.386.926A1.5,1.5,0,0,0,109.224,16.547Zm10.75-5.686a4.991,4.991,0,0,0-.822-.066,1.85,1.85,0,0,0-1.868,1.063V18h-2.017V9.019h1.926l.05,1a2.273,2.273,0,0,1,2.025-1.17,1.888,1.888,0,0,1,.714.116Z" transform="translate(750.43 343.809)" fill="#fff"/>
        <path id="Trazado_1264834" data-name="Trazado 1264834" d="M9.085,0A9.085,9.085,0,1,1,0,9.085,9.085,9.085,0,0,1,9.085,0Z" transform="translate(342.682 221.816)" fill="#056154"/>
        <path id="Trazado_1264835" data-name="Trazado 1264835" d="M9.085,0A9.085,9.085,0,1,1,0,9.085,9.085,9.085,0,0,1,9.085,0Z" transform="translate(637.282 221.818)" fill="#056154"/>
        <path id="Trazado_1264836" data-name="Trazado 1264836" d="M9.085,0A9.085,9.085,0,1,1,0,9.085,9.085,9.085,0,0,1,9.085,0Z" transform="translate(342.682 290.932)" fill="#056154"/>
        <path id="Trazado_1264837" data-name="Trazado 1264837" d="M9.085,0A9.085,9.085,0,1,1,0,9.085,9.085,9.085,0,0,1,9.085,0Z" transform="translate(637.282 290.934)" fill="#056154"/>
      </g>
    </g>
    <g id="Grupo_1205930" data-name="Grupo 1205930" transform="translate(2045.044 9348)">
      <rect id="Rectángulo_408426" data-name="Rectángulo 408426" width="604" height="55" rx="19" transform="translate(-1547.333 -3547)" fill="#5d0b80"/>
    </g>
    <path id="Trazado_1264838" data-name="Trazado 1264838" d="M-231.979-2.391h-4.228L-236.944,0h-3.3l4.693-12.8h2.9L-227.918,0h-3.313Zm-3.489-2.382h2.751l-1.38-4.438Zm17.174.088a5.735,5.735,0,0,1-1,3.538A3.2,3.2,0,0,1-221.985.176a2.742,2.742,0,0,1-2.153-.958V3.656H-227.1V-9.51h2.769l.088.879A2.742,2.742,0,0,1-222-9.686a3.224,3.224,0,0,1,2.733,1.3,5.805,5.805,0,0,1,.976,3.564Zm-2.962-.185q0-2.531-1.477-2.531a1.394,1.394,0,0,0-1.406.756V-2.9a1.439,1.439,0,0,0,1.424.791q1.415,0,1.459-2.443ZM-213.864,0h-2.971V-13.5h2.971Zm4.948,0h-2.971V-9.51h2.971Zm-3.146-11.962A1.322,1.322,0,0,1-211.605-13a1.724,1.724,0,0,1,1.187-.4,1.724,1.724,0,0,1,1.187.4,1.322,1.322,0,0,1,.457,1.037,1.322,1.322,0,0,1-.457,1.037,1.724,1.724,0,0,1-1.187.4,1.724,1.724,0,0,1-1.187-.4A1.322,1.322,0,0,1-212.062-11.962Zm8.991,9.853a1.317,1.317,0,0,0,.967-.338,1.241,1.241,0,0,0,.334-.945h2.777a3.288,3.288,0,0,1-1.121,2.566,4.168,4.168,0,0,1-2.887,1,4.22,4.22,0,0,1-3.27-1.3,5.125,5.125,0,0,1-1.2-3.6v-.123a5.792,5.792,0,0,1,.532-2.544,3.872,3.872,0,0,1,1.534-1.7,4.573,4.573,0,0,1,2.373-.593,4.116,4.116,0,0,1,2.944,1.028,3.647,3.647,0,0,1,1.09,2.786h-2.777A1.626,1.626,0,0,0-202.131-7a1.244,1.244,0,0,0-.967-.4q-1.151,0-1.345,1.468a10.357,10.357,0,0,0-.062,1.283,4.068,4.068,0,0,0,.343,1.986A1.187,1.187,0,0,0-203.071-2.109ZM-192.384,0a3.344,3.344,0,0,1-.281-.853A2.754,2.754,0,0,1-194.95.176a3.374,3.374,0,0,1-2.285-.813,2.588,2.588,0,0,1-.94-2.043,2.66,2.66,0,0,1,1.143-2.338,5.821,5.821,0,0,1,3.322-.791h.914v-.5q0-1.316-1.134-1.316a.927.927,0,0,0-1.055,1.042h-2.962a2.655,2.655,0,0,1,1.173-2.239,4.931,4.931,0,0,1,2.993-.86,4.323,4.323,0,0,1,2.874.888,3.086,3.086,0,0,1,1.081,2.435v4.21a4.311,4.311,0,0,0,.4,2V0Zm-1.854-1.934a1.652,1.652,0,0,0,.918-.237,1.487,1.487,0,0,0,.523-.536V-4.228h-.861q-1.547,0-1.547,1.389a.848.848,0,0,0,.272.655A.986.986,0,0,0-194.238-1.934Zm10.072-.176a1.317,1.317,0,0,0,.967-.338,1.241,1.241,0,0,0,.334-.945h2.777a3.288,3.288,0,0,1-1.121,2.566,4.168,4.168,0,0,1-2.887,1,4.22,4.22,0,0,1-3.27-1.3,5.125,5.125,0,0,1-1.2-3.6v-.123a5.792,5.792,0,0,1,.532-2.544,3.872,3.872,0,0,1,1.534-1.7,4.573,4.573,0,0,1,2.373-.593,4.116,4.116,0,0,1,2.944,1.028,3.647,3.647,0,0,1,1.09,2.786h-2.777A1.626,1.626,0,0,0-183.226-7a1.244,1.244,0,0,0-.967-.4q-1.151,0-1.345,1.468a10.357,10.357,0,0,0-.062,1.283,4.068,4.068,0,0,0,.343,1.986A1.187,1.187,0,0,0-184.166-2.109ZM-175.711,0h-2.971V-9.51h2.971Zm-3.146-11.962A1.322,1.322,0,0,1-178.4-13a1.724,1.724,0,0,1,1.187-.4,1.724,1.724,0,0,1,1.187.4,1.322,1.322,0,0,1,.457,1.037,1.322,1.322,0,0,1-.457,1.037,1.724,1.724,0,0,1-1.187.4,1.724,1.724,0,0,1-1.187-.4A1.322,1.322,0,0,1-178.857-11.962Zm4.6,7.119a5.613,5.613,0,0,1,.554-2.536,3.96,3.96,0,0,1,1.591-1.709,4.791,4.791,0,0,1,2.435-.6,4.373,4.373,0,0,1,3.366,1.323,5.076,5.076,0,0,1,1.23,3.6v.105a4.925,4.925,0,0,1-1.235,3.529A4.384,4.384,0,0,1-169.664.176a4.434,4.434,0,0,1-3.261-1.217,4.761,4.761,0,0,1-1.327-3.3Zm2.962.185a3.538,3.538,0,0,0,.413,1.934,1.376,1.376,0,0,0,1.222.615q1.582,0,1.617-2.435v-.3q0-2.558-1.635-2.558-1.485,0-1.608,2.206Zm2.021-8.842h3.129l-2.443,2.76-2.417,0Zm8.218,3.99.1,1.116a3.225,3.225,0,0,1,2.716-1.292,2.713,2.713,0,0,1,2.219.888,4.226,4.226,0,0,1,.76,2.672V0h-2.971V-6a1.6,1.6,0,0,0-.29-1.059,1.342,1.342,0,0,0-1.055-.338,1.413,1.413,0,0,0-1.292.686V0h-2.962V-9.51Zm11.54,4.685a5.809,5.809,0,0,1,.976-3.56,3.211,3.211,0,0,1,2.725-1.3,2.731,2.731,0,0,1,2.145,1V-13.5h2.971V0h-2.663l-.149-1.02a2.8,2.8,0,0,1-2.32,1.2,3.205,3.205,0,0,1-2.689-1.3A5.993,5.993,0,0,1-149.52-4.825Zm2.962.185q0,2.531,1.477,2.531a1.458,1.458,0,0,0,1.406-.826V-6.557a1.419,1.419,0,0,0-1.389-.844q-1.371,0-1.485,2.215ZM-134.42.176a4.889,4.889,0,0,1-3.542-1.305,4.507,4.507,0,0,1-1.354-3.4v-.246a5.84,5.84,0,0,1,.541-2.575A3.955,3.955,0,0,1-137.2-9.075a4.763,4.763,0,0,1,2.461-.611,4.117,4.117,0,0,1,3.164,1.244,4.887,4.887,0,0,1,1.16,3.467v1.151H-136.3a2.135,2.135,0,0,0,.694,1.257,2.066,2.066,0,0,0,1.389.457,2.662,2.662,0,0,0,2.2-.984l1.354,1.6a3.784,3.784,0,0,1-1.569,1.217A5.3,5.3,0,0,1-134.42.176Zm-.334-7.576q-1.3,0-1.547,1.723h2.988v-.229a1.467,1.467,0,0,0-.36-1.1A1.434,1.434,0,0,0-134.754-7.4ZM-126.1,0h-2.971V-13.5h2.971Zm10.327-2.109a1.317,1.317,0,0,0,.967-.338,1.241,1.241,0,0,0,.334-.945h2.777a3.288,3.288,0,0,1-1.121,2.566,4.168,4.168,0,0,1-2.887,1,4.22,4.22,0,0,1-3.27-1.3,5.125,5.125,0,0,1-1.2-3.6v-.123a5.792,5.792,0,0,1,.532-2.544,3.872,3.872,0,0,1,1.534-1.7,4.573,4.573,0,0,1,2.373-.593,4.116,4.116,0,0,1,2.944,1.028,3.647,3.647,0,0,1,1.09,2.786h-2.777A1.626,1.626,0,0,0-114.829-7a1.244,1.244,0,0,0-.967-.4q-1.151,0-1.345,1.468a10.357,10.357,0,0,0-.062,1.283,4.068,4.068,0,0,0,.343,1.986A1.187,1.187,0,0,0-115.77-2.109ZM-107.314,0h-2.971V-9.51h2.971Zm-3.146-11.962A1.322,1.322,0,0,1-110-13a1.724,1.724,0,0,1,1.187-.4,1.724,1.724,0,0,1,1.187.4,1.322,1.322,0,0,1,.457,1.037,1.322,1.322,0,0,1-.457,1.037,1.724,1.724,0,0,1-1.187.4,1.724,1.724,0,0,1-1.187-.4A1.322,1.322,0,0,1-110.461-11.962Zm8.991,9.853a1.317,1.317,0,0,0,.967-.338,1.241,1.241,0,0,0,.334-.945h2.777A3.288,3.288,0,0,1-98.512-.826a4.168,4.168,0,0,1-2.887,1,4.22,4.22,0,0,1-3.27-1.3,5.125,5.125,0,0,1-1.2-3.6v-.123a5.792,5.792,0,0,1,.532-2.544,3.872,3.872,0,0,1,1.534-1.7,4.573,4.573,0,0,1,2.373-.593,4.116,4.116,0,0,1,2.944,1.028,3.647,3.647,0,0,1,1.09,2.786h-2.777A1.626,1.626,0,0,0-100.529-7a1.244,1.244,0,0,0-.967-.4q-1.151,0-1.345,1.468a10.357,10.357,0,0,0-.062,1.283,4.068,4.068,0,0,0,.343,1.986A1.187,1.187,0,0,0-101.47-2.109ZM-93.015,0h-2.971V-13.5h2.971Zm1.45-4.843a5.613,5.613,0,0,1,.554-2.536A3.96,3.96,0,0,1-89.42-9.088a4.791,4.791,0,0,1,2.435-.6,4.373,4.373,0,0,1,3.366,1.323,5.076,5.076,0,0,1,1.23,3.6v.105a4.925,4.925,0,0,1-1.235,3.529A4.384,4.384,0,0,1-86.968.176a4.434,4.434,0,0,1-3.261-1.217,4.761,4.761,0,0,1-1.327-3.3Zm2.962.185a3.538,3.538,0,0,0,.413,1.934,1.376,1.376,0,0,0,1.222.615q1.582,0,1.617-2.435v-.3q0-2.558-1.635-2.558-1.485,0-1.608,2.206Zm15.223.316V0h-3.085V-12.8h5.106a5.948,5.948,0,0,1,2.6.541,4.074,4.074,0,0,1,1.749,1.538,4.2,4.2,0,0,1,.62,2.263,3.7,3.7,0,0,1-1.34,2.993,5.561,5.561,0,0,1-3.678,1.121Zm0-2.382h2.021a1.906,1.906,0,0,0,1.367-.448,1.665,1.665,0,0,0,.47-1.266A2.059,2.059,0,0,0-70-9.87a1.712,1.712,0,0,0-1.318-.545H-73.38ZM-54.053,0H-57.12V-5.344h-4.544V0h-3.085V-12.8h3.085v5.08h4.544V-12.8h3.067Zm6.917-3.48,2.549-9.316h3.445L-45.448,0h-3.375l-4.271-12.8h3.419ZM-33.6-2.391h-4.228L-38.566,0h-3.3l4.693-12.8h2.9L-29.54,0h-3.313ZM-37.09-4.772h2.751l-1.38-4.438ZM-19.661.176A4.889,4.889,0,0,1-23.2-1.129a4.507,4.507,0,0,1-1.354-3.4v-.246a5.84,5.84,0,0,1,.541-2.575,3.955,3.955,0,0,1,1.578-1.727,4.763,4.763,0,0,1,2.461-.611,4.117,4.117,0,0,1,3.164,1.244,4.887,4.887,0,0,1,1.16,3.467v1.151h-5.889a2.135,2.135,0,0,0,.694,1.257,2.066,2.066,0,0,0,1.389.457,2.662,2.662,0,0,0,2.2-.984l1.354,1.6A3.784,3.784,0,0,1-17.477-.277,5.3,5.3,0,0,1-19.661.176ZM-20-7.4q-1.3,0-1.547,1.723h2.988v-.229a1.467,1.467,0,0,0-.36-1.1A1.434,1.434,0,0,0-20-7.4Zm8.253-2.109.1,1.116A3.225,3.225,0,0,1-8.93-9.686,2.713,2.713,0,0,1-6.71-8.8a4.226,4.226,0,0,1,.76,2.672V0H-8.921V-6a1.6,1.6,0,0,0-.29-1.059A1.342,1.342,0,0,0-10.266-7.4a1.413,1.413,0,0,0-1.292.686V0H-14.52V-9.51ZM3.3,0H.325V-13.5H3.3Zm7.181,0A3.344,3.344,0,0,1,10.2-.853,2.754,2.754,0,0,1,7.91.176,3.374,3.374,0,0,1,5.625-.637a2.588,2.588,0,0,1-.94-2.043A2.66,2.66,0,0,1,5.827-5.019,5.821,5.821,0,0,1,9.149-5.81h.914v-.5q0-1.316-1.134-1.316A.927.927,0,0,0,7.875-6.587H4.913A2.655,2.655,0,0,1,6.086-8.825a4.931,4.931,0,0,1,2.993-.86,4.323,4.323,0,0,1,2.874.888,3.086,3.086,0,0,1,1.081,2.435v4.21a4.311,4.311,0,0,0,.4,2V0ZM8.622-1.934a1.652,1.652,0,0,0,.918-.237,1.487,1.487,0,0,0,.523-.536V-4.228H9.2q-1.547,0-1.547,1.389a.848.848,0,0,0,.272.655A.986.986,0,0,0,8.622-1.934ZM24.513,0a3.344,3.344,0,0,1-.281-.853A2.754,2.754,0,0,1,21.946.176a3.374,3.374,0,0,1-2.285-.813,2.588,2.588,0,0,1-.94-2.043,2.66,2.66,0,0,1,1.143-2.338,5.821,5.821,0,0,1,3.322-.791H24.1v-.5q0-1.316-1.134-1.316a.927.927,0,0,0-1.055,1.042H18.949a2.655,2.655,0,0,1,1.173-2.239,4.931,4.931,0,0,1,2.993-.86,4.323,4.323,0,0,1,2.874.888A3.086,3.086,0,0,1,27.07-6.363v4.21a4.311,4.311,0,0,0,.4,2V0ZM22.658-1.934a1.652,1.652,0,0,0,.918-.237,1.487,1.487,0,0,0,.523-.536V-4.228h-.861q-1.547,0-1.547,1.389a.848.848,0,0,0,.272.655A.986.986,0,0,0,22.658-1.934Zm11.716.905a3.054,3.054,0,0,1-2.54,1.2,3,3,0,0,1-2.369-.91,3.826,3.826,0,0,1-.8-2.615V-9.51h2.962v6.179A1.065,1.065,0,0,0,32.81-2.109a1.548,1.548,0,0,0,1.45-.729V-9.51h2.979V0H34.462Zm4.113-3.8a5.809,5.809,0,0,1,.976-3.56,3.211,3.211,0,0,1,2.725-1.3,2.731,2.731,0,0,1,2.145,1V-13.5H47.3V0H44.64L44.49-1.02a2.8,2.8,0,0,1-2.32,1.2,3.205,3.205,0,0,1-2.689-1.3A5.993,5.993,0,0,1,38.487-4.825Zm2.962.185q0,2.531,1.477,2.531a1.458,1.458,0,0,0,1.406-.826V-6.557A1.419,1.419,0,0,0,42.943-7.4q-1.371,0-1.485,2.215ZM52.11,0H49.14V-9.51H52.11ZM48.964-11.962A1.322,1.322,0,0,1,49.421-13a1.724,1.724,0,0,1,1.187-.4,1.724,1.724,0,0,1,1.187.4,1.322,1.322,0,0,1,.457,1.037,1.322,1.322,0,0,1-.457,1.037,1.724,1.724,0,0,1-1.187.4,1.724,1.724,0,0,1-1.187-.4A1.322,1.322,0,0,1,48.964-11.962Zm8.42.088V-9.51h1.564v2.057H57.384V-3.1a1.111,1.111,0,0,0,.193.747,1.037,1.037,0,0,0,.765.211A4.345,4.345,0,0,0,59.08-2.2V-.079a5.466,5.466,0,0,1-1.67.255,3.1,3.1,0,0,1-2.259-.721,2.954,2.954,0,0,1-.729-2.188v-4.72H53.209V-9.51h1.213v-2.364Zm2.092,7.031a5.613,5.613,0,0,1,.554-2.536A3.96,3.96,0,0,1,61.62-9.088a4.791,4.791,0,0,1,2.435-.6,4.373,4.373,0,0,1,3.366,1.323,5.076,5.076,0,0,1,1.23,3.6v.105a4.925,4.925,0,0,1-1.235,3.529A4.384,4.384,0,0,1,64.072.176a4.434,4.434,0,0,1-3.261-1.217,4.761,4.761,0,0,1-1.327-3.3Zm2.962.185a3.538,3.538,0,0,0,.413,1.934,1.376,1.376,0,0,0,1.222.615q1.582,0,1.617-2.435v-.3q0-2.558-1.635-2.558-1.485,0-1.608,2.206ZM75.709-6.829l-.976-.07a1.752,1.752,0,0,0-1.793.879V0H69.979V-9.51h2.777l.1,1.222a2.294,2.294,0,0,1,2.083-1.4,2.888,2.888,0,0,1,.826.105ZM80.007,0H77.027V-9.51h2.979ZM78.9-13.324h3.129l-2.443,2.76-2.417,0ZM87.267,0a3.344,3.344,0,0,1-.281-.853A2.754,2.754,0,0,1,84.7.176a3.374,3.374,0,0,1-2.285-.813,2.588,2.588,0,0,1-.94-2.043,2.66,2.66,0,0,1,1.143-2.338,5.821,5.821,0,0,1,3.322-.791h.914v-.5q0-1.316-1.134-1.316a.927.927,0,0,0-1.055,1.042H81.7a2.655,2.655,0,0,1,1.173-2.239,4.931,4.931,0,0,1,2.993-.86,4.323,4.323,0,0,1,2.874.888,3.086,3.086,0,0,1,1.081,2.435v4.21a4.311,4.311,0,0,0,.4,2V0ZM85.412-1.934a1.652,1.652,0,0,0,.918-.237,1.487,1.487,0,0,0,.523-.536V-4.228h-.861q-1.547,0-1.547,1.389a.848.848,0,0,0,.272.655A.986.986,0,0,0,85.412-1.934ZM99.07,0H96.1V-9.51H99.07ZM95.924-11.962A1.322,1.322,0,0,1,96.381-13a1.724,1.724,0,0,1,1.187-.4,1.724,1.724,0,0,1,1.187.4,1.322,1.322,0,0,1,.457,1.037,1.322,1.322,0,0,1-.457,1.037,1.724,1.724,0,0,1-1.187.4,1.724,1.724,0,0,1-1.187-.4A1.322,1.322,0,0,1,95.924-11.962Zm7.69,2.452.1,1.116a3.225,3.225,0,0,1,2.716-1.292,2.713,2.713,0,0,1,2.219.888,4.226,4.226,0,0,1,.76,2.672V0h-2.971V-6a1.6,1.6,0,0,0-.29-1.059,1.342,1.342,0,0,0-1.055-.338,1.413,1.413,0,0,0-1.292.686V0h-2.962V-9.51ZM114.5-11.874V-9.51h1.564v2.057H114.5V-3.1a1.111,1.111,0,0,0,.193.747,1.037,1.037,0,0,0,.765.211,4.345,4.345,0,0,0,.738-.053V-.079a5.466,5.466,0,0,1-1.67.255,3.1,3.1,0,0,1-2.259-.721,2.954,2.954,0,0,1-.729-2.188v-4.72H110.32V-9.51h1.213v-2.364Zm7.33,12.05a4.889,4.889,0,0,1-3.542-1.305,4.507,4.507,0,0,1-1.354-3.4v-.246a5.84,5.84,0,0,1,.541-2.575,3.955,3.955,0,0,1,1.578-1.727,4.763,4.763,0,0,1,2.461-.611,4.117,4.117,0,0,1,3.164,1.244,4.887,4.887,0,0,1,1.16,3.467v1.151h-5.889a2.135,2.135,0,0,0,.694,1.257,2.066,2.066,0,0,0,1.389.457,2.662,2.662,0,0,0,2.2-.984l1.354,1.6a3.784,3.784,0,0,1-1.569,1.217A5.3,5.3,0,0,1,121.825.176ZM121.491-7.4q-1.3,0-1.547,1.723h2.988v-.229a1.467,1.467,0,0,0-.36-1.1A1.434,1.434,0,0,0,121.491-7.4Zm11.285.571L131.8-6.9a1.752,1.752,0,0,0-1.793.879V0h-2.962V-9.51h2.777l.1,1.222A2.294,2.294,0,0,1,132-9.686a2.888,2.888,0,0,1,.826.105Zm3.788-2.681.1,1.116a3.225,3.225,0,0,1,2.716-1.292A2.713,2.713,0,0,1,141.6-8.8a4.226,4.226,0,0,1,.76,2.672V0h-2.971V-6a1.6,1.6,0,0,0-.29-1.059,1.342,1.342,0,0,0-1.055-.338,1.413,1.413,0,0,0-1.292.686V0h-2.962V-9.51ZM149.353,0a3.344,3.344,0,0,1-.281-.853A2.754,2.754,0,0,1,146.786.176,3.374,3.374,0,0,1,144.5-.637a2.588,2.588,0,0,1-.94-2.043A2.66,2.66,0,0,1,144.7-5.019a5.821,5.821,0,0,1,3.322-.791h.914v-.5q0-1.316-1.134-1.316a.927.927,0,0,0-1.055,1.042h-2.962a2.655,2.655,0,0,1,1.173-2.239,4.931,4.931,0,0,1,2.993-.86,4.323,4.323,0,0,1,2.874.888,3.086,3.086,0,0,1,1.081,2.435v4.21a4.311,4.311,0,0,0,.4,2V0ZM147.5-1.934a1.652,1.652,0,0,0,.918-.237,1.487,1.487,0,0,0,.523-.536V-4.228h-.861q-1.547,0-1.547,1.389a.848.848,0,0,0,.272.655A.986.986,0,0,0,147.5-1.934Zm10.16-2.892a5.809,5.809,0,0,1,.976-3.56,3.211,3.211,0,0,1,2.725-1.3,2.731,2.731,0,0,1,2.145,1V-13.5h2.971V0h-2.663l-.149-1.02a2.8,2.8,0,0,1-2.32,1.2,3.205,3.205,0,0,1-2.689-1.3A5.993,5.993,0,0,1,157.658-4.825Zm2.962.185q0,2.531,1.477,2.531a1.458,1.458,0,0,0,1.406-.826V-6.557a1.419,1.419,0,0,0-1.389-.844q-1.371,0-1.485,2.215ZM172.758.176a4.889,4.889,0,0,1-3.542-1.305,4.507,4.507,0,0,1-1.354-3.4v-.246a5.84,5.84,0,0,1,.541-2.575,3.955,3.955,0,0,1,1.578-1.727,4.763,4.763,0,0,1,2.461-.611,4.117,4.117,0,0,1,3.164,1.244,4.887,4.887,0,0,1,1.16,3.467v1.151h-5.889a2.135,2.135,0,0,0,.694,1.257,2.066,2.066,0,0,0,1.389.457,2.662,2.662,0,0,0,2.2-.984l1.354,1.6a3.784,3.784,0,0,1-1.569,1.217A5.3,5.3,0,0,1,172.758.176ZM172.424-7.4q-1.3,0-1.547,1.723h2.988v-.229a1.467,1.467,0,0,0-.36-1.1A1.434,1.434,0,0,0,172.424-7.4ZM186.46-2.109a1.317,1.317,0,0,0,.967-.338,1.241,1.241,0,0,0,.334-.945h2.777a3.288,3.288,0,0,1-1.121,2.566,4.168,4.168,0,0,1-2.887,1,4.22,4.22,0,0,1-3.27-1.3,5.125,5.125,0,0,1-1.2-3.6v-.123A5.792,5.792,0,0,1,182.6-7.4a3.872,3.872,0,0,1,1.534-1.7,4.573,4.573,0,0,1,2.373-.593,4.116,4.116,0,0,1,2.944,1.028,3.647,3.647,0,0,1,1.09,2.786h-2.777A1.626,1.626,0,0,0,187.4-7a1.244,1.244,0,0,0-.967-.4q-1.151,0-1.345,1.468a10.357,10.357,0,0,0-.062,1.283,4.068,4.068,0,0,0,.343,1.986A1.187,1.187,0,0,0,186.46-2.109ZM197.147,0a3.344,3.344,0,0,1-.281-.853A2.754,2.754,0,0,1,194.581.176,3.374,3.374,0,0,1,192.3-.637a2.588,2.588,0,0,1-.94-2.043A2.66,2.66,0,0,1,192.5-5.019a5.821,5.821,0,0,1,3.322-.791h.914v-.5q0-1.316-1.134-1.316a.927.927,0,0,0-1.055,1.042h-2.962a2.655,2.655,0,0,1,1.173-2.239,4.931,4.931,0,0,1,2.993-.86,4.323,4.323,0,0,1,2.874.888,3.086,3.086,0,0,1,1.081,2.435v4.21a4.311,4.311,0,0,0,.4,2V0Zm-1.854-1.934a1.652,1.652,0,0,0,.918-.237,1.487,1.487,0,0,0,.523-.536V-4.228h-.861q-1.547,0-1.547,1.389a.848.848,0,0,0,.272.655A.986.986,0,0,0,195.293-1.934ZM204.469,0H201.5V-13.5h2.971Zm4.948,0h-2.971V-9.51h2.971Zm-3.146-11.962A1.322,1.322,0,0,1,206.728-13a1.724,1.724,0,0,1,1.187-.4,1.724,1.724,0,0,1,1.187.4,1.322,1.322,0,0,1,.457,1.037,1.322,1.322,0,0,1-.457,1.037,1.724,1.724,0,0,1-1.187.4,1.724,1.724,0,0,1-1.187-.4A1.322,1.322,0,0,1,206.271-11.962Zm4.6,7.137a5.809,5.809,0,0,1,.976-3.56,3.211,3.211,0,0,1,2.725-1.3,2.731,2.731,0,0,1,2.145,1V-13.5h2.971V0H217.02l-.149-1.02a2.8,2.8,0,0,1-2.32,1.2,3.205,3.205,0,0,1-2.689-1.3A5.993,5.993,0,0,1,210.867-4.825Zm2.962.185q0,2.531,1.477,2.531a1.458,1.458,0,0,0,1.406-.826V-6.557a1.419,1.419,0,0,0-1.389-.844q-1.371,0-1.485,2.215ZM226.723,0a3.344,3.344,0,0,1-.281-.853A2.754,2.754,0,0,1,224.156.176a3.374,3.374,0,0,1-2.285-.813,2.588,2.588,0,0,1-.94-2.043,2.66,2.66,0,0,1,1.143-2.338A5.821,5.821,0,0,1,225.4-5.81h.914v-.5q0-1.316-1.134-1.316a.927.927,0,0,0-1.055,1.042h-2.962a2.655,2.655,0,0,1,1.173-2.239,4.931,4.931,0,0,1,2.993-.86A4.323,4.323,0,0,1,228.2-8.8a3.086,3.086,0,0,1,1.081,2.435v4.21a4.311,4.311,0,0,0,.4,2V0Zm-1.854-1.934a1.652,1.652,0,0,0,.918-.237,1.487,1.487,0,0,0,.523-.536V-4.228h-.861q-1.547,0-1.547,1.389a.848.848,0,0,0,.272.655A.986.986,0,0,0,224.868-1.934Zm5.678-2.892a5.809,5.809,0,0,1,.976-3.56,3.211,3.211,0,0,1,2.725-1.3,2.731,2.731,0,0,1,2.145,1V-13.5h2.971V0H236.7l-.149-1.02a2.8,2.8,0,0,1-2.32,1.2,3.205,3.205,0,0,1-2.689-1.3A5.993,5.993,0,0,1,230.546-4.825Zm2.962.185q0,2.531,1.477,2.531a1.458,1.458,0,0,0,1.406-.826V-6.557A1.419,1.419,0,0,0,235-7.4q-1.371,0-1.485,2.215Z" transform="translate(799.711 5835)" fill="#fff"/>
  </g>
</svg>
