<svg xmlns="http://www.w3.org/2000/svg" xmlns:xlink="http://www.w3.org/1999/xlink" width="169" height="111" viewBox="0 0 169 111">
  <defs>
    <clipPath id="clip-path">
      <rect id="Rect치ngulo_457625" data-name="Rect치ngulo 457625" width="90.492" height="101.333" fill="none"/>
    </clipPath>
  </defs>
  <g id="Grupo_1205916" data-name="Grupo 1205916" transform="translate(-1121.422 -1019)">
    <rect id="Rect치ngulo_455283" data-name="Rect치ngulo 455283" width="169" height="111" rx="19" transform="translate(1121.422 1019)" fill="#e3a4fe"/>
    <g id="Grupo_1206759" data-name="Grupo 1206759" transform="translate(1163.057 1028)">
      <g id="Grupo_1206758" data-name="Grupo 1206758" transform="translate(0 -5.333)" clip-path="url(#clip-path)">
        <path id="Trazado_1264594" data-name="Trazado 1264594" d="M117.328,109.364A26.613,26.613,0,1,1,90.715,82.751a26.613,26.613,0,0,1,26.613,26.613" transform="translate(-45.469 -58.697)" fill="#ffe9a1"/>
        <path id="Trazado_1264595" data-name="Trazado 1264595" d="M59.95,24.942c4.914-2.15,7.758-6.048,13.569-3.54.538.232,1.516,1.232,1.93,1.169a9.074,9.074,0,0,1,8.787-1.423c1.2.392,2.853,1.024,2.774,2.485-.166,3.07-4.331-.47-5.962-.093l-.31.228A6.3,6.3,0,0,0,86.5,33.384c1.412-1.372.236-5.437,2.4-5.539,2.283-.108,1.532,3.558,1.139,4.95-.8,2.85-2.925,4.549-5.336,6,.878,6.947-4.8,8.908-9.633,11.871,3.136,2.293,7.917,3.514,9.214,7.639.4,1.282.209,3.926.514,4.427.165.271,1.646.865,2.191,1.3,8.051,6.393,1.014,19.522-8.93,16.2-.665-.222-2.615-1.492-2.8-1.464-.281.043-1.5,1.081-2.148,1.346-5.432,2.227-8.6-1.772-13.165-3.718v8.575c0,1.786-3.323,5.14-5.091,5.664.044,14.278-19.227,14.264-19.176,0-1.639-.476-6.314-4.371-3.258-5.6,1.683-.676,2.456,2.678,4.387,2.67a9.644,9.644,0,0,1,16.919,0,4.65,4.65,0,0,0,3.3-3.626,68.87,68.87,0,0,0,.03-10.458c-.11-.906-1.918-2.838-2.631-3.2-.521-.267-2.477,1.707-2.583,2.11-.232.887,1,1.243,1.272,1.836.314.693.29,6.7-.133,7.122-1.752,1.767-3.258-1.34-2.626-3.057a23.715,23.715,0,0,1-10.168,0c-.072.7.115,1.5-.01,2.173a1.468,1.468,0,0,1-2.916.024,37.116,37.116,0,0,1,.023-5.824c.176-.927,1.273-1.141,1.457-2.041a8.185,8.185,0,0,0-2.232-2.424c-.551-.108-2.793,2.168-2.933,2.786-.431,1.906.9,7.6-1.4,7.931-2.4.346-1.389-3.171-1.583-4.658C27,77.8,24.12,81.07,19.985,80.748a10.989,10.989,0,0,1-4.893-1.986C5.038,86.03-5.976,71.662,3.874,63.771c.473-.379,1.75-.849,1.875-1.032.336-.494.062-2.229.168-3.029.683-5.169,5.893-6.486,9.554-9.043-3.136-2.293-7.917-3.514-9.214-7.639-.379-1.2-.254-4.061-.508-4.433-.072-.105-1.689-.89-2.192-1.3C-5.89,29.677,5.4,15.161,15.093,22.571c.415.062,1.392-.937,1.931-1.169,5.811-2.507,8.655,1.39,13.569,3.54V16.367c0-1.786,3.323-5.14,5.091-5.664-.048-14.271,19.224-14.271,19.176,0,1.768.524,5.091,3.878,5.091,5.664ZM44.477,2.923c-1.536.188-5.585,2.279-4.547,4.094,1.11,1.941,4.006,3.013,6.18,2.776,1.336-.146,5.233-2.173,4.69-3.728-.718-2.059-4.3-3.389-6.323-3.142M51.519,10.7c-.212-.219-1.889,1.105-2.325,1.306a11.12,11.12,0,0,1-5.888.658l-4.287-1.817a6.435,6.435,0,0,0,12.5-.147m5.524,14.242V16.948c0-.8-2.286-3.56-3.313-3.317a9.645,9.645,0,0,1-16.919,0c-1.027-.242-3.313,2.522-3.313,3.317v7.994a28.315,28.315,0,0,1,23.545,0M3.89,33.329a6.244,6.244,0,0,0,5.774-9.715A6.456,6.456,0,0,0,3.89,33.329m24.958-5.486c.221-.321-4.719-3.1-5.226-3.344-2.635-1.24-3.757-1.356-6.4.158C21.515,31.65,16.7,39.278,8.78,39.639a5.838,5.838,0,0,0,1.467,4.34,58.264,58.264,0,0,0,6.546,3.92c.561.162.372-.1.421-.431.461-3.085,1.421-7.861,3.253-10.413,1.239-1.725,3.224-1.1,3.083.484-.055.625-1.959,3.978-2.344,5.2-.259.823-1.41,5.726-1.082,6.042l7.558,1.6a2.979,2.979,0,0,1-1.337-3.063c.347-1.785,3.33-8.351,4.287-10.267,1-2.007,1.586-2.631,4.032-2.079L48.2,40.635,54.129,38.3c-.756-3.39,1.027-7.062,2.006-10.309-8.723-4.576-18.79-2.983-26.553,2.774-.933.692-3.672,4.018-4.658,2.028-.967-1.95,2.479-4.114,3.924-4.948m44.473-3.186c-1.631-.795-2.721-1.423-4.6-.969a71.97,71.97,0,0,0-9.659,5.455c-.953,1.019-.794,2.455-1.44,3.643l3.769.867a4.568,4.568,0,0,1,.362-1.528c.34-.631,4.928-3.36,5.753-3.573,2.628-.677,2.023,3.277-.447,3.648l-.125.429a27.6,27.6,0,0,1,6.533,15.28c3.438-2.025,8.855-3.4,8.282-8.433a9.543,9.543,0,0,1-8.431-14.817M7.63,36.276c6.869,1.04,10.592-5.584,6.39-11.042-.475-.078-.273.392-.288.719-.241,5.227-1.046,6.914-5.528,9.6-.368.221-.736-.058-.574.72M82.912,35.7c-4.761-1.7-5.888-5.1-6.1-9.748-.015-.327.187-.8-.288-.719-4.025,5.156-.813,11.908,5.961,11.044.4-.051.841-.155.429-.577M59.374,71.448l.417-.009c12-8.467,14.516-26.053,4.664-37.19-.365-.008-.921,3.2-1.164,3.771a5.4,5.4,0,0,1-3.65,3.071c-.183,1.183,4,9.363,4.72,11.269,1.318,3.507,1.213,4.742-2.669,6.015,3.823,6.488.364,7.288-5.23,9.3Zm1.157-34.877c-.711.211-3.587-1.413-3.773-.426-.37,1.955,3.474,2.847,3.773.426M44.254,42.094,33.5,37.73,29.454,47.737l11.6,4.818c-.04-2.2,2.181-2.193,3.454-3.336-.694-1.91-2.488-3.876-1.193-5.894.433-.674,1.091-.477.941-1.231M61.963,55.143,55.888,40.761,46.12,44.994l1.045,3.2c2.518-.567,6.032-3.576,8.534-2.288,1.595.821,3.561,7.754,4.691,9.562Zm-1.743,7.852L54.148,48.607,43.963,52.851,49.2,65.057c1.452-1.255,4.257.641,5.012.538,1.335-.182,4.353-2.4,6.009-2.6M50.067,75.516c-2.662-2.757-5.036-4.557-3.273-8.817L42.2,56.5,29.139,51.105c2.458,2.547,2.548,6.539-.854,8.3-2.627,1.359-4.369-.113-6.994-.451a27.535,27.535,0,0,0,9.46,12.486l6.2-5.989c2.451-1.718,6.7-.267,7.241,2.724.712,3.96-1.554,4.727-3.712,7.342a25.579,25.579,0,0,0,9.592,0M23.618,52.56c-1.45-.285-2.792-1.221-4.281-.651a89.252,89.252,0,0,0-8.784,5.17,5.683,5.683,0,0,0-1.759,4.776c7.964-.083,12.683,8.057,8.426,14.821,4.2,2.936,8.052-.939,11.626-3.047A27.2,27.2,0,0,1,18.671,60.114c-1.316.973-2.638,1.831-3.736.084-.687-1.591,5.011-4.433,5.925-4.465.652-.023,1.235.332,1.882.312Zm2.034,4.355c2.334.357,3.1-2.119,1.3-3.485-.866-.191-1.308,2.861-1.3,3.485m56.1,4.94a5.793,5.793,0,0,0-1.6-4.646l-6.827-3.779A27.505,27.505,0,0,1,61.7,73.628c3.566,2.1,7.431,5.985,11.626,3.047-4.279-6.789.46-14.885,8.426-14.821M14.02,76.1c4.2-5.458.479-12.082-6.39-11.042-.163.778.206.5.574.72,4.482,2.689,5.287,4.376,5.528,9.6.015.327-.187.8.288.719M82.912,65.056c-6.869-1.04-10.592,5.584-6.39,11.042.475.078.273-.392.288-.719.241-5.227,1.046-6.914,5.528-9.6.368-.221.737.058.574-.72M38.9,67.689c-.136.037-.59.387-.318.563l2.329,2.32c1.369-1.452-.311-3.342-2.01-2.882m11.665.039a1.676,1.676,0,0,0-.934,2.843L52.1,68.107c-.4-.574-.923-.507-1.531-.378M3.89,68a6.456,6.456,0,0,0,5.773,9.713A6.243,6.243,0,0,0,3.89,68m82.762,0a6.224,6.224,0,0,0-5.772,9.713C86.1,77.758,89.006,72.6,86.652,68M51.519,90.633a6.435,6.435,0,0,0-12.5-.146l4.287-1.817a11.126,11.126,0,0,1,5.888.658c.436.2,2.113,1.525,2.325,1.306m-7.336.951a6.5,6.5,0,0,0-4.53,3.313,6.3,6.3,0,0,0,9.977,1.841c1.068-.96,1.586-1.558.723-2.759a6.471,6.471,0,0,0-6.171-2.4" transform="translate(0 0)" fill="#5d0b80"/>
      </g>
    </g>
  </g>
</svg>
