<svg xmlns="http://www.w3.org/2000/svg" xmlns:xlink="http://www.w3.org/1999/xlink" width="127" height="128" viewBox="0 0 127 128">
  <defs>
    <clipPath id="clip-path">
      <rect id="Rectángulo_457665" data-name="Rectángulo 457665" width="82.163" height="82.102" fill="#5d0b80"/>
    </clipPath>
  </defs>
  <g id="Grupo_1205622" data-name="Grupo 1205622" transform="translate(-0.082)">
    <ellipse id="Elipse_13609" data-name="Elipse 13609" cx="63.5" cy="64" rx="63.5" ry="64" transform="translate(0.082)" fill="#fff"/>
    <g id="Grupo_1099776" data-name="Grupo 1099776" transform="translate(23.859 24)">
      <g id="Grupo_1099618" data-name="Grupo 1099618" transform="translate(-4.777 2.502)">
        <rect id="Rectángulo_401104" data-name="Rectángulo 401104" width="78.706" height="80.124" transform="translate(0)" fill="none"/>
      </g>
      <g id="Grupo_1206780" data-name="Grupo 1206780" transform="translate(-6.777 1.502)">
        <g id="Grupo_1206779" data-name="Grupo 1206779" clip-path="url(#clip-path)">
          <path id="Trazado_1264647" data-name="Trazado 1264647" d="M.449,180.841l-.324-.4a15.723,15.723,0,0,1,5.491-12.559,13.307,13.307,0,0,1-1.9-3.633c-1.342-3.95-1.454-13.593-.409-17.618a14.507,14.507,0,0,1,23.554-7.221l.358,0a5.265,5.265,0,0,1,1.326-2.432c1.008-1.033,2.724-1.338,3.511-2.062.736-.678,1.028-1.939,2.213-2.875,2.943-2.323,11.552-2.053,14.923-.67,2.989,1.227,4.63,3.555,6.039,6.323,1.48-.4,2.227-1.674,3.509-2.505a12.987,12.987,0,0,1,8.03-2.012c1.005.105,3.67,1.141,4.153,1.086.4-.046,1.5-.886,2.323-1.043,3.113-.594,6.716,1.53,8.053,4.325,2.114,4.42-.071,9.731-3.921,12.406l.01.345c4.156,2.87,1.657,9.548-3.382,9.245a5.779,5.779,0,0,1-.885,2.385c-.388.571-2.2,1.914-2.228,2.064-.195,1.224,2.672,1.939,3.581,2.43a15.469,15.469,0,0,1,7.766,13.085c.015.49.072,1.031-.38,1.335Zm52.2-36.836a8.3,8.3,0,0,0-5.37-10.484,32.116,32.116,0,0,0-8.8-.412,4.912,4.912,0,0,0-3.371,1.959c-.406.522-.6,1.312-.979,1.686-.553.554-2.134.973-2.878,1.483-2.092,1.434-2.324,3.478-1.607,5.769l2.376-.276a5.5,5.5,0,0,1,3.428-3.719c1.923-.6,9.474-.6,11.4,0a5.5,5.5,0,0,1,3.428,3.719Zm17.782-1.775a5.474,5.474,0,0,1-1.288-5.368l-.248-.485c-3.621-1.247-6.678-.43-9.675,1.72-.549.394-.962,1.081-1.485,1.423-.655.429-1.538.418-2.05,1.1a13.439,13.439,0,0,0-.146,2.519,20.6,20.6,0,0,0-.692,2.92c.052.773,1.11,1.73.72,2.8.7-.588.807-1.641,1.346-2.407a7.376,7.376,0,0,1,4.365-2.668l-.251-2.681,2.522.015c.19,6.99,8.657,10.654,13.674,5.534,2.95-3.01,3.353-8.746-1.117-10.461-4.78-1.833-6.5,4.055-1.909,4.938l.023,2.642a5.772,5.772,0,0,1-3.789-1.541M27.2,166.287c.671-1.528,1.728-3.288,1.938-4.97a58.568,58.568,0,0,0-.1-7.858c-.151-.3-.7-.445-.948-.748a5.584,5.584,0,0,1-1.342-4.928c.115-.71.72-1.174.7-1.924-.161-5.778-8.083-8.188-12.882-7.109-9.749,2.192-9.8,13.112-9.149,21.129.105,1.287,1.168,5.344,2.055,6.186a.587.587,0,0,0,.67.205c.156-.023,2.792-1.071,2.92-1.161.34-.24.567-1.243.855-1.636-2.051-2.3-3.593-4.232-3.848-7.458-.416-5.27-.251-11.135,5.909-12.505a10.334,10.334,0,0,0,5.251,4.5c1.93.669,3.162.374,4.955,1.829,4.235,3.436,2.614,10.593-1.512,13.437.546,2.169,2.662,2.417,4.528,3.016m8.1-23.162a3.759,3.759,0,0,0-.809,1.978c-.195,1.714-.2,7.463.231,8.977a3.8,3.8,0,0,0,3.035,2.78,44.49,44.49,0,0,0,6.8,0,4.094,4.094,0,0,0,3.266-3.76,52.653,52.653,0,0,0,0-8,3,3,0,0,0-2.786-2.786,50.848,50.848,0,0,0-7.753,0,3.76,3.76,0,0,0-1.978.809m-3.473,3.311c-3.5.321-3.357,4.646,0,5.33Zm18.656,5.33c3.356-.642,3.487-5.114,0-5.33Zm12.067-5.279c-1.318-.771-3.585,1.316-4.007,2.557-.531,1.557-.528,9.191.06,10.715a4.11,4.11,0,0,0,2.717,2.371,33.336,33.336,0,0,0,7.71-.176c3.764-1.32,2.249-7.122,2.506-10.162a11.746,11.746,0,0,1-7.974-3.776c-.323-.355-.932-1.483-1.012-1.529m-49.385.191a4.254,4.254,0,0,0-2.4,3.292,37.078,37.078,0,0,0-.03,5.8c.709,9.009,13.183,8.106,13.353-.252.1-5.036-4.682-4.164-7.846-5.982a7.944,7.944,0,0,1-3.081-2.86m42.406,5.088a3.554,3.554,0,0,0-2.446,2.54,2.274,2.274,0,0,0,2.446,2.548Zm18.656,5.088a2.545,2.545,0,1,0,0-5.088Zm-42.4-2.423v7.026c.952-.642,3.515-1.417,3.4-2.765-.011-.13-1.791-1.235-1.944-1.723Zm23.953,5.121a5.136,5.136,0,0,1-5.3-5.12l-1.457,2.537c-.153.488-1.933,1.594-1.944,1.723-.106,1.283,1.591,1.636,2.415,2.178a17.613,17.613,0,0,1,5.746,5.453c1-.485,3.752-.848,3.675-2.133-.47-.808-1.431-1.221-2-2.022a10.415,10.415,0,0,1-1.139-2.616m-11.112-.033H37.64l.042.932c1.1.17,2.39,1.505,3.471,1.505s2.373-1.335,3.471-1.505Zm-6.543,3.88c-1.509-.464-2.451-1.68-3.845-.1l.7,2.277a14.432,14.432,0,0,0,2.745-1.493c.248-.216.508-.237.4-.684m9.206,2.177c-.13-.762,1.063-1.945.494-2.54-1.216-1.272-2.381.044-3.641.363-.106.448.154.469.4.684a14.419,14.419,0,0,0,2.745,1.493m-33.918,4.6h7.632a5.572,5.572,0,0,0-.838-5.7,9.689,9.689,0,0,1-5.815-.115c.074.535-.978,1.822-.978,2.059Zm13.326,3.513c-.174,1.383.127,3.062,0,4.482H55.57v-4.482c0-.176-.649-2.24-.781-2.611-.531-1.489-2.953-5.764-4.431-6.23L48.4,169.23l-7.245-4.046-7.245,4.046-1.844-4.38c-2.492,1.527-4.967,5.985-5.327,8.843m41.674-8.844H61.385c-.665,1.8,2.343,2.706,3.745,2.672.823-.02,3.458-.9,3.51-1.816a4.451,4.451,0,0,0-.228-.856m10.9,13.326a11.821,11.821,0,0,0-8.592-10.427c-2.555,2.192-5.585,3.141-8.85,1.822-.864-.349-2.213-1.684-2.6-1.776-.5-.119-2.49.679-2.455,1.245.06,1,1.237,3.2,1.39,4.678.151,1.45-.343,3.272.389,4.457Zm-65.418,0c-.567-1.282-1.443-2.4-1.982-3.712A15.16,15.16,0,0,1,10.744,168a11.88,11.88,0,0,0-7.751,10.176Zm6.784,0c.711-.137,3.109.367,3.358-.395a20,20,0,0,1,1.458-8.906l-1.3-.871a17.945,17.945,0,0,1-3.511,10.172m0-5.328H14.138a11.331,11.331,0,0,0,3.271,4.841,14.263,14.263,0,0,0,3.271-4.841" transform="translate(-0.086 -98.739)" fill="#5d0b80"/>
          <path id="Trazado_1264648" data-name="Trazado 1264648" d="M8.117,15.957A47.592,47.592,0,0,1,31.508,3.732l.459-3.66L50,0c.8.261.2,2.83.429,3.568a48.479,48.479,0,0,1,20.442,9.724H82.136V31.706H63.48V13.292c.763-.028,1.541.039,2.306,0,.274-.014.665.158.6-.239A54.2,54.2,0,0,0,50.4,6.266V18.622H31.74V6.266C24.7,8.048,17.682,10.927,12.357,15.957h6.3V34.371H0V15.957ZM46.035,2.631H34.4V15.957H47.731V5.054l-7.908,8.7a23.34,23.34,0,0,1-3.367-3.137c-.389-.842.99-1.6,1.495-2.158l1.9,1.437Zm31.74,13.326H66.145V29.041H79.471V18.38L71.713,27.1c-.2.134-3.411-3.177-3.523-3.394-.3-.573,1.114-1.488,1.5-1.919l1.663,1.432ZM14.3,18.622H2.665V31.706H15.991V20.8l-7.874,8.96c-.656-.979-2.953-2.509-3.406-3.389-.274-.532,1.191-1.734,1.717-1.948l1.447,1.46Z" fill="#5d0b80"/>
          <rect id="Rectángulo_457664" data-name="Rectángulo 457664" width="2.668" height="2.668" transform="translate(39.734 23.951)" fill="#5d0b80"/>
          <path id="Trazado_1264649" data-name="Trazado 1264649" d="M144.581,98.855v2.668l-2.44-.107c-.458-.319-.138-1.962-.228-2.561Z" transform="translate(-107.51 -74.904)" fill="#5d0b80"/>
          <path id="Trazado_1264650" data-name="Trazado 1264650" d="M188.663,98.855l-.107,2.44c-.319.458-1.962.138-2.561.228V98.855Z" transform="translate(-140.931 -74.904)" fill="#5d0b80"/>
        </g>
      </g>
    </g>
  </g>
</svg>
