<svg xmlns="http://www.w3.org/2000/svg" xmlns:xlink="http://www.w3.org/1999/xlink" width="127" height="128" viewBox="0 0 127 128">
  <defs>
    <clipPath id="clip-path">
      <rect id="Rect치ngulo_457635" data-name="Rect치ngulo 457635" width="73.313" height="73.279" fill="#5d0b80"/>
    </clipPath>
  </defs>
  <g id="Grupo_1205615" data-name="Grupo 1205615" transform="translate(-0.019)">
    <ellipse id="Elipse_13609" data-name="Elipse 13609" cx="63.5" cy="64" rx="63.5" ry="64" transform="translate(0.019)" fill="#fff"/>
    <g id="Grupo_1099776" data-name="Grupo 1099776" transform="translate(23.859 24)">
      <g id="Grupo_1099618" data-name="Grupo 1099618" transform="translate(0 0)">
        <rect id="Rect치ngulo_401104" data-name="Rect치ngulo 401104" width="78.706" height="80.124" transform="translate(0)" fill="none"/>
      </g>
      <g id="Grupo_1206772" data-name="Grupo 1206772" transform="translate(2.697 3.423)">
        <g id="Grupo_1206771" data-name="Grupo 1206771" clip-path="url(#clip-path)">
          <path id="Trazado_1264625" data-name="Trazado 1264625" d="M.024,2.638A3.616,3.616,0,0,1,3.068.013L39.185,0l.838.211L53.652,13.871l.105,9.084a19.753,19.753,0,0,1,8.712,9.6c.346.847,1.282,3.506,1.159,4.288-.131.836-1.236.987-1.805.555-.3-.226-1.009-3.2-1.307-3.939-6.276-15.48-29.35-12.99-32.092,3.458C24.882,58.157,56.578,64.831,61.47,42.883c.171-.768.034-2.7.834-2.945,2.172-.656,1.458,2.316,1.224,3.534a21.427,21.427,0,0,1-2.61,6.575,25.409,25.409,0,0,0,2.5,2.563c.217.1.9-.724,1.376-.13l7.55,7.563a5.092,5.092,0,0,1-7.459,6.829c-2.463-1.954-4.673-5.081-7.146-7.128-.494-.455.088-1.147-.087-1.581-.2-.5-1.98-1.817-2.31-2.52l-1.584.984-.045,14.392a3.3,3.3,0,0,1-2.246,2.162l-48.2.1A3.357,3.357,0,0,1,.016,70.026V16.9c-.211-1.606,1.913-1.988,2.119-.42L2.114,69.608a1.371,1.371,0,0,0,.837,1.472l48.077-.016a5.449,5.449,0,0,0,.634-.626V57.528a26.181,26.181,0,0,1-6.6,1.268c-7.626.43-15.648-.346-23.316,0-2.7-.227-1.64-2.317-.831-2.317H35.919l-4.1-2.934-11.028-.1a1.14,1.14,0,0,1,.327-2.216h8.711a22.043,22.043,0,0,1-3.556-7.884c-.586-.411-4.472.189-5.534-.133-1.173-.356-.54-2.059-.04-2.059h5.353V38.007H20.7c-.415,0-1.243-1.567.092-2.007.975-.321,5.394.114,5.66-.113a19.12,19.12,0,0,1,3.379-7.536H21.12c-1.018,0-1.688-1.772-.327-2.217l11.028-.1,4.1-2.934H20.91c-.842,0-1.654-2.069.416-2.313,7.86.366,16.132-.472,23.942,0a26.529,26.529,0,0,1,6.394,1.268V15.547h-10.6c-.767,0-2.624-1.608-2.624-2.414V2.113H3.068a2.05,2.05,0,0,0-.945.945v9.656c0,.685-2.1.685-2.1,0Zm49.958,10.6L40.537,3.792v8.921a3.514,3.514,0,0,0,.525.525Zm9.551,38.627-2.4,2.439,2.217,2.369,2.393-2.4Zm4.647,3.16a39.631,39.631,0,0,0-3.715,3.649c-.143.212-.252.305-.175.6a69.259,69.259,0,0,0,5.873,5.9c2.908,2.076,6.13-.731,4.642-3.593a71.278,71.278,0,0,0-6.123-6.262c-.157-.121-.248-.342-.5-.293" transform="translate(0 -0.001)" fill="#5d0b80"/>
          <path id="Trazado_1264626" data-name="Trazado 1264626" d="M148.23,141.574a13.351,13.351,0,0,1-.618-2.424c-2.445-14.615,16.864-22.477,25.423-10.1,9.073,13.121-8.189,28.961-20.545,18.656-.8-.669-3.912-3.484-1.586-4.107.769-.206,2.6,2.222,3.471,2.852,10.115,7.293,23.179-3.786,17.639-14.911-5.674-11.394-23.418-6.843-22.372,6.629.056.72.618,2.424.53,2.851a1.222,1.222,0,0,1-1.943.553" transform="translate(-116.46 -97.113)" fill="#5d0b80"/>
          <path id="Trazado_1264627" data-name="Trazado 1264627" d="M182.4,172.014c-2.122-1.619-5.465-4.877-2.722-7.477,1.719-1.628,3.639-.97,5.228.414.333-.058,2.941-3.069,3.6-3.553a3.37,3.37,0,0,1,4.974,4.344c-.949,1.835-4.642,4.148-5.81,6.155-1.931,1.718-3.294,1.623-5.268.117m-1.3-5.948a1.379,1.379,0,0,0-.062,1.535c.118.2,2.79,2.856,3.053,3.032a1.8,1.8,0,0,0,1.023.367c.482-.053,4.679-4.288,5.279-4.982.207-.24,1.2-1.368,1.254-1.475a1.167,1.167,0,0,0-1.7-1.479c-.947.674-4,4.518-4.816,4.639-1.2.176-2.631-3.038-4.031-1.636" transform="translate(-141.144 -126.96)" fill="#5d0b80"/>
          <path id="Trazado_1264628" data-name="Trazado 1264628" d="M35.511,94.4c.975-.932,5.139-.869,6.523-.682a2.608,2.608,0,0,1,2.108,1.461,38.171,38.171,0,0,1,.1,6.382c-.419,2.279-4.844,1.959-6.611,1.8-1.158-.1-2.609-.724-2.813-2.015a33.4,33.4,0,0,1,.084-5.979,4.518,4.518,0,0,1,.6-.97m6.646,6.646V96.117l-.315-.315H37.434c-.069,0-.319.278-.525.21v5.038Z" transform="translate(-27.439 -73.959)" fill="#5d0b80"/>
          <path id="Trazado_1264629" data-name="Trazado 1264629" d="M37.01,238.844c1.163-.2,5.129-.2,6.08.326a2.317,2.317,0,0,1,1.12,1.609,36.656,36.656,0,0,1-.124,6.192c-.643,1.921-5.023,1.646-6.7,1.476a2.671,2.671,0,0,1-2.631-2.2,34.186,34.186,0,0,1,.049-5.628,2.949,2.949,0,0,1,2.21-1.778M42.1,241.1H36.855v5.038c.206-.068.455.21.525.21h4.408l.315-.315Z" transform="translate(-27.384 -188.613)" fill="#5d0b80"/>
          <path id="Trazado_1264630" data-name="Trazado 1264630" d="M36.57,165.761a31.968,31.968,0,0,1,5.606-.035,2.383,2.383,0,0,1,2.012,1.976,35.638,35.638,0,0,1,0,5.467,2.139,2.139,0,0,1-1.78,2,37.332,37.332,0,0,1-5.681,0,2.292,2.292,0,0,1-1.989-2.209,31.912,31.912,0,0,1,.013-5.234,2.458,2.458,0,0,1,1.819-1.959m5.514,7.3v-4.933l-.315-.315H37.152l-.315.315v4.618l.315.315Z" transform="translate(-27.367 -130.855)" fill="#5d0b80"/>
        </g>
      </g>
    </g>
  </g>
</svg>
