<svg xmlns="http://www.w3.org/2000/svg" xmlns:xlink="http://www.w3.org/1999/xlink" width="188" height="173" viewBox="0 0 188 173">
  <defs>
    <clipPath id="clip-path">
      <rect id="Rectángulo_456939" data-name="Rectángulo 456939" width="187.863" height="165.601" fill="none"/>
    </clipPath>
    <clipPath id="clip-path-3">
      <rect id="Rectángulo_456913" data-name="Rectángulo 456913" width="179.604" height="72.764" fill="none"/>
    </clipPath>
    <clipPath id="clip-path-5">
      <rect id="Rectángulo_456915" data-name="Rectángulo 456915" width="89.357" height="57.173" fill="none"/>
    </clipPath>
    <clipPath id="clip-path-8">
      <rect id="Rectángulo_456921" data-name="Rectángulo 456921" width="2.096" height="1.243" fill="none"/>
    </clipPath>
    <clipPath id="clip-path-9">
      <rect id="Rectángulo_456922" data-name="Rectángulo 456922" width="4.164" height="1.71" fill="none"/>
    </clipPath>
    <clipPath id="clip-path-10">
      <rect id="Rectángulo_456923" data-name="Rectángulo 456923" width="22.671" height="17.623" fill="none"/>
    </clipPath>
    <clipPath id="clip-path-11">
      <rect id="Rectángulo_456924" data-name="Rectángulo 456924" width="1.827" height="2.363" fill="none"/>
    </clipPath>
    <clipPath id="clip-path-12">
      <rect id="Rectángulo_456925" data-name="Rectángulo 456925" width="8.771" height="11.113" fill="none"/>
    </clipPath>
    <clipPath id="clip-path-13">
      <rect id="Rectángulo_456926" data-name="Rectángulo 456926" width="8.308" height="16.51" fill="none"/>
    </clipPath>
    <clipPath id="clip-path-14">
      <rect id="Rectángulo_456927" data-name="Rectángulo 456927" width="10.495" height="22.157" fill="none"/>
    </clipPath>
    <clipPath id="clip-path-15">
      <rect id="Rectángulo_456928" data-name="Rectángulo 456928" width="23.109" height="23.441" fill="none"/>
    </clipPath>
    <clipPath id="clip-path-16">
      <rect id="Rectángulo_456929" data-name="Rectángulo 456929" width="14.782" height="12.898" fill="none"/>
    </clipPath>
    <clipPath id="clip-path-17">
      <rect id="Rectángulo_456930" data-name="Rectángulo 456930" width="1.481" height="0.522" fill="none"/>
    </clipPath>
    <clipPath id="clip-path-18">
      <rect id="Rectángulo_456931" data-name="Rectángulo 456931" width="1.898" height="0.863" fill="none"/>
    </clipPath>
    <clipPath id="clip-path-19">
      <rect id="Rectángulo_456932" data-name="Rectángulo 456932" width="30.634" height="17.131" fill="none"/>
    </clipPath>
    <clipPath id="clip-path-20">
      <rect id="Rectángulo_456933" data-name="Rectángulo 456933" width="30.634" height="17.13" fill="none"/>
    </clipPath>
  </defs>
  <g id="Grupo_1205632" data-name="Grupo 1205632" transform="translate(-1017.711 -10829)">
    <rect id="Rectángulo_456940" data-name="Rectángulo 456940" width="187.863" height="173" transform="translate(1017.711 10829)" fill="#fff7d9"/>
    <g id="Grupo_1205838" data-name="Grupo 1205838" transform="translate(1017.848 10836.233)">
      <g id="Grupo_1205837" data-name="Grupo 1205837" clip-path="url(#clip-path)">
        <g id="Grupo_1205788" data-name="Grupo 1205788">
          <g id="Grupo_1205787" data-name="Grupo 1205787" clip-path="url(#clip-path)">
            <g id="Grupo_1205786" data-name="Grupo 1205786" transform="translate(4.13 91.929)" opacity="0.5" style="mix-blend-mode: multiply;isolation: isolate">
              <g id="Grupo_1205785" data-name="Grupo 1205785">
                <g id="Grupo_1205784" data-name="Grupo 1205784" clip-path="url(#clip-path-3)">
                  <path id="Trazado_1262724" data-name="Trazado 1262724" d="M153.222,337.221c1.605-4.073,5.571-12.867,1.942-25.591-6.3,7.107-6.7,17.372-6.055,26.639" transform="translate(-89.436 -282.079)" fill="#fff"/>
                  <path id="Trazado_1262725" data-name="Trazado 1262725" d="M153.222,337.221c1.605-4.073,5.571-12.867,1.942-25.591-6.3,7.107-6.7,17.372-6.055,26.639" transform="translate(-89.436 -282.079)" fill="none" stroke="#fdda14" stroke-linejoin="round" stroke-width="1"/>
                  <path id="Trazado_1262726" data-name="Trazado 1262726" d="M158.434,311.631s-1.359,16.2-3.84,26.422" transform="translate(-92.706 -282.08)" fill="none" stroke="#fdda14" stroke-linejoin="round" stroke-width="1"/>
                  <path id="Trazado_1262727" data-name="Trazado 1262727" d="M159.974,311.631a72.606,72.606,0,0,1-2.692,26.215" transform="translate(-94.246 -282.08)" fill="none" stroke="#fdda14" stroke-linejoin="round" stroke-width="1"/>
                  <path id="Trazado_1262728" data-name="Trazado 1262728" d="M152.865,337.922s1.848-20.31,4.579-26.291" transform="translate(-91.716 -282.08)" fill="none" stroke="#fdda14" stroke-linejoin="round" stroke-width="1"/>
                  <path id="Trazado_1262729" data-name="Trazado 1262729" d="M151.255,337.95s-.259-19.11,5.265-26.319" transform="translate(-90.792 -282.08)" fill="none" stroke="#fdda14" stroke-linejoin="round" stroke-width="1"/>
                  <path id="Trazado_1262730" data-name="Trazado 1262730" d="M160.931,352.081c2.4-2.9,8.066-9.1,7.031-19.285-7.632,4.609-10.081,12.393-11.3,19.552" transform="translate(-93.893 -294.994)" fill="#fff"/>
                  <path id="Trazado_1262731" data-name="Trazado 1262731" d="M160.931,352.081c2.4-2.9,8.066-9.1,7.031-19.285-7.632,4.609-10.081,12.393-11.3,19.552" transform="translate(-93.893 -294.994)" fill="none" stroke="#fdda14" stroke-linejoin="round" stroke-width="1"/>
                  <path id="Trazado_1262732" data-name="Trazado 1262732" d="M172.393,332.8s-2.61,12.166-7.995,19.262" transform="translate(-98.324 -294.994)" fill="none" stroke="#fdda14" stroke-linejoin="round" stroke-width="1"/>
                  <path id="Trazado_1262733" data-name="Trazado 1262733" d="M161.989,352.349s6.788-16.8,9.023-19.552" transform="translate(-96.943 -294.995)" fill="none" stroke="#fdda14" stroke-linejoin="round" stroke-width="1"/>
                  <path id="Trazado_1262734" data-name="Trazado 1262734" d="M159.014,352.349s4.054-15.127,10.294-19.552" transform="translate(-95.239 -294.995)" fill="none" stroke="#fdda14" stroke-linejoin="round" stroke-width="1"/>
                  <path id="Trazado_1262735" data-name="Trazado 1262735" d="M134.207,334.88c-2.05-4.206-7.036-13.269-3.764-26.744,7.492,7.2,8.581,17.946,8.433,27.683" transform="translate(-78.247 -279.947)" fill="#fff"/>
                  <path id="Trazado_1262736" data-name="Trazado 1262736" d="M134.207,334.88c-2.05-4.206-7.036-13.269-3.764-26.744,7.492,7.2,8.581,17.946,8.433,27.683" transform="translate(-78.247 -279.947)" fill="none" stroke="#fdda14" stroke-linejoin="round" stroke-width="1"/>
                  <path id="Trazado_1262737" data-name="Trazado 1262737" d="M131.9,308.136s2.527,16.923,5.941,27.542" transform="translate(-79.702 -279.947)" fill="none" stroke="#fdda14" stroke-linejoin="round" stroke-width="1"/>
                  <path id="Trazado_1262738" data-name="Trazado 1262738" d="M131.823,308.136s-.915,12.178,4.643,27.369" transform="translate(-79.627 -279.947)" fill="none" stroke="#fdda14" stroke-linejoin="round" stroke-width="1"/>
                  <path id="Trazado_1262739" data-name="Trazado 1262739" d="M138.656,335.511s-3.33-21.213-6.759-27.376" transform="translate(-79.702 -279.947)" fill="none" stroke="#fdda14" stroke-linejoin="round" stroke-width="1"/>
                  <path id="Trazado_1262740" data-name="Trazado 1262740" d="M139.428,335.514s-.9-20.037-7.53-27.379" transform="translate(-79.702 -279.947)" fill="none" stroke="#fdda14" stroke-linejoin="round" stroke-width="1"/>
                  <path id="Trazado_1262741" data-name="Trazado 1262741" d="M126.131,353.806c-2.509-3.359-8.361-10.5-8.656-22.988,7.43,5.052,10.573,14.36,12.53,23" transform="translate(-71.438 -293.788)" fill="#fff"/>
                  <path id="Trazado_1262742" data-name="Trazado 1262742" d="M126.131,353.806c-2.509-3.359-8.361-10.5-8.656-22.988,7.43,5.052,10.573,14.36,12.53,23" transform="translate(-71.438 -293.788)" fill="none" stroke="#fdda14" stroke-linejoin="round" stroke-width="1"/>
                  <path id="Trazado_1262743" data-name="Trazado 1262743" d="M117.475,330.818s3.816,14.637,9.521,22.888" transform="translate(-71.438 -293.788)" fill="none" stroke="#fdda14" stroke-linejoin="round" stroke-width="1"/>
                  <path id="Trazado_1262744" data-name="Trazado 1262744" d="M127.958,353.982s-8.138-19.976-10.482-23.165" transform="translate(-71.439 -293.787)" fill="none" stroke="#fdda14" stroke-linejoin="round" stroke-width="1"/>
                  <path id="Trazado_1262745" data-name="Trazado 1262745" d="M129.1,353.889s-5.474-18.14-11.627-23.071" transform="translate(-71.438 -293.788)" fill="none" stroke="#fdda14" stroke-linejoin="round" stroke-width="1"/>
                  <path id="Trazado_1262746" data-name="Trazado 1262746" d="M127.821,376.677v3.849a26.37,26.37,0,0,0,3.8,14.007h11.772a26.37,26.37,0,0,0,3.8-14.007v-3.849Z" transform="translate(-77.366 -321.77)" fill="#fdda14"/>
                  <path id="Trazado_1262747" data-name="Trazado 1262747" d="M354.6,283.677c-2.613-6.63-9.069-20.947-3.162-41.662,10.252,11.57,10.909,28.282,9.857,43.369" transform="translate(-204.106 -239.602)" fill="#fff"/>
                  <path id="Trazado_1262748" data-name="Trazado 1262748" d="M354.6,283.677c-2.613-6.63-9.069-20.947-3.162-41.662,10.252,11.57,10.909,28.282,9.857,43.369" transform="translate(-204.106 -239.602)" fill="none" stroke="#fdda14" stroke-linejoin="round" stroke-width="1"/>
                  <path id="Trazado_1262749" data-name="Trazado 1262749" d="M354.681,242.014s2.212,26.37,6.252,43.015" transform="translate(-207.348 -239.601)" fill="none" stroke="#fdda14" stroke-linejoin="round" stroke-width="1"/>
                  <path id="Trazado_1262750" data-name="Trazado 1262750" d="M354.138,242.014s-2.376,18.83,4.384,42.677" transform="translate(-206.805 -239.601)" fill="none" stroke="#fdda14" stroke-linejoin="round" stroke-width="1"/>
                  <path id="Trazado_1262751" data-name="Trazado 1262751" d="M362.135,284.816s-3.008-33.064-7.454-42.8" transform="translate(-207.348 -239.601)" fill="none" stroke="#fdda14" stroke-linejoin="round" stroke-width="1"/>
                  <path id="Trazado_1262752" data-name="Trazado 1262752" d="M363.252,284.863s.421-31.111-8.572-42.848" transform="translate(-207.348 -239.602)" fill="none" stroke="#fdda14" stroke-linejoin="round" stroke-width="1"/>
                  <path id="Trazado_1262753" data-name="Trazado 1262753" d="M334.057,307.868c-3.9-4.723-13.131-14.815-11.446-31.4,12.424,7.5,16.411,20.176,18.39,31.83" transform="translate(-188.857 -260.627)" fill="#fff"/>
                  <path id="Trazado_1262754" data-name="Trazado 1262754" d="M334.057,307.868c-3.9-4.723-13.131-14.815-11.446-31.4,12.424,7.5,16.411,20.176,18.39,31.83" transform="translate(-188.857 -260.627)" fill="none" stroke="#fdda14" stroke-linejoin="round" stroke-width="1"/>
                  <path id="Trazado_1262755" data-name="Trazado 1262755" d="M322.884,276.472s4.248,19.806,13.015,31.358" transform="translate(-189.13 -260.627)" fill="none" stroke="#fdda14" stroke-linejoin="round" stroke-width="1"/>
                  <path id="Trazado_1262756" data-name="Trazado 1262756" d="M337.573,308.3s-11.051-27.35-14.689-31.831" transform="translate(-189.13 -260.627)" fill="none" stroke="#fdda14" stroke-linejoin="round" stroke-width="1"/>
                  <path id="Trazado_1262757" data-name="Trazado 1262757" d="M339.641,308.3s-6.6-24.627-16.758-31.831" transform="translate(-189.129 -260.627)" fill="none" stroke="#fdda14" stroke-linejoin="round" stroke-width="1"/>
                  <path id="Trazado_1262758" data-name="Trazado 1262758" d="M381.7,279.864c3.338-6.847,11.454-21.6,6.128-43.54-12.2,11.728-13.97,29.217-13.729,45.069" transform="translate(-218.46 -236.129)" fill="#fff"/>
                  <path id="Trazado_1262759" data-name="Trazado 1262759" d="M381.7,279.864c3.338-6.847,11.454-21.6,6.128-43.54-12.2,11.728-13.97,29.217-13.729,45.069" transform="translate(-218.46 -236.129)" fill="none" stroke="#fdda14" stroke-linejoin="round" stroke-width="1"/>
                  <path id="Trazado_1262760" data-name="Trazado 1262760" d="M393.295,236.324s-4.115,27.55-9.672,44.838" transform="translate(-223.931 -236.129)" fill="none" stroke="#fdda14" stroke-linejoin="round" stroke-width="1"/>
                  <path id="Trazado_1262761" data-name="Trazado 1262761" d="M396.13,236.324s1.49,19.825-7.559,44.556" transform="translate(-226.766 -236.129)" fill="none" stroke="#fdda14" stroke-linejoin="round" stroke-width="1"/>
                  <path id="Trazado_1262762" data-name="Trazado 1262762" d="M380.5,280.892s5.422-34.535,11-44.568" transform="translate(-222.144 -236.129)" fill="none" stroke="#fdda14" stroke-linejoin="round" stroke-width="1"/>
                  <path id="Trazado_1262763" data-name="Trazado 1262763" d="M377.566,280.9s1.462-32.62,12.258-44.573" transform="translate(-220.461 -236.129)" fill="none" stroke="#fdda14" stroke-linejoin="round" stroke-width="1"/>
                  <path id="Trazado_1262764" data-name="Trazado 1262764" d="M388.289,310.675c4.084-5.468,13.613-17.087,14.092-37.424-12.1,8.226-17.213,23.379-20.4,37.439" transform="translate(-222.991 -258.661)" fill="#fff"/>
                  <path id="Trazado_1262765" data-name="Trazado 1262765" d="M388.289,310.675c4.084-5.468,13.613-17.087,14.092-37.424-12.1,8.226-17.213,23.379-20.4,37.439" transform="translate(-222.991 -258.661)" fill="none" stroke="#fdda14" stroke-linejoin="round" stroke-width="1"/>
                  <path id="Trazado_1262766" data-name="Trazado 1262766" d="M408.954,273.251s-6.213,23.829-15.5,37.261" transform="translate(-229.563 -258.661)" fill="none" stroke="#fdda14" stroke-linejoin="round" stroke-width="1"/>
                  <path id="Trazado_1262767" data-name="Trazado 1262767" d="M389.788,310.964s13.249-32.521,17.066-37.713" transform="translate(-227.463 -258.661)" fill="none" stroke="#fdda14" stroke-linejoin="round" stroke-width="1"/>
                  <path id="Trazado_1262768" data-name="Trazado 1262768" d="M385.424,310.811s8.911-29.532,18.929-37.56" transform="translate(-224.963 -258.661)" fill="none" stroke="#fdda14" stroke-linejoin="round" stroke-width="1"/>
                  <path id="Trazado_1262769" data-name="Trazado 1262769" d="M370.586,347.91v6.267c0,13.874-6.19,22.8-6.19,22.8H345.231s-6.189-8.929-6.189-22.8V347.91Z" transform="translate(-198.388 -304.217)" fill="#fdda14"/>
                  <path id="Trazado_1262770" data-name="Trazado 1262770" d="M68.366,283.677c2.613-6.63,9.069-20.947,3.162-41.662-10.252,11.57-10.909,28.282-9.857,43.369" transform="translate(-39.257 -239.602)" fill="#fff"/>
                  <path id="Trazado_1262771" data-name="Trazado 1262771" d="M68.366,283.677c2.613-6.63,9.069-20.947,3.162-41.662-10.252,11.57-10.909,28.282-9.857,43.369" transform="translate(-39.257 -239.602)" fill="none" stroke="#fdda14" stroke-linejoin="round" stroke-width="1"/>
                  <path id="Trazado_1262772" data-name="Trazado 1262772" d="M76.853,242.014s-2.212,26.37-6.252,43.015" transform="translate(-44.581 -239.601)" fill="none" stroke="#fdda14" stroke-linejoin="round" stroke-width="1"/>
                  <path id="Trazado_1262773" data-name="Trazado 1262773" d="M79.36,242.014s2.376,18.83-4.384,42.677" transform="translate(-47.088 -239.601)" fill="none" stroke="#fdda14" stroke-linejoin="round" stroke-width="1"/>
                  <path id="Trazado_1262774" data-name="Trazado 1262774" d="M67.786,284.816s3.008-33.064,7.454-42.8" transform="translate(-42.968 -239.601)" fill="none" stroke="#fdda14" stroke-linejoin="round" stroke-width="1"/>
                  <path id="Trazado_1262775" data-name="Trazado 1262775" d="M65.164,284.863s-.421-31.111,8.572-42.848" transform="translate(-41.464 -239.602)" fill="none" stroke="#fdda14" stroke-linejoin="round" stroke-width="1"/>
                  <path id="Trazado_1262776" data-name="Trazado 1262776" d="M80.917,307.868c3.9-4.723,13.131-14.815,11.446-31.4-12.424,7.5-16.411,20.176-18.39,31.83" transform="translate(-46.513 -260.627)" fill="#fff"/>
                  <path id="Trazado_1262777" data-name="Trazado 1262777" d="M80.917,307.868c3.9-4.723,13.131-14.815,11.446-31.4-12.424,7.5-16.411,20.176-18.39,31.83" transform="translate(-46.513 -260.627)" fill="none" stroke="#fdda14" stroke-linejoin="round" stroke-width="1"/>
                  <path id="Trazado_1262778" data-name="Trazado 1262778" d="M99.575,276.472S95.327,296.278,86.56,307.83" transform="translate(-53.725 -260.627)" fill="none" stroke="#fdda14" stroke-linejoin="round" stroke-width="1"/>
                  <path id="Trazado_1262779" data-name="Trazado 1262779" d="M82.64,308.3s11.051-27.35,14.689-31.831" transform="translate(-51.479 -260.627)" fill="none" stroke="#fdda14" stroke-linejoin="round" stroke-width="1"/>
                  <path id="Trazado_1262780" data-name="Trazado 1262780" d="M77.795,308.3s6.6-24.627,16.758-31.831" transform="translate(-48.703 -260.627)" fill="none" stroke="#fdda14" stroke-linejoin="round" stroke-width="1"/>
                  <path id="Trazado_1262781" data-name="Trazado 1262781" d="M37.41,279.864c-3.338-6.847-11.454-21.6-6.128-43.54,12.2,11.728,13.97,29.217,13.729,45.069" transform="translate(-21.042 -236.129)" fill="#fff"/>
                  <path id="Trazado_1262782" data-name="Trazado 1262782" d="M37.41,279.864c-3.338-6.847-11.454-21.6-6.128-43.54,12.2,11.728,13.97,29.217,13.729,45.069" transform="translate(-21.042 -236.129)" fill="none" stroke="#fdda14" stroke-linejoin="round" stroke-width="1"/>
                  <path id="Trazado_1262783" data-name="Trazado 1262783" d="M33.65,236.324s4.115,27.55,9.672,44.838" transform="translate(-23.41 -236.129)" fill="none" stroke="#fdda14" stroke-linejoin="round" stroke-width="1"/>
                  <path id="Trazado_1262784" data-name="Trazado 1262784" d="M33.527,236.324s-1.49,19.825,7.559,44.556" transform="translate(-23.287 -236.129)" fill="none" stroke="#fdda14" stroke-linejoin="round" stroke-width="1"/>
                  <path id="Trazado_1262785" data-name="Trazado 1262785" d="M44.654,280.892s-5.422-34.535-11-44.568" transform="translate(-23.41 -236.129)" fill="none" stroke="#fdda14" stroke-linejoin="round" stroke-width="1"/>
                  <path id="Trazado_1262786" data-name="Trazado 1262786" d="M45.908,280.9s-1.462-32.62-12.258-44.573" transform="translate(-23.41 -236.129)" fill="none" stroke="#fdda14" stroke-linejoin="round" stroke-width="1"/>
                  <path id="Trazado_1262787" data-name="Trazado 1262787" d="M24.263,310.675c-4.084-5.468-13.613-17.087-14.092-37.424,12.095,8.226,17.213,23.379,20.4,37.439" transform="translate(-9.957 -258.661)" fill="#fff"/>
                  <path id="Trazado_1262788" data-name="Trazado 1262788" d="M24.263,310.675c-4.084-5.468-13.613-17.087-14.092-37.424,12.095,8.226,17.213,23.379,20.4,37.439" transform="translate(-9.957 -258.661)" fill="none" stroke="#fdda14" stroke-linejoin="round" stroke-width="1"/>
                  <path id="Trazado_1262789" data-name="Trazado 1262789" d="M10.17,273.251s6.213,23.829,15.5,37.261" transform="translate(-9.957 -258.661)" fill="none" stroke="#fdda14" stroke-linejoin="round" stroke-width="1"/>
                  <path id="Trazado_1262790" data-name="Trazado 1262790" d="M27.237,310.964s-13.249-32.521-17.066-37.713" transform="translate(-9.957 -258.661)" fill="none" stroke="#fdda14" stroke-linejoin="round" stroke-width="1"/>
                  <path id="Trazado_1262791" data-name="Trazado 1262791" d="M29.1,310.811s-8.911-29.532-18.929-37.56" transform="translate(-9.957 -258.661)" fill="none" stroke="#fdda14" stroke-linejoin="round" stroke-width="1"/>
                  <path id="Trazado_1262792" data-name="Trazado 1262792" d="M27.014,347.91v6.267c0,13.874,6.189,22.8,6.189,22.8H52.368s6.189-8.929,6.189-22.8V347.91Z" transform="translate(-19.608 -304.217)" fill="#fdda14"/>
                  <path id="Trazado_1262793" data-name="Trazado 1262793" d="M248.2,351.155c1.141-3.515,4.09-11.174-.739-20.984-5.493,7.147-4.725,14.975-3.147,22.391" transform="translate(-143.451 -293.393)" fill="#fff"/>
                  <path id="Trazado_1262794" data-name="Trazado 1262794" d="M248.2,351.155c1.141-3.515,4.09-11.174-.739-20.984-5.493,7.147-4.725,14.975-3.147,22.391" transform="translate(-143.451 -293.393)" fill="none" stroke="#fdda14" stroke-linejoin="round" stroke-width="1"/>
                  <path id="Trazado_1262795" data-name="Trazado 1262795" d="M252.346,330.17a60.119,60.119,0,0,1-.664,21.7" transform="translate(-148.334 -293.392)" fill="none" stroke="#fdda14" stroke-linejoin="round" stroke-width="1"/>
                  <path id="Trazado_1262796" data-name="Trazado 1262796" d="M250.524,351.967s-1.027-16.583,1.011-21.8" transform="translate(-147.522 -293.392)" fill="none" stroke="#fdda14" stroke-linejoin="round" stroke-width="1"/>
                  <path id="Trazado_1262797" data-name="Trazado 1262797" d="M248.072,352.083s-2.95-15.326,1.675-21.913" transform="translate(-145.735 -293.392)" fill="none" stroke="#fdda14" stroke-linejoin="round" stroke-width="1"/>
                  <path id="Trazado_1262798" data-name="Trazado 1262798" d="M259.355,367.7c2.292-1.87,7.614-5.755,8.289-14.236-6.622,2.2-9.664,8.021-11.654,13.588" transform="translate(-150.802 -307.604)" fill="#fff"/>
                  <path id="Trazado_1262799" data-name="Trazado 1262799" d="M259.355,367.7c2.292-1.87,7.614-5.755,8.289-14.236-6.622,2.2-9.664,8.021-11.654,13.588" transform="translate(-150.802 -307.604)" fill="none" stroke="#fdda14" stroke-linejoin="round" stroke-width="1"/>
                  <path id="Trazado_1262800" data-name="Trazado 1262800" d="M270.741,353.46a41.313,41.313,0,0,1-9.345,14.368" transform="translate(-153.9 -307.603)" fill="none" stroke="#fdda14" stroke-linejoin="round" stroke-width="1"/>
                  <path id="Trazado_1262801" data-name="Trazado 1262801" d="M258.8,367.3s7.743-10.238,10.454-13.837" transform="translate(-152.412 -307.603)" fill="none" stroke="#fdda14" stroke-linejoin="round" stroke-width="1"/>
                  <path id="Trazado_1262802" data-name="Trazado 1262802" d="M257.576,367.1s5.355-10.289,10.977-13.643" transform="translate(-151.711 -307.604)" fill="none" stroke="#fdda14" stroke-linejoin="round" stroke-width="1"/>
                  <path id="Trazado_1262803" data-name="Trazado 1262803" d="M253.953,357.068c1.818-2.442,7.124-9.791,5.5-17.593-6.126,4.191-8.59,12.5-9.1,18.147" transform="translate(-147.576 -299.07)" fill="#fff"/>
                  <path id="Trazado_1262804" data-name="Trazado 1262804" d="M253.953,357.068c1.818-2.442,7.124-9.791,5.5-17.593-6.126,4.191-8.59,12.5-9.1,18.147" transform="translate(-147.576 -299.07)" fill="none" stroke="#fdda14" stroke-linejoin="round" stroke-width="1"/>
                  <path id="Trazado_1262805" data-name="Trazado 1262805" d="M263.178,339.474s-2.279,11.72-6.32,17.653" transform="translate(-151.3 -299.069)" fill="none" stroke="#fdda14" stroke-linejoin="round" stroke-width="1"/>
                  <path id="Trazado_1262806" data-name="Trazado 1262806" d="M254.868,357.437s5.479-15.648,7.17-17.962" transform="translate(-150.159 -299.07)" fill="none" stroke="#fdda14" stroke-linejoin="round" stroke-width="1"/>
                  <path id="Trazado_1262807" data-name="Trazado 1262807" d="M252.348,357.54s3.285-14.13,8.246-18.065" transform="translate(-148.716 -299.07)" fill="none" stroke="#fdda14" stroke-linejoin="round" stroke-width="1"/>
                  <path id="Trazado_1262808" data-name="Trazado 1262808" d="M233.384,352.728c-1.555-3.163-5.344-9.978-2.763-20.139,5.724,5.408,6.508,13.5,6.347,20.834" transform="translate(-135.765 -294.868)" fill="#fff"/>
                  <path id="Trazado_1262809" data-name="Trazado 1262809" d="M233.384,352.728c-1.555-3.163-5.344-9.978-2.763-20.139,5.724,5.408,6.508,13.5,6.347,20.834" transform="translate(-135.765 -294.868)" fill="none" stroke="#fdda14" stroke-linejoin="round" stroke-width="1"/>
                  <path id="Trazado_1262810" data-name="Trazado 1262810" d="M231.8,332.588s2.7,11.758,4.726,20.5" transform="translate(-136.941 -294.868)" fill="none" stroke="#fdda14" stroke-linejoin="round" stroke-width="1"/>
                  <path id="Trazado_1262811" data-name="Trazado 1262811" d="M231.756,332.588a55.191,55.191,0,0,0,3.583,20.607" transform="translate(-136.899 -294.868)" fill="none" stroke="#fdda14" stroke-linejoin="round" stroke-width="1"/>
                  <path id="Trazado_1262812" data-name="Trazado 1262812" d="M237.452,353.2s-1.169-13.784-5.654-20.607" transform="translate(-136.941 -294.868)" fill="none" stroke="#fdda14" stroke-linejoin="round" stroke-width="1"/>
                  <path id="Trazado_1262813" data-name="Trazado 1262813" d="M227.653,370.14c-2.016-2.11-7.2-7.376-7.612-14.44,5.972,3.174,8.5,9.02,10.073,14.445" transform="translate(-130.205 -308.97)" fill="#fff"/>
                  <path id="Trazado_1262814" data-name="Trazado 1262814" d="M227.653,370.14c-2.016-2.11-7.2-7.376-7.612-14.44,5.972,3.174,8.5,9.02,10.073,14.445" transform="translate(-130.205 -308.97)" fill="none" stroke="#fdda14" stroke-linejoin="round" stroke-width="1"/>
                  <path id="Trazado_1262815" data-name="Trazado 1262815" d="M220.042,355.7s3.708,8.945,8.294,14.128" transform="translate(-130.205 -308.97)" fill="none" stroke="#fdda14" stroke-linejoin="round" stroke-width="1"/>
                  <path id="Trazado_1262816" data-name="Trazado 1262816" d="M229.448,369.827s-5.579-10.727-9.406-14.128" transform="translate(-130.205 -308.969)" fill="none" stroke="#fdda14" stroke-linejoin="round" stroke-width="1"/>
                  <path id="Trazado_1262817" data-name="Trazado 1262817" d="M227.29,382.75v3.339a20.4,20.4,0,0,0,3.933,12.15H243.4a20.4,20.4,0,0,0,3.933-12.15V382.75Z" transform="translate(-134.358 -325.475)" fill="#fdda14"/>
                </g>
              </g>
            </g>
          </g>
        </g>
        <g id="Grupo_1205793" data-name="Grupo 1205793">
          <g id="Grupo_1205792" data-name="Grupo 1205792" clip-path="url(#clip-path)">
            <path id="Trazado_1262818" data-name="Trazado 1262818" d="M267.647,68.5H195.372c-4.717,0-8.541-3.49-8.541-7.8V19.121c0-4.306,3.824-7.8,8.541-7.8h72.276c4.717,0,8.541,3.49,8.541,7.8V60.7c0,4.306-3.824,7.8-8.541,7.8" transform="translate(-107.047 -6.91)" fill="#fff"/>
            <g id="Grupo_1205791" data-name="Grupo 1205791" transform="translate(79.784 4.414)" opacity="0.2">
              <g id="Grupo_1205790" data-name="Grupo 1205790">
                <g id="Grupo_1205789" data-name="Grupo 1205789" clip-path="url(#clip-path-5)">
                  <path id="Trazado_1262819" data-name="Trazado 1262819" d="M268.5,68.5H194.518c-4.245,0-7.687-3.142-7.687-7.017V18.342c0-3.875,3.441-7.017,7.687-7.017H268.5c4.245,0,7.687,3.142,7.687,7.017V61.481c0,3.875-3.441,7.017-7.687,7.017" transform="translate(-186.831 -11.325)" fill="#e3deff"/>
                </g>
              </g>
            </g>
            <path id="Trazado_1262820" data-name="Trazado 1262820" d="M216.875,39.234a1.746,1.746,0,1,0-1.737,1.571,1.66,1.66,0,0,0,1.737-1.571" transform="translate(-122.27 -22.981)" fill="#fc74af"/>
            <path id="Trazado_1262821" data-name="Trazado 1262821" d="M231.114,39.234a1.746,1.746,0,1,0-1.737,1.571,1.66,1.66,0,0,0,1.737-1.571" transform="translate(-130.429 -22.981)" fill="#fdda14"/>
            <path id="Trazado_1262822" data-name="Trazado 1262822" d="M245.353,39.234a1.746,1.746,0,1,0-1.737,1.571,1.66,1.66,0,0,0,1.737-1.571" transform="translate(-138.587 -22.981)" fill="#7974f5"/>
            <path id="Trazado_1262823" data-name="Trazado 1262823" d="M334.889,68.12h-15.1l-1.131-7.436h16.235l3.518,3.718Z" transform="translate(-182.577 -37.028)" fill="#7974f5"/>
            <path id="Trazado_1262824" data-name="Trazado 1262824" d="M350.478,66.348a1.207,1.207,0,0,1-.749-.255.982.982,0,0,1-.115-1.473l4.858-5.113-4.859-5.137a.982.982,0,0,1,.118-1.473,1.222,1.222,0,0,1,1.614.108l5.506,5.821a.976.976,0,0,1,0,1.367l-5.507,5.8a1.191,1.191,0,0,1-.865.36" transform="translate(-200.155 -32.122)" fill="#7974f5"/>
            <path id="Trazado_1262825" data-name="Trazado 1262825" d="M301.287,76.193h-15.1l-1.215-7.436h16.319l3.518,3.718Z" transform="translate(-163.276 -41.954)" fill="#fdda14"/>
            <path id="Trazado_1262826" data-name="Trazado 1262826" d="M316.989,74.389a1.207,1.207,0,0,1-.749-.255.982.982,0,0,1-.115-1.473l4.858-5.113-4.859-5.137a.982.982,0,0,1,.118-1.473,1.222,1.222,0,0,1,1.614.108l5.506,5.821a.976.976,0,0,1,0,1.367l-5.507,5.8a1.191,1.191,0,0,1-.865.36" transform="translate(-180.967 -37.028)" fill="#fdda14"/>
            <path id="Trazado_1262827" data-name="Trazado 1262827" d="M268,84.266H252.9L251.84,76.83H268l3.518,3.718Z" transform="translate(-144.295 -46.88)" fill="#7be6ff"/>
            <path id="Trazado_1262828" data-name="Trazado 1262828" d="M283.5,82.462a1.207,1.207,0,0,1-.749-.255.982.982,0,0,1-.115-1.473l4.858-5.113-4.859-5.137a.982.982,0,0,1,.118-1.473,1.221,1.221,0,0,1,1.614.108l5.506,5.821a.976.976,0,0,1,0,1.367l-5.507,5.8a1.191,1.191,0,0,1-.865.36" transform="translate(-161.78 -41.954)" fill="#7be6ff"/>
            <path id="Trazado_1262829" data-name="Trazado 1262829" d="M235.94,92.307H222.646a1.735,1.735,0,0,1-1.809-1.651V86.522a1.735,1.735,0,0,1,1.809-1.651H235.94l3.518,3.718Z" transform="translate(-126.531 -51.787)" fill="#fc74af"/>
            <path id="Trazado_1262830" data-name="Trazado 1262830" d="M250.012,90.535a1.207,1.207,0,0,1-.749-.255.982.982,0,0,1-.115-1.473l4.858-5.113-4.859-5.137a.983.983,0,0,1,.118-1.473,1.221,1.221,0,0,1,1.614.108l5.506,5.821a.976.976,0,0,1,0,1.367l-5.507,5.8a1.191,1.191,0,0,1-.865.36" transform="translate(-142.592 -46.88)" fill="#fc74af"/>
          </g>
        </g>
        <text id="STEP_01" data-name="STEP 01" transform="translate(98.426 35.817)" fill="#fff" font-size="1" font-family="OpenSans-Extrabold, Open Sans" font-weight="800"><tspan x="0" y="0">STEP 01</tspan></text>
        <text id="STEP_02" data-name="STEP 02" transform="translate(114.559 32.681)" fill="#fff" font-size="1" font-family="OpenSans-Extrabold, Open Sans" font-weight="800"><tspan x="0" y="0">STEP 02</tspan></text>
        <text id="STEP_03" data-name="STEP 03" transform="translate(128.91 29.533)" fill="#fff" font-size="1" font-family="OpenSans-Extrabold, Open Sans" font-weight="800"><tspan x="0" y="0">STEP 03</tspan></text>
        <text id="STEP_04" data-name="STEP 04" transform="translate(143.209 26.398)" fill="#fff" font-size="1" font-family="OpenSans-Extrabold, Open Sans" font-weight="800"><tspan x="0" y="0">STEP 04</tspan></text>
        <g id="Grupo_1205795" data-name="Grupo 1205795">
          <g id="Grupo_1205794" data-name="Grupo 1205794" clip-path="url(#clip-path)">
            <path id="Trazado_1262831" data-name="Trazado 1262831" d="M216.962,135.383v-.129l.18-.16c.433-.377.629-.577.632-.81,0-.157-.084-.3-.337-.3a.605.605,0,0,0-.36.131l-.073-.148a.789.789,0,0,1,.48-.158.459.459,0,0,1,.52.451c0,.286-.228.517-.585.832l-.136.114v.005h.763v.174Z" transform="translate(-124.311 -81.647)" fill="#7974f5"/>
            <path id="Trazado_1262832" data-name="Trazado 1262832" d="M221.2,134.591c0,.527-.214.818-.59.818-.332,0-.556-.284-.561-.8s.245-.806.59-.806.561.291.561.784m-.922.024c0,.4.136.632.345.632.235,0,.347-.25.347-.646s-.107-.632-.345-.632c-.2,0-.348.224-.348.646" transform="translate(-126.079 -81.647)" fill="#7974f5"/>
            <path id="Trazado_1262833" data-name="Trazado 1262833" d="M223.944,134.069h-.005l-.3.145-.044-.159.371-.182h.2v1.55h-.222Z" transform="translate(-128.114 -81.687)" fill="#7974f5"/>
            <path id="Trazado_1262834" data-name="Trazado 1262834" d="M227.308,133.985a.893.893,0,0,0-.172.01.658.658,0,0,0-.59.551h.007a.524.524,0,0,1,.41-.179.481.481,0,0,1,.512.5.541.541,0,0,1-.564.546.593.593,0,0,1-.6-.66.928.928,0,0,1,.287-.7.963.963,0,0,1,.543-.229,1.173,1.173,0,0,1,.167-.012Zm-.065.894a.328.328,0,0,0-.35-.356.384.384,0,0,0-.329.191.165.165,0,0,0-.026.093c.005.255.133.444.374.444a.335.335,0,0,0,.331-.372" transform="translate(-129.667 -81.65)" fill="#7974f5"/>
            <path id="Trazado_1262835" data-name="Trazado 1262835" d="M197.905,113.114h-.648l-.065.4a1,1,0,0,1,.138-.009.773.773,0,0,1,.366.083.436.436,0,0,1,.243.4.569.569,0,0,1-.632.529.9.9,0,0,1-.423-.1l.058-.16a.815.815,0,0,0,.363.086.363.363,0,0,0,.4-.336c0-.2-.149-.343-.489-.343a1.959,1.959,0,0,0-.235.016l.109-.744h.813Z" transform="translate(-112.807 -68.912)" fill="#7974f5"/>
            <path id="Trazado_1262836" data-name="Trazado 1262836" d="M201.137,113.654c0,.527-.214.818-.59.818-.331,0-.556-.284-.561-.8s.246-.806.59-.806.561.291.561.784m-.921.024c0,.4.135.632.344.632.235,0,.348-.25.348-.646s-.107-.632-.345-.632c-.2,0-.347.224-.347.646" transform="translate(-114.584 -68.871)" fill="#7974f5"/>
            <path id="Trazado_1262837" data-name="Trazado 1262837" d="M196.039,87.653h-.005l-.3.145-.044-.159.371-.182h.2v1.55h-.222Z" transform="translate(-112.125 -53.365)" fill="#7974f5"/>
            <path id="Trazado_1262838" data-name="Trazado 1262838" d="M199.568,88.174c0,.527-.214.818-.59.818-.331,0-.556-.284-.561-.8s.246-.806.59-.806.561.291.561.784m-.921.024c0,.4.135.632.344.632.235,0,.348-.25.348-.646s-.107-.632-.345-.632c-.2,0-.347.224-.347.646" transform="translate(-113.685 -53.324)" fill="#7974f5"/>
            <path id="Trazado_1262839" data-name="Trazado 1262839" d="M202.706,88.174c0,.527-.214.818-.59.818-.331,0-.556-.284-.562-.8s.246-.806.591-.806.561.291.561.784m-.922.024c0,.4.136.632.345.632.235,0,.347-.25.347-.646s-.107-.632-.345-.632c-.2,0-.347.224-.347.646" transform="translate(-115.483 -53.324)" fill="#7974f5"/>
            <path id="Trazado_1262840" data-name="Trazado 1262840" d="M196.039,62.172h-.005l-.3.145-.044-.159.371-.182h.2v1.55h-.222Z" transform="translate(-112.125 -37.817)" fill="#7974f5"/>
            <path id="Trazado_1262841" data-name="Trazado 1262841" d="M199.474,62.154h-.648l-.065.4a1.006,1.006,0,0,1,.138-.009.773.773,0,0,1,.366.083.437.437,0,0,1,.243.4.569.569,0,0,1-.632.529.9.9,0,0,1-.424-.1l.058-.16a.815.815,0,0,0,.363.086.363.363,0,0,0,.4-.336c0-.2-.149-.343-.489-.343a1.958,1.958,0,0,0-.235.016l.109-.744h.813Z" transform="translate(-113.706 -37.817)" fill="#7974f5"/>
            <path id="Trazado_1262842" data-name="Trazado 1262842" d="M202.706,62.694c0,.527-.214.818-.59.818-.331,0-.556-.284-.562-.8s.246-.806.591-.806.561.291.561.784m-.922.024c0,.4.136.632.345.632.235,0,.347-.25.347-.646s-.107-.632-.345-.632c-.2,0-.347.224-.347.646" transform="translate(-115.483 -37.776)" fill="#7974f5"/>
            <path id="Trazado_1262843" data-name="Trazado 1262843" d="M195.333,38.005v-.129l.18-.16c.433-.377.629-.577.632-.81,0-.157-.084-.3-.337-.3a.6.6,0,0,0-.36.131l-.073-.148a.789.789,0,0,1,.48-.157.458.458,0,0,1,.52.451c0,.286-.227.517-.585.832l-.136.114v.005h.763v.174Z" transform="translate(-111.918 -22.228)" fill="#7974f5"/>
            <path id="Trazado_1262844" data-name="Trazado 1262844" d="M199.568,37.214c0,.527-.214.818-.59.818-.331,0-.556-.284-.561-.8s.246-.806.59-.806.561.291.561.784m-.921.024c0,.4.135.632.344.632.235,0,.348-.25.348-.646s-.107-.632-.345-.632c-.2,0-.347.224-.347.646" transform="translate(-113.685 -22.229)" fill="#7974f5"/>
            <path id="Trazado_1262845" data-name="Trazado 1262845" d="M202.706,37.214c0,.527-.214.818-.59.818-.331,0-.556-.284-.562-.8s.246-.806.591-.806.561.291.561.784m-.922.024c0,.4.136.632.345.632.235,0,.347-.25.347-.646s-.107-.632-.345-.632c-.2,0-.347.224-.347.646" transform="translate(-115.483 -22.229)" fill="#7974f5"/>
            <path id="Trazado_1262846" data-name="Trazado 1262846" d="M247.407,135.383v-.129l.18-.16c.433-.377.629-.577.632-.81,0-.157-.084-.3-.337-.3a.605.605,0,0,0-.36.131l-.073-.148a.789.789,0,0,1,.48-.158.459.459,0,0,1,.52.451c0,.286-.228.517-.585.832l-.136.114v.005h.763v.174Z" transform="translate(-141.755 -81.647)" fill="#7974f5"/>
            <path id="Trazado_1262847" data-name="Trazado 1262847" d="M251.643,134.591c0,.527-.214.818-.591.818-.331,0-.556-.284-.561-.8s.245-.806.59-.806.562.291.562.784m-.922.024c0,.4.135.632.345.632.234,0,.347-.25.347-.646s-.107-.632-.345-.632c-.2,0-.347.224-.347.646" transform="translate(-143.522 -81.647)" fill="#7974f5"/>
            <path id="Trazado_1262848" data-name="Trazado 1262848" d="M254.389,134.069h-.005l-.3.145-.044-.159.371-.182h.2v1.55h-.222Z" transform="translate(-145.558 -81.687)" fill="#7974f5"/>
            <path id="Trazado_1262849" data-name="Trazado 1262849" d="M257.967,133.874v.138l-.739,1.412h-.238l.737-1.371v0h-.83v-.174Z" transform="translate(-147.192 -81.687)" fill="#7974f5"/>
            <path id="Trazado_1262850" data-name="Trazado 1262850" d="M277.667,135.383v-.129l.18-.16c.433-.377.629-.577.632-.81,0-.157-.084-.3-.337-.3a.605.605,0,0,0-.36.131l-.073-.148a.789.789,0,0,1,.48-.158.459.459,0,0,1,.52.451c0,.286-.228.517-.585.832l-.136.114v.005h.763v.174Z" transform="translate(-159.093 -81.647)" fill="#7974f5"/>
            <path id="Trazado_1262851" data-name="Trazado 1262851" d="M281.9,134.591c0,.527-.214.818-.59.818-.332,0-.556-.284-.561-.8s.245-.806.59-.806.561.291.561.784m-.922.024c0,.4.136.632.345.632.235,0,.347-.25.347-.646s-.107-.632-.345-.632c-.2,0-.348.224-.348.646" transform="translate(-160.86 -81.647)" fill="#7974f5"/>
            <path id="Trazado_1262852" data-name="Trazado 1262852" d="M284.649,134.069h-.005l-.3.145-.044-.159.371-.182h.2v1.55h-.223Z" transform="translate(-162.896 -81.687)" fill="#7974f5"/>
            <path id="Trazado_1262853" data-name="Trazado 1262853" d="M287.033,134.99a.449.449,0,0,1,.337-.415l0-.007a.387.387,0,0,1-.269-.349c0-.246.227-.412.525-.412.329,0,.494.188.494.381a.4.4,0,0,1-.279.363v.007a.437.437,0,0,1,.342.4c0,.27-.254.451-.578.451-.355,0-.569-.193-.569-.42m.914-.01c0-.188-.143-.279-.374-.338-.2.053-.306.172-.306.32a.3.3,0,0,0,.34.3c.206,0,.34-.117.34-.277m-.632-.775c0,.155.128.239.324.286a.315.315,0,0,0,.259-.281.253.253,0,0,0-.287-.253.26.26,0,0,0-.3.248" transform="translate(-164.459 -81.647)" fill="#7974f5"/>
            <path id="Trazado_1262854" data-name="Trazado 1262854" d="M307.927,135.383v-.129l.18-.16c.433-.377.629-.577.632-.81,0-.157-.084-.3-.337-.3a.6.6,0,0,0-.36.131l-.073-.148a.789.789,0,0,1,.48-.158.458.458,0,0,1,.52.451c0,.286-.227.517-.585.832l-.136.114v.005h.763v.174Z" transform="translate(-176.431 -81.647)" fill="#7974f5"/>
            <path id="Trazado_1262855" data-name="Trazado 1262855" d="M312.162,134.591c0,.527-.214.818-.59.818-.331,0-.556-.284-.562-.8s.246-.806.591-.806.561.291.561.784m-.922.024c0,.4.136.632.345.632.235,0,.347-.25.347-.646s-.107-.632-.345-.632c-.2,0-.347.224-.347.646" transform="translate(-178.197 -81.647)" fill="#7974f5"/>
            <path id="Trazado_1262856" data-name="Trazado 1262856" d="M314.909,134.069H314.9l-.295.145-.045-.159.371-.182h.2v1.55h-.222Z" transform="translate(-180.233 -81.687)" fill="#7974f5"/>
            <path id="Trazado_1262857" data-name="Trazado 1262857" d="M317.461,135.235a1.037,1.037,0,0,0,.185-.007.669.669,0,0,0,.355-.15.661.661,0,0,0,.225-.412h-.008a.519.519,0,0,1-.4.167.47.47,0,0,1-.5-.474.556.556,0,0,1,.579-.551c.348,0,.562.258.562.653a.934.934,0,0,1-.293.727.888.888,0,0,1-.494.207,1.163,1.163,0,0,1-.212.012Zm.084-.892a.311.311,0,0,0,.326.329.389.389,0,0,0,.334-.162.128.128,0,0,0,.021-.076c0-.265-.107-.468-.347-.468a.344.344,0,0,0-.334.377" transform="translate(-181.811 -81.647)" fill="#7974f5"/>
            <path id="Trazado_1262858" data-name="Trazado 1262858" d="M208.2,31.4V72.894h.176V31.4l-.176.007" transform="translate(-119.29 -19.158)" fill="#7974f5"/>
            <rect id="Rectángulo_456917" data-name="Rectángulo 456917" width="81.472" height="0.16" transform="translate(84.038 49.458)" fill="#7974f5"/>
            <path id="Trazado_1262859" data-name="Trazado 1262859" d="M293.53,106.455q-7.113,1.018-14.248,1.94c-15.763,2.036-31.55,3.929-47.327,5.888-.431.051-.859.106-1.29.16h-1.947a.149.149,0,0,1,.119-.077c.214-.029.432-.055.646-.083,4.539-.583,9.074-1.194,13.613-1.787,16.783-2.19,33.57-4.406,50.4-6.256a.109.109,0,1,1,.032.214" transform="translate(-131.047 -64.826)" fill="#7974f5"/>
            <path id="Trazado_1262860" data-name="Trazado 1262860" d="M43.842,141.222V76.528a5.736,5.736,0,0,1,5.979-5.457h60.026a5.736,5.736,0,0,1,5.979,5.457v64.694a5.736,5.736,0,0,1-5.979,5.457H49.821a5.736,5.736,0,0,1-5.979-5.457" transform="translate(-25.12 -43.366)" fill="#fff"/>
            <path id="Trazado_1262861" data-name="Trazado 1262861" d="M106.412,106.218H64.983V99.772h41.429a3.237,3.237,0,1,1,0,6.446" transform="translate(-37.233 -60.879)" fill="#fc74af"/>
            <path id="Trazado_1262862" data-name="Trazado 1262862" d="M122.529,135.832H64.983v-6.446h57.546a3.237,3.237,0,1,1,0,6.446" transform="translate(-37.233 -78.949)" fill="#fdda14"/>
            <path id="Trazado_1262863" data-name="Trazado 1262863" d="M88.428,165.447H64.983V159H88.428a3.237,3.237,0,1,1,0,6.446" transform="translate(-37.233 -97.019)" fill="#2d4773"/>
            <path id="Trazado_1262864" data-name="Trazado 1262864" d="M98.984,195.061h-34v-6.446h34a3.237,3.237,0,1,1,0,6.446" transform="translate(-37.233 -115.089)" fill="#7be6ff"/>
            <path id="Trazado_1262865" data-name="Trazado 1262865" d="M160.491,103.758a3.009,3.009,0,1,1-3-2.735,2.875,2.875,0,0,1,3,2.735" transform="translate(-88.522 -61.642)" fill="#fff"/>
            <path id="Trazado_1262866" data-name="Trazado 1262866" d="M198.233,133.373a3.009,3.009,0,1,1-3-2.735,2.875,2.875,0,0,1,3,2.735" transform="translate(-110.146 -79.713)" fill="#fff"/>
            <path id="Trazado_1262867" data-name="Trazado 1262867" d="M198.233,133.373a3.009,3.009,0,1,1-3-2.735,2.875,2.875,0,0,1,3,2.735" transform="translate(-110.146 -79.713)" fill="#fff"/>
            <path id="Trazado_1262868" data-name="Trazado 1262868" d="M118.377,162.987a3.009,3.009,0,1,1-3-2.735,2.875,2.875,0,0,1,3,2.735" transform="translate(-64.392 -97.783)" fill="#fff"/>
            <path id="Trazado_1262869" data-name="Trazado 1262869" d="M143.1,192.6a3.009,3.009,0,1,1-3-2.735,2.875,2.875,0,0,1,3,2.735" transform="translate(-78.555 -115.853)" fill="#fff"/>
          </g>
        </g>
        <text id="INFOGRAPHIC" transform="translate(30.87 42.026)" fill="#fff" font-size="1" font-family="OpenSans, Open Sans"><tspan x="0" y="0">INFOG</tspan><tspan y="0" letter-spacing="0.005em">R</tspan><tspan y="0">APHIC</tspan></text>
        <text id="INFOGRAPHIC-2" data-name="INFOGRAPHIC" transform="translate(30.87 53.57)" fill="#fff" font-size="1" font-family="OpenSans, Open Sans"><tspan x="0" y="0">INFOG</tspan><tspan y="0" letter-spacing="0.005em">R</tspan><tspan y="0">APHIC</tspan></text>
        <text id="INFOGRAPHIC-3" data-name="INFOGRAPHIC" transform="translate(30.87 65.114)" fill="#fff" font-size="1" font-family="OpenSans, Open Sans"><tspan x="0" y="0">INFOG</tspan><tspan y="0" letter-spacing="0.005em">R</tspan><tspan y="0">APHIC</tspan></text>
        <text id="INFOGRAPHIC-4" data-name="INFOGRAPHIC" transform="translate(30.87 76.658)" fill="#fff" font-size="1" font-family="OpenSans, Open Sans"><tspan x="0" y="0">INFOG</tspan><tspan y="0" letter-spacing="0.005em">R</tspan><tspan y="0">APHIC</tspan></text>
        <g id="Grupo_1205836" data-name="Grupo 1205836">
          <g id="Grupo_1205835" data-name="Grupo 1205835" clip-path="url(#clip-path)">
            <line id="Línea_3547" data-name="Línea 3547" x1="65.577" transform="translate(23.25 36.221)" fill="none" stroke="#2d4773" stroke-linejoin="round" stroke-width="1"/>
            <line id="Línea_3548" data-name="Línea 3548" y2="52.775" transform="translate(27.75 31.792)" fill="none" stroke="#2d4773" stroke-linejoin="round" stroke-width="1"/>
            <rect id="Rectángulo_456919" data-name="Rectángulo 456919" width="32.607" height="4.282" transform="translate(35.363 86.596)" fill="#e3deff"/>
            <rect id="Rectángulo_456920" data-name="Rectángulo 456920" width="32.607" height="4.282" transform="translate(35.363 93.02)" fill="#e3deff"/>
            <path id="Trazado_1262870" data-name="Trazado 1262870" d="M54.527,76.086a6.946,6.946,0,0,0-6.128,2.6c-1.794,2.635-.6,6.132-1.578,9.1-.448,1.352-1.339,2.56-1.734,3.925a25.324,25.324,0,0,0-.413,4.394c-.332,3.106-2.037,5.928-3.113,8.89a2.347,2.347,0,0,0-.181,1.473,2.09,2.09,0,0,0,1.908,1.207,10.247,10.247,0,0,0,2.442-.3,12.744,12.744,0,0,1,5.77.354c1.727.52,3.4,1.423,5.218,1.311,2.474-.153,4.437-2.153,6.9-2.385.966-.091,1.939.1,2.91.085a3.046,3.046,0,0,0,2.533-1.067c.6-.915.142-2.092-.447-3.011a5.489,5.489,0,0,1-1.294-2.914,9.9,9.9,0,0,1,.663-2.2c.477-1.708-.265-3.481-.994-5.114L61.921,81.081A6.279,6.279,0,0,0,59.861,78a10.986,10.986,0,0,0-5.334-1.91" transform="translate(-23.675 -46.417)" fill="#2d4773"/>
            <path id="Trazado_1262871" data-name="Trazado 1262871" d="M70.141,90.836a7.179,7.179,0,0,1-1.491.083c-.588,0-1.945-.117-2.136,1.287-.194,1.419,1.288,2.217,2.179,2.262a2.137,2.137,0,0,1,1.025.234c.536.532-.031,4.667.382,6.117.911,3.2-1.026,1.693-1.026,1.693s12.575,12.241,9.1-.01c0,0-.726-7.6-.684-7.644.717-.655,3.5-.936,1.752-6.357-1.622-5.022-5.659-4.664-6.685-4.5-.866.14,1.938,1.857-2.42,6.833" transform="translate(-38.1 -51.209)" fill="#ffbbb5"/>
            <path id="Trazado_1262872" data-name="Trazado 1262872" d="M82.308,81.664a1.446,1.446,0,0,0,.75-.288,1.03,1.03,0,0,0,.135-1.07,4.726,4.726,0,0,0-4.256-3.1c-1.331-.061-5.706,1.595-4.27,3.287a8.893,8.893,0,0,0,3.017,1.3,10.139,10.139,0,0,0,4.624-.131" transform="translate(-42.617 -47.108)" fill="#2d4773"/>
            <g id="Grupo_1205798" data-name="Grupo 1205798" transform="translate(29.082 40.766)" style="mix-blend-mode: multiply;isolation: isolate">
              <g id="Grupo_1205797" data-name="Grupo 1205797">
                <g id="Grupo_1205796" data-name="Grupo 1205796" clip-path="url(#clip-path-8)">
                  <path id="Trazado_1262873" data-name="Trazado 1262873" d="M68.1,105.214s.924-1.779,2.1.6" transform="translate(-68.101 -104.577)" fill="#ffbbb5"/>
                </g>
              </g>
            </g>
            <path id="Trazado_1262874" data-name="Trazado 1262874" d="M91.459,102.818l-2.513,1.143s1.229.816,1.893.37a1.912,1.912,0,0,0,.62-1.512" transform="translate(-50.963 -62.738)" fill="#fff"/>
            <path id="Trazado_1262875" data-name="Trazado 1262875" d="M83.283,95.874c-.218.278-.092-.692.266-.916a.786.786,0,0,1,1.031.108,2.345,2.345,0,0,0-1.3.808" transform="translate(-47.657 -57.856)" fill="#2d4773"/>
            <path id="Trazado_1262876" data-name="Trazado 1262876" d="M91.191,91.115c.361.092-.4-.593-.835-.562a.705.705,0,0,0-.731.673,2.5,2.5,0,0,1,1.566-.111" transform="translate(-51.35 -55.253)" fill="#2d4773"/>
            <path id="Trazado_1262877" data-name="Trazado 1262877" d="M86.061,99.116c.121.274.338.453.483.4s.165-.319.044-.594-.338-.453-.483-.4-.165.32-.044.594" transform="translate(-49.264 -60.11)" fill="#2d4773"/>
            <path id="Trazado_1262878" data-name="Trazado 1262878" d="M91.517,96.563c.116.262.322.433.462.381s.158-.3.042-.567S91.7,95.945,91.56,96s-.158.3-.042.567" transform="translate(-52.392 -58.57)" fill="#2d4773"/>
            <g id="Grupo_1205801" data-name="Grupo 1205801" transform="translate(35.243 43.649)" style="mix-blend-mode: multiply;isolation: isolate">
              <g id="Grupo_1205800" data-name="Grupo 1205800">
                <g id="Grupo_1205799" data-name="Grupo 1205799" clip-path="url(#clip-path-9)">
                  <path id="Trazado_1262879" data-name="Trazado 1262879" d="M86.68,111.973a24.117,24.117,0,0,1-3.948.38c-1.325-.078,4.268,3.276,3.948-.38" transform="translate(-82.529 -111.973)" fill="#ffbbb5"/>
                </g>
              </g>
            </g>
            <path id="Trazado_1262880" data-name="Trazado 1262880" d="M89.133,96.565a4.154,4.154,0,0,0,.836.913c.3.246.72.375,1,.632.361.332.081.816-.409.808a.125.125,0,0,1-.1-.214c.111-.107.291-.205.115-.417a1,1,0,0,0-.24-.126,4.034,4.034,0,0,1-.581-.393,3.125,3.125,0,0,1-.84-1.088.123.123,0,0,1,.216-.115" transform="translate(-50.939 -58.888)" fill="#2d4773"/>
            <path id="Trazado_1262881" data-name="Trazado 1262881" d="M86.336,292.17l2.04,46.616s1.531,4.1,2.952,2.514a13.656,13.656,0,0,1,2.828-2.427l2.034-46.7Z" transform="translate(-49.467 -178.277)" fill="#ffbbb5"/>
            <path id="Trazado_1262882" data-name="Trazado 1262882" d="M96.41,410.336l5.675,4.2c.29.2.083.528-.332.531,0,0-12.267-.064-12.285-.228a32.184,32.184,0,0,1,.606-5.5c.029-.133,1.314,4.376,1.543,3.956.305-.558,3.836-2.737,4.1-2.947a.642.642,0,0,1,.7-.016" transform="translate(-51.253 -249.771)" fill="#2d4773"/>
            <path id="Trazado_1262883" data-name="Trazado 1262883" d="M34.284,296.975l-13.8,44.592s-1.53,4.1-2.951,2.514a13.652,13.652,0,0,0-2.828-2.427l8.354-44.927Z" transform="translate(-8.425 -181.058)" fill="#ffbbb5"/>
            <path id="Trazado_1262884" data-name="Trazado 1262884" d="M5.81,410.528l-5.675,4.2c-.29.2-.083.528.332.531,0,0,12.267-.064,12.285-.228a35.627,35.627,0,0,0-.132-5.377c-.478,0-1.054,4.141-2.017,3.836a36.962,36.962,0,0,1-4.1-2.947.641.641,0,0,0-.7-.016" transform="translate(0 -249.963)" fill="#2d4773"/>
            <path id="Trazado_1262885" data-name="Trazado 1262885" d="M67.085,229.513c-.135-17.638-.982-35.638-6.64-44.173-5.157-.649-11.461,0-16.691.146A43.13,43.13,0,0,0,38.283,198.1c-.8,2.854-4.328,16.148-7.979,30.753a1.847,1.847,0,0,0,1.535,2.211c6.213,1.246,21.9,2.148,33.584.276a1.893,1.893,0,0,0,1.662-1.824" transform="translate(-17.334 -112.918)" fill="#2d4773"/>
            <g id="Grupo_1205804" data-name="Grupo 1205804" transform="translate(19.581 72.355)" opacity="0.3" style="mix-blend-mode: multiply;isolation: isolate">
              <g id="Grupo_1205803" data-name="Grupo 1205803">
                <g id="Grupo_1205802" data-name="Grupo 1205802" clip-path="url(#clip-path-10)">
                  <path id="Trazado_1262886" data-name="Trazado 1262886" d="M68.524,185.924,45.853,203.236s3.319-11.158,7.091-17.623Z" transform="translate(-45.853 -185.613)" fill="#2d4773"/>
                </g>
              </g>
            </g>
            <path id="Trazado_1262887" data-name="Trazado 1262887" d="M121.786,136.1c.088.287-1.916,2.446-3.053,3.2a129.636,129.636,0,0,1-10.745,11.934c-2.739,2.548-5.235,4.282-6.388,3.538,0,0-2.95-1.9-2.285-9.209a29.339,29.339,0,0,1,.429-3.008,16.174,16.174,0,0,0-.028-1.764s-.807-9.692-2.548-11.7c-.195-.221-.771-.632-.7-.65,5.331-1.215,7.37,11.017,8.841,16.673.059.236,10.231-8.81,10.231-8.81s5.331-6.43,5.7-6.063c.541.533-1.527,3.4-1.527,3.4a1,1,0,0,0,.541.493,1.189,1.189,0,0,1,.764.9c.135.494.672.781.763,1.067" transform="translate(-55.272 -78.319)" fill="#ffbbb5"/>
            <path id="Trazado_1262888" data-name="Trazado 1262888" d="M141.567,144.4s1.077-2.786,1.526-2.7,2.424.861,2.379,1.557-1.75.123-1.75.123.314,1.557-.539,1.762-1.616-.738-1.616-.738" transform="translate(-81.113 -86.461)" fill="#ffbbb5"/>
            <g id="Grupo_1205807" data-name="Grupo 1205807" transform="translate(63.071 56.795)" style="mix-blend-mode: multiply;isolation: isolate">
              <g id="Grupo_1205806" data-name="Grupo 1205806">
                <g id="Grupo_1205805" data-name="Grupo 1205805" clip-path="url(#clip-path-11)">
                  <path id="Trazado_1262889" data-name="Trazado 1262889" d="M147.726,145.7a.776.776,0,0,0,.583.819.743.743,0,0,0,.943.574s-.225.328.269.41c0,0-2.11,2.09-1.8-1.8" transform="translate(-147.694 -145.697)" fill="#ffbbb5"/>
                </g>
              </g>
            </g>
            <path id="Trazado_1262890" data-name="Trazado 1262890" d="M146.826,142.218a13.849,13.849,0,0,1,1.86.776.611.611,0,0,1,.251.295.376.376,0,0,1-.121.4,2.654,2.654,0,0,1-1.639.316c-.033-.008,0,.13.009.226l.066.615-.014,0-.127-.6c-.008-.09-.085-.228,0-.3s.225-.037.334-.044a2.042,2.042,0,0,0,1.265-.3.252.252,0,0,0,.091-.267c-.124-.294-.51-.381-.784-.531,0,0-1.233-.559-1.192-.575" transform="translate(-84.125 -86.779)" fill="#2d4773"/>
            <path id="Trazado_1262891" data-name="Trazado 1262891" d="M150.11,141.714a1,1,0,0,1-.693.639,4.335,4.335,0,0,1,.693-.639" transform="translate(-85.61 -86.471)" fill="#2d4773"/>
            <path id="Trazado_1262892" data-name="Trazado 1262892" d="M150.142,144.368c-.258.471-1.73,1.9-2.26,1.213l.012-.008a.52.52,0,0,0,.634.034,8.083,8.083,0,0,0,1.615-1.24" transform="translate(-84.731 -88.091)" fill="#2d4773"/>
            <path id="Trazado_1262893" data-name="Trazado 1262893" d="M149.067,146.907c.349,1.063,1.056.453,1.623-.069a5.559,5.559,0,0,1,.612-.5q-.254.292-.528.568c-.343.319-.8.878-1.358.651a.788.788,0,0,1-.349-.651" transform="translate(-85.41 -89.293)" fill="#2d4773"/>
            <path id="Trazado_1262894" data-name="Trazado 1262894" d="M151.246,148.956a1.265,1.265,0,0,0,.32.557.29.29,0,0,0,.162.034,2.484,2.484,0,0,0,.9-.187l.011.009a.728.728,0,0,1-.428.223.853.853,0,0,1-.729,0,.887.887,0,0,1-.233-.639" transform="translate(-86.655 -90.89)" fill="#2d4773"/>
            <path id="Trazado_1262895" data-name="Trazado 1262895" d="M103.264,141.655c-.473.3-.93.635-1.379.962-.421.3-.839.6-1.248.867-1.419.911-2.858,1.8-4.329,2.649q-.078-.327-.155-.664c-.052-.221-.1-.442-.151-.671s-.1-.45-.147-.679c-.024-.112-.048-.225-.072-.341q-.071-.343-.143-.686c-.191-.932-.374-1.876-.544-2.812-.032-.178-.064-.352-.1-.53-.108-.613-.215-1.219-.31-1.818-.04-.221-.076-.446-.111-.667-.008-.036-.012-.076-.02-.113l-.084-.544c-.088-.544-.167-1.078-.243-1.593-.032-.207-.06-.41-.088-.613-.131-.914-.243-1.771-.334-2.547-.02-.145-.035-.29-.052-.428,0-.043-.008-.09-.016-.134-.012-.124-.028-.247-.04-.366-.052-.479-.1-.915-.127-1.3-.059-.675-.088-1.2-.083-1.546,0,0,4.726-.251,6.106,2.315.942,1.76,2.671,7.7,3.665,11.263" transform="translate(-53.568 -78.146)" fill="#7be6ff"/>
            <g id="Grupo_1205810" data-name="Grupo 1205810" transform="translate(43.946 65.509)" opacity="0.3" style="mix-blend-mode: multiply;isolation: isolate">
              <g id="Grupo_1205809" data-name="Grupo 1205809">
                <g id="Grupo_1205808" data-name="Grupo 1205808" clip-path="url(#clip-path-12)">
                  <path id="Trazado_1262896" data-name="Trazado 1262896" d="M106.492,175.489c-.633-1.107-.461-2.682-.528-3.894-.066-1.175-.16-2.362-.219-3.545-.1.07-.208.143-.31.209-.8.515-1.61,1.023-2.429,1.521-.664,7.311,2.286,9.209,2.286,9.209,1.153.744,3.649-.991,6.388-3.538l-.063-.1c-1.484,1.269-4.035,2.046-5.125.138" transform="translate(-102.91 -168.05)" fill="#2d4773"/>
                </g>
              </g>
            </g>
            <g id="Grupo_1205813" data-name="Grupo 1205813" transform="translate(40.009 51.476)" opacity="0.3" style="mix-blend-mode: multiply;isolation: isolate">
              <g id="Grupo_1205812" data-name="Grupo 1205812">
                <g id="Grupo_1205811" data-name="Grupo 1205811" clip-path="url(#clip-path-13)">
                  <path id="Trazado_1262897" data-name="Trazado 1262897" d="M102,145.045c-.422.3-.839.6-1.249.867-1.419.911-2.858,1.8-4.329,2.649q-.077-.327-.155-.664c-.052-.221-.1-.442-.151-.671s-.1-.45-.147-.678c-.024-.113-.048-.225-.072-.341q-.078-.343-.143-.686c-.191-.932-.374-1.876-.545-2.812-.031-.178-.064-.356-.1-.53-.107-.613-.214-1.219-.31-1.818-.04-.225-.076-.446-.112-.668-.008-.036-.012-.076-.02-.113l-.084-.544c-.087-.544-.167-1.078-.243-1.593-.032-.207-.06-.41-.087-.613-.131-.915-.243-1.771-.334-2.547-.02-.145-.035-.29-.051-.428,0-.044-.008-.091-.016-.134-.012-.123-.028-.247-.04-.366-.051-.479-.1-.915-.127-1.3,2.675,4.376,5.553,8.654,8.308,12.994" transform="translate(-93.689 -132.051)" fill="#2d4773"/>
                </g>
              </g>
            </g>
            <path id="Trazado_1262898" data-name="Trazado 1262898" d="M71.208,125.507c-.15.332,6.064,10.57,5.885,13.83-.138,2.521-1.563,6.048-2.132,7.775a1.535,1.535,0,0,1-1.472,1c-3.012.022-10.81.08-16.072.138-4.734-3.78-2.608-18.26-1.018-22.328,0,0,5.252-2.187,6.557-2.275,0,0,10.018,14.862,8.251,1.856" transform="translate(-31.238 -75.45)" fill="#7be6ff"/>
            <g id="Grupo_1205816" data-name="Grupo 1205816" transform="translate(23.171 50.756)" opacity="0.3" style="mix-blend-mode: multiply;isolation: isolate">
              <g id="Grupo_1205815" data-name="Grupo 1205815">
                <g id="Grupo_1205814" data-name="Grupo 1205814" clip-path="url(#clip-path-14)">
                  <path id="Trazado_1262899" data-name="Trazado 1262899" d="M56,132.195s1.181-.956,2.575-1.991c.1.155.206.307.307.462-.654.8-.429,1.714-.074,2.987,1.9,6.822,2.789,10.778,5.941,18.69-3.845.08-2.846-.141-7.486-.09-4.734-3.78-2.854-15.989-1.264-20.058" transform="translate(-54.26 -130.204)" fill="#2d4773"/>
                </g>
              </g>
            </g>
            <path id="Trazado_1262900" data-name="Trazado 1262900" d="M45.194,204.595l-13.982-6.226,9.126-17.216,13.982,6.226Z" transform="translate(-17.883 -110.536)" fill="#fff"/>
            <g id="Grupo_1205819" data-name="Grupo 1205819" transform="translate(13.329 70.617)" opacity="0.3" style="mix-blend-mode: multiply;isolation: isolate">
              <g id="Grupo_1205818" data-name="Grupo 1205818">
                <g id="Grupo_1205817" data-name="Grupo 1205817" clip-path="url(#clip-path-15)">
                  <path id="Trazado_1262901" data-name="Trazado 1262901" d="M45.194,204.595l-13.982-6.226,9.126-17.216,13.982,6.226Z" transform="translate(-31.212 -181.153)" fill="#fff"/>
                </g>
              </g>
            </g>
            <path id="Trazado_1262902" data-name="Trazado 1262902" d="M67.533,187.739l-7.855-3.5.51-.954a.367.367,0,0,1,.47-.148l7.223,3.216a.309.309,0,0,1,.162.429Z" transform="translate(-34.193 -111.728)" fill="#e3deff"/>
            <path id="Trazado_1262903" data-name="Trazado 1262903" d="M69.969,183.007a1.335,1.335,0,0,0-1.72.475,1.123,1.123,0,0,0,.649,1.53,1.335,1.335,0,0,0,1.72-.475,1.123,1.123,0,0,0-.649-1.53m-.789,1.477a.532.532,0,0,1-.307-.725.633.633,0,0,1,.815-.225.532.532,0,0,1,.307.725.632.632,0,0,1-.815.225" transform="translate(-39.038 -111.588)" fill="#e3deff"/>
            <path id="Trazado_1262904" data-name="Trazado 1262904" d="M19.758,144.574a92.792,92.792,0,0,0,7.529,9.674l.028.033c.111.149.521.708.529.718,1.121,1.357,2.476,2.979,3.713,4.431.628.729,1.224,1.419,1.749,2.01a.207.207,0,0,0,.028.025c1.05,1.19,1.813,1.978,1.916,1.909.262-.159-.668-1.571-1.22-2.326.465.541.978,1.168,1.415,1.662.489.541.89.915,1.046.831.266-.141-.517-1.488-1.193-2.449-.079-.116-.159-.225-.234-.323.071.076.147.159.231.258.822.936,2.258,2.794,2.512,2.649.362-.207-1.2-2.664-1.459-3.066.266.359,1.817,2.457,2.127,2.108.127-.141-.417-.969-.97-1.792a7.885,7.885,0,0,1-1.049-1.731c.047-.207.493.294.835.555.175.138.322.207.373.094a5.865,5.865,0,0,0-.822-1.517c-1.372-2.159-3.963-5.86-4.075-6.016l0,0c-1.669-2.71-3.621-6.607-4.77-8.7,1.24-1.074,15.077-14.587,15.077-14.587s-4.4-3.353-11.067,1.535c-6.113,4.489-10.077,7.838-12.08,10.193-1.173,1.371-1.113,2.326-.163,3.828" transform="translate(-10.911 -78.04)" fill="#ffbbb5"/>
            <path id="Trazado_1262905" data-name="Trazado 1262905" d="M51.945,129.017s-4.4-3.351-11.066,1.538c-2.462,1.806-4.567,3.425-6.343,4.872.207.253.414.507.616.761,1,1.258,1.944,2.556,3.027,3.761q.887.986,1.842,1.923c17.177-9.759,11.925-12.854,11.925-12.854" transform="translate(-19.788 -78.04)" fill="#7be6ff"/>
            <path id="Trazado_1262906" data-name="Trazado 1262906" d="M364.125,77.243l.815,6.375a10.072,10.072,0,0,1-6.553,2.572c-3.945,0-3.945-2.4-3.945-2.4l.751-5.487,6.066-5.811Z" transform="translate(-203.081 -44.233)" fill="#ffbbb5"/>
            <path id="Trazado_1262907" data-name="Trazado 1262907" d="M350.656,61.749s-2.085,7.258-.939,8.746c1.716,2.229,5.8,2.4,7.518,1.372,1.443-.863,2.627-5.487,2.627-6.688,0-3.258-7.327-5.144-9.205-3.43" transform="translate(-200.178 -37.284)" fill="#ffbbb5"/>
            <path id="Trazado_1262908" data-name="Trazado 1262908" d="M361.9,62.086a6.386,6.386,0,0,1,.23-.718c.224-.569.565-1.072.81-1.631a2.743,2.743,0,0,0-.951-3.255,5.3,5.3,0,0,1-.547-.4,3.967,3.967,0,0,1-.705-1.279,1.833,1.833,0,0,0-.806-.891c-.872-.424-2.033.151-2.9-.274a4.088,4.088,0,0,1-.519-.343,4.9,4.9,0,0,0-5.407.6c-.58.412-1.382.384-1.965.787a2.233,2.233,0,0,0-.772,1.9,1.584,1.584,0,0,0,.129.746,1.5,1.5,0,0,0,.784.638,5.468,5.468,0,0,0,2.487.142c.809-.056,1.749-.576,2.54-.306.772.263.969,1.128,1.92,1.2.375.027.831-.036,1.054.239.252.311.12.823.319,1.183a8.533,8.533,0,0,0,.76.959c.48.623,1.161,1.05.918,1.861-.17.564-.857,1.471-.573,2.069.188.394,1.138.387,1.857-.112a3.606,3.606,0,0,0,1.143-2.277c.066-.287.126-.564.2-.839" transform="translate(-199.599 -32.154)" fill="#fdda14"/>
            <g id="Grupo_1205822" data-name="Grupo 1205822" transform="translate(148.765 20.542)" style="mix-blend-mode: multiply;isolation: isolate">
              <g id="Grupo_1205821" data-name="Grupo 1205821">
                <g id="Grupo_1205820" data-name="Grupo 1205820" clip-path="url(#clip-path-16)">
                  <path id="Trazado_1262909" data-name="Trazado 1262909" d="M361.9,62.086a6.386,6.386,0,0,1,.23-.718c.224-.569.565-1.072.81-1.631a2.743,2.743,0,0,0-.951-3.255,5.3,5.3,0,0,1-.547-.4,3.967,3.967,0,0,1-.705-1.279,1.833,1.833,0,0,0-.806-.891c-.872-.424-2.033.151-2.9-.274a4.088,4.088,0,0,1-.519-.343,4.9,4.9,0,0,0-5.407.6c-.58.412-1.382.384-1.965.787a2.233,2.233,0,0,0-.772,1.9,1.584,1.584,0,0,0,.129.746,1.5,1.5,0,0,0,.784.638,5.468,5.468,0,0,0,2.487.142c.809-.056,1.749-.576,2.54-.306.772.263.969,1.128,1.92,1.2.375.027.831-.036,1.054.239.252.311.12.823.319,1.183a8.533,8.533,0,0,0,.76.959c.48.623,1.161,1.05.918,1.861-.17.564-.857,1.471-.573,2.069.188.394,1.138.387,1.857-.112a3.606,3.606,0,0,0,1.143-2.277c.066-.287.126-.564.2-.839" transform="translate(-348.364 -52.696)" fill="#fdda14"/>
                </g>
              </g>
            </g>
            <path id="Trazado_1262910" data-name="Trazado 1262910" d="M355.908,85.28a8.847,8.847,0,0,0,4.623-.431,4.445,4.445,0,0,0,2.022-2.416" transform="translate(-203.922 -50.299)" fill="none" stroke="#2d4773" stroke-miterlimit="10" stroke-width="0.75"/>
            <path id="Trazado_1262911" data-name="Trazado 1262911" d="M368.977,75.433a1.557,1.557,0,0,1,1.07-.584,1.38,1.38,0,0,1,.831.434c1.044,1.072-.092,3.118-1.692,2.892-.587-.083-.427-.792-.427-.792" transform="translate(-211.274 -45.67)" fill="#ffbbb5"/>
            <path id="Trazado_1262912" data-name="Trazado 1262912" d="M354.021,72.491s-1.216,1.709-1.1,2.185,1.354.531,1.354.531" transform="translate(-202.205 -44.233)" fill="none" stroke="#2d4773" stroke-miterlimit="10" stroke-width="0.5"/>
            <path id="Trazado_1262913" data-name="Trazado 1262913" d="M352.839,80.959l3.381.431a2.179,2.179,0,0,1-2.483,1.24c-1.311-.252-.9-1.671-.9-1.671" transform="translate(-202.128 -49.4)" fill="#fff"/>
            <path id="Trazado_1262914" data-name="Trazado 1262914" d="M352.207,71.006c-.027.065-.052.13-.076.2s-.049.132-.067.2a.149.149,0,0,0,.017.119.171.171,0,0,0,.1.071.175.175,0,0,0,.207-.108c.023-.066.038-.134.055-.2s.033-.136.046-.2a.133.133,0,0,0-.015-.1.148.148,0,0,0-.088-.062.16.16,0,0,0-.113.014.157.157,0,0,0-.068.08" transform="translate(-201.716 -43.267)" fill="#2d4773"/>
            <path id="Trazado_1262915" data-name="Trazado 1262915" d="M352.982,68.677a.11.11,0,0,1-.085-.039.817.817,0,0,0-1.122-.117.113.113,0,0,1-.148-.021.091.091,0,0,1,.023-.135,1.045,1.045,0,0,1,1.417.157.091.091,0,0,1-.022.135.112.112,0,0,1-.063.019" transform="translate(-201.457 -41.587)" fill="#fdda14"/>
            <path id="Trazado_1262916" data-name="Trazado 1262916" d="M361.257,73.112c-.023.066-.044.133-.064.2s-.04.133-.054.2a.154.154,0,0,0,.017.119.172.172,0,0,0,.1.071.174.174,0,0,0,.207-.108c.019-.069.03-.139.043-.209s.028-.159.038-.239a.126.126,0,0,0-.043-.095.157.157,0,0,0-.085-.037.148.148,0,0,0-.161.1" transform="translate(-206.916 -44.552)" fill="#2d4773"/>
            <path id="Trazado_1262917" data-name="Trazado 1262917" d="M362.456,70.679a.11.11,0,0,1-.079-.033,1.631,1.631,0,0,0-1.572-.606.108.108,0,0,1-.134-.061.1.1,0,0,1,.066-.122,1.84,1.84,0,0,1,1.8.661.091.091,0,0,1-.009.136.112.112,0,0,1-.07.024" transform="translate(-206.647 -42.601)" fill="#fdda14"/>
            <g id="Grupo_1205825" data-name="Grupo 1205825" transform="translate(150.149 26.568)" style="mix-blend-mode: multiply;isolation: isolate">
              <g id="Grupo_1205824" data-name="Grupo 1205824">
                <g id="Grupo_1205823" data-name="Grupo 1205823" clip-path="url(#clip-path-17)">
                  <path id="Trazado_1262918" data-name="Trazado 1262918" d="M352.982,68.677a.11.11,0,0,1-.085-.039.817.817,0,0,0-1.122-.117.113.113,0,0,1-.148-.021.091.091,0,0,1,.023-.135,1.045,1.045,0,0,1,1.417.157.091.091,0,0,1-.022.135.112.112,0,0,1-.063.019" transform="translate(-351.606 -68.155)" fill="#fdda14"/>
                </g>
              </g>
            </g>
            <g id="Grupo_1205828" data-name="Grupo 1205828" transform="translate(154.018 27.216)" style="mix-blend-mode: multiply;isolation: isolate">
              <g id="Grupo_1205827" data-name="Grupo 1205827">
                <g id="Grupo_1205826" data-name="Grupo 1205826" clip-path="url(#clip-path-18)">
                  <path id="Trazado_1262919" data-name="Trazado 1262919" d="M362.456,70.679a.11.11,0,0,1-.079-.033,1.631,1.631,0,0,0-1.572-.606.108.108,0,0,1-.134-.061.1.1,0,0,1,.066-.122,1.84,1.84,0,0,1,1.8.661.091.091,0,0,1-.009.136.112.112,0,0,1-.07.024" transform="translate(-360.665 -69.816)" fill="#fdda14"/>
                </g>
              </g>
            </g>
            <path id="Trazado_1262920" data-name="Trazado 1262920" d="M318.762,367.822l-1.607,14.725.136,4.631-19.892-.092a.843.843,0,0,1-.875-.807.809.809,0,0,1,.568-.747l8.579-3.6.823-15.321" transform="translate(-169.897 -223.699)" fill="#ffbbb5"/>
            <path id="Trazado_1262921" data-name="Trazado 1262921" d="M294.356,410.874a2.461,2.461,0,0,1,.953-1.383l9.1-3.576c5.014,1.855,11.5.437,11.5.437l1.158,6.252a.394.394,0,0,1-.413.373H294.509c-.445,0-.159-2.084-.152-2.1" transform="translate(-168.6 -247.682)" fill="#2d4773"/>
            <path id="Trazado_1262922" data-name="Trazado 1262922" d="M313.408,406.833a9.658,9.658,0,0,1,1.282,1.966" transform="translate(-179.571 -248.242)" fill="none" stroke="#fff" stroke-miterlimit="10" stroke-width="0.75"/>
            <path id="Trazado_1262923" data-name="Trazado 1262923" d="M310.726,408.437a8.468,8.468,0,0,1,1.054,1.672" transform="translate(-178.034 -249.221)" fill="none" stroke="#fff" stroke-miterlimit="10" stroke-width="0.75"/>
            <path id="Trazado_1262924" data-name="Trazado 1262924" d="M308.459,409.607a12.072,12.072,0,0,1,.989,1.534" transform="translate(-176.735 -249.935)" fill="none" stroke="#fff" stroke-miterlimit="10" stroke-width="0.75"/>
            <line id="Línea_3549" data-name="Línea 3549" x1="22.688" y1="0.106" transform="translate(125.663 163.839)" fill="none" stroke="#fff" stroke-miterlimit="10" stroke-width="0.75"/>
            <path id="Trazado_1262925" data-name="Trazado 1262925" d="M338.154,412.725s-5.33.1-5.788,3.03" transform="translate(-190.433 -251.837)" fill="none" stroke="#fff" stroke-miterlimit="10" stroke-width="0.75"/>
            <path id="Trazado_1262926" data-name="Trazado 1262926" d="M301.083,413.209a15.5,15.5,0,0,1,1.759,2.785" transform="translate(-172.509 -252.132)" fill="none" stroke="#fff" stroke-miterlimit="10" stroke-width="0.75"/>
            <path id="Trazado_1262927" data-name="Trazado 1262927" d="M318.107,196.5c-3.419,22.425-6.483,75.4-6.483,75.4H328.75s3.532-33.117,6.533-57.074c7.537-11.385,6.95-23.716,7.8-25.354" transform="translate(-178.549 -115.613)" fill="#fff"/>
            <path id="Trazado_1262928" data-name="Trazado 1262928" d="M346.252,306.169s4.234-36.579,7.235-60.536" transform="translate(-198.389 -149.881)" fill="none" stroke="#2d4773" stroke-miterlimit="10" stroke-width="0.75"/>
            <path id="Trazado_1262929" data-name="Trazado 1262929" d="M386.322,367.822l.732,14.725.136,4.631-19.892-.092a.843.843,0,0,1-.875-.807.81.81,0,0,1,.568-.747l8.579-3.6-1.516-15.321" transform="translate(-209.947 -223.699)" fill="#ffbbb5"/>
            <path id="Trazado_1262930" data-name="Trazado 1262930" d="M364.255,410.874a2.461,2.461,0,0,1,.953-1.383l9.1-3.576c5.014,1.855,11.5.437,11.5.437l1.158,6.252a.394.394,0,0,1-.413.373H364.408c-.446,0-.159-2.084-.152-2.1" transform="translate(-208.649 -247.682)" fill="#2d4773"/>
            <path id="Trazado_1262931" data-name="Trazado 1262931" d="M383.307,406.833a9.659,9.659,0,0,1,1.282,1.966" transform="translate(-219.62 -248.242)" fill="none" stroke="#fff" stroke-miterlimit="10" stroke-width="0.75"/>
            <path id="Trazado_1262932" data-name="Trazado 1262932" d="M380.625,408.437a8.469,8.469,0,0,1,1.054,1.672" transform="translate(-218.084 -249.221)" fill="none" stroke="#fff" stroke-miterlimit="10" stroke-width="0.75"/>
            <path id="Trazado_1262933" data-name="Trazado 1262933" d="M378.358,409.607a12.079,12.079,0,0,1,.989,1.534" transform="translate(-216.785 -249.935)" fill="none" stroke="#fff" stroke-miterlimit="10" stroke-width="0.75"/>
            <line id="Línea_3550" data-name="Línea 3550" x1="22.688" y1="0.106" transform="translate(155.513 163.839)" fill="none" stroke="#fff" stroke-miterlimit="10" stroke-width="0.75"/>
            <path id="Trazado_1262934" data-name="Trazado 1262934" d="M408.052,412.725s-5.33.1-5.788,3.03" transform="translate(-230.482 -251.837)" fill="none" stroke="#fff" stroke-miterlimit="10" stroke-width="0.75"/>
            <path id="Trazado_1262935" data-name="Trazado 1262935" d="M370.982,413.209a15.5,15.5,0,0,1,1.759,2.785" transform="translate(-212.559 -252.132)" fill="none" stroke="#fff" stroke-miterlimit="10" stroke-width="0.75"/>
            <path id="Trazado_1262936" data-name="Trazado 1262936" d="M381.342,201.473A79.991,79.991,0,0,1,380.916,219c1.462,27,3.485,59.952,3.485,59.952H367.278s-8.246-59.8-8.631-77.925" transform="translate(-205.491 -122.662)" fill="#fff"/>
            <path id="Trazado_1262937" data-name="Trazado 1262937" d="M318.107,196.5c-3.419,22.425-6.483,75.4-6.483,75.4H328.75s3.532-33.117,6.533-57.074c7.537-11.385,6.95-23.716,7.8-25.354" transform="translate(-178.549 -115.613)" fill="#2d4773"/>
            <path id="Trazado_1262938" data-name="Trazado 1262938" d="M381.342,201.473A79.991,79.991,0,0,1,380.916,219c1.462,27,3.485,59.952,3.485,59.952H367.278s-8.246-59.8-8.631-77.925" transform="translate(-205.491 -122.662)" fill="#2d4773"/>
            <path id="Trazado_1262939" data-name="Trazado 1262939" d="M404.373,202.175a79.993,79.993,0,0,1-.426,17.525c1.462,27,3.485,59.952,3.485,59.952" transform="translate(-231.446 -123.363)" fill="none" stroke="#e3deff" stroke-miterlimit="10" stroke-width="0.75"/>
            <path id="Trazado_1262940" data-name="Trazado 1262940" d="M361.112,236.262s-2.378-18.753-2.584-25.637" transform="translate(-205.423 -128.519)" fill="none" stroke="#e3deff" stroke-miterlimit="10" stroke-width="0.75"/>
            <line id="Línea_3551" data-name="Línea 3551" x1="17.355" transform="translate(161.366 153.196)" fill="none" stroke="#2d4773" stroke-miterlimit="10" stroke-width="0.75"/>
            <line id="Línea_3552" data-name="Línea 3552" x1="17.242" transform="translate(133.297 153.152)" fill="none" stroke="#2d4773" stroke-miterlimit="10" stroke-width="0.75"/>
            <path id="Trazado_1262941" data-name="Trazado 1262941" d="M395.141,220.6s-4.922.35-7.64-6.02" transform="translate(-222.023 -130.933)" fill="none" stroke="#e3deff" stroke-miterlimit="10" stroke-width="0.75"/>
            <path id="Trazado_1262942" data-name="Trazado 1262942" d="M356.944,218.717s-1.716-.446-1.877-.936-.626-6.292-.626-6.292" transform="translate(-203.081 -129.047)" fill="none" stroke="#e3deff" stroke-miterlimit="10" stroke-width="0.75"/>
            <path id="Trazado_1262943" data-name="Trazado 1262943" d="M330.772,214.58s-.388,5.23-6.674,6.023" transform="translate(-185.696 -130.933)" fill="none" stroke="#e3deff" stroke-miterlimit="10" stroke-width="0.75"/>
            <path id="Trazado_1262944" data-name="Trazado 1262944" d="M267.834,110.928s-8.138-7.861-8.639-7.788.605,1.529.181,1.519-2.979-3.246-3.459-3.052c-.65.263,1.759,3.121,1.759,3.121s-.637-.52-1.128-.143c-.348.267.134,1.168.134,1.168s-.635-.278-.989.006.1,1.054.1,1.054-.652-.605-1.013-.036c-.338.533,2.051,5,5.952,9.8" transform="translate(-145.959 -61.993)" fill="#ffbbb5"/>
            <path id="Trazado_1262945" data-name="Trazado 1262945" d="M301.556,97.844a16.73,16.73,0,0,0-11.163,5.319c-4.535,5.346-10.286,12.113-10.286,12.113l-9.429-8.8L261.8,113.23s12.288,15.818,18.381,15.855c5.478.034,14.729-7.141,17.411-11.005,5.393-7.772,3.962-20.235,3.962-20.235" transform="translate(-150.003 -59.703)" fill="#9db7fe"/>
            <path id="Trazado_1262946" data-name="Trazado 1262946" d="M346.708,95.847s-1.135,1.526-5.725,1.958c-3.469.326-4.318-1.179-4.318-1.179s-8.375,4.073-10.86,20.944a243.84,243.84,0,0,0-2.727,25.7H362.4s.132-12.834-1.018-23.867c-1.183-11.344-3.794-20.931-14.676-23.558" transform="translate(-185.111 -58.484)" fill="#fc74af"/>
            <path id="Trazado_1262947" data-name="Trazado 1262947" d="M266.908,111.3a17.8,17.8,0,0,0,1.106,3" transform="translate(-152.928 -67.913)" fill="none" stroke="#2d4773" stroke-miterlimit="10" stroke-width="0.5"/>
            <path id="Trazado_1262948" data-name="Trazado 1262948" d="M255.436,113.29c.7.824,3.367,3.2,1.747.466-.252-.411-.532-.811-.814-1.2l.15-.095c.137.209,2.132,2.546,2.17,1.924a10.257,10.257,0,0,0-1.4-2.873l.162-.091a14.178,14.178,0,0,0,1.611,1.955c.114.1.519.476.558.18a10.2,10.2,0,0,0-1.334-3.006c.3.474.589.956.857,1.449.15.293,1.167,2.068.186,1.738a8.875,8.875,0,0,1-2.038-2.221l.163-.091c.205.369,2.321,3.52,1.023,3.227a8.3,8.3,0,0,1-2.1-2.094l.15-.095a9.661,9.661,0,0,1,1.266,2.222.47.47,0,0,1-.013.393c-.516.419-1.985-1.424-2.338-1.783" transform="translate(-146.355 -67.452)" fill="#2d4773"/>
            <path id="Trazado_1262949" data-name="Trazado 1262949" d="M335.087,97.844c-8.06,14.14-8.6,48.979-8.6,48.979h-6.166s.288-22.585,4.948-37.314c1.98-6.258,7.066-11.219,9.814-11.665" transform="translate(-183.534 -59.703)" fill="#9db7fe"/>
            <path id="Trazado_1262950" data-name="Trazado 1262950" d="M323.953,141.556s1.37-13.669,4.055-18.337" transform="translate(-185.613 -75.186)" fill="none" stroke="#2d4773" stroke-linejoin="round" stroke-width="0.75"/>
            <path id="Trazado_1262951" data-name="Trazado 1262951" d="M339.6,118l-1.232-10.818,2.067-1.015-2.067-1.184s1.8-3.163,3.365-5.346" transform="translate(-193.874 -60.794)" fill="none" stroke="#2d4773" stroke-linejoin="round" stroke-width="0.75"/>
            <path id="Trazado_1262952" data-name="Trazado 1262952" d="M374.975,95.84c-4.839,9.517-.549,49.76-.549,49.76h18.72s-.886-14.743-1.662-20.465-5.871-24.076-5.871-24.076Z" transform="translate(-213.527 -58.48)" fill="#9db7fe"/>
            <path id="Trazado_1262953" data-name="Trazado 1262953" d="M304.628,170.69l25.384-.325-5.092-15.488a1.92,1.92,0,0,0-1.847-1.317l-22.95.294a.752.752,0,0,0-.706.986Z" transform="translate(-171.533 -93.699)" fill="#fff"/>
            <g id="Grupo_1205831" data-name="Grupo 1205831" transform="translate(127.846 59.861)" opacity="0.4" style="mix-blend-mode: multiply;isolation: isolate">
              <g id="Grupo_1205830" data-name="Grupo 1205830">
                <g id="Grupo_1205829" data-name="Grupo 1205829" clip-path="url(#clip-path-19)">
                  <path id="Trazado_1262954" data-name="Trazado 1262954" d="M304.628,170.69l25.384-.325-5.092-15.488a1.92,1.92,0,0,0-1.847-1.317l-22.95.294a.752.752,0,0,0-.706.986Z" transform="translate(-299.378 -153.56)" fill="#2d4773"/>
                </g>
              </g>
            </g>
            <path id="Trazado_1262955" data-name="Trazado 1262955" d="M301.957,170.729l25.384-.325-5.092-15.488A1.918,1.918,0,0,0,320.4,153.6l-22.95.294a.751.751,0,0,0-.706.986Z" transform="translate(-170.002 -93.723)" fill="#fff"/>
            <g id="Grupo_1205834" data-name="Grupo 1205834" transform="translate(126.706 59.875)" opacity="0.2" style="mix-blend-mode: multiply;isolation: isolate">
              <g id="Grupo_1205833" data-name="Grupo 1205833">
                <g id="Grupo_1205832" data-name="Grupo 1205832" clip-path="url(#clip-path-20)">
                  <path id="Trazado_1262956" data-name="Trazado 1262956" d="M301.957,170.729l25.384-.325-5.092-15.488A1.918,1.918,0,0,0,320.4,153.6l-22.95.294a.751.751,0,0,0-.706.986Z" transform="translate(-296.708 -153.598)" fill="#fff"/>
                </g>
              </g>
            </g>
            <path id="Trazado_1262957" data-name="Trazado 1262957" d="M326.21,174.2a1.986,1.986,0,0,0,1.99,1.289c.939-.012,1.571-.609,1.411-1.332a1.986,1.986,0,0,0-1.99-1.289c-.94.012-1.572.609-1.411,1.332" transform="translate(-186.892 -105.479)" fill="#2d4773"/>
            <path id="Trazado_1262958" data-name="Trazado 1262958" d="M381.8,141.465s4.964,7.94,4.674,9.773c-.219,1.383-13.748,4.554-13.748,4.554l.611,7.778s22.636-1.756,25.266-5.9c3.6-5.673-6.369-20.357-6.369-20.357" transform="translate(-213.56 -83.786)" fill="#ffbbb5"/>
            <path id="Trazado_1262959" data-name="Trazado 1262959" d="M358,183.517c-1.856.3-11.63,2.109-11.513,2.56.113.435,2.982.35,2.9.6-.122.351-2.245.821-3.462.984-1.086.146-2.8.541-2.795.981.016.836,5.96-.032,5.96-.032s-6.583-.158-6.649.542c-.1,1.01,6.879.938,7.124,1.159,0,0-6.066-1.47-6.137-.723s5.311,2.183,6.973,2.077c-1.381-.147-5.6-2.021-5.629-1.332s3.618,1.66,4.2,1.7a36.52,36.52,0,0,0,9.148-.619" transform="translate(-196.204 -111.979)" fill="#ffbbb5"/>
            <path id="Trazado_1262960" data-name="Trazado 1262960" d="M345.616,197.061a40.574,40.574,0,0,1,4.668-.269,20.694,20.694,0,0,1-4.668.269" transform="translate(-198.025 -120.079)" fill="#2d4773"/>
            <path id="Trazado_1262961" data-name="Trazado 1262961" d="M347.259,199.867c1.7.039,3.37.215,5.069.227a15.445,15.445,0,0,1-5.069-.227" transform="translate(-198.966 -121.955)" fill="#2d4773"/>
            <path id="Trazado_1262962" data-name="Trazado 1262962" d="M349.8,202.142c1.313.071,3.175.326,4.495.481a15.28,15.28,0,0,1-4.495-.481" transform="translate(-200.421 -123.343)" fill="#2d4773"/>
            <path id="Trazado_1262963" data-name="Trazado 1262963" d="M375.126,95.84c5.289.781,11.864,2.287,14.537,5.47,4.1,4.882,15.045,25.322,10.993,30.334-3.446,4.262-22.568,7.491-22.568,7.491l-5.153-9.625,13.07-4.451-8.132-16.192" transform="translate(-213.678 -58.48)" fill="#9db7fe"/>
            <path id="Trazado_1262964" data-name="Trazado 1262964" d="M372.935,154.815,386,150.364l-6.554-13.051" transform="translate(-213.677 -83.786)" fill="none" stroke="#2d4773" stroke-miterlimit="10" stroke-width="0.75"/>
            <line id="Línea_3553" data-name="Línea 3553" y1="3.229" x2="14.499" transform="translate(164.41 77.426)" fill="none" stroke="#2d4773" stroke-miterlimit="10" stroke-width="0.75"/>
            <line id="Línea_3554" data-name="Línea 3554" x2="5.433" y2="9.763" transform="translate(160.95 70.453)" fill="none" stroke="#2d4773" stroke-miterlimit="10" stroke-width="0.75"/>
            <path id="Trazado_1262965" data-name="Trazado 1262965" d="M372.729,117.772a21.17,21.17,0,0,1,4.377-9.107l-2.189-2.178,3.052-1.015s1.412-5.32,2.424-6.972" transform="translate(-213.56 -60.102)" fill="none" stroke="#2d4773" stroke-linejoin="round" stroke-width="0.75"/>
            <path id="Trazado_1262966" data-name="Trazado 1262966" d="M1.125,423.844H180.1c2.418,0,4.838.03,7.255,0,.106,0,.212,0,.317,0a.293.293,0,1,0,0-.585H8.7c-2.418,0-4.838-.03-7.255,0-.106,0-.211,0-.317,0a.293.293,0,1,0,0,.585" transform="translate(-0.467 -258.256)" fill="#2d4773"/>
            <path id="Trazado_1262967" data-name="Trazado 1262967" d="M260,231.26c3.218-7.141-.516-15.312-8.339-18.249s-16.774.471-19.991,7.612.516,15.312,8.339,18.249S256.786,238.4,260,231.26" transform="translate(-132.078 -129.332)" fill="#9db7fe"/>
            <path id="Trazado_1262968" data-name="Trazado 1262968" d="M280.728,232.826c3.218-7.141-.516-15.312-8.339-18.249l-5.852,12.987Z" transform="translate(-152.716 -130.931)" fill="#e3deff"/>
            <path id="Trazado_1262969" data-name="Trazado 1262969" d="M257.444,221.5l7.075-15.7a20.094,20.094,0,0,0-14.174.032Z" transform="translate(-143.438 -124.795)" fill="#fdda14"/>
            <rect id="Rectángulo_456934" data-name="Rectángulo 456934" width="14.35" height="3.516" transform="translate(57.269)" fill="#fc74af"/>
            <rect id="Rectángulo_456935" data-name="Rectángulo 456935" width="14.35" height="3.516" transform="translate(57.269 5.137)" fill="#fc74af"/>
            <rect id="Rectángulo_456936" data-name="Rectángulo 456936" width="22.674" height="2.827" transform="translate(48.945 18.172)" fill="#9db7fe"/>
            <rect id="Rectángulo_456937" data-name="Rectángulo 456937" width="30.376" height="2.827" transform="translate(41.244 11.473)" fill="#9db7fe"/>
          </g>
        </g>
      </g>
    </g>
  </g>
</svg>
