<svg xmlns="http://www.w3.org/2000/svg" xmlns:xlink="http://www.w3.org/1999/xlink" width="150.5" height="150.501" viewBox="0 0 150.5 150.501">
  <defs>
    <clipPath id="clip-path">
      <rect id="Rectángulo_455261" data-name="Rectángulo 455261" width="38.951" height="37.623" fill="#e6fffa"/>
    </clipPath>
    <clipPath id="clip-path-2">
      <rect id="Rectángulo_457632" data-name="Rectángulo 457632" width="80.768" height="91.661" fill="#5d0b80"/>
    </clipPath>
  </defs>
  <g id="Grupo_1205861" data-name="Grupo 1205861" transform="translate(-307.436 -10011.92)">
    <path id="Sustracción_130" data-name="Sustracción 130" d="M26.051,25.795H0V11.245H11.352V0h14.7V25.795Z" transform="translate(431.641 10038.471) rotate(-90)" fill="#e3a4fe" stroke="rgba(0,0,0,0)" stroke-miterlimit="10" stroke-width="1"/>
    <g id="Grupo_1178100" data-name="Grupo 1178100" transform="translate(307.436 10162.421) rotate(-90)">
      <path id="Trazado_998183" data-name="Trazado 998183" d="M0,0V37.623H25.58V24.056H38.951V0Z" transform="translate(0 0)" fill="#5d0b80"/>
      <g id="Grupo_1178099" data-name="Grupo 1178099" transform="translate(0 0)">
        <g id="Grupo_1178098" data-name="Grupo 1178098" clip-path="url(#clip-path)">
          <path id="Trazado_998184" data-name="Trazado 998184" d="M0,9.021a9.025,9.025,0,1,1,9.025,9.021A9.023,9.023,0,0,1,0,9.021" transform="translate(4.434 5.629)" fill="#e3a4fe"/>
        </g>
      </g>
    </g>
    <g id="Grupo_1177470" data-name="Grupo 1177470" transform="translate(308.059 10012.421)">
      <circle id="Elipse_13609" data-name="Elipse 13609" cx="74.688" cy="74.688" r="74.688" fill="#fff"/>
      <g id="Grupo_1099776" data-name="Grupo 1099776" transform="translate(28.822 28.945)">
        <g id="Grupo_1099618" data-name="Grupo 1099618" transform="translate(0.267 -0.366)">
          <rect id="Rectángulo_401104" data-name="Rectángulo 401104" width="90.569" height="91.661" transform="translate(0)" fill="none"/>
        </g>
        <g id="Grupo_1206766" data-name="Grupo 1206766" transform="translate(5.266 -0.366)">
          <g id="Grupo_1206765" data-name="Grupo 1206765" clip-path="url(#clip-path-2)">
            <path id="Trazado_1264610" data-name="Trazado 1264610" d="M13.873,63.895c.467-.547,1.633-.973,2.016-1.386.9-.967,1.463-2.41,2.871-3.283,2.032-1.259,2.795.021,3.322-.071a18.438,18.438,0,0,0,2.407-1.812c.571-1.172-2.069-2.33-2.2-2.8-.17-.592.2-1.133.164-1.714-.177-2.648-1.429-4.867-1.259-8.192.107-2.084,1.147-4.392,1.259-6.076.038-.581-.335-1.123-.164-1.714.184-.635.965-.6,1.389-.985.568-.515,1.117-1.968,1.716-2.6-1.314.189-3.652-.1-3.1-1.914.462-1.517,4.529-.76,5.8-1.022l3.326-2.565H23.429c-1.146,0-2.154-2.64.507-2.9l46.634,0a1.463,1.463,0,0,1,.248,2.894h-18.2l3.54,2.613c4.165.574,10.663-.8,14.543.119a1.394,1.394,0,0,1,.114,2.766H58.644l2.014,2.829,10.816.18.478.58c.419.508-.55,1.909-.872,1.909H61.524l.958,2.891,8.993.117c.83.577.543,2.49-.395,2.49H62.571v2.88H71.08c.938,0,1.225,1.913.395,2.49l-8.993.117-.958,2.891H71.08c.511,0,1.568,1.913.394,2.488l-10.816.18-2.014,2.83H70.818A1.394,1.394,0,0,1,70.7,60.9c-3.881.919-10.379-.456-14.543.119l-3.54,2.613h18.2c1.206,0,1.854,2.527-.007,2.873l-41.755,0c.272,1.243-.416,1.852-.784,2.882H67.938c5.517,0,9.429-5.249,9.827-10.333.561-7.156-.428-15.041-.021-22.276.228-1.7,2.444-1.821,2.641.525a208.123,208.123,0,0,1,0,25.157,24.852,24.852,0,0,1-5.637,14.261c-5.8,6.866-13.364,14.02-22.771,14.669-12.119.836-25.208-.629-37.428-.034-2.356-.439-3.515-2.392-3.56-4.69C9.826,87.5,8.731,88.1,7.348,87.3c-.5-.284-6.462-6.22-6.83-6.783a2.552,2.552,0,0,1,.15-3.257L10.987,66.638l0-62.055c.185-2.15.985-3.776,3.133-4.46L76.327,0a4.2,4.2,0,0,1,4.049,3.806l-.008,26.961c-.253,1.364-2.324,1.744-2.6.261l0-26.7a1.6,1.6,0,0,0-1.037-1.581l-62.062.02a6.776,6.776,0,0,0-.79.78ZM39.211,27.836c-11.512,1.294-18.183,14.29-13.944,24.8.442,1.1,2.492,3.94,2.5,4.581.024,1.424-2.59,3.083-3.419,4.194l1.959,1.959c1.011-.722,2.785-3.37,3.928-3.427,1.083-.054,2.129,1.147,3.1,1.643,16.366,8.391,33.329-9.214,24.211-25-3.847-6.66-10.751-9.6-18.335-8.749M20.323,61.557,18.6,63.466l5.836,5.646L26.159,67.2Zm-7.666,18.2c.188.118.351.314.6.324l8.973-8.764-5.646-5.836-8.96,8.8.027.555c1.708.922,3.546,4,5,4.917m44.678,7.7c.234.191,2.465-.944,2.884-1.171,4.37-2.371,12.831-10.823,15.134-15.237a17.083,17.083,0,0,0,1.092-2.7,14.031,14.031,0,0,1-7.987,3.661c-1.348.12-6.648-.355-7.221.372-.541.685-.121,5.492-.241,6.829a14.149,14.149,0,0,1-3.661,8.249m1.047-15.445H24.869c-.129,1.306-1.491,1.847-2.095,2.88H58.12Zm-.262,5.5H23.167c-.959,0-.92-1.463-1.046-2.093l-8.113,8.12c-.064,1.758-.994,5.243,1.55,5.248,10.637-.663,22.23.826,32.753-.007C54.279,88.3,58.734,83.6,58.12,77.509M5.4,76.481,2.9,79.175l5.836,5.646,2.5-2.694Z" transform="translate(0)" fill="#5d0b80"/>
            <path id="Trazado_1264611" data-name="Trazado 1264611" d="M76.647,34.337v5.5h47.127v-5.5h-39.4a1.459,1.459,0,0,1-.28-2.377l41.6-.2c.522.175.646.906.7,1.392a56.364,56.364,0,0,1-.012,8.376,1.541,1.541,0,0,1-1.679,1.2L75.223,42.7a1.546,1.546,0,0,1-1.44-1.44,62.841,62.841,0,0,1,.12-8.748c.472-1.07,4.18-.98,5.223-.784.864.162,1.055.889.924,1.68-.241,1.461-2.369.8-3.4.931" transform="translate(-54.396 -23.33)" fill="#5d0b80"/>
            <path id="Trazado_1264612" data-name="Trazado 1264612" d="M114.883,146.368c-1.3-3.143,2.656-2.111,4.49-2.322,12.769-1.468,14.663-20.575,1.865-24.325-12.086-3.541-21.2,10.47-13.36,19.906,1.03,1.24,3.8,2.655,3.235,4.273-.891,2.564-5.14-2.307-5.827-3.252a15.206,15.206,0,1,1,26.672-4.177c-2.158,6.787-10.036,11.88-17.075,9.9" transform="translate(-75.55 -85.94)" fill="#5d0b80"/>
            <path id="Trazado_1264613" data-name="Trazado 1264613" d="M139.113,148.092c4.051-.658,6.278,3.621,3.871,6.75a72.018,72.018,0,0,1-6.591,6.5,4.4,4.4,0,0,1-4.2.091,54.128,54.128,0,0,1-5.426-5.309,4.153,4.153,0,0,1,5.015-6.062c1.094.359,1.529,1.461,2.522,1.874,1.55-1.15,2.809-3.519,4.811-3.845m.524,2.593c-1.662.328-4.3,5.335-6.038,4.389-1-.545-2-2.514-3.206-2.591-1.327-.084-1.71,1.033-1.368,2.169a47.58,47.58,0,0,0,4,4.11c.5.352.838.641,1.5.477.588-.145,6.1-5.479,6.449-6.138.636-1.214.057-2.693-1.342-2.417" transform="translate(-93.105 -109.269)" fill="#5d0b80"/>
          </g>
        </g>
      </g>
    </g>
  </g>
</svg>
