<svg xmlns="http://www.w3.org/2000/svg" xmlns:xlink="http://www.w3.org/1999/xlink" width="96" height="96" viewBox="0 0 96 96">
  <defs>
    <clipPath id="clip-path">
      <rect id="Rect치ngulo_457342" data-name="Rect치ngulo 457342" width="57.855" height="57.853" fill="#fff"/>
    </clipPath>
  </defs>
  <g id="Grupo_1206107" data-name="Grupo 1206107" transform="translate(-383.746 -8400.001)">
    <path id="Trazado_997400" data-name="Trazado 997400" d="M48,0A48,48,0,1,1,0,48,48,48,0,0,1,48,0Z" transform="translate(383.746 8400.001)" fill="#5d0b80"/>
    <g id="Grupo_1099776" data-name="Grupo 1099776" transform="translate(401.746 8418)">
      <g id="Grupo_1099618" data-name="Grupo 1099618" transform="translate(-0.035 -0.409)">
        <rect id="Rect치ngulo_401104" data-name="Rect치ngulo 401104" width="59.378" height="60.093" transform="translate(0)" fill="none"/>
      </g>
      <g id="Grupo_1206546" data-name="Grupo 1206546" transform="translate(0.964 1.591)">
        <g id="Grupo_1206545" data-name="Grupo 1206545" clip-path="url(#clip-path)">
          <path id="Trazado_1263622" data-name="Trazado 1263622" d="M41.023,34.367c.559-.473,1.185-1.054,1.849-.391,3.923,4.359,8.871,8.289,12.691,12.681,6.31,7.256-1.626,15.394-9.047,8.715-.777-.7-1.359-1.562-2.063-2.251C40.973,49.714,37.416,46.362,34,42.847c-.857-.907.352-1.591.824-2.315l-2.757-2.718c-.831.319-1.519.9-2.321,1.278A20.639,20.639,0,0,1,.582,15.731C3.837,1.762,20.456-4.51,32.3,3.59a20.9,20.9,0,0,1,5.543,28.453L40.714,34.8c.121-.03.195-.34.309-.437M18.875,1.852C4.843,3.017-2.884,19.213,4.911,30.975A18.814,18.814,0,1,0,18.875,1.852M36.736,33.481l-3.23,3.23L36.1,39.27l3.2-3.079Zm5.33,2.5L36,42.041a16.345,16.345,0,0,0,2.426,2.53.448.448,0,0,0,.472-.138c.675-1.063,5.5-5.029,5.7-5.764.061-.231-.026-.3-.138-.472a17.4,17.4,0,0,0-2.392-2.219m3.957,3.805L39.807,46l1.55,1.4c1.229-.792,1.824-2.928,3.426-1.733a33.179,33.179,0,0,1,3.4,3.4c.236.3.616.787.511,1.169-.152.555-2.253,2.22-2.253,2.4l1.55,1.4,6.064-6.184-1.4-1.429c-.642.474-1.99,2.406-2.792,2.276a30.76,30.76,0,0,1-4.515-4.426c-.376-1.164,1.506-2.027,2.071-2.933Zm1.805,3.705c-.127.19-.287.346-.154.6L50.026,46.4l1.384-1.232-2.59-2.558c-.174-.031-.888.723-.991.876m-3.938,4.1-1.264,1.232,2.567,2.567L46.425,50c-.376-.345-2.244-2.467-2.536-2.415m5.766,7.344c-.618.539.757.877,1.152.961,4.241.9,6.454-2.884,4.583-6.492Z" transform="translate(0 0)" fill="#fff"/>
          <path id="Trazado_1263623" data-name="Trazado 1263623" d="M38.325,22.033a16.92,16.92,0,1,1-12.87,26.7,16.963,16.963,0,0,1,12.87-26.7m-.331,1.825C25.832,24.915,19.7,39.392,27.75,48.763a15.1,15.1,0,0,0,24.625-2.4c5.912-10.477-2.408-23.547-14.381-22.507" transform="translate(-18.621 -18.358)" fill="#fff"/>
          <path id="Trazado_1263624" data-name="Trazado 1263624" d="M61.423,48.1c.814,1.017,2.976-1.073,4.014-1.123.145,0,.235.1.346.161.152.09,2.38,2.172,2.566,2.409,1.189,1.516-1.251,2.873-.969,4.276.2,1,2.8.9,3.538,1.613a29.736,29.736,0,0,1,.048,4.531c-.255.853-2.974.871-3.436,1.537-.774,1.115,1.527,2.74,1.112,4.1a31.59,31.59,0,0,1-2.787,2.849C64.6,69,63.072,67.044,62,67.242c-1.088.2-.915,2.891-1.782,3.54l-4.534.056c-.651-.221-.859-3.015-1.271-3.372-1.318-1.143-3.086,2.127-4.819.668-.282-.237-2.323-2.421-2.4-2.581-.4-.858,1.465-2.78,1.383-3.52-.156-1.406-3.027-1.039-3.606-1.878a17.119,17.119,0,0,1-.144-4.429c.222-.77,2.335-.953,3.044-1.268,1.943-.862-1.107-3.084-.73-4.369a30.308,30.308,0,0,1,3.077-3.077c1.025-.3,2.662,1.529,3.535,1.4,1.379-.206.944-3.2,1.987-3.663a15.2,15.2,0,0,1,4.545.093c.578.4.715,2.738,1.133,3.261m7.894,10.8-.053-2.139c-.219-.327-2.281-.571-2.831-.983a4.2,4.2,0,0,1-1-2.83c.154-.488,1.4-2.027,1.18-2.477l-1.5-1.458-2.68,1.41a16.052,16.052,0,0,1-2.037-.715c-.828-.455-.932-2.233-1.251-3.061l-2.4-.154-.829,2.9c-.612.337-2.021,1.16-2.66,1-1.565-.387-2.439-2.613-3.985.158l1.319,2.813a19.95,19.95,0,0,1-.838,2.134c-.467.713-3.109,1.017-3.139,1.195l.033,2.2,2.917.9c.182.7,1.123,1.994.971,2.608-.116.47-1.434,2.466-1.348,2.657l1.524,1.463c1.006-.2,2.052-1.475,3.086-1.27.127.025,1.643.65,1.77.728.975.595.772,3.067,1.585,3.224a15.855,15.855,0,0,0,1.887-.024c.178-.115.532-2.486.94-2.957A11.625,11.625,0,0,1,62,65.256c1.038-.207,2.188,1.072,2.985,1.273.426.107,1.5-1.122,1.7-1.549-.191-.663-1.267-1.919-1.328-2.5a5.5,5.5,0,0,1,1.109-2.691c.446-.264,2.738-.713,2.847-.884" transform="translate(-37.331 -37.221)" fill="#fff"/>
          <path id="Trazado_1263625" data-name="Trazado 1263625" d="M87.611,80.018C95.87,79.3,98.547,91.3,90.794,94.143c-10.415,3.824-14.071-13.183-3.182-14.126m.168,1.816c-7.165.569-6.48,11.669,1.109,10.9,6.812-.689,5.967-11.463-1.109-10.9" transform="translate(-67.577 -66.722)" fill="#fff"/>
        </g>
      </g>
    </g>
  </g>
</svg>
