<svg xmlns="http://www.w3.org/2000/svg" xmlns:xlink="http://www.w3.org/1999/xlink" width="96" height="96" viewBox="0 0 96 96">
  <defs>
    <clipPath id="clip-path">
      <rect id="Rectángulo_457355" data-name="Rectángulo 457355" width="47.25" height="59.942" fill="#fff"/>
    </clipPath>
  </defs>
  <g id="Grupo_1206110" data-name="Grupo 1206110" transform="translate(-383.746 -8400.001)">
    <path id="Trazado_997400" data-name="Trazado 997400" d="M48,0A48,48,0,1,1,0,48,48,48,0,0,1,48,0Z" transform="translate(383.746 8400.001)" fill="#5d0b80"/>
    <g id="Grupo_1099776" data-name="Grupo 1099776" transform="translate(401.746 8418)">
      <g id="Grupo_1099618" data-name="Grupo 1099618" transform="translate(-0.035 -0.409)">
        <rect id="Rectángulo_401104" data-name="Rectángulo 401104" width="59.378" height="60.093" transform="translate(0)" fill="none"/>
      </g>
      <g id="Grupo_1206550" data-name="Grupo 1206550" transform="translate(5.966 -0.409)">
        <g id="Grupo_1206549" data-name="Grupo 1206549" clip-path="url(#clip-path)">
          <path id="Trazado_1263629" data-name="Trazado 1263629" d="M101.8,17.906l-2.2,1.333c.079,3.124-1.174,5.826-4.751,5.327a3.882,3.882,0,0,1-2.928-2.985,30.442,30.442,0,0,1,.041-6.164,4.006,4.006,0,0,1,1.643-2.364c1.637-1.106,4.185-.088,4.439-2.808a2.413,2.413,0,0,0-4.624-1.193c-.407,1.026-.1,1.895-.813,3a3.8,3.8,0,0,1-6.741-.828,7.582,7.582,0,0,1,.476-4.769H73.09A1.044,1.044,0,0,1,73.131,4.4l14.362-.137c6.845-9.557,21.717-1.577,17.455,9.442-.188.487-1.238,2.07-1.238,2.2V42.04c-.487.823-1.908.394-1.908-.382ZM93.931,2.117C90.54,2.645,87.1,6.871,87.7,10.359a1.817,1.817,0,0,0,3.524.112,15.987,15.987,0,0,1,.379-2.1,4.38,4.38,0,1,1,6.33,5.376c-1.418.861-3.691.209-4.095,2.2a28.673,28.673,0,0,0,0,5.255,1.82,1.82,0,0,0,2.917,1.1c1.382-1.074.11-3.415.956-4.386.267-.307,2.145-.984,2.852-1.536,6.657-5.195,2.063-15.611-6.627-14.258" transform="translate(-58.454 0)" fill="#fff"/>
          <path id="Trazado_1263630" data-name="Trazado 1263630" d="M3.543,25.981a5.823,5.823,0,0,0-1.6,3.835V70.659a5.389,5.389,0,0,0,4.295,5.054l33.308-.089c5.572-1.692,3.176-7.386,3.818-11.445a.954.954,0,0,1,1.891-.2c-.3,3.107.747,7.284-.8,10.07A7.618,7.618,0,0,1,38.3,77.813c-10.066.784-21.131-.607-31.3,0A7.494,7.494,0,0,1,.288,72.5C-.267,58.021.171,43.419.066,28.894c.738-4.956,5.146-6.955,9.806-6.42,1.466.169,1.721,1.639.482,2.017-2.328.71-4.35-.844-6.81,1.489" transform="translate(0 -18.119)" fill="#fff"/>
          <path id="Trazado_1263631" data-name="Trazado 1263631" d="M30.651,71.4a36.329,36.329,0,0,1,6.3-.031,3.685,3.685,0,0,1,2.794,2.155,21.667,21.667,0,0,1,0,8.031,3.684,3.684,0,0,1-2.794,2.155,39.189,39.189,0,0,1-6.171.016,3.509,3.509,0,0,1-3.093-3.093,39.351,39.351,0,0,1,.043-6.5,3.45,3.45,0,0,1,2.92-2.735M31,73.168a1.681,1.681,0,0,0-1.533,1.471,36.184,36.184,0,0,0-.016,5.648c.149,1.248.881,1.581,2.029,1.682,1.072.094,5.281.134,6.023-.354a1.743,1.743,0,0,0,.477-.583,38.71,38.71,0,0,0,.138-6.409c-.121-1.041-.9-1.392-1.859-1.5a30.5,30.5,0,0,0-5.26.043" transform="translate(-22.313 -57.658)" fill="#fff"/>
          <path id="Trazado_1263632" data-name="Trazado 1263632" d="M30.47,157.39a38.222,38.222,0,0,1,6.481-.027,3.685,3.685,0,0,1,2.794,2.155,21.666,21.666,0,0,1,0,8.031,3.684,3.684,0,0,1-2.794,2.155,37.985,37.985,0,0,1-5.823.022,3.467,3.467,0,0,1-3.44-3.1,39.351,39.351,0,0,1,.043-6.5,3.572,3.572,0,0,1,2.739-2.739M31,159.158a1.681,1.681,0,0,0-1.533,1.471,36.184,36.184,0,0,0-.016,5.648,1.6,1.6,0,0,0,1.275,1.553,27.261,27.261,0,0,0,5.534.122c.606-.068,1.468-.334,1.722-.929a40.283,40.283,0,0,0,.137-6.41,1.5,1.5,0,0,0-.847-1.274C36.509,159,31.966,159,31,159.158" transform="translate(-22.313 -128.448)" fill="#fff"/>
          <path id="Trazado_1263634" data-name="Trazado 1263634" d="M30.47,157.39a38.222,38.222,0,0,1,6.481-.027,3.685,3.685,0,0,1,2.794,2.155,21.666,21.666,0,0,1,0,8.031,3.684,3.684,0,0,1-2.794,2.155,37.985,37.985,0,0,1-5.823.022,3.467,3.467,0,0,1-3.44-3.1,39.351,39.351,0,0,1,.043-6.5,3.572,3.572,0,0,1,2.739-2.739M31,159.158a1.681,1.681,0,0,0-1.533,1.471,36.184,36.184,0,0,0-.016,5.648,1.6,1.6,0,0,0,1.275,1.553,27.261,27.261,0,0,0,5.534.122c.606-.068,1.468-.334,1.722-.929a40.283,40.283,0,0,0,.137-6.41,1.5,1.5,0,0,0-.847-1.274C36.509,159,31.966,159,31,159.158" transform="translate(-22.313 -113.627)" fill="#fff"/>
          <path id="Trazado_1263633" data-name="Trazado 1263633" d="M178.427,139.781c5.819-.992,6.206,8.279-.028,7.378-3.805-.55-4-6.69.028-7.378m.382,1.894c-1.931.393-1.875,3.425.144,3.608,2.807.255,2.547-4.155-.144-3.608" transform="translate(-141.996 -113.053)" fill="#fff"/>
          <rect id="Rectángulo_457351" data-name="Rectángulo 457351" width="11.637" height="1.676" transform="translate(18.879 16.486)" fill="#fff"/>
          <rect id="Rectángulo_457352" data-name="Rectángulo 457352" width="11.637" height="1.676" transform="translate(18.879 20.989)" fill="#fff"/>
          <rect id="Rectángulo_457353" data-name="Rectángulo 457353" width="12.922" height="1.676" transform="translate(18.879 31.881)" fill="#fff"/>
          <rect id="Rectángulo_457356" data-name="Rectángulo 457356" width="20.922" height="1.676" transform="translate(18.879 46.703)" fill="#fff"/>
          <rect id="Rectángulo_457354" data-name="Rectángulo 457354" width="12.922" height="1.676" transform="translate(18.879 36.385)" fill="#fff"/>
          <rect id="Rectángulo_457357" data-name="Rectángulo 457357" width="20.922" height="1.676" transform="translate(18.879 51.206)" fill="#fff"/>
        </g>
      </g>
    </g>
  </g>
</svg>
