<svg xmlns="http://www.w3.org/2000/svg" xmlns:xlink="http://www.w3.org/1999/xlink" width="160.5" height="160.501" viewBox="0 0 160.5 160.501">
  <defs>
    <clipPath id="clip-path">
      <rect id="Rectángulo_455261" data-name="Rectángulo 455261" width="38.951" height="37.623" fill="#e6fffa"/>
    </clipPath>
    <clipPath id="clip-path-2">
      <rect id="Rectángulo_457341" data-name="Rectángulo 457341" width="70.375" height="91.661" fill="#5d0b80"/>
    </clipPath>
  </defs>
  <g id="Grupo_1206101" data-name="Grupo 1206101" transform="translate(-307.436 -10011.92)">
    <path id="Sustracción_130" data-name="Sustracción 130" d="M26.051,25.795H0V11.245H11.352V0h14.7V25.795Z" transform="translate(441.641 10038.471) rotate(-90)" fill="#e3a4fe" stroke="rgba(0,0,0,0)" stroke-miterlimit="10" stroke-width="1"/>
    <g id="Grupo_1178100" data-name="Grupo 1178100" transform="translate(307.436 10172.421) rotate(-90)">
      <path id="Trazado_998183" data-name="Trazado 998183" d="M0,0V37.623H25.58V24.056H38.951V0Z" transform="translate(0 0)" fill="#5d0b80"/>
      <g id="Grupo_1178099" data-name="Grupo 1178099" transform="translate(0 0)">
        <g id="Grupo_1178098" data-name="Grupo 1178098" clip-path="url(#clip-path)">
          <path id="Trazado_998184" data-name="Trazado 998184" d="M0,9.021a9.025,9.025,0,1,1,9.025,9.021A9.023,9.023,0,0,1,0,9.021" transform="translate(4.434 5.629)" fill="#e3a4fe"/>
        </g>
      </g>
    </g>
    <g id="Grupo_1177470" data-name="Grupo 1177470" transform="translate(308.059 10012.421)">
      <circle id="Elipse_13609" data-name="Elipse 13609" cx="79.688" cy="79.688" r="79.688" fill="#f0d5fe"/>
      <g id="Grupo_1099776" data-name="Grupo 1099776" transform="translate(33.723 33.96)">
        <g id="Grupo_1099618" data-name="Grupo 1099618" transform="translate(0.336 0.273)">
          <rect id="Rectángulo_401104" data-name="Rectángulo 401104" width="90.569" height="91.661" transform="translate(0)" fill="none"/>
        </g>
        <g id="Grupo_1206544" data-name="Grupo 1206544" transform="translate(10.337 0.273)">
          <g id="Grupo_1206543" data-name="Grupo 1206543" clip-path="url(#clip-path-2)">
            <path id="Trazado_1263616" data-name="Trazado 1263616" d="M9.275.975A1.8,1.8,0,0,1,9.746.254L55.364,0,69.936,12.609l.439,1.523L70.1,81.906a1.888,1.888,0,0,1-.721.471H62.8v7.986c0,.34-.975,1.472-1.527,1.275L.875,91.477A1.681,1.681,0,0,1,.01,89.82L.287,9.712a1.888,1.888,0,0,1,.721-.471H9.275c.312-2.462-.421-5.94,0-8.266m44.274,2.1H12.357V79.294H67.279V15.125H54.249a4.3,4.3,0,0,1-.7-.981Zm10.928,9.247c.1-.495-.253-.691-.556-.985-2.286-2.213-4.942-4.15-7.29-6.3v7.286Zm-55.2,0H3.11V88.542h56.6V82.377H9.975a4.677,4.677,0,0,1-.7-.7Z" transform="translate(0)" fill="#5d0b80"/>
            <path id="Trazado_1263617" data-name="Trazado 1263617" d="M80.339,70.932c20.354-2.067,33.4,20.52,20.911,36.883-10.149,13.294-31.3,11.078-38.655-3.892C55.73,89.95,64.778,72.512,80.339,70.932m0,3.078c-8.993,1.014-16.426,9.354-17.027,18.28-1.284,19.051,22.83,28.853,35.015,14.279,11.8-14.11.259-34.617-17.988-32.559" transform="translate(-43.381 -50.961)" fill="#5d0b80"/>
            <path id="Trazado_1263618" data-name="Trazado 1263618" d="M102.82,250.978c1.356.243,1.608,2.8-.834,3.089l-46.029-.219c-1.542-.648-.856-2.869-.213-2.869Z" transform="translate(-39.604 -180.65)" fill="#5d0b80"/>
            <path id="Trazado_1263619" data-name="Trazado 1263619" d="M77.386,44.171l26.026.2a1.393,1.393,0,0,1,0,2.285l-25.533.272a1.423,1.423,0,0,1-.493-2.762" transform="translate(-55.028 -31.794)" fill="#5d0b80"/>
            <path id="Trazado_1263620" data-name="Trazado 1263620" d="M95.072,111.5c2.16-1.218,4.216,1.5,2.227,2.652a74.182,74.182,0,0,1-8.014,1.811c-1.334.1-1.95-.4-2.01-1.729,1.084-1.682,1.75-6.15,2.9-7.484a1.544,1.544,0,0,1,2.685.973c.02.567-.465,1.112-.172,1.537,4.616-4.244,8.972-7.151,15.238-4.027,1.047.522,5.972,3.8,6.335,4.594a1.566,1.566,0,0,1-1.885,2.177c-.873-.221-4.258-3.194-5.629-3.912-2.973-1.555-4.631-1.625-7.664,0a15.134,15.134,0,0,0-4.012,3.411" transform="translate(-62.819 -74.803)" fill="#5d0b80"/>
            <path id="Trazado_1263621" data-name="Trazado 1263621" d="M122.772,160.278a1.7,1.7,0,0,1,.332.93c.014.775-2.53,7.122-3.069,7.545a1.482,1.482,0,0,1-2.408-.686c-.248-.748.488-1.485-.247-1.409-3.506,3.381-8.159,5.978-13.093,4.4a18.376,18.376,0,0,1-7.224-5.1c-1.075-1.5.147-2.815,1.761-2.326.409.124,3.368,3,4.5,3.634,5.033,2.841,8.759.223,12.515-3.27-.568-.2-1.107.2-1.811.161a1.475,1.475,0,0,1-.817-2.789,47.226,47.226,0,0,1,7.544-1.436,3.307,3.307,0,0,1,2.023.349" transform="translate(-69.572 -115.103)" fill="#5d0b80"/>
          </g>
        </g>
      </g>
    </g>
  </g>
</svg>
