<svg id="Grupo_1206126" data-name="Grupo 1206126" xmlns="http://www.w3.org/2000/svg" xmlns:xlink="http://www.w3.org/1999/xlink" width="127.15" height="128" viewBox="0 0 127.15 128">
  <defs>
    <clipPath id="clip-path">
      <rect id="Rectángulo_457384" data-name="Rectángulo 457384" width="72.18" height="72.129" fill="none"/>
    </clipPath>
  </defs>
  <ellipse id="Elipse_13609" data-name="Elipse 13609" cx="63.576" cy="64" rx="63.576" ry="64" transform="translate(0)" fill="#fff"/>
  <g id="Grupo_1099776" data-name="Grupo 1099776" transform="translate(23.841 24)">
    <g id="Grupo_1099618" data-name="Grupo 1099618" transform="translate(0 0)">
      <rect id="Rectángulo_401104" data-name="Rectángulo 401104" width="78.645" height="80.124" transform="translate(0)" fill="none"/>
    </g>
    <g id="Grupo_1206562" data-name="Grupo 1206562" transform="translate(3.232 3.997)">
      <g id="Grupo_1206561" data-name="Grupo 1206561" clip-path="url(#clip-path)">
        <path id="Trazado_1263701" data-name="Trazado 1263701" d="M18.672,11.67c.018-3.887-.013-7.783,0-11.67h6.684a2.129,2.129,0,0,1,.318.318V6.365a31.378,31.378,0,0,1,24.3,1.693,27.161,27.161,0,0,1,1.839-3.672c6.89-9.357,21.456-2.334,18.534,8.986-.828,3.207-2.542,4-4.571,6.038C63.5,21.692,66,26.7,66.557,29.454A49.049,49.049,0,0,1,67.271,35c2.549.269,4.357,2.826,4.635,5.231.841,7.292-.571,16.068.01,23.516-1.107,1.84-2.617,6.7-4.369,7.726a3.131,3.131,0,0,1-3.9-.708,65.265,65.265,0,0,1-3.392-6.58V55.8a31.788,31.788,0,0,1-37.326,8.681c-.125-.177.1-1,.195-1.254.02-.051.414-.794.451-.822.256-.192,5.163,1.576,6.124,1.779,1.69.357,3.4.473,5.094.741v-14H31.721c-.377,0-.674-2.031-.759-2.1-.545-.465-2,.755-2.463.8-.481.044-5.272-5.245-6.125-5.913-.247-.5,1.225-2.161.735-2.736-.072-.085-2.1-.381-2.1-.759V37.131H7.214c-.154,2.548.6,4.967,1.062,7.426,3.129-1.412,6.875.433,6.787,4.033,1.843-.062,3.986-.189,5.185,1.5a9.825,9.825,0,0,1,.757,1.577v6.259c-1.4-.009-3.762-.3-4.456,1.273-1.3,2.961,2.253,3.825,4.456,3.395v6.259a13.421,13.421,0,0,1-.546,1.364,4.373,4.373,0,0,1-2.412,1.619,102.055,102.055,0,0,1-14.92.043A3.885,3.885,0,0,1,.592,70.17,12.961,12.961,0,0,1,0,68.852V62.593c1.788.108,4.612.22,4.686-2.226C4.766,57.736,1.914,57.8,0,57.925V51.665a9.825,9.825,0,0,1,.757-1.577c1.2-1.687,3.342-1.56,5.185-1.5-.241-.909.459-1.606.436-2.433a22.688,22.688,0,0,0-.8-2.829c-1.652-7.814-.945-15.273,2.909-22.323H0V9.336H7v9.336H9.336v-14h7c.006,2.755-.008,5.52,0,8.275.006,1.907,0,3.823,0,5.73h2.336c.006-2.331-.012-4.672,0-7m4.668,7V2.652c0-.487-1.909-.289-2.334-.318V18.672ZM62.585,21c.056-.053.126-1.132.285-1.52.815-2,2.407-2.277,3.651-3.774a8.129,8.129,0,1,0-12.8-.357c1.4,1.937,3.046,1.88,4.006,4.481.3.8-.085,1.537,1.126,1.148.282-.091.3-.243.349-.5a48.625,48.625,0,0,0,0-6.367c-.11-.582-1.632-.968-2.1-2.142a3.477,3.477,0,0,1,5.5-4.017,3.513,3.513,0,0,1,.417,4.673c-.621.79-1.6.787-1.708,1.687a56.633,56.633,0,0,0,.042,6.348c.136.413,1.1.464,1.236.34M14,7H11.67v11.67H14ZM34.8,7c-3.143.453-6.537.617-9.336,2.228V21.006H11.352A25.484,25.484,0,0,0,7.214,34.8H21.006V31.721c0-.322,1.979-.624,2.1-.763.5-.575-.979-2.232-.731-2.732.853-.668,5.644-5.957,6.125-5.913.461.042,1.914,1.264,2.459.792.139-.12.44-2.1.763-2.1H34.8Zm2.334.212V21.006h3.077c.377,0,.674,2.031.759,2.1.626.534,2.246-1.131,2.852-.637l5.735,5.753c.247.5-1.225,2.161-.735,2.736.072.085,2.1.382,2.1.759V34.8h14l-1.275-7.427c-1.736.474-5.038.9-6.561-.12-2.972-1.985-.243-5.721-2.344-7.84-2.3-2.319-3.569-2.649-4.568-6.254a16.277,16.277,0,0,0-.525-2.658,20.435,20.435,0,0,0-3.346-1.534,25.322,25.322,0,0,0-9.176-1.751M59.994,9.371a1.176,1.176,0,0,0-.166,2.211,1.155,1.155,0,1,0,.166-2.211M4.668,11.67H2.334v7H4.668ZM39.089,24.775c-.233-.279-.076-1.227-.608-1.407a41.555,41.555,0,0,0-4.854-.032c-.816.157-.493,1.084-.788,1.438a10.53,10.53,0,0,1-2.579.893c-.554-.047-1.046-.572-1.608-.32a43.737,43.737,0,0,0-3.3,3.3c-.252.562.273,1.054.32,1.608a10.533,10.533,0,0,1-.893,2.579c-.28.233-1.227.076-1.407.608a43.98,43.98,0,0,0,0,5.034c.179.532,1.127.375,1.407.608a10.533,10.533,0,0,1,.893,2.579c-.047.554-.572,1.046-.32,1.608a43.738,43.738,0,0,0,3.3,3.3c.562.252,1.054-.273,1.608-.32a10.533,10.533,0,0,1,2.579.893c.233.28.076,1.227.608,1.407a43.983,43.983,0,0,0,5.034,0c.532-.179.375-1.127.608-1.407a10.533,10.533,0,0,1,2.579-.893c.554.047,1.046.572,1.608.32a43.739,43.739,0,0,0,3.3-3.3c.252-.562-.273-1.054-.32-1.608a10.533,10.533,0,0,1,.893-2.579c.28-.233,1.227-.076,1.407-.608a43.983,43.983,0,0,0,0-5.034c-.179-.532-1.127-.375-1.407-.608a10.533,10.533,0,0,1-.893-2.579c.047-.554.572-1.046.32-1.608a43.738,43.738,0,0,0-3.3-3.3c-.578-.259-1.249.4-1.988.323a18.8,18.8,0,0,1-2.2-.9m23.5-1.436c-.164-.166-4.026.124-4.668,0-.039.69-.121,1.675.641,2.011a9.491,9.491,0,0,0,3.385,0,1.966,1.966,0,0,0,.641-2.011M61.32,37.131h-10.4v3.077c0,.322-1.979.624-2.1.763-.5.575.979,2.232.731,2.732-.853.668-5.644,5.957-6.125,5.913-.461-.042-1.914-1.264-2.459-.792-.139.12-.44,2.1-.763,2.1H37.131v14c1.759-.268,3.519-.4,5.266-.781A28.552,28.552,0,0,0,60.214,51.621c.355-3.738-.325-7.944.047-11.623a7.673,7.673,0,0,1,1.058-2.867M69.594,41.8c.51-6.119-7.7-6.262-7,0Zm-4.668,2.334H62.593v18.46h2.334Zm4.668,0H67.26v18.46h2.334Zm-56.864,6.79V47.846A3.811,3.811,0,0,0,11.3,46.521c-3.018-.783-3.3,2.183-3.025,4.4H3.5c-1.536,0-1.167,3.664-1.157,4.659a4.677,4.677,0,1,1,0,9.355c.152,1.68-.766,4.388,1.577,4.663a91.382,91.382,0,0,0,12.958.006c2.636-.239,1.611-2.774,1.783-4.669a4.677,4.677,0,0,1,0-9.355c.01-.995.379-4.659-1.157-4.659Zm56.015,14h-5.3c.419.789,1.514,3.808,2.012,4.246a.8.8,0,0,0,1.233-.055c.761-1.259,1.281-2.908,2.059-4.191" fill="#060505"/>
        <path id="Trazado_1263702" data-name="Trazado 1263702" d="M43.26,197.067c.694-1.577,3.055-1.282,4.456-1.273v-6.259a9.825,9.825,0,0,0-.757-1.577c-1.2-1.687-3.342-1.56-5.185-1.5.088-3.6-3.659-5.446-6.787-4.033-.463-2.459-1.216-4.878-1.062-7.426H47.716v3.077c0,.378,2.031.674,2.1.759.489.575-.983,2.238-.735,2.736.853.668,5.644,5.957,6.125,5.913.46-.042,1.918-1.262,2.463-.8.085.073.382,2.1.759,2.1h3.077v14c-1.7-.268-3.4-.383-5.094-.74-.961-.2-5.868-1.971-6.124-1.779-.038.028-.432.771-.451.822Z" transform="translate(-26.71 -137.869)" fill="#fbf1ff"/>
        <path id="Trazado_1263703" data-name="Trazado 1263703" d="M79.329,55c-.011,2.331.007,4.672,0,7H76.994c0-1.907.007-3.823,0-5.73Z" transform="translate(-60.657 -43.33)" fill="#e3e6ea"/>
        <path id="Trazado_1263704" data-name="Trazado 1263704" d="M175,33.981a25.322,25.322,0,0,1,9.176,1.751,20.434,20.434,0,0,1,3.346,1.534,16.276,16.276,0,0,1,.525,2.658c1,3.6,2.27,3.935,4.568,6.254,2.1,2.12-.628,5.855,2.344,7.84,1.523,1.017,4.825.595,6.561.12l1.275,7.427h-14V58.488c0-.378-2.031-.674-2.1-.759-.49-.575.983-2.238.735-2.736l-5.735-5.753c-.607-.495-2.227,1.17-2.852.637-.085-.073-.382-2.1-.759-2.1H175Z" transform="translate(-137.869 -26.767)" fill="#fbf1ff"/>
        <path id="Trazado_1263705" data-name="Trazado 1263705" d="M199.188,175a7.673,7.673,0,0,0-1.058,2.867c-.372,3.68.309,7.886-.047,11.623a28.553,28.553,0,0,1-17.817,12.524c-1.746.383-3.506.514-5.266.781v-14h3.077c.323,0,.624-1.979.763-2.1.545-.471,2,.75,2.459.793.481.044,5.272-5.246,6.125-5.914.248-.5-1.228-2.156-.731-2.732.12-.139,2.1-.441,2.1-.763V175Zm-3.632,14.4c.11-.065,1.051-1.917,1.269-2.209a6.242,6.242,0,0,0-1.972-1.175,23.647,23.647,0,0,0-1.389,2.225c.385.3,1.685,1.4,2.093,1.158m-18.436,8.513c.206.52.056,2.173.557,2.316.589.168,4.791-1.2,5.65-1.522a23.909,23.909,0,0,0,9.9-6.814c-1.93-2.508-2.09-.832-3.7.5a25.385,25.385,0,0,1-12.407,5.524" transform="translate(-137.869 -137.87)" fill="#f0d5fe"/>
        <path id="Trazado_1263706" data-name="Trazado 1263706" d="M61.583,33V47H58.507c-.323,0-.624,1.979-.763,2.1-.545.472-2-.75-2.459-.792-.481-.044-5.272,5.245-6.125,5.913-.248.5,1.228,2.157.731,2.732-.12.139-2.1.441-2.1.763V60.8H34A25.484,25.484,0,0,1,38.137,47h14.11V35.228c2.8-1.611,6.193-1.775,9.336-2.228" transform="translate(-26.786 -25.998)" fill="#f0d5fe"/>
        <path id="Trazado_1263707" data-name="Trazado 1263707" d="M21.233,223.179h4.774c1.536,0,1.167,3.664,1.157,4.659a4.677,4.677,0,0,0,0,9.355c-.172,1.9.853,4.43-1.783,4.669a91.382,91.382,0,0,1-12.958-.006c-2.342-.275-1.425-2.983-1.577-4.663a4.677,4.677,0,1,0,0-9.355c-.01-.995-.379-4.659,1.157-4.659h4.774c-.271-2.219.006-5.185,3.025-4.4a3.811,3.811,0,0,1,1.431,1.325Z" transform="translate(-8.502 -172.256)" fill="#e3a4fe"/>
        <path id="Trazado_1263708" data-name="Trazado 1263708" d="M125.59,111.22a18.837,18.837,0,0,0,2.2.9c.739.075,1.41-.583,1.988-.323a43.772,43.772,0,0,1,3.3,3.3c.252.562-.273,1.054-.32,1.609a10.538,10.538,0,0,0,.893,2.578c.28.233,1.227.076,1.407.608a43.97,43.97,0,0,1,0,5.034c-.179.532-1.127.375-1.407.608a10.537,10.537,0,0,0-.893,2.578c.047.555.572,1.046.32,1.609a43.729,43.729,0,0,1-3.3,3.3c-.562.252-1.054-.273-1.608-.321a10.551,10.551,0,0,0-2.579.893c-.233.28-.076,1.228-.608,1.407a43.977,43.977,0,0,1-5.034,0c-.532-.179-.375-1.127-.608-1.407a10.548,10.548,0,0,0-2.579-.893c-.554.047-1.046.572-1.608.321a43.732,43.732,0,0,1-3.3-3.3c-.252-.562.273-1.054.321-1.609a10.538,10.538,0,0,0-.893-2.578c-.28-.233-1.227-.076-1.407-.608a43.977,43.977,0,0,1,0-5.034c.179-.532,1.127-.375,1.407-.608a10.538,10.538,0,0,0,.893-2.578c-.048-.555-.572-1.046-.321-1.609a43.735,43.735,0,0,1,3.3-3.3c.562-.252,1.054.273,1.608.321a10.548,10.548,0,0,0,2.579-.893c.3-.354-.028-1.282.788-1.438a41.509,41.509,0,0,1,4.854.032c.532.179.375,1.127.608,1.407m-4.55,2.019c-11.5,1.479-9.749,19.843,2.675,18.377,11.69-1.38,10.026-20.01-2.675-18.377" transform="translate(-86.501 -86.444)" fill="#e3a4fe"/>
        <path id="Trazado_1263709" data-name="Trazado 1263709" d="M256.148,29.84c-.132.124-1.1.073-1.236-.34a56.585,56.585,0,0,1-.041-6.348c.108-.9,1.087-.9,1.708-1.687a3.514,3.514,0,0,0-.417-4.673,3.477,3.477,0,0,0-5.5,4.017c.47,1.174,1.992,1.56,2.1,2.142a48.627,48.627,0,0,1,0,6.367c-.048.257-.067.409-.349.5-1.211.389-.83-.348-1.125-1.148-.961-2.6-2.606-2.544-4.006-4.481a8.129,8.129,0,1,1,12.8.357c-1.244,1.5-2.836,1.773-3.651,3.775-.158.388-.228,1.466-.285,1.519" transform="translate(-193.563 -8.842)" fill="#e3a4fe"/>
        <rect id="Rectángulo_457380" data-name="Rectángulo 457380" width="2.919" height="18.489" transform="translate(62.278 43.789)" fill="#f0d5fe"/>
        <rect id="Rectángulo_457381" data-name="Rectángulo 457381" width="2.919" height="18.489" transform="translate(67.143 43.789)" fill="#f0d5fe"/>
        <path id="Trazado_1263710" data-name="Trazado 1263710" d="M101.334,27.28H99V10.942c.425.029,2.334-.168,2.334.318Z" transform="translate(-77.994 -8.608)" fill="#e3a4fe"/>
        <rect id="Rectángulo_457382" data-name="Rectángulo 457382" width="1.946" height="11.677" transform="translate(11.677 6.812)" fill="#e3a4fe"/>
        <path id="Trazado_1263711" data-name="Trazado 1263711" d="M301.844,179.76h-7c-.7-6.262,7.512-6.119,7,0" transform="translate(-232.25 -137.961)" fill="#e3a4fe"/>
        <rect id="Rectángulo_457383" data-name="Rectángulo 457383" width="2.919" height="6.812" transform="translate(1.946 11.677)" fill="#e3a4fe"/>
        <path id="Trazado_1263712" data-name="Trazado 1263712" d="M304.3,306c-.779,1.283-1.3,2.932-2.059,4.191a.8.8,0,0,1-1.233.055c-.5-.438-1.593-3.457-2.012-4.246Z" transform="translate(-235.559 -241.073)" fill="#e3a4fe"/>
        <path id="Trazado_1263713" data-name="Trazado 1263713" d="M277.58,109.8a1.966,1.966,0,0,1-.641,2.011,9.491,9.491,0,0,1-3.385,0c-.762-.336-.681-1.321-.641-2.011.642.124,4.5-.166,4.668,0" transform="translate(-214.987 -86.465)" fill="#e3e6ea"/>
        <path id="Trazado_1263714" data-name="Trazado 1263714" d="M279.533,44.069a1.155,1.155,0,1,1-.166,2.211,1.177,1.177,0,0,1,.166-2.211" transform="translate(-219.539 -34.698)" fill="#e3e6ea"/>
        <path id="Trazado_1263715" data-name="Trazado 1263715" d="M185,255.846a25.384,25.384,0,0,0,12.407-5.524c1.615-1.327,1.774-3,3.7-.5a23.91,23.91,0,0,1-9.9,6.814c-.858.325-5.06,1.69-5.65,1.522-.5-.143-.351-1.8-.557-2.316" transform="translate(-145.745 -195.799)" fill="#060505"/>
        <path id="Trazado_1263716" data-name="Trazado 1263716" d="M264.113,230.321c-.408.24-1.708-.863-2.093-1.158a23.571,23.571,0,0,1,1.389-2.225,6.241,6.241,0,0,1,1.972,1.174c-.218.292-1.159,2.144-1.269,2.209" transform="translate(-206.425 -178.787)" fill="#060505"/>
        <path id="Trazado_1263717" data-name="Trazado 1263717" d="M134.156,125.907c12.7-1.633,14.365,17,2.675,18.377-12.425,1.466-14.174-16.9-2.675-18.377m.208,2.329c-8.415,1.226-7.192,14.856,2.255,13.713,8.667-1.049,7.4-15.12-2.255-13.713" transform="translate(-99.617 -99.112)" fill="#060505"/>
        <path id="Trazado_1263718" data-name="Trazado 1263718" d="M142.841,136.893c9.66-1.407,10.922,12.664,2.255,13.713-9.447,1.143-10.67-12.487-2.255-13.713" transform="translate(-108.094 -107.77)" fill="#e3e6ea"/>
      </g>
    </g>
  </g>
</svg>
