<svg id="Grupo_1206120" data-name="Grupo 1206120" xmlns="http://www.w3.org/2000/svg" xmlns:xlink="http://www.w3.org/1999/xlink" width="127.151" height="128" viewBox="0 0 127.151 128">
  <defs>
    <clipPath id="clip-path">
      <rect id="Rectángulo_457379" data-name="Rectángulo 457379" width="77.087" height="77.124" fill="none"/>
    </clipPath>
  </defs>
  <ellipse id="Elipse_13609" data-name="Elipse 13609" cx="63.576" cy="64" rx="63.576" ry="64" transform="translate(0)" fill="#fff"/>
  <g id="Grupo_1099776" data-name="Grupo 1099776" transform="translate(23.841 24)">
    <g id="Grupo_1099618" data-name="Grupo 1099618" transform="translate(0.202 0)">
      <rect id="Rectángulo_401104" data-name="Rectángulo 401104" width="78.645" height="80.124" transform="translate(0)" fill="none"/>
    </g>
    <g id="Grupo_1206560" data-name="Grupo 1206560" transform="translate(1.201 2)">
      <g id="Grupo_1206559" data-name="Grupo 1206559" clip-path="url(#clip-path)">
        <path id="Trazado_1263686" data-name="Trazado 1263686" d="M22.256,45.391c-.1-.334-.9-.533-1.247-.573C17.45,44.4,12.933,45.3,9.423,44.8a3.794,3.794,0,0,1-3.1-4.422c.649-5.365,10.116-1.826,13.3-3.527.619-1.36.8-4.224-1.143-4.529-5.6-.875-12.387,2.126-16.573-3.217A8.78,8.78,0,0,1,7.44,14.993a13.832,13.832,0,0,1,25.2-8.878c3.743-1.826,7.475-1.228,10.891.943.758-.019,4.35-4.608,5.032-4.74.759-.147,2.571,2.3,4.026,1.349C53.129,3.314,53.325.111,53.8,0l9.032.042c.81.273.467,3.612,1.863,3.839,1.339.217,2.394-1.58,3.735-1.493L74.7,8.66c.374.875-2.1,2.656-1.379,4.092.467.933,3.554.613,3.758,1.7l.007,8.839c-.112.472-3.315.668-3.668,1.209-.95,1.454,1.5,3.267,1.349,4.026-.082.423-2.7,2.554-2.7,2.763V77.123H27.26v-5H5.309a9.51,9.51,0,0,1-2.085-.872,6.156,6.156,0,0,1-1.663-9.472c.714-.857,2.66-2.167,3.747-2.167H22.256Zm2.73.227v13.99H27.26v-27.3h-2.5c.032-.455-.178-2.5.342-2.5H42.956c-2.072-1.654.2-2.547.588-4.095.548-2.18-3.623-1.752-3.783-2.424l.021-9.394c1.228-.266,4.371-.316,3.743-2.267A6.279,6.279,0,0,0,40,8.088c-3.764-1.433-8.467.437-9.715,4.382a23.161,23.161,0,0,1-.55,2.522c-.323.2-1.936-.081-2.472.03a11.976,11.976,0,0,1,1.029-4.317C28.647,9.941,30.376,8,30.41,7.825c.106-.55-1.977-2.509-2.486-2.905a11.176,11.176,0,0,0-17.661,6.413,10.055,10.055,0,0,0-.283,3.117c.19.966,1.284.8,2.037,1.145a8.828,8.828,0,0,1,5.463,8.072l-2.493-.01C14.479,14.347.484,16.478,2.8,25.27c1.82,6.917,10.975,3.907,16.165,4.533a4.1,4.1,0,0,1,3.521,3.758c1.034,9.319-7.365,5.277-12.81,6.312-1.3.247-1.239,2.235.633,2.452,3.467.4,8.783-.645,11.963.093a4.152,4.152,0,0,1,2.714,3.2M61.132,2.534a34.782,34.782,0,0,0-5.294.007c-.635.216-.561,2.423-.877,2.875a14.438,14.438,0,0,1-3.8,1.305c-.676-.258-1.833-1.456-2.513-1.148a38.218,38.218,0,0,0-3.385,3.472c-.261.943,1.118,1.825,1.117,2.907a30.3,30.3,0,0,1-1.2,3.249c-.282.282-2.815.445-2.919.881l.021,5.528c.631.117,2.434.3,2.836.689a28.367,28.367,0,0,1,1.2,2.905c.259,1.365-1.478,2.173-.982,3.234a38.526,38.526,0,0,0,3.465,3.387c.874.237,1.774-1.112,2.675-1.125.169,0,3.027,1.069,3.171,1.174.628.462.685,2.908.947,2.952l5.525-.043.762-2.879c1.384-.1,2.428-1.452,3.823-1.084.843.223,1.515,1.376,2.491.924a37.679,37.679,0,0,0,3.394-3.462c.145-.576-1.315-2.106-1.332-2.68-.006-.182,1.219-3.227,1.332-3.389.25-.359,2.738-.338,2.952-.965a37.6,37.6,0,0,0,0-5.286c-.7-.338-2.375-.371-2.923-.831a31.151,31.151,0,0,1-1.331-3.007c-.143-.951,1.563-2.327,1.224-3.011a39.021,39.021,0,0,0-3.683-3.609c-.589-.113-1.923,1.312-2.7,1.31-.165,0-2.929-1.144-3.062-1.243-.568-.424-.7-2.316-.941-3.039M45.572,32.311H29.762v27.3h4.208c2.181,1.442,9.086,2.616,10.316,4.7a2.98,2.98,0,0,1-1.17,4.221c-2.531,1.491-6.525,2.04-9.146,3.592H29.762c.031.455-.181,2.5.341,2.5H69.57V33.9c-1.886,2.353-2.456.095-4.091-.363-2-.559-2.005,2.485-2.288,3.765l-9.394.021c-.459-.109-.691-3.222-1.114-3.6-1.224-1.081-3.166,1.409-4.142,1.322-.745-.066-2.444-2.592-2.969-2.742m-35.6,29.8H5.764A14.388,14.388,0,0,0,4.3,62.7a3.714,3.714,0,0,0-.093,6.2,12.692,12.692,0,0,0,1.555.719H9.972Zm5,0h-2.5v7.507h2.5Zm17.288,0H17.479v2.5H32.265Zm2.5.682v6.142c.92-.327,7.431-2.451,7.51-2.845.093-.465-.049-.531-.393-.747-1.649-1.034-5.221-1.688-7.117-2.55m-2.5,4.322H17.479v2.5H32.265Z" transform="translate(0 0.001)" fill="#060605"/>
        <path id="Trazado_1263687" data-name="Trazado 1263687" d="M146.592,142.045c.524.149,2.224,2.676,2.969,2.742.975.086,2.917-2.4,4.142-1.322.423.373.655,3.486,1.114,3.6l9.395-.021c.283-1.28.291-4.324,2.288-3.765,1.636.458,2.205,2.716,4.091.363v40.718H131.123c-.522,0-.31-2.047-.341-2.5h4.208c2.621-1.552,6.615-2.1,9.146-3.592a2.98,2.98,0,0,0,1.17-4.221c-1.229-2.081-8.135-3.256-10.316-4.7h-4.208v-27.3Zm-5.641,6.848c-.815.213-3.9,4.344-4.938,4.88-.664.342-1.335-1.347-1.9-1.248a12.2,12.2,0,0,0-1.41,1.35c-.17.329-.051.334.114.574a20.668,20.668,0,0,0,3.085,2.845l.465-.222,6.373-6.385c.244-.473-1.28-1.926-1.788-1.794m27.137.658H145.8v2.5h22.292Zm-19.789,5h-2.5v2.5h2.5Zm19.789,0H150.8v2.5h17.288Zm-33.481,8.015c-.591-.264-2.044,1.3-1.989,1.621a20.433,20.433,0,0,0,3.251,3.086l6.965-6.922-1.7-1.7-5.245,5.218c-.326.138-1.133-1.235-1.28-1.3m33.481-3.011H145.8v2.275h22.292Zm-5,4.777H145.8v2.5h17.288Zm5.006,0h-2.5v2.5h2.5Zm-16.66,7.565c-5.647.747-2.989,9.776,2.339,6.892a3.708,3.708,0,0,0-2.339-6.892m7.639,1.159c-3.287,3.558,2.245,8.629,5.5,5.163,3.427-3.644-2.116-8.831-5.5-5.163" transform="translate(-101.02 -109.733)" fill="#fbf1ff"/>
        <path id="Trazado_1263688" data-name="Trazado 1263688" d="M33.612,54.527a4.152,4.152,0,0,0-2.714-3.2c-3.181-.737-8.5.31-11.964-.093-1.872-.217-1.931-2.205-.633-2.452,5.445-1.035,13.843,3.007,12.81-6.312a4.1,4.1,0,0,0-3.522-3.758c-5.19-.626-14.345,2.383-16.165-4.533-2.314-8.791,11.681-10.922,12.189-1.613l2.493.01A8.828,8.828,0,0,0,20.643,24.5c-.754-.35-1.847-.179-2.037-1.145a10.048,10.048,0,0,1,.283-3.117A11.175,11.175,0,0,1,36.55,13.828c.51.4,2.593,2.355,2.487,2.905-.034.176-1.763,2.116-2.122,2.881a11.972,11.972,0,0,0-1.029,4.317c.535-.111,2.148.174,2.472-.03a23.161,23.161,0,0,0,.55-2.522c1.248-3.944,5.951-5.815,9.715-4.382a6.279,6.279,0,0,1,3.53,3.541c.628,1.951-2.515,2-3.743,2.267L48.388,32.2c.16.672,4.331.244,3.783,2.424-.389,1.548-2.66,2.441-.588,4.095H33.726c-.521,0-.311,2.048-.342,2.5h2.5v27.3H33.612Z" transform="translate(-8.626 -8.908)" fill="#f6f6f6"/>
        <path id="Trazado_1263689" data-name="Trazado 1263689" d="M204.663,10.8c.243.723.373,2.615.941,3.039.132.1,2.9,1.242,3.061,1.243.775,0,2.109-1.423,2.7-1.31a39.026,39.026,0,0,1,3.684,3.609c.339.683-1.368,2.06-1.224,3.011a31.1,31.1,0,0,0,1.331,3.007c.548.459,2.225.493,2.923.831a37.6,37.6,0,0,1,0,5.286c-.214.627-2.7.606-2.952.965-.113.162-1.337,3.207-1.332,3.389.018.574,1.477,2.1,1.332,2.68a37.713,37.713,0,0,1-3.395,3.462c-.976.452-1.647-.7-2.491-.924-1.4-.368-2.439.979-3.823,1.084l-.762,2.879-5.525.043c-.261-.044-.318-2.489-.946-2.952-.144-.106-3-1.176-3.171-1.174-.9.013-1.8,1.363-2.675,1.125a38.522,38.522,0,0,1-3.465-3.387c-.5-1.061,1.241-1.869.982-3.234a28.414,28.414,0,0,0-1.2-2.905c-.4-.39-2.2-.573-2.836-.689l-.02-5.528c.1-.436,2.636-.6,2.918-.881a30.244,30.244,0,0,0,1.2-3.249c0-1.083-1.378-1.964-1.117-2.907a38.22,38.22,0,0,1,3.385-3.472c.681-.308,1.838.89,2.513,1.148a14.432,14.432,0,0,0,3.8-1.305c.317-.452.243-2.659.877-2.875a34.782,34.782,0,0,1,5.294-.007m-3.892,5.049c-16.447,1.673-10.664,27.49,5.17,21.548,12.02-4.51,7.641-22.851-5.17-21.548" transform="translate(-143.531 -8.269)" fill="#f0d5fe"/>
        <path id="Trazado_1263690" data-name="Trazado 1263690" d="M18.749,273.045v7.507H14.541a12.691,12.691,0,0,1-1.555-.719,3.714,3.714,0,0,1,.093-6.2,14.385,14.385,0,0,1,1.462-.585Z" transform="translate(-8.777 -210.934)" fill="#e3a4fe"/>
        <rect id="Rectángulo_457370" data-name="Rectángulo 457370" width="14.786" height="2.502" transform="translate(17.479 62.111)" fill="#f0d5fe"/>
        <rect id="Rectángulo_457371" data-name="Rectángulo 457371" width="14.786" height="2.502" transform="translate(17.479 67.115)" fill="#fbf1ff"/>
        <path id="Trazado_1263691" data-name="Trazado 1263691" d="M152.839,276.045c1.9.862,5.468,1.517,7.117,2.55.344.216.486.282.393.747-.079.394-6.59,2.517-7.51,2.845Z" transform="translate(-118.072 -213.252)" fill="#e3a4fe"/>
        <rect id="Rectángulo_457372" data-name="Rectángulo 457372" width="2.502" height="7.507" transform="translate(12.474 62.111)" fill="#fbf1ff"/>
        <rect id="Rectángulo_457373" data-name="Rectángulo 457373" width="22.292" height="2.502" transform="translate(44.776 39.818)" fill="#060605"/>
        <rect id="Rectángulo_457374" data-name="Rectángulo 457374" width="22.292" height="2.275" transform="translate(44.776 49.827)" fill="#060605"/>
        <rect id="Rectángulo_457375" data-name="Rectángulo 457375" width="17.288" height="2.502" transform="translate(49.78 44.823)" fill="#060605"/>
        <rect id="Rectángulo_457376" data-name="Rectángulo 457376" width="17.288" height="2.502" transform="translate(44.776 54.604)" fill="#060605"/>
        <path id="Trazado_1263692" data-name="Trazado 1263692" d="M251.768,274.133c3.388-3.668,8.931,1.52,5.5,5.163-3.259,3.466-8.791-1.6-5.5-5.163m2.592,1.32a1.253,1.253,0,0,0,.391,2.474c1.52-.156,1.285-2.8-.391-2.474" transform="translate(-193.719 -210.805)" fill="#060605"/>
        <path id="Trazado_1263693" data-name="Trazado 1263693" d="M210.9,273.171a3.708,3.708,0,0,1,2.339,6.892c-5.328,2.884-7.986-6.145-2.339-6.892m.224,2.482a1.261,1.261,0,0,0-.177,2.371,1.238,1.238,0,1,0,.177-2.371" transform="translate(-160.493 -211.002)" fill="#060605"/>
        <path id="Trazado_1263694" data-name="Trazado 1263694" d="M147.247,172.123c.507-.133,2.032,1.32,1.787,1.794l-6.372,6.385-.465.222a20.7,20.7,0,0,1-3.085-2.845c-.165-.24-.283-.245-.114-.574a12.147,12.147,0,0,1,1.41-1.35c.565-.1,1.236,1.59,1.9,1.248,1.042-.536,4.123-4.667,4.938-4.88" transform="translate(-107.316 -132.963)" fill="#060605"/>
        <path id="Trazado_1263695" data-name="Trazado 1263695" d="M140.894,218.98c.147.066.954,1.439,1.28,1.3l5.245-5.218,1.7,1.7-6.965,6.921a20.41,20.41,0,0,1-3.251-3.086c-.055-.316,1.4-1.885,1.988-1.621" transform="translate(-107.307 -166.142)" fill="#060605"/>
        <rect id="Rectángulo_457377" data-name="Rectángulo 457377" width="2.504" height="2.504" transform="translate(44.775 44.822)" fill="#060605"/>
        <rect id="Rectángulo_457378" data-name="Rectángulo 457378" width="2.504" height="2.504" transform="translate(64.565 54.603)" fill="#060605"/>
        <path id="Trazado_1263696" data-name="Trazado 1263696" d="M218.141,33.115c12.81-1.3,17.19,17.037,5.17,21.548-15.834,5.942-21.617-19.874-5.17-21.548m0,2.5c-7.061.858-10.089,9.81-4.962,14.843a8.716,8.716,0,0,0,13.067-1.051c4.623-6.127-.563-14.707-8.105-13.792" transform="translate(-160.901 -25.531)" fill="#060605"/>
        <path id="Trazado_1263697" data-name="Trazado 1263697" d="M263.115,284.1c1.676-.324,1.911,2.317.391,2.474a1.253,1.253,0,0,1-.391-2.474" transform="translate(-202.475 -219.454)" fill="#e3a4fe"/>
        <path id="Trazado_1263698" data-name="Trazado 1263698" d="M219.433,284.116a1.238,1.238,0,1,1-.177,2.371,1.261,1.261,0,0,1,.177-2.371" transform="translate(-168.8 -219.466)" fill="#e3a4fe"/>
        <path id="Trazado_1263699" data-name="Trazado 1263699" d="M226.061,44.1c7.542-.916,12.729,7.665,8.105,13.792A8.716,8.716,0,0,1,221.1,58.942c-5.127-5.033-2.1-13.985,4.962-14.842m.222,2.5c-7.571.986-6.585,12.542,1.042,12.364,8.53-.2,7.714-13.5-1.042-12.364" transform="translate(-168.824 -34.016)" fill="#f0d5fe"/>
        <path id="Trazado_1263700" data-name="Trazado 1263700" d="M234.923,55.071c8.756-1.141,9.572,12.165,1.042,12.364-7.626.178-8.612-11.378-1.042-12.364m-.008,2.495c-5.048,1.042-2.616,9.309,2.494,7.041a3.759,3.759,0,0,0-2.494-7.041" transform="translate(-177.464 -42.491)" fill="#060605"/>
      </g>
    </g>
  </g>
</svg>
