<svg id="Grupo_1206118" data-name="Grupo 1206118" xmlns="http://www.w3.org/2000/svg" xmlns:xlink="http://www.w3.org/1999/xlink" width="127.151" height="128" viewBox="0 0 127.151 128">
  <defs>
    <clipPath id="clip-path">
      <rect id="Rect치ngulo_457366" data-name="Rect치ngulo 457366" width="75.587" height="74.151" fill="none"/>
    </clipPath>
  </defs>
  <ellipse id="Elipse_13609" data-name="Elipse 13609" cx="63.576" cy="64" rx="63.576" ry="64" transform="translate(0)" fill="#fff"/>
  <g id="Grupo_1099776" data-name="Grupo 1099776" transform="translate(23.841 24)">
    <g id="Grupo_1099618" data-name="Grupo 1099618" transform="translate(-0.434 0)">
      <rect id="Rect치ngulo_401104" data-name="Rect치ngulo 401104" width="78.645" height="80.124" transform="translate(0)" fill="none"/>
    </g>
    <g id="Grupo_1206556" data-name="Grupo 1206556" transform="translate(1.565 3)">
      <g id="Grupo_1206555" data-name="Grupo 1206555" clip-path="url(#clip-path)">
        <path id="Trazado_1263659" data-name="Trazado 1263659" d="M24.766,50.128a1.3,1.3,0,0,1-.558.24c-.654.046-1.325-.046-1.978-.009V38.716a15.679,15.679,0,0,1,1.615-2.766c2.073-2.239,5.308-1.852,7.723-2.883,1.552-.662.087-1.19-.24-1.6-2.2-2.743-2-8-1.728-11.435C30.468,9.005,46,10.74,44.825,21.539c.645-.3,4.9-.962,5.062-1.163.5-.613-.937-1.492-1.335-1.989a6.13,6.13,0,0,1-1.172-2.516A57.1,57.1,0,0,1,47.463,5.85c1.347-7.8,13.433-7.8,14.78,0a57.094,57.094,0,0,1,.083,10.021,6.13,6.13,0,0,1-1.172,2.516c-.4.5-1.836,1.376-1.335,1.989.164.2,4.417.864,5.062,1.163C63.7,10.74,79.238,9.005,80.107,20.033c.27,3.435.471,8.692-1.728,11.435-.328.409-1.793.937-.24,1.6,2.415,1.031,5.649.643,7.723,2.883a15.679,15.679,0,0,1,1.615,2.766V50.358c-.653-.037-1.324.056-1.978.009a1.3,1.3,0,0,1-.558-.24c-.294-3.307.393-7.27.005-10.5-.447-3.722-6.576-3.385-9.24-4.6-.923-.421-.877-3.275-.632-4.11.234-.8,2.156-1.236,2.469-3.526.241-1.768.195-7.675-.433-9.211-1.571-3.847-7.162-4.252-9.042-.495-.864,1.725-.905,7.9-.629,9.936.293,2.153,2.073,2.273,2.413,3.351a9.686,9.686,0,0,1-.016,3.467c-.726,1.622-7.8,1.174-9.431,3.941-.822,1.4.22,1.763-1.746,1.827-.425.014-1.441.235-1.374-.332a6.515,6.515,0,0,1,4.081-5.376c1.158-.477,5.366-1.2,5.828-1.549.935-.711-.5-1.349-.921-1.856-1.708-2.051-1.379-4.519-1.4-7.015-.254-.262-6.067-1-7.028-1.848-.74-.653-.747-2.816-.466-3.708.312-.992,2.146-1.353,2.418-3.115a58.2,58.2,0,0,0,0-8.962,5.389,5.389,0,0,0-4.942-4.069,5.389,5.389,0,0,0-4.942,4.069,58.2,58.2,0,0,0,0,8.962c.273,1.763,2.106,2.124,2.418,3.115.281.892.273,3.055-.466,3.708-.961.848-6.774,1.585-7.028,1.848-.02,2.5.309,4.964-1.4,7.015-.422.507-1.856,1.144-.921,1.856.461.351,4.67,1.073,5.828,1.549a6.515,6.515,0,0,1,4.081,5.376c.067.567-.949.346-1.374.332-1.967-.064-.924-.429-1.746-1.827-1.363-2.317-5.967-2.3-8.358-3.17-1.532-.56-1.51-2.9-1.09-4.237.34-1.079,2.12-1.2,2.413-3.351.276-2.033.235-8.211-.629-9.936-1.881-3.757-7.471-3.352-9.042.495-.627,1.536-.673,7.442-.433,9.211.312,2.29,2.235,2.73,2.469,3.526.245.835.291,3.689-.632,4.11-2.664,1.214-8.792.876-9.24,4.6-.388,3.225.3,7.188.005,10.5" transform="translate(-17.105 0)" fill="#050504"/>
        <path id="Trazado_1263660" data-name="Trazado 1263660" d="M32.8,100.453c.294-3.307-.393-7.27-.005-10.5.448-3.722,6.576-3.385,9.24-4.6.923-.421.877-3.275.632-4.11-.234-.8-2.156-1.236-2.469-3.526-.241-1.768-.195-7.675.433-9.211,1.571-3.847,7.162-4.252,9.042-.495.864,1.725.905,7.9.629,9.936-.293,2.153-2.073,2.273-2.413,3.351-.42,1.333-.443,3.677,1.09,4.237,2.39.874,6.995.852,8.358,3.17.822,1.4-.22,1.763,1.746,1.827v1.614a17.112,17.112,0,0,0-10.836,8.53c-.24-.382-.875-.231-1.265-.234-3.109-.033-6.234-.027-9.341,0l-.133-7.382-2.174,0v7.379c-.84.015-1.7-.047-2.536,0" transform="translate(-25.144 -50.325)" fill="#e3a4fe"/>
        <path id="Trazado_1263661" data-name="Trazado 1263661" d="M180.23,90.539c1.967-.064.924-.429,1.746-1.827,1.627-2.767,8.705-2.318,9.431-3.941a9.686,9.686,0,0,0,.016-3.467c-.34-1.079-2.12-1.2-2.413-3.351-.276-2.033-.235-8.211.629-9.936,1.881-3.757,7.471-3.352,9.042.495.627,1.536.673,7.442.433,9.211-.312,2.29-2.235,2.73-2.469,3.526-.245.835-.291,3.689.632,4.11,2.664,1.214,8.792.876,9.24,4.6.388,3.225-.3,7.188-.005,10.5-.837-.047-1.7.015-2.536,0V93.074l-2.174,0-.133,7.382c-3.106-.031-6.233-.042-9.341,0-.39,0-1.025-.148-1.265.234a16.917,16.917,0,0,0-10.836-8.53Z" transform="translate(-138.678 -50.325)" fill="#e3a4fe"/>
        <path id="Trazado_1263662" data-name="Trazado 1263662" d="M41.552,179.987a16.918,16.918,0,0,1,10.836,8.53,16.6,16.6,0,0,1,1.161,3.33c-.017.154-.9.3-1.161.359a9.088,9.088,0,0,1-1.382.232c-2.132-9.044-12.611-13.1-20.594-8.26-3.137,1.9-6.021,6.055-6.379,9.759-1.6,16.585,20.106,21.968,26.552,7.187.541-1.241.035-1.852,1.8-1.54.363.064,1.14.372,1.151.791.042,1.523-2.992,6.034-4.137,7.174-9.872,9.823-26.924,3.491-27.907-10.271l-9.751.049c-1.394.54-4.27,3.507-5.581,3.436a30.468,30.468,0,0,1-4.338-2.835c-1.048-.806-2.673-1.594-1.294-3.053A41.875,41.875,0,0,1,5,191.739a3.638,3.638,0,0,1,1.391-.67c.856,0,4.351,3.073,5.35,3.624l9.75.051a16.255,16.255,0,0,1,1.613-6.226,17.112,17.112,0,0,1,10.836-8.53,17,17,0,0,1,7.608,0M9.043,195.668c-.857-.058-1.952-1.589-2.649-1.609-.555-.016-2.775,1.509-2.668,2.165a14.9,14.9,0,0,0,2.624,1.716c.264-.04,2.93-1.929,2.693-2.272" transform="translate(0 -138.159)" fill="#060504"/>
        <path id="Trazado_1263663" data-name="Trazado 1263663" d="M132.313,208.125c-1.769-.312-1.263.3-1.8,1.54-6.446,14.781-28.155,9.4-26.552-7.187.358-3.7,3.242-7.856,6.379-9.759,7.983-4.843,18.462-.784,20.594,8.26a9.115,9.115,0,0,0,1.382-.232l.461,2.536c-1.687.014-3.385,0-5.072,0l-.461-2.536c1.912-.826-1.352-4.169-2.3-4.96C111.981,185,97.821,207.364,112.56,214.621c4.949,2.436,13.229.531,15.194-4.943.326-.91.22-1.2-.744-1.552l.692-2.306c1.611.005,3.231-.013,4.842,0Z" transform="translate(-79.925 -146.701)" fill="#f0d5fe"/>
        <path id="Trazado_1263664" data-name="Trazado 1263664" d="M178.335,231.881c1.78-.015,5.216.293,6.745-.06,1.229-.284,2.935-3.569,4.448-3.848a78.765,78.765,0,0,1,10.314.038,1.355,1.355,0,0,1,1.082.993,53.043,53.043,0,0,1,0,7.838c-.09.841-.177,1.12-1.051,1.242a67.921,67.921,0,0,1-10.348.009c-1.47-.232-3.2-3.327-4.21-3.628-1.181-.351-5.62-.035-7.215-.047-1.611-.013-3.231.005-4.842,0-1.764-.006-3.539.022-5.3,0-.785-.01-4.469.175-4.741-.216-.289-.414-.006-1.744-.1-2.321,1.611,0,3.231.009,4.843,0,1.764-.009,3.538,0,5.3,0,1.687,0,3.385.014,5.072,0m20.058-1.383h-8.185a14.492,14.492,0,0,0-2.4,2.62c.343.3,2.232,2.452,2.4,2.452h8.185Z" transform="translate(-125.486 -175.298)" fill="#050404"/>
        <path id="Trazado_1263665" data-name="Trazado 1263665" d="M44.226,192.791v-7.379l2.174,0,.133,7.382c-.767.008-1.539-.014-2.306,0" transform="translate(-34.029 -142.663)"/>
        <path id="Trazado_1263666" data-name="Trazado 1263666" d="M273.23,192.791l.133-7.382,2.174,0v7.379c-.766-.014-1.539.008-2.306,0" transform="translate(-210.237 -142.663)"/>
        <path id="Trazado_1263667" data-name="Trazado 1263667" d="M117.71,48.172c.425.014,1.441.235,1.374-.332A6.515,6.515,0,0,0,115,42.464c-1.158-.477-5.366-1.2-5.828-1.549-.935-.711.5-1.349.921-1.856,1.708-2.051,1.379-4.519,1.4-7.015.254-.262,6.067-1,7.028-1.848.74-.653.747-2.816.466-3.708-.312-.992-2.146-1.353-2.418-3.115a58.205,58.205,0,0,1,0-8.962,5.036,5.036,0,0,1,9.884,0,58.2,58.2,0,0,1,0,8.962c-.273,1.763-2.106,2.123-2.418,3.115-.281.892-.273,3.055.466,3.708.961.848,6.775,1.585,7.028,1.848.02,2.5-.309,4.964,1.4,7.015.422.507,1.856,1.144.921,1.856-.461.351-4.67,1.073-5.828,1.549a6.515,6.515,0,0,0-4.081,5.376c-.067.567.949.346,1.374.332v1.614a17,17,0,0,0-7.608,0Z" transform="translate(-83.766 -7.958)" fill="#f0d5fe"/>
        <path id="Trazado_1263668" data-name="Trazado 1263668" d="M21.466,244.072c.237.343-2.428,2.232-2.693,2.272a14.9,14.9,0,0,1-2.624-1.716c-.107-.656,2.113-2.181,2.668-2.165.7.02,1.792,1.551,2.649,1.609" transform="translate(-12.423 -186.563)" fill="#5d0b80"/>
        <path id="Trazado_1263669" data-name="Trazado 1263669" d="M135.29,208.228c-1.809.781-1.472-.059-2.116-1-5.99-8.727-19.082-2.132-15.741,7.673,2.558,7.508,13.486,7.841,16.253.479a7.014,7.014,0,0,1,1.373.223c.964.347,1.07.643.744,1.552-1.965,5.475-10.245,7.38-15.194,4.943-14.74-7.257-.579-29.621,12.377-18.833.95.791,4.215,4.134,2.3,4.96" transform="translate(-87.974 -154.181)" fill="#060404"/>
        <path id="Trazado_1263670" data-name="Trazado 1263670" d="M143.609,224.893a7.015,7.015,0,0,0-1.373-.223c-2.767,7.362-13.7,7.029-16.253-.479-3.341-9.8,9.752-16.4,15.741-7.673.644.939.307,1.778,2.116,1l.461,2.536c-1.764,0-3.538-.009-5.3,0a3.9,3.9,0,0,0-1.383-2.536c.572-.658,1-.871.217-1.486a6.449,6.449,0,0,0-7.249.1,6.314,6.314,0,0,0,5.941,11.013c1.36-.45,2.292-1.058,1.09-2.253A3.176,3.176,0,0,0,139,222.587c1.764.022,3.539-.006,5.3,0Z" transform="translate(-96.523 -163.468)" fill="#e3a4fe"/>
        <path id="Trazado_1263671" data-name="Trazado 1263671" d="M280.889,239.426V244.5H272.7c-.172,0-2.061-2.149-2.4-2.452a14.491,14.491,0,0,1,2.4-2.62Z" transform="translate(-207.982 -184.226)" fill="#5d0b80"/>
        <path id="Trazado_1263672" data-name="Trazado 1263672" d="M154.691,241.724c-1.359-1.351-1.755.189-3.343.188-4.979,0-5.064-8.061.459-7.568,1.57.14,1.636,1.437,2.884,0a3.9,3.9,0,0,1,1.383,2.536c-1.611.008-3.232-.005-4.843,0,.1.577-.187,1.907.1,2.321.272.391,3.956.206,4.741.216a3.177,3.177,0,0,1-1.383,2.306" transform="translate(-113.6 -180.299)" fill="#5d0b80"/>
        <path id="Trazado_1263673" data-name="Trazado 1263673" d="M145.982,225.908c-1.248,1.435-1.314.138-2.884,0-5.523-.493-5.438,7.565-.459,7.568,1.588,0,1.984-1.539,3.343-.188,1.2,1.194.27,1.8-1.09,2.252a6.314,6.314,0,0,1-5.941-11.013,6.449,6.449,0,0,1,7.249-.1c.787.615.355.829-.217,1.486" transform="translate(-104.891 -171.861)" fill="#070505"/>
      </g>
    </g>
  </g>
</svg>
