<svg id="Grupo_1206130" data-name="Grupo 1206130" xmlns="http://www.w3.org/2000/svg" xmlns:xlink="http://www.w3.org/1999/xlink" width="127.15" height="128" viewBox="0 0 127.15 128">
  <defs>
    <clipPath id="clip-path">
      <rect id="Rectángulo_457396" data-name="Rectángulo 457396" width="74.527" height="67.146" fill="none"/>
    </clipPath>
  </defs>
  <ellipse id="Elipse_13609" data-name="Elipse 13609" cx="63.576" cy="64" rx="63.576" ry="64" transform="translate(0)" fill="#fff"/>
  <g id="Grupo_1099776" data-name="Grupo 1099776" transform="translate(23.841 24)">
    <g id="Grupo_1099618" data-name="Grupo 1099618" transform="translate(0 0)">
      <rect id="Rectángulo_401104" data-name="Rectángulo 401104" width="78.645" height="80.124" transform="translate(0)" fill="none"/>
    </g>
    <g id="Grupo_1206572" data-name="Grupo 1206572" transform="translate(4.118 8)">
      <path id="Trazado_1263785" data-name="Trazado 1263785" d="M60.451,93.447H7.106v35.185h8.723l.736,10.719,11.5-10.719H60.451Z" transform="translate(-5.594 -73.561)" fill="#fbf1ff"/>
      <rect id="Rectángulo_457395" data-name="Rectángulo 457395" width="30.014" height="9.963" transform="translate(1.512 3.366)" fill="#f0d5fe"/>
      <g id="Grupo_1206571" data-name="Grupo 1206571">
        <g id="Grupo_1206570" data-name="Grupo 1206570" clip-path="url(#clip-path)">
          <path id="Trazado_1263786" data-name="Trazado 1263786" d="M56.351,32.458v3.937c0,.426-1.32.81-1.814.324-.676-.664-.122-3.846-.335-4.878a16.031,16.031,0,0,1-11.174-11.1L3.513,20.8l-.8,1.114.057,32.1a1.253,1.253,0,0,0,.916,1c2.037.391,5.246-.257,7.448,0a1.606,1.606,0,0,1,1.166.536V64.38l9.683-9.364h4.469c.694,0,.694,2.128,0,2.128H22.833c-.677,0-8.163,8.734-9.612,9.541a1.872,1.872,0,0,1-3.05-1.135V57.144H3.042c-.83,0-2.746-2.241-2.456-3.29L.8,20.637c.139-.619,1.49-2.011,2.032-2.011H42.111l.407-4.788c0-3.775,4.358-9.33,7.465-11.262,15.053-9.36,32.117,8.737,21.863,23.14-2.055,2.886-7.281,6.743-10.921,6.743ZM57.371,2.3A14.048,14.048,0,1,0,70.7,23.5,14.08,14.08,0,0,0,57.371,2.3" transform="translate(-0.438 0)"/>
          <path id="Trazado_1263787" data-name="Trazado 1263787" d="M21.97,18.9c.814.228.8,2.206-.44,2.114-9.356.229-11.772-.1-19.362.024a1.99,1.99,0,0,1-2-1.618,61.771,61.771,0,0,1,0-9.127c.207-1.307,1.3-1.529,2.426-1.617,15.829-.017,13.995-.017,27.682,0a2.023,2.023,0,0,1,2.231,1.812,59.184,59.184,0,0,1,0,8.735,1.782,1.782,0,0,1-1.81,1.81c-2.942-.208-4.366.119-4.8-.319-.481-.489-.107-1.815.324-1.815h4.15V11.023H2.285V18.9Z" transform="translate(0 -6.656)"/>
          <path id="Trazado_1263788" data-name="Trazado 1263788" d="M163.08,202.633a3.917,3.917,0,0,0,.634-.642l.116-13.5a1.125,1.125,0,0,1,2.088-.4l.021,14.21c.011.892-1.7,2.461-2.434,2.461h-23.2c-.694,0-.694-2.128,0-2.128Z" transform="translate(-110.04 -147.617)"/>
          <path id="Trazado_1263789" data-name="Trazado 1263789" d="M54.3,173.52l31.684-.045a1.077,1.077,0,1,1-.219,2.142L54.377,175.5a1.115,1.115,0,0,1-.076-1.982" transform="translate(-42.298 -136.558)"/>
          <path id="Trazado_1263797" data-name="Trazado 1263797" d="M54.3,173.52l31.684-.045a1.077,1.077,0,1,1-.219,2.142L54.377,175.5a1.115,1.115,0,0,1-.076-1.982" transform="translate(-42.298 -129.96)"/>
          <path id="Trazado_1263790" data-name="Trazado 1263790" d="M53.981,142.748c.237-.237.778-.244,1.109-.272H85.967a1.077,1.077,0,1,1-.219,2.142L54.36,144.5a1.147,1.147,0,0,1-.379-1.753" transform="translate(-42.281 -112.155)"/>
          <path id="Trazado_1263793" data-name="Trazado 1263793" d="M220.316,10.588a14.048,14.048,0,1,1-11.059,20.723,14.081,14.081,0,0,1,11.059-20.723m-1.5,13.506c.619-.619,0-2.15-.408-2.788a3.7,3.7,0,0,0-5.181-.993c-1.546,1.064-2.5,4.724-.043,4.012.956-.277.431-2.709,2.336-2.478,1.594.193,1.177,2.066,1.855,2.41a1.562,1.562,0,0,0,1.441-.164m10.741,0c2.477,1.162,2.242-1.943,1.013-3.247a3.887,3.887,0,0,0-5.534,0c-.627.7-1.492,3.137-.27,3.48,2.1.59,1.063-2.4,2.949-2.517,1.316-.085,1.606,1.31,1.843,2.289m-13.817,6.16a12.282,12.282,0,0,0,1.847,1.235,8.545,8.545,0,0,0,8.628-.318c.655-.425,1.724-1.14,1.6-2.015-1.076-2.2-2.507.309-4.057.833a6.415,6.415,0,0,1-4.542-.128c-.869-.328-2.253-1.621-2.795-1.652-1.015-.058-1.219,1.374-.679,2.044" transform="translate(-163.383 -8.287)" fill="#e3a4fe"/>
          <path id="Trazado_1263794" data-name="Trazado 1263794" d="M244.969,95.664c-.539-.671-.336-2.1.679-2.044.542.031,1.926,1.324,2.795,1.652a6.415,6.415,0,0,0,4.542.128c1.55-.524,2.981-3.031,4.057-.833.125.875-.943,1.589-1.6,2.015a8.545,8.545,0,0,1-8.628.318,12.284,12.284,0,0,1-1.847-1.235" transform="translate(-192.608 -73.695)"/>
          <path id="Trazado_1263795" data-name="Trazado 1263795" d="M234.106,57.886a1.561,1.561,0,0,1-1.441.163c-.678-.345-.26-2.217-1.855-2.41-1.905-.23-1.381,2.2-2.336,2.478-2.456.712-1.5-2.948.043-4.012a3.7,3.7,0,0,1,5.181.993c.407.638,1.028,2.169.408,2.788" transform="translate(-178.67 -42.078)"/>
          <path id="Trazado_1263796" data-name="Trazado 1263796" d="M290.963,57.986c-.237-.979-.526-2.374-1.843-2.289-1.885.122-.851,3.108-2.949,2.518-1.221-.344-.356-2.778.27-3.48a3.887,3.887,0,0,1,5.534,0c1.229,1.3,1.464,4.41-1.013,3.247" transform="translate(-224.785 -42.177)"/>
        </g>
      </g>
    </g>
  </g>
</svg>
