<svg xmlns="http://www.w3.org/2000/svg" xmlns:xlink="http://www.w3.org/1999/xlink" width="96" height="96" viewBox="0 0 96 96">
  <defs>
    <clipPath id="clip-path">
      <rect id="Rect치ngulo_457365" data-name="Rect치ngulo 457365" width="55.711" height="55.711" fill="#fff"/>
    </clipPath>
  </defs>
  <g id="Grupo_1206113" data-name="Grupo 1206113" transform="translate(-383.711 -8399.591)">
    <path id="Trazado_997400" data-name="Trazado 997400" d="M48,0A48,48,0,1,1,0,48,48,48,0,0,1,48,0Z" transform="translate(383.711 8399.591)" fill="#5d0b80"/>
    <g id="Grupo_1099776" data-name="Grupo 1099776" transform="translate(401.746 8418)">
      <g id="Grupo_1099618" data-name="Grupo 1099618" transform="translate(-0.035 -0.409)">
        <rect id="Rect치ngulo_401104" data-name="Rect치ngulo 401104" width="59.378" height="60.093" transform="translate(0)" fill="none"/>
      </g>
      <g id="Grupo_1206554" data-name="Grupo 1206554" transform="translate(1.964 2.591)">
        <g id="Grupo_1206553" data-name="Grupo 1206553" clip-path="url(#clip-path)">
          <path id="Trazado_1263640" data-name="Trazado 1263640" d="M3.957.047,51.322,0a4.765,4.765,0,0,1,4.389,4.389V51.322a4.765,4.765,0,0,1-4.389,4.389H4.389A4.765,4.765,0,0,1,0,51.322L.007,4.237A4.789,4.789,0,0,1,3.957.047m49.833,7.3V3.916a2.864,2.864,0,0,0-1.906-1.924L4.235,1.92a2.8,2.8,0,0,0-2.314,2V7.347Zm0,1.915H1.921V51.8a2.8,2.8,0,0,0,2.314,2l47.649-.071A2.864,2.864,0,0,0,53.79,51.8Z" fill="#fff"/>
          <path id="Trazado_1263641" data-name="Trazado 1263641" d="M64.534,100.941h9.017c.4,0,1.267,1.192,1.2,1.672-.26,3.6.334,7.64,0,11.182a2.018,2.018,0,0,1-1.559,1.952l-43.058.04a2.061,2.061,0,0,1-1.817-1.694c.293-3.6-.442-7.967-.018-11.48a2.042,2.042,0,0,1,1.112-1.6l24.429-.149L66.38,77.331A3.767,3.767,0,0,1,71.217,76.3c2.838,1.207,4.4,2.992,2.98,6.131-2.56,5.657-6.266,11.448-9.107,17.067a3.4,3.4,0,0,0-.555,1.44m7.339-18.034c.577-1.516,1.877-2.862.056-4.123-2.477-1.715-4.089-1.5-4.933,1.572Zm-.955,1.6-4.871-2.541-.88,1.652L69.885,86.1c.448,0,.766-1.243,1.033-1.6M65.8,85.951l-1.375-.632-.288.137-8.7,16.76,1.834.167Zm-5.418,18.66L69.1,88.02c.092-.379-1.476-1.1-1.678-.954l-8.61,16.352Zm-7.5-1.915H30.22v11.172H72.833V102.7H63.5c-.971,1.176-1.5,3.31-2.475,4.388-1.582,1.757-4.366,3.351-6.075,5.1a1.887,1.887,0,0,1-2.822-1.466c-.112-1.91.613-4.8.757-6.823.028-.4-.011-.8,0-1.2m5.689,2.929a5.625,5.625,0,0,0-3.934-1.653L54,110.516l5.106-4.152a4.531,4.531,0,0,0-.535-.739" transform="translate(-23.671 -63.749)" fill="#fff"/>
          <path id="Trazado_1263642" data-name="Trazado 1263642" d="M29.953,76.246H57.177a2.094,2.094,0,0,1,1.2,1.2,30.91,30.91,0,0,1,0,4.88,1.851,1.851,0,0,1-1.642,1.23l-26.616-.036A1.847,1.847,0,0,1,28.8,82.282a23.86,23.86,0,0,1-.039-4.676,2,2,0,0,1,1.194-1.359m26.7,1.722H30.637v3.671H56.652Z" transform="translate(-24.088 -64.077)" fill="#fff"/>
          <path id="Trazado_1263643" data-name="Trazado 1263643" d="M35.118,135.548a.965.965,0,0,1,.672-1.566H62.778c1.063.057,1.228,1.648.16,1.773l-26.988,0c-.248-.021-.656-.027-.833-.2" transform="translate(-29.328 -112.598)" fill="#fff"/>
          <path id="Trazado_1263644" data-name="Trazado 1263644" d="M60.555,158.7a2.607,2.607,0,0,1-1.141.217c-7.527.487-15.572-.384-23.154,0-1.441.123-1.978-1.583-.481-1.93l24.11.005a.966.966,0,0,1,.666,1.709" transform="translate(-29.317 -131.93)" fill="#fff"/>
          <path id="Trazado_1263645" data-name="Trazado 1263645" d="M35.871,180.061l21.985-.038c1.37-.087,1.708,1.746.328,1.923H35.825a.943.943,0,0,1,.047-1.885" transform="translate(-29.363 -151.29)" fill="#fff"/>
          <path id="Trazado_1263646" data-name="Trazado 1263646" d="M35.686,205.792c-.747-.207-.7-1.756,0-1.756H56.913c.534,0,.534,1.756,0,1.756Z" transform="translate(-29.536 -171.472)" fill="#fff"/>
          <path id="Trazado_1263647" data-name="Trazado 1263647" d="M23.711,24.894c-.881-.843.373-2.223,1.229-1.467.985.871-.435,2.226-1.229,1.467" transform="translate(-19.675 -19.504)" fill="#fff"/>
          <path id="Trazado_1263648" data-name="Trazado 1263648" d="M47.71,23.132c1.186-.182,1.39,1.734.273,1.895a.959.959,0,0,1-.273-1.895" transform="translate(-39.449 -19.43)" fill="#fff"/>
          <path id="Trazado_1263649" data-name="Trazado 1263649" d="M70.83,23.15a.92.92,0,0,1,.769,1.578c-1.267,1.21-2.258-1.351-.769-1.578" transform="translate(-58.898 -19.447)" fill="#fff"/>
          <path id="Trazado_1263650" data-name="Trazado 1263650" d="M116.939,290.745c.653-.151,2.639-.207,2.963.487.681,1.462-2.083,1.622-3.01,1.246a.887.887,0,0,1,.047-1.734" transform="translate(-97.667 -244.262)" fill="#fff"/>
          <path id="Trazado_1263651" data-name="Trazado 1263651" d="M46.335,291.036a7.161,7.161,0,0,1,2.881-.17,1.023,1.023,0,0,1,.564.97c-.272,1.78-5.184.849-3.444-.8" transform="translate(-38.628 -244.386)" fill="#fff"/>
          <path id="Trazado_1263652" data-name="Trazado 1263652" d="M82.178,290.753c.661-.147,2.637-.213,2.962.487.679,1.458-2.086,1.63-3.009,1.246a.9.9,0,0,1,.047-1.733" transform="translate(-68.491 -244.269)" fill="#fff"/>
          <path id="Trazado_1263653" data-name="Trazado 1263653" d="M244.94,290.711c.86-.2,3.71-.257,2.889,1.282-.414.775-2.354.766-3.049.405a.879.879,0,0,1,.16-1.687" transform="translate(-205.24 -244.228)" fill="#fff"/>
          <path id="Trazado_1263654" data-name="Trazado 1263654" d="M282.587,290.811a.986.986,0,0,1-.126,1.469c-.7.479-3.148.451-3.319-.668-.218-1.428,3.076-1.149,3.444-.8" transform="translate(-234.583 -244.162)" fill="#fff"/>
          <path id="Trazado_1263655" data-name="Trazado 1263655" d="M151.606,290.771c.9-.267,2.851.056,2.106,1.306-.582.977-2.754.617-2.7-.444a1.152,1.152,0,0,1,.592-.861" transform="translate(-126.912 -244.291)" fill="#fff"/>
          <path id="Trazado_1263656" data-name="Trazado 1263656" d="M215.606,290.771c.9-.267,2.851.056,2.106,1.306-.582.977-2.754.617-2.7-.444a1.152,1.152,0,0,1,.592-.861" transform="translate(-180.698 -244.291)" fill="#fff"/>
          <path id="Trazado_1263657" data-name="Trazado 1263657" d="M305.383,20.283l-2.774-2.774a.61.61,0,1,1,.863-.863l2.774,2.773a.61.61,0,0,1-.863.863" transform="translate(-254.163 -13.839)" fill="#fff"/>
          <path id="Trazado_1263658" data-name="Trazado 1263658" d="M303.472,20.283l2.774-2.774a.61.61,0,0,0-.863-.863l-2.774,2.773a.61.61,0,1,0,.863.863" transform="translate(-254.163 -13.839)" fill="#fff"/>
        </g>
      </g>
    </g>
  </g>
</svg>
