<svg xmlns="http://www.w3.org/2000/svg" xmlns:xlink="http://www.w3.org/1999/xlink" width="90" height="90" viewBox="0 0 90 90">
  <defs>
    <clipPath id="clip-path">
      <rect id="Rectángulo_457410" data-name="Rectángulo 457410" width="60" height="60" fill="none"/>
    </clipPath>
  </defs>
  <g id="Grupo_1206607" data-name="Grupo 1206607" transform="translate(-1167.711 -2801)">
    <circle id="Elipse_13688" data-name="Elipse 13688" cx="45" cy="45" r="45" transform="translate(1167.711 2801)" fill="#fff"/>
    <g id="Grupo_1206606" data-name="Grupo 1206606" transform="translate(1182.711 2816)">
      <path id="Trazado_1263930" data-name="Trazado 1263930" d="M53.888,4.185v21.1h7.436l3.859,6.165,29.956.474V15.091L83.414,3.977Z" transform="translate(-44.305 -3.27)" fill="#f5f5f5"/>
      <g id="Grupo_1206605" data-name="Grupo 1206605">
        <g id="Grupo_1206604" data-name="Grupo 1206604" clip-path="url(#clip-path)">
          <path id="Trazado_1263931" data-name="Trazado 1263931" d="M.95,25.782a1.469,1.469,0,0,1-.731-.253c-.282-.3-.251-3.508-.136-4.09A2.931,2.931,0,0,1,3.135,19.42c.3-2.049-.789-6.483,1-7.909,1.3-1.034,3.634-.156,4.294-.589C9,10.545,7.883,7.709,9.585,7.733c.319,0,.836.291.836.6V19.421h6.466c.9,0,1.852,1.316,2.184,1.377l15.477,0c1.081.194.633,1.714.005,1.714H20.074L22.533,26.3h27.41V12.975a1.78,1.78,0,0,0-.273-.258H38.56a2.645,2.645,0,0,1-.455-.6V1.714H10.421V4.723c0,.6-1.569.979-1.777-.033C8.519,4.081,8.494.52,8.825.208a1.29,1.29,0,0,1,.6-.2L39.284,0c4.317,3.659,8.3,7.768,12.48,11.6v5.415h3.187a4.452,4.452,0,0,1,1.186.772c1.454,1.635.4,6.376.725,8.512a2.915,2.915,0,0,1,2.955,1.595c.216,10.11.278,20.368-.031,30.474a2.735,2.735,0,0,1-1.963,1.585L2.674,60A2.641,2.641,0,0,1,.033,57.506l.1-28.975.821-.343c.023.023.4-.045.636.167.628.575.094,5.272.274,6.365H48.395c.092,0,.708.631.637.86-.054.046-.14,1.031-.82,1.031H1.861V50.193H7.052c.138,0,.579.66.637.86-.03.02-.048.486-.224.647-.552.5-4.131.037-5.148.213-.152.026-.456.137-.456.258V57.5c0,.388.912.9,1.358.782H56.781c.327.125,1.357-.389,1.357-.61V51.913H10.694c-.554,0-.589-.827-.637-.86a1.014,1.014,0,0,1,.992-.868l47.09.009V36.612H52.22c-.266,0-.637-.7-.637-1.031,0-.365.236-.86.637-.86h5.919v-6.1a2.056,2.056,0,0,0-.593-.472c-11.745-.329-23.563.009-35.334-.171-1.944-.333-3.821-4.964-5.044-6.413a2.026,2.026,0,0,0-1.192-.422A95.326,95.326,0,0,0,3.4,21.134a2.214,2.214,0,0,0-1.265.353c-.86.842.582,4.36-1.187,4.3M48.3,11l-8.2-7.736V11ZM8.6,12.717H5.595a2.961,2.961,0,0,0-.455.43v6.275H8.6ZM54.86,26.3V19.163a2.961,2.961,0,0,0-.455-.43H51.764V26.3Z" transform="translate(0 0.001)" fill="#050504"/>
          <path id="Trazado_1263932" data-name="Trazado 1263932" d="M5.1,126.6c1.769.065.326-3.454,1.187-4.3a2.214,2.214,0,0,1,1.265-.353,95.325,95.325,0,0,1,12.574.007,2.026,2.026,0,0,1,1.192.422c1.223,1.45,3.1,6.081,5.044,6.413,11.771.18,23.589-.158,35.334.171a2.056,2.056,0,0,1,.593.472v6.1H56.364c-.4,0-.638.495-.637.86-.392.059-2.456-.081-2.55,0,.071-.229-.545-.86-.637-.86H6.006c-.181-1.093.354-5.791-.274-6.365-.232-.212-.614-.145-.636-.167-.087-.087.063-2.036,0-2.407" transform="translate(-4.144 -100.818)" fill="#fddf76"/>
          <path id="Trazado_1263933" data-name="Trazado 1263933" d="M95.792,84.422a1.03,1.03,0,0,1-.766,1.687l-19.5-.006c-1.537-.114-1.537-1.784,0-1.9,6.254.377,13.139-.491,19.317,0a1.774,1.774,0,0,1,.95.22" transform="translate(-60.827 -69.6)" fill="#050504"/>
          <path id="Trazado_1263934" data-name="Trazado 1263934" d="M96.118,49.977c.916.143.722,1.719,0,1.719h-20.4c-.594,0-.594-1.719,0-1.719Z" transform="translate(-61.564 -41.385)" fill="#050504"/>
          <path id="Trazado_1263935" data-name="Trazado 1263935" d="M59.942,206.852c0,.331.372,1.031.637,1.031H66.5v13.581l-47.089-.009a1.014,1.014,0,0,0-.992.868,14.594,14.594,0,0,0-2.368,0c-.059-.2-.5-.86-.637-.86H10.221V207.883H56.573c.68,0,.766-.985.82-1.031.094-.081,2.157.059,2.55,0m-10.26,2.818c-6.835.007-6.513,9.895.144,9.737,1.1-.026,3.462-.926,3.4-2.153-.1-1.856-2.076-.011-2.6.143-4.645,1.376-5.8-6.032-.79-5.917.974.023,2.662,1.385,3.115.018.419-1.262-2.33-1.829-3.267-1.828m-26.166.534v8.6c0,1.076,4.181.486,5.041.116,3.622-1.56,3.185-8.67-.938-9.146a22.571,22.571,0,0,0-3.46.009c-.214.039-.592.256-.642.425m13.431-.388c-4.594.685-5.441,7.378-.824,9.119,8.206,3.094,10.046-10.495.824-9.119" transform="translate(-8.359 -171.27)" fill="#f5f5f5"/>
          <path id="Trazado_1263936" data-name="Trazado 1263936" d="M18.417,296.745c.048.032.083.86.637.86H66.5v5.759c0,.221-1.03.734-1.357.61H11.579c-.445.12-1.358-.393-1.358-.782v-5.329c0-.121.3-.232.456-.258,1.018-.176,4.6.292,5.148-.213.176-.161.195-.627.224-.647a14.561,14.561,0,0,1,2.368,0" transform="translate(-8.359 -245.691)" fill="#fddf76"/>
          <path id="Trazado_1263937" data-name="Trazado 1263937" d="M228.417,26.713h-8.2V18.977Z" transform="translate(-180.113 -15.715)" fill="#f5f5f5"/>
          <path id="Trazado_1263938" data-name="Trazado 1263938" d="M287.317,116.541h-3.1v-7.564h2.641a2.962,2.962,0,0,1,.455.43Z" transform="translate(-232.456 -90.243)" fill="#fddf76"/>
          <path id="Trazado_1263939" data-name="Trazado 1263939" d="M31.681,73.977v6.7h-3.46V74.407a2.961,2.961,0,0,1,.455-.43Z" transform="translate(-23.081 -61.259)" fill="#fddf76"/>
          <path id="Trazado_1263940" data-name="Trazado 1263940" d="M139.474,223.746c9.222-1.376,7.381,12.212-.824,9.119-4.616-1.74-3.77-8.433.824-9.119m.545,1.719c-4.017.637-3.141,6.727,1.373,5.935,3.759-.659,3.05-6.636-1.373-5.935" transform="translate(-110.887 -185.2)" fill="#050504"/>
          <path id="Trazado_1263941" data-name="Trazado 1263941" d="M83.221,224.087c.05-.17.429-.387.642-.425a22.528,22.528,0,0,1,3.46-.009c4.124.475,4.56,7.585.938,9.146-.859.37-5.041.96-5.041-.116Zm1.821,7.306c3.131.684,4.587-2.106,3.5-4.59-.7-1.592-1.888-1.5-3.5-1.427Z" transform="translate(-68.064 -185.153)" fill="#050504"/>
          <path id="Trazado_1263942" data-name="Trazado 1263942" d="M204.485,223.368c.937,0,3.685.566,3.267,1.828-.453,1.367-2.141,0-3.115-.018-5.008-.115-3.855,7.292.79,5.917.521-.154,2.5-2,2.6-.143.067,1.227-2.295,2.127-3.4,2.153-6.656.157-6.979-9.73-.144-9.737" transform="translate(-163.162 -184.968)" fill="#050504"/>
          <path id="Trazado_1263943" data-name="Trazado 1263943" d="M148.423,233.945c4.422-.7,5.131,5.275,1.373,5.935-4.514.792-5.389-5.3-1.373-5.935" transform="translate(-119.291 -193.68)" fill="#f5f5f5"/>
          <path id="Trazado_1263944" data-name="Trazado 1263944" d="M93.221,239.831v-6.017c1.608-.076,2.8-.165,3.5,1.427,1.09,2.484-.365,5.273-3.5,4.59" transform="translate(-76.243 -193.591)" fill="#f5f5f5"/>
        </g>
      </g>
    </g>
  </g>
</svg>
