<svg xmlns="http://www.w3.org/2000/svg" xmlns:xlink="http://www.w3.org/1999/xlink" width="96" height="96" viewBox="0 0 96 96">
  <defs>
    <clipPath id="clip-path">
      <rect id="Rectángulo_457492" data-name="Rectángulo 457492" width="55.596" height="55.73" fill="#fff"/>
    </clipPath>
  </defs>
  <g id="Grupo_1205944" data-name="Grupo 1205944" transform="translate(-383.746 -8400.001)">
    <path id="Trazado_997400" data-name="Trazado 997400" d="M48,0A48,48,0,1,1,0,48,48,48,0,0,1,48,0Z" transform="translate(383.746 8400.001)" fill="#5d0b80"/>
    <g id="Grupo_1099776" data-name="Grupo 1099776" transform="translate(401.746 8418)">
      <g id="Grupo_1099618" data-name="Grupo 1099618" transform="translate(0 -0.137)">
        <rect id="Rectángulo_401104" data-name="Rectángulo 401104" width="59.378" height="60.093" transform="translate(0)" fill="none"/>
      </g>
      <g id="Grupo_1206655" data-name="Grupo 1206655" transform="translate(2 1.863)">
        <g id="Grupo_1206654" data-name="Grupo 1206654" clip-path="url(#clip-path)">
          <path id="Trazado_1264168" data-name="Trazado 1264168" d="M116.116,4.029A3.023,3.023,0,0,1,118,6.4l-.038,24.025c-.847,2.852-3.907,1.945-6.183,2.085a6.3,6.3,0,0,1-3.024,6.713,6.439,6.439,0,0,1-9.58-6.714c-2.138-.148-5,.727-6.021-1.755-.449-8.06-.088-16.237-.184-24.339.594-3.283,3.64-2.155,6.052-2.459.379-.264-.07-1.458.3-1.987.438-.617,1.712-.309,1.807-.4A1.288,1.288,0,0,1,102.213.11c2.009-.315,4.862.155,6.957.063.612.228.685.818.645,1.4,1.9-.274,2.285.764,2.128,2.455,1.218.169,3.039-.228,4.174,0m-15.141-.655v3.11H109.9l.246-.246V3.62c-1.164-.595-2.342.348-2.127-1.72l-4.807.024c-.493.165-.036,1.1-.595,1.369Zm-1.8,2.455H95.329a4.226,4.226,0,0,0-.488.494L94.766,29.8c.257,1.63,3.614.634,4.823.923l.208-.047a6.419,6.419,0,0,1,11.436.041c1.265-.172,3.031.212,4.224-.011a1.043,1.043,0,0,0,.655-.491L116.047,6.1c-.341-.54-3.365-.155-4.106-.274a3.163,3.163,0,0,1-.394,2.144L99.5,8.04c-.575-.28-.246-1.64-.327-2.211M105.2,28.95a4.682,4.682,0,1,0,4.925,3.987A4.873,4.873,0,0,0,105.2,28.95" transform="translate(-77.712 0)" fill="#fff"/>
          <path id="Trazado_1264169" data-name="Trazado 1264169" d="M273.826,260.568a3.786,3.786,0,0,1,3.827,5.774,4.454,4.454,0,0,1,2.582,3.289c.239,1.957.259,3.64-2.022,3.834a54.039,54.039,0,0,1-7.533-.008c-2.055-.207-2.04-1.807-1.891-3.522a4.208,4.208,0,0,1,2.611-3.593,3.772,3.772,0,0,1,2.425-5.774m.331,1.8c-2.84.463-1.409,5.045,1.3,3.6a1.94,1.94,0,0,0-1.3-3.6m-3.561,9.3h7.611a2.423,2.423,0,0,0-1.633-3.6,26.339,26.339,0,0,0-3.94,0c-2.1.2-2.167,1.879-2.038,3.609" transform="translate(-224.745 -217.87)" fill="#fff"/>
          <path id="Trazado_1264170" data-name="Trazado 1264170" d="M197.281,266.535c-.566-1.7-.889-3.148.334-4.657,2.987-3.685,8.579.579,5.9,4.424,2.535,1.127,2.922,3.134,2.62,5.732-.122,1.049-.936,1.311-1.879,1.394a54.148,54.148,0,0,1-7.7-.006c-.757-.084-1.576-.392-1.709-1.238a16.442,16.442,0,0,1,.027-3.227,3.738,3.738,0,0,1,2.408-2.423m4.538-.862c1.868-1.759-.958-4.8-2.816-2.734-1.587,1.769,1.04,4.406,2.816,2.734m2.511,5.948v-2.373c0-.376-1.164-1.112-1.593-1.19a16.16,16.16,0,0,0-5.1.225c-.242.119-1,.783-1,.964v2.373Z" transform="translate(-162.897 -217.833)" fill="#fff"/>
          <path id="Trazado_1264171" data-name="Trazado 1264171" d="M11.1,272.837a2.9,2.9,0,0,1-1.506.54,53.7,53.7,0,0,1-7.534.009c-1.5-.133-1.952-.734-2.044-2.21-.127-2.03.524-4.041,2.613-4.684-.6-1.627-.893-3.367.366-4.788,3.061-3.456,8.447.723,5.879,4.558a5.326,5.326,0,0,1,2.308,2.094c.375.863.554,3.8-.082,4.481m-5.72-10.55c-2.159.376-1.876,3.922.433,3.876,2.653-.052,2.526-4.391-.433-3.876m4.3,9.292c-.012-1.256.3-2.619-1-3.342-.67-.374-3.92-.354-4.823-.267-1.893.182-2.489,2.077-1.792,3.609Z" transform="translate(0 -217.791)" fill="#fff"/>
          <path id="Trazado_1264172" data-name="Trazado 1264172" d="M245.731,189.819a2.126,2.126,0,0,1-1.009.384,58.375,58.375,0,0,1-8.519,0,1.505,1.505,0,0,1-1.4-1.551c-.215-2.342.145-4.518,2.627-5.33-1.549-2.105-.268-5.583,2.373-5.89,3.516-.408,5.332,2.759,3.859,5.795.851.619,1.678.92,2.144,1.952.378.835.58,4.037-.08,4.641m-3.764-10.046a2.79,2.79,0,0,0-1.021-.533,1.928,1.928,0,1,0,0,3.748c1.366-.212,1.883-2.244,1.023-3.215m2.343,8.625c.164-2.314-.019-3.422-2.53-3.608-2.952-.218-5.83-.257-5.163,3.608Z" transform="translate(-196.33 -148.359)" fill="#fff"/>
          <path id="Trazado_1264173" data-name="Trazado 1264173" d="M83.585,266.648a3.647,3.647,0,0,1,2.372,2.295,15,15,0,0,1,.063,3.355c-.132.846-.952,1.153-1.709,1.238a53.122,53.122,0,0,1-7.535.005c-1.1-.094-1.91-.343-2.045-1.557-.282-2.53.2-4.428,2.609-5.566-3.013-4.637,4.506-8.391,6.52-3.562.636,1.524.128,2.337-.276,3.793m-3.658-4.21c-2.767.614-1.074,5.159,1.577,3.543a1.972,1.972,0,0,0-1.577-3.543m-3.391,9.3h7.611c.338-.242.262-.694.254-1.069-.027-1.411-.542-2.4-2.047-2.54-.9-.087-4.154-.107-4.823.267-1.294.723-.983,2.086-1,3.342" transform="translate(-62.439 -217.946)" fill="#fff"/>
          <path id="Trazado_1264174" data-name="Trazado 1264174" d="M43.383,183.074a3.669,3.669,0,0,1,2.546,2.449,10,10,0,0,1-.112,3.671,1.538,1.538,0,0,1-1.2.761,58.243,58.243,0,0,1-8.519,0,1.511,1.511,0,0,1-1.391-1.391c-.275-2.34.087-4.752,2.623-5.49a3.757,3.757,0,1,1,6.056,0M40.355,178.9c-2.308,0-2.657,3.533-.312,3.831,2.927.371,2.874-3.83.312-3.831m3.847,9.246c.164-2.314-.019-3.422-2.53-3.608-2.952-.218-5.83-.257-5.163,3.608Z" transform="translate(-28.958 -148.112)" fill="#fff"/>
          <path id="Trazado_1264175" data-name="Trazado 1264175" d="M126.785,114.1c.14.115.222.49.456.6.184,0,1.443-2.087,2-2.256,1.022-.31,1.449.443,1.041,1.372a26.154,26.154,0,0,1-1.892,2.363c-.494.52-.862,1.12-1.648.66a7.585,7.585,0,0,1-1.521-1.927.949.949,0,0,1,1.565-.815" transform="translate(-104.713 -93.982)" fill="#fff"/>
          <path id="Trazado_1264176" data-name="Trazado 1264176" d="M126.6,73.758a5.885,5.885,0,0,1-1.33-2.123c.188-1.22,1.53-.812,2.02.042.167,0,1.478-2.018,1.885-2.2.936-.426,1.571.251,1.217,1.216a22.214,22.214,0,0,1-2.811,3.254,1.169,1.169,0,0,1-.981-.186" transform="translate(-104.768 -57.994)" fill="#fff"/>
          <path id="Trazado_1264177" data-name="Trazado 1264177" d="M153.864,188.85c.742-.078,1.423,1.007,1.941,1.428,1.993-2.7,4.083-.931,1.4,1.253.421.918,1.936,1.357,1.068,2.53-1.1.585-1.767-.493-2.471-1.158-1.951,2.617-4.073.9-1.4-1.253.055-.315-1.235-1.154-1.3-1.787a.984.984,0,0,1,.76-1.013" transform="translate(-128.041 -157.935)" fill="#fff"/>
          <rect id="Rectángulo_457488" data-name="Rectángulo 457488" width="9.094" height="1.6" transform="translate(27.101 11.658)" fill="#fff"/>
          <rect id="Rectángulo_457489" data-name="Rectángulo 457489" width="6.184" height="1.528" transform="translate(27.101 14.204)" fill="#fff"/>
          <rect id="Rectángulo_457490" data-name="Rectángulo 457490" width="9.094" height="1.6" transform="translate(26.81 18.569)" fill="#fff"/>
          <rect id="Rectángulo_457491" data-name="Rectángulo 457491" width="6.184" height="1.528" transform="translate(26.81 21.115)" fill="#fff"/>
        </g>
      </g>
    </g>
  </g>
</svg>
