<svg xmlns="http://www.w3.org/2000/svg" xmlns:xlink="http://www.w3.org/1999/xlink" width="96" height="96" viewBox="0 0 96 96">
  <defs>
    <clipPath id="clip-path">
      <rect id="Rect치ngulo_457493" data-name="Rect치ngulo 457493" width="52.569" height="60.093" fill="#fff"/>
    </clipPath>
  </defs>
  <g id="Grupo_1205945" data-name="Grupo 1205945" transform="translate(-383.746 -8400.001)">
    <path id="Trazado_997400" data-name="Trazado 997400" d="M48,0A48,48,0,1,1,0,48,48,48,0,0,1,48,0Z" transform="translate(383.746 8400.001)" fill="#5d0b80"/>
    <g id="Grupo_1099776" data-name="Grupo 1099776" transform="translate(401.746 8418)">
      <g id="Grupo_1099618" data-name="Grupo 1099618" transform="translate(0 -0.137)">
        <rect id="Rect치ngulo_401104" data-name="Rect치ngulo 401104" width="59.378" height="60.093" transform="translate(0)" fill="none"/>
      </g>
      <g id="Grupo_1206657" data-name="Grupo 1206657" transform="translate(3 -0.137)">
        <g id="Grupo_1206656" data-name="Grupo 1206656" clip-path="url(#clip-path)">
          <path id="Trazado_1264178" data-name="Trazado 1264178" d="M25.34,9.157c-9.244.092-17.568,7.2-19.516,16.16C3.8,34.605,7.532,42.7,15.21,47.913c.645.438,2.377,1.01,2.35,1.875A25.4,25.4,0,0,1,15.715,53.6c-.783.476-2.862-.93-3.6-1.391A26.267,26.267,0,0,1,25.341,3.828c-.334-1.722.19-5.056,2.585-3.361A52,52,0,0,1,32.652,5.2a1.641,1.641,0,0,1,.083,2.327,55.152,55.152,0,0,1-4.93,4.87,1.387,1.387,0,0,1-1.956-.049,3.049,3.049,0,0,1-.508-.7Zm1.893,1.032L31,6.468,27.316,2.624C27.4,6.3,26.152,5.4,23.557,5.74,2.326,8.517-5.85,34.752,10.473,48.7a24.27,24.27,0,0,0,3.988,2.722.64.64,0,0,0,.383.025l.525-1.364C2.765,43.444-.409,26.756,8.5,15.609c3.426-4.289,9.537-7.834,15.061-8.321,2.657-.234,4.028-.277,3.676,2.9" transform="translate(0 0)" fill="#fff"/>
          <path id="Trazado_1264179" data-name="Trazado 1264179" d="M120.626,81.732c9.244-.092,17.568-7.2,19.516-16.16,2.013-9.254-1.7-17.425-9.385-22.6-.646-.435-2.377-1.012-2.35-1.875a25.393,25.393,0,0,1,1.845-3.813c.783-.476,2.862.93,3.6,1.391a26.266,26.266,0,0,1-13.225,48.383c.334,1.722-.19,5.057-2.585,3.361a52,52,0,0,1-4.726-4.73,1.641,1.641,0,0,1-.083-2.327,55.175,55.175,0,0,1,4.93-4.869c.738-.46,1.266-.566,1.956.049a3.052,3.052,0,0,1,.508.7Zm-1.893,6.533c-.037-1.54-.207-2.832,1.65-3.079,4.473-.6,6.873-.656,11.018-2.909,15.912-8.647,17.109-31.709,1.933-41.707-.349-.23-1.933-1.31-2.2-1.12L130.6,40.81c12.584,6.592,15.791,23.379,6.873,34.47-3.544,4.408-9.825,8.024-15.546,8.352-2.734.157-3.323,0-3.274-2.93l-3.685,3.844Z" transform="translate(-93.396 -30.796)" fill="#fff"/>
          <path id="Trazado_1264180" data-name="Trazado 1264180" d="M71.926,85.7a5.447,5.447,0,0,0,1.437.552c.563.018,1-.511,1.87-.336.4.081.557.521.862.521.139,0,1.68-1.152,2.088-1.358a9.376,9.376,0,1,1,6.782,17.357c.8,3.066.716,5.656-.976,8.393-5.158,8.34-18.269,3.736-17.243-6.067.094-.9,1.007-2.921.715-3.506a4.269,4.269,0,0,0-1.538-.867c-.4-.026-.918.741-1.958.407a5.545,5.545,0,0,1-1.853-1.942c-.171-.829.476-1.165.474-1.679a9.54,9.54,0,0,0-.518-1.36c-.464-.619-1.585-.228-1.835-1.6-.17-.936-.139-2.225.757-2.77.3-.181.9-.251,1.054-.409a12.937,12.937,0,0,0,.525-1.293c.094-.619-.715-.992-.412-1.943A9.794,9.794,0,0,1,63.806,86c.965-.411,1.543.381,2.669.09,1.455-.377.751-.937,1.444-1.651.55-.568,2.373-.563,3.061-.288.881.352.628,1.2.947,1.547M77.2,92.97c-.075-.09-1.11-.085-1.573-.92-.1-.185-.948-2.188-.967-2.312-.1-.64.9-1.218.237-1.778-.379-.32-.849.31-1.405.353a12.614,12.614,0,0,1-2.733-1.022c-.62-.441-.459-1.468-1.2-1.391-.519.054-.467.992-1.028,1.391A12.614,12.614,0,0,1,65.8,88.312c-.556-.043-1.026-.672-1.405-.353-.658.555.315,1.119.235,1.777a13.662,13.662,0,0,1-1.352,2.786c-.369.3-1.212.33-1.2.695.017.814.932.607,1.459,1.3a13.047,13.047,0,0,1,1.11,2.658c-.01.451-.834,1.212-.333,1.552.435.3.9-.207,1.311-.264a6.4,6.4,0,0,1,3.252,1.368,9.76,9.76,0,0,1,3.652-2.7c.555-.215,1.977-.451,2.274-.649.412-.275.651-1.6,1.033-2.062.323-.394,1.925-.783,1.37-1.446m5,5.665,1.838,2.039a7.474,7.474,0,1,0-3.948-14.381,9.357,9.357,0,0,0-2.78,1.69c-.047.073-.6,1.537-.6,1.624a14.491,14.491,0,0,0,.545,1.419c.156.18.944.243,1.346.633.755.733.759,3.037-.195,3.609-.605.363-1.45.162-1.363,1.3A7.311,7.311,0,0,1,81.6,98.288c.544-1.474-.537-1.182-1.264-2-.5-.565-1.143-1.959-.077-2.268,1.179-.342,1.072.735,1.68,1.18s1.861.368,1.636-.43c-.12-.424-3.288-.388-3.6-2.42a2.4,2.4,0,0,1,.933-2.483c.187-.159.592-.18.7-.336.272-.411-.246-1.336.853-1.4,1.188-.068.818.924,1.207,1.388.246.294,1.078.447,1.436,1.143.254.494.414,1.544-.271,1.75-1.338.4-1.139-.93-1.756-1.1-.757-.207-1.765.167-1.049.878.614.61,2.4.257,3.17,1.643.7,1.26.117,2.254-.845,3.081-.184.158-.525.156-.685.347-.416.5-.07,1.666-1.465,1.373m-6.916-.3c-9.7,1.013-8.417,16.118,2,14.891,9.048-1.065,7.995-15.934-2-14.891" transform="translate(-49.811 -69.532)" fill="#fff"/>
          <path id="Trazado_1264181" data-name="Trazado 1264181" d="M148.816,177.348h5.072c.653,0,1.219,1.542.136,1.855a49.244,49.244,0,0,1-6.162.045.974.974,0,0,1-.946-.946,41.05,41.05,0,0,1,.046-5.99.953.953,0,0,1,1.854-.037Z" transform="translate(-121.585 -142.057)" fill="#fff"/>
          <path id="Trazado_1264182" data-name="Trazado 1264182" d="M97.729,117.383c4.141-.432,5.621,5.415,1.826,6.992-5.19,2.156-7.267-6.424-1.826-6.992m1.7,2.42c-1.643-1.858-4.425,1.037-2.361,2.62,1.771,1.359,3.666-1.144,2.361-2.62" transform="translate(-78.273 -97.183)" fill="#fff"/>
        </g>
      </g>
    </g>
  </g>
</svg>
