<svg xmlns="http://www.w3.org/2000/svg" xmlns:xlink="http://www.w3.org/1999/xlink" width="96" height="96" viewBox="0 0 96 96">
  <defs>
    <clipPath id="clip-path">
      <rect id="Rectángulo_457487" data-name="Rectángulo 457487" width="52.336" height="57.502" fill="#fff"/>
    </clipPath>
  </defs>
  <g id="Grupo_1205942" data-name="Grupo 1205942" transform="translate(-383.746 -8400.001)">
    <path id="Trazado_997400" data-name="Trazado 997400" d="M48,0A48,48,0,1,1,0,48,48,48,0,0,1,48,0Z" transform="translate(383.746 8400.001)" fill="#5d0b80"/>
    <g id="Grupo_1099776" data-name="Grupo 1099776" transform="translate(401.746 8418)">
      <g id="Grupo_1099618" data-name="Grupo 1099618" transform="translate(0 -0.137)">
        <rect id="Rectángulo_401104" data-name="Rectángulo 401104" width="59.378" height="60.093" transform="translate(0)" fill="none"/>
      </g>
      <g id="Grupo_1206653" data-name="Grupo 1206653" transform="translate(4 0.863)">
        <g id="Grupo_1206652" data-name="Grupo 1206652" clip-path="url(#clip-path)">
          <path id="Trazado_1264158" data-name="Trazado 1264158" d="M45.053,16.16H43.238V9.065H36.721a3.528,3.528,0,0,1-.742-.907V1.806H1.824V55.76H43.238V36.95h1.815V57a4.27,4.27,0,0,1-.5.492L.659,57.5A1.078,1.078,0,0,1,0,56.345V1.22A1.078,1.078,0,0,1,.659.063L38.856,0a1.339,1.339,0,0,1,.755.4,49.532,49.532,0,0,1,4.951,4.949,4.129,4.129,0,0,1,.491.664ZM43.238,7.25A.926.926,0,0,0,43,6.416c-.225-.333-4.184-4.295-4.456-4.454a1.011,1.011,0,0,0-.751-.157V7l.247.247Z" transform="translate(0)" fill="#fff"/>
          <path id="Trazado_1264159" data-name="Trazado 1264159" d="M172.9,119.229a27,27,0,0,1-2.242,2.293,46.187,46.187,0,0,1-5.37,1.413c-.72.064-1.2-.267-1.18-1.013a43.357,43.357,0,0,1,1.474-5.638l17.743-17.732a3.666,3.666,0,0,1,5.979,3.5c-.2,1.142-2.217,3.073-3.091,4-4.2,4.473-8.868,8.92-13.312,13.17m14.077-19.141c-1.484-1.486-2.918.286-3.9,1.347l2.554,2.554c1.053-.95,2.769-2.477,1.347-3.9m-4.99,2.841c-.119-.1-.008-.4-.234-.175L170.206,114.3l2.555,2.555,11.394-11.383v-.327a29.807,29.807,0,0,0-2.168-2.22m-14.042,14.379c.533.616,1.645,1.313,2.2,2.017l1.2-1.083-2.4-2.523c-.493.29-1.528.975-1,1.589m.277,3.017c.176-.243-1.208-1.461-1.482-1.648l-.5,2.145Z" transform="translate(-137.03 -81.562)" fill="#fff"/>
          <path id="Trazado_1264160" data-name="Trazado 1264160" d="M85.288,24.035a9.044,9.044,0,1,0,2.983,1.874l1.083-1.2c5.425,4.508,4.39,13.319-1.54,16.951A10.822,10.822,0,0,1,71.676,29.643c1.522-5.905,8.416-9.694,14.1-7.166Z" transform="translate(-59.541 -18.103)" fill="#fff"/>
          <rect id="Rectángulo_457482" data-name="Rectángulo 457482" width="14.355" height="1.815" transform="translate(13.539 49.49)" fill="#fff"/>
          <path id="Trazado_1264161" data-name="Trazado 1264161" d="M112.908,62.012c.2-.035,1.5,1.092,1.138,1.47L106.82,70.62a.777.777,0,0,1-.778.044c-.7-.322-2.178-2.452-2.971-2.972l1.235-1.235,2.122,1.965Z" transform="translate(-86.065 -51.779)" fill="#fff"/>
          <path id="Trazado_1264162" data-name="Trazado 1264162" d="M27.111,169.1v-.826h1.817c-.079.744.33,2.335-.613,2.606a45.241,45.241,0,0,1-5.749.044.935.935,0,0,1-.907-.907,43.358,43.358,0,0,1,.044-5.584c.278-.968,1.992-.519,2.771-.613l-.072,1.661-.919.154V169.1Z" transform="translate(-18.027 -136.766)" fill="#fff"/>
          <path id="Trazado_1264163" data-name="Trazado 1264163" d="M27.084,229.219v-.826H28.9c-.079.744.33,2.335-.613,2.606a45.238,45.238,0,0,1-5.749.044.935.935,0,0,1-.907-.907,36.36,36.36,0,0,1,.081-5.716.681.681,0,0,1,.132-.276l2.6-.2-.009,1.643-.981.173v3.465Z" transform="translate(-18.001 -186.989)" fill="#fff"/>
          <path id="Trazado_1264164" data-name="Trazado 1264164" d="M27.084,289.219v-.826H28.9c-.079.744.33,2.335-.613,2.606a45.267,45.267,0,0,1-5.749.044.935.935,0,0,1-.907-.908,36.34,36.34,0,0,1,.081-5.716.681.681,0,0,1,.132-.276l2.6-.2v1.652h-.991v3.63Z" transform="translate(-18 -237.089)" fill="#fff"/>
          <rect id="Rectángulo_457483" data-name="Rectángulo 457483" width="12.705" height="1.815" transform="translate(13.539 29.69)" fill="#fff"/>
          <rect id="Rectángulo_457484" data-name="Rectángulo 457484" width="9.075" height="1.815" transform="translate(13.539 39.59)" fill="#fff"/>
          <path id="Trazado_1264165" data-name="Trazado 1264165" d="M44.958,272.012c.2-.035,1.5,1.092,1.138,1.47L41.64,277.95c-.549.394-1.113-.8-1.569-1.082Z" transform="translate(-33.459 -227.13)" fill="#fff"/>
          <path id="Trazado_1264166" data-name="Trazado 1264166" d="M44.605,213.961l1.226,1.377-4.5,4.383L40.071,218.5Z" transform="translate(-33.459 -178.658)" fill="#fff"/>
          <path id="Trazado_1264167" data-name="Trazado 1264167" d="M44.474,155.019c.364-.1,1.4.962,1.357,1.2l-4.5,4.383-1.257-1.225Z" transform="translate(-33.459 -129.436)" fill="#fff"/>
          <rect id="Rectángulo_457485" data-name="Rectángulo 457485" width="1.817" height="1.817" transform="translate(43.237 33.319)" fill="#fff"/>
          <rect id="Rectángulo_457486" data-name="Rectángulo 457486" width="1.817" height="1.817" transform="translate(24.428 39.589)" fill="#fff"/>
        </g>
      </g>
    </g>
  </g>
</svg>
