<svg xmlns="http://www.w3.org/2000/svg" xmlns:xlink="http://www.w3.org/1999/xlink" width="160.5" height="160.501" viewBox="0 0 160.5 160.501">
  <defs>
    <clipPath id="clip-path">
      <rect id="Rectángulo_455261" data-name="Rectángulo 455261" width="38.951" height="37.623" fill="#e6fffa"/>
    </clipPath>
    <clipPath id="clip-path-2">
      <rect id="Rectángulo_457533" data-name="Rectángulo 457533" width="85.39" height="85.154" fill="#5d0b80"/>
    </clipPath>
  </defs>
  <g id="Grupo_1205952" data-name="Grupo 1205952" transform="translate(-307.436 -10011.92)">
    <path id="Sustracción_130" data-name="Sustracción 130" d="M26.051,25.795H0V11.245H11.352V0h14.7V25.795Z" transform="translate(441.641 10038.471) rotate(-90)" fill="#e3a4fe" stroke="rgba(0,0,0,0)" stroke-miterlimit="10" stroke-width="1"/>
    <g id="Grupo_1178100" data-name="Grupo 1178100" transform="translate(307.436 10172.421) rotate(-90)">
      <path id="Trazado_998183" data-name="Trazado 998183" d="M0,0V37.623H25.58V24.056H38.951V0Z" transform="translate(0 0)" fill="#5d0b80"/>
      <g id="Grupo_1178099" data-name="Grupo 1178099" transform="translate(0 0)">
        <g id="Grupo_1178098" data-name="Grupo 1178098" clip-path="url(#clip-path)">
          <path id="Trazado_998184" data-name="Trazado 998184" d="M0,9.021a9.025,9.025,0,1,1,9.025,9.021A9.023,9.023,0,0,1,0,9.021" transform="translate(4.434 5.629)" fill="#e3a4fe"/>
        </g>
      </g>
    </g>
    <g id="Grupo_1177470" data-name="Grupo 1177470" transform="translate(308.059 10012.421)">
      <circle id="Elipse_13609" data-name="Elipse 13609" cx="79.688" cy="79.688" r="79.688" fill="#f0d5fe"/>
      <g id="Grupo_1099776" data-name="Grupo 1099776" transform="translate(33.723 33.96)">
        <g id="Grupo_1099618" data-name="Grupo 1099618" transform="translate(0 0)">
          <rect id="Rectángulo_401104" data-name="Rectángulo 401104" width="90.569" height="91.661" transform="translate(0)" fill="none"/>
        </g>
        <g id="Grupo_1206670" data-name="Grupo 1206670" transform="translate(2.395 4.392)">
          <g id="Grupo_1206669" data-name="Grupo 1206669" clip-path="url(#clip-path-2)">
            <path id="Trazado_1264299" data-name="Trazado 1264299" d="M56.95,59.086c-.141.134-.4.825-.315.941,7.9,3.164,16.4,5.584,24.221,8.874,1.38.58,2.8,1.04,3.672,2.368a5.113,5.113,0,0,1-5.1,7.869L53.737,67.358c-1.379,1.282,1.115,3.154.84,4.811a18.274,18.274,0,0,1-1.61,3.444c-.847.977-2.2.911-3.381.651C44.52,73.8,38.85,72.36,34.107,69.346H3.153A3.839,3.839,0,0,1,.207,67.009L0,3.27A3.863,3.863,0,0,1,2.319.052L57.15,0c1.913.824,2.361,2.324,2.514,4.28l-.01,46.062.249.506a2.685,2.685,0,0,1,2.036,3.024A12.28,12.28,0,0,1,60.67,57.4c-.739.9-3.131,1.128-3.72,1.69m-.063-9.625V3.534a3.851,3.851,0,0,0-.629-.881H3.159l-.377.377v63.29l31.538.261c.319-.076.761-2.006,1.286-2.542,1.454-1.487,2.814-.231,4.211-3.087A66.423,66.423,0,0,0,42.746,53.8c.279-1.646-1.289-2.8-1.229-4.207a14.5,14.5,0,0,1,1.138-2.913,3.123,3.123,0,0,1,2.336-1.693c1.833-.161,11.475,4.951,11.9,4.474m1.694,5.972a16.207,16.207,0,0,0,.575-1.581l-.258-.488L45.092,47.984c-1.007,1.607-.341,2.755.389,4.263,2.1.454,9.125,4.472,10.71,4.217a19.877,19.877,0,0,0,2.39-1.032M54.12,58.776l-9.042-3.511-3.039,7.53,9.05,3.52ZM81.974,72.44,55.893,62.645c-.465-.076-1.99,2.416-.529,2.557L79.721,76.328c2.248.819,3.9-2.4,2.254-3.888M51.075,73.6c.868-1.624.338-2.87-.487-4.373l-10-4.11c-1.823-.012-3.64.851-3.563,2.947Z" transform="translate(-0.001)" fill="#5d0b80"/>
            <path id="Trazado_1264300" data-name="Trazado 1264300" d="M151.467,315.017l-23.932.27a.847.847,0,0,1-.485-.521,29.049,29.049,0,0,1-.137-6.309,1.8,1.8,0,0,1,1.581-.935l22.1.06a1.47,1.47,0,0,1,1.171,1.346c.134.85.137,5.654-.3,6.09M149.01,310.3H129.633v2.265H149.01Z" transform="translate(-94.892 -230.134)" fill="#5d0b80"/>
            <path id="Trazado_1264301" data-name="Trazado 1264301" d="M103.871,93.817c.448.45.511,1.991-.191,2.332l-32.343.125c-1.916.029-1.845-2.579-.009-2.781l31.228,0c.39.033,1.037.044,1.314.322" transform="translate(-52.329 -69.965)" fill="#5d0b80"/>
            <path id="Trazado_1264302" data-name="Trazado 1264302" d="M70.793,144.567l32.167-.068c1.789.152,1.4,2.677-.25,2.793l-31.224-.007c-1.69.075-2.451-2.338-.693-2.718" transform="translate(-52.228 -108.136)" fill="#5d0b80"/>
            <path id="Trazado_1264303" data-name="Trazado 1264303" d="M70.446,205.894l21.038-.062c1.17.139.916,2.436-.164,2.541L70.9,208.367c-1.106.068-1.6-2.127-.453-2.473" transform="translate(-52.228 -154.034)" fill="#5d0b80"/>
            <path id="Trazado_1264304" data-name="Trazado 1264304" d="M70.793,54.789l32.167-.068c1.789.152,1.4,2.677-.25,2.793l-31.224-.007c-1.69.074-2.451-2.338-.693-2.718" transform="translate(-52.228 -40.95)" fill="#5d0b80"/>
            <path id="Trazado_1264305" data-name="Trazado 1264305" d="M29.035,194.334c1.026-.226,5.539-.277,6.13.557.331.466.356,5.224.245,6.07a1.151,1.151,0,0,1-.365.893c-.4.319-5.263.346-6.075.239a1.151,1.151,0,0,1-.894-.365c-.305-.387-.364-5.57-.222-6.31a1.479,1.479,0,0,1,1.181-1.084m3.6,2.713H30.616v2.267h2.016Z" transform="translate(-20.789 -145.323)" fill="#5d0b80"/>
            <path id="Trazado_1264306" data-name="Trazado 1264306" d="M29.293,42.408c1.047-.185,5.247-.277,5.877.547.322.421.348,5.253.24,6.074a1.151,1.151,0,0,1-.365.893c-.4.319-5.263.346-6.075.239a1.151,1.151,0,0,1-.894-.365c-.3-.387-.365-5.571-.221-6.31.138-.712.783-.962,1.438-1.079m3.339,2.707H30.616v2.267h2.016Z" transform="translate(-20.79 -31.642)" fill="#5d0b80"/>
            <path id="Trazado_1264307" data-name="Trazado 1264307" d="M35.079,100.719c-.551.551-5.919.439-6.927,0-.418-.418-.435-5.261-.324-6.119a1.425,1.425,0,0,1,1.384-1.384,31.06,31.06,0,0,1,4.807,0c1.047.134,1.3.671,1.387,1.633.085.894.109,5.434-.327,5.87M32.624,96H30.608v2.267h2.016Z" transform="translate(-20.782 -69.688)" fill="#5d0b80"/>
            <path id="Trazado_1264308" data-name="Trazado 1264308" d="M28.66,144.376c.911-.2,6.075-.258,6.49.444a40.427,40.427,0,0,1,.135,5.929c-.251,1.892-4.167,1.522-5.687,1.384-1.015-.092-1.736-.254-1.888-1.384a36.938,36.938,0,0,1,.012-5.549c.1-.518.444-.717.937-.824m3.846,2.711H30.49v2.267h2.016Z" transform="translate(-20.663 -107.945)" fill="#5d0b80"/>
          </g>
        </g>
      </g>
    </g>
  </g>
</svg>
