<svg xmlns="http://www.w3.org/2000/svg" xmlns:xlink="http://www.w3.org/1999/xlink" width="160.5" height="160.501" viewBox="0 0 160.5 160.501">
  <defs>
    <clipPath id="clip-path">
      <rect id="Rectángulo_455261" data-name="Rectángulo 455261" width="38.951" height="37.623" fill="#e6fffa"/>
    </clipPath>
    <clipPath id="clip-path-2">
      <rect id="Rectángulo_457522" data-name="Rectángulo 457522" width="83.78" height="83.666" fill="#5d0b80"/>
    </clipPath>
  </defs>
  <g id="Grupo_1205953" data-name="Grupo 1205953" transform="translate(-307.436 -10011.92)">
    <path id="Sustracción_130" data-name="Sustracción 130" d="M26.051,25.795H0V11.245H11.352V0h14.7V25.795Z" transform="translate(441.641 10038.471) rotate(-90)" fill="#e3a4fe" stroke="rgba(0,0,0,0)" stroke-miterlimit="10" stroke-width="1"/>
    <g id="Grupo_1178100" data-name="Grupo 1178100" transform="translate(307.436 10172.421) rotate(-90)">
      <path id="Trazado_998183" data-name="Trazado 998183" d="M0,0V37.623H25.58V24.056H38.951V0Z" transform="translate(0 0)" fill="#5d0b80"/>
      <g id="Grupo_1178099" data-name="Grupo 1178099" transform="translate(0 0)">
        <g id="Grupo_1178098" data-name="Grupo 1178098" clip-path="url(#clip-path)">
          <path id="Trazado_998184" data-name="Trazado 998184" d="M0,9.021a9.025,9.025,0,1,1,9.025,9.021A9.023,9.023,0,0,1,0,9.021" transform="translate(4.434 5.629)" fill="#e3a4fe"/>
        </g>
      </g>
    </g>
    <g id="Grupo_1177470" data-name="Grupo 1177470" transform="translate(308.059 10012.421)">
      <circle id="Elipse_13609" data-name="Elipse 13609" cx="79.688" cy="79.688" r="79.688" fill="#f0d5fe"/>
      <g id="Grupo_1099776" data-name="Grupo 1099776" transform="translate(33.723 33.96)">
        <g id="Grupo_1099618" data-name="Grupo 1099618" transform="translate(0 0)">
          <rect id="Rectángulo_401104" data-name="Rectángulo 401104" width="90.569" height="91.661" transform="translate(0)" fill="none"/>
        </g>
        <g id="Grupo_1206664" data-name="Grupo 1206664" transform="translate(4.1 3.261)">
          <g id="Grupo_1206663" data-name="Grupo 1206663" clip-path="url(#clip-path-2)">
            <path id="Trazado_1264279" data-name="Trazado 1264279" d="M33.14,162.894a5.3,5.3,0,0,0,4.915-.717c.961-.7,3.386-3.472,4.184-3.73,1.511-.487,2.11.784,3.469.608,1.153-.149,1.691-1.687,3.126-1.438L67.6,172.464c.99.265,3.489-4.011,4.754-4.286,2.146.379,9.056-.62,10.558.223a1.675,1.675,0,0,1-.543,3.078c-2,.448-7.87-.476-9.183.169l-2.768,3.218c2.117,4.486-1.119,9.124-6.116,8.037a5.488,5.488,0,0,1-7.4,3.74c-.864,3-3.278,4.076-6.26,3.942-2.541,6.455-8.085,4.439-11.892.385-2.989,2.771-7.674,2.115-8.973-1.931a4.916,4.916,0,0,1-6.011-3.093c-3.884,1.027-7.716-1.969-6.683-6.019a5.32,5.32,0,0,1-3.771-3.308c-.257-.808-.182-1.861-.431-2.446a11.941,11.941,0,0,0-3.341-2.894c-2.222-.3-6.485.508-8.356-.037-1.656-.482-1.51-3.06.665-3.313a60.754,60.754,0,0,1,9.067.056c1.21.273,2.4,2.578,3.647,3.075.57,0,2.882-3.224,3.6-3.839a5.245,5.245,0,0,1,8.164,1.688,5.058,5.058,0,0,1,7.567,4.271,5.128,5.128,0,0,1,4.789,5.043c2.371.042,3.337,1.858,4.9,3.134,1.533,1.251,5.8,5.048,7.245,5.7,2.171.986,3.941-1.445,2.194-3.391-2.551-2.842-7.879-5.436-10.416-8.289-1.408-1.584-.133-3.42,1.8-2.759l13.9,11.035c2.287.683,3.611-1.81,2.051-3.49L47.523,169.975a1.638,1.638,0,0,1,2.063-2.541c4.137,3.3,8.3,6.567,12.443,9.857.52.413.935,1.048,1.445,1.432,3.411,2.569,6.092-.545,2.884-3.124L48.564,161.509a9.5,9.5,0,0,1-3.1.882c-.659.005-2.027-.529-2.486-.339-.4.164-2.607,2.516-3.428,3.059a7.757,7.757,0,0,1-6.7,1.073c-2.242-.613-3.759-2.209-2.882-4.659a48.214,48.214,0,0,1,3.6-6c1.313-1.892,2.942-3.544,4.371-5.338a22.692,22.692,0,0,0-4.56.833c-2.659.713-6.754,2.785-9.218,3.011-7.06.647-15.122-.486-22.289-.032-2.3-.308-2.66-3.106-.033-3.346,6.952-.636,15.532.884,22.292-.009,2.284-.3,5.847-2.072,8.294-2.737,4.575-1.243,7.718-1.147,12.347-1.322.979-.037,2.414-.477,3.36-.477,4.535,0,8.468,2.86,12.484,4.542,6.806.615,14.924-.77,21.572.01,2.271.266,2.132,3.068-.484,3.361-6.623.742-14.576-.555-21.342,0-3.272-.763-6.248-3.392-9.47-4.2-9.141-2.288-14.181,6.243-17.746,13.068m-11.813,6.274a2.05,2.05,0,0,0-.777.444,48.682,48.682,0,0,0-4.014,4.376,1.883,1.883,0,0,0,1.616,2.782c1.6,0,3.759-3.753,5.031-4.764.618-1.352-.35-3.114-1.857-2.838m6.952,2.409a1.85,1.85,0,0,0-.893.553,104.432,104.432,0,0,0-6.916,7.95c-.837,1.924.631,3.3,2.493,2.493l7.264-8.08c.941-1.539-.012-3.337-1.948-2.916m4.795,5.035a2.154,2.154,0,0,0-1.021.664l-5.206,6.064a1.822,1.822,0,0,0,2.59,2.35c1.034-1.34,6.043-5.976,6.075-7.321a1.877,1.877,0,0,0-2.437-1.757m3.1,12.1a41.279,41.279,0,0,0,3.438-3.875c1.571-2.174-.377-4.131-2.386-2.865-.944,1.5-6.27,5.384-3.594,7.166a1.93,1.93,0,0,0,2.542-.427M43,185.467l-2.083,3.1c1.545.9,3.388,3.658,5.409,2.746a2.175,2.175,0,0,0,.78-2.692,23.3,23.3,0,0,0-3.416-3.059.738.738,0,0,0-.691-.091" transform="translate(0 -111.074)" fill="#5d0b80"/>
            <path id="Trazado_1264280" data-name="Trazado 1264280" d="M29.572,35.637c-.413,1.95-3.586,1.186-3.357-.959.724-10.408-.964-22.129-.01-32.382.127-1.364.472-2.277,2.036-2.28l50.383,0a1.387,1.387,0,0,1,.958.241,52.658,52.658,0,0,1,4.194,4.205C88.071,8.846,92.271,13.424,96.368,18l.092,17.142c-.355,2.551-3.342,1.525-3.342.5V20.17H78.61c-.408,0-1.559-.9-1.559-1.319V3.384H29.572ZM90.72,16.813,80.409,6.022V16.813Z" transform="translate(-19.693 0)" fill="#5d0b80"/>
            <path id="Trazado_1264281" data-name="Trazado 1264281" d="M124.27,122.151l29.923-.062c2.4.277,2.323,3.116,0,3.368H124.448a1.658,1.658,0,0,1-.177-3.306" transform="translate(-93.352 -92.813)" fill="#5d0b80"/>
            <path id="Trazado_1264282" data-name="Trazado 1264282" d="M67.866,90.738a56.857,56.857,0,0,1,8.354-.063c1.111.142,1.435,1.059,1.546,2.05.15,1.333.163,6.588-.245,7.667a1.544,1.544,0,0,1-1.548,1.09,51.68,51.68,0,0,1-8.051-.113,1.851,1.851,0,0,1-1.192-1.686,49.188,49.188,0,0,1,0-7.444c.09-.766.327-1.317,1.135-1.5M74.409,93.8H70.093V98.12h4.316Z" transform="translate(-50.622 -68.839)" fill="#5d0b80"/>
            <path id="Trazado_1264283" data-name="Trazado 1264283" d="M69.976,34.686c.369.092.383-.06.58-.254,1.857-1.828,3.424-5.208,5.274-7.2,2.183-.813,3.417.413,2.251,2.492a73.834,73.834,0,0,1-6.2,8.427c-.771.8-1.368,1.276-2.522.62-.34-.193-4.105-4.7-4.522-5.309-.874-1.284-1.02-3.187.93-3.115,1.429.053,3.412,3.2,4.208,4.334" transform="translate(-48.822 -20.513)" fill="#5d0b80"/>
            <path id="Trazado_1264284" data-name="Trazado 1264284" d="M141.4,66.27a2.144,2.144,0,0,1-1.248.312c-5.061.434-10.721-.353-15.849,0a1.586,1.586,0,0,1,0-3.142c4.876-.625,11.069.5,16.091,0A1.676,1.676,0,0,1,141.4,66.27" transform="translate(-93.454 -48.082)" fill="#5d0b80"/>
          </g>
        </g>
      </g>
    </g>
  </g>
</svg>
