<svg xmlns="http://www.w3.org/2000/svg" xmlns:xlink="http://www.w3.org/1999/xlink" width="160.5" height="160.501" viewBox="0 0 160.5 160.501">
  <defs>
    <clipPath id="clip-path">
      <rect id="Rectángulo_455261" data-name="Rectángulo 455261" width="38.951" height="37.623" fill="#e6fffa"/>
    </clipPath>
    <clipPath id="clip-path-2">
      <rect id="Rectángulo_455282" data-name="Rectángulo 455282" width="83.521" height="83.548" fill="#5d0b80"/>
    </clipPath>
  </defs>
  <g id="Grupo_1205951" data-name="Grupo 1205951" transform="translate(-307.436 -10011.92)">
    <path id="Sustracción_130" data-name="Sustracción 130" d="M26.051,25.795H0V11.245H11.352V0h14.7V25.795Z" transform="translate(441.641 10038.471) rotate(-90)" fill="#e3a4fe" stroke="rgba(0,0,0,0)" stroke-miterlimit="10" stroke-width="1"/>
    <g id="Grupo_1178100" data-name="Grupo 1178100" transform="translate(307.436 10172.421) rotate(-90)">
      <path id="Trazado_998183" data-name="Trazado 998183" d="M0,0V37.623H25.58V24.056H38.951V0Z" transform="translate(0 0)" fill="#5d0b80"/>
      <g id="Grupo_1178099" data-name="Grupo 1178099" transform="translate(0 0)">
        <g id="Grupo_1178098" data-name="Grupo 1178098" clip-path="url(#clip-path)">
          <path id="Trazado_998184" data-name="Trazado 998184" d="M0,9.021a9.025,9.025,0,1,1,9.025,9.021A9.023,9.023,0,0,1,0,9.021" transform="translate(4.434 5.629)" fill="#e3a4fe"/>
        </g>
      </g>
    </g>
    <g id="Grupo_1177470" data-name="Grupo 1177470" transform="translate(308.059 10012.421)">
      <circle id="Elipse_13609" data-name="Elipse 13609" cx="79.688" cy="79.688" r="79.688" fill="#f0d5fe"/>
      <g id="Grupo_1099776" data-name="Grupo 1099776" transform="translate(33.723 33.96)">
        <g id="Grupo_1099618" data-name="Grupo 1099618" transform="translate(-0.105 0.273)">
          <rect id="Rectángulo_401104" data-name="Rectángulo 401104" width="90.569" height="91.661" transform="translate(0)" fill="none"/>
        </g>
        <g id="Grupo_1206671" data-name="Grupo 1206671" transform="translate(-1156.673 -1024.727)">
          <g id="Grupo_1204196" data-name="Grupo 1204196" transform="translate(1160.567 1029)">
            <g id="Grupo_1204195" data-name="Grupo 1204195" clip-path="url(#clip-path-2)">
              <path id="Trazado_1258179" data-name="Trazado 1258179" d="M81.1,40.426a57.538,57.538,0,0,0-1.5-9.381c-.226-.919-1.08-2.543-.848-3.362a1.151,1.151,0,0,1,2.117-.3c.616.829,1.56,4.673,1.8,5.857a41.866,41.866,0,0,1-54.319,48.1C2.191,72.674-8.408,40.533,7.463,17.864A41.825,41.825,0,0,1,74.39,15.677c.978,1.214,3.91,5.21,4.26,6.508.359,1.332-.765,2.41-1.838,1.6-.568-.429-2.253-3.764-2.935-4.724a25.744,25.744,0,0,0-2.224-2.739A44.086,44.086,0,0,1,61.482,20.1c5.444,5.349,9.238,12.569,9.329,20.331ZM40.431,2.629c-6.816,1.1-10.5,7.934-13.157,13.633,4.12-1.956,8.512-3.651,13.157-3.586Zm2.631,0V12.677c4.645-.066,9.036,1.63,13.157,3.586-2.654-5.7-6.341-12.536-13.157-13.633m-10.286.959A37.1,37.1,0,0,0,16.4,11.726a28.941,28.941,0,0,0-2.523,2.262c-.139.2-.33.242-.234.6,3.381,1.285,6.706,2.845,10.295,3.494A38.128,38.128,0,0,1,32.776,3.589m37.078,11c.1-.36-.1-.4-.235-.6a22.681,22.681,0,0,0-3-2.741,37.531,37.531,0,0,0-15.9-7.659c4.16,4.018,6.834,9.116,8.842,14.493,3.589-.649,6.913-2.209,10.3-3.494M12.681,43.057H2.4A39.9,39.9,0,0,0,11.838,67.19a41.085,41.085,0,0,1,10.172-3.8c-1.2-1.334-5.951-6.465-5.961-8.011a1.42,1.42,0,0,1,1.3-1.3c.99,0,2.244,2.691,2.9,3.543,19.39,25.288,58.138,2.409,46.135-26.28C54.811,3.695,12.636,13.551,15.077,44.369c.144,1.818,1.07,3.949,1.182,5.541a1.212,1.212,0,0,1-2.332.633c-.952-1.8-1.164-5.429-1.246-7.485M2.4,40.426H12.681c.092-7.762,3.886-14.982,9.329-20.331a41.085,41.085,0,0,1-10.172-3.8A39.9,39.9,0,0,0,2.4,40.426m78.7,2.631H70.811c-.092,7.762-3.885,14.982-9.329,20.331a41.086,41.086,0,0,1,10.173,3.8A39.965,39.965,0,0,0,81.1,43.057M32.776,79.895A38.128,38.128,0,0,1,23.934,65.4c-3.589.649-6.913,2.209-10.295,3.494-.1.357.1.4.234.6A28.939,28.939,0,0,0,16.4,71.757a37.1,37.1,0,0,0,16.38,8.137m37.078-11c-3.382-1.285-6.706-2.845-10.3-3.494-2.008,5.376-4.682,10.474-8.842,14.493A37.1,37.1,0,0,0,67.1,71.757,28.939,28.939,0,0,0,69.62,69.5c.139-.2.331-.242.234-.6m-29.423,1.91c-4.637.04-9.047-1.625-13.157-3.586,2.654,5.7,6.341,12.536,13.157,13.633Zm2.631,0V80.854c6.816-1.1,10.5-7.934,13.157-13.633-4.111,1.96-8.52,3.626-13.157,3.586" transform="translate(0 0)" fill="#5d0b80"/>
              <path id="Trazado_1258180" data-name="Trazado 1258180" d="M180.928,108.515c5.784-6.086,15.735,1.993,10.679,8.886-5.772,7.871-17.382-1.833-10.679-8.886m3.916.448c-5.041,1.037-4.2,9.8,2.043,8.739,5.577-.95,4.21-10.025-2.043-8.739" transform="translate(-136.107 -80.921)" fill="#5d0b80"/>
              <path id="Trazado_1258181" data-name="Trazado 1258181" d="M144.724,184.7c6.094-1.24,6.188,4.839,5.814,9.164-.522,6.036-8.155,5.714-8.839.688a32.658,32.658,0,0,1,.085-6.572,4.718,4.718,0,0,1,2.939-3.28m-.1,10.635c.872.953,2.858.681,3.223-.572a47.623,47.623,0,0,0,.044-6.4c-.337-1.765-3.317-1.946-3.767.289-.234,1.158-.247,5.872.5,6.687" transform="translate(-107.707 -140.393)" fill="#5d0b80"/>
              <path id="Trazado_1258182" data-name="Trazado 1258182" d="M189.714,184.82A4.572,4.572,0,0,1,195,187.077c.842,1.758.8,7.4-.1,9.146-1.867,3.619-7.607,2.582-8.215-1.306a38.129,38.129,0,0,1,.089-7.059,5.032,5.032,0,0,1,2.942-3.038m.714,2.389a1.734,1.734,0,0,0-.9.539c-.631.78-.628,5.329-.456,6.451.377,2.458,3.463,2.3,3.807.489a44.093,44.093,0,0,0,0-6.209,1.934,1.934,0,0,0-2.455-1.269" transform="translate(-141.933 -140.512)" fill="#5d0b80"/>
              <path id="Trazado_1258183" data-name="Trazado 1258183" d="M138.732,113.9a3.821,3.821,0,0,1-.06,5.39c-2.59,2.587-9.362.626-8.669-1.953.563-2.1,2.533.085,3.311.426,1.594.7,4.9.272,3.953-1.791-.835-1.818-6.433-1.267-6.6-5.146-.162-3.823,4.1-4.714,7.046-3.445,1.011.436,2.467,1.442,1.452,2.594-1.271,1.441-3.122-1.767-5.463-.439a1.144,1.144,0,0,0-.393,1.773c.846.823,4.038,1.172,5.422,2.59" transform="translate(-98.867 -81.284)" fill="#5d0b80"/>
              <path id="Trazado_1258184" data-name="Trazado 1258184" d="M99.7,198.644c-1.284-1.265,2.039-2.934,2.092-4.246a4.346,4.346,0,0,1-3.93-6.923,4.457,4.457,0,0,1,7.638.942c1.045,2.592-.682,6.577-2.388,8.614-.684.817-2.3,2.711-3.412,1.613m1.066-10.417c-2.029.606-1.435,4.3,1.095,3.729,2.408-.545,1.561-4.522-1.095-3.729" transform="translate(-73.802 -141.291)" fill="#5d0b80"/>
              <path id="Trazado_1258185" data-name="Trazado 1258185" d="M234.3,187.319c-1.149.179-2.789-.308-2.354-1.744.352-1.164,4.407-1.6,4.73.445a71.8,71.8,0,0,1,.019,10.754c-.217,1.882-2.164,1.673-2.39.467Z" transform="translate(-176.406 -140.435)" fill="#5d0b80"/>
              <path id="Trazado_1258186" data-name="Trazado 1258186" d="M111.963,106.846c1.162-.35,1.625.171,1.75,1.264a74.779,74.779,0,0,1,0,11.013c-.217,1.892-2.208,1.773-2.407.246a80.08,80.08,0,0,1,0-11.5c.062-.47.14-.862.658-1.018" transform="translate(-84.521 -81.204)" fill="#5d0b80"/>
            </g>
          </g>
        </g>
      </g>
    </g>
  </g>
</svg>
