<svg xmlns="http://www.w3.org/2000/svg" xmlns:xlink="http://www.w3.org/1999/xlink" width="169" height="111" viewBox="0 0 169 111">
  <defs>
    <clipPath id="clip-path">
      <rect id="Rectángulo_457574" data-name="Rectángulo 457574" width="91" height="91" fill="none"/>
    </clipPath>
  </defs>
  <g id="Grupo_1205961" data-name="Grupo 1205961" transform="translate(-1121.422 -1019)">
    <rect id="Rectángulo_455283" data-name="Rectángulo 455283" width="169" height="111" rx="19" transform="translate(1121.422 1019)" fill="#e3a4fe"/>
    <g id="Grupo_1206688" data-name="Grupo 1206688" transform="translate(1160.555 1029.133)">
      <g id="Grupo_1206687" data-name="Grupo 1206687" transform="translate(-0.133 -0.133)" clip-path="url(#clip-path)">
        <path id="Trazado_1264351" data-name="Trazado 1264351" d="M73.359,0V26.237c1.544.869,2.621,2.316,3.932,3.378a28.374,28.374,0,0,1,2.723,1.715,8.8,8.8,0,0,1,2.223,4.564c.292,2.688.306,12.71-.406,15a6.835,6.835,0,0,1-4.6,4.532c-.468.179-1.142.087-1.514.313-.225.137-1,1.807-1.357,2.3-1.337,1.839-2.908,2.6-2.267,5.236l.408.375c5.766,1.706,13.944,1.418,17.26,7.28a15.052,15.052,0,0,1,1.356,3.865V91.111h-53V75.839c0-.222.3-1.886.377-2.233,1.982-8.5,11.7-7.979,18.425-10.031l.255-1.964H0V0ZM70.487,2.872H3.263l-.392.392V58.739H55.346l-1.677-2.892c-2.269-.5-4.557-1.589-5.687-3.712-1.476-2.772-1.255-11.878-.612-15.078A17.068,17.068,0,0,1,70.487,24.8Zm8.876,39.682v-6.4a6.445,6.445,0,0,0-1.592-2.846c-.683-.618-1.686-.846-2.308-1.347-4.645-3.745-7.172-6.507-13.962-5.315C54.09,27.951,49.156,35.23,50,42.556c3.167-2.012,6.684-1.1,10.189-1.3a20.194,20.194,0,0,0,10.949-3.671L73.1,41.119a26.7,26.7,0,0,0,3.2.192,17.253,17.253,0,0,1,3.065,1.243M62,44.12H55.868v8.746a13.206,13.206,0,0,0,1.095,2.821A8.775,8.775,0,0,0,72,56.209a14.053,14.053,0,0,0,1.356-2.821V44.12l-2.308-.043L69.84,41.8a32.47,32.47,0,0,1-3.473,1.459A24.594,24.594,0,0,1,62,44.12M53,44.642c-3.957.611-3.951,7.01,0,7.832Zm23.5,7.832a4.117,4.117,0,0,0,0-7.832ZM68.841,64.146c.4-.495.569-1.374-.068-1.74a11.8,11.8,0,0,1-8.465-.01,2.741,2.741,0,0,0,.241,1.715,45.038,45.038,0,0,0,3.86,2.954c.363.095,4.107-2.514,4.432-2.918m-6.969,5.033c.092-.394-.056-.418-.275-.635a27.141,27.141,0,0,0-3.265-2.238.767.767,0,0,0-.783.257l.671,4.446Zm9.92-2.868c-.526-.526-4.309,2.164-4.177,2.736l3.392,1.962ZM41.248,74.534V88.24h6.918l.392-.392V76.492H51.43V88.24h7.179l.384-.66c-.089-3.258,1.506-8.058,1.171-11.126-.077-.709-.707-1.512-.643-2.312l-3.39,1.566L54.56,67.092c-4.407,1.337-12.475,1.513-13.311,7.442M80.93,88.24h6.918l.392-.392V75.578a10.447,10.447,0,0,0-1.037-3.14c-2.438-4.28-8.4-3.951-12.536-5.345L73.1,75.708,70.1,74.14c-2.04.433.373,11.569.124,13.448l.393.652H77.8V76.492H80.93Zm-14.4-13.351.788-2.417-2.863-1.6-2.583,1.465.8,2.567Zm.82,13.351L66.067,77.91l-2.722-.076-.393.39L61.872,88.24Z" transform="translate(0.15 0.15)" fill="#5d0b80"/>
        <path id="Trazado_1264352" data-name="Trazado 1264352" d="M78.616,11V32.93A17.068,17.068,0,0,0,55.5,45.187c-.642,3.2-.863,12.307.612,15.078,1.13,2.123,3.417,3.207,5.687,3.712l1.677,2.892H11V11.393L11.392,11ZM37.629,28.753V14.264c-.4-.534-1.324-.461-1.972-.4a3.309,3.309,0,0,0-.729.055l-.433.35V28.753H31.624V17.005H28.752V28.753H25.881v-7.31H22.748v7.31H19.876V24.315H17v4.438l-3.134,0v2.873H41.545l7.049-14.62H64c-.13-.71.367-2.836-.428-3.1L47.022,14,39.691,28.336c-.446.688-1.354.367-2.062.418M69.741,13.871c-.645.1-2.415-.248-2.759.246l-.115,2.89h2.874Zm6,3.136-.115-2.89c-.344-.494-2.114-.149-2.759-.246v3.136Zm0,2.87H49.376v2.872H75.744Zm0,6H49.376v2.872H75.744ZM29.485,34.572C10.2,35.378,11.519,65,30.983,64.006c18.966-.964,17.977-30.248-1.5-29.434" transform="translate(-7.978 -7.979)" fill="#fff9e9"/>
        <path id="Trazado_1264353" data-name="Trazado 1264353" d="M220.615,117.191a17.253,17.253,0,0,0-3.065-1.243,26.7,26.7,0,0,1-3.2-.192l-1.961-3.531a20.194,20.194,0,0,1-10.949,3.671c-3.506.2-7.022-.715-10.189,1.3-.84-7.326,4.093-14.606,11.505-15.907,6.789-1.192,9.317,1.57,13.962,5.315.622.5,1.625.729,2.308,1.347a6.445,6.445,0,0,1,1.592,2.846Z" transform="translate(-141.1 -74.487)" fill="#ffe9a1"/>
        <path id="Trazado_1264354" data-name="Trazado 1264354" d="M158,264.436c.836-5.929,8.9-6.1,13.311-7.442l1.571,8.615,3.39-1.566c-.063.8.566,1.6.643,2.312.335,3.068-1.26,7.868-1.171,11.126l-.384.66h-7.179V266.394H165.31V277.75l-.392.392H158Z" transform="translate(-116.601 -189.752)" fill="#fff"/>
        <path id="Trazado_1264355" data-name="Trazado 1264355" d="M277.013,278.146V266.4H273.88v11.748H266.7l-.393-.652c.25-1.879-2.164-13.015-.124-13.448l2.995,1.567L270.75,257c4.136,1.394,10.1,1.065,12.536,5.345a10.448,10.448,0,0,1,1.037,3.14v12.27l-.392.392Z" transform="translate(-195.933 -189.756)" fill="#fff"/>
        <path id="Trazado_1264356" data-name="Trazado 1264356" d="M220.135,162.445a24.592,24.592,0,0,0,4.364-.857,32.469,32.469,0,0,0,3.473-1.459l1.211,2.273,2.308.043v9.268a14.053,14.053,0,0,1-1.356,2.821,8.775,8.775,0,0,1-15.041-.522A13.206,13.206,0,0,1,214,171.191v-8.746Z" transform="translate(-157.982 -118.175)" fill="#fff"/>
        <path id="Trazado_1264357" data-name="Trazado 1264357" d="M242.482,308.546H237l1.079-10.016.393-.39,2.722.076Z" transform="translate(-174.977 -220.156)" fill="#ffe9a1"/>
        <path id="Trazado_1264358" data-name="Trazado 1264358" d="M239.472,240.754c-.325.4-4.069,3.013-4.432,2.918a45.038,45.038,0,0,1-3.86-2.954,2.738,2.738,0,0,1-.241-1.715,11.8,11.8,0,0,0,8.465.01c.638.366.467,1.245.068,1.74" transform="translate(-170.481 -176.458)" fill="#fff"/>
        <path id="Trazado_1264359" data-name="Trazado 1264359" d="M194.607,171v7.832c-3.951-.822-3.957-7.221,0-7.832" transform="translate(-141.46 -126.208)" fill="#fff"/>
        <path id="Trazado_1264360" data-name="Trazado 1264360" d="M293,178.832V171a4.117,4.117,0,0,1,0,7.832" transform="translate(-216.358 -126.208)" fill="#fff"/>
        <path id="Trazado_1264361" data-name="Trazado 1264361" d="M241.675,275.476l-3.854.009-.8-2.567,2.583-1.465,2.863,1.6Z" transform="translate(-174.989 -200.436)" fill="#ffe9a1"/>
        <path id="Trazado_1264362" data-name="Trazado 1264362" d="M224.76,256.823l-3.653,1.831-.671-4.446a.767.767,0,0,1,.783-.257,27.069,27.069,0,0,1,3.265,2.238c.219.216.367.24.275.635" transform="translate(-162.738 -187.495)" fill="#ffe9a1"/>
        <path id="Trazado_1264363" data-name="Trazado 1264363" d="M263.164,253.808l-.785,4.7-3.392-1.962c-.133-.572,3.651-3.262,4.177-2.736" transform="translate(-191.222 -187.347)" fill="#ffe9a1"/>
        <path id="Trazado_1264364" data-name="Trazado 1264364" d="M42.741,101.242c19.475-.814,20.463,28.47,1.5,29.434-19.464.989-20.785-28.628-1.5-29.434m-.734,3.058a11.745,11.745,0,0,0-10.179,10.179l2.886-.114a9.274,9.274,0,0,1,7.18-7.179Zm6.006.786-3.131-.786c-.519,4.218,1.7,4.3,3.131.786m4.7,3.907a4.7,4.7,0,0,0-2.345-2.344l-1.237,2.485,1.139,1.144Zm-9.98,1.116c-7.435.916-6.516,12.2,1.229,11.682,7.679-.518,6.586-12.645-1.229-11.682m12.329,4.371-.786-3.131c-1.226,1-3.354,1-2.1,3.018Zm-20.4,2.907-2.838-.032a11.5,11.5,0,0,0,10.181,10.181l-.032-2.838a9.412,9.412,0,0,1-7.311-7.311m20.4-.032-2.886.114a9.33,9.33,0,0,1-7.258,7.231l-.035,2.836a11.63,11.63,0,0,0,10.179-10.18" transform="translate(-21.233 -74.648)" fill="#5d0b80"/>
        <path id="Trazado_1264365" data-name="Trazado 1264365" d="M45.753,36.734c.709-.051,1.617.271,2.062-.418l7.331-14.338,16.546-.089c.8.26.3,2.387.428,3.1h-15.4l-7.049,14.62H22V36.733h3.134V32.3H28v4.438h2.872v-7.31h3.133v7.31h2.872V24.986h2.872V36.734H42.62V22.245l.433-.35a3.306,3.306,0,0,1,.728-.055c.648-.056,1.569-.129,1.972.4Z" transform="translate(-16.102 -15.959)" fill="#5d0b80"/>
        <rect id="Rectángulo_457572" data-name="Rectángulo 457572" width="26" height="3" transform="translate(42 12)" fill="#5d0b80"/>
        <rect id="Rectángulo_457573" data-name="Rectángulo 457573" width="26" height="3" transform="translate(42 18)" fill="#5d0b80"/>
        <path id="Trazado_1264366" data-name="Trazado 1264366" d="M227.869,21.916v3.135h-2.874l.115-2.889c.344-.494,2.114-.149,2.759-.246" transform="translate(-166.106 -16.023)" fill="#5d0b80"/>
        <path id="Trazado_1264367" data-name="Trazado 1264367" d="M250.869,25.051h-2.874V21.916c.645.1,2.415-.248,2.759.246Z" transform="translate(-183.102 -16.023)" fill="#5d0b80"/>
        <path id="Trazado_1264368" data-name="Trazado 1264368" d="M67.316,135.1c7.815-.963,8.909,11.164,1.229,11.682-7.745.523-8.664-10.766-1.229-11.682" transform="translate(-45.818 -99.637)" fill="#fbce73"/>
        <path id="Trazado_1264369" data-name="Trazado 1264369" d="M42.836,163.036a9.412,9.412,0,0,0,7.311,7.311l.032,2.838A11.5,11.5,0,0,1,40,163Z" transform="translate(-29.406 -120.299)" fill="#ffe9a1"/>
        <path id="Trazado_1264370" data-name="Trazado 1264370" d="M100.184,163A11.63,11.63,0,0,1,90,173.185l.035-2.836a9.33,9.33,0,0,0,7.258-7.231Z" transform="translate(-66.357 -120.3)" fill="#fbce73"/>
        <path id="Trazado_1264371" data-name="Trazado 1264371" d="M50.183,113l-.113,2.887a9.273,9.273,0,0,0-7.18,7.179L40,123.182A11.745,11.745,0,0,1,50.183,113" transform="translate(-29.41 -83.352)" fill="#fbce73"/>
        <path id="Trazado_1264372" data-name="Trazado 1264372" d="M92.919,113.789c-1.427,3.513-3.65,3.432-3.131-.786Z" transform="translate(-66.14 -83.352)" fill="#fff"/>
        <path id="Trazado_1264373" data-name="Trazado 1264373" d="M109.862,124.342l-2.443,1.285-1.138-1.144L107.517,122a4.7,4.7,0,0,1,2.345,2.344" transform="translate(-78.384 -89.998)" fill="#ffe9a1"/>
        <path id="Trazado_1264374" data-name="Trazado 1264374" d="M119.747,143.134l-2.886-.112c-1.253-2.017.875-2.015,2.1-3.018Z" transform="translate(-85.92 -103.303)" fill="#fff"/>
      </g>
    </g>
  </g>
</svg>
