<svg xmlns="http://www.w3.org/2000/svg" xmlns:xlink="http://www.w3.org/1999/xlink" width="208" height="346.667" viewBox="0 0 208 346.667">
  <defs>
    <clipPath id="clip-path">
      <rect id="Rectángulo_456506" data-name="Rectángulo 456506" width="208" height="335.877" fill="none"/>
    </clipPath>
    <clipPath id="clip-path-2">
      <rect id="Rectángulo_456504" data-name="Rectángulo 456504" width="321.589" height="335.877" fill="none"/>
    </clipPath>
    <clipPath id="clip-path-3">
      <rect id="Rectángulo_456503" data-name="Rectángulo 456503" width="244.83" height="329.097" fill="none"/>
    </clipPath>
    <clipPath id="clip-path-4">
      <rect id="Rectángulo_456505" data-name="Rectángulo 456505" width="225.702" height="313.638" fill="none"/>
    </clipPath>
  </defs>
  <g id="Grupo_1205315" data-name="Grupo 1205315" transform="translate(-41.855 87.712)">
    <g id="Grupo_1204235" data-name="Grupo 1204235" transform="translate(41.855 -87.712)">
      <path id="Trazado_1263184" data-name="Trazado 1263184" d="M0,0H208V345.333H0Z" fill="#fbf1ff"/>
    </g>
    <g id="Grupo_1205415" data-name="Grupo 1205415" transform="translate(41.856 -76.923)">
      <g id="Grupo_1205414" data-name="Grupo 1205414" transform="translate(0)" clip-path="url(#clip-path)">
        <g id="Grupo_1205411" data-name="Grupo 1205411" transform="translate(-61.909)">
          <g id="Grupo_1205410" data-name="Grupo 1205410" clip-path="url(#clip-path-2)">
            <g id="Grupo_1205409" data-name="Grupo 1205409" transform="translate(25.078 6.78)" opacity="0.42">
              <g id="Grupo_1205408" data-name="Grupo 1205408">
                <g id="Grupo_1205407" data-name="Grupo 1205407" clip-path="url(#clip-path-3)">
                  <path id="Trazado_1261794" data-name="Trazado 1261794" d="M202.957,400.9c4.461-14.128,6.1-32.884,4.364-49.943s-6.816-32.113-13.527-40.086c-5.273-6.265-11.589-8.57-15.808-18.232-3.736-8.556-5.072-21.407-5.1-33.6s1.067-24.248,1.432-36.415c.926-30.854-3.188-62.884-12.143-85.739s-22.864-35.473-35.958-30.153c-15.872,6.447-28.328,36.535-43.991,45.324-9.037,5.071-18.5,2.685-27.752.7S35.654,149.275,26.818,156s-16.866,23.63-17.88,45.131c-1.352,28.666,9.608,57.575,4.855,84.209-1.762,9.876-5.41,17.135-8.161,25.7-8.438,26.27-7.26,66.749,2.623,90.132Z" transform="translate(36.831 -72.079)" fill="#e3a4fe"/>
                  <path id="Trazado_1261795" data-name="Trazado 1261795" d="M3.7,313.584c2.471,12.958,7.9,23.438,14.386,27.787,3.552,2.38,7.611,2.889,10.9-.719s5.4-12.161,3.968-19.185c-1.309-6.4-4.85-9.478-7.139-14.617-2.252-5.059-3.2-11.937-3.868-18.627s-1.135-13.595-2.668-19.664-4.428-11.276-7.782-11.337c-10.29-.183-10.069,44.467-7.8,56.362" transform="translate(209.713 -119.985)" fill="#9db7fe"/>
                  <path id="Trazado_1261796" data-name="Trazado 1261796" d="M342.737,320.711c-.05,6.134-.875,12.4-2.784,17.148s-5.007,7.721-7.981,6.7-5.556-6.551-5.464-12.683c.081-5.321,1.979-10.108,1.833-15.424-.094-3.416-1.028-6.539-1.187-9.944-.308-6.561,2.618-12.618,5.843-13.248,7.657-1.5,9.839,15.317,9.741,27.449" transform="translate(-326.505 -131.337)" fill="#dbe2ef"/>
                </g>
              </g>
            </g>
          </g>
        </g>
        <g id="Grupo_1205413" data-name="Grupo 1205413" transform="translate(11.85 0)">
          <g id="Grupo_1205412" data-name="Grupo 1205412" clip-path="url(#clip-path-4)">
            <path id="Trazado_1261797" data-name="Trazado 1261797" d="M61.274,143.791V361.814c0,3.984,3.576,7.21,7.984,7.21H228.421c4.408,0,7.984-3.226,7.984-7.21V143.791c0-3.984-3.576-7.21-7.984-7.21H69.258c-4.408,0-7.984,3.226-7.984,7.21" transform="translate(-50.251 -56.904)"/>
            <path id="Trazado_1261798" data-name="Trazado 1261798" d="M81.677,365.794H225.365c3.98,0,7.206-2.916,7.206-6.513V162.464c0-3.6-3.226-6.513-7.206-6.513H81.677c-3.98,0-7.206,2.916-7.206,6.513V359.281c0,3.6,3.226,6.513,7.206,6.513" transform="translate(-54.934 -64.974)" fill="#dbe2ef"/>
            <path id="Trazado_1261799" data-name="Trazado 1261799" d="M97.163,365.556h7.171a2.733,2.733,0,0,0,2.86-2.585v-6.482a2.733,2.733,0,0,0-2.86-2.585H97.163a2.733,2.733,0,0,0-2.86,2.585v6.482a2.733,2.733,0,0,0,2.86,2.585" transform="translate(57.642 -147.447)" fill="#fff"/>
            <path id="Trazado_1261800" data-name="Trazado 1261800" d="M140.364,359.579H243.814a1.519,1.519,0,1,0,0-3.022H140.364a1.519,1.519,0,1,0,0,3.022" transform="translate(-109.3 -148.553)" fill="#fff"/>
            <path id="Trazado_1261801" data-name="Trazado 1261801" d="M140.363,369.067h50.87a1.519,1.519,0,1,0,0-3.022h-50.87a1.519,1.519,0,1,0,0,3.022" transform="translate(-56.718 -152.506)" fill="#fff"/>
            <path id="Trazado_1261802" data-name="Trazado 1261802" d="M97.163,421.517h7.171a2.733,2.733,0,0,0,2.86-2.585V412.45a2.733,2.733,0,0,0-2.86-2.585H97.163a2.733,2.733,0,0,0-2.86,2.585v6.482a2.733,2.733,0,0,0,2.86,2.585" transform="translate(57.642 -170.762)" fill="#fff"/>
            <path id="Trazado_1261803" data-name="Trazado 1261803" d="M140.364,415.539H243.814a1.519,1.519,0,1,0,0-3.022H140.364a1.519,1.519,0,1,0,0,3.022" transform="translate(-109.3 -171.867)" fill="#fff"/>
            <path id="Trazado_1261804" data-name="Trazado 1261804" d="M140.363,425.027h50.87a1.519,1.519,0,1,0,0-3.022h-50.87a1.519,1.519,0,1,0,0,3.022" transform="translate(-56.718 -175.82)" fill="#fff"/>
            <path id="Trazado_1261805" data-name="Trazado 1261805" d="M97.163,477.477h7.171a2.733,2.733,0,0,0,2.86-2.585V468.41a2.733,2.733,0,0,0-2.86-2.585H97.163a2.733,2.733,0,0,0-2.86,2.585v6.482a2.733,2.733,0,0,0,2.86,2.585" transform="translate(57.642 -194.077)" fill="#fff"/>
            <path id="Trazado_1261806" data-name="Trazado 1261806" d="M140.364,471.5H243.814a1.519,1.519,0,1,0,0-3.022H140.364a1.519,1.519,0,1,0,0,3.022" transform="translate(-109.3 -195.182)" fill="#fff"/>
            <path id="Trazado_1261807" data-name="Trazado 1261807" d="M140.363,480.988h50.87a1.519,1.519,0,1,0,0-3.022h-50.87a1.519,1.519,0,1,0,0,3.022" transform="translate(-56.718 -199.136)" fill="#fff"/>
            <path id="Trazado_1261808" data-name="Trazado 1261808" d="M102.32,362.82l-4.932-4.458a1.361,1.361,0,0,1,0-2.062,1.738,1.738,0,0,1,2.282,0l2.649,2.395,11.2-10.122a1.737,1.737,0,0,1,2.282,0,1.361,1.361,0,0,1,0,2.062Z" transform="translate(55.729 -145.048)" fill="#37dbc5"/>
            <path id="Trazado_1261809" data-name="Trazado 1261809" d="M97.163,191.843h7.171a2.733,2.733,0,0,0,2.86-2.585v-6.482a2.733,2.733,0,0,0-2.86-2.585H97.163a2.733,2.733,0,0,0-2.86,2.585v6.482a2.733,2.733,0,0,0,2.86,2.585" transform="translate(57.642 -75.073)" fill="#fff"/>
            <path id="Trazado_1261810" data-name="Trazado 1261810" d="M140.364,185.865H243.814a1.519,1.519,0,1,0,0-3.022H140.364a1.519,1.519,0,1,0,0,3.022" transform="translate(-109.3 -76.178)" fill="#fff"/>
            <path id="Trazado_1261811" data-name="Trazado 1261811" d="M140.363,195.354h50.87a1.519,1.519,0,1,0,0-3.022h-50.87a1.519,1.519,0,1,0,0,3.022" transform="translate(-56.718 -80.131)" fill="#fff"/>
            <path id="Trazado_1261812" data-name="Trazado 1261812" d="M102.32,189.106l-4.932-4.458a1.361,1.361,0,0,1,0-2.062,1.738,1.738,0,0,1,2.282,0l2.649,2.395,11.2-10.122a1.737,1.737,0,0,1,2.282,0,1.361,1.361,0,0,1,0,2.062Z" transform="translate(53.958 -72.673)" fill="#37dbc5"/>
            <path id="Trazado_1261813" data-name="Trazado 1261813" d="M102.32,419.358,97.389,414.9a1.361,1.361,0,0,1,0-2.062,1.738,1.738,0,0,1,2.282,0l2.649,2.395,11.2-10.122a1.737,1.737,0,0,1,2.282,0,1.361,1.361,0,0,1,0,2.062Z" transform="translate(55.729 -168.604)" fill="#37dbc5"/>
            <path id="Trazado_1261814" data-name="Trazado 1261814" d="M102.32,475.318l-4.932-4.458a1.361,1.361,0,0,1,0-2.062,1.738,1.738,0,0,1,2.282,0l2.649,2.395,11.2-10.122a1.737,1.737,0,0,1,2.282,0,1.361,1.361,0,0,1,0,2.062Z" transform="translate(55.729 -191.918)" fill="#37dbc5"/>
            <path id="Trazado_1261815" data-name="Trazado 1261815" d="M95.976,302.715h132.1a1.519,1.519,0,1,0,0-3.022H95.976a1.519,1.519,0,1,0,0,3.022" transform="translate(-64.912 -124.861)" fill="#fff"/>
            <path id="Trazado_1261816" data-name="Trazado 1261816" d="M95.976,293.525h132.1a1.519,1.519,0,1,0,0-3.022H95.976a1.519,1.519,0,1,0,0,3.022" transform="translate(-64.912 -121.033)" fill="#fff"/>
            <path id="Trazado_1261817" data-name="Trazado 1261817" d="M95.976,284.335h132.1a1.519,1.519,0,1,0,0-3.022H95.976a1.519,1.519,0,1,0,0,3.022" transform="translate(-64.912 -117.204)" fill="#fff"/>
            <path id="Trazado_1261818" data-name="Trazado 1261818" d="M95.976,275.145h132.1a1.519,1.519,0,1,0,0-3.022H95.976a1.519,1.519,0,1,0,0,3.022" transform="translate(-64.912 -113.375)" fill="#fff"/>
            <path id="Trazado_1261819" data-name="Trazado 1261819" d="M95.976,265.955h132.1a1.519,1.519,0,1,0,0-3.022H95.976a1.519,1.519,0,1,0,0,3.022" transform="translate(-64.912 -109.546)" fill="#fff"/>
            <path id="Trazado_1261820" data-name="Trazado 1261820" d="M95.975,312.2h65.414a1.519,1.519,0,1,0,0-3.022H95.975a1.519,1.519,0,1,0,0,3.022" transform="translate(1.776 -128.815)" fill="#fff"/>
            <path id="Trazado_1261821" data-name="Trazado 1261821" d="M95.976,224.2h132.1a1.519,1.519,0,1,0,0-3.022H95.976a1.519,1.519,0,1,0,0,3.022" transform="translate(-64.912 -92.15)" fill="#fff"/>
            <path id="Trazado_1261822" data-name="Trazado 1261822" d="M95.976,215.01h132.1a1.519,1.519,0,1,0,0-3.022H95.976a1.519,1.519,0,1,0,0,3.022" transform="translate(-64.912 -88.321)" fill="#fff"/>
            <path id="Trazado_1261823" data-name="Trazado 1261823" d="M95.975,233.689h65.414a1.519,1.519,0,1,0,0-3.022H95.975a1.519,1.519,0,1,0,0,3.022" transform="translate(1.776 -96.103)" fill="#fff"/>
            <path id="Trazado_1261824" data-name="Trazado 1261824" d="M162.936,102.2c6.372,2.309,10.176,8.227,12.863,13.971a202.589,202.589,0,0,1,12.932,37.445s10.182-2.494,16.169-1.453a42.8,42.8,0,0,1,5.611,8.293c1.126,1.993,2.285,4.224,1.654,6.39a20.752,20.752,0,0,1-5.685,3.409q-10.814,3.763-22.021,6.485c-7.011-7.889-14.139-15.625-20.512-23.95Z" transform="translate(-91.805 -42.581)" fill="#ffe9a1"/>
            <path id="Trazado_1261825" data-name="Trazado 1261825" d="M145.97,163.917a31.3,31.3,0,0,0-8.9.194,111.777,111.777,0,0,1-6.97,8.909,101.838,101.838,0,0,1-26.355,5.758c-1.37,2.462-.938,5.358.13,7.942a10.65,10.65,0,0,0,6.18,5.753c6.228-3.1,16.339-11.034,22.567-14.137a7.908,7.908,0,0,0,5.993.944,8.315,8.315,0,0,0,4.4-2.664c.063.02.128.041.189.064.9.337,1.419,1.177,2.312,1.45a.967.967,0,0,0,1.191-.523c.323-1.324-.979-2.447-2.173-3.022l-.039-.017a6.919,6.919,0,0,1,3.117.907c1.146.658,2.48-.622,1.615-1.612a6.806,6.806,0,0,0-4.661-2.087,13.556,13.556,0,0,0-2.34.034c-.01-.049-.017-.1-.026-.146,2.464-.265,5.092-1.014,6.823.841.64.685,2.031.164,1.793-.765-.505-1.978-2.305-3.081-4.463-3.294a24.844,24.844,0,0,0-3.99.1c-.181.012-.359.02-.536.027-.014-.264-.026-.529-.03-.789a11.983,11.983,0,0,1,3.692-.793,3.411,3.411,0,0,1,1.745.489,11.681,11.681,0,0,0,1.616.821,2.241,2.241,0,0,0,1.787-.049c.527-.294,1.122-1.185.577-1.45-1.645-.8-3.385-2.73-5.244-2.884" transform="translate(7.87 -68.2)" fill="#ffab91"/>
            <path id="Trazado_1261826" data-name="Trazado 1261826" d="M105.2,182.751l1.077,1.5a.9.9,0,0,0,1.117.26.745.745,0,0,0,.38-.991l-.78-1.646a.89.89,0,0,0-1.186-.376l-.3.145a.74.74,0,0,0-.31,1.108" transform="translate(50.042 -75.579)" fill="#3f72af"/>
            <path id="Trazado_1261827" data-name="Trazado 1261827" d="M110.645,150.42l-5.251,2.566,9.355,15.85L120,166.271Z" transform="translate(37.678 -62.67)" fill="#112d4e"/>
            <path id="Trazado_1261828" data-name="Trazado 1261828" d="M104.553,180.071l2.313,2.658,2.866-1.4-1.157-3.223Z" transform="translate(48.488 -74.204)" fill="#112d4e"/>
            <path id="Trazado_1261829" data-name="Trazado 1261829" d="M119.768,166.195a1.4,1.4,0,0,1,1.244.232.985.985,0,0,1,.063.989,4.244,4.244,0,0,1-1.9,2.228,4.945,4.945,0,0,1-3.032.592c-1.32-.167-2.1-1.763-1-2.632a6.333,6.333,0,0,1,2.007-.823,17.817,17.817,0,0,1,2.617-.586" transform="translate(30.549 -69.226)" fill="#ffab91"/>
            <path id="Trazado_1261830" data-name="Trazado 1261830" d="M125.49,164.98a.712.712,0,0,0-.917-.362c-.015,0-.028,0-.043,0a34.107,34.107,0,0,0-6.254,1.687c-1.02.379-.179,1.738.831,1.363a31.518,31.518,0,0,1,5.005-1.379c.012,1.722-3.756,2.917-5.018,3.293a.793.793,0,0,0-.578.565.719.719,0,0,0-.019.67,3.277,3.277,0,0,1-.218,3.532,2.607,2.607,0,0,1-3.51.519.8.8,0,1,0-.892,1.331,4.433,4.433,0,0,0,5.49-.606,4.5,4.5,0,0,0,.934-4.749c2.779-.927,6.647-2.794,5.189-5.863" transform="translate(26.634 -68.566)" fill="#ff8a65"/>
            <path id="Trazado_1261831" data-name="Trazado 1261831" d="M174.994,202.409a10.81,10.81,0,0,1-4.438-5.066c-1.015-2.229-1.652-4.86-.621-7.173.29-.651-.87-.933-1.157-.289-1.127,2.525-.429,5.41.663,7.842a11.921,11.921,0,0,0,4.953,5.632c.657.37,1.258-.576.6-.946" transform="translate(-58.141 -78.958)" fill="#2b4e78"/>
            <path id="Trazado_1261832" data-name="Trazado 1261832" d="M205.455,190.814a3.373,3.373,0,0,0-1.37,1.263q-.65.9-1.21,1.842a24.543,24.543,0,0,0-1.85,3.869c-.25.666.908.951,1.158.288a22.812,22.812,0,0,1,1.661-3.489q.482-.825,1.033-1.615a2.961,2.961,0,0,1,1.173-1.209c.7-.293.1-1.241-.594-.949" transform="translate(-110.386 -79.476)" fill="#2b4e78"/>
            <path id="Trazado_1261833" data-name="Trazado 1261833" d="M228.136,43.045c-.618-3.009-2.758-5.546-4.833-7.955a13.643,13.643,0,0,0-2.033-2.027c-1.381-1.05-2.367-1.184-2.637-2.988-1.046-6.988.28-17.159,7.344-21.492A12.657,12.657,0,0,1,229.3,7.006c1.261-.333,2.353.141,3.552-.058,1.733-.288,1.151-2.724,1.648-3.815,1.07-2.353,4.257-3.5,7.007-3.027a11.117,11.117,0,0,1,6.658,4.343,7.309,7.309,0,0,1,1.452,2.734.07.07,0,0,0,.019.034,5.986,5.986,0,0,1,6.283-1.258,10.445,10.445,0,0,1,4.891,4.649c3.134,5.527,2.56,12.4-.458,17.981s-8.23,9.975-14,13.311a28.126,28.126,0,0,1-9.169,3.637c-3.3.571-6.279-.774-9.051-2.493" transform="translate(-178.112 0)" fill="#3e2723"/>
            <path id="Trazado_1261834" data-name="Trazado 1261834" d="M232.393,318.866c5.009-30.9,1.033-63.485-5.748-94.108-10.724.386-19.878.859-30.248,3.377a177.277,177.277,0,0,0,26.118,94.226Z" transform="translate(-135.699 -93.641)" fill="#09121f"/>
            <path id="Trazado_1261835" data-name="Trazado 1261835" d="M298.348,491.924a5.476,5.476,0,0,0,2.582-.264c-1.559,5.371-3.068,10.755-4.479,16.161-4.181.089-5.772-.345-9.638-1.749-.234-5.879-.625-12.035-.9-18.291a33.17,33.17,0,0,0,12.431,4.143" transform="translate(-259.767 -203.225)" fill="#ffab91"/>
            <path id="Trazado_1261836" data-name="Trazado 1261836" d="M263.185,398.3a63.942,63.942,0,0,1,23.952-29.261l2.831,4.69a13.621,13.621,0,0,1,.7,12.259c-7.533,17.982-12.817,44.154-18.239,62.827-.482,1.661-5.24,1.024-7.845.668-1.134-.155-9.083-1.685-9.13-2.755-.583-13.488,2.857-36.426,7.726-48.428" transform="translate(-230.932 -153.753)" fill="#112d4e"/>
            <path id="Trazado_1261837" data-name="Trazado 1261837" d="M231.134,326.879c7.221-22.124,11.3-63.273,11.3-63.273s20.383-15.369,20.383-36.036c-10.676-1-41.937,4.983-52.595,6.136-5.367,32.228-1.8,66.26,11.172,96.644Z" transform="translate(-171.242 -94.765)" fill="#112d4e"/>
            <path id="Trazado_1261838" data-name="Trazado 1261838" d="M301.057,499.373a43.035,43.035,0,0,1-14.109-2.968c-1.011-.4-1.474,1.107-.474,1.5a44.409,44.409,0,0,0,14.563,3.028.781.781,0,1,0,.02-1.559" transform="translate(-260.711 -206.79)" fill="#09121f"/>
            <path id="Trazado_1261839" data-name="Trazado 1261839" d="M276.516,383.128a15.5,15.5,0,0,1-3.869-7.232c-.225-.981-1.883-.584-1.657.4a17.116,17.116,0,0,0,4.3,7.924c.716.765,1.938-.328,1.225-1.09" transform="translate(-225.92 -156.374)" fill="#09121f"/>
            <path id="Trazado_1261840" data-name="Trazado 1261840" d="M276.913,392.333l-2.164-3.505c-.54-.875-2.031-.106-1.489.772l2.164,3.5c.54.874,2.03.106,1.489-.771" transform="translate(-227.622 -161.837)" fill="#09121f"/>
            <path id="Trazado_1261841" data-name="Trazado 1261841" d="M239.483,483.92a5.479,5.479,0,0,0,2.573-.334c-1.382,5.411-2.712,10.833-3.944,16.275-4.176.2-6.033.985-9.944-.314-.428-5.869-.77-13.184-1.247-19.429a33.335,33.335,0,0,0,12.562,3.8" transform="translate(-162.815 -200.032)" fill="#ffab91"/>
            <path id="Trazado_1261842" data-name="Trazado 1261842" d="M205.622,391.279a63.433,63.433,0,0,1,22.975-29.9l2.984,4.612a13.635,13.635,0,0,1,1.109,12.234c-6.936,18.18-12.075,49.286-16.877,68.1-.427,1.674-7.568,1.232-10.149.953-1.139-.123-6.058-.211-6.14-1.279-1.029-13.466,1.628-42.585,6.1-54.715" transform="translate(-136.572 -150.56)" fill="#09121f"/>
            <path id="Trazado_1261843" data-name="Trazado 1261843" d="M241.41,499.438a21.457,21.457,0,0,1-12.455-3.371c-.9-.576-2,.615-1.1,1.193a23.536,23.536,0,0,0,13.728,3.729c1.1-.036.93-1.587-.17-1.552" transform="translate(-163.47 -206.613)" fill="#112d4e"/>
            <path id="Trazado_1261844" data-name="Trazado 1261844" d="M217.062,376.492l-3.651-5.07c-.606-.841-2,.061-1.4.9l3.651,5.07c.605.841,2-.061,1.4-.9" transform="translate(-128.252 -154.606)" fill="#112d4e"/>
            <path id="Trazado_1261845" data-name="Trazado 1261845" d="M219.059,383.936l-1.561-5.384c-.281-.969-1.883-.416-1.6.548l1.561,5.384c.281.969,1.883.415,1.6-.548" transform="translate(-132.712 -157.505)" fill="#112d4e"/>
            <path id="Trazado_1261846" data-name="Trazado 1261846" d="M220.2,514.815l-10.067-2.35-14.271-.225a28.9,28.9,0,0,0-2.247,10.614h38.166c-.027-5.3-5.755-8.039-11.58-8.039" transform="translate(-131.045 -213.415)" fill="#fff"/>
            <path id="Trazado_1261847" data-name="Trazado 1261847" d="M282.936,514.815l-10.067-2.35-14.271-.225a28.9,28.9,0,0,0-2.247,10.614h38.166c-.027-5.3-5.755-8.039-11.58-8.039" transform="translate(-234.271 -213.415)" fill="#fff"/>
            <path id="Trazado_1261848" data-name="Trazado 1261848" d="M235.456,94.307a47.114,47.114,0,0,0-14.945-1.321c-9.6.7-21.884,6.035-19.9,16.538,1.014,5.364,4.581,10.068,5.755,15.434a201.247,201.247,0,0,1,3.642,60.676c-.26,3.132-1.491,7.27,1.783,8.264,15.245,4.629,28.624,4.646,44.692,4.123a34.038,34.038,0,0,0,10.844-1.733,6.379,6.379,0,0,0,4.222-6.506c-2.074-21.507-3.945-42.453-6.044-64.029l-.023-.237C264,110,251.107,98.259,235.456,94.307" transform="translate(-175.22 -38.69)" fill="#ffe9a1"/>
            <path id="Trazado_1261849" data-name="Trazado 1261849" d="M267.669,104.018c-1.3,1.172-3.422.852-5.043.562a23.284,23.284,0,0,1-5.126-1.535,21.818,21.818,0,0,1-8.289-6.164c-.455-.558-1.5-.024-1.044.54a23.1,23.1,0,0,0,9.374,6.837,24.486,24.486,0,0,0,5.7,1.524c1.832.254,3.875.278,5.282-.992.549-.495-.3-1.268-.849-.772" transform="translate(-203.095 -40.265)" fill="#2b4e78"/>
            <path id="Trazado_1261850" data-name="Trazado 1261850" d="M213.082,202.724a39.776,39.776,0,0,1-.47-4.19c-.32-5.534.231-11.067-.417-16.592-.64-5.459-1.544-10.9-2.334-16.341-.794-5.47-1.6-10.941-2.712-16.366-.62-3.034-1.335-6.053-2.191-9.039a24.709,24.709,0,0,0-3.321-7.8c-.42-.587-1.466-.05-1.044.54a22.014,22.014,0,0,1,2.981,6.769c.755,2.555,1.4,5.135,1.974,7.729,1.152,5.237,1.989,10.526,2.769,15.818q1.186,8.039,2.335,16.082a64.986,64.986,0,0,1,.709,8.023c.047,2.707-.06,5.415-.04,8.123a59.71,59.71,0,0,0,.79,8.673c.4,2.6.461,5.662-2.01,7.46-.6.438.251,1.207.849.772a6.917,6.917,0,0,0,2.586-5.805,24.668,24.668,0,0,0-.451-3.856" transform="translate(-117.234 -55.054)" fill="#2b4e78"/>
            <path id="Trazado_1261851" data-name="Trazado 1261851" d="M266.651,249.41c-9.085-.791-18.75-2.2-26.109-7.508-.6-.432-1.454.336-.849.772,7.642,5.509,17.512,7.006,26.958,7.828.769.067.764-1.026,0-1.092" transform="translate(-196.096 -100.731)" fill="#2b4e78"/>
            <path id="Trazado_1261852" data-name="Trazado 1261852" d="M267.8,65.515c-2.32,5.348-1,17.34-.247,18.086s1.189,1.981.458,2.748-2.119.559-3.193.221a33.813,33.813,0,0,1-13.541-8.064c.367-.3,1-.9,1.366-1.193,4.365-3.53,2.782-14.742,2.256-20.035Z" transform="translate(-204.869 -23.864)" fill="#ffab91"/>
            <path id="Trazado_1261853" data-name="Trazado 1261853" d="M252.768,68.346c-.116-2.238-.376-8.514-.579-10.555l12.8,7.937c-1,2.3-1.323,5.834-1.309,9.171-3.62-2.207-7.351-4.309-10.917-6.553" transform="translate(-202.062 -24.078)" fill="#ff8a65"/>
            <path id="Trazado_1261854" data-name="Trazado 1261854" d="M261.413,31.692c1.921,8.388,1.541,26.838-11.172,28.207-4.125.445-8.148-1.82-10.641-4.843s-3.747-6.722-4.956-10.338a14.629,14.629,0,0,1-4.6-1.063,3.979,3.979,0,0,1-2.38-3.349,2.632,2.632,0,0,1,3.02-2.409c2.973.641,5.392,4.075,5.766,1.253,2.73-20.584,16.034-9.766,20.4-14.679a57.147,57.147,0,0,1,3.529,4.5,10.032,10.032,0,0,1,1.033,2.719" transform="translate(-183.508 -10.195)" fill="#ffab91"/>
            <path id="Trazado_1261855" data-name="Trazado 1261855" d="M270.954,50.7c1.064-.561,2.329.093,3.192.732.565.418,1.76,1.523,1.172,2.243a.053.053,0,0,1-.047.013c-.7-.106-1.168-1.012-1.72-1.389-.794-.542-1.785-.552-2.571-1.053-.2-.127-.276-.414-.026-.546" transform="translate(-224.555 -21.035)" fill="#ff8a65"/>
            <path id="Trazado_1261856" data-name="Trazado 1261856" d="M230.01,47.625a.6.6,0,0,1,.877.069,2.285,2.285,0,0,1,.241,1.673,3.872,3.872,0,0,1-.395,1.786.631.631,0,0,1-1.094-.085,3.825,3.825,0,0,1-.127-1.82,2.331,2.331,0,0,1,.5-1.624" transform="translate(-153.577 -19.775)" fill="#212121"/>
            <path id="Trazado_1261857" data-name="Trazado 1261857" d="M247.677,46.394a.6.6,0,0,1,.877.069,2.285,2.285,0,0,1,.241,1.673,3.881,3.881,0,0,1-.395,1.786.631.631,0,0,1-1.094-.085,3.831,3.831,0,0,1-.128-1.82,2.335,2.335,0,0,1,.5-1.624" transform="translate(-182.647 -19.262)" fill="#212121"/>
            <path id="Trazado_1261858" data-name="Trazado 1261858" d="M248.508,37.978a5.255,5.255,0,0,0-6.11-.359c-.88.585-.044,1.948.847,1.355a3.421,3.421,0,0,1,4.038.093c.818.666,2.049-.419,1.225-1.09" transform="translate(-179.289 -15.334)" fill="#3e2723"/>
            <path id="Trazado_1261859" data-name="Trazado 1261859" d="M231.3,39.812a2.658,2.658,0,0,0-3.032-.345c-.935.527-.094,1.886.847,1.355a.8.8,0,0,1,.96.08c.778.712,2-.377,1.225-1.09" transform="translate(-152.912 -16.308)" fill="#3e2723"/>
            <path id="Trazado_1261860" data-name="Trazado 1261860" d="M251.543,69.752a7.491,7.491,0,0,1-5.441-2.492c-.7-.778-1.919.317-1.225,1.09a9.242,9.242,0,0,0,6.647,2.961.781.781,0,1,0,.019-1.559" transform="translate(-184.576 -27.912)" fill="#212121"/>
            <path id="Trazado_1261861" data-name="Trazado 1261861" d="M233.83,54.56c-.395-.371-1.024.189-.63.56a6.537,6.537,0,0,1,2.044,2.895A2.514,2.514,0,0,1,232.9,61.4c-.565.011-.061.813.507.8a3.287,3.287,0,0,0,3.319-2.725c.316-1.936-1.5-3.6-2.9-4.917" transform="translate(-161.226 -22.681)" fill="#ff8a65"/>
            <path id="Trazado_1261862" data-name="Trazado 1261862" d="M314.093,102.674c-3.361-1.606-5.289-1.9-8.957-.589a18.32,18.32,0,0,0-11.083,10.347c-4.85,12.814-10.092,26.474-14.558,39.4-3.4,9.838,4.639,20.434,9.349,29.812,5.577-2.055,10.9-4.395,16.482-6.449-.295-6.791-2.069-13.684-4.119-20.219,8.469-15.529,10.93-23.5,17.769-39.683" transform="translate(-273.143 -42.188)" fill="#ffe9a1"/>
            <path id="Trazado_1261863" data-name="Trazado 1261863" d="M305.581,260.7c0-.031,0-.064,0-.1-.076-5.865-4.327-11-10.381-13.008q-.575-.192-1.144-.368a80.6,80.6,0,0,1-8.908-23.3c-2.828-1-5.952-.319-8.671.9a10.435,10.435,0,0,0-5.679,6.167c4.01,5.332,13.685,13.7,17.7,19.034a6.111,6.111,0,0,0-.438,5.52,7.687,7.687,0,0,0,3.349,3.723c-.016.059-.032.12-.051.177-.279.846-1.146,1.4-1.357,2.238a.855.855,0,0,0,.69,1.027c1.479.162,2.578-1.128,3.089-2.267.005-.011.01-.025.015-.036a5.441,5.441,0,0,1-.682,2.912c-.606,1.1.926,2.185,1.921,1.3a5.665,5.665,0,0,0,1.821-4.427,10.274,10.274,0,0,0-.269-2.116l.157-.038c.534,2.2,1.613,4.511-.243,6.261a.953.953,0,0,0,1.015,1.548,4.382,4.382,0,0,0,3.16-4.368,18.856,18.856,0,0,0-.505-3.6c-.031-.163-.057-.324-.083-.482.288-.038.576-.076.86-.106a9.48,9.48,0,0,1,1.234,3.265,2.691,2.691,0,0,1-.362,1.629,9.743,9.743,0,0,0-.737,1.544,1.687,1.687,0,0,0,.3,1.7,1.22,1.22,0,0,0,1.859-.253c.844-1.425,2.358-2.982,2.343-4.484" transform="translate(-254.658 -93.099)" fill="#ffab91"/>
            <path id="Trazado_1261864" data-name="Trazado 1261864" d="M317.537,191.525a18.061,18.061,0,0,0-7.049.5.548.548,0,1,0,.2,1.076,17.2,17.2,0,0,1,6.742-.489.591.591,0,0,0,.65-.5c.03-.323-.228-.53-.547-.591" transform="translate(-292.476 -79.72)" fill="#2b4e78"/>
            <path id="Trazado_1261865" data-name="Trazado 1261865" d="M315.65,194.46l-2.3.22a.556.556,0,0,0-.489.631.612.612,0,0,0,.693.446l2.3-.22a.556.556,0,0,0,.489-.631.612.612,0,0,0-.693-.446" transform="translate(-292.575 -81.017)" fill="#2b4e78"/>
            <path id="Trazado_1261866" data-name="Trazado 1261866" d="M297.785,144.749q-5.861,13.736-12.96,26.994c-.338.631.794,1,1.129.37q7.093-13.246,12.96-26.994c.279-.655-.849-1.027-1.13-.37" transform="translate(-257.052 -60.164)" fill="#2b4e78"/>
            <path id="Trazado_1261867" data-name="Trazado 1261867" d="M287.992,151.8a18.593,18.593,0,0,1-5.1,4.691.517.517,0,0,0-.083.769.656.656,0,0,0,.845.076,19.511,19.511,0,0,0,5.322-4.906c.43-.583-.549-1.215-.98-.63" transform="translate(-245.823 -63.149)" fill="#2b4e78"/>
            <path id="Trazado_1261868" data-name="Trazado 1261868" d="M317.093,222.445a12.029,12.029,0,0,0-9.6.608,13.513,13.513,0,0,0-6.143,6.663c-.286.653.843,1.024,1.129.37a12.257,12.257,0,0,1,5.511-6.038,10.8,10.8,0,0,1,8.7-.575.553.553,0,1,0,.407-1.028" transform="translate(-286.233 -92.375)" fill="#2b4e78"/>
          </g>
        </g>
      </g>
    </g>
  </g>
</svg>
