<svg xmlns="http://www.w3.org/2000/svg" xmlns:xlink="http://www.w3.org/1999/xlink" width="127" height="128" viewBox="0 0 127 128">
  <defs>
    <clipPath id="clip-path">
      <rect id="Rectángulo_457663" data-name="Rectángulo 457663" width="75" height="72" transform="translate(0.159 0.028)" fill="#5d0b80"/>
    </clipPath>
  </defs>
  <g id="Grupo_1205621" data-name="Grupo 1205621" transform="translate(-0.019)">
    <ellipse id="Elipse_13609" data-name="Elipse 13609" cx="63.5" cy="64" rx="63.5" ry="64" transform="translate(0.019)" fill="#fff"/>
    <g id="Grupo_1099776" data-name="Grupo 1099776" transform="translate(23.859 24)">
      <g id="Grupo_1099618" data-name="Grupo 1099618" transform="translate(0.159 0.501)">
        <rect id="Rectángulo_401104" data-name="Rectángulo 401104" width="78.706" height="80.124" transform="translate(0)" fill="none"/>
      </g>
      <g id="Grupo_1206778" data-name="Grupo 1206778" transform="translate(2 4.474)">
        <g id="Grupo_1206777" data-name="Grupo 1206777" clip-path="url(#clip-path)">
          <path id="Trazado_1264640" data-name="Trazado 1264640" d="M69.449,0V30.271h6.058V63.031H36.563V42.089h-2.38V72.361H0V36.8l9.195-8.812h4.219V0ZM32.885,2.281H16.118l-.325.311v25.4h18.39V39.6h2.38v-9.33H67.069V2.592l-.325-.311H49.977v9.33H32.885Zm14.5,0H35.59l-.325.311V9.33h2.38V4.872c.333-.424,1.1-.366,1.634-.322a2.856,2.856,0,0,1,.6.044l.359.278V9.33h2.38V4.872c.571-.59,1.607-.217,2.38-.311V9.33h2.38ZM31.587,30.271H11.034v7.982l-.325.311H2.38v31.2l.325.311H31.587ZM8.438,36.077V32.137L4.327,36.077Zm38.943-3.317H38.943V60.75h8.438V53.7H64.473v6.738l.325.311H72.8l.325-.311V32.759H64.473V39.6H47.381Zm14.712,0H49.977v4.561h2.381l0-2.283,2.256,0,.124,2.285h2.6l0-2.283,2.256,0,.124,2.285h2.381ZM49.977,55.981V60.75H62.093V55.981H59.712l-.124,2.285-2.256,0-.093-2.088-2.147-.165-.324.311-.155,1.944-2.256,0,0-2.283Z" fill="#5d0b80"/>
          <path id="Trazado_1264641" data-name="Trazado 1264641" d="M289.289,100.995v2.49l-2.178-.091c-.419-.28-.114-1.859-.2-2.4Z" transform="translate(-224.815 -80.055)" fill="#5d0b80"/>
          <path id="Trazado_1264642" data-name="Trazado 1264642" d="M264.995,103.485V101l2.178.091.108,2.2Z" transform="translate(-207.663 -80.055)" fill="#5d0b80"/>
          <rect id="Rectángulo_457657" data-name="Rectángulo 457657" width="2.382" height="2.283" transform="translate(52.356 16.379)" fill="#5d0b80"/>
          <rect id="Rectángulo_457658" data-name="Rectángulo 457658" width="2.382" height="2.283" transform="translate(57.332 16.379)" fill="#5d0b80"/>
          <rect id="Rectángulo_457659" data-name="Rectángulo 457659" width="2.382" height="2.283" transform="translate(62.092 16.379)" fill="#5d0b80"/>
          <rect id="Rectángulo_457660" data-name="Rectángulo 457660" width="2.382" height="2.283" transform="translate(62.092 25.709)" fill="#5d0b80"/>
          <path id="Trazado_1264643" data-name="Trazado 1264643" d="M42.029,228.559c-2.392-.788-4.668-1.335-7.1-.273a6.867,6.867,0,0,0,.261,12.765,7.313,7.313,0,0,0,10.129-7.059l2.352-.237c.761,8.172-9.162,13.371-15.9,8.083a9.233,9.233,0,0,1,3.609-16.229c2.125-.534,5.758-.387,7.524,1,.357.281.136.185.013.413-.268.5-.814.908-.891,1.537" transform="translate(-22.141 -178.605)" fill="#5d0b80"/>
          <path id="Trazado_1264644" data-name="Trazado 1264644" d="M68.688,222.076c.482-.121,1.933,1.2,1.7,1.635L57.717,235.855c-.163.138-.262.082-.429,0-.252-.125-3.892-3.605-4.012-3.853-.32-.664.9-1.556,1.492-1.847.407.068,1.974,2.112,2.52,2.382.167.082.266.138.429,0Z" transform="translate(-41.709 -176.025)" fill="#5d0b80"/>
          <path id="Trazado_1264645" data-name="Trazado 1264645" d="M94.915,158v2.281H84.206c-.616-.547-.227-1.54-.325-2.281Z" transform="translate(-65.708 -125.241)" fill="#5d0b80"/>
          <path id="Trazado_1264646" data-name="Trazado 1264646" d="M94.915,180v2.281H83.881c.1-.741-.291-1.734.325-2.281Z" transform="translate(-65.708 -142.679)" fill="#5d0b80"/>
          <rect id="Rectángulo_457661" data-name="Rectángulo 457661" width="2.382" height="2.283" transform="translate(13.413 32.758)" fill="#5d0b80"/>
          <rect id="Rectángulo_457662" data-name="Rectángulo 457662" width="2.382" height="2.283" transform="translate(13.413 37.32)" fill="#5d0b80"/>
        </g>
      </g>
    </g>
  </g>
</svg>
