<svg xmlns="http://www.w3.org/2000/svg" xmlns:xlink="http://www.w3.org/1999/xlink" width="127" height="128" viewBox="0 0 127 128">
  <defs>
    <clipPath id="clip-path">
      <rect id="Rect치ngulo_457580" data-name="Rect치ngulo 457580" width="73.06" height="80.124" fill="#5d0b80"/>
    </clipPath>
  </defs>
  <g id="Grupo_1205885" data-name="Grupo 1205885" transform="translate(-0.019)">
    <ellipse id="Elipse_13609" data-name="Elipse 13609" cx="63.5" cy="64" rx="63.5" ry="64" transform="translate(0.019)" fill="#fff"/>
    <g id="Grupo_1099776" data-name="Grupo 1099776" transform="translate(23.859 24)">
      <g id="Grupo_1099618" data-name="Grupo 1099618" transform="translate(0.159 0.081)">
        <rect id="Rect치ngulo_401104" data-name="Rect치ngulo 401104" width="78.706" height="80.124" transform="translate(0)" fill="none"/>
      </g>
      <g id="Grupo_1206694" data-name="Grupo 1206694" transform="translate(3.159 0.081)">
        <g id="Grupo_1206693" data-name="Grupo 1206693" clip-path="url(#clip-path)">
          <path id="Trazado_1264412" data-name="Trazado 1264412" d="M.92,159.333a2.483,2.483,0,0,1-.647-.768c-.379-.891-.281-8.05-.19-9.5.347-5.505,3.385-8.883,8.971-9.3l-1.763-3.3C4.249,129.526,8.909,121.4,16.9,123.072c7.624,1.594,8.168,11.59,3.712,16.685a9.661,9.661,0,0,1,3.119.538c.681.232,2.127,1.231,2.456,1.285.691.113,2.484-.427,3.386-.172-5.649-5.985-7.491-17.4.162-22.593a11.811,11.811,0,0,1,13.59,0c7.653,5.2,5.81,16.608.162,22.593.9-.255,2.694.285,3.385.172.329-.054,1.775-1.052,2.456-1.285a9.661,9.661,0,0,1,3.119-.538c-4.457-5.095-3.913-15.09,3.712-16.685,7.99-1.671,12.65,6.454,9.608,13.381L64,139.758c5.363.358,8.624,3.733,8.971,9.069.1,1.462.188,8.849-.19,9.737a2.7,2.7,0,0,1-.647.768H57.4v8.608c0,.883-1.6,1.028-2.23,1.071-12.151.843-25.263-.659-37.515,0-.6.084-2-.408-2-1.07v-8.608Zm44.926-30.656c-.495-11.932-17.047-12.61-18.634-.829l6.962-3.872c3.631,2.273,7.149,4.749,11.672,4.7m-26.733-1.568a6.017,6.017,0,0,0-9.392,1.406c-1.591,3.058-.4,8.764,2.706,10.586,6.417,3.765,11.191-7.556,6.686-11.992m34.834,0c-4.5,4.436.269,15.757,6.686,11.992,3.105-1.822,4.3-7.528,2.706-10.586a6.017,6.017,0,0,0-9.392-1.406m-8.338,4.162c-4.255-.147-8.012-1.907-11.454-4.253L27.6,130.775c-.439.483.418,3.083.675,3.794,4.13,11.388,16.327,7.319,17.331-3.3M2.688,147.9c-.334,2.676.247,5.976,0,8.725l.354.354H15.659v-5.306c0-2.231,2.541-5.9,4.242-7.313l2.6-1.763c-.513-.059-1-.212-1.522-.248-2.9-.2-11.331-.361-13.805.363a6.381,6.381,0,0,0-4.48,5.189M57.4,156.975H70.016l.354-.354V147.9c0-2.3-2.375-4.572-4.48-5.188-2.474-.724-10.905-.562-13.805-.363-.522.036-1.009.188-1.522.248l2.6,1.763c1.7,1.415,4.242,5.082,4.242,7.313Zm-2.594,9.433V151.9c0-4.18-5.506-7.645-9.3-7.911a149.115,149.115,0,0,0-18.178,0c-3.661.288-9.071,3.9-9.071,7.909v14.5H24.5l.354-.354V157.8c0-.811,2.594-.964,2.594.707v7.9H45.608v-7.9c0-1.672,2.594-1.519,2.594-.707v8.254l.354.354Z" transform="translate(0 -89.152)" fill="#5d0b80"/>
          <path id="Trazado_1264413" data-name="Trazado 1264413" d="M119.168,6.934c2.1.487,4.511.572,6.567,1.1,1.21.31,1.794.788,1.183,2.143L121.99,15.4c-.049,2.037.828,4.362.906,6.321.187,4.756-6.021-.941-8.136-1.083-1.312,0-4.731,2.567-6.243,2.971-3.758,1-.519-6.565-.987-8.21-.75-1.514-4.508-4.215-5.032-5.365a1.715,1.715,0,0,1,.1-1.491c.474-.729,6.552-1.252,7.756-1.615,1.223-1.771,2.018-4.641,3.279-6.27a1.315,1.315,0,0,1,1.78-.483c1.07.625,2.8,5.517,3.756,6.753m.9,13.249c-.144-1.607-1.1-4.475-.659-5.963.225-.761,3.145-2.94,3.72-3.821.009-.457-4.772-.774-5.546-1.288-1.1-.728-1.761-4.023-2.935-4.96l-2.706,4.96L106.393,10.4c.007.3,3.521,3.145,3.72,3.821.439,1.488-.515,4.356-.659,5.963l5.306-2.37Z" transform="translate(-78.23 0)" fill="#5d0b80"/>
          <path id="Trazado_1264414" data-name="Trazado 1264414" d="M230.192,30.457c.725-1.111,1.937-5.055,3.471-4.9,1.171.12,2.453,4.093,3.332,4.936,1.245.641,5.864.325,5.76,2.241-.063,1.159-3.09,3.206-3.74,4.313-.072,1.357,1.036,4.4.546,5.49-.944,2.109-4.559-1.321-5.907-1.408-1.292-.084-4.028,2.518-5.595,2.077-1.785-.55.226-4.719-.212-6.158-.637-1.4-4.47-3.688-3.275-5.259.6-.789,4.536-.777,5.62-1.335m8.313,2.891-3.161-.495-2.024-3.043c-.91,2.663-2.014,3.712-4.954,3.538l2.321,3-.433,3.363c.9-.292,2.272-1.429,3.181-1.429s2.284,1.137,3.181,1.429l-.184-3.607c.586-.973,1.945-1.532,2.072-2.759" transform="translate(-171.437 -19.528)" fill="#5d0b80"/>
          <path id="Trazado_1264415" data-name="Trazado 1264415" d="M19.941,30.457c1.084.558,5.02.546,5.62,1.335,1.174,1.542-2.6,3.915-3.275,5.259-.436,1.44,1.572,5.607-.212,6.157-1.567.441-4.3-2.161-5.6-2.077-1.351.087-4.96,3.518-5.909,1.407-.463-1.032.649-4.174.551-5.483-.649-1.111-3.681-3.157-3.744-4.319-.1-1.916,4.515-1.6,5.76-2.241.879-.843,2.162-4.816,3.332-4.936,1.534-.157,2.746,3.786,3.471,4.9m1.826,2.891c-3.028.168-3.959-.869-4.954-3.538l-2.023,3.043-3.161.495c.127,1.227,1.486,1.785,2.072,2.759l-.184,3.607c.9-.292,2.272-1.429,3.181-1.429s2.284,1.137,3.181,1.429c.114-1.536-.955-2.768,0-4.127.212-.3,2.219-1.959,1.884-2.239" transform="translate(-5.637 -19.528)" fill="#5d0b80"/>
        </g>
      </g>
    </g>
  </g>
</svg>
