<svg xmlns="http://www.w3.org/2000/svg" xmlns:xlink="http://www.w3.org/1999/xlink" width="90" height="90" viewBox="0 0 90 90">
  <defs>
    <clipPath id="clip-path">
      <rect id="Rectángulo_457408" data-name="Rectángulo 457408" width="50.282" height="60" fill="none"/>
    </clipPath>
  </defs>
  <g id="Grupo_1206599" data-name="Grupo 1206599" transform="translate(-335.711 -2801)">
    <circle id="Elipse_13686" data-name="Elipse 13686" cx="45" cy="45" r="45" transform="translate(335.711 2801)" fill="#fff"/>
    <g id="Grupo_1206597" data-name="Grupo 1206597" transform="translate(355.711 2816)">
      <g id="Grupo_1206596" data-name="Grupo 1206596" clip-path="url(#clip-path)">
        <path id="Trazado_1263894" data-name="Trazado 1263894" d="M42.092,26.094a5.006,5.006,0,0,1,2.738.478,33.229,33.229,0,0,1,4.509,4.312c3.435,5.042-4.8,9.086-7.209,12.614-.377,5,.373,10.459-.03,15.407a1.78,1.78,0,0,1-.235.959L.559,60l-.468-.635L0,5.044A5.157,5.157,0,0,1,4.513,0L45.839.018c4.413.837,4.669,4.947,4.346,8.717-.034.4-.113,1.187-.651,1.187H42.092Zm-1.1-24.074H4.327c-.787,0-2.3,1.721-2.3,2.481V58.07H40.07v-12.5c-3.271,2.646-5.459,6.573-9.557,7.993a67.287,67.287,0,0,1-8.927,2.467,88.4,88.4,0,0,1-12.858.024c-4.1-.4-3.143-6.7,1.083-5.919l.3-.247V46.125H6.9c-.524,0-.792-.734-.837-1.184-.257-2.535.209-5.507.014-8.093-.048-.284.666-.83.823-.83h3.216V32.25l-.276-.276H6.532a1.387,1.387,0,0,1-.463-1.007,54.12,54.12,0,0,1,0-7.73c.034-.4.113-1.187.651-1.187h3.4V18.008h-3.4c-.538,0-.617-.79-.651-1.187a54.275,54.275,0,0,1,0-7.729c.071-.625.157-.94.82-1.018a56.652,56.652,0,0,1,8.107,0c.676.066.91.077,1.009.829.334,2.556-.266,5.825-.007,8.463l-.093.274a2.109,2.109,0,0,1-.551.368H12.137v4.043h3.216A2.812,2.812,0,0,1,16,22.51v3.308l.276.276h3.767V22.878c0-.371.6-.782,1-.836a56.505,56.505,0,0,1,8.1,0c.706.094.926.513,1.006,1.2a52.313,52.313,0,0,1,.007,7.55c-.069.715-.253,1.093-1.013,1.193a56.411,56.411,0,0,1-8.105,0c-.3-.04-1-.421-1-.653V28.115H16v3.4a3.067,3.067,0,0,1-.459.459h-3.4v4.043h3.216c.232,0,.613.7.653,1a54.864,54.864,0,0,1,0,7.923c-.034.341-.3,1.183-.654,1.183H12.137v5.054c0,1.5-3.628.222-4.014,1.508a1.355,1.355,0,0,0,.431,1.34H20.407c1.1-3.705,1.54-7.9,3.6-11.194L40.033,26.7l.031-21.838Zm7.167,6.064V4.5a10.711,10.711,0,0,0-.513-1.141,3.009,3.009,0,0,0-5.039,0A10.712,10.712,0,0,0,42.092,4.5V7.808l.276.276Zm-34,7.9V10.2l-.276-.276H8.094v6.064Zm0,8.086H8.094v5.881h6.064Zm13.967,0H22.061v5.881h6.064Zm13.733,4.085c-.374.078-1.4.582-1.154,1.059l6.442,6.43a2.631,2.631,0,0,0,.429-3.734,27.657,27.657,0,0,0-3.4-3.4,3.068,3.068,0,0,0-2.316-.356m-2.774,2.359c-.16.027-.619.463-.4.721l5.975,5.982c.363.483,1.069.279.9-.345-.81-.7-6.023-6.435-6.471-6.359m-2.021,2.022-10.038,10,.917.93,10.02-9.663c.357-.383-.623-1.317-.9-1.269m2.4,2.579L29.676,44.84c-.241.467,1.2,1.41,1.481,1.833l9.935-9.922c.2-.379-1.214-1.741-1.628-1.633M8.094,44.1h5.789l.276-.276V38.315l-.276-.276H8.094Zm34.483-6.051-10.038,10,.917.93,10.02-9.663c.357-.383-.623-1.317-.9-1.269M25.644,44.107c-1,1.189-1.21,2.751-1.711,4.168a29.462,29.462,0,0,0,3.773,3.888A11.2,11.2,0,0,0,31.9,50.725c.149-.227.09-.315-.093-.471Zm-.276,8.816c-.188-.286-1.978-2.255-2.2-2.019l-.551,2.755Z"/>
        <path id="Trazado_1263895" data-name="Trazado 1263895" d="M50,10.989l-.925,2.842-.031,21.838L33.02,51.8c-2.059,3.3-2.5,7.489-3.6,11.194H17.567a1.355,1.355,0,0,1-.431-1.34c.387-1.286,4.014-.011,4.014-1.508V55.094h3.216c.353,0,.621-.843.654-1.183a54.864,54.864,0,0,0,0-7.923c-.04-.3-.421-1-.653-1H21.15V40.944h3.4a3.076,3.076,0,0,0,.459-.459v-3.4h4.043V40.3c0,.232.7.613,1,.653a56.411,56.411,0,0,0,8.105,0c.759-.1.943-.478,1.013-1.193a52.313,52.313,0,0,0-.007-7.55c-.08-.686-.3-1.106-1.006-1.2a56.478,56.478,0,0,0-8.1,0c-.4.054-1,.465-1,.836v3.216H25.285l-.276-.276V31.48a2.812,2.812,0,0,0-.643-.459H21.15V26.977h3.216a2.108,2.108,0,0,0,.551-.368l.093-.274c-.259-2.638.342-5.907.007-8.463-.1-.752-.332-.763-1.009-.829a56.652,56.652,0,0,0-8.107,0c-.663.078-.748.393-.82,1.018a54.275,54.275,0,0,0,0,7.729c.034.4.113,1.187.651,1.187h3.4V31.02h-3.4c-.538,0-.617.79-.651,1.187a54.12,54.12,0,0,0,0,7.73,1.387,1.387,0,0,0,.463,1.007h3.308l.276.276v3.767H15.913c-.157,0-.871.546-.823.83.195,2.585-.271,5.558-.014,8.093.046.45.314,1.184.837,1.184h3.216v3.767l-.3.247c-4.226-.784-5.187,5.523-1.083,5.919A88.4,88.4,0,0,0,30.6,65a67.289,67.289,0,0,0,8.927-2.467c4.1-1.421,6.286-5.347,9.557-7.993v12.5H11.043V13.47c0-.76,1.511-2.481,2.3-2.481ZM36.679,17.053H31.534a1.16,1.16,0,0,0,0,1.838H36.5c.718,0,.841-1.461.184-1.838m2.94,0c-.714.25-.5,1.838,0,1.838h4.962c.6,0,.6-1.838,0-1.838ZM29.7,22.934H44.581c.439,0,1.165-1.843-.91-2.03-4.312-.39-9.22.3-13.6.02a1.053,1.053,0,0,0-.379,2.01M29.919,25a1.073,1.073,0,0,0-.853.972,1.126,1.126,0,0,0,.817,1.006l14.15.007a1.016,1.016,0,1,0,0-2.028Z" transform="translate(-9.014 -8.97)" fill="#fff9e9"/>
        <path id="Trazado_1263896" data-name="Trazado 1263896" d="M50.107,60.053H44.043V53.989h5.789l.276.276Z" transform="translate(-35.949 -44.067)" fill="#37dbc5"/>
        <path id="Trazado_1263897" data-name="Trazado 1263897" d="M44.043,213.053v-6.064h5.789l.276.276v5.513l-.276.276Z" transform="translate(-35.949 -168.95)" fill="#fbce73"/>
        <rect id="Rectángulo_457406" data-name="Rectángulo 457406" width="6.064" height="5.881" transform="translate(8.094 24.072)" fill="#e3a4fe"/>
        <rect id="Rectángulo_457407" data-name="Rectángulo 457407" width="6.064" height="5.881" transform="translate(22.061 24.072)" fill="#5d0b80"/>
        <path id="Trazado_1263898" data-name="Trazado 1263898" d="M171.152,191.068c.414-.108,1.824,1.254,1.628,1.633l-9.935,9.922c-.282-.422-1.722-1.366-1.481-1.833Z" transform="translate(-131.688 -155.95)" fill="#fff"/>
        <path id="Trazado_1263899" data-name="Trazado 1263899" d="M235.107,16.948h-5.789l-.276-.276V13.364a10.725,10.725,0,0,1,.513-1.141,3.009,3.009,0,0,1,5.039,0,10.727,10.727,0,0,1,.513,1.141Z" transform="translate(-186.951 -8.864)" fill="#fbce73"/>
        <path id="Trazado_1263900" data-name="Trazado 1263900" d="M131.943,240.008l6.162,6.147c.182.156.242.244.093.471a11.2,11.2,0,0,1-4.193,1.438,29.44,29.44,0,0,1-3.773-3.888c.5-1.417.715-2.978,1.711-4.168" transform="translate(-106.299 -195.901)" fill="#fff"/>
        <path id="Trazado_1263901" data-name="Trazado 1263901" d="M222.476,152.859a3.069,3.069,0,0,1,2.316.356,27.67,27.67,0,0,1,3.4,3.4,2.631,2.631,0,0,1-.429,3.734l-6.442-6.43c-.246-.477.78-.982,1.154-1.059" transform="translate(-180.619 -124.701)" fill="#e3a4fe"/>
        <path id="Trazado_1263902" data-name="Trazado 1263902" d="M157.1,177.053c.276-.048,1.256.886.9,1.27l-10.02,9.663-.917-.93Z" transform="translate(-120.034 -144.514)" fill="#fff"/>
        <path id="Trazado_1263903" data-name="Trazado 1263903" d="M187.1,207.053c.276-.048,1.256.886.9,1.269l-10.02,9.663-.917-.93Z" transform="translate(-144.521 -169.001)" fill="#fff"/>
        <path id="Trazado_1263904" data-name="Trazado 1263904" d="M210.636,166.055c.448-.076,5.661,5.661,6.471,6.359.169.624-.536.828-.9.345l-5.974-5.982c-.216-.257.243-.694.4-.721" transform="translate(-171.552 -135.538)" fill="#fff"/>
        <path id="Trazado_1263905" data-name="Trazado 1263905" d="M125.8,278.925l-2.755.736.551-2.755c.226-.236,2.016,1.732,2.2,2.019" transform="translate(-100.436 -226.003)" fill="#e3a4fe"/>
        <path id="Trazado_1263906" data-name="Trazado 1263906" d="M109.971,87.014l14.114-.043a1.016,1.016,0,1,1,0,2.028l-14.15-.007a1.126,1.126,0,0,1-.817-1.006,1.073,1.073,0,0,1,.853-.972" transform="translate(-89.065 -70.988)"/>
        <path id="Trazado_1263907" data-name="Trazado 1263907" d="M109.781,66.426a1.052,1.052,0,0,1,.379-2.01c4.377.279,9.285-.411,13.6-.02,2.075.188,1.349,2.03.91,2.03Z" transform="translate(-89.099 -52.461)"/>
        <path id="Trazado_1263908" data-name="Trazado 1263908" d="M125.683,43.989c.657.376.534,1.838-.184,1.838h-4.962a1.16,1.16,0,0,1,0-1.838Z" transform="translate(-98.017 -35.905)"/>
        <path id="Trazado_1263909" data-name="Trazado 1263909" d="M164.5,43.989h4.962c.6,0,.6,1.838,0,1.838H164.5c-.5,0-.714-1.588,0-1.838" transform="translate(-133.892 -35.905)"/>
      </g>
    </g>
  </g>
</svg>
