<svg xmlns="http://www.w3.org/2000/svg" xmlns:xlink="http://www.w3.org/1999/xlink" width="96" height="96" viewBox="0 0 96 96">
  <defs>
    <clipPath id="clip-path">
      <rect id="Rect치ngulo_457323" data-name="Rect치ngulo 457323" width="56.094" height="56.093" fill="#fff"/>
    </clipPath>
  </defs>
  <g id="Grupo_1206092" data-name="Grupo 1206092" transform="translate(-383.746 -8400.001)">
    <path id="Trazado_997400" data-name="Trazado 997400" d="M48,0A48,48,0,1,1,0,48,48,48,0,0,1,48,0Z" transform="translate(383.746 8400.001)" fill="#5d0b80"/>
    <g id="Grupo_1099776" data-name="Grupo 1099776" transform="translate(401.746 8418)">
      <g id="Grupo_1099618" data-name="Grupo 1099618" transform="translate(-0.035 0)">
        <rect id="Rect치ngulo_401104" data-name="Rect치ngulo 401104" width="59.378" height="60.093" transform="translate(0)" fill="none"/>
      </g>
      <g id="Grupo_1206534" data-name="Grupo 1206534" transform="translate(1.966 2)">
        <g id="Grupo_1206533" data-name="Grupo 1206533" clip-path="url(#clip-path)">
          <path id="Trazado_1263572" data-name="Trazado 1263572" d="M145.023,41.158a2.971,2.971,0,0,0-2.333-3.5l-27.175-.007c-.947.014-.938-1.37-.229-1.683l27.1-.089c2.956.233,4.549,2.391,4.39,5.283,2.345-.018,5.323-.508,5.6,2.631.129,1.439.191,7.525-.157,8.65a2.608,2.608,0,0,1-2.21,1.787,46.037,46.037,0,0,1-8.742-.128c-.6-.168-1.849-1.04-1.849-1.669V49.153l-7.88-.034c-1.163-.256-.787-1.725-.194-1.725h7.835l.24-.24V43c0-.591,1.6-1.839,2.159-1.839Zm-3.243,1.794c-.588.113-.7.638-.754,1.165a35.688,35.688,0,0,0,.144,4.14c.015,1.183-.84,4.056.893,4.257a51.422,51.422,0,0,0,7.365.005,1.4,1.4,0,0,0,1.043-.4V43.3a1.333,1.333,0,0,0-.887-.392c-2.4-.278-5.348.185-7.8.039" transform="translate(-96.425 -30.14)" fill="#fff"/>
          <path id="Trazado_1263573" data-name="Trazado 1263573" d="M115.164,101.757a20.234,20.234,0,0,1,3.88.05c.7.307.657,2.265.882,2.955l3.1,1.842c.829,0,2.3-1.119,3.013-.769a16.661,16.661,0,0,1,2.12,3.494c.065.944-1.742,1.659-2.2,2.406v3.48c.608.944,2.579,1.452,2.078,2.771a30.605,30.605,0,0,1-1.806,2.994c-.792.657-2.267-.629-3.206-.633l-3.15,1.953c-.144.668-.177,2.421-.74,2.778a13.9,13.9,0,0,1-4.084.066c-.743-.33-.65-2.255-.882-2.955l-3.1-1.842c-.829,0-2.3,1.119-3.013.769a16.655,16.655,0,0,1-2.12-3.494c-.061-.89,1.715-1.725,2.2-2.4l-.036-3.58c-.716-.777-2.509-1.452-2.045-2.673a30.687,30.687,0,0,1,1.806-2.993c.793-.657,2.267.629,3.206.633l3.15-1.953c.155-.715.112-2.653.944-2.894m2.748,1.742h-1.726c-.248.683-.16,2.126-.648,2.629a22.253,22.253,0,0,1-2.294,1.063c-.578.346-1.507,1.386-2.083,1.366-.622-.021-1.817-.895-2.4-.772l-.745,1.379c.013.4,1.542,1.2,1.772,1.58.375.616-.006,1.145-.017,1.764-.022,1.178.117,2.321.133,3.492l-1.876,1.654.65,1.478c.405.258,1.939-.721,2.486-.74.576-.02,1.505,1.02,2.083,1.366a22.183,22.183,0,0,1,2.294,1.063c.476.491.45,2.58.73,2.656l1.644-.027c.248-.683.16-2.125.648-2.629a22.285,22.285,0,0,1,2.294-1.063c.644-.386,1.427-1.4,2.086-1.36.644.036,1.821.885,2.4.765l.749-1.377c0-.388-1.552-1.211-1.777-1.582-.389-.642,0-1.276.018-1.924.028-1.127-.134-2.213-.133-3.332l1.872-1.656-.646-1.475c-.424-.271-2,.789-2.594.739-.5-.042-1.5-1.09-2.077-1.424-.741-.426-2.14-.651-2.427-1.411-.148-.392-.3-2.13-.414-2.223" transform="translate(-88.997 -85.428)" fill="#fff"/>
          <path id="Trazado_1263574" data-name="Trazado 1263574" d="M5.747,112.816a6.363,6.363,0,0,1,5.67-5.362c3.234-.256,6.8.2,10.075.01a.872.872,0,0,1-.03,1.721c-3.2.272-6.721-.245-9.885.028-1.781.154-4.071,1.867-4.071,3.763v9.194h3.278c.659,0,2.318,1.155,2.318,1.839v3.518c.14.228.319.221.551.248,1.215.142,7.252-.285,7.725.19a.979.979,0,0,1-.525,1.557c-2.272.21-4.984-.264-7.2,0-.233.027-.411.02-.551.248v3.678a6.88,6.88,0,0,1-.48.8,3.111,3.111,0,0,1-2.16,1.037,52.972,52.972,0,0,1-7.671,0A2.711,2.711,0,0,1,.15,132.8a54.889,54.889,0,0,1,.015-8.3,2.862,2.862,0,0,1,2.3-2.333H5.747Zm5.4,11.314a1.429,1.429,0,0,0-.832-.208,53.6,53.6,0,0,0-7.21,0,1.4,1.4,0,0,0-1.043.4v8.818a1.4,1.4,0,0,0,1.043.4,53.54,53.54,0,0,0,7.21,0c.248-.021.658-.027.835-.2.693-.692.23-3.7.23-4.679s.484-3.843-.233-4.515" transform="translate(0 -90.205)" fill="#fff"/>
          <path id="Trazado_1263575" data-name="Trazado 1263575" d="M221.686,240.972a6.311,6.311,0,0,1,.721-1.038c1.224-1.185,3.19-.372,4.726-.711a2.768,2.768,0,0,0-2.165-3.611l-11.845-.147c-.762-.834-.488-1.522.642-1.615a82.171,82.171,0,0,1,11.36.006,4.745,4.745,0,0,1,3.916,5.438c2.445.048,5.358-.694,5.6,2.631a52.818,52.818,0,0,1-.045,8.123,2.608,2.608,0,0,1-2.159,2.159,53.562,53.562,0,0,1-8.283.045c-2.981-.263-2.411-2.938-2.542-5.133-.349-.5-2.465.391-2.649-.718-.254-1.534,1.743-1.168,2.718-1.191.18-1.207-.243-3.129,0-4.237m2.676-.042c-1.8.319-.949,3.965-.933,5.3.011.874-.232,1.908-.15,2.9.08.975.19,1.27,1.2,1.36a52.515,52.515,0,0,0,7.531,0,.906.906,0,0,0,.879-.879,52.52,52.52,0,0,0,0-7.531c-.09-1.008-.385-1.117-1.36-1.2a45.608,45.608,0,0,0-7.163.044" transform="translate(-178.685 -196.296)" fill="#fff"/>
          <path id="Trazado_1263576" data-name="Trazado 1263576" d="M2.356.188A53.473,53.473,0,0,1,10.789.145c2.948.316,2.205,3.352,2.388,5.447.32.459,2.939-.442,2.767,1.168-.142,1.327-2.422.4-2.767.891-.242,2.016.646,5.118-2.228,5.447a58.844,58.844,0,0,1-8.638,0A2.637,2.637,0,0,1,.155,10.779a54.554,54.554,0,0,1,.019-8.3A2.543,2.543,0,0,1,2.356.188m.152,1.751a.955.955,0,0,0-.6.837,52.446,52.446,0,0,0,0,7.53c.059.654.1.956.8,1.123a47.717,47.717,0,0,0,7.446.069c2.171-.244,1.231-3.289,1.231-4.877,0-.937.471-3.833-.195-4.475a1.329,1.329,0,0,0-.87-.249c-2.469-.222-5.3.151-7.808.041" transform="translate(-0.005 0)" fill="#fff"/>
          <path id="Trazado_1263577" data-name="Trazado 1263577" d="M151.791,288.164h9.673c1.133,0,1.03,1.759.48,1.759H151.631c.51.864,2.81,1.672,2.837,2.666a.913.913,0,0,1-1.12.828,57.047,57.047,0,0,1-4.832-3.5c-.225-.221-.569-.544-.559-.881.018-.648,4.615-3.636,5.39-4.205a.869.869,0,0,1,1.121.713c.107.993-2.17,1.811-2.677,2.617" transform="translate(-124.299 -239.251)" fill="#fff"/>
          <path id="Trazado_1263578" data-name="Trazado 1263578" d="M151.391,143.964c4.846,4.844-2.554,12.248-7.4,7.4s2.554-12.248,7.4-7.4m-4.462.3c-3.6.623-3.514,6.326.135,6.822,5.465.742,5.315-7.766-.135-6.822" transform="translate(-119.638 -119.618)" fill="#fff"/>
          <path id="Trazado_1263579" data-name="Trazado 1263579" d="M28.647,223.754a.95.95,0,0,1,.2.53,27.976,27.976,0,0,1-2.71,4.626,1.292,1.292,0,0,1-.968.006,16.041,16.041,0,0,1-2.311-1.525c-.235-.477-.111-1.185.489-1.282.893-.143,1.318.688,2.147.8a21.183,21.183,0,0,1,1.753-3.124,1.009,1.009,0,0,1,1.4-.032" transform="translate(-19.105 -187.751)" fill="#fff"/>
          <path id="Trazado_1263580" data-name="Trazado 1263580" d="M295.051,94.051a.949.949,0,0,1,.2.53,27.976,27.976,0,0,1-2.711,4.626,1.292,1.292,0,0,1-.968.006,16.039,16.039,0,0,1-2.311-1.525c-.235-.477-.111-1.185.489-1.282.893-.143,1.318.688,2.147.8a21.18,21.18,0,0,1,1.753-3.124,1.009,1.009,0,0,1,1.4-.032" transform="translate(-242.913 -78.786)" fill="#fff"/>
          <path id="Trazado_1263581" data-name="Trazado 1263581" d="M297.718,291.385a.95.95,0,0,1,.2.53,27.981,27.981,0,0,1-2.711,4.626,1.292,1.292,0,0,1-.968.006,16.049,16.049,0,0,1-2.311-1.525c-.235-.477-.111-1.185.489-1.282.893-.143,1.318.688,2.147.8a21.184,21.184,0,0,1,1.753-3.124,1.009,1.009,0,0,1,1.4-.032" transform="translate(-245.154 -244.568)" fill="#fff"/>
          <path id="Trazado_1263582" data-name="Trazado 1263582" d="M26.23,29.621a1.139,1.139,0,0,1-1.29.021,22.9,22.9,0,0,1-2.1-1.414.984.984,0,0,1,.784-1.442c.495.028,1.411,1.031,1.7.894.913-.846,2.008-4.86,3.45-2.813a.835.835,0,0,1-.04.61c-.078.276-2.314,3.989-2.5,4.144" transform="translate(-19.089 -20.408)" fill="#fff"/>
        </g>
      </g>
    </g>
  </g>
</svg>
