<svg xmlns="http://www.w3.org/2000/svg" xmlns:xlink="http://www.w3.org/1999/xlink" width="150.5" height="150.501" viewBox="0 0 150.5 150.501">
  <defs>
    <clipPath id="clip-path">
      <rect id="Rectángulo_455261" data-name="Rectángulo 455261" width="38.951" height="37.623" fill="#e6fffa"/>
    </clipPath>
    <clipPath id="clip-path-2">
      <rect id="Rectángulo_457633" data-name="Rectángulo 457633" width="85.25" height="82.525" fill="#5d0b80"/>
    </clipPath>
  </defs>
  <g id="Grupo_1205862" data-name="Grupo 1205862" transform="translate(-307.436 -10011.92)">
    <path id="Sustracción_130" data-name="Sustracción 130" d="M26.051,25.795H0V11.245H11.352V0h14.7V25.795Z" transform="translate(431.641 10038.471) rotate(-90)" fill="#e3a4fe" stroke="rgba(0,0,0,0)" stroke-miterlimit="10" stroke-width="1"/>
    <g id="Grupo_1178100" data-name="Grupo 1178100" transform="translate(307.436 10162.421) rotate(-90)">
      <path id="Trazado_998183" data-name="Trazado 998183" d="M0,0V37.623H25.58V24.056H38.951V0Z" transform="translate(0 0)" fill="#5d0b80"/>
      <g id="Grupo_1178099" data-name="Grupo 1178099" transform="translate(0 0)">
        <g id="Grupo_1178098" data-name="Grupo 1178098" clip-path="url(#clip-path)">
          <path id="Trazado_998184" data-name="Trazado 998184" d="M0,9.021a9.025,9.025,0,1,1,9.025,9.021A9.023,9.023,0,0,1,0,9.021" transform="translate(4.434 5.629)" fill="#e3a4fe"/>
        </g>
      </g>
    </g>
    <g id="Grupo_1177470" data-name="Grupo 1177470" transform="translate(308.059 10012.421)">
      <circle id="Elipse_13609" data-name="Elipse 13609" cx="74.688" cy="74.688" r="74.688" fill="#fff"/>
      <g id="Grupo_1099776" data-name="Grupo 1099776" transform="translate(28.822 28.945)">
        <g id="Grupo_1099618" data-name="Grupo 1099618" transform="translate(0.267 -0.366)">
          <rect id="Rectángulo_401104" data-name="Rectángulo 401104" width="90.569" height="91.661" transform="translate(0)" fill="none"/>
        </g>
        <g id="Grupo_1206768" data-name="Grupo 1206768" transform="translate(2.266 4.634)">
          <g id="Grupo_1206767" data-name="Grupo 1206767" clip-path="url(#clip-path-2)">
            <path id="Trazado_1264614" data-name="Trazado 1264614" d="M58.515,67.691v2.184c3.13-.188,6.564.336,8.05,3.473,2.132,4.5-1.027,8.567-5.734,8.908-11.841.858-24.7-.67-36.649,0A6.155,6.155,0,0,1,19.7,71.929c1.9-2.058,4.413-2.114,7.042-2.054V67.691H21.521c-.6,0-1.375-2.1.247-2.421l13.46,0,.484-4.368H12.06c-1.805,0-5.192-3.69-4.97-5.7L7.078,12.735a6.7,6.7,0,0,1,6.428-5.944l58.482,0A6.765,6.765,0,0,1,78.165,12.5l0,42.693c.222,2.013-3.165,5.7-4.97,5.7H49.539l.484,4.368,21.965.008A11.086,11.086,0,0,0,82.539,54.721c1.052-13.416-.813-28.184,0-41.742A11.144,11.144,0,0,0,73.2,2.668H12.05A11.163,11.163,0,0,0,2.725,12.749L2.75,55.168A11.078,11.078,0,0,0,13.034,65.261c1.084.09,4.813-.405,5.174.651.2,1.3-.038,1.67-1.282,1.793C8.4,68.547.872,63.953.283,54.966c-.9-13.8.709-28.572,0-42.473A13.658,13.658,0,0,1,12.792.013L72.23,0A13.613,13.613,0,0,1,84.968,12.734c.9,13.8-.7,28.569,0,42.473.27,5.134-6.248,12.484-11.29,12.484ZM12.788,58.472H37.9l-.237-2.8a23.156,23.156,0,0,1-10.365-5.645l-14.256-.056c-1.551-.288-1.174-2.42-.492-2.42H24.674l.246-.484-2.064-3.035-10.262-.169-.536-.434c-.523-.5.363-1.942.73-1.942h9.1l-.738-3.385c-1.394-.237-8.439.442-8.983-.415-.365-.575-.218-2.022.382-2.022h8.127l.243-3.4H13.03a1.318,1.318,0,0,1-.133-2.559c1.336-.408,8.188.176,8.492-.12l.98-3.386H12.545c-.579,0-.832-1.6-.305-2.126.812-.816,9.612.084,11.347-.418l2.18-3.276c-.913-.119-3,.3-3.644-.36-.5-.507-.332-1.807.417-2.02,1.712-.487,4.611.066,5.968-.34.236-.071,1.841-1.428,2.374-1.75a22.467,22.467,0,0,1,14.41-3.291c.981.086,3.663.445,3.533,1.8-.181,1.895-3.344.682-4.49.61-23.414-1.462-29.015,30.847-7.7,37.784,20.178,6.567,34.694-19.884,18.36-33.4-.783-.648-3.456-2.1-3.769-2.537a1.624,1.624,0,0,1-.107-1.6c1.121-1.879,4.837,2.234,5.829,2.424a26.393,26.393,0,0,0,3.388.006c3.175.072,6.531-.008,9.708,0,1.177,0,4.088-.081,3.149,1.934a4.281,4.281,0,0,1-.725.732H59.485l2.354,3.4c1.663.234,10.434-.446,11.172.3.526.528.273,2.126-.306,2.126H62.881l.981,3.386c.3.3,7.156-.287,8.492.12a1.318,1.318,0,0,1-.133,2.559H64.337l.243,3.4h8.127c.6,0,.747,1.447.382,2.022-.544.857-7.589.177-8.983.415l-.738,3.385h9.1c.367,0,1.254,1.445.73,1.942l-.537.434-10.263.169A23.405,23.405,0,0,1,47.463,55.789l-.107,2.683H72.464A4.682,4.682,0,0,0,75.511,55.7l.233-42.715c-.516-2.433-2.069-3.555-4.485-3.763-19.616.224-39.326-.408-58.888.319a4.3,4.3,0,0,0-2.864,3.443l.006,41.731a4.475,4.475,0,0,0,3.275,3.76m32.142.243-.236-2.562-4.02-.044c-.622.107-.269,2.1-.353,2.607Zm-5.893,2.718a2.043,2.043,0,0,0-1.154,1.514L38,78.621a1.421,1.421,0,0,0,1.243.941A43.34,43.34,0,0,0,46.4,79.47,1.489,1.489,0,0,0,47.361,78l-.055-15.48a2.333,2.333,0,0,0-1.29-1.136,54.15,54.15,0,0,0-6.98.045m-3.81,6.257H29.162v2.183h6.065Zm20.862,0H50.024v2.183h6.065ZM35.227,72.542H23.219a4.893,4.893,0,0,0-1.781,1.13,3.857,3.857,0,0,0-.144,4.677,5.092,5.092,0,0,0,1.683,1.228H35.712c-.05-.339-.485-1.1-.485-1.334Zm14.312,7.035H62.275a5.093,5.093,0,0,0,1.683-1.228,3.856,3.856,0,0,0-.145-4.677,4.891,4.891,0,0,0-1.781-1.13H50.024v5.7c0,.18-.542,1.292-.485,1.334" transform="translate(0)" fill="#5d0b80"/>
            <path id="Trazado_1264615" data-name="Trazado 1264615" d="M126.585,76.262c20.688-.524,21.591,30.885,1.144,31.728-21.117.871-22.06-31.2-1.144-31.728m-1.71,2.677c-14.169,1.7-15.287,23.656-.233,26.3,19.81,3.474,21.243-28.812.233-26.3" transform="translate(-84.364 -57.757)" fill="#5d0b80"/>
            <path id="Trazado_1264616" data-name="Trazado 1264616" d="M146.759,122.062a4.269,4.269,0,0,1-5.858.326,65.557,65.557,0,0,1-5.591-7.266c-2.307-5.364,5.165-8.333,7.773-3.169,1.574-1.917,2.876-6.469,5.218-7.39a4.079,4.079,0,0,1,5.519,4.792Zm-2.657-6.783c-1.808,1.362-3.181-2.828-4.35-3.386-1.592-.759-2.914.709-2.092,2.336a54.161,54.161,0,0,0,4.564,5.865c1.03.991,1.942,1.259,2.885-.046,2.282-3.158,3.885-7.765,6.213-11.016a1.6,1.6,0,0,0-2.783-1.565Z" transform="translate(-102.156 -78.956)" fill="#5d0b80"/>
          </g>
        </g>
      </g>
    </g>
  </g>
</svg>
