<svg id="Grupo_1206188" data-name="Grupo 1206188" xmlns="http://www.w3.org/2000/svg" xmlns:xlink="http://www.w3.org/1999/xlink" width="292" height="295.884" viewBox="0 0 292 295.884">
  <defs>
    <clipPath id="clip-path">
      <rect id="Rectángulo_457202" data-name="Rectángulo 457202" width="292" height="295.884" fill="none"/>
    </clipPath>
    <clipPath id="clip-path-3">
      <rect id="Rectángulo_457184" data-name="Rectángulo 457184" width="47.159" height="28.634" fill="none"/>
    </clipPath>
    <clipPath id="clip-path-4">
      <path id="Trazado_1263314" data-name="Trazado 1263314" d="M243.5,98.344c3.617,15.224.824,41.776-.759,57.22l16.848-.365c.421-19.88,4.2-49.629-6.555-67.61-2.384,1.537-8.391,8.252-9.535,10.756" transform="translate(-242.746 -87.588)" fill="none"/>
    </clipPath>
    <clipPath id="clip-path-6">
      <rect id="Rectángulo_457186" data-name="Rectángulo 457186" width="272.105" height="163.388" fill="none"/>
    </clipPath>
    <clipPath id="clip-path-7">
      <path id="Trazado_1263321" data-name="Trazado 1263321" d="M348.215,625.933c8.621,5.315,7.3,12.9,7.258,21.519a4.119,4.119,0,0,1-1.82,3.8l138.486-79.817a4.118,4.118,0,0,0,1.82-3.8c-.022-8.785,1.5-15.971-7.258-21.519Z" transform="translate(-348.215 -546.117)" fill="none"/>
    </clipPath>
    <linearGradient id="linear-gradient" x1="-0.537" y1="0.901" x2="-0.535" y2="0.901" gradientUnits="objectBoundingBox">
      <stop offset="0" stop-color="#005d92"/>
      <stop offset="1" stop-color="#004166"/>
    </linearGradient>
    <clipPath id="clip-path-9">
      <rect id="Rectángulo_457189" data-name="Rectángulo 457189" width="123.489" height="91.863" fill="none"/>
    </clipPath>
    <clipPath id="clip-path-10">
      <path id="Trazado_1263330" data-name="Trazado 1263330" d="M377.183,544.138c7.642,4.642,6.551,11.619,6.485,19.227a3.68,3.68,0,0,1-1.626,3.4l123.73-71.312a3.681,3.681,0,0,0,1.626-3.4c0-7.788,1.3-14.345-6.485-19.227Z" transform="translate(-377.183 -472.826)" fill="none"/>
    </clipPath>
    <linearGradient id="linear-gradient-2" x1="-0.67" y1="1.148" x2="-0.668" y2="1.148" gradientUnits="objectBoundingBox">
      <stop offset="0" stop-color="#fbb3a9"/>
      <stop offset="1" stop-color="#7e5a55"/>
    </linearGradient>
    <clipPath id="clip-path-12">
      <rect id="Rectángulo_457192" data-name="Rectángulo 457192" width="110.331" height="82.075" fill="none"/>
    </clipPath>
    <clipPath id="clip-path-13">
      <rect id="Rectángulo_457193" data-name="Rectángulo 457193" width="178.386" height="107.113" fill="none"/>
    </clipPath>
    <clipPath id="clip-path-14">
      <rect id="Rectángulo_457194" data-name="Rectángulo 457194" width="42.349" height="24.249" fill="none"/>
    </clipPath>
    <clipPath id="clip-path-15">
      <path id="Trazado_1263374" data-name="Trazado 1263374" d="M765.025,751.225l-.433,3.862-.938,2.432,1.515,2a12.372,12.372,0,0,0,2.957,0c.033.315.072,1.859.072,1.859a.9.9,0,0,0,.865-.072,15.558,15.558,0,0,1,.089-2.01c1.795-.206,1.3-3.275,1.281-3.927.5-2.37.61-5.694-.721-6.222a4.873,4.873,0,0,0-1.81-.4,3.083,3.083,0,0,0-2.878,2.471" transform="translate(-763.654 -748.754)" fill="none"/>
    </clipPath>
    <clipPath id="clip-path-17">
      <path id="Trazado_1263378" data-name="Trazado 1263378" d="M737.292,770.312c-4.877,1.865-3.759,8.979-9.661,7.645a.9.9,0,0,1-.135,0c-.544-.015-2.561-.03-2.681,1.512l5.842,2.789c2.425.854,6.159-1.569,6.563-4.291A16.513,16.513,0,0,1,738.3,781.9a.978.978,0,0,0,1.154-.072,17.014,17.014,0,0,1-.289-4.363c.514-3.162,1.01-3,.721-4.792,0,0-.294-2.451-2-2.451a2.164,2.164,0,0,0-.6.09" transform="translate(-724.815 -770.222)" fill="none"/>
    </clipPath>
    <clipPath id="clip-path-19">
      <path id="Trazado_1263384" data-name="Trazado 1263384" d="M706.908,484.9c-10.788,32.947-4.948,59.129,8.943,88.978l6.438-2.146c-1.12-11.232-2.978-21.924-8.241-30.112a146.091,146.091,0,0,1,3.606-25.249c-.587,12.134,2.562,38.251,4.635,50.354l6.688-.215,1.082-20.528-1.442-9.728c1.291-15.958,9.811-39.637-3.058-52.857-5.343,4.278-11.6,4.6-18.65,1.5" transform="translate(-701.321 -483.401)" fill="none"/>
    </clipPath>
    <clipPath id="clip-path-21">
      <rect id="Rectángulo_457200" data-name="Rectángulo 457200" width="70.506" height="89.813" fill="none"/>
    </clipPath>
    <clipPath id="clip-path-22">
      <path id="Trazado_1263393" data-name="Trazado 1263393" d="M30.856,346.489c13.674-7.936,35.995,4.673,49.854,28.164s14.01,48.965.336,56.9S45.052,426.88,31.193,403.39s-14.01-48.966-.336-56.9" transform="translate(-20.699 -344.115)" fill="none"/>
    </clipPath>
    <radialGradient id="radial-gradient" cx="32.762" cy="126.827" r="0.305" gradientTransform="matrix(0, -1, -0.849, 0, 1.752, 2.037)" gradientUnits="objectBoundingBox">
      <stop offset="0" stop-color="#f5f6f8"/>
      <stop offset="0.137" stop-color="#f0f2f4"/>
      <stop offset="0.292" stop-color="#e2e6ea"/>
      <stop offset="0.455" stop-color="#ccd3da"/>
      <stop offset="0.623" stop-color="#acb9c3"/>
      <stop offset="0.712" stop-color="#99a9b5"/>
      <stop offset="0.762" stop-color="#a3b1bc"/>
      <stop offset="0.847" stop-color="#bec8d0"/>
      <stop offset="0.957" stop-color="#ebeef0"/>
      <stop offset="1" stop-color="#fff"/>
    </radialGradient>
  </defs>
  <g id="Grupo_1206187" data-name="Grupo 1206187" clip-path="url(#clip-path)">
    <g id="Grupo_1206142" data-name="Grupo 1206142">
      <g id="Grupo_1206141" data-name="Grupo 1206141" clip-path="url(#clip-path)">
        <g id="Grupo_1206140" data-name="Grupo 1206140" transform="translate(46.102 147.073)" opacity="0.15" style="mix-blend-mode: multiply;isolation: isolate">
          <g id="Grupo_1206139" data-name="Grupo 1206139">
            <g id="Grupo_1206138" data-name="Grupo 1206138" clip-path="url(#clip-path-3)">
              <path id="Trazado_1263298" data-name="Trazado 1263298" d="M179.112,481.117c-10.283,3.262-25.1.069-33.086-7.132s-6.131-15.683,4.151-18.945,25.1-.069,33.086,7.132,6.131,15.683-4.151,18.945" transform="translate(-141.066 -453.762)" fill="gray" fill-rule="evenodd"/>
            </g>
          </g>
        </g>
        <path id="Trazado_1263299" data-name="Trazado 1263299" d="M388.568,205.484c1.54.677,6.474,2.933,8.012,3.341.661.2,5.854,1.593,4.737.044-.994-.447-2.222-.42-3.075-1.095.844.134,4.267.666,4.955.29.164-1.28-4.48-.945-5.613-2.046,1.945.431,4.762.654,6.731.887.855-.388.757-1.019-1.185-1.489l-2.784-.14-2.331-.558a58.571,58.571,0,0,1,6.5.328c3.353-1.969-7.965-1.205-8.167-3.146.366-.287,2.852-.241,3.075-.6.139-.223.82-1.8-2.81-.95-2.4,1.1-4.219.2-6.544-.285-1.1,1.848-1.857,3.569-1.5,5.418" transform="translate(-261.519 -135.221)" fill="#ffc5ba" fill-rule="evenodd"/>
        <path id="Trazado_1263300" data-name="Trazado 1263300" d="M388.8,197.6l1.01.478-2.108,6.219-1.088-.462Z" transform="translate(-260.265 -133.552)" fill="#fff" fill-rule="evenodd"/>
        <path id="Trazado_1263301" data-name="Trazado 1263301" d="M299.117,81.794c1.032-4.006,5.994-3.572,8.822-2.8,6.807,4.143,2.831,18.037,8.675,28.225,3.115,4.669,13.369,9.2,13.24,9.356l-2.342,7.459c-15.75-4.469-24.906-23.522-28.4-42.245" transform="translate(-201.362 -53.046)" fill="#004166" fill-rule="evenodd"/>
        <path id="Trazado_1263302" data-name="Trazado 1263302" d="M188.424,469.643c.186,2.085-.174,3.831-1.57,4.933-5.932-1.3-7.136-11.394-6.628-17.063l-1.272.027-.614-5.973,6.372-3.648,5.026,8.334c-.189,1.095-2.839,3.072-2.854,4.119a39.412,39.412,0,0,0,1.54,9.27" transform="translate(-120.057 -302.74)" fill="#49401c" fill-rule="evenodd"/>
        <path id="Trazado_1263303" data-name="Trazado 1263303" d="M314.646,511.507c1.5.815,3.308,2.36,3.367,4.469-1.709,3.5-12.678.851-15.589-1.216l-.885,1.26-4.52-.765.275-10.485,9.1-.746c.617,5.3,4.8,7.284,8.254,7.483" transform="translate(-199.951 -340.66)" fill="#49401c" fill-rule="evenodd"/>
        <path id="Trazado_1263304" data-name="Trazado 1263304" d="M292.136,323.442c3.5.571,9.215.531,12.071-1.064l6.261-40.292c-.691-6.249-2.094-44.313-5.441-49.151l-12.781,5.135.937,28.647,3.526,15.064Z" transform="translate(-196.663 -157.436)" fill="#141414" fill-rule="evenodd"/>
        <path id="Trazado_1263305" data-name="Trazado 1263305" d="M215.991,251.442c-6.679,6.394-4.88,23.515-4.9,33.992,1.154,5.752-18.18,25.495-20.838,30.063l7.232,10.1c20.325-23.32,32.578-37.975,32.873-71.585Z" transform="translate(-128.078 -169.945)" fill="#262626" fill-rule="evenodd"/>
        <path id="Trazado_1263306" data-name="Trazado 1263306" d="M275.957,141.26a20.544,20.544,0,0,0,14.9-7.683l-.591-38.415-3.236-12.284-6.9-4.545-9.535,10.683,5.363,21.512Z" transform="translate(-182.161 -52.943)" fill="#fff" fill-rule="evenodd"/>
        <path id="Trazado_1263307" data-name="Trazado 1263307" d="M306.287,145.823s2.912-37.992,1.826-49.125c-.667-6.842-4.53-12.438-8.343-17.671,3.093-.638,6.169-1.178,8.939,0,6.046,6.931,5.582,54.287,7.432,63.405Z" transform="translate(-201.802 -52.943)" fill="#005d92" fill-rule="evenodd"/>
        <path id="Trazado_1263308" data-name="Trazado 1263308" d="M283.551,74.875l.739,4.551s-5.019,7.552-10.029-2.289l1.368-6.444Z" transform="translate(-184.629 -47.78)" fill="#ffc5ba" fill-rule="evenodd"/>
        <path id="Trazado_1263309" data-name="Trazado 1263309" d="M283.176,16.964c.673,4.235-.2,8.747-.26,13.271.346,9.194-.462,10.337-6.293,9.565-3.065-.288-4.482-2.041-6.157-4.464l-.616-3.793-2.75-5.787L269.74,16Z" transform="translate(-179.809 -10.812)" fill="#ffc5ba" fill-rule="evenodd"/>
        <path id="Trazado_1263310" data-name="Trazado 1263310" d="M281.507,5.2C274.97-5.928,254,1.156,267.5,23.006l-.427-2.925c-1.24-1.424-1.416-3.276-.927-5.419,1.272-1.236,2.425,3.428,2.671,5.041.15,2.425-.146,5.331.759,6.794,1.909,3.084,6.16,2.875,8.243,2.61,2.124-.27,2.355-4.11,2.355-4.11-12.473,6.563-11.1-8.94-9.472-15.731,4.883,1.656,11.606,2.716,10.809-4.061" transform="translate(-177.086 0.001)" fill-rule="evenodd"/>
        <path id="Trazado_1263311" data-name="Trazado 1263311" d="M297.94,73.967c.223-.807,1.108-3.129,2.813-2.914a2.209,2.209,0,0,1,2.162,1.148,14.668,14.668,0,0,0,.148-1.928,22.6,22.6,0,0,0-3.1-.669A5.607,5.607,0,0,0,296.9,74.3Z" transform="translate(-199.868 -47.04)" fill-rule="evenodd"/>
        <path id="Trazado_1263312" data-name="Trazado 1263312" d="M259.6,155.2c.421-19.88,4.2-49.629-6.555-67.611-2.384,1.537-8.39,8.252-9.535,10.756,3.616,15.225.824,41.776-.758,57.22Z" transform="translate(-163.415 -59.198)" fill="#005d92" fill-rule="evenodd"/>
      </g>
    </g>
    <g id="Grupo_1206144" data-name="Grupo 1206144" transform="translate(79.332 28.389)">
      <g id="Grupo_1206143" data-name="Grupo 1206143" clip-path="url(#clip-path-4)">
        <path id="Trazado_1263313" data-name="Trazado 1263313" d="M223.022,144.991l2.332,6.541c-3.067,21.113-3.988,28.954-4.667,55.064l-8.422-1.868-4.737-25.164a201.839,201.839,0,0,1,1.788-28.427Z" transform="translate(-219.024 -126.386)" fill="#003354" fill-rule="evenodd"/>
      </g>
    </g>
    <g id="Grupo_1206149" data-name="Grupo 1206149">
      <g id="Grupo_1206148" data-name="Grupo 1206148" clip-path="url(#clip-path)">
        <path id="Trazado_1263315" data-name="Trazado 1263315" d="M327.721,262.564c1.65.726,6.939,3.144,8.588,3.581.639.215,6.386,1.691,5.077.047-1.066-.479-2.382-.45-3.3-1.174.9.143,4.573.713,5.31.311.221-1.35-4.788-1.016-6.016-2.192,2.085.462,5.1.7,7.215.95.916-.415.811-1.092-1.27-1.6l-2.984-.15-2.5-.6a62.831,62.831,0,0,1,6.963.351c3.641-2.092-8.543-1.3-8.754-3.371.392-.308,3.056-.258,3.3-.642.149-.239.879-1.932-3.012-1.018-2.654,1.187-4.448.216-7.015-.306-1.182,1.981-1.99,3.825-1.6,5.807" transform="translate(-220.553 -173.537)" fill="#ffc5ba" fill-rule="evenodd"/>
        <path id="Trazado_1263316" data-name="Trazado 1263316" d="M327.972,254.112l1.082.513-2.26,6.666-1.166-.495Z" transform="translate(-219.21 -171.749)" fill="#fff" fill-rule="evenodd"/>
        <path id="Trazado_1263317" data-name="Trazado 1263317" d="M238.644,122.291c1.2-4.669,3.851-5.053,7.148-4.147,3.21.882,2.391,5.548,3.216,9.215,1.968,17.038,1.945,25.642,20.663,34l-2.73,8.694c-20.9-6.134-24.4-23.852-28.3-47.765" transform="translate(-160.652 -79.586)" fill="#004166" fill-rule="evenodd"/>
        <g id="Grupo_1206147" data-name="Grupo 1206147" transform="translate(2.746 132.496)" opacity="0.15" style="mix-blend-mode: multiply;isolation: isolate">
          <g id="Grupo_1206146" data-name="Grupo 1206146">
            <g id="Grupo_1206145" data-name="Grupo 1206145" clip-path="url(#clip-path-6)">
              <path id="Trazado_1263318" data-name="Trazado 1263318" d="M124.514,572.174,277.234,484.1a6.466,6.466,0,0,0,0-11.246l-111.892-64.07L11.2,497.64a5.559,5.559,0,0,0,.014,9.661Z" transform="translate(-8.402 -408.786)" fill="#666"/>
            </g>
          </g>
        </g>
        <path id="Trazado_1263319" data-name="Trazado 1263319" d="M65.88,527.233l138.486-79.817,92.211,52.8a3.317,3.317,0,0,0,3.091.416c-.227.106-138.485,79.863-138.712,79.922a3.56,3.56,0,0,1-2.866-.521Z" transform="translate(-44.35 -302.399)" fill="#8cc1e3"/>
        <path id="Trazado_1263320" data-name="Trazado 1263320" d="M158.273,515.831l138.486-79.817-92.211-52.8L66.062,463.031Z" transform="translate(-44.472 -259.007)" fill="#005d92"/>
      </g>
    </g>
    <g id="Grupo_1206151" data-name="Grupo 1206151" transform="translate(113.8 177.007)">
      <g id="Grupo_1206150" data-name="Grupo 1206150" clip-path="url(#clip-path-7)">
        <path id="Trazado_1263402" data-name="Trazado 1263402" d="M1.314,1.406l180.418.657.606,165.7L1.92,167.1Z" transform="translate(-48.651 27.361) rotate(-31)" fill="url(#linear-gradient)"/>
      </g>
    </g>
    <g id="Grupo_1206156" data-name="Grupo 1206156">
      <g id="Grupo_1206155" data-name="Grupo 1206155" clip-path="url(#clip-path)">
        <path id="Trazado_1263322" data-name="Trazado 1263322" d="M86.171,652.941v12.922L178.032,719.2V705.708Z" transform="translate(-58.009 -441.31)" fill="#fff"/>
        <path id="Trazado_1263323" data-name="Trazado 1263323" d="M65.916,629.472l-.011,3.882c1.333,2.341,101.391,54.188,96.1,58.507,0,0-.03,9.98-.03,9.98-.006,1.916-1.76,2.472-3.912,1.24l-92.211-52.8-.011,3.882,92.211,52.8c9.88,5.186,6.908-8.2,7.357-13.151.011-4.057-3.257-9.232-7.287-11.54Z" transform="translate(-44.326 -425.448)" fill="#3992d8"/>
        <g id="Grupo_1206154" data-name="Grupo 1206154" transform="translate(21.59 190.284)" opacity="0.15" style="mix-blend-mode: screen;isolation: isolate">
          <g id="Grupo_1206153" data-name="Grupo 1206153">
            <g id="Grupo_1206152" data-name="Grupo 1206152" clip-path="url(#clip-path-9)">
              <path id="Trazado_1263324" data-name="Trazado 1263324" d="M66.064,600.82c.729.455,92.3,52.78,92.938,53.253a15.649,15.649,0,0,1,3.924,3.906,13.067,13.067,0,0,1,2.633,7.181c-.468,2.655,1.333,12.405-1.847,13.782l23.961-13.659a4.116,4.116,0,0,0,1.82-3.8c-.138-2.436.471-10.98-.536-13.166a16.3,16.3,0,0,0-5.131-7.264c-1.669-1.478-92.078-52.733-93.925-53.972Z" transform="translate(-66.064 -587.08)" fill="#fff"/>
            </g>
          </g>
        </g>
        <path id="Trazado_1263325" data-name="Trazado 1263325" d="M278.363,821.456l-.331.053c2.073-6.759,6.372-12.854,13.923-13.919l-.192.6c-6.857.571-11.881,6.921-13.4,13.27" transform="translate(-187.168 -545.833)" fill="#fbb3a9"/>
        <path id="Trazado_1263326" data-name="Trazado 1263326" d="M255.013,808.063a.21.21,0,0,0,.048-.036c1.648-6.607,6.666-12.95,13.811-13.852l7.543,4.348c-7.146.9-12.163,7.244-13.811,13.852a.372.372,0,0,1-.113.067l-7.543-4.348a.62.62,0,0,0,.064-.031" transform="translate(-171.629 -536.768)" fill="#f8806f"/>
        <path id="Trazado_1263327" data-name="Trazado 1263327" d="M86.171,668.7v1.741l50.455,28.332Z" transform="translate(-58.009 -451.964)" fill="#e6e6e6"/>
        <path id="Trazado_1263328" data-name="Trazado 1263328" d="M124.93,455.954l123.73-71.312,82.386,47.174a2.964,2.964,0,0,0,2.762.371c-.2.095-123.729,71.353-123.932,71.407a3.181,3.181,0,0,1-2.56-.466Z" transform="translate(-84.101 -259.972)" fill="#fbb3a9"/>
        <path id="Trazado_1263329" data-name="Trazado 1263329" d="M207.479,445.768l123.73-71.312-82.386-47.174-123.73,71.312Z" transform="translate(-84.211 -221.203)" fill="#fbb3a9"/>
      </g>
    </g>
    <g id="Grupo_1206158" data-name="Grupo 1206158" transform="translate(123.268 153.252)">
      <g id="Grupo_1206157" data-name="Grupo 1206157" clip-path="url(#clip-path-10)">
        <path id="Trazado_1263403" data-name="Trazado 1263403" d="M1.174,1.255l161.158.587.541,148.021L1.715,149.276Z" transform="translate(-43.467 24.446) rotate(-31)" fill="url(#linear-gradient-2)"/>
      </g>
    </g>
    <g id="Grupo_1206169" data-name="Grupo 1206169">
      <g id="Grupo_1206168" data-name="Grupo 1206168" clip-path="url(#clip-path)">
        <path id="Trazado_1263331" data-name="Trazado 1263331" d="M143.059,568.268v11.545l82.073,47.651V615.413Z" transform="translate(-96.306 -384.081)" fill="#fff"/>
        <path id="Trazado_1263332" data-name="Trazado 1263332" d="M124.963,547.3l-.01,3.468c1.191,2.091,90.588,48.414,85.864,52.273,0,0-.026,8.917-.026,8.917,0,1.712-1.573,2.209-3.495,1.108L124.91,565.892l-.01,3.468,82.386,47.174c8.827,4.633,6.172-7.326,6.573-11.75.01-3.624-2.909-8.249-6.51-10.31Z" transform="translate(-84.081 -369.909)" fill="#f87664"/>
        <g id="Grupo_1206161" data-name="Grupo 1206161" transform="translate(40.882 165.115)" opacity="0.15" style="mix-blend-mode: screen;isolation: isolate">
          <g id="Grupo_1206160" data-name="Grupo 1206160">
            <g id="Grupo_1206159" data-name="Grupo 1206159" clip-path="url(#clip-path-12)">
              <path id="Trazado_1263333" data-name="Trazado 1263333" d="M125.1,521.7c.523.32,82.391,47.141,82.819,47.438a13.523,13.523,0,0,1,3.332,3.1,12.021,12.021,0,0,1,2.743,6.943c-.418,2.372,1.191,11.083-1.65,12.314l21.408-12.2a3.678,3.678,0,0,0,1.626-3.4c-.123-2.177.421-9.81-.478-11.763a14.563,14.563,0,0,0-4.584-6.49c-1.491-1.32-82.267-47.114-83.917-48.221Z" transform="translate(-125.095 -509.426)" fill="#fff"/>
            </g>
          </g>
        </g>
        <path id="Trazado_1263334" data-name="Trazado 1263334" d="M314.773,718.828l-.3.047c1.809-5.988,5.755-11.53,12.44-12.436l-.172.533c-6.127.51-10.615,6.184-11.972,11.856" transform="translate(-211.702 -477.468)" fill="#fbb3a9"/>
        <path id="Trazado_1263335" data-name="Trazado 1263335" d="M293.911,706.862c1.555-5.872,5.94-11.613,12.383-12.408l6.74,3.885c-6.384.807-10.867,6.472-12.339,12.376a.33.33,0,0,1-.1.06l-6.74-3.884a.584.584,0,0,0,.057-.028" transform="translate(-197.819 -469.367)" fill="#26c6dc"/>
        <path id="Trazado_1263336" data-name="Trazado 1263336" d="M143.059,582.352v1.556l45.079,25.312Z" transform="translate(-96.306 -393.6)" fill="#e6e6e6"/>
        <g id="Grupo_1206164" data-name="Grupo 1206164" transform="translate(78.856 95.677)" opacity="0.15" style="mix-blend-mode: multiply;isolation: isolate">
          <g id="Grupo_1206163" data-name="Grupo 1206163">
            <g id="Grupo_1206162" data-name="Grupo 1206162" clip-path="url(#clip-path-13)">
              <path id="Trazado_1263337" data-name="Trazado 1263337" d="M317.408,402.3l100.119-57.738a4.239,4.239,0,0,0,0-7.373l-73.354-42-101.05,58.25a3.645,3.645,0,0,0,.009,6.334Z" transform="translate(-241.288 -295.191)" fill="gray"/>
            </g>
          </g>
        </g>
        <path id="Trazado_1263338" data-name="Trazado 1263338" d="M243.119,278.53,137.147,217.851,278.354,137l105.971,60.679Z" transform="translate(-92.326 -92.593)" fill="#fff" fill-rule="evenodd"/>
        <path id="Trazado_1263339" data-name="Trazado 1263339" d="M547.133,219.981l-60.547-34.669,25.64-14.681L572.773,205.3Z" transform="translate(-327.565 -115.326)" fill="#e3a4fe"/>
        <path id="Trazado_1263340" data-name="Trazado 1263340" d="M447.877,263.034l-44.5-25.482,20.317-11.634,44.5,25.482Zm-42.009-25.511,42.061,24.084L465.7,251.429l-42.061-24.083Z" transform="translate(-271.548 -152.693)" fill="#004166"/>
        <path id="Trazado_1263341" data-name="Trazado 1263341" d="M792.56,316.184l-6.61-3.785-8.408-4.815c-1.63-1.249,1.54-2.129,2.421-1.386l15.018,8.6c1.63,1.249-1.54,2.129-2.421,1.386" transform="translate(-523.124 -206.769)" fill="#6a40a2"/>
        <path id="Trazado_1263342" data-name="Trazado 1263342" d="M744.808,320.362l-24.833-14.219c-1.63-1.249,1.54-2.129,2.421-1.386l24.833,14.219c1.63,1.248-1.54,2.129-2.421,1.386" transform="translate(-484.37 -205.795)" fill="#6a40a2"/>
        <path id="Trazado_1263343" data-name="Trazado 1263343" d="M679.314,350.12,651.169,334c-.367-.21-.354-.557.028-.776a1.51,1.51,0,0,1,1.355-.016L680.7,349.328c.931.713-.88,1.217-1.383.792" transform="translate(-438.18 -225.108)" fill="#004166"/>
        <path id="Trazado_1263344" data-name="Trazado 1263344" d="M717.274,336.259l-24.833-14.219c-1.63-1.249,1.54-2.129,2.421-1.386L719.7,334.872c1.63,1.249-1.54,2.129-2.421,1.386" transform="translate(-465.835 -216.539)" fill="#6a40a2"/>
        <path id="Trazado_1263345" data-name="Trazado 1263345" d="M510.06,269.136c-.048-.6-27.832-14.705-25.917-15.684a1.61,1.61,0,0,1,1.446-.018l25.946,14.857c.993.761-.939,1.3-1.476.845" transform="translate(-325.856 -171.181)" fill="#004166"/>
        <path id="Trazado_1263346" data-name="Trazado 1263346" d="M480.5,271.681,448.569,253.4c-.391-.224-.377-.595.03-.828a1.611,1.611,0,0,1,1.446-.017l31.93,18.283c.993.761-.939,1.3-1.476.845" transform="translate(-301.78 -170.586)" fill="#004166"/>
        <path id="Trazado_1263347" data-name="Trazado 1263347" d="M463.714,281.372l-31.93-18.283c-.391-.224-.377-.595.03-.828a1.612,1.612,0,0,1,1.446-.017l31.93,18.283c.993.761-.939,1.3-1.476.845" transform="translate(-290.481 -177.136)" fill="#004166"/>
        <path id="Trazado_1263348" data-name="Trazado 1263348" d="M402.392,319.063l-23.468-13.437,1.273-.729,23.468,13.437Z" transform="translate(-255.088 -206.074)" fill="#004166"/>
        <path id="Trazado_1263349" data-name="Trazado 1263349" d="M376.285,321.238,347.405,304.7l1.273-.729,28.879,16.536Z" transform="translate(-233.869 -205.45)" fill="#004166"/>
        <path id="Trazado_1263350" data-name="Trazado 1263350" d="M361.324,329.876,332.445,313.34l1.273-.729L362.6,329.147Z" transform="translate(-223.798 -211.287)" fill="#004166"/>
        <path id="Trazado_1263351" data-name="Trazado 1263351" d="M406.027,447.758l-53.44-30.6,1.273-.729,53.44,30.6Z" transform="translate(-237.357 -281.457)" fill="#004166"/>
        <path id="Trazado_1263352" data-name="Trazado 1263352" d="M314.361,414.916,224.935,363.71l1.273-.729,89.426,51.205Z" transform="translate(-151.424 -245.332)" fill="#004166"/>
        <path id="Trazado_1263353" data-name="Trazado 1263353" d="M296.822,425.042,207.4,373.837l1.273-.729,89.426,51.205Z" transform="translate(-139.616 -252.176)" fill="#004166"/>
        <path id="Trazado_1263354" data-name="Trazado 1263354" d="M279.283,435.168l-89.426-51.205,1.273-.729,89.426,51.205Z" transform="translate(-127.809 -259.02)" fill="#004166"/>
        <path id="Trazado_1263355" data-name="Trazado 1263355" d="M641.25,348.924c0-.748-40-21.448-38.221-22.675a1.5,1.5,0,0,1,1.355-.018l38.249,21.9c.931.713-.88,1.217-1.383.792" transform="translate(-405.914 -220.389)" fill="#004166"/>
        <path id="Trazado_1263356" data-name="Trazado 1263356" d="M622.048,360.01c0-.748-40-21.448-38.221-22.675a1.5,1.5,0,0,1,1.355-.018l38.249,21.9c.931.713-.88,1.217-1.383.792" transform="translate(-392.987 -227.882)" fill="#004166"/>
        <path id="Trazado_1263357" data-name="Trazado 1263357" d="M602.846,371.1c0-.748-40-21.448-38.221-22.675a1.5,1.5,0,0,1,1.355-.018l38.249,21.9c.931.713-.88,1.217-1.383.792" transform="translate(-380.061 -235.375)" fill="#004166"/>
        <path id="Trazado_1263358" data-name="Trazado 1263358" d="M337.431,311.714,300.51,290.573,324.393,276.9l36.921,21.141Zm-34.888-21.165,34.931,20,21.808-12.487-34.931-20Z" transform="translate(-202.3 -187.15)" fill="#004166"/>
        <path id="Trazado_1263359" data-name="Trazado 1263359" d="M430.37,392.008l-54.885-31.427,35.306-20.216,54.885,31.427Zm-52.852-31.451,52.894,30.287,33.231-19.028-52.894-30.287Z" transform="translate(-252.772 -230.046)" fill="#004166"/>
        <path id="Trazado_1263360" data-name="Trazado 1263360" d="M302.478,345.534l-36.921-21.141,12.46-7.135L314.938,338.4ZM267.59,324.369l34.931,20,10.385-5.947-34.93-20Z" transform="translate(-178.77 -214.428)" fill="#004166"/>
        <path id="Trazado_1263361" data-name="Trazado 1263361" d="M321.634,356.813c-.275-.158-.265-.418.021-.582.447-.032,12.186-7.558,12.439-6.553.275.158.266.418-.021.582-.448.032-12.186,7.558-12.439,6.553" transform="translate(-216.386 -236.277)" fill="#004166"/>
        <path id="Trazado_1263362" data-name="Trazado 1263362" d="M476.628,392.195a24.1,24.1,0,0,0-12.339,1.032l-5.9-5.669a43.883,43.883,0,0,1,23.146-1.6Z" transform="translate(-308.58 -260.282)" fill="#004166"/>
        <path id="Trazado_1263363" data-name="Trazado 1263363" d="M432.679,404.355l-11.3-1.709c1.786-4.828,7.181-8.177,12.1-9.966l5.9,5.669c-2.813,1.032-6,3.125-6.695,6.006" transform="translate(-283.664 -265.404)" fill="#e3a4fe"/>
        <path id="Trazado_1263364" data-name="Trazado 1263364" d="M545.28,427.932l-9.791-3.477c2.267-1.785,3.36-4.821,1.908-7.207l11.045-2.556c2.841,4.452.9,9.96-3.162,13.24" transform="translate(-360.485 -280.282)" fill="#37dbc5"/>
        <path id="Trazado_1263365" data-name="Trazado 1263365" d="M528.21,391.047a15.851,15.851,0,0,1,5.906,5.43l-11.046,2.556c-1.59-2.833-5.459-4.455-8.863-5.053l4.9-6.238a30.972,30.972,0,0,1,9.1,3.305" transform="translate(-346.159 -262.067)" fill="#3992d8"/>
        <path id="Trazado_1263366" data-name="Trazado 1263366" d="M520.943,450.743a36.284,36.284,0,0,1-13.075,4.191l-3.319-6.419a18.641,18.641,0,0,0,10.112-3.7l9.791,3.477a22.353,22.353,0,0,1-3.508,2.454" transform="translate(-339.657 -300.64)" fill="#ffe9a1"/>
        <path id="Trazado_1263367" data-name="Trazado 1263367" d="M497.586,422a1.2,1.2,0,0,0,.363-.264l7.185-5.232L496,420.621a2.049,2.049,0,0,0-.5.223l.005,0c-1.26,1.118,1.226,1.726,2.047,1.172l.005,0Z" transform="translate(-333.335 -281.509)" fill="#35174c"/>
        <path id="Trazado_1263368" data-name="Trazado 1263368" d="M498.942,431.335c-.217.177-.931-.011-.535-.307.217-.177.931.011.535.307" transform="translate(-335.443 -291.277)" fill="#fff"/>
        <g id="Grupo_1206167" data-name="Grupo 1206167" transform="translate(228.06 241.051)" opacity="0.15" style="mix-blend-mode: multiply;isolation: isolate">
          <g id="Grupo_1206166" data-name="Grupo 1206166">
            <g id="Grupo_1206165" data-name="Grupo 1206165" clip-path="url(#clip-path-14)">
              <path id="Trazado_1263369" data-name="Trazado 1263369" d="M733.982,764.408c-8.269,4.735-21.676,4.735-29.945,0s-8.269-12.411,0-17.147,21.676-4.735,29.945,0,8.269,12.412,0,17.147" transform="translate(-697.835 -743.71)" fill="gray" fill-rule="evenodd"/>
            </g>
          </g>
        </g>
        <path id="Trazado_1263370" data-name="Trazado 1263370" d="M767.764,736.076a23.607,23.607,0,0,0,.144,6.509l-3.245,7.081-4.76-.286c1.451-3.862,4.609-8.44,2.957-12.875Z" transform="translate(-511.558 -497.499)" fill="#d6a7a8" fill-rule="evenodd"/>
        <path id="Trazado_1263371" data-name="Trazado 1263371" d="M765.025,751.226s.756-3.655,4.688-2.074c1.33.528,1.225,3.853.721,6.222.024.652.514,3.721-1.28,3.927a15.516,15.516,0,0,0-.089,2.01.9.9,0,0,1-.865.071s-.039-1.545-.072-1.859a12.384,12.384,0,0,1-2.957,0l-1.514-2,.938-2.432Z" transform="translate(-514.084 -506.068)" fill="#3d61af" fill-rule="evenodd"/>
      </g>
    </g>
    <g id="Grupo_1206171" data-name="Grupo 1206171" transform="translate(249.57 242.686)">
      <g id="Grupo_1206170" data-name="Grupo 1206170" clip-path="url(#clip-path-15)">
        <path id="Trazado_1263372" data-name="Trazado 1263372" d="M769.412,770.324l.5-.429a9.027,9.027,0,0,0-2.164-5.793,13.06,13.06,0,0,1-1.442,6.008Z" transform="translate(-765.437 -759.128)" fill="#3d4e86" fill-rule="evenodd"/>
        <path id="Trazado_1263373" data-name="Trazado 1263373" d="M780.72,766.291c-.36-.728-.132-3.732.289-5.222.357-.781,1.37-3.147,1.37-3.147l.721,7.724Z" transform="translate(-775.022 -754.951)" fill="#3d4e86" fill-rule="evenodd"/>
      </g>
    </g>
    <g id="Grupo_1206173" data-name="Grupo 1206173">
      <g id="Grupo_1206172" data-name="Grupo 1206172" clip-path="url(#clip-path)">
        <path id="Trazado_1263375" data-name="Trazado 1263375" d="M738.424,753.693h0c1.343,4.5-.4,9.959-3.678,13.232h0l2.574.715c1.828-2.131,6.267-6.867,8.245-8.941h0c-.907-1.28-1.567-5.527-1.731-6.294Z" transform="translate(-494.623 -508.535)" fill="#f7a790" fill-rule="evenodd"/>
        <path id="Trazado_1263376" data-name="Trazado 1263376" d="M724.815,779.468l5.842,2.789c2.425.854,6.159-1.569,6.563-4.291A16.5,16.5,0,0,1,738.3,781.9a.978.978,0,0,0,1.154-.072,17.011,17.011,0,0,1-.289-4.363c.514-3.162,1.01-3,.721-4.792,0,0-.361-3-2.6-2.36-4.877,1.865-3.759,8.979-9.661,7.645.005.027-2.677-.275-2.815,1.51" transform="translate(-487.937 -520.578)" fill="#3d61af" fill-rule="evenodd"/>
      </g>
    </g>
    <g id="Grupo_1206175" data-name="Grupo 1206175" transform="translate(236.877 249.644)">
      <g id="Grupo_1206174" data-name="Grupo 1206174" clip-path="url(#clip-path-17)">
        <path id="Trazado_1263377" data-name="Trazado 1263377" d="M741.586,795.742s2.437-.118,2.957-1.788c.5-.653,1.669-5.638,3.1-4.292.85.908.866,1.216.866,1.216l-.793,2.575-3.678,2.789Z" transform="translate(-736.105 -783.206)" fill="#3d4e86" fill-rule="evenodd"/>
        <rect id="Rectángulo_457197" data-name="Rectángulo 457197" width="2.164" height="1.288" transform="translate(12.982 11.034)" fill="#3d4e86"/>
      </g>
    </g>
    <g id="Grupo_1206177" data-name="Grupo 1206177">
      <g id="Grupo_1206176" data-name="Grupo 1206176" clip-path="url(#clip-path)">
        <path id="Trazado_1263379" data-name="Trazado 1263379" d="M754.366,774.06c.741-1.067,2.467-3.494,4.229-2.867l.014-.035c-1.842-.839-3.7,1.635-4.282,2.88Z" transform="translate(-507.805 -521.095)" fill="#fff" fill-rule="evenodd"/>
        <path id="Trazado_1263380" data-name="Trazado 1263380" d="M725.459,795.7c.437-.863,2.825-1.227,3.581-.869l.013-.035c-.894-.489-3.109-.328-3.631.879Z" transform="translate(-488.346 -537.014)" fill="#fff" fill-rule="evenodd"/>
        <path id="Trazado_1263381" data-name="Trazado 1263381" d="M768.935,751.215c1.361-1.36,3.787-2.182,4.944.065l.033-.018c-1.1-2.478-3.679-1.717-5.008-.078Z" transform="translate(-517.618 -506.686)" fill="#fff" fill-rule="evenodd"/>
        <path id="Trazado_1263382" data-name="Trazado 1263382" d="M706.908,484.9c-10.788,32.947-4.948,59.13,8.943,88.978l6.438-2.146c-1.12-11.232-2.978-21.924-8.241-30.112a146.122,146.122,0,0,1,3.606-25.249c-.587,12.134,2.562,38.251,4.634,50.354l6.688-.215,1.082-20.528-1.443-9.727c1.291-15.958,9.811-39.637-3.058-52.858-5.344,4.278-11.6,4.6-18.65,1.5" transform="translate(-472.122 -326.722)" fill="#004166" fill-rule="evenodd"/>
      </g>
    </g>
    <g id="Grupo_1206179" data-name="Grupo 1206179" transform="translate(229.199 156.68)">
      <g id="Grupo_1206178" data-name="Grupo 1206178" clip-path="url(#clip-path-19)">
        <path id="Trazado_1263383" data-name="Trazado 1263383" d="M721.832,478.59c6.923-.405,12.62.562,12.715,2.158s-4.7,4.871-11.622,5.276c-15.952-.224-18.867-6.472-1.093-7.434" transform="translate(-706.953 -480.087)" fill="#fbb3a9" fill-rule="evenodd"/>
      </g>
    </g>
    <g id="Grupo_1206186" data-name="Grupo 1206186">
      <g id="Grupo_1206185" data-name="Grupo 1206185" clip-path="url(#clip-path)">
        <path id="Trazado_1263385" data-name="Trazado 1263385" d="M751.059,578.52c.617-8.451,4.067-21.216,10.313-28.253-5.29,1.676-10.57,6.612-11.178,12.517Z" transform="translate(-505.022 -371.914)" fill="#003354" fill-rule="evenodd"/>
        <path id="Trazado_1263386" data-name="Trazado 1263386" d="M769.052,396.472a11.365,11.365,0,0,1-.23,7.79c-1.171,3.757-5.749,9.646-7.868,12.033-4.23,3.694-8.311-.03-6.1-3.853,2.045-3.541,5.1-6.919,6.735-11.194l-3.049-10.912c.026-4.338,7.03-4.668,9.16,2.052l1.355,4.085" transform="translate(-507.74 -261.693)" fill="#2abfab" fill-rule="evenodd"/>
        <path id="Trazado_1263387" data-name="Trazado 1263387" d="M727.6,363.05,727.251,362s1.094-3.453.321-4.875c0,0-4.207.911-4.925-3.285s-1.486-8.708.175-10.207,11,4.39,11,4.39.638,7.876,2.694,9.9-.378,4.06-.378,4.06Z" transform="translate(-485.927 -232.088)" fill="#ffc9b6" fill-rule="evenodd"/>
        <path id="Trazado_1263388" data-name="Trazado 1263388" d="M722.01,329.509s2.82-2.078,2.663,1.425c-.114,2.547.32,2.781.9,3.746.321.53,1.118,4.211,3.931,4.211,3.246,0,3.7-1.991,4.9-3.076,2.473-2.22,2.17-7.138,2.308-10.014s-.247-6.145-3.012-8.583-6.411-3.65-8.96-2.289c-1.987,1.34-3.16,1.624-6.13,1.645-.736.182-2.339,1.112-2.176,4.886.209,4.845,4.445,6.547,5,5.8Z" transform="translate(-482.293 -212.471)" fill="#8c6239" fill-rule="evenodd"/>
        <path id="Trazado_1263389" data-name="Trazado 1263389" d="M712.023,421.248l.433-12.446c-1.944-5.28-4.7-15.466,7.5-18.668,7.211,3.5,8.522-2.3,12.371-2.29,5.473.375,3.624,16.226,3.423,15.737l-3.173,9.656c-.144,1.287.7,5,1.01,6.723a21.645,21.645,0,0,1-21.564,1.288" transform="translate(-478.463 -262.137)" fill="#37dbc5" fill-rule="evenodd"/>
        <path id="Trazado_1263390" data-name="Trazado 1263390" d="M690.77,413.956l-5.265,8.154-6.932,6.54c-4.68,3.115-8.237-1.1-5.545-4.609,2.493-3.246,5.969-6.2,8.149-10.228l5.171-8.934c2.978-3.154,8.1-2.438,7.089,2.64Z" transform="translate(-452.45 -272.368)" fill="#37dbc5" fill-rule="evenodd"/>
        <path id="Trazado_1263391" data-name="Trazado 1263391" d="M608.294,482.718l1.01,4.84c-.855.351-17.253,5.938-18.716-.5.525-1.654,3.341-.094,4.791-.592,1.08-.307,2.7-1.323,2.72-2.059,0-1.866-.979-1.688-.851-3.28.491-.677,1.035-.006,1.7.764a15.813,15.813,0,0,0,2.513,2.582c.6.371,6.829-1.752,6.829-1.752" transform="translate(-397.577 -324.993)" fill="#ffc9b6" fill-rule="evenodd"/>
        <path id="Trazado_1263392" data-name="Trazado 1263392" d="M645.728,474.08l-9.736,3.934a40.263,40.263,0,0,0-1.875-6.509l14.28-7.367c4.544-1.216,8.436,2.361,4.327,5.936Z" transform="translate(-426.88 -313.538)" fill="#37dbc5" fill-rule="evenodd"/>
        <g id="Grupo_1206184" data-name="Grupo 1206184" transform="translate(6.765 111.535)" opacity="0.3" style="mix-blend-mode: multiply;isolation: isolate">
          <g id="Grupo_1206183" data-name="Grupo 1206183">
            <g id="Grupo_1206182" data-name="Grupo 1206182" clip-path="url(#clip-path-21)">
              <g id="Grupo_1206181" data-name="Grupo 1206181" transform="translate(0 0)">
                <g id="Grupo_1206180" data-name="Grupo 1206180" clip-path="url(#clip-path-22)">
                  <path id="Trazado_1263404" data-name="Trazado 1263404" d="M.436.521,117.758.762l.206,100.942L.642,101.464Z" transform="matrix(0.256, -0.967, 0.967, 0.256, -29.31, 89.052)" fill="url(#radial-gradient)"/>
                </g>
              </g>
            </g>
          </g>
        </g>
        <path id="Trazado_1263394" data-name="Trazado 1263394" d="M310.74,800.713a7.738,7.738,0,0,1-3.179,10.526,7.868,7.868,0,0,1-10.614-3.153,7.737,7.737,0,0,1,3.179-10.526h0a7.869,7.869,0,0,1,10.612,3.154" transform="translate(-199.269 -538.425)" fill="#001a46"/>
        <path id="Trazado_1263395" data-name="Trazado 1263395" d="M230.3,658.493l-16.96,9.063,25.3,46.292.034.069c1.47,2.7,6.453,2.869,11.141.366s7.29-6.725,5.818-9.431c-.012-.023-.027-.044-.04-.066Z" transform="translate(-143.615 -445.062)" fill="#084c94"/>
        <path id="Trazado_1263396" data-name="Trazado 1263396" d="M229.512,654.129c1.47,2.7-1.136,6.924-5.818,9.431s-9.672,2.34-11.141-.366,1.136-6.925,5.818-9.431,9.675-2.34,11.141.366" transform="translate(-142.812 -440.664)" fill="#2672ab"/>
        <path id="Trazado_1263397" data-name="Trazado 1263397" d="M229.968,658.543l-.017-.025c1.007,2.706-1.56,6.628-6.005,9-4.668,2.495-9.637,2.339-11.125-.34a3.3,3.3,0,0,0,.185.426c1.47,2.7,6.453,2.869,11.141.366s7.291-6.725,5.821-9.43" transform="translate(-143.269 -445.079)" fill="#3f92d1"/>
        <path id="Trazado_1263398" data-name="Trazado 1263398" d="M210.467,620.593l-10.089,5.391,7.174,13.2.014.029c.881,1.622,3.848,1.719,6.634.229s4.337-4,3.461-5.609c-.008-.014-.016-.026-.016-.026l-.006-.015Z" transform="translate(-134.892 -419.446)" fill="#001a46"/>
        <path id="Trazado_1263399" data-name="Trazado 1263399" d="M58.075,440.809c6.655,3.809,12.836,5.094,18.024,4.216a50.426,50.426,0,0,1-4.966-2.467C48.353,429.515,29.886,397.926,29.886,372a49.046,49.046,0,0,1,.271-4.952C26.906,371.015,25,376.813,25,384.225c0,20.791,14.809,46.124,33.077,56.584" transform="translate(-16.828 -248.082)" fill="#3f92d1"/>
        <path id="Trazado_1263400" data-name="Trazado 1263400" d="M76.78,305.9c-10.983-6.289-20.962-7.116-28.35-3.383l-.023-.039-10.049,5.463c7.427-3.958,17.546-3.24,28.719,3.157,22.78,13.044,41.247,44.633,41.247,70.556,0,12.722-4.464,21.684-11.684,26l8.132-4.315c8.156-3.906,13.264-13.254,13.264-26.887-.01-25.924-18.474-57.513-41.256-70.556" transform="translate(-25.822 -202.958)" fill="#3f92d1"/>
        <path id="Trazado_1263401" data-name="Trazado 1263401" d="M41.246,321.978c-11.173-6.4-21.292-7.116-28.719-3.157l-.307.166.014.023C4.7,323.2,0,332.267,0,345.3c0,25.925,18.467,57.513,41.246,70.557,11.547,6.609,21.961,7.151,29.448,2.738l.113-.06c7.22-4.32,11.684-13.283,11.684-26,0-25.921-18.466-57.509-41.245-70.553m18.024,88.8c-5.184.876-11.37-.407-18.024-4.216C22.978,396.1,8.17,370.768,8.17,349.977c0-7.412,1.9-13.21,5.159-17.175,5.867-7.155,16.163-8.259,27.917-1.528,18.269,10.46,33.078,35.793,33.078,56.583,0,13.218-6,21.389-15.054,22.92" transform="translate(0 -213.834)" fill="#a8cff0"/>
      </g>
    </g>
  </g>
</svg>
