<svg xmlns="http://www.w3.org/2000/svg" xmlns:xlink="http://www.w3.org/1999/xlink" width="127" height="128" viewBox="0 0 127 128">
  <defs>
    <clipPath id="clip-path">
      <rect id="Rect치ngulo_457582" data-name="Rect치ngulo 457582" width="76.116" height="76.44" fill="#5d0b80"/>
    </clipPath>
  </defs>
  <g id="Grupo_1205887" data-name="Grupo 1205887" transform="translate(-0.116)">
    <ellipse id="Elipse_13609" data-name="Elipse 13609" cx="63.5" cy="64" rx="63.5" ry="64" transform="translate(0.116)" fill="#fff"/>
    <g id="Grupo_1099776" data-name="Grupo 1099776" transform="translate(23.859 24)">
      <g id="Grupo_1099618" data-name="Grupo 1099618" transform="translate(0.257 0.081)">
        <rect id="Rect치ngulo_401104" data-name="Rect치ngulo 401104" width="78.706" height="80.124" transform="translate(0)" fill="none"/>
      </g>
      <g id="Grupo_1206698" data-name="Grupo 1206698" transform="translate(1.257 2.081)">
        <g id="Grupo_1206697" data-name="Grupo 1206697" clip-path="url(#clip-path)">
          <path id="Trazado_1264419" data-name="Trazado 1264419" d="M30.794,41.6a3.527,3.527,0,0,1,4.68-2.974c.173-.627,1.16-1.37,1.321-1.724.358-.785.008-2.634.076-3.564a8.6,8.6,0,0,0-3.539-1.876c-.537.493-.506,1.276-1.008,1.843-1.391,1.572-3.8,1.264-5.348.105-2.863,6.522-9.155-.915-13.215-2.181a25.844,25.844,0,0,0,3.317,13.6c.532.923,3.135,4.117,3.182,4.664a1.2,1.2,0,0,1-1.32,1.13c-.993-.156-3.429-3.977-3.983-4.983a29.449,29.449,0,0,1-3.426-15.9,10.415,10.415,0,0,1-4.076-4.329,17.058,17.058,0,0,0-.745-1.986C5.808,22.367,1.8,21.023.6,19.884a2.459,2.459,0,0,1-.49-.875L0,4.039C.155,2.571,1.32,2.171,2.632,2.51c1.008.26,7.305,4.022,8.492,4.826.787.534,1.453.842,1.435,1.949-.015.969-.931,1.66.854,1.847L26.958,7.651c1.31.809,3.146-.44,4.664-.814a27.539,27.539,0,0,1,14.667.49c1.747.553,3.352,1.472,5.091,2.033C54.541,7.3,57.8,6.225,61.586,7.122L73.8.094a1.893,1.893,0,0,1,2.249,1.058l.068,15.677c-.223.728-2.994,2.377-3.746,2.6-2.1.635-2.2-2.007-3.54-.5-1.375,4.255-2.073,9.055-3.585,13.228C64.488,34.25,64.55,35.787,64.1,38A27.381,27.381,0,0,1,51.575,55.613c.1,3.131-.026,5.436-1.693,8.133-.345.559-1.312,1.446-1.4,1.88-.456,2.389.3,6.156,0,8.735a2.008,2.008,0,0,1-2.069,1.861,85.9,85.9,0,0,1-12.244-.005,2.02,2.02,0,0,1-1.851-2.08c-.126-1.11-.144-5.166.344-5.988a2.037,2.037,0,0,1,2.057-.891l-.035-1.165c-2.973-2.959-6.349-5.874-9.14-8.983-.523-.583-.725-1.326-1.1-1.738-.567-.623-3.7-1.759-2.161-3.061,1.185-1.005,2.282.751,3.378,1.138a4.531,4.531,0,0,1,5.129-.82ZM74.03,2.624,66.387,6.882l-.226.431,5.485,9.708c.385.277,2.016-.86,2.385-1.186ZM2.188,4.808V18.346l2.078,1.037c1.321-.972,1.368-4.09,3.511-3.023,1.243.979-1.706,4.028-1.44,4.384,2.612.619,2.34,2.047,3.236,3.864A9.161,9.161,0,0,0,13.04,28.13c3.144,2.056,6.812,3.713,10.017,5.717a1.219,1.219,0,0,0,1.2-.313c2.5-2.488-7.122-3.458-4.232-6.2l1.153.088L29.2,32.06c1.326.3,1.908-.473,1.477-1.7l-8.623-5.131c-.652-1.467.16-2.337,1.677-1.679,3.144,1.362,6.47,4.16,9.672,5.613l1.321,0c.51-.545.7-1.521-.015-1.956l-10.24-5.918c-.811-.847-.483-1.7.585-2.03l9.009,4.891c1.434.2,1.92-1.293.871-2.191-1.521-1.244-11.627-6.121-12.115-7.1-.862-1.729,1.617-1.743,2.451-2.139,1.161-.55,1.289-1.483,1.153-2.668L13.376,13.5c-.724.337-1.884-.886-2.312-.8-.471.092-1.149,1.7-2.211.62-1.08-1.1,1.323-2.889,1.182-4.128ZM36.7,30.555c1.631,1.275,2.306.106,3.815-.624a9.015,9.015,0,0,1-.1-2.292,6.322,6.322,0,0,1,.818-1.544,11.413,11.413,0,0,1-1.166-1.847c-.6-2.343.978-3.593,2.731-4.7a3.465,3.465,0,0,1-.658-4.374c.922-1.635,4.854-2.841,6.33-4.152.225-.2.323-.223.012-.429a22.323,22.323,0,0,0-3.668-1.355,23.673,23.673,0,0,0-16.1,1.016,4.239,4.239,0,0,1-2.067,4.27l9.772,5.732a3.451,3.451,0,0,1,.067,5.434c1.265,1.555,1.03,3.163.217,4.865M51.539,45.533c.357,2.005-.264,4.979,0,7.1a17.734,17.734,0,0,0,6.381-5.957,23.671,23.671,0,0,0,4.437-13.706,4.228,4.228,0,0,1-3.177-4.139c-.973,1.157-3.5.921-2.68-.816.278-.587,4.027-2.852,4.939-2.424,1.158.407.023,2.446-.023,3.185a1.9,1.9,0,0,0,1.9,2.011l3.391-12.88,1.87-1.845-4.5-7.772c-.787.154-1.422.977-2.182,1.1-1.111.173-2.959-.339-4.362-.217-2.488.217-8.728,4.183-11.166,5.648-1.032.62-3.1,1.4-2.365,2.878.862,1.741,4.865-1.942,5.947-2.152.946-.184,1.5.457,1.375,1.376-.079.566-.8.874-1.251,1.168-2.355,1.536-5.118,2.742-7.478,4.312-.905,1.377-.011,2.476,1.6,1.822,2.225-.9,5.722-3.929,7.767-4.459,1.739-.45,2.293.84,1.09,1.962l-10.19,5.856a1.266,1.266,0,0,0,.917,2.106l10.586-6c1.368-.519,2.04.854,1.219,1.878L47.071,30.59a1.2,1.2,0,0,0,.861,1.926c1.359.025,4.691-3.489,5.811-2.071A1.35,1.35,0,0,1,53.724,32c-.149.166-3.461,2.074-3.863,2.25-1.713.747-3.5.69-4.657-.94-.264-.373-.482-1.217-.642-1.323a20.958,20.958,0,0,0-2.314-.329A11.194,11.194,0,0,0,39.662,33c-.708.713-.221,2.255-.342,3.242a2.951,2.951,0,0,1,2.842,2.407c3.137-1.044,5.275,1.57,4.793,4.589a3.483,3.483,0,0,1,4.583,2.293M37.782,38.982V51.21a1.186,1.186,0,0,1-2.3.12c-.467-3.063.3-6.723-.119-9.716-.267-1.919-2.523-.773-2.381.861l-.108,13.43c-2.3,1.858-3.254-3.75-5.783-.547l9.484,9.509c.528.69.3,1.589.337,2.392H46.3c-.713-3.015,1.7-4.015,2.571-6.491a9.055,9.055,0,0,0,.462-1.721c.472-4.042-.264-8.9-.022-13.032a1.214,1.214,0,0,0-2.367.379c-.139,1.062.367,5.134-.353,5.6a1.473,1.473,0,0,1-1.549-.07c-.7-.707.009-8.732-.317-10.272a1.192,1.192,0,0,0-2.366.161c-.382,2.821.312,6.478.005,9.395-.355,1.226-2,1.5-2.188.016-.446-3.45.557-8.164-.042-11.531-.292-1.643-2.11-1.562-2.35-.707M46.3,74.029V69.771l-.328-.328H34.834l-.328.328V73.7l.328.328Z" transform="translate(0 0)" fill="#5d0b80"/>
        </g>
      </g>
    </g>
  </g>
</svg>
