<svg xmlns="http://www.w3.org/2000/svg" xmlns:xlink="http://www.w3.org/1999/xlink" width="96" height="96" viewBox="0 0 96 96">
  <defs>
    <clipPath id="clip-path">
      <rect id="Rectángulo_457330" data-name="Rectángulo 457330" width="57.412" height="50.661" fill="#fff"/>
    </clipPath>
  </defs>
  <g id="Grupo_1206091" data-name="Grupo 1206091" transform="translate(-383.746 -8400.001)">
    <path id="Trazado_997400" data-name="Trazado 997400" d="M48,0A48,48,0,1,1,0,48,48,48,0,0,1,48,0Z" transform="translate(383.746 8400.001)" fill="#5d0b80"/>
    <g id="Grupo_1099776" data-name="Grupo 1099776" transform="translate(401.746 8418)">
      <g id="Grupo_1099618" data-name="Grupo 1099618" transform="translate(-0.035 0)">
        <rect id="Rectángulo_401104" data-name="Rectángulo 401104" width="59.378" height="60.093" transform="translate(0)" fill="none"/>
      </g>
      <g id="Grupo_1206536" data-name="Grupo 1206536" transform="translate(0.965 5)">
        <g id="Grupo_1206535" data-name="Grupo 1206535" clip-path="url(#clip-path)">
          <path id="Trazado_1263583" data-name="Trazado 1263583" d="M35.846,26.113a12.856,12.856,0,0,1,10.185,5.093l2.877-1.7c.423-.827.235-2.447.9-3.07L54.088,23.9c2.132-.667,1.366,1.452,1.088,2.542a10.232,10.232,0,0,1,1.585.279.869.869,0,0,1,.4,1.455l-4.006,2.767c-.936.376-2.36-.086-3.3.165a28.881,28.881,0,0,0-2.69,1.61c-.232.364.561,2.055.7,2.611a12.344,12.344,0,0,1-14.69,15.02c-2.364-.537-3.928-1.79-5.841-3.08L.649,47.185l-.571-.421L0,6.538,6.317.134,34.616,0A1.079,1.079,0,0,1,35.774.66ZM34.03,1.826H7.679l-.248.248V7.2a2.537,2.537,0,0,1-.578.413H1.814V45.442H25.935c-5.163-7.268-.725-17.892,8.1-19.165ZM5.614,5.791V3.313L3.135,5.791ZM52.863,26.937c-1.294.3-2.048.849-1.982,2.313a3.164,3.164,0,0,0,2.973-1.074c-.6-.277-1.1-.444-.991-1.239m-8.425,5.451c.091-.124-.966-1.4-1.149-1.574A10.558,10.558,0,0,0,26.73,33.434C22.1,42.41,31.38,52.292,40.535,47.735c5.014-2.5,7.609-8.763,4.8-13.855L43.1,35.139C45.73,41.8,38.97,48.667,32.375,45.2c-9.952-5.236-.093-20.148,8.845-12.481.214.184.634.83.687.842.7.148,1.775-1.088,2.531-1.17M40.473,34.7c-1.979-3.009-6.877-2.788-9.082-.075-3.746,4.61.95,11.168,6.53,9.339,3-.985,4.926-4.88,3.462-7.769l-1.547.845c.726,3.215-1.874,6.092-5.182,5.052-3.024-.951-3.471-5.2-.945-6.965a4.368,4.368,0,0,1,5.194.4Zm-3.3,1.984c-1.053-1.093-3.091-.161-3.294,1.253a2.162,2.162,0,1,0,4.285.237c-.223-.251-1.833,1.66-2.8.9-1.173-.927,1.017-2.115,1.806-2.388" transform="translate(0 0)" fill="#fff"/>
          <path id="Trazado_1263584" data-name="Trazado 1263584" d="M29.489,127.681a29.327,29.327,0,0,1,4.759-.039,1.253,1.253,0,0,1,1.239,1.239,29.306,29.306,0,0,1-.078,4.886,1.276,1.276,0,0,1-1.161.821,29.549,29.549,0,0,1-4.141,0c-1.2-.082-1.463-.139-1.569-1.4a28.543,28.543,0,0,1,.016-4.457,1.266,1.266,0,0,1,.934-1.048m.873,1.782v3.056l.248.248h2.809l.248-.248v-2.809l-.248-.248Z" transform="translate(-23.757 -106.49)" fill="#fff"/>
          <path id="Trazado_1263585" data-name="Trazado 1263585" d="M29.124,68.724a39.854,39.854,0,0,1,5.258-.035c1.026.12,1.017.673,1.078,1.565.058.847.141,4.5-.34,4.961a1.207,1.207,0,0,1-.738.253,33.1,33.1,0,0,1-5.217-.076c-.473-.153-.6-.54-.654-1a30.37,30.37,0,0,1,0-4.633c.043-.374.211-.918.614-1.038m4.511,1.785h-3.3v3.139h3.3Z" transform="translate(-23.726 -57.283)" fill="#fff"/>
          <path id="Trazado_1263586" data-name="Trazado 1263586" d="M35.2,187.839a2.447,2.447,0,0,1,.377,1.027,24.531,24.531,0,0,1-.115,4.85c-.152.493-.282.627-.791.7a33.676,33.676,0,0,1-4.974,0c-.508-.051-.82-.1-.99-.663a28.015,28.015,0,0,1-.074-4.881c.1-.944.3-1.163,1.231-1.247a32.835,32.835,0,0,1,4.475,0,1.477,1.477,0,0,1,.86.215m-1.445,1.609h-3.3v3.139h3.3Z" transform="translate(-23.845 -156.562)" fill="#fff"/>
          <rect id="Rectángulo_457324" data-name="Rectángulo 457324" width="17.427" height="1.958" transform="translate(12.871 12.543)" fill="#fff"/>
          <rect id="Rectángulo_457325" data-name="Rectángulo 457325" width="12.042" height="1.762" transform="translate(12.871 15.872)" fill="#fff"/>
          <rect id="Rectángulo_457326" data-name="Rectángulo 457326" width="17.427" height="1.958" transform="translate(12.871 21.942)" fill="#fff"/>
          <rect id="Rectángulo_457327" data-name="Rectángulo 457327" width="12.042" height="1.762" transform="translate(12.871 25.271)" fill="#fff"/>
          <rect id="Rectángulo_457328" data-name="Rectángulo 457328" width="10.182" height="1.762" transform="translate(12.87 31.928)" fill="#fff"/>
          <rect id="Rectángulo_457329" data-name="Rectángulo 457329" width="7.93" height="1.762" transform="translate(12.871 35.257)" fill="#fff"/>
        </g>
      </g>
    </g>
  </g>
</svg>
