<svg xmlns="http://www.w3.org/2000/svg" xmlns:xlink="http://www.w3.org/1999/xlink" width="96" height="96" viewBox="0 0 96 96">
  <defs>
    <clipPath id="clip-path">
      <rect id="Rectángulo_457499" data-name="Rectángulo 457499" width="55.575" height="56.5" fill="#fff"/>
    </clipPath>
  </defs>
  <g id="Grupo_1205946" data-name="Grupo 1205946" transform="translate(-383.746 -8400.001)">
    <path id="Trazado_997400" data-name="Trazado 997400" d="M48,0A48,48,0,1,1,0,48,48,48,0,0,1,48,0Z" transform="translate(383.746 8400.001)" fill="#5d0b80"/>
    <g id="Grupo_1099776" data-name="Grupo 1099776" transform="translate(401.746 8418)">
      <g id="Grupo_1099618" data-name="Grupo 1099618" transform="translate(0 0)">
        <rect id="Rectángulo_401104" data-name="Rectángulo 401104" width="59.378" height="60.093" transform="translate(0)" fill="none"/>
      </g>
      <g id="Grupo_1206659" data-name="Grupo 1206659" transform="translate(1.901)">
        <g id="Grupo_1206658" data-name="Grupo 1206658" clip-path="url(#clip-path)">
          <path id="Trazado_1264183" data-name="Trazado 1264183" d="M36.86,53.741a3.449,3.449,0,0,1-2.918,2.752L3.086,56.5C.971,56.312.055,54.546,0,52.581L0,8.712A3.85,3.85,0,0,1,1.519,5.56c1.688-1.182,4.81-.343,6.827-.593.031-.6-.17-1.477.338-1.913.715-.614,4.889-.071,6.053-.249,1.131-3.613,6.5-3.862,7.289-.014.206.207,4.941-.211,5.839.081.81.263.667,1.276.656,1.928,2.055.195,5.547-.581,7.179.908a8.658,8.658,0,0,1,.993,1.509V28.145l2.091-.827c.267-.757-.263-2.169.511-2.658a14.315,14.315,0,0,1,4.693-.058c.939.4.656,1.859.731,2.687.767-.027,2.251,1.181,2.8.942.77-.334,1.148-1.548,2.226-1.221a32.372,32.372,0,0,1,3.258,3.255c.334,1.138-1.3,1.639-1.294,2.464,0,.484,1,1.878,1.012,2.562.866.109,2.249-.291,2.686.733a14.86,14.86,0,0,1,0,4.417c-.442,1.107-1.763.588-2.685.734-.021.731-.923,1.9-1,2.435-.12.835,1.822,1.257,1.4,2.552-.246.763-2.586,2.246-3.1,3.073-1.064.535-1.582-.835-2.341-1.166-.534-.233-2.032,1.023-2.809.936-.054.631.142,2.283-.462,2.664a15,15,0,0,1-4.957-.03c-.744-.47-.314-1.9-.451-2.634l-2.151-.684c-.171,1.68.231,3.8,0,5.419M26.855,4.466H21.1c-.513-.346-.427-.99-.665-1.5a2.152,2.152,0,0,0-3.84,0c-.151.327-.381,1.67-.831,1.67H10.179v4H26.855ZM8.345,6.634H3.092c-.667,0-1.366,1.079-1.257,1.745V52.914a1.717,1.717,0,0,0,.883,1.618l30.73.135c.491.185,1.576-.723,1.576-1.092V49.155c-.361.178-.735.5-1.158.247-.562-.675-3.057-2.583-3.173-3.345-.153-1,1.015-1.409,1.3-2.29l-.982-2.608c-.77-.106-2.31.315-2.7-.548a17.757,17.757,0,0,1,0-4.756c.4-.872,1.934-.427,2.7-.557-.08-.728,1.167-2.318.941-2.813-.245-.536-1.6-1.349-1.3-2.125A36.046,36.046,0,0,1,33.7,27.237c.534-.343.74-.266,1.327-.092V7.718a2.076,2.076,0,0,0-.917-.917H28.522V9.885a1.523,1.523,0,0,1-1.08.587c-5.742-.406-12.2.528-17.854,0-.416-.039-1.243-.244-1.243-.758Zm45.19,32.683V36.983c-2.738.4-2.222-.824-3.05-2.7-.206-.468-.933-1.328-.956-1.73-.04-.712,1.276-1.171,1.312-1.963-.319-.3-1.24-1.574-1.64-1.368-.571.293-.9,1.42-1.88,1.235-.309-.058-1.366-.8-1.844-1.005-1.824-.789-2.741-.219-2.447-2.972l-2.074-.006c-.272,2.787-.457,2.044-2.426,2.928a12.05,12.05,0,0,1-2.258,1.095c-.717-.009-1.108-1.111-1.833-1.308l-1.421,1.544c0,.442,1.009.932,1.141,1.37.25.828-.57,1.618-.882,2.386-.739,1.815-.229,2.815-2.815,2.521l-.2.133-.074,2.179c2.667-.161,2.166.348,2.921,2.165.314.756,1.259,2.024,1.048,2.717-.161.528-1.382,1.247-1.049,1.789.157.255,1.037.748,1.184,1.174l1.982-1.336c.8.333,1.506.853,2.3,1.193.528.226,1.92.35,2.085.916L40.956,50l2.074-.006c-.255-2.773.511-2.187,2.283-2.97,1.691-.747,2.242-1.865,3.888.061.4.213,1.316-1.078,1.654-1.367.067-.384-1.311-1.1-1.31-1.811a13.6,13.6,0,0,1,1.068-2.089c.758-1.729.244-2.726,2.921-2.5" transform="translate(0 0.001)" fill="#fff"/>
          <path id="Trazado_1264184" data-name="Trazado 1264184" d="M25.475,127.464c1.125-1.132,1.932,1.551,2.366,1.454.864-.572,2.132-2.5,2.973-2.87a.883.883,0,0,1,1.132,1.3c-.88.6-3.513,3.927-4.3,4.05-1,.157-2.9-3.2-2.173-3.935" transform="translate(-21.091 -104.948)" fill="#fff"/>
          <path id="Trazado_1264185" data-name="Trazado 1264185" d="M27.415,81.17,30.8,78.122c.391-.225.781.085,1.035.379l-.077.928c-.892.621-3.593,4.036-4.442,4.079-.408.021-.661-.3-.9-.588-.439-.535-1.5-2.336-1.3-2.968.455-1.468,2.275.266,2.306,1.217" transform="translate(-20.902 -65.031)" fill="#fff"/>
          <path id="Trazado_1264186" data-name="Trazado 1264186" d="M30.9,221.8c.956-.2,1.42.589.88,1.389a46.6,46.6,0,0,1-3.677,3.659,1.038,1.038,0,0,1-1.257.1c-.475-.352-1.922-2.981-1.419-3.614.87-1.1,1.947.778,2.266,1.431.222,0,2.459-2.811,3.206-2.969" transform="translate(-21.102 -184.79)" fill="#fff"/>
          <path id="Trazado_1264187" data-name="Trazado 1264187" d="M25.381,175.234c1.471-.81,1.44.935,2.366,1.454.4-.09,2.349-2.64,2.933-2.91a.9.9,0,0,1,.832,0c.7.648.51.877,0,1.507a34.884,34.884,0,0,1-3.5,3.5c-.362.265-.631.459-1.062.228-.551-.3-2.32-3.07-1.574-3.779" transform="translate(-20.998 -144.713)" fill="#fff"/>
          <path id="Trazado_1264188" data-name="Trazado 1264188" d="M26.519,274.231c-.115-.1-1.463-2.4-1.509-2.576a.971.971,0,0,1,.624-1.309c.945-.255,1.478,1.693,1.91,1.594.7-.523,2.606-2.878,3.372-2.961a.906.906,0,0,1,.856.857c-.067.687-3.637,3.625-4.208,4.455a.833.833,0,0,1-1.045-.061" transform="translate(-20.795 -224.125)" fill="#fff"/>
          <path id="Trazado_1264189" data-name="Trazado 1264189" d="M216.676,188.694c9.073-1.156,10.479,12.441,1.774,13.446-9.145,1.056-10.408-12.346-1.774-13.446m.337,1.672c-6.528.7-5.623,10.886,1.441,9.944,5.853-.781,5.337-10.665-1.441-9.944" transform="translate(-175.688 -157.171)" fill="#fff"/>
          <path id="Trazado_1264190" data-name="Trazado 1264190" d="M72.027,36.454c-.653-.19-.69-1.668,0-1.668H84.2c.564.28.5,1.668,0,1.668Z" transform="translate(-59.597 -28.985)" fill="#fff"/>
          <rect id="Rectángulo_457494" data-name="Rectángulo 457494" width="19.565" height="1.927" transform="translate(12.755 15.296)" fill="#fff"/>
          <rect id="Rectángulo_457495" data-name="Rectángulo 457495" width="19.565" height="1.927" transform="translate(12.755 22.189)" fill="#fff"/>
          <rect id="Rectángulo_457496" data-name="Rectángulo 457496" width="12.303" height="1.779" transform="translate(12.755 31.156)" fill="#fff"/>
          <rect id="Rectángulo_457497" data-name="Rectángulo 457497" width="12.303" height="1.779" transform="translate(12.755 38.419)" fill="#fff"/>
          <rect id="Rectángulo_457498" data-name="Rectángulo 457498" width="12.303" height="1.779" transform="translate(12.755 46.868)" fill="#fff"/>
        </g>
      </g>
    </g>
  </g>
</svg>
