<svg xmlns="http://www.w3.org/2000/svg" xmlns:xlink="http://www.w3.org/1999/xlink" width="127" height="128" viewBox="0 0 127 128">
  <defs>
    <clipPath id="clip-path">
      <rect id="Rect치ngulo_457584" data-name="Rect치ngulo 457584" width="63.066" height="70.581" fill="#5d0b80"/>
    </clipPath>
  </defs>
  <g id="Grupo_1205894" data-name="Grupo 1205894" transform="translate(-0.082)">
    <ellipse id="Elipse_13609" data-name="Elipse 13609" cx="63.5" cy="64" rx="63.5" ry="64" transform="translate(0.082)" fill="#fff"/>
    <g id="Grupo_1099776" data-name="Grupo 1099776" transform="translate(23.859 24)">
      <g id="Grupo_1099618" data-name="Grupo 1099618" transform="translate(0 0)">
        <rect id="Rect치ngulo_401104" data-name="Rect치ngulo 401104" width="78.706" height="80.124" transform="translate(0)" fill="none"/>
      </g>
      <g id="Grupo_1206702" data-name="Grupo 1206702" transform="translate(7.82 4.771)">
        <g id="Grupo_1206701" data-name="Grupo 1206701" clip-path="url(#clip-path)">
          <path id="Trazado_1264426" data-name="Trazado 1264426" d="M47.3,92.432H58.684a11.916,11.916,0,0,1,1.82.8,5.448,5.448,0,0,1-.9,9.693c.145,1.048.779,2.034.8,3.117a5.531,5.531,0,0,1-3.632,5.13c1.609,3.108.749,7.179-2.82,8.26,2.073,3.724.234,8.14-4.133,8.658-10.437-.19-20.954,1-30.992-2.429a4.492,4.492,0,0,1-3.459,2.429,100.123,100.123,0,0,1-13.907.012,1.538,1.538,0,0,1-1.193-.419L0,93.18l1.055-.758c4.624.385,9.983-.48,14.516.01a4.209,4.209,0,0,1,3.24,2.426c6.608-1.733,17.106-5.575,19.12-12.9.632-2.3.111-4.837,1.105-6.752a5.489,5.489,0,0,1,9.44-.364c1.963,2.993.671,11.371-.225,14.817-.244.941-.623,1.866-.95,2.777M51.262,124.6a2.778,2.778,0,0,0-1.662-4.749c-1.395-.19-3.736.281-4.93-.107a1.363,1.363,0,0,1-.173-2.412c1.608-.964,6.656.208,8.657-.409,1.713-.528,2.195-3.348.9-4.549-1.715-1.592-4.756-.3-6.611-.843a1.372,1.372,0,0,1,.164-2.571c2.606-.485,10.117,1.569,9.976-2.92-.128-4.064-5.4-2.141-7.476-2.815a1.35,1.35,0,0,1-.27-2.308c1.04-.658,6.445.085,8.3-.36a2.777,2.777,0,0,0-.484-5.485l-18.613-.123a1.469,1.469,0,0,1-.566-1.766c.43-1.454,4.559-.37,5.8-.846.661-.4,1.794-5.326,1.954-6.306.371-2.275.827-6.854.244-8.991-.775-2.843-5.066-2.557-5.424.789-.224,2.09.13,3.406-.649,5.6-2.9,8.136-13.581,12.2-21.221,14.237l-.091,24.895c0,.286.118.347.343.463a38.032,38.032,0,0,0,3.848.987c8.739,2.126,17.606.993,26.54,1.273a2.732,2.732,0,0,0,1.437-.679M15.168,95.052H2.879l-.3.3v29.917H15.571c.6,0,.875-1.813.914-2.31.644-8.3-.5-17.416,0-25.8-.027-.87-.36-1.939-1.318-2.107" transform="translate(0 -57.756)" fill="#5d0b80"/>
          <path id="Trazado_1264427" data-name="Trazado 1264427" d="M211.263.06a1.534,1.534,0,0,1,1.874,1.472,40.719,40.719,0,0,1-.047,6.408,1.41,1.41,0,0,1-2.788-.148,47.323,47.323,0,0,1,.015-6.655A1.989,1.989,0,0,1,211.263.06" transform="translate(-167.845 0)" fill="#5d0b80"/>
          <path id="Trazado_1264428" data-name="Trazado 1264428" d="M254.515,28.1c1.469-.366,2.219,1.077,1.343,2.363a48.177,48.177,0,0,1-4.04,4.015c-1.511.791-2.616-.616-1.863-2.064a31.65,31.65,0,0,1,4.559-4.315" transform="translate(-199.405 -22.394)" fill="#5d0b80"/>
          <path id="Trazado_1264429" data-name="Trazado 1264429" d="M129.871,85.9a46.493,46.493,0,0,1,6.362,0c1.46.335,1.282,2.5-.58,2.759a29.718,29.718,0,0,1-5.374-.028,1.414,1.414,0,0,1-.408-2.732" transform="translate(-102.976 -68.51)" fill="#5d0b80"/>
          <path id="Trazado_1264430" data-name="Trazado 1264430" d="M266.5,85.844a38.006,38.006,0,0,1,6.159,0,1.334,1.334,0,0,1,.328,2.458c-.764.457-5.271.461-6.242.232-1.565-.368-1.688-2.373-.245-2.691" transform="translate(-212.004 -68.45)" fill="#5d0b80"/>
          <path id="Trazado_1264431" data-name="Trazado 1264431" d="M154.151,28.179a1.3,1.3,0,0,1,1.16.373c.4.28,4.1,3.961,4.226,4.233a1.391,1.391,0,0,1-2.1,1.7,57.882,57.882,0,0,1-4.213-4.247,1.39,1.39,0,0,1,.929-2.058" transform="translate(-122.214 -22.481)" fill="#5d0b80"/>
          <path id="Trazado_1264432" data-name="Trazado 1264432" d="M53.944,240.043c1.056-.318,1.759.479,1.876,1.466.4,3.34-.295,7.447-.016,10.872-.45,1.912-2.584,1.753-2.814-.185a73.086,73.086,0,0,1,0-10.687,1.8,1.8,0,0,1,.954-1.466" transform="translate(-42.159 -191.626)" fill="#5d0b80"/>
          <path id="Trazado_1264433" data-name="Trazado 1264433" d="M54.32,215.175a1.419,1.419,0,0,1,1.956-2.056c1.432,1.235-.76,3.186-1.956,2.056" transform="translate(-43.029 -169.873)" fill="#5d0b80"/>
        </g>
      </g>
    </g>
  </g>
</svg>
