<svg xmlns="http://www.w3.org/2000/svg" xmlns:xlink="http://www.w3.org/1999/xlink" width="96" height="96" viewBox="0 0 96 96">
  <defs>
    <clipPath id="clip-path">
      <rect id="Rectángulo_457476" data-name="Rectángulo 457476" width="55.289" height="55.302" fill="#fff"/>
    </clipPath>
  </defs>
  <g id="Grupo_1205940" data-name="Grupo 1205940" transform="translate(-383.746 -8400.001)">
    <path id="Trazado_997400" data-name="Trazado 997400" d="M48,0A48,48,0,1,1,0,48,48,48,0,0,1,48,0Z" transform="translate(383.746 8400.001)" fill="#5d0b80"/>
    <g id="Grupo_1099776" data-name="Grupo 1099776" transform="translate(401.746 8418)">
      <g id="Grupo_1099618" data-name="Grupo 1099618" transform="translate(-0.035 -0.137)">
        <rect id="Rectángulo_401104" data-name="Rectángulo 401104" width="59.378" height="60.093" transform="translate(0)" fill="none"/>
      </g>
      <g id="Grupo_1206649" data-name="Grupo 1206649" transform="translate(1.965 2.863)">
        <g id="Grupo_1206648" data-name="Grupo 1206648" clip-path="url(#clip-path)">
          <path id="Trazado_1264139" data-name="Trazado 1264139" d="M106.607,23.061c.231-1.627,1.77-2.868,3.171-3.482,1-.439,2.734-.8,3.6-1.313.993-.588-.078-1.221-.4-1.727-1.176-1.822-.9-1.023-2.323-2.112a3.565,3.565,0,0,1-1.353-2.607c-.5-5.831,1.3-12.043,8.33-11.813,6.627.217,8.158,6.291,7.68,11.813a3.565,3.565,0,0,1-1.353,2.607c-1.421,1.088-1.148.289-2.323,2.112-.346.536-1.272.962-.513,1.677,2.049.962,5.076,1.267,6.274,3.389a5.776,5.776,0,0,1,.6,1.615v5.306H106.607c.172-1.694-.232-3.827,0-5.465M123.555,8.409A6.406,6.406,0,0,0,120.691,2.8a6.274,6.274,0,0,0-9.654,5.051c-.015.25-.114.646.243.561.989-.5,2.159-.29,3.219-.585a6.465,6.465,0,0,0,2.8-1.949c1.6,2.124,3.886,2.054,6.256,2.531m-2.691,1.267A6.793,6.793,0,0,1,117.3,8.411a6.793,6.793,0,0,1-3.565,1.265c.185,2.243-.683,4.77,1.267,6.417a3.58,3.58,0,0,0,5.845-2.236c.158-1.32-.081-2.838.019-4.181m-8.871.476c-1.194.337-1.3,2.565,0,2.851ZM122.605,13c1.3-.287,1.194-2.514,0-2.851Zm-3.644,5.545a12.693,12.693,0,0,1-1.987.164c-.183,0-1.51-.368-1.336.07l1.661,2.613Zm-3.015,4.427-1.653-3.019-1.127.327,1.05,3.328Zm4.439.64,1.09-3.251-1.011-.508a13.076,13.076,0,0,0-1.828,3.038Zm-12.036-.078c-.138.981.1,2.232,0,3.247h17.9V23.536c0-1.258-2.009-2.537-3.167-2.614L121.5,26.15l-4.2-1.89-4.114,1.893-1.669-5.231c-1.353.242-2.959,1.143-3.166,2.614" transform="translate(-89.658 -0.001)" fill="#fff"/>
          <path id="Trazado_1264140" data-name="Trazado 1264140" d="M213.6,199.6l2.542.739-.015,6.7-2.528.483,1.2,2.536-4.677,4.677-2.536-1.2-.483,2.528-6.7.015-.739-2.542-2.536,1.193-4.57-4.631,1.242-2.344-2.669-.97v-6.532l2.672-.656-1.276-2.591,4.556-4.515,2.579,1.246.739-2.7,6.449.028.97,2.669c.588-.215,1.909-1.436,2.451-1.189l4.525,4.517Zm-7.935-6.636-3.844.006-.771,2.16c-.7.031-1.3.731-1.918.5-.531-.2-1.286-1.118-1.842-.866a28.026,28.026,0,0,0-2.519,2.573c-.1.565,1.03,1.611,1.033,2.025a13.9,13.9,0,0,1-.659,1.5c-.442.561-1.949.4-2.116.894l-.006,3.844c1.361.256,2.335.313,2.648,1.876.195.972-1.093,1.922-.851,2.412l2.7,2.66c.246.018,1.291-.974,1.782-1.045a5.924,5.924,0,0,1,1.689.623c.507.436.375,2.028.828,2.182l3.845,0,.527-2.165c.574-.1,1.379-.773,1.9-.642s1.268,1.117,1.858.848a27.94,27.94,0,0,0,2.519-2.573c.134-.521-.793-1.362-.931-1.877l.621-1.71,2.241-.674-.08-3.873-1.983-.552a6.773,6.773,0,0,1-.771-1.616c-.077-.621,1.115-1.872,1.013-2.1l-2.726-2.667c-.839.17-1.4,1.079-2.315.9-1.523-.3-1.615-1.311-1.876-2.648" transform="translate(-160.854 -160.777)" fill="#fff"/>
          <path id="Trazado_1264141" data-name="Trazado 1264141" d="M17.9,226.21H0V203.083H17.9ZM16,204.825H1.742v19.4l.238.238H16Z" transform="translate(0 -170.914)" fill="#fff"/>
          <path id="Trazado_1264142" data-name="Trazado 1264142" d="M57.494,58.027H53.614c-.227,0-.871.466-.871.713V74.976H51V58.265c0-.678,1.483-1.98,2.138-1.98h4.514l-1.889-2c-.035-.2.961-1.277,1.3-1.15l4.068,4.022L56.94,61.351l-1.177-1.322c.065-.371,1.724-1.394,1.731-2" transform="translate(-42.922 -44.708)" fill="#fff"/>
          <path id="Trazado_1264143" data-name="Trazado 1264143" d="M243.017,86.63c.21.237,1.879-1.73,2.138-1.9l1.177,1.322-4.049,4.05-4.165-4.05,1.177-1.322,1.98,1.9V75.3c0-.247-.644-.713-.871-.713h-4.514c.07-.412-.212-1.566.26-1.72,1.692.15,4.511-.5,5.909.541a5.406,5.406,0,0,1,.959,1.258Z" transform="translate(-198.506 -61.273)" fill="#fff"/>
          <path id="Trazado_1264144" data-name="Trazado 1264144" d="M119.5,249.167l1.889,2c.035.2-.962,1.277-1.3,1.15l-4.068-4.022,4.195-4.195,1.148,1.183c.019.14-1.569,1.85-1.861,1.826-.043.061.209.314.238.314h6.415v1.742Z" transform="translate(-97.641 -205.435)" fill="#fff"/>
          <path id="Trazado_1264145" data-name="Trazado 1264145" d="M232.009,225.169c9.526-.892,10.474,13.409,1.535,14.206-9.719.867-10.733-13.345-1.535-14.206m.615,1.756c-7.1.147-6.768,10.813.133,10.722,7.1-.093,6.863-10.867-.133-10.722" transform="translate(-189.907 -189.469)" fill="#fff"/>
          <path id="Trazado_1264146" data-name="Trazado 1264146" d="M32.644,225.083v1.742H21.873c.071-.566-.213-1.325.238-1.742Z" transform="translate(-18.388 -189.43)" fill="#fff"/>
          <path id="Trazado_1264147" data-name="Trazado 1264147" d="M32.644,270.083v1.742H21.873c.071-.566-.213-1.325.238-1.742Z" transform="translate(-18.388 -227.302)" fill="#fff"/>
          <path id="Trazado_1264148" data-name="Trazado 1264148" d="M32.644,293.083v1.742H22.11c-.451-.418-.166-1.176-.238-1.742Z" transform="translate(-18.388 -246.658)" fill="#fff"/>
          <path id="Trazado_1264149" data-name="Trazado 1264149" d="M22.138,315.083H28.95l.212.263a2.006,2.006,0,0,1,.033.442c.034.393.078.952-.246,1.2H22.138l-.212-.263a2.006,2.006,0,0,1-.033-.442c-.02-.232-.042-1.2.246-1.2" transform="translate(-18.416 -265.174)" fill="#fff"/>
          <rect id="Rectángulo_457474" data-name="Rectángulo 457474" width="7.128" height="1.742" transform="translate(7.128 39.297)" fill="#fff"/>
          <rect id="Rectángulo_457475" data-name="Rectángulo 457475" width="1.744" height="1.902" transform="translate(12.513 49.909)" fill="#fff"/>
          <path id="Trazado_1264150" data-name="Trazado 1264150" d="M23.9,248.077v1.744c-.412-.066-1.619.158-1.833-.149L22,248.077Z" transform="translate(-18.511 -208.781)" fill="#fff"/>
          <path id="Trazado_1264151" data-name="Trazado 1264151" d="M250.728,247.94c4.723-.814,6.034,5.5,2.1,6.852-4.954,1.707-6.612-6.075-2.1-6.852m.478,1.738c-2.222.362-1.656,4.105,1.03,3.411,1.748-.452,1.389-3.8-1.03-3.411" transform="translate(-208.793 -208.605)" fill="#fff"/>
        </g>
      </g>
    </g>
  </g>
</svg>
