<svg xmlns="http://www.w3.org/2000/svg" xmlns:xlink="http://www.w3.org/1999/xlink" width="127" height="128" viewBox="0 0 127 128">
  <defs>
    <clipPath id="clip-path">
      <rect id="Rect치ngulo_457585" data-name="Rect치ngulo 457585" width="74.069" height="76.229" fill="#5d0b80"/>
    </clipPath>
  </defs>
  <g id="Grupo_1205895" data-name="Grupo 1205895" transform="translate(-0.116)">
    <ellipse id="Elipse_13609" data-name="Elipse 13609" cx="63.5" cy="64" rx="63.5" ry="64" transform="translate(0.116)" fill="#fff"/>
    <g id="Grupo_1099776" data-name="Grupo 1099776" transform="translate(23.859 24)">
      <g id="Grupo_1099618" data-name="Grupo 1099618" transform="translate(0.256 0.081)">
        <rect id="Rect치ngulo_401104" data-name="Rect치ngulo 401104" width="78.706" height="80.124" transform="translate(0)" fill="none"/>
      </g>
      <g id="Grupo_1206704" data-name="Grupo 1206704" transform="translate(2.256 2.081)">
        <g id="Grupo_1206703" data-name="Grupo 1206703" clip-path="url(#clip-path)">
          <path id="Trazado_1264434" data-name="Trazado 1264434" d="M190.494,175.719H175.86v11.467a1.2,1.2,0,0,1-2.356-.047c-.351-1.595-.223-8.777-.056-10.665.129-1.461.961-1.909,1.1-2.616.366-1.907-.171-5.09,0-7.211a9.99,9.99,0,0,1,3.617-6.867c1.777-1.663,7.771-6.833,9.648-7.825s4.32-.725,5.312,1.266l.318,0,10.276-8.947a3.379,3.379,0,0,1,5.433,3.9c-3.587,4.945-6.557,10.728-10.171,15.6a11.872,11.872,0,0,1-3.087,3.029c-1.406.871-3.135,1.223-4.491,2.061a34.726,34.726,0,0,0-.025,4.552c.116.611.846.9,1.134,1.487.566,1.156.589,10.16.4,11.846-.257,2.229-2.408,1.388-2.408.432Zm-1.529-2.4v-3.6c0-.135-1.972-1.033-.647-2.178.823-.711,4.343-1.535,5.646-2.215a10.881,10.881,0,0,0,2.955-2.506l10.226-15.552c.411-2.436-1.178-1.875-2.556-.8-1.641,1.274-10.069,8.344-10.787,9.526a18.816,18.816,0,0,1-.906,1.933,42.189,42.189,0,0,1-3.951,3.916c-.863.519-1.429.122-1.838-.723-.312-1.383,4.493-4.153,4.492-5.813a1.718,1.718,0,0,0-2.427-1.54c-2.733,2.636-12.437,8.572-12.437,12.461v7.1Z" transform="translate(-135.434 -111.962)" fill="#5d0b80"/>
          <path id="Trazado_1264435" data-name="Trazado 1264435" d="M19.021,187.182c-.285,1.347-2.189,1.47-2.408-.432-.194-1.686-.17-10.69.4-11.846.288-.588,1.017-.876,1.134-1.487a34.687,34.687,0,0,0-.025-4.552c-1.4-.861-3.192-1.222-4.63-2.14a12.054,12.054,0,0,1-2.856-2.823c-3.793-5.017-7.1-11.248-10.56-16.522A3.382,3.382,0,0,1,5.8,144.268l10.276,8.947.318,0c.259-1.137,2.19-1.861,3.206-1.882,2.734-.057,5.845,4.149,8.158,5.483a1.168,1.168,0,0,1-1.1,1.992L20.63,153.9a1.7,1.7,0,0,0-2.535,2.1c.541,1.244,4.593,3.859,4.315,5.1l-.96.96a.944.944,0,0,1-.574-.09,34.9,34.9,0,0,1-4.152-3.949,23.952,23.952,0,0,1-1.1-2.179,21.629,21.629,0,0,0-2.5-2.306c-2.981-2.694-6.191-5.165-9.185-7.85-1.1-.507-2.033.261-1.629,1.4L12.6,162.81a10.881,10.881,0,0,0,2.955,2.506c1.3.68,4.824,1.5,5.646,2.215,1.324,1.145-.647,2.042-.647,2.178v3.6H32.782v-7.1c0-1.069-1.514-3.263-2.19-4.154-.3-.4-1.667-1.224-.56-2.091,1.75-1.372,4.2,3.319,4.559,4.655.849,3.122-.154,6.454.38,9.23.123.639.954,1.148,1.088,2.406a75.272,75.272,0,0,1-.047,10.875,1.2,1.2,0,0,1-2.356.047V175.715H19.021Z" transform="translate(0 -111.958)" fill="#5d0b80"/>
          <path id="Trazado_1264436" data-name="Trazado 1264436" d="M7.528,5.531c8.236-8.907,23.167-6.7,28.629,4.055,6.568,12.928-4.453,27.933-18.727,25.5C3.61,32.726-2.026,15.863,7.528,5.531m11.653-3.3A15.446,15.446,0,1,0,32.638,27.044c8.1-10.672-.183-25.86-13.457-24.815" transform="translate(-2.169 0)" fill="#5d0b80"/>
          <path id="Trazado_1264437" data-name="Trazado 1264437" d="M204.9,5.168a18.057,18.057,0,0,1,4.556,17.4c-.273,1.022-2.333,6.869-3.989,5.186-.9-.913.784-2.993,1.205-4.038,6.577-16.307-14.479-29.1-25.833-16.223s3.985,32.128,19.118,23.7c.881-.49,4.343-3.508,4.167-.66-.051.822-2.033,2.031-2.794,2.47-14.13,8.138-30.581-5.322-25.684-20.878C179.522-.181,195.773-3.96,204.9,5.168" transform="translate(-136.593 -0.088)" fill="#5d0b80"/>
          <path id="Trazado_1264438" data-name="Trazado 1264438" d="M227.581,46.3a12.768,12.768,0,0,1-.961.892c1.079,1.561,5.38,4.008,4.157,6.128-.1.166-1.7,1.9-1.972,2.177-.893.9-1.563,1.657-2.927.949-.683-.354-4.076-4.117-4.4-4.117-.951.845-1.773,1.9-2.727,2.729-1.028.894-2.08,2.192-3.488,1.3a36.271,36.271,0,0,1-3.241-3.31c-.63-2.077,3.217-4.308,4.32-5.852-1.1-1.628-4.983-3.376-4.318-5.632a15.382,15.382,0,0,1,3.436-3.553c2.323-.748,4.324,3.055,6.019,4.266,1.7-1.215,3.917-5.354,6.307-4.118a28.806,28.806,0,0,1,2.857,2.821C232,43.13,228.959,45,227.581,46.3M219.1,43.027c-.98-.878-1.96-1.741-2.857-2.708l-1.853,1.853,4.756,5.057c.082.875-4.077,4.275-4.756,5.208l1.853,1.853c1.077-.791,4.19-4.821,5.375-4.7,1.091.112,4.756,4.7,5.109,4.7l1.857-2.067c-.08-.291-3.891-3.3-4.379-4.142a1.422,1.422,0,0,1-.209-1.094c.147-.847,4.585-4.481,4.585-4.815l-1.853-1.853c-.342,0-3.892,4.419-5.036,4.591-.847.127-1.934-1.294-2.591-1.882" transform="translate(-165.659 -29.633)" fill="#5d0b80"/>
          <path id="Trazado_1264439" data-name="Trazado 1264439" d="M57.1,53.188c-.7.725-3.113,3.477-3.828,3.706-2.09.672-2.78-1.513-3.367-1.414l-1.2,1.444c-.043.281,3.069,3.523,3.813,3.567,1.212.065,2.669-3.337,4.337-3.063,2.552.42-1.748,4.483-2.717,4.917a3.482,3.482,0,0,1-3.213-.066,31.159,31.159,0,0,1-3.019-2.66c-1.046-1.016-2.442-1.97-1.6-3.582A28.764,28.764,0,0,1,49,53.278c1.444-.961,2.453.387,3.5,1.307l7.2-7.007c1.536-.584,5.373,2.943,4.358,4.809-.118.217-3.253,3.4-3.466,3.523a1.464,1.464,0,0,1-1.434.1c-1.675-1.007,2.117-3.572,2.607-4.4.047-.266-1.28-1.744-1.73-1.512A27.112,27.112,0,0,0,57.1,53.188" transform="translate(-35.988 -37.137)" fill="#5d0b80"/>
        </g>
      </g>
    </g>
  </g>
</svg>
