<svg xmlns="http://www.w3.org/2000/svg" xmlns:xlink="http://www.w3.org/1999/xlink" width="127" height="128" viewBox="0 0 127 128">
  <defs>
    <clipPath id="clip-path">
      <rect id="Rect치ngulo_457656" data-name="Rect치ngulo 457656" width="72.96" height="72.98" fill="#5d0b80"/>
    </clipPath>
  </defs>
  <g id="Grupo_1205617" data-name="Grupo 1205617" transform="translate(-0.116)">
    <ellipse id="Elipse_13609" data-name="Elipse 13609" cx="63.5" cy="64" rx="63.5" ry="64" transform="translate(0.116)" fill="#fff"/>
    <g id="Grupo_1099776" data-name="Grupo 1099776" transform="translate(23.859 24)">
      <g id="Grupo_1099618" data-name="Grupo 1099618" transform="translate(0.257 -0.498)">
        <rect id="Rect치ngulo_401104" data-name="Rect치ngulo 401104" width="78.706" height="80.124" transform="translate(0)" fill="none"/>
      </g>
      <g id="Grupo_1206776" data-name="Grupo 1206776" transform="translate(3.257 3.502)">
        <g id="Grupo_1206775" data-name="Grupo 1206775" clip-path="url(#clip-path)">
          <path id="Trazado_1264638" data-name="Trazado 1264638" d="M49.774,35.219c.377-.143.149-.957,1.746-.814,3.343.3,7.47,3.677,9.179,6.458,2.956,4.812,2.781,10.043.157,14.921-.281.522-1.377,1.773-1.264,2.214a2.9,2.9,0,0,0,.962.95c.545.148,1.1-.3,1.637-.368a4.566,4.566,0,0,1,3.077.641A79.171,79.171,0,0,1,72.249,66.2a4.408,4.408,0,0,1-6.322,5.905,70.136,70.136,0,0,1-6.565-6.565,4.477,4.477,0,0,1-.817-3.318c.069-.542.516-1.092.368-1.637-.071-.262-.814-.988-1.112-.987-.237,0-3.328,2.012-4.132,2.336a19.539,19.539,0,0,1-2.207.606c-.275.316.189,7.106-.069,8.372a2.88,2.88,0,0,1-1.98,1.98L2.977,72.95A2.743,2.743,0,0,1,.163,70.137c.416-6.707-.524-14.015,0-20.649a10.3,10.3,0,0,1,5-7.919l14.193-5.643a22.587,22.587,0,0,0-.056-2.434c-.141-.479-1.031-.862-1.414-1.3a11.265,11.265,0,0,1-2.8-7.2c-.8-.321-1.6-.167-2.46-.458a4.638,4.638,0,0,1-2.776-5.376c.212-1.035,1.3-1.934,1.366-2.612.044-.467-.209-.936-.217-1.432C10.909,9.235,10.214.924,18.2.209a80.375,80.375,0,0,1,11.853.02,4.433,4.433,0,0,1,3.333,2.086c.3.545.575,1.978.959,2.167.411.2,1.324.09,2,.3,4.19,1.281,2.405,7.886,2.835,11.128,4.71,2.549,2.938,9.386-2.514,8.914A12,12,0,0,1,33.625,32.3c-.3.345-1.255.979-1.323,1.178a13.571,13.571,0,0,0-.043,2.434c.072.3,5.437,2.241,5.745,2.239.425,0,3.069-2.135,3.917-2.558,1.14-.569,4.629-2.178,5.145-.378a2.712,2.712,0,0,1-.232.7c-.5.688-2.7,1.019-3.725,1.492-11.052,5.122-8,22.348,4.052,23.244,14.352,1.067,18.509-18.054,6.3-23.391-1.381-.6-3.384-.412-3.687-2.044M36.853,16.879c.241-.372,0-7.7,0-8.858,0-1.348-3.128-1.235-4.062-1.982-1.748-1.4-.083-3.444-3.746-3.757-2.338-.2-9.975-.274-11.945.366a5.86,5.86,0,0,0-3.706,4.006,51.386,51.386,0,0,0-.1,8.671,1.657,1.657,0,0,0,1.586,1.749,81.305,81.305,0,0,0,12.072.011,6.526,6.526,0,0,0,3.649-1.77c.523-.565.964-1.948,1.943-1.925,1.587.037.882,2.339,2.329,3.281.428.278,1.716.618,1.981.208M28,19.171H17.262v6.773a10.745,10.745,0,0,0,2,4.463c4.709,5.649,14.461,2.756,15.1-4.664a52.5,52.5,0,0,0,0-6.843c-.032-.133-.991-.635-1.259-.872-.345-.306-.807-1.215-1.128-1.143A8.366,8.366,0,0,1,28,19.171m8.441,3.543c2.123.435,4.049-1.354,3.177-3.49a3.8,3.8,0,0,0-1.017-1.08c-.18-.031-.921.622-1.246.8a6.477,6.477,0,0,1-.913.229ZM15.178,19.171c-1.378.423-2.384-1.554-3.1.126a2.586,2.586,0,0,0,3.1,3.417Zm15,15.631a14.414,14.414,0,0,1-8.543,0c.3.7-.465,2.125-.375,2.581.1.488,3.313,2.185,3.711,2.937,1.453.568,1.661-.236,2.515-.812.431-.291,2.78-1.679,2.867-1.825.156-.262-.412-2.314-.175-2.881M17.47,39.179a1.852,1.852,0,0,0-.795.143c-2.262.657-10.582,3.868-12.03,5.268a8.924,8.924,0,0,0-2.4,5.73c-.442,6.351.358,13.2,0,19.611a1.151,1.151,0,0,0,.531.927H8.092V49.287c0-1.432,2.293-1.4,2.293-.208V70.858h6.773a2.091,2.091,0,0,0,.313-.313Zm2.084,0v3.856c0,.169,1.452,1.357,1.852,1.122.14-.082,1.4-2.412,1.688-2.774-.386-.3-3.333-2.43-3.539-2.2m12.5,0c-1.33.376-2.3,1.6-3.548,2.193a21.028,21.028,0,0,0,1.879,2.721,5.263,5.263,0,0,0,1.669-.746Zm2.293,0v5.836l.8-2.017,1.5-2.876ZM24.9,42.756A4.32,4.32,0,0,0,23.726,44.5c.015.531,1.072,1.259,1.572,1.338,1.005.159,2.88-.508,2.509-1.66a2.194,2.194,0,0,0-2.9-1.421m-2.014,28.1c-.346-1.6-1.791-2.862-1.686-4.69L22.68,46.785c-.172-.9-1.46-.392-2.183-.525-.4-.074-.528-.468-.943-.412v25.01ZM33.1,59.395c-.338-.058-1.042-.647-1.042-.938V45.848c-.763.847-2.927-.113-3.126.937l1.474,19.386c.047,1.767-1.2,3.084-1.683,4.687h3.335c.3-1.67-.492-7.048.23-8.212A1.612,1.612,0,0,1,33.1,62.1c.046.067,1.25.254,1.25.938v7.815h6.878v-9.9a15.287,15.287,0,0,1-5.741-6.139l-1.137-2.927v6.565c0,.684-1.2.871-1.25.938M26.847,47.933a2.9,2.9,0,0,1-2.081,0L23.324,66.193a11.465,11.465,0,0,0,2.4,4.654c.752.129,2.378-3.725,2.567-4.485ZM62.434,60.689a2.477,2.477,0,0,0-1.778,1.778A2.507,2.507,0,0,0,61.45,64.7a51.274,51.274,0,0,0,5.8,5.662C69.721,71.8,71.813,69.3,70.2,67a61.778,61.778,0,0,0-5.734-5.729,2.367,2.367,0,0,0-2.032-.582M43.522,62.1v8.753h5.315c.264,0,.494-.652.531-.927.283-2.1-.232-4.821-.009-6.993a19.906,19.906,0,0,1-5.837-.833" transform="translate(0 0)" fill="#5d0b80"/>
          <path id="Trazado_1264639" data-name="Trazado 1264639" d="M203.081,207.37c.6-.511,1.054-1.24,1.955-1.479a3.594,3.594,0,0,1,3.867,5.743,56.364,56.364,0,0,1-5.632,5.622,3.569,3.569,0,0,1-4.378.21,52.624,52.624,0,0,1-4.778-4.809,3.606,3.606,0,0,1,3.478-5.565c1.418.227,2.218,1.342,3.206,2.229a18.826,18.826,0,0,0,2.282-1.952m3.972,3.145c1.362-1.613-.123-3.468-1.907-2.219-.867.607-3.152,3.522-3.8,3.715-1.358.407-2.475-2.334-3.75-2.629-1.423-.329-2.353.662-1.779,1.987a49.831,49.831,0,0,0,4.115,4.221c1.353.956,2.083-.2,3.062-1.057a54.068,54.068,0,0,0,4.055-4.018" transform="translate(-153.184 -162.864)" fill="#5d0b80"/>
        </g>
      </g>
    </g>
  </g>
</svg>
