<svg xmlns="http://www.w3.org/2000/svg" xmlns:xlink="http://www.w3.org/1999/xlink" width="187.711" height="107.333" viewBox="0 0 187.711 107.333">
  <defs>
    <clipPath id="clip-path">
      <rect id="Rect치ngulo_457414" data-name="Rect치ngulo 457414" width="98.144" height="98.172" fill="none"/>
    </clipPath>
  </defs>
  <g id="Grupo_1205327" data-name="Grupo 1205327" transform="translate(-289.277 -8868.039)">
    <g id="Grupo_1204518" data-name="Grupo 1204518" transform="translate(289.277 8868.039)">
      <rect id="Rect치ngulo_455283" data-name="Rect치ngulo 455283" width="187.711" height="107.333" rx="19" fill="#96fef0"/>
    </g>
    <g id="Grupo_1206612" data-name="Grupo 1206612" transform="translate(334.277 8873.039)">
      <g id="Grupo_1206611" data-name="Grupo 1206611" clip-path="url(#clip-path)">
        <path id="Trazado_1263945" data-name="Trazado 1263945" d="M66.955,47.376c.507-.192.2-1.288,2.349-1.1,4.5.4,10.049,4.946,12.347,8.687,3.977,6.473,3.741,13.509.211,20.071-.377.7-1.852,2.385-1.7,2.978A3.9,3.9,0,0,0,81.456,79.3c.733.2,1.473-.4,2.2-.5a6.142,6.142,0,0,1,4.139.862,106.5,106.5,0,0,1,9.392,9.392c3.456,5.416-3.172,11.789-8.5,7.944a94.345,94.345,0,0,1-8.831-8.831,6.023,6.023,0,0,1-1.1-4.463c.093-.729.694-1.469.5-2.2-.1-.353-1.094-1.329-1.5-1.328-.319,0-4.477,2.707-5.558,3.142a26.283,26.283,0,0,1-2.969.815c-.37.425.254,9.559-.093,11.262a3.874,3.874,0,0,1-2.663,2.663L4,98.131C1.738,97.918.3,96.712.22,94.347c.559-9.022-.705-18.853,0-27.777A13.851,13.851,0,0,1,6.95,55.917l19.092-7.591c-.153-.992.194-2.357-.076-3.275-.19-.645-1.387-1.16-1.9-1.743a15.153,15.153,0,0,1-3.769-9.688c-1.07-.431-2.154-.225-3.309-.616-2.938-1-4.334-4.31-3.735-7.231.285-1.392,1.752-2.6,1.837-3.513.059-.629-.281-1.26-.292-1.926C14.675,12.423,13.74,1.242,24.486.281A108.12,108.12,0,0,1,40.431.308a5.963,5.963,0,0,1,4.483,2.806c.4.733.774,2.661,1.29,2.915.553.273,1.781.121,2.686.4C54.526,8.15,52.125,17.036,52.7,21.4c6.336,3.429,3.952,12.626-3.382,11.991a16.143,16.143,0,0,1-4.091,10.066c-.408.464-1.688,1.317-1.78,1.584a18.256,18.256,0,0,0-.058,3.274c.1.4,7.314,3.015,7.729,3.012.571,0,4.128-2.872,5.269-3.44,1.534-.765,6.227-2.93,6.921-.509a3.648,3.648,0,0,1-.312.94c-.679.925-3.636,1.371-5.011,2.008-14.867,6.89-10.767,30.062,5.451,31.268,19.307,1.435,24.9-24.286,8.477-31.466-1.858-.812-4.552-.554-4.96-2.749M49.573,22.7c.324-.5,0-10.357,0-11.915,0-1.813-4.208-1.661-5.465-2.666C41.758,6.245,44,3.491,39.07,3.07,35.925,2.8,25.652,2.7,23,3.563a7.883,7.883,0,0,0-4.985,5.388c-.441,2.125-.35,9.316-.137,11.664a2.229,2.229,0,0,0,2.133,2.352c3.091.474,12.964.345,16.239.015a8.779,8.779,0,0,0,4.909-2.38c.7-.759,1.3-2.621,2.613-2.59,2.134.05,1.186,3.147,3.134,4.413.576.375,2.308.831,2.664.28M37.658,25.789H23.22V34.9c0,1.462,1.709,4.83,2.687,6,6.335,7.6,19.452,3.708,20.312-6.274a70.624,70.624,0,0,0-.005-9.2c-.043-.179-1.333-.855-1.693-1.173-.465-.411-1.086-1.634-1.518-1.538a11.254,11.254,0,0,1-5.345,3.075m11.354,4.766c2.856.586,5.447-1.821,4.273-4.695a5.106,5.106,0,0,0-1.369-1.453c-.243-.041-1.239.837-1.676,1.073a8.712,8.712,0,0,1-1.229.309Zm-28.6-4.766c-1.854.569-3.206-2.09-4.174.17-1.17,2.733,1.45,5.145,4.174,4.6ZM40.6,46.815a19.389,19.389,0,0,1-11.492,0c.4.946-.626,2.858-.5,3.472.13.657,4.456,2.94,4.993,3.951,1.954.764,2.234-.318,3.383-1.093.58-.392,3.739-2.259,3.856-2.456.21-.352-.554-3.112-.236-3.876M23.5,52.7a2.492,2.492,0,0,0-1.069.192c-3.043.884-14.234,5.2-16.183,7.087a12,12,0,0,0-3.226,7.707c-.6,8.543.482,17.763,0,26.38a1.549,1.549,0,0,0,.715,1.248h7.149V66.3c0-1.927,3.084-1.884,3.084-.28v29.3H23.08A2.813,2.813,0,0,0,23.5,94.9Zm2.8,0v5.187c0,.228,1.953,1.826,2.491,1.51.188-.111,1.877-3.245,2.27-3.732-.52-.4-4.484-3.269-4.761-2.965m16.821,0c-1.789.505-3.092,2.148-4.773,2.95a28.287,28.287,0,0,0,2.528,3.661,7.08,7.08,0,0,0,2.245-1Zm3.084,0v7.85l1.071-2.714,2.015-3.868ZM33.5,57.515a5.811,5.811,0,0,0-1.583,2.344c.02.714,1.442,1.694,2.115,1.8,1.352.214,3.874-.684,3.375-2.233A2.951,2.951,0,0,0,33.5,57.515m-2.709,37.8c-.465-2.159-2.409-3.85-2.268-6.309l1.987-26.073c-.231-1.216-1.964-.527-2.936-.706-.543-.1-.711-.63-1.268-.554V95.316ZM44.527,79.9c-.455-.078-1.4-.87-1.4-1.262V61.674c-1.026,1.139-3.937-.152-4.2,1.26L40.9,89.012c.063,2.377-1.621,4.149-2.264,6.3h4.486c.4-2.247-.661-9.48.309-11.046a2.169,2.169,0,0,1,1.093-.729c.063.091,1.682.342,1.682,1.262V95.316h9.252V82a20.563,20.563,0,0,1-7.722-8.258L46.209,69.8v8.831c0,.92-1.62,1.171-1.682,1.262M36.114,64.478a3.906,3.906,0,0,1-2.8,0L31.375,89.042a15.422,15.422,0,0,0,3.232,6.26c1.011.173,3.2-5.01,3.453-6.034Zm47.87,17.16a3.332,3.332,0,0,0-2.392,2.392c-.261,1.332.315,2.024,1.069,3.009.973,1.273,6.584,6.907,7.8,7.616,3.322,1.931,6.136-1.428,3.966-4.527a83.105,83.105,0,0,0-7.713-7.706,3.185,3.185,0,0,0-2.734-.783m-25.44,1.9V95.316h7.149c.356,0,.665-.877.715-1.248.381-2.827-.312-6.485-.013-9.407-2.679.2-5.274-.538-7.851-1.12" transform="translate(0 0)" fill="#050404"/>
        <path id="Trazado_1263946" data-name="Trazado 1263946" d="M192.18,168.825c.408,2.2,3.1,1.938,4.96,2.75,16.422,7.18,10.83,32.9-8.476,31.465-16.218-1.206-20.319-24.377-5.451-31.267,1.375-.637,4.332-1.083,5.011-2.008a3.66,3.66,0,0,0,.312-.94c.346-.222,3.039.229,3.645,0m.165,12.493c-.5.419-2.793,2.675-3.07,2.626-1.328-1.194-2.4-2.693-4.312-3a4.85,4.85,0,0,0-4.679,7.486,70.745,70.745,0,0,0,6.427,6.469,4.8,4.8,0,0,0,5.889-.283,75.834,75.834,0,0,0,7.576-7.563,4.835,4.835,0,0,0-5.2-7.726c-1.211.321-1.818,1.3-2.629,1.989" transform="translate(-125.225 -121.448)" fill="#fff"/>
        <path id="Trazado_1263947" data-name="Trazado 1263947" d="M30.783,187.957V230.15a2.813,2.813,0,0,1-.421.421H21.251v-29.3c0-1.6-3.084-1.646-3.084.28V230.57H11.018a1.549,1.549,0,0,1-.715-1.248c.483-8.617-.594-17.836,0-26.38a12,12,0,0,1,3.226-7.707c1.948-1.883,13.14-6.2,16.183-7.087a2.492,2.492,0,0,1,1.069-.192" transform="translate(-7.283 -135.254)" fill="#056154"/>
        <path id="Trazado_1263948" data-name="Trazado 1263948" d="M95.016,30.1c-.357.551-2.088.094-2.664-.28-1.948-1.267-1-4.363-3.134-4.413-1.317-.031-1.91,1.83-2.613,2.59a8.779,8.779,0,0,1-4.909,2.38c-3.276.331-13.148.459-16.239-.015a2.229,2.229,0,0,1-2.133-2.352c-.214-2.348-.3-9.538.137-11.664a7.883,7.883,0,0,1,4.985-5.388c2.65-.862,12.923-.762,16.068-.493,4.927.421,2.688,3.175,5.039,5.054,1.256,1,5.465.853,5.465,2.666,0,1.558.324,11.415,0,11.915" transform="translate(-45.442 -7.391)" fill="#803c1e"/>
        <path id="Trazado_1263949" data-name="Trazado 1263949" d="M97.262,84.081a11.254,11.254,0,0,0,5.345-3.075c.432-.1,1.053,1.127,1.518,1.538.36.318,1.65.994,1.693,1.173a70.622,70.622,0,0,1,.005,9.2c-.86,9.982-13.977,13.873-20.312,6.274-.978-1.174-2.687-4.541-2.687-6V84.081Z" transform="translate(-59.604 -58.292)" fill="#faae9d"/>
        <path id="Trazado_1263950" data-name="Trazado 1263950" d="M158.624,259.08c.063-.091,1.682-.342,1.682-1.262v-8.831l1.529,3.938a20.563,20.563,0,0,0,7.722,8.258V274.5h-9.252V263.986c0-.92-1.62-1.171-1.682-1.262a21.382,21.382,0,0,1,0-3.645" transform="translate(-114.097 -179.183)" fill="#056154"/>
        <path id="Trazado_1263951" data-name="Trazado 1263951" d="M116.652,229.989l1.946,24.789c-.254,1.023-2.442,6.207-3.453,6.034a15.425,15.425,0,0,1-3.232-6.26l1.939-24.563a3.908,3.908,0,0,0,2.8,0" transform="translate(-80.538 -165.51)" fill="#fbce73"/>
        <path id="Trazado_1263952" data-name="Trazado 1263952" d="M143.711,238.21a21.378,21.378,0,0,0,0,3.645,2.169,2.169,0,0,0-1.093.729c-.971,1.566.089,8.8-.309,11.046h-4.486c.643-2.156,2.327-3.928,2.264-6.3l-1.982-26.078c.268-1.412,3.178-.121,4.2-1.26v16.961c0,.391.947,1.184,1.4,1.262" transform="translate(-99.185 -158.313)" fill="#fff9e9"/>
        <path id="Trazado_1263953" data-name="Trazado 1263953" d="M98.31,253.611H93.824V219.968c.558-.076.725.454,1.268.554.972.179,2.705-.511,2.936.706L96.042,247.3c-.142,2.459,1.8,4.15,2.268,6.309" transform="translate(-67.52 -158.294)" fill="#fff9e9"/>
        <path id="Trazado_1263954" data-name="Trazado 1263954" d="M293.263,291.035a3.184,3.184,0,0,1,2.734.783,83.069,83.069,0,0,1,7.713,7.706c2.169,3.1-.645,6.459-3.966,4.527-1.22-.709-6.831-6.344-7.8-7.616-.753-.985-1.33-1.677-1.068-3.009a3.332,3.332,0,0,1,2.391-2.392" transform="translate(-209.279 -209.396)" fill="#d87d49"/>
        <path id="Trazado_1263955" data-name="Trazado 1263955" d="M208.824,297.987c2.578.582,5.172,1.319,7.851,1.12-.3,2.923.393,6.581.013,9.407-.05.37-.359,1.248-.715,1.248h-7.149Z" transform="translate(-150.279 -214.445)" fill="#056154"/>
        <path id="Trazado_1263956" data-name="Trazado 1263956" d="M114,166.985c-.318.763.445,3.523.236,3.876-.117.2-3.276,2.064-3.856,2.456-1.149.775-1.429,1.857-3.383,1.093-.536-1.011-4.862-3.294-4.992-3.951-.122-.615.9-2.527.5-3.472a19.389,19.389,0,0,0,11.492,0" transform="translate(-73.4 -120.17)" fill="#faae9d"/>
        <path id="Trazado_1263957" data-name="Trazado 1263957" d="M174.824,93.2V88.436a8.715,8.715,0,0,0,1.229-.309c.437-.236,1.434-1.115,1.676-1.073a5.106,5.106,0,0,1,1.369,1.453c1.173,2.874-1.417,5.28-4.273,4.695" transform="translate(-125.811 -62.647)" fill="#faae9d"/>
        <path id="Trazado_1263958" data-name="Trazado 1263958" d="M61.375,90.045v4.766c-2.724.548-5.344-1.863-4.174-4.6.967-2.26,2.32.4,4.174-.17" transform="translate(-40.959 -64.256)" fill="#faae9d"/>
        <path id="Trazado_1263959" data-name="Trazado 1263959" d="M93.824,187.929c.277-.3,4.241,2.56,4.761,2.965-.393.487-2.082,3.621-2.27,3.732-.538.316-2.491-1.282-2.491-1.51Z" transform="translate(-67.52 -135.226)" fill="#fff9e9"/>
        <path id="Trazado_1263960" data-name="Trazado 1263960" d="M141.573,187.987v5.607a7.08,7.08,0,0,1-2.245,1,28.289,28.289,0,0,1-2.528-3.661c1.68-.8,2.983-2.445,4.773-2.95" transform="translate(-98.448 -135.284)" fill="#fff9e9"/>
        <path id="Trazado_1263961" data-name="Trazado 1263961" d="M115.423,204.667a2.95,2.95,0,0,1,3.907,1.911c.5,1.549-2.022,2.447-3.375,2.233-.673-.107-2.1-1.086-2.115-1.8a5.812,5.812,0,0,1,1.583-2.344" transform="translate(-81.924 -147.152)" fill="#fbce73"/>
        <path id="Trazado_1263962" data-name="Trazado 1263962" d="M164.824,187.987l3.086,1.268-2.015,3.868-1.071,2.714Z" transform="translate(-118.615 -135.284)" fill="#056154"/>
        <path id="Trazado_1263963" data-name="Trazado 1263963" d="M206.383,207.931c.812-.688,1.418-1.668,2.629-1.989a4.834,4.834,0,0,1,5.2,7.726,75.829,75.829,0,0,1-7.576,7.563,4.8,4.8,0,0,1-5.889.283,70.785,70.785,0,0,1-6.427-6.469A4.85,4.85,0,0,1,199,207.559c1.908.306,2.984,1.805,4.312,3,.277.048,2.575-2.207,3.07-2.626m5.344,4.23c1.832-2.169-.165-4.665-2.565-2.985-1.166.816-4.24,4.738-5.106,5-1.827.547-3.329-3.14-5.045-3.536-1.915-.442-3.166.89-2.393,2.672a67.034,67.034,0,0,0,5.535,5.677c1.82,1.286,2.8-.263,4.12-1.421a72.739,72.739,0,0,0,5.454-5.4" transform="translate(-139.263 -148.063)" fill="#050404"/>
        <path id="Trazado_1263964" data-name="Trazado 1263964" d="M219.093,219.559a72.739,72.739,0,0,1-5.454,5.4c-1.318,1.158-2.3,2.707-4.12,1.421a67.035,67.035,0,0,1-5.535-5.677c-.773-1.782.478-3.114,2.393-2.672,1.716.4,3.218,4.083,5.045,3.536.866-.259,3.94-4.181,5.106-5,2.4-1.679,4.4.816,2.565,2.985" transform="translate(-146.63 -155.46)" fill="#37dbc5"/>
      </g>
    </g>
  </g>
</svg>
