<svg xmlns="http://www.w3.org/2000/svg" xmlns:xlink="http://www.w3.org/1999/xlink" width="90" height="90" viewBox="0 0 90 90">
  <defs>
    <clipPath id="clip-path">
      <rect id="Rectángulo_457409" data-name="Rectángulo 457409" width="60" height="59.871" fill="none"/>
    </clipPath>
  </defs>
  <g id="Grupo_1206603" data-name="Grupo 1206603" transform="translate(-751.711 -2801)">
    <circle id="Elipse_13687" data-name="Elipse 13687" cx="45" cy="45" r="45" transform="translate(751.711 2801)" fill="#fff"/>
    <g id="Grupo_1206601" data-name="Grupo 1206601" transform="translate(766.711 2816)">
      <g id="Grupo_1206600" data-name="Grupo 1206600" clip-path="url(#clip-path)">
        <path id="Trazado_1263910" data-name="Trazado 1263910" d="M.676,22.992A1.1,1.1,0,0,1,.235,22.7,36.333,36.333,0,0,1,.07,16.729a4.913,4.913,0,0,1,4.12-4.709l-1.28-2.4c-1.9-8.587,10.9-10.06,10.966-1.2a27.6,27.6,0,0,1,12.09-5.053c.886-3.4,5.123-4.713,7.272-1.62.244.35.648,1.53.78,1.62.205.14,3.135.667,3.774.855a28.15,28.15,0,0,1,8.316,4.2c.037-8.845,12.865-7.407,10.966,1.2l-1.28,2.4a4.912,4.912,0,0,1,4.12,4.709,36.333,36.333,0,0,1-.165,5.975,1.155,1.155,0,0,1-.441.289H55.965l.6,2.917c4.459,1.35,4.458,6.688,0,8.052l-.956,4.2c.032.5.834,1.19,1.127,1.8a5.582,5.582,0,0,1,.223,4.5c-.288.787-.869,1.269-1.161,2.009A4.854,4.854,0,0,1,59.6,49.615a26.22,26.22,0,0,1,.31,6.9c-.048.42-.124.853-.6.94a48.687,48.687,0,0,1-6.168,0c-1.147-.223-.6-1.711-.175-1.711h5.229V51.022c0-1.444-1.8-2.847-3.171-3a38.314,38.314,0,0,0-7.09.111A3.181,3.181,0,0,0,45.946,49.4a10.385,10.385,0,0,0-.611,1.1v5.229h4.2c.474,0,1.055,1.481-.176,1.71a38.283,38.283,0,0,1-5.135,0c-.286-.056-.775-.546-.775-.768V53.165a30.107,30.107,0,0,1-4.369,2.06c-.854.3-4.847,1.133-5.063,1.281-.132.09-.536,1.269-.78,1.62-2.15,3.093-6.387,1.776-7.272-1.62a27.655,27.655,0,0,1-9.432-3.34V56.68c0,.208-.6.9-.935.78L.417,57.367a.894.894,0,0,1-.264-.422A36.788,36.788,0,0,1,.07,51.188a4.913,4.913,0,0,1,4.12-4.709c-.293-.739-.873-1.222-1.161-2.009a5.693,5.693,0,0,1,.049-4.161c.3-.758.987-1.271,1.2-1.719.369-.8-.883-3.565-.852-4.628-4.458-1.364-4.459-6.7,0-8.052l.6-2.917c-1.006-.126-2.393.172-3.343,0M29.695,1.768a2.222,2.222,0,0,0-.139,4.351c3.347.636,3.4-4.8.139-4.351M7.574,4.176c-4.766.8-3.769,8.2,1.144,7.66,4.991-.553,4.167-8.551-1.144-7.66m43.549,0c-5.56.766-3.22,9.629,2.165,7.307,3.974-1.713,2.367-7.932-2.165-7.307m-39.646,17.1c.859-.179,2.244.131,3.172,0V16.049c0-.934-1.685-2.189-2.6-2.375a38.3,38.3,0,0,0-7.09-.111c-1.369.154-3.171,1.557-3.171,3v4.715H7.876c.592,0,1.012,1.518,0,1.709-.5.094-1.654-.146-1.977.081l-.661,3.167A3.921,3.921,0,0,1,5.2,33.722l.706,3.494c.585.071,1.05-.278,1.621-.338a5.609,5.609,0,0,1,5.828,7.885,17.9,17.9,0,0,0-.94,1.716,4.765,4.765,0,0,1,3.554,2.7c.254.571.312,1.562.639,1.933.578.658,3.727,2,4.679,2.35a22.6,22.6,0,0,0,4.914,1.257,3.972,3.972,0,0,1,7.572,0,25.194,25.194,0,0,0,7.45-2.322,12.839,12.839,0,0,0,2.144-1.285c.324-.366.385-1.364.638-1.933a4.859,4.859,0,0,1,3.554-2.7c.11-.128-.737-1.256-.89-1.595a5.62,5.62,0,0,1,5.778-8.006c.57.061,1.036.409,1.621.338l.706-3.494a3.972,3.972,0,0,1,0-7.572l-.61-2.99c-.455-.608-9.389.321-10.3-.326a1.312,1.312,0,0,1-.339-.519,29.119,29.119,0,0,1-.084-5.072c.2-2.654,1.368-4.485,3.949-5.307A24.11,24.11,0,0,0,33.778,5.149a3.921,3.921,0,0,1-7.487.029,23.032,23.032,0,0,0-13.7,6.84c2.495.571,3.735,2.606,3.94,5.062a29.961,29.961,0,0,1-.075,5.234.943.943,0,0,1-.7.674,29.885,29.885,0,0,1-4.278,0,.891.891,0,0,1,0-1.709m46.717,0V16.563c0-1.444-1.8-2.847-3.171-3a38.314,38.314,0,0,0-7.09.111c-.912.186-2.6,1.441-2.6,2.375v5.229ZM3.458,27.833c-2.59.532-1.962,4.84,1.123,4.206,2.59-.532,1.962-4.84-1.123-4.206m51.946,0c-2.59.532-1.962,4.84,1.123,4.206,2.59-.532,1.962-4.84-1.123-4.206M7.749,38.638c-4.8.615-4.156,7.955.806,7.673,5.01-.286,4.489-8.352-.806-7.673m43.374,0c-4.635.592-4.069,7.95.806,7.673,5.167-.295,4.578-8.361-.806-7.673m-36.475,17.1V50.508a10.385,10.385,0,0,0-.611-1.1,3.18,3.18,0,0,0-1.986-1.271,38.314,38.314,0,0,0-7.09-.111c-1.369.154-3.171,1.557-3.171,3v4.715Zm15.047-2.024a2.222,2.222,0,0,0-.139,4.351c3.347.636,3.4-4.8.139-4.351" transform="translate(0 0)"/>
        <path id="Trazado_1263911" data-name="Trazado 1263911" d="M20.129,46.161a.891.891,0,0,0,0,1.709,29.884,29.884,0,0,0,4.278,0,.943.943,0,0,0,.7-.674,29.961,29.961,0,0,0,.075-5.235c-.205-2.456-1.445-4.491-3.94-5.062a23.032,23.032,0,0,1,13.7-6.84,3.921,3.921,0,0,0,7.487-.029,24.11,24.11,0,0,1,13.614,6.787c-2.581.822-3.75,2.653-3.949,5.307A29.1,29.1,0,0,0,52.18,47.2a1.312,1.312,0,0,0,.339.519c.914.648,9.848-.282,10.3.326l.61,2.99a3.972,3.972,0,0,0,0,7.572L62.725,62.1c-.585.071-1.051-.278-1.621-.338a5.62,5.62,0,0,0-5.778,8.006c.153.338,1,1.466.89,1.595a4.859,4.859,0,0,0-3.554,2.7c-.253.569-.314,1.567-.638,1.933a12.839,12.839,0,0,1-2.144,1.285,25.194,25.194,0,0,1-7.45,2.322,3.972,3.972,0,0,0-7.572,0,22.6,22.6,0,0,1-4.914-1.257c-.952-.349-4.1-1.692-4.679-2.35-.326-.371-.384-1.362-.639-1.933a4.764,4.764,0,0,0-3.554-2.7,17.9,17.9,0,0,1,.94-1.716,5.609,5.609,0,0,0-5.828-7.885c-.571.061-1.036.409-1.621.338L13.858,58.6a3.921,3.921,0,0,0,.029-7.487l.661-3.167c.322-.226,1.478.013,1.977-.081,1.017-.191.6-1.709,0-1.709H10.443V41.447c0-1.444,1.8-2.847,3.171-3a38.3,38.3,0,0,1,7.09.111c.912.186,2.6,1.441,2.6,2.375v5.229c-.928.131-2.313-.179-3.172,0M38.336,34.874c-.339.1-.57.591-.625.925a41.75,41.75,0,0,0-.014,6.337c.171,1.482,1.66,1.5,1.88.158a41.729,41.729,0,0,0,.014-6.337c-.081-.7-.465-1.32-1.255-1.082m7.191,26.484c2.542-2.669,3.674-8.171,1.336-11.245-.657-.863-1.783-.824-1.777.247,0,.468,1.08,2.272,1.188,3.256,1,9.159-10.944,12.153-14.552,4.609a7.749,7.749,0,0,1,8.424-11c.756.118,2.695,1.19,3.088,1.132a1.037,1.037,0,0,0,.774-.771c.086-.979-2.1-1.7-2.842-1.894-9.931-2.591-16.388,9.977-8.438,16.5a9.509,9.509,0,0,0,12.8-.834M40.746,50.313c-1.662.245-2.2,1.923-3.049,2.284-.3.128-.862-.236-1.284-.269A2.774,2.774,0,0,0,33.724,56.4a17.093,17.093,0,0,0,2.655,2.66,2.841,2.841,0,0,0,2.349.047c.929-.364,4.734-4.17,5.011-5.1a2.8,2.8,0,0,0-2.994-3.687m-21.265,3.6c-1.161.256-1.1,1.635.145,1.839a43.686,43.686,0,0,0,6.495,0c1.3-.213,1.305-1.653,0-1.866a45.754,45.754,0,0,0-6.639.027m31.544,0c-1.161.256-1.1,1.635.145,1.839a43.686,43.686,0,0,0,6.495,0c1.3-.213,1.305-1.653,0-1.866a45.754,45.754,0,0,0-6.639.027M38.336,66.419c-.339.1-.57.591-.625.925a41.75,41.75,0,0,0-.014,6.337c.171,1.482,1.66,1.5,1.88.158a41.729,41.729,0,0,0,.014-6.337c-.081-.7-.465-1.32-1.255-1.082" transform="translate(-8.653 -24.883)" fill="#fff9e9"/>
        <path id="Trazado_1263912" data-name="Trazado 1263912" d="M277.3,86.291H264.443V81.063c0-.934,1.685-2.189,2.6-2.375a38.314,38.314,0,0,1,7.09-.112c1.369.154,3.171,1.557,3.171,3Z" transform="translate(-219.108 -65.014)" fill="#e3a4fe"/>
        <path id="Trazado_1263913" data-name="Trazado 1263913" d="M23.3,287.291H10.443v-4.715c0-1.444,1.8-2.847,3.171-3a38.311,38.311,0,0,1,7.09.112,3.18,3.18,0,0,1,1.986,1.271,10.385,10.385,0,0,1,.611,1.1Z" transform="translate(-8.653 -231.555)" fill="#e3a4fe"/>
        <path id="Trazado_1263914" data-name="Trazado 1263914" d="M276.635,287.291H263.777v-4.715c0-1.444,1.8-2.847,3.171-3a38.311,38.311,0,0,1,7.09.112,3.18,3.18,0,0,1,1.986,1.271,10.387,10.387,0,0,1,.611,1.1Z" transform="translate(-218.556 -231.555)" fill="#ffe9a1"/>
        <path id="Trazado_1263915" data-name="Trazado 1263915" d="M29.186,24.021c5.31-.891,6.135,7.107,1.144,7.66-4.913.544-5.91-6.86-1.144-7.66" transform="translate(-21.613 -19.846)" fill="#ffe9a1"/>
        <path id="Trazado_1263916" data-name="Trazado 1263916" d="M282.779,24.167c4.533-.625,6.139,5.594,2.165,7.307-5.386,2.322-7.725-6.541-2.165-7.307" transform="translate(-231.657 -19.987)" fill="#e3a4fe"/>
        <path id="Trazado_1263917" data-name="Trazado 1263917" d="M29.364,225.179c5.295-.679,5.816,7.387.806,7.673-4.962.283-5.6-7.057-.806-7.673" transform="translate(-21.614 -186.541)" fill="#e3a4fe"/>
        <path id="Trazado_1263918" data-name="Trazado 1263918" d="M282.825,225.174c5.384-.688,5.973,7.378.806,7.673-4.875.278-5.441-7.08-.806-7.673" transform="translate(-231.702 -186.536)" fill="#ffe9a1"/>
        <path id="Trazado_1263919" data-name="Trazado 1263919" d="M164.288,10.183c3.262-.448,3.209,4.987-.139,4.351a2.222,2.222,0,0,1,.139-4.351" transform="translate(-134.593 -8.416)" fill="#37dbc5"/>
        <path id="Trazado_1263920" data-name="Trazado 1263920" d="M12.354,162.04c3.085-.634,3.713,3.674,1.122,4.206-3.085.634-3.713-3.674-1.122-4.206" transform="translate(-8.896 -134.208)" fill="#37dbc5"/>
        <path id="Trazado_1263921" data-name="Trazado 1263921" d="M315.354,162.04c3.085-.634,3.713,3.674,1.122,4.206-3.085.634-3.713-3.674-1.122-4.206" transform="translate(-259.951 -134.208)" fill="#37dbc5"/>
        <path id="Trazado_1263922" data-name="Trazado 1263922" d="M164.288,313.183c3.262-.448,3.209,4.987-.139,4.351a2.222,2.222,0,0,1,.139-4.351" transform="translate(-134.593 -259.47)" fill="#37dbc5"/>
        <path id="Trazado_1263923" data-name="Trazado 1263923" d="M136,135.391a9.509,9.509,0,0,1-12.8.834c-7.95-6.519-1.493-19.087,8.438-16.5.744.194,2.929.915,2.842,1.894a1.037,1.037,0,0,1-.774.771c-.393.058-2.332-1.014-3.088-1.132a7.749,7.749,0,0,0-8.424,11c3.608,7.544,15.556,4.55,14.552-4.609-.108-.984-1.185-2.788-1.188-3.256-.006-1.071,1.12-1.111,1.777-.247,2.338,3.073,1.206,8.575-1.336,11.245" transform="translate(-99.122 -98.916)"/>
        <path id="Trazado_1263924" data-name="Trazado 1263924" d="M151.688,148.178a2.8,2.8,0,0,1,2.994,3.687c-.278.933-4.083,4.739-5.011,5.1a2.839,2.839,0,0,1-2.349-.047,17.092,17.092,0,0,1-2.655-2.66,2.774,2.774,0,0,1,2.688-4.068c.422.033.983.4,1.284.269.852-.361,1.387-2.04,3.049-2.284m-2.247,4.017c-1.319,1.119-1.512-.445-2.556-.256-2.2.4.858,3.859,2.019,3.42a37.911,37.911,0,0,0,3.853-3.7c.727-1.026-.036-1.931-1.208-1.552-.731.236-1.556,1.623-2.108,2.091" transform="translate(-119.595 -122.749)"/>
        <path id="Trazado_1263925" data-name="Trazado 1263925" d="M169.51,58.029c.79-.238,1.174.385,1.255,1.082a41.729,41.729,0,0,1-.014,6.337c-.22,1.347-1.709,1.324-1.88-.158a41.749,41.749,0,0,1,.014-6.337c.055-.334.286-.823.625-.925" transform="translate(-139.826 -48.038)"/>
        <path id="Trazado_1263926" data-name="Trazado 1263926" d="M59.139,168.681a45.75,45.75,0,0,1,6.639-.027c1.305.213,1.3,1.652,0,1.866a43.687,43.687,0,0,1-6.495,0c-1.245-.2-1.305-1.583-.145-1.839" transform="translate(-48.311 -139.651)"/>
        <path id="Trazado_1263927" data-name="Trazado 1263927" d="M243.138,168.681a45.75,45.75,0,0,1,6.639-.027c1.305.213,1.3,1.652,0,1.866a43.687,43.687,0,0,1-6.495,0c-1.246-.2-1.305-1.583-.145-1.839" transform="translate(-200.766 -139.651)"/>
        <path id="Trazado_1263928" data-name="Trazado 1263928" d="M169.51,242.029c.79-.238,1.174.385,1.255,1.082a41.729,41.729,0,0,1-.014,6.337c-.22,1.347-1.709,1.324-1.88-.158a41.752,41.752,0,0,1,.014-6.337c.055-.334.286-.823.625-.925" transform="translate(-139.826 -200.494)"/>
        <path id="Trazado_1263929" data-name="Trazado 1263929" d="M157.989,161.227c.552-.468,1.377-1.855,2.108-2.091,1.172-.379,1.936.526,1.208,1.552a37.91,37.91,0,0,1-3.853,3.7c-1.161.44-4.219-3.022-2.019-3.42,1.044-.189,1.237,1.375,2.556.256" transform="translate(-128.143 -131.781)" fill="#37dbc5"/>
      </g>
    </g>
  </g>
</svg>
