<svg xmlns="http://www.w3.org/2000/svg" xmlns:xlink="http://www.w3.org/1999/xlink" width="96" height="96" viewBox="0 0 96 96">
  <defs>
    <clipPath id="clip-path">
      <rect id="Rect치ngulo_457315" data-name="Rect치ngulo 457315" width="54.322" height="54.382" fill="#fff"/>
    </clipPath>
  </defs>
  <g id="Grupo_1206095" data-name="Grupo 1206095" transform="translate(-383.746 -8400.001)">
    <path id="Trazado_997400" data-name="Trazado 997400" d="M48,0A48,48,0,1,1,0,48,48,48,0,0,1,48,0Z" transform="translate(383.746 8400.001)" fill="#5d0b80"/>
    <g id="Grupo_1099776" data-name="Grupo 1099776" transform="translate(401.746 8418)">
      <g id="Grupo_1099618" data-name="Grupo 1099618" transform="translate(-0.035 0)">
        <rect id="Rect치ngulo_401104" data-name="Rect치ngulo 401104" width="59.378" height="60.093" transform="translate(0)" fill="none"/>
      </g>
      <g id="Grupo_1206530" data-name="Grupo 1206530" transform="translate(2.965 3)">
        <g id="Grupo_1206529" data-name="Grupo 1206529" clip-path="url(#clip-path)">
          <path id="Trazado_1263565" data-name="Trazado 1263565" d="M199.954,46.92a7.675,7.675,0,0,0-.56-1.146,7.441,7.441,0,0,1-.372-.729,8.593,8.593,0,0,1,.421-1.227,11.749,11.749,0,0,0,.58-1.724,11.454,11.454,0,0,0-.624-5.9c-.442-1.295-2.611-5.971-4.542-6.292a5.7,5.7,0,0,0-1.221-.01c-.271.016-.548.033-.8.025a26.519,26.519,0,0,0,0-5.267h1.982c1.021,0,3.055-2.417,3.065-3.643,0-.52-.329-.824-.914-.833h-.011c-.561,0-1.049.671-1.565,1.382a4.708,4.708,0,0,1-.946,1.087h-3.18V20.644c1.874.052,2.171-.957,2.483-2.026a6.2,6.2,0,0,1,.508-1.338,5.357,5.357,0,0,1,1.091-1.247,8.779,8.779,0,0,0,.8-.817c.653-.794,1.25-1.647,1.826-2.473a8.5,8.5,0,0,1-.109,3.633,5.3,5.3,0,0,1-.188.605c-.25.717-.533,1.53-.153,1.993a1.057,1.057,0,0,0,1.02.27c.894-.121,1.357-2.4,1.478-3.09a10.038,10.038,0,0,0-.031-3.836,10.382,10.382,0,0,0-.334-1.074,7.8,7.8,0,0,1-.324-1.068,5.721,5.721,0,0,1,.3-.952,8.5,8.5,0,0,0,.391-1.253c.453-2.585-.093-4.791-1.54-6.214C197,.3,194.71-.222,192.035.294a6.444,6.444,0,0,0-.89.276,4.125,4.125,0,0,1-1.113.3h0a5.95,5.95,0,0,1-1.386-.335A8.583,8.583,0,0,0,186.8.1c-3.145-.206-6.483,1.689-9.917,5.632-1.911,2.195-2.586,5.361-3.238,8.424a36.783,36.783,0,0,1-1.1,4.34l-.01.03,0,.031a2.842,2.842,0,0,0,1.072,2.337,2.9,2.9,0,0,0,2.552.619,14.374,14.374,0,0,0,2.8-2.54,2.52,2.52,0,0,0-.031-2.66c-.075-.176-.152-.356-.222-.545l2.176-4.624a18.807,18.807,0,0,1,6.945,6,10.809,10.809,0,0,1,1.127,1.934l-.05.01c-1.2.3-1.216.284-1.527-.036a5.085,5.085,0,0,0-.687-.6,2.337,2.337,0,0,0-2.68-.327A11.035,11.035,0,0,0,181.235,21a2.679,2.679,0,0,0,.167,2.4,2.776,2.776,0,0,0,2.124,1.241,26.905,26.905,0,0,0,3.7.019,28.764,28.764,0,0,1,3.467,0,5.964,5.964,0,0,1,.277,1.692,17.33,17.33,0,0,1-.107,2.64c-.024.259-.048.518-.068.778l-.109.108c-1.191.063-2.411.034-3.593.007s-2.376-.056-3.559,0a3.321,3.321,0,0,0-1.046.242,7.692,7.692,0,0,1-1.4-1.3c-1.111-1.193-2.37-2.547-3.845-1.524a15,15,0,0,0-2.357,2.328,17.915,17.915,0,0,1-1.965,2.018l-.034.027-.022.038c-.8,1.4.672,2.731,1.857,3.8a9.128,9.128,0,0,1,1.186,1.195,3.346,3.346,0,0,0-.237,1.034,91.1,91.1,0,0,0,0,11.007c.145,1.552,1.873,2.725,3.361,3.574,4.21,2.4,8.387,2.731,11.783.942a5.966,5.966,0,0,0,3.526,1.172,5.9,5.9,0,0,0,3.347-1.053,5.691,5.691,0,0,0,2.269-6.475M181.023,31.627a1.983,1.983,0,0,1,.071.76,3.244,3.244,0,0,0,.064.892A2.537,2.537,0,0,0,182,34.5c.114.107.222.209.317.315s.208.243.308.364a4.776,4.776,0,0,0,.936.937l-1.726,1.726c-.246-.219-.507-.505-.78-.8-.7-.773-1.5-1.649-2.423-1.74-.04,0-.083-.006-.128-.006a4.565,4.565,0,0,0-.58.054,3.873,3.873,0,0,1-.393.042,31.661,31.661,0,0,1-2.718-2.8l3.644-3.539c.531.445,2.393,2.332,2.566,2.579m5.837,10.929c.968.793.735,2.045.243,3.335a3.183,3.183,0,0,1-.251-.676,5.868,5.868,0,0,1,.008-2.659m1.457-1.476a4.83,4.83,0,0,1,3.339.239c-.458.208-1.284.533-1.458.577a2.77,2.77,0,0,1-1.881-.816M180.4,39.3a1.174,1.174,0,0,1-.158.856c-.05.068-.086.084-.094.084h-2.47v-2.6a1.1,1.1,0,0,1,.781-.288A10.155,10.155,0,0,1,180.4,39.3m7.477-2a17.808,17.808,0,0,1-6.706,5.914l-.214-1.169a2.116,2.116,0,0,0,1.307-1.368,4.154,4.154,0,0,1,.382-.692,16.755,16.755,0,0,1,3.144-2.908c.405-.316.788-.615,1.142-.911a3.29,3.29,0,0,0,.486-.58c.067-.094.16-.223.185-.245a1.186,1.186,0,0,1,.784.027,3.52,3.52,0,0,0,.546.094,12.067,12.067,0,0,1-1.056,1.839m9.4,6.062c-2.072-2.145-4.4-4.556-7.68-4.556-.1,0-.192,0-.289.006l1.819-2.913a.38.38,0,0,1,.274.031c.283.155.445.745.587,1.266a2.492,2.492,0,0,0,.708,1.443,1.046,1.046,0,0,0,1.079.049,1,1,0,0,0,.531-.894,14.614,14.614,0,0,0-1.177-3.366c-.4-.391-1.9-.637-3.809-.918-.458-.067-.865-.127-1.145-.179V31.9h6.234c2.914,2.947,4.762,7.99,2.975,11.573Zm-11.264-9.146c0,.029-.033.111-.159.217a1.026,1.026,0,0,1-.705.252,13.821,13.821,0,0,1-2.055-1.969.771.771,0,0,1,.159-.613.441.441,0,0,1,.29-.2h2.47Zm-8.338,8.2,1.362.111,1.024,4.891.144.033a7.422,7.422,0,0,1,.792.292c1.078.434,2.555,1.03,3.227.553a.885.885,0,0,0,.337-.819c-.034-.744-.887-1-1.64-1.227-.529-.159-1.076-.323-1.221-.6a.418.418,0,0,1-.023-.3L184.6,43.53c-.084,3.234,1.985,5.475,3.989,7.646q.264.286.527.573c-1.974.941-4.413.841-7.257-.3-1.042-.418-4.172-2.214-4.18-2.716Zm11.643,3.332a3.2,3.2,0,0,0,.328-1.888,3.538,3.538,0,0,0,2-.338,3.061,3.061,0,0,1,2.432-.172,11.132,11.132,0,0,1,3.8,3.944,3.776,3.776,0,0,1-1.3,4.369,3.647,3.647,0,0,1-4.4.04c-1.06-.773-3.162-2.963-3.234-4.221a3.74,3.74,0,0,1,.381-1.735M177.208,17.882c-.159.218-1.374,1.471-1.571,1.621a.675.675,0,0,1-.469-.029.958.958,0,0,1-.516-.408c-.188-.41.241-1.805.585-2.926a14.53,14.53,0,0,0,.578-2.241l1.378.347c-.065.152-.2.388-.293.559a2.714,2.714,0,0,0-.443,1.04,1.957,1.957,0,0,0,.38.939,1.611,1.611,0,0,1,.371,1.1m12.053,4.757h-5.686a.676.676,0,0,1-.4-.314.643.643,0,0,1-.08-.489c.168-.233,1.621-1.738,1.81-1.871.308-.206.541,0,1.045.668.28.374.544.727.885.816a4.155,4.155,0,0,0,1.562-.208c.288-.067.659-.154.864-.176Zm.066-13.833,1.935.254.259,1.858A3.409,3.409,0,0,0,190.2,10.6a2.707,2.707,0,0,0-.551.059,2.484,2.484,0,0,0-.319-1.854m-2.183.266a2.3,2.3,0,0,1,.389.833,2.338,2.338,0,0,1-.051.811,1.647,1.647,0,0,0,2.242,2.034,1.294,1.294,0,0,1,.542-.106,7.225,7.225,0,0,1,.889.453L189.1,15.272l-2.751-2.909L185,11.3a25.466,25.466,0,0,1,2.14-2.232m4.423,6.639a5.981,5.981,0,0,0,1.9-2.528,13.649,13.649,0,0,0-.234-5.388A1.351,1.351,0,0,0,193,7.283l-.023-.025c-.391-.373-4.606-.7-5.1-.635-1.528.207-2.582,1.307-3.6,2.371-.37.387-.722.754-1.092,1.076l-.861-.453c.516-.483,1.028-.986,1.566-1.516,1.984-1.952,4.036-3.97,6.439-5.043,2.741-1.223,5.21-1.2,6.6.052,1.293,1.164,1.533,3.249.678,5.872a14.92,14.92,0,0,1-2.745,4.552c-.263.324-.67.724-1.062,1.112a10.733,10.733,0,0,0-1.335,1.468,6.11,6.11,0,0,0-.512,1.395,4.639,4.639,0,0,1-.351.993c-.127.128-.242.186-.339.167-.316-.055-.649-.772-.848-1.2-.061-.131-.116-.25-.169-.351a8.6,8.6,0,0,1,1.315-1.407m-4.094-13.4a39.6,39.6,0,0,0-3.387,2.709l-.214.191a47.216,47.216,0,0,0-4.534,4.4,13.21,13.21,0,0,0-.784,1.633c-.154.352-.338.773-.438.967l-1.747-.321a14.223,14.223,0,0,0,.369-1.411,8.106,8.106,0,0,1,.69-2.146,23.945,23.945,0,0,1,5.942-5.447,5.513,5.513,0,0,1,4.1-.571" transform="translate(-145.891 -0.072)" fill="#fff"/>
          <path id="Trazado_1263566" data-name="Trazado 1263566" d="M.832,8.695a7.287,7.287,0,0,1,.373.731,3.03,3.03,0,0,1-.309.752,4.641,4.641,0,0,0-.308.7,10.9,10.9,0,0,0,.241,7.4c.441,1.295,2.609,5.971,4.542,6.292a5.709,5.709,0,0,0,1.22.01c.279-.017.565-.034.823-.024-.009.281-.043.66-.081,1.085-.143,1.6-.224,2.868.137,3.378a.967.967,0,0,0,.8.372,1.257,1.257,0,0,0,.206-.017.892.892,0,0,0,.752-.6,5.8,5.8,0,0,0,.058-1.638,9.532,9.532,0,0,1-.017-1,4.455,4.455,0,0,1,.086-.55,3.551,3.551,0,0,0,.1-.9l.107-.106a21.725,21.725,0,0,1,2.855.021A3.23,3.23,0,0,1,13,25.03a4.731,4.731,0,0,0,.711.53c1.71.9,4.135.791,5.262-1.175a3.872,3.872,0,0,0,.392-1.107,3.68,3.68,0,0,1,.191-.643c.188-.279,2.7-2.868,2.948-3.039a2.973,2.973,0,0,1,.727-.25,4.243,4.243,0,0,0,1.2-.453,3.362,3.362,0,0,0,1.606-2.113,4.8,4.8,0,0,0-.772-3.572,3.993,3.993,0,0,0-.515-.561c-.068-.066-.147-.144-.193-.193V9.4a7.289,7.289,0,0,1,1.083-.041c1.133,0,2.542.016,2.606-1.135A.763.763,0,0,0,28,7.6c-.552-.518-1.954-.353-2.978-.233-.176.021-.338.04-.473.052V5.275c0-1.093-3.222-3.065-3.254-3.083-1.977-1.144-5.226-2.4-7.88-2.163-.436.038-1.456.128-1.641.731A1.08,1.08,0,0,0,11.871,1.8c.374.451,1.192.361,1.915.281a5.044,5.044,0,0,1,.717-.05c1.4.074,3.8.635,4.323,1.825.234.536.05,1.17-.547,1.886a.907.907,0,0,1-1.147.283,1.033,1.033,0,0,0-1.243.271.939.939,0,0,0-.251.844c.142.506.819.752,1.535,1.011.889.322,1.47.569,1.365,1-.183.168-1.16.759-1.882,1.2-.752.454-1.462.883-1.724,1.087a20.582,20.582,0,0,0-5.745,7.079.543.543,0,0,1-.378-.042c-.3-.166-.444-.7-.588-1.222-.21-.76-.448-1.621-1.269-1.622h0a.976.976,0,0,0-.813.315,1.527,1.527,0,0,0-.049,1.294,2,2,0,0,1,.073.387c-.011.421-.469.841-1.139,1.047a1.8,1.8,0,0,1-1.978-.406,12.655,12.655,0,0,1-1-4.193,9.58,9.58,0,0,1,.745-3.143l.021.015a4.769,4.769,0,0,1,.786.735A5.549,5.549,0,0,0,4.76,12.716a4.557,4.557,0,0,0,3.265.7,7.147,7.147,0,0,0,1.054-.221,4.683,4.683,0,0,1,1.577-.186c1.466.017,2.288-.864,2.33-2.48a1.706,1.706,0,0,0-.078-.485,1.077,1.077,0,0,1-.058-.381,3.836,3.836,0,0,1,.277-.966,3.9,3.9,0,0,0,.293-2.2C13.164,4.407,9.562.836,7.551.27A5.878,5.878,0,0,0,1.7,1.768,5.794,5.794,0,0,0,.273,7.55,7.665,7.665,0,0,0,.832,8.695M5.477,2.069a4.168,4.168,0,0,1,2.407.57C8.471,3.011,9.771,4.4,9.748,4.8c-.027.456-.276.537-.749.65A1.263,1.263,0,0,0,8,6.083a1.44,1.44,0,0,0,.047,1c.113.366.181.588-.151.879a1.087,1.087,0,0,1-.9.032A1.482,1.482,0,0,0,6,8c-.3.147-.425.528-.553.932-.114.359-.244.767-.481.847-.177.059-.459-.041-.818-.291a4.511,4.511,0,0,1-1.9-4.718,3.549,3.549,0,0,1,3.226-2.7Zm5.573,6.418a3.565,3.565,0,0,0-.361.96,1.62,1.62,0,0,0,.155.772,1.344,1.344,0,0,1,.138.674c-.225.117-.441.049-.759-.067a1.682,1.682,0,0,0-.82-.147,1.11,1.11,0,0,0-.516.254.931.931,0,0,1-.23.143l-.113.038a2.884,2.884,0,0,1-2.2.167c.07-.055.145-.111.2-.155a2.706,2.706,0,0,0,.355-.291,1.946,1.946,0,0,0,.288-.564l.034-.089a2.015,2.015,0,0,1,.415-.069A2.6,2.6,0,0,0,9.42,9.357a2.569,2.569,0,0,0,.669-1.649,1.674,1.674,0,0,1,.1-.492c.042-.031.153-.089.237-.134a2.42,2.42,0,0,0,.884-.657c.4.569.142,1.23-.258,2.063m.34,10.418a16.436,16.436,0,0,1,7.5-7.5l.595,3.862-4.154,4.171Zm5.086,2.641a.222.222,0,0,1-.109-.185,43.425,43.425,0,0,1,3.431-3.5c.717-.691,1.3-1.258,1.592-1.561a.608.608,0,0,1,.27.291,1.2,1.2,0,0,1-.064.909,27.581,27.581,0,0,1-3.916,4.022,1.611,1.611,0,0,1-1.2.029M20.3,7.419l-.018-.046-.415-.406a3.969,3.969,0,0,0,1-2.584c.581.347,1.512.926,1.645,1.416l.036,7.271.047.062c.083.109.171.221.261.336.605.775,1.359,1.739,1.246,2.567a1.313,1.313,0,0,1-.342.706A3.044,3.044,0,0,0,22.415,14.5a3.144,3.144,0,0,0-.9-.241l-.1-.017c-.115-.369-.32-1.861-.488-3.076A29.964,29.964,0,0,0,20.3,7.419M16.744,23.753c-.833.75-1.748.206-2.992-.685-.23-.164-.446-.32-.661-.457l-.056-.036-7.21-.039A6.31,6.31,0,0,1,4.37,20.881a4.647,4.647,0,0,0,2.209-.686,2.237,2.237,0,0,0,.374-.322,1.3,1.3,0,0,0,.78.494h0a28.744,28.744,0,0,0,3,.487,26.883,26.883,0,0,1,3.5.593c.022.063.054.195.079.3a3.306,3.306,0,0,0,.206.655,3.129,3.129,0,0,0,2.23,1.355" transform="translate(-0.02 0)" fill="#fff"/>
          <path id="Trazado_1263567" data-name="Trazado 1263567" d="M28.218,213.743a3.863,3.863,0,0,0-1.575-.127,6.405,6.405,0,0,1-.849,0c-.316-.031-.629-.088-.96-.149a9.627,9.627,0,0,0-1.287-.176L21.074,208c.13-.323.283-.651.444-1,.719-1.547,1.535-3.3.346-4.938-1.917-2.642-4.654-1.314-6.854-.247l-.044.021a11.906,11.906,0,0,1-2.331-1.105c-1.592-.888-3.238-1.807-4.7-1.308-.944.321-4.448,3.714-5.189,4.548-2.494,2.807-3.325,4.24-2.137,8.181a3.978,3.978,0,0,0,.285.628,2.668,2.668,0,0,1,.295.7c-.032.1-.2.417-.332.676a8.922,8.922,0,0,0-.665,1.46A5.689,5.689,0,0,0,2.62,221.9a5.892,5.892,0,0,0,6.782-.192,11.417,11.417,0,0,0,4.417,1.183,4.936,4.936,0,0,0,.533-.028c2.817-.306,6.388-4.407,8.855-7.512.268.011.7.059,1.2.113,2.082.228,3.706.363,4.109-.142a1.194,1.194,0,0,0,.156-.989.831.831,0,0,0-.451-.594M8.742,212.036a2.722,2.722,0,0,0,1.787.32,1.927,1.927,0,0,0,.248,1.469,4.754,4.754,0,0,1,.256.574,3.386,3.386,0,0,1-.022,2.545,14.772,14.772,0,0,0-2.958-5.175,5.147,5.147,0,0,1,.688.268m-4.2.979c.337-.317.684-.643,1-.977,1.175,1.288,3.742,4.209,3.524,6.394a2.341,2.341,0,0,1-1.036,1.719,3.666,3.666,0,0,1-3.864.285,3.749,3.749,0,0,1-2.115-3.291c-.025-1.761,1.255-2.965,2.492-4.13m7.18,6.379a5.643,5.643,0,0,0,.8-.952,5.28,5.28,0,0,0,.727-3.756,3.2,3.2,0,0,0-.319-.912,2.633,2.633,0,0,1-.253-.687,2.531,2.531,0,0,1,.055-.806,1.683,1.683,0,0,0-.374-1.685,1.562,1.562,0,0,0-1.832-.369,1.642,1.642,0,0,1-.615.111,2.439,2.439,0,0,1-.608-.249,4.119,4.119,0,0,0-1.278-.462,7.386,7.386,0,0,0-1.3,0,6.453,6.453,0,0,1-1.292-.013l-.11-.016L2.755,212a11.308,11.308,0,0,1-.709-3.127c.073-1.336,2.823-4.252,4.652-5.886.414-.369,1.829-1.577,2.047-1.7a.8.8,0,0,1,.47.037l.055.015a9.2,9.2,0,0,1,2.069,1.02,9.784,9.784,0,0,0,2.517,1.194l-.115,1.322a9.589,9.589,0,0,1-1.487-.445c-1.119-.39-2.276-.793-2.844-.589a24.49,24.49,0,0,0-2.917,2.406,1.263,1.263,0,0,0-.08,1.226l.02.035a.826.826,0,0,0,.6.377c.673.079,1.485-.648,2.2-1.29a5.5,5.5,0,0,1,.875-.7,17.334,17.334,0,0,0,6.88,6.887,6.767,6.767,0,0,1-1.041,1.35,4.678,4.678,0,0,0-.911,1.2,1.031,1.031,0,0,0,.417,1.17,1.044,1.044,0,0,0,1.271-.08,33.13,33.13,0,0,0,2.368-2.911,6.194,6.194,0,0,0-.634-2.887,10.6,10.6,0,0,1-.423-1.331l1.242-.13a18.427,18.427,0,0,0,1.031,1.985,10.532,10.532,0,0,1,1.3,2.79.9.9,0,0,1-.237.585l-.038.055a27.4,27.4,0,0,1-6.167,5.874c-1.3.68-2.311.346-3.591-.078-.171-.057-.346-.115-.526-.171a4.613,4.613,0,0,1,.675-.8m4.116-10.365c.079.243.156.478.209.714a21.32,21.32,0,0,1-2.908-2.923l2.407.578a4.1,4.1,0,0,0,.292,1.631m1.74-1.793a1.3,1.3,0,0,1,.032-.317,9.538,9.538,0,0,1,2.1-2.256c.252-.227.484-.436.678-.62a5.212,5.212,0,0,1-.774,2.154c-.114.215-.231.436-.34.661Zm.326-3.745a9.514,9.514,0,0,1-1.662,1.678,1.052,1.052,0,0,1-.626.128l.271-1.6c.189-.089.378-.183.567-.276a8.257,8.257,0,0,1,2.279-.862c-.258.272-.539.6-.83.936" transform="translate(0 -168.513)" fill="#fff"/>
        </g>
      </g>
    </g>
  </g>
</svg>
