<svg xmlns="http://www.w3.org/2000/svg" xmlns:xlink="http://www.w3.org/1999/xlink" width="84" height="84" viewBox="0 0 84 84">
  <defs>
    <clipPath id="clip-path">
      <rect id="Rect치ngulo_457415" data-name="Rect치ngulo 457415" width="65" height="65.014" fill="#5d0b80"/>
    </clipPath>
  </defs>
  <g id="Grupo_1205918" data-name="Grupo 1205918" transform="translate(-185.988 -1046.591)">
    <rect id="Rect치ngulo_455472" data-name="Rect치ngulo 455472" width="84" height="84" rx="12" transform="translate(185.988 1046.591)" fill="#ffe9a1"/>
    <g id="Grupo_1206614" data-name="Grupo 1206614" transform="translate(194.988 1055.591)">
      <g id="Grupo_1206613" data-name="Grupo 1206613" clip-path="url(#clip-path)">
        <path id="Trazado_1263965" data-name="Trazado 1263965" d="M169.042,43.511a13.736,13.736,0,0,1,14.542,10.121c1.239,4.908-.5,10.262,1.346,14.981a24.247,24.247,0,0,0,3.317,5.123c.1,1.117-4.912,5.164-5.7,6.337,4.107,5.412,1.934,12.673,2.487,19,.016.564-.422.854-.915,1.006l-27.047.045a1.353,1.353,0,0,1-1.353-1.144c.249-6.295-1.515-13.523,2.592-18.906-.073-.419-4.711-4.482-5.364-5.4a1.385,1.385,0,0,1-.39-.953c1.212-1.6,2.6-3.007,3.363-4.909,1.813-4.538.2-9.894,1.146-14.6a13.738,13.738,0,0,1,11.977-10.689m5.649,28.217.043,4.2a12.939,12.939,0,0,1,6.161,2.644l4.684-4.7a18.207,18.207,0,0,1-3.381-7.136c-1.107-5.969,1.444-11.776-2.943-17.033a11.607,11.607,0,0,0-18.129.491c-3.764,5.129-1.457,10.993-2.47,16.739a16.1,16.1,0,0,1-3.392,6.941l4.693,4.725a12.347,12.347,0,0,1,6.16-2.668l.052-4.209a8.8,8.8,0,0,1-4.759-5.516c-.925-3.126-.134-7.084-.391-10.356.338-1.211,1.411-.751,2.343-.923a9.225,9.225,0,0,0,3.974-1.6c1.494-1.088.986-1.607,3.376-1.42,3.944.308,6.626,3.141,9.087,5.894.334,5.435.406,11.15-5.107,13.925M163.146,57.112c.233,3.368-.811,7.148,1.052,10.145a7.324,7.324,0,0,0,13.472-3.015,31.19,31.19,0,0,0,.064-5.335c-.082-.616-1.572-2.03-2.121-2.489-1.271-1.064-3.778-2.568-5.48-2.417-.561.05-2.461,1.665-3.318,2.075a12.609,12.609,0,0,1-3.669,1.036m9.392,15.539a14.694,14.694,0,0,1-4.226,0v4.9a7.475,7.475,0,0,0,.574.909,2.181,2.181,0,0,0,2.893.06,5.586,5.586,0,0,0,.76-1.161Zm-14.79,14.31c-.316,3.42.235,7.287,0,10.757l.288.288H182.91v-12.2a17.1,17.1,0,0,0-.8-2.278,9.2,9.2,0,0,0-7.667-5.419,4.243,4.243,0,0,1-8.165-.087,9.872,9.872,0,0,0-8.535,8.937" transform="translate(-123.249 -35.109)" fill="#5d0b80"/>
        <path id="Trazado_1263966" data-name="Trazado 1263966" d="M18.958,31.03l-.02,4.593c1.414-.112,1.947-.049,2.114,1.44l-.011,22.463c-.154.979-.871.973-1.089,1.312-.156.241-.209,1.158-.4,1.618a4.215,4.215,0,0,1-7.625.059c-.387-.874-.2-1.7-1.228-2.229-.491-7.792-.075-15.754-.212-23.61-.015-1.291,1.152-1.053,2.114-1.052l-.01-4.6a15.653,15.653,0,1,1,6.367.01m-3.9-28.965c-18.205.988-16.4,28.688,1.861,27.214,17.441-1.407,15.7-28.167-1.861-27.214M16.827,31.4H14.714v4.226h2.113Zm2.113,6.339H12.6V58.671h6.339Zm-1.153,23.05H13.561c.545,2.671,3.894,2.809,4.226,0" transform="translate(0 0)" fill="#5d0b80"/>
        <path id="Trazado_1263967" data-name="Trazado 1263967" d="M33.061,21.562c15.021-1.172,16.66,21.576,2.246,22.991-15.718,1.542-17.5-21.8-2.246-22.991m0,2.112c-12.3,1.141-10.878,20.212,2.229,18.747,11.523-1.288,10.16-19.9-2.229-18.747" transform="translate(-18.194 -17.385)" fill="#5d0b80"/>
        <path id="Trazado_1263968" data-name="Trazado 1263968" d="M56.875,62.464c.422-.129,1.728,1.129,1.524,1.524L50.942,72.3a1.1,1.1,0,0,1-.616.15c-.647-.068-3.878-3.912-4.709-4.52l1.437-1.437,3.431,3.248Z" transform="translate(-36.855 -50.458)" fill="#5d0b80"/>
      </g>
    </g>
  </g>
</svg>
