<svg xmlns="http://www.w3.org/2000/svg" xmlns:xlink="http://www.w3.org/1999/xlink" width="84" height="84" viewBox="0 0 84 84">
  <defs>
    <clipPath id="clip-path">
      <rect id="Rect치ngulo_457473" data-name="Rect치ngulo 457473" width="63.736" height="64" fill="#5d0b80"/>
    </clipPath>
  </defs>
  <g id="Grupo_1205934" data-name="Grupo 1205934" transform="translate(-185.277 -1051.023)">
    <rect id="Rect치ngulo_455472" data-name="Rect치ngulo 455472" width="84" height="84" rx="12" transform="translate(185.277 1051.023)" fill="#ffe9a1"/>
    <g id="Grupo_1206647" data-name="Grupo 1206647" transform="translate(195.277 1061.023)">
      <g id="Grupo_1206646" data-name="Grupo 1206646" clip-path="url(#clip-path)">
        <path id="Trazado_1264136" data-name="Trazado 1264136" d="M52.561,4.027a17.365,17.365,0,0,1,1.8.861c1.2.923,1.407,2.328,1.875,2.794.163.162,1.227.429,1.7.773,1.246.9,1.649,2.594,1.976,2.878.147.127,1.175.4,1.6.694a5.558,5.558,0,0,1,2.174,3.32l.051,37.4a5.1,5.1,0,0,1-4.881,4.83H27.609A5.45,5.45,0,0,1,23.8,55.52c-.365-.507-.712-1.619-1.068-1.861-1.1-.752-4.19-.924-5.419-2.11a5.274,5.274,0,0,0-1.464,1.285c-.243.531-.017,1.307-.107,1.9-.146.968-2.325,3.7-3.311,2.211-.755-1.14,1.933-1.747,1.406-3.395a20.157,20.157,0,0,0-3.4-3.382c-.811-.259-1.183.173-1.76.647a64.992,64.992,0,0,0-6.338,6.3,1.734,1.734,0,0,0-.366,1.454c.09.47,3.22,3.53,3.78,3.566,1.217.078,3.289-3.271,4.31-3.738.554-.254,1.381-.135,1.474.556.145,1.077-2.805,3.086-3.392,4.015-1.765,1.485-3.069,1.276-4.789-.106-1.862-1.5-4.387-3.807-2.893-6.333a97.229,97.229,0,0,1,7.666-7.725,3.626,3.626,0,0,1,2.86-.464l1.442-1.49a26.332,26.332,0,0,1-1.659-4.139,14.1,14.1,0,0,1-.069-7.238c.233-.955.914-2.174,1.017-3.008.7-5.69-.528-12.78,0-18.629a6.722,6.722,0,0,1,1.84-4.016,80.433,80.433,0,0,1,8-7.944A6.783,6.783,0,0,1,25.056.258c7.283-.785,15.883.523,23.3,0a5.472,5.472,0,0,1,3.575,2.292c.233.365.492,1.363.626,1.479M38.913,44.612h9.651c.564,0,2.239-1.692,2.118-2.461L50.687,4.7a3.043,3.043,0,0,0-3.035-2.646L26.178,2.1c-2.486.5-1.374,5.018-1.653,6.942A4.992,4.992,0,0,1,20.233,13c-1.592.189-4.948-.442-6.049.565a2.735,2.735,0,0,0-.457.642V29.455c11.248-12.593,31.24-.611,25.185,15.158m-23.9-33.42h4.872c.961,0,2.849-1.5,2.849-2.465v-5.2ZM36.707,48.265H52.24a4.078,4.078,0,0,0,2.028-2l.091-38.086a2.7,2.7,0,0,0-1.659-2.1V42.147a12.576,12.576,0,0,1-.575,1.62,4.694,4.694,0,0,1-3.738,2.679c-3.217.286-6.85-.231-10.115,0-.647.125-1.065,1.364-1.566,1.823M60.053,13.384v5.022c0,.887-1.838.955-1.838.365V12.38a3.28,3.28,0,0,0-1.838-2.648V45.617A5.153,5.153,0,0,1,52.71,50.01l-17.391.073-2.841,1.834H55.917A9.287,9.287,0,0,0,57.3,51.1a5.583,5.583,0,0,0,.919-2.009V21.511c0-.476,1.642-.991,1.843.726L60.05,49.084a5.2,5.2,0,0,1-4.869,4.843H25.125a2.748,2.748,0,0,0,1.649,1.558c11.04.086,22.177.259,33.2-.088,1.483-.606,1.821-1.914,1.929-3.38.833-11.391-.644-23.767,0-35.261-.126-1.416-.385-2.786-1.845-3.371M23.058,26.214a13.494,13.494,0,0,0-9.548,6.95C7.822,44.806,20.8,56.691,31.912,49.985c11.857-7.158,5.593-25.577-8.854-23.771m-7.51,23.9-1.912-1.665-1,1.012,1.951,1.889c.252.007,1.135-.988.965-1.236" transform="translate(0 0)" fill="#5d0b80"/>
        <path id="Trazado_1264137" data-name="Trazado 1264137" d="M89.156,154.522c14.07-.6,15.058,20.88.87,21.5-14.027.615-15.19-20.9-.87-21.5m-1.112,2a9.067,9.067,0,0,0-6.606,5.125A8.89,8.89,0,0,0,93.33,173.281c9-4.029,5.408-18.193-5.286-16.756" transform="translate(-64.435 -126.292)" fill="#5d0b80"/>
        <path id="Trazado_1264138" data-name="Trazado 1264138" d="M99.072,184.6a3,3,0,0,1,3.6-.329l1.385,1.36c1.443-1.718,2.2-5.655,5.1-5.255a2.937,2.937,0,0,1,2.512,3.506c-.136.936-3.615,6.927-4.364,8.082-1.094,1.688-2.84,2.789-4.718,1.338a42.155,42.155,0,0,1-4.226-5.479,3.041,3.041,0,0,1,.7-3.223m6.135,7.187,4.567-7.974c.418-1.309-.729-1.948-1.768-1.2l-2.956,5.281c-1.436,1.809-2.527-1.615-3.282-1.985-1.125-.551-2.034.246-1.486,1.477a37.339,37.339,0,0,0,3.045,3.913c.519.532,1.086,1.141,1.88.492" transform="translate(-80.134 -147.414)" fill="#5d0b80"/>
      </g>
    </g>
  </g>
</svg>
