<svg xmlns="http://www.w3.org/2000/svg" xmlns:xlink="http://www.w3.org/1999/xlink" width="150.5" height="150.501" viewBox="0 0 150.5 150.501">
  <defs>
    <clipPath id="clip-path">
      <rect id="Rectángulo_455261" data-name="Rectángulo 455261" width="38.951" height="37.623" fill="#e6fffa"/>
    </clipPath>
    <clipPath id="clip-path-2">
      <rect id="Rectángulo_457631" data-name="Rectángulo 457631" width="90.569" height="90.521" fill="#5d0b80"/>
    </clipPath>
  </defs>
  <g id="Grupo_1205860" data-name="Grupo 1205860" transform="translate(-307.436 -10011.92)">
    <path id="Sustracción_130" data-name="Sustracción 130" d="M26.051,25.795H0V11.245H11.352V0h14.7V25.795Z" transform="translate(431.641 10038.471) rotate(-90)" fill="#e3a4fe" stroke="rgba(0,0,0,0)" stroke-miterlimit="10" stroke-width="1"/>
    <g id="Grupo_1178100" data-name="Grupo 1178100" transform="translate(307.436 10162.421) rotate(-90)">
      <path id="Trazado_998183" data-name="Trazado 998183" d="M0,0V37.623H25.58V24.056H38.951V0Z" transform="translate(0 0)" fill="#5d0b80"/>
      <g id="Grupo_1178099" data-name="Grupo 1178099" transform="translate(0 0)">
        <g id="Grupo_1178098" data-name="Grupo 1178098" clip-path="url(#clip-path)">
          <path id="Trazado_998184" data-name="Trazado 998184" d="M0,9.021a9.025,9.025,0,1,1,9.025,9.021A9.023,9.023,0,0,1,0,9.021" transform="translate(4.434 5.629)" fill="#e3a4fe"/>
        </g>
      </g>
    </g>
    <g id="Grupo_1177470" data-name="Grupo 1177470" transform="translate(308.059 10012.421)">
      <circle id="Elipse_13609" data-name="Elipse 13609" cx="74.688" cy="74.688" r="74.688" fill="#fff"/>
      <g id="Grupo_1099776" data-name="Grupo 1099776" transform="translate(28.822 28.945)">
        <g id="Grupo_1099618" data-name="Grupo 1099618" transform="translate(0.267 -4.366)">
          <rect id="Rectángulo_401104" data-name="Rectángulo 401104" width="90.569" height="91.661" transform="translate(0)" fill="none"/>
        </g>
        <g id="Grupo_1206764" data-name="Grupo 1206764" transform="translate(0.267 -3.366)">
          <g id="Grupo_1206763" data-name="Grupo 1206763" clip-path="url(#clip-path-2)">
            <path id="Trazado_1264597" data-name="Trazado 1264597" d="M181.674,51.061c-.341-1.346-2.816-1.913-2.865-2.116L178.824,46c2.494.4,4.71,1.642,5.629,4.093.769,17.882.12,35.924.33,53.864a6.076,6.076,0,0,1-5.592,5.564c-.518.062-.32.015-.37-.369-.108-.835.064-1.856.011-2.718.854.363,2.842-1.338,2.842-1.955v-4.02h-7.261a13.6,13.6,0,0,1-.731,2.251c-.335.733-1.494,2.333-1.225,2.929,3.244,3.786,7.949,7.216,11.038,11.022,3.775,4.653-1.582,10.165-6.213,6.991l-11.334-11.238c-13.922,10.024-34.047,2.911-37.989-13.866a24.252,24.252,0,0,1,29.913-29.135C170.149,72.64,177.5,84.927,175.45,97.35h6.224ZM151.026,71.746c-15.5.395-25.363,17.208-18.149,30.964,6.13,11.688,21.809,15.057,32.063,6.561,15.456-12.806,6.138-38.037-13.914-37.526M170.4,107.983l-2.207,2.464,10.5,10.5c1.879,1.451,3.906-.221,2.582-2.323Z" transform="translate(-94.272 -34.074)" fill="#5d0b80"/>
            <path id="Trazado_1264598" data-name="Trazado 1264598" d="M107.387,42.271h-2.853V18.543l-.389-.389H96.755V29.434l-4.8,4.793-2.2-2.2,4.091-4.2.011-10.409c-2.521-.865-3.647-3.065-4.621-5.362l-10.972-.07-.968.588L49.412,40.458l.13.654,7.517,7.548-1.8,2.048-9.221-8.94a1.556,1.556,0,0,1-.128-1.975L76.657,9.077H89.234V3.113H40.092c-.78,0-2.2,2.216-2.2,2.982V60.424H35.035V4.8a18.1,18.1,0,0,1,1.081-2.29A6.431,6.431,0,0,1,40.35,0L90.905.016l1.187.628,15.3,15.305ZM102.2,15.042l-9.854-9.6v6.094c0,1.062,2.451,3.5,3.5,3.5Z" transform="translate(-25.949)" fill="#5d0b80"/>
            <path id="Trazado_1264599" data-name="Trazado 1264599" d="M5.325,109.551A6.208,6.208,0,0,1,0,103.726L.012,51.595c.324-3.227,2.825-5.041,5.837-5.574l.089,3.072c-.773-.03-2.817,1.335-2.817,1.98v46.29h26.97v3.112H3.121v4.02a5.2,5.2,0,0,0,1.945,1.945H31.647v3.112Z" transform="translate(0 -34.087)" fill="#5d0b80"/>
            <path id="Trazado_1264600" data-name="Trazado 1264600" d="M110.035,309l.243-3,3.418-.263L116.78,295l2.872.943-2.874,9.95h19.968l-.779-2.59,2.73-.746,1.194,3.3,3.483.277.113,2.869Z" transform="translate(-81.5 -218.497)" fill="#5d0b80"/>
            <path id="Trazado_1264601" data-name="Trazado 1264601" d="M179.769,92.015l-3.108.516-1.293-6.357-5.787-1.11-3.256,3.245,1.256,6.821-2.7.49c-.327-.109-.334-.349-.4-.632a62.661,62.661,0,0,1-1.261-7.711,52.831,52.831,0,0,1,5.321-5.319,4.923,4.923,0,0,1,1.733-.022,49.5,49.5,0,0,1,6.908,1.388c.659.263.729.493.964,1.111.84,2.209.83,5.288,1.625,7.58" transform="translate(-120.891 -60.638)" fill="#5d0b80"/>
            <rect id="Rectángulo_457626" data-name="Rectángulo 457626" width="15.041" height="3.112" transform="translate(15.05 15.042)" fill="#5d0b80"/>
            <path id="Trazado_1264602" data-name="Trazado 1264602" d="M72.956,81v3.112H57.915c.134-1-.371-2.359.389-3.112Z" transform="translate(-42.865 -59.997)" fill="#5d0b80"/>
            <path id="Trazado_1264603" data-name="Trazado 1264603" d="M72.956,221v3.112H58.3c-.76-.753-.255-2.111-.389-3.112Z" transform="translate(-42.865 -163.691)" fill="#5d0b80"/>
            <rect id="Rectángulo_457627" data-name="Rectángulo 457627" width="10.632" height="2.853" transform="translate(15.05 51.347)" fill="#5d0b80"/>
            <path id="Trazado_1264604" data-name="Trazado 1264604" d="M229.562,58.077c3.827-.573,4.675,5.114,1.435,5.86a3.025,3.025,0,1,1-1.435-5.86" transform="translate(-168.155 -42.986)" fill="#5d0b80"/>
            <rect id="Rectángulo_457628" data-name="Rectángulo 457628" width="9.076" height="2.853" transform="translate(15.05 27.23)" fill="#5d0b80"/>
            <path id="Trazado_1264605" data-name="Trazado 1264605" d="M132.07,130.076l4.484,4.3-1.962,2.15-4.484-4.3Z" transform="translate(-96.367 -96.343)" fill="#5d0b80"/>
            <path id="Trazado_1264606" data-name="Trazado 1264606" d="M115.012,147.021l4.534,4.534-1.992,1.917c-.322.12-.5-.054-.738-.216a42.774,42.774,0,0,1-3.721-3.828c-.2-.757,1.469-1.788,1.917-2.407" transform="translate(-83.754 -108.895)" fill="#5d0b80"/>
            <rect id="Rectángulo_457629" data-name="Rectángulo 457629" width="3.115" height="3.115" transform="translate(15.049 5.964)" fill="#5d0b80"/>
            <path id="Trazado_1264607" data-name="Trazado 1264607" d="M84.062,23v3.115H80.947c.107-.675-.259-2.65.244-3Z" transform="translate(-59.934 -17.034)" fill="#5d0b80"/>
            <rect id="Rectángulo_457630" data-name="Rectángulo 457630" width="2.855" height="3.115" transform="translate(27.237 5.964)" fill="#5d0b80"/>
            <path id="Trazado_1264608" data-name="Trazado 1264608" d="M167.476,157.017c14.539-1.481,24.894,14.182,17.637,26.973-7.13,12.567-25.6,12.09-31.984-.85a18.2,18.2,0,0,1,14.346-26.123m16.391,13.666c-3.361-10.63-16.9-14.349-25.033-6.488-1.566,1.513-3.562,4.352-3.624,6.489,6.407-5.053,15.469-5.923,23.02-3.049Zm-15.887-1.492c-6.1,1.036-6.177,10.783.26,11.8,9.35,1.483,9.457-13.455-.26-11.8m-6.676,1.5c-1.174.03-6.611,3.609-6.463,4.5A18.532,18.532,0,0,0,161.3,179.5a10.221,10.221,0,0,1,0-8.816m16.082,8.816a17.464,17.464,0,0,0,6.461-4.315c.157-.914-5.162-4.381-6.331-4.505.026,1.027.693,1.984.838,3.052a10.679,10.679,0,0,1-.968,5.768m6.219,0a24.194,24.194,0,0,1-28.4,0c-.933-.3,1.886,4.368,2.1,4.645,7.4,9.756,22.955,7.064,26.3-4.647" transform="translate(-112.025 -116.226)" fill="#5d0b80"/>
            <path id="Trazado_1264609" data-name="Trazado 1264609" d="M211.881,215.026c4.118-.8,5.1,5.958.675,6.079-3.759.1-4.212-5.391-.675-6.079" transform="translate(-155.146 -159.215)" fill="#5d0b80"/>
          </g>
        </g>
      </g>
    </g>
  </g>
</svg>
