<svg xmlns="http://www.w3.org/2000/svg" xmlns:xlink="http://www.w3.org/1999/xlink" width="127" height="128" viewBox="0 0 127 128">
  <defs>
    <clipPath id="clip-path">
      <rect id="Rect치ngulo_457581" data-name="Rect치ngulo 457581" width="61.445" height="79.731" fill="#5d0b80"/>
    </clipPath>
  </defs>
  <g id="Grupo_1205886" data-name="Grupo 1205886" transform="translate(-0.082)">
    <ellipse id="Elipse_13609" data-name="Elipse 13609" cx="63.5" cy="64" rx="63.5" ry="64" transform="translate(0.082)" fill="#fff"/>
    <g id="Grupo_1099776" data-name="Grupo 1099776" transform="translate(23.859 24)">
      <g id="Grupo_1099618" data-name="Grupo 1099618" transform="translate(0 0)">
        <rect id="Rect치ngulo_401104" data-name="Rect치ngulo 401104" width="78.706" height="80.124" transform="translate(0)" fill="none"/>
      </g>
      <g id="Grupo_1206696" data-name="Grupo 1206696" transform="translate(8.631)">
        <g id="Grupo_1206695" data-name="Grupo 1206695" clip-path="url(#clip-path)">
          <path id="Trazado_1264416" data-name="Trazado 1264416" d="M37.492,130.424a23.573,23.573,0,0,1,3.553,1.132,23.827,23.827,0,0,0,2.072,1.356c1.119.3,3.366.1,4.9.356a15.937,15.937,0,0,1,13.22,14.2c.667,8.841-.521,18.505,0,27.434a3.99,3.99,0,0,1-3.766,3.318H3.979A3.99,3.99,0,0,1,.213,174.9c.517-8.929-.67-18.592,0-27.434.6-7.922,7.112-13.626,14.777-14.471a28.588,28.588,0,0,0,3.343-.084c.525-.139,1.55-1.1,2.23-1.426.827-.391,2.91-.743,3.291-1.006s-.294-2.413,1.215-2.727c2.544-.529,1.481,3.979,1.659,5.557a4.014,4.014,0,0,0,7.978.208c.178-1.31-.451-4.967.577-5.592,1.683-1.024,2.427,1.1,2.214,2.5M23.978,142.79a14.152,14.152,0,0,1,3.2-4L25.163,136.7l-1.312-3.481c-.805.125-3.7,1.151-3.759,1.918-.088,1.091,1.148,4.1,1.716,5.148.223.414,1.666,2.86,2.171,2.508m13.49,0c.506.353,1.944-2.1,2.171-2.508.6-1.095,1.811-3.984,1.716-5.148-.064-.786-2.96-1.763-3.757-1.942a9.258,9.258,0,0,1-3.328,5.6,14.151,14.151,0,0,1,3.2,4M3.532,175.467h7.2v-17.48c0-1.341,2.742-1.341,2.742,0v17.48h34.5v-17.48c0-1.341,2.742-1.341,2.742,0v17.48h7.2a2.088,2.088,0,0,0,.8-1.48c-.473-8.259.617-17.186-.008-25.365-.6-7.875-6.867-13.582-14.848-12.912a14.794,14.794,0,0,1-2.422,6.833c-.78,1.165-3.493,4.69-5,3.445-.478-.394-.538-1.661-1.258-1.6l2.233,15.371a3.956,3.956,0,0,1-.632,1.425,56.158,56.158,0,0,1-4,4.216,2.837,2.837,0,0,1-3.82.226c-.384-.238-4.024-4.06-4.294-4.441a3.956,3.956,0,0,1-.632-1.425l2.233-15.371-1.521,1.788c-1.221.424-2.481-.889-3.258-1.746a15.136,15.136,0,0,1-3.9-8.725c-8.171-.577-14.3,5.029-14.86,13.128-.555,8.08.443,16.78,0,24.926a2.046,2.046,0,0,0,.811,1.7m27.014-35.611c-.892.144-2.226,1.744-2.9,2.365a3.973,3.973,0,0,0,6.16,0c-.685-.663-2.284-2.521-3.257-2.365m2.12,6.362H28.78l-2.045,12.947c-.075.282.075.442.2.66.627,1.072,2.982,2.6,3.785,3.756l3.962-4.039Z" transform="translate(0 -98.487)" fill="#5d0b80"/>
          <path id="Trazado_1264417" data-name="Trazado 1264417" d="M79.925,23.969h5.712c.065-.456-.381-.6-.458-1.04a1.354,1.354,0,0,1,1.666-1.663c.463.138,3.615,3.425,3.615,3.959s-3.164,3.832-3.616,3.961c-1.2.342-1.852-.53-1.666-1.664.072-.439.529-.582.46-1.04H53.99c-.972,0-.972-2.513,0-2.513H63.7c-1.794-1.878-3.424-3.533-4.346-6.05-.5-1.362-1.729-5.44.225-5.964,1.817-.487,1.488,1.766,1.671,2.7,2.624,13.4,20.618,11.305,21.2-.841.388-8.14-8.38-13.867-15.546-9.835,1.235.316,1.505,2.22.3,2.582a28.4,28.4,0,0,1-4.52.038,1.436,1.436,0,0,1-.915-.685,23.438,23.438,0,0,1-.114-4.673A1.275,1.275,0,0,1,64.039.9c.2.462-.086,1.581.458,1.364.492-.2,1.315-.894,2.019-1.181A13.287,13.287,0,0,1,84.481,17.215c-.81,2.835-2.567,4.713-4.556,6.755" transform="translate(-41.091 -0.001)" fill="#5d0b80"/>
          <path id="Trazado_1264418" data-name="Trazado 1264418" d="M129.677,308c1.98-.3,2.058,4.061.177,4.061-1.752,0-1.817-3.811-.177-4.061" transform="translate(-99.131 -237.614)" fill="#5d0b80"/>
        </g>
      </g>
    </g>
  </g>
</svg>
