<svg xmlns="http://www.w3.org/2000/svg" xmlns:xlink="http://www.w3.org/1999/xlink" width="84" height="84" viewBox="0 0 84 84">
  <defs>
    <clipPath id="clip-path">
      <rect id="Rect치ngulo_457405" data-name="Rect치ngulo 457405" width="70.186" height="77.382" fill="#5d0b80"/>
    </clipPath>
  </defs>
  <g id="Grupo_1205918" data-name="Grupo 1205918" transform="translate(-185.988 -1046.591)">
    <rect id="Rect치ngulo_455472" data-name="Rect치ngulo 455472" width="84" height="84" rx="12" transform="translate(185.988 1046.591)" fill="#ffe9a1"/>
    <g id="Grupo_1206595" data-name="Grupo 1206595" transform="translate(192.136 1049.343)">
      <g id="Grupo_1206594" data-name="Grupo 1206594" clip-path="url(#clip-path)">
        <path id="Trazado_1263880" data-name="Trazado 1263880" d="M113.417,113.479c1.006.083,2.5,1.66,3.233,1.777.836.134,1.838-1.351,2.958-.247.547,1.608,2.973,4.3,3.272,5.774.348,1.713-.659,1.335-1.406,2.045-.6.574.2,2.814-.293,3.85.247.912,2.1.463,1.7,2.437-.3,1.484-2.769,4.262-3.345,5.87-1.114.917-2.083-.473-2.886-.344-.735.117-2.226,1.695-3.233,1.777-.12.821.256,2.088-.707,2.513a48.668,48.668,0,0,1-7.164.069c-1.1-.315-.77-1.734-.86-2.582-1.007-.083-2.5-1.66-3.233-1.777-.8-.128-1.772,1.262-2.886.344-.235-.193-2.83-4.7-3.07-5.253-1.16-2.657,1.142-2.013,1.424-3.055-.49-1.036.31-3.277-.293-3.85-.746-.71-1.753-.332-1.406-2.045.3-1.485,2.769-4.261,3.345-5.871,1.114-.917,2.083.472,2.886.344.735-.117,2.226-1.694,3.233-1.777.09-.849-.235-2.267.86-2.583a55.705,55.705,0,0,1,7.011,0c1.1.315.771,1.734.86,2.583m-2.255-.41h-4.221c.451,2.492-1.416,2.356-3.039,3.289-1.361.782-2.078,2.4-3.778.965l-.287.058-2.005,3.563c0,.13,1.383.406,1.52,1.387-.883,2.214,1.239,5.77-1.52,6.624l2.144,3.634c1.949-1.409,2.427.091,3.925.952,1.624.933,3.49.8,3.039,3.289h4.221c-.451-2.491,1.416-2.356,3.039-3.289,1.361-.782,2.078-2.4,3.778-.965l.287-.058,2-3.563c0-.13-1.382-.406-1.52-1.387.883-2.214-1.239-5.77,1.52-6.624l-2.144-3.634c-1.949,1.409-2.427-.091-3.926-.952-1.624-.933-3.49-.8-3.039-3.289" transform="translate(-74.024 -86.187)" fill="#5d0b80"/>
        <path id="Trazado_1263881" data-name="Trazado 1263881" d="M219.095,190.58c9.594-9.873,25.354,3.969,16.245,14.8-9.6,11.413-26.731-4.01-16.245-14.8m13.467,14.131c.317.376,1.675-1.6,1.818-1.843a8.715,8.715,0,0,0-11.564-12.23c-5.158,2.669-6.2,10.389-1.582,14.074a4.021,4.021,0,0,1,1.7-2.852c1.075-.635,5.287-.648,6.633-.483a3.325,3.325,0,0,1,2.993,3.335m-8.057-1.061a1.805,1.805,0,0,0-.937,2.394c.607,1.258,6.4,1.1,6.742.081.277-.824.118-2.13-.846-2.423a22.57,22.57,0,0,0-4.958-.052" transform="translate(-167.892 -145.635)" fill="#5d0b80"/>
        <path id="Trazado_1263882" data-name="Trazado 1263882" d="M8.954,62.867c13.351-1.807,17.871,15.385,6.909,20.675A10.993,10.993,0,0,1,.846,69.635c1.189-3.152,4.708-6.308,8.108-6.768m7.828,17.261c5.769-4.813,2.536-14.6-4.99-15.106a8.727,8.727,0,0,0-8.077,13.4c.165.263,1.489,1.992,1.739,1.7a3.268,3.268,0,0,1,2.26-3.18,21.845,21.845,0,0,1,6.909.119,3.6,3.6,0,0,1,2.159,3.061m-2.255,1.524c.113-.951.088-2.339-1.015-2.585a19.418,19.418,0,0,0-5.294.16c-.622.371-.719,1.7-.51,2.315.384,1.138,5.775.938,6.819.11" transform="translate(-0.07 -48.805)" fill="#5d0b80"/>
        <path id="Trazado_1263883" data-name="Trazado 1263883" d="M219.153,80.85c-10.467-10.924,6.726-26.12,16.244-14.8,9.145,10.875-6.761,24.7-16.244,14.8M232.62,79.6c.5.591,2.408-2.944,2.548-3.334A8.729,8.729,0,0,0,223,65.424c-5.321,2.723-6.33,10.325-1.707,14.172a3.683,3.683,0,0,1,2.655-3.231,21.921,21.921,0,0,1,6.726.182A3.2,3.2,0,0,1,232.62,79.6m-9.072,1.524c1.044.828,6.436,1.028,6.819-.11.209-.62.112-1.944-.51-2.315a19.418,19.418,0,0,0-5.294-.16c-1.1.246-1.128,1.634-1.015,2.585" transform="translate(-167.95 -48.273)" fill="#5d0b80"/>
        <path id="Trazado_1263884" data-name="Trazado 1263884" d="M113.567,17.335c.165-2.219,1.822-3.185,3.878-3.339s5.386-.328,6.78,1.454l1,1.884a9.441,9.441,0,0,0,2.5-4.389c.236-.991-.007-3.43,1.282-3.357,2.353.134.757,4.823.152,6.124-4.2,9.038-17.769,7.964-20.456-1.607-3.264-11.626,11.64-19.3,19.2-9.87.7.875,1.4,2.394-.276,2.638-.751.109-1.925-1.829-2.607-2.419-7.163-6.2-17.618,1.774-13.633,10.3.159.34,1.748,2.993,2.191,2.58m9.083,1.755c.052-.653.193-2.349-.57-2.606a46.337,46.337,0,0,0-5.515-.037c-.818.151-.969,1.632-.74,2.3.459,1.327,5.678.983,6.824.347" transform="translate(-84.203 0)" fill="#5d0b80"/>
        <path id="Trazado_1263885" data-name="Trazado 1263885" d="M113.241,267.12a3.2,3.2,0,0,1,2.989-3.342,32.733,32.733,0,0,1,6.124.116c1.381.359,2.122,1.964,2.324,3.225,1.757-.688,2.432-4.871,3.051-5.5.757-.764,2.026-.173,1.934,1.136-.523,7.451-11,11.147-17.025,6.854-12.37-8.809,1.65-26.884,13.146-17.587,1.072.867,4.47,4.748,3.229,6.106-1.339,1.465-2.111-1.148-2.576-1.874a8.31,8.31,0,0,0-5.642-4.128c-8.857-1.977-14.335,9.164-7.554,14.99m9.077,1.525c.1-.839.224-2.295-.795-2.588a23.646,23.646,0,0,0-5.689.157,2.976,2.976,0,0,0-.241,2.486,9.4,9.4,0,0,0,6.725-.055" transform="translate(-83.878 -194.054)" fill="#5d0b80"/>
        <path id="Trazado_1263886" data-name="Trazado 1263886" d="M18.851,190.993c5.6,5.844,3.17,15.971-4.633,18.192A10.994,10.994,0,0,1,.9,194.317c.31-.745.816-2,1.7-1.959,2.4.1.307,2.766,0,3.882a8.851,8.851,0,0,0,2.45,8.884l1.121-2.2c1.354-1.513,4.922-1.279,6.879-1.133,2.307.172,3.115,1.216,3.764,3.339a8.726,8.726,0,0,0-7.08-15.074c-1.189.139-3.184,1.492-4.016.638-1.263-1.3,1.161-2.295,2.1-2.554a11.364,11.364,0,0,1,11.028,2.858m-10.2,13.07a1.741,1.741,0,0,0-.679,2.8c1.1.651,6.059.822,6.476-.566.206-.687-.072-1.936-.836-2.188a23.386,23.386,0,0,0-4.962-.05" transform="translate(0 -146.048)" fill="#5d0b80"/>
        <path id="Trazado_1263887" data-name="Trazado 1263887" d="M143.963,20.091c5.1-.816,5.979,6.886,1.259,7.478-5.2.651-6.029-6.715-1.259-7.478m.439,2.2c-1.791.283-1.739,3.282.373,3.072,2.019-.2,1.356-3.344-.373-3.072" transform="translate(-109.548 -15.583)" fill="#5d0b80"/>
        <path id="Trazado_1263888" data-name="Trazado 1263888" d="M144.133,270.217a3.777,3.777,0,1,1-2.887,5.661,3.787,3.787,0,0,1,2.887-5.661m-.24,2.443a1.494,1.494,0,0,0,.228,2.8,1.494,1.494,0,1,0-.228-2.8" transform="translate(-109.485 -210.203)" fill="#5d0b80"/>
        <path id="Trazado_1263889" data-name="Trazado 1263889" d="M35.313,207.909c5.623-1.163,6.436,7.125,1.251,7.483-4.617.319-5.525-6.6-1.251-7.483m-.1,4.772a1.549,1.549,0,0,0,2.49-1.708c-.98-2.142-4.182,0-2.49,1.708" transform="translate(-25.326 -161.659)" fill="#5d0b80"/>
        <path id="Trazado_1263890" data-name="Trazado 1263890" d="M136.5,153.729c1.154,1.149-.849,2.152-1.771,2.45-7.6,2.458-13.067-7.447-6.718-12.491a7.229,7.229,0,0,1,11.649,5.218c.063,1.089-.14,2.72-1.614,2.286-1.2-.353-.592-1.377-.663-2.008-.767-6.846-9.887-5.791-9.885.161a5.02,5.02,0,0,0,4.948,4.948c1.2,0,3.278-1.337,4.053-.564" transform="translate(-97.423 -110.584)" fill="#5d0b80"/>
        <path id="Trazado_1263891" data-name="Trazado 1263891" d="M252.091,207.972c5.733-1.067,6.175,7.133,1.248,7.482-4.862.344-5.483-6.694-1.248-7.482m2,4.77c1.692-1.706-1.51-3.85-2.49-1.708a1.549,1.549,0,0,0,2.49,1.708" transform="translate(-193.921 -161.72)" fill="#5d0b80"/>
        <path id="Trazado_1263892" data-name="Trazado 1263892" d="M35.3,82.934c6.642-1.232,5.812,8.729.1,7.345-3.89-.942-3.716-6.674-.1-7.345m-.106,4.775c1.021.965,3.23-.1,2.495-1.713-1.031-2.254-4.194.108-2.495,1.713" transform="translate(-25.31 -64.438)" fill="#5d0b80"/>
        <path id="Trazado_1263893" data-name="Trazado 1263893" d="M252.113,83.012c6.245-1.065,5.964,8.036.454,7.442-4.167-.449-4.4-6.77-.454-7.442m2,4.773c1.7-1.605-1.463-3.967-2.495-1.713-.736,1.608,1.473,2.678,2.495,1.713" transform="translate(-193.941 -64.512)" fill="#5d0b80"/>
      </g>
    </g>
  </g>
</svg>
