<svg xmlns="http://www.w3.org/2000/svg" xmlns:xlink="http://www.w3.org/1999/xlink" width="127" height="128" viewBox="0 0 127 128">
  <defs>
    <clipPath id="clip-path">
      <rect id="Rect치ngulo_457586" data-name="Rect치ngulo 457586" width="76.752" height="77.081" fill="#5d0b80"/>
    </clipPath>
  </defs>
  <g id="Grupo_1205893" data-name="Grupo 1205893" transform="translate(-0.019)">
    <ellipse id="Elipse_13609" data-name="Elipse 13609" cx="63.5" cy="64" rx="63.5" ry="64" transform="translate(0.019)" fill="#fff"/>
    <g id="Grupo_1099776" data-name="Grupo 1099776" transform="translate(23.859 24)">
      <g id="Grupo_1099618" data-name="Grupo 1099618" transform="translate(0 0)">
        <rect id="Rect치ngulo_401104" data-name="Rect치ngulo 401104" width="78.706" height="80.124" transform="translate(0)" fill="none"/>
      </g>
      <g id="Grupo_1206706" data-name="Grupo 1206706" transform="translate(1.954)">
        <g id="Grupo_1206705" data-name="Grupo 1206705" clip-path="url(#clip-path)">
          <path id="Trazado_1264440" data-name="Trazado 1264440" d="M10.6.087c14.95-1.593,18.489,20.171,4.5,23.7-17,4.3-21.227-21.923-4.5-23.7m9.1,17.149c.655.518,1.588-2.755,1.66-3.082,1.975-8.982-8.64-15.338-15.673-9.493C1.919,7.794,1.345,13.01,3.59,17.236c.4.3,1.087-1.163,1.326-1.429,4.293-4.792,11.828-4.367,14.785,1.429m-1.58,2.392c-1.141-4.9-7.631-6.19-11-2.66-1.684,1.762-1.907,2.628.359,3.772a10.051,10.051,0,0,0,10.644-1.112" transform="translate(0 -0.003)" fill="#5d0b80"/>
          <path id="Trazado_1264441" data-name="Trazado 1264441" d="M249.955.084c15.381-1.631,18.671,20.923,3.809,23.893C237.328,27.263,233.717,1.805,249.955.084m9.753,17.149c2.636-4.869,1.242-11.148-3.819-13.723-8.842-4.5-17.978,5.436-12.618,13.722l1.533-1.993a9.252,9.252,0,0,1,12.481-.546,15.764,15.764,0,0,1,1.8,2.175c.2.228.219.46.624.365m-14.531,2.393a10.051,10.051,0,0,0,10.644,1.112c1.482-.748,2.148-1.075,1.2-2.695-2.735-4.695-10.626-3.868-11.849,1.583" transform="translate(-186.604 0.001)" fill="#5d0b80"/>
          <path id="Trazado_1264442" data-name="Trazado 1264442" d="M11.5,239.323c15.7-.548,16.723,23.118,1.47,24.214-16.446,1.182-17.577-23.652-1.47-24.214M4.03,256.7c3.252-6.612,12.514-6.284,16,0,5.7-8.858-4.905-19.211-13.646-13.2C2.3,246.3.671,252.781,4.03,256.7m6.793-2.37A7.021,7.021,0,0,0,6.5,257.07c-1.082,1.6-.881,1.953.775,2.9a9.731,9.731,0,0,0,8.6.3c2.386-1.031,2.907-1.621,1.049-3.773a6.812,6.812,0,0,0-6.105-2.166" transform="translate(-0.005 -186.497)" fill="#5d0b80"/>
          <path id="Trazado_1264443" data-name="Trazado 1264443" d="M250.774,239.3c15.544-.839,17.095,23.082,1.474,24.209-16.1,1.162-17.693-23.334-1.474-24.209m8.432,17.371c3.359-3.918,1.727-10.395-2.358-13.2-8.767-6.029-19.334,4.371-13.646,13.2,3.49-6.28,12.753-6.608,16,0M250.1,254.3a6.67,6.67,0,0,0-4.978,4.294c0,.47.706.8,1.081,1.042a9.847,9.847,0,0,0,9.183.613c1.839-.825,2.558-1.381,1.356-3.206A6.889,6.889,0,0,0,250.1,254.3" transform="translate(-186.537 -186.47)" fill="#5d0b80"/>
          <path id="Trazado_1264444" data-name="Trazado 1264444" d="M103.076,87.28a1.355,1.355,0,0,1,1.582.95,39.081,39.081,0,0,1,.015,5.745,1.18,1.18,0,0,1-.215.668c-.212.3-3.768,1.433-4.659,1.962a11.688,11.688,0,0,0-4.733,5.64c-.318.73-.608,2.686-1.217,2.976a43.035,43.035,0,0,1-6.081.121c-2.028-.27-.751-3.706-.328-4.984,2.089-6.3,8.827-12.58,15.635-13.077m-.841,5.691v-3.09A17.506,17.506,0,0,0,89.214,102.9H92.3a14.193,14.193,0,0,1,9.932-9.932" transform="translate(-67.529 -68.013)" fill="#5d0b80"/>
          <path id="Trazado_1264445" data-name="Trazado 1264445" d="M87.436,179.959a42.881,42.881,0,0,1,6.468.067c.609.29.9,2.246,1.217,2.976a11.45,11.45,0,0,0,5.179,5.856c.84.462,3.985,1.425,4.214,1.745.334.467.34,6.4,0,6.874a1.607,1.607,0,0,1-1.2.52,20.928,20.928,0,0,1-5.143-1.491,19.631,19.631,0,0,1-10.546-11.3c-.38-1.094-1.7-4.791-.187-5.245m4.923,2.385H89.27a17.506,17.506,0,0,0,13.021,13.021v-3.09a14.193,14.193,0,0,1-9.932-9.932" transform="translate(-67.585 -140.171)" fill="#5d0b80"/>
          <path id="Trazado_1264446" data-name="Trazado 1264446" d="M179.916,87.207a15.993,15.993,0,0,1,3.762.785,19.742,19.742,0,0,1,12.287,11.99c.452,1.3,1.9,5.02-.2,5.3a43.035,43.035,0,0,1-6.081-.121c-.609-.29-.9-2.246-1.217-2.976a11.688,11.688,0,0,0-4.733-5.64c-.892-.529-4.447-1.665-4.659-1.962a1.181,1.181,0,0,1-.215-.668,39.174,39.174,0,0,1,.015-5.745,1.34,1.34,0,0,1,1.041-.962m14.4,15.634A17.506,17.506,0,0,0,181.3,89.82v3.09a14.193,14.193,0,0,1,9.932,9.932Z" transform="translate(-139.309 -67.952)" fill="#5d0b80"/>
          <path id="Trazado_1264447" data-name="Trazado 1264447" d="M190.013,179.868a48.327,48.327,0,0,1,6.132-.038c1.774.343.441,3.969.051,5.118a19.626,19.626,0,0,1-11.863,11.973c-1.16.4-4.936,1.8-5.283,0a44.889,44.889,0,0,1,.105-6.286c.29-.609,2.246-.9,2.976-1.217a11.621,11.621,0,0,0,6.511-6.511c.333-.781.592-2.81,1.371-3.043m4.481,2.385H191.4a14.193,14.193,0,0,1-9.932,9.932v3.09a17.506,17.506,0,0,0,13.021-13.021" transform="translate(-139.484 -140.08)" fill="#5d0b80"/>
          <path id="Trazado_1264448" data-name="Trazado 1264448" d="M275.471,139.159c.926-.371,1.767-2.356,2.583-2.6,1.608-.484,2.314.736,1.389,2.051a54.153,54.153,0,0,1-4.188,4.418c-.368.278-.692.608-1.21.554-.536-.056-5.535-5.294-5.59-5.889a1.5,1.5,0,0,1,.615-1.07c1.572-.768,2.761,1.894,3.974,2.538V119.848c0-.214.806-.794,1.193-.775.428.02,1.235.62,1.235,1Z" transform="translate(-209.205 -92.793)" fill="#5d0b80"/>
          <path id="Trazado_1264449" data-name="Trazado 1264449" d="M122.624,273.877h19.311c.214,0,.794.806.775,1.193-.02.428-.62,1.235-1,1.235H122.624c.371.926,2.356,1.766,2.6,2.583.484,1.608-.736,2.314-2.051,1.389a54.119,54.119,0,0,1-4.418-4.188c-.278-.368-.608-.692-.554-1.21.056-.536,5.294-5.535,5.889-5.59a1.5,1.5,0,0,1,1.07.615c.768,1.572-1.894,2.761-2.538,3.974" transform="translate(-92.111 -209.855)" fill="#5d0b80"/>
          <path id="Trazado_1264450" data-name="Trazado 1264450" d="M138.325,35.036H119.014c-.214,0-.794-.806-.775-1.193.02-.428.62-1.235,1-1.235h19.091c-.371-.926-2.356-1.766-2.6-2.583-.484-1.608.736-2.314,2.051-1.389a54.151,54.151,0,0,1,4.418,4.188c.278.368.608.692.554,1.21s-5.054,5.315-5.645,5.417c-1.1.189-1.71-.526-1.38-1.611.209-.689,2.239-1.984,2.6-2.805" transform="translate(-92.143 -21.996)" fill="#5d0b80"/>
          <path id="Trazado_1264451" data-name="Trazado 1264451" d="M34.2,123.458v19.311c0,.214-.806.794-1.193.775-.428-.02-1.235-.62-1.235-1V123.458c-.926.371-1.766,2.356-2.583,2.6-1.608.484-2.314-.736-1.389-2.051a54.153,54.153,0,0,1,4.188-4.418c.368-.278.692-.608,1.21-.554s5.315,5.054,5.417,5.645c.189,1.1-.526,1.71-1.611,1.38-.689-.209-1.984-2.239-2.805-2.6" transform="translate(-21.346 -92.761)" fill="#5d0b80"/>
          <path id="Trazado_1264452" data-name="Trazado 1264452" d="M38.512,17.107c4.883-.77,6.889,6.2,2.415,8.157-5.836,2.547-8.677-7.169-2.415-8.157M40.485,20c-1.839-1.682-4.441,1.2-2.476,2.806C39.88,24.33,42.151,21.52,40.485,20" transform="translate(-27.257 -13.286)" fill="#5d0b80"/>
          <path id="Trazado_1264453" data-name="Trazado 1264453" d="M278.121,17.208a4.267,4.267,0,0,1,2.493,8.013c-6.018,3.1-8.966-7.2-2.493-8.013m-.762,5.612a1.877,1.877,0,0,0,2.7-2.592c-1.7-2-4.518.932-2.7,2.592" transform="translate(-213.893 -13.381)" fill="#5d0b80"/>
          <path id="Trazado_1264454" data-name="Trazado 1264454" d="M37.669,256.975c5.086-.943,7.361,5.156,3.359,7.773a4.362,4.362,0,0,1-6.557-3.908,4.555,4.555,0,0,1,3.2-3.864m.437,2.425c-2.171.5-1.125,4.464,1.554,3.316,1.682-.721,1.166-3.94-1.554-3.316" transform="translate(-26.858 -200.184)" fill="#5d0b80"/>
          <path id="Trazado_1264455" data-name="Trazado 1264455" d="M275.074,263.851c-4-4.114,2.262-9.988,6.109-6,3.952,4.1-2.305,9.912-6.109,6m2.283-4.729a1.893,1.893,0,0,0-.1,3.318c3.293,1.413,3.815-4.425.1-3.318" transform="translate(-213.363 -199.909)" fill="#5d0b80"/>
        </g>
      </g>
    </g>
  </g>
</svg>
