<svg xmlns="http://www.w3.org/2000/svg" xmlns:xlink="http://www.w3.org/1999/xlink" width="127" height="128" viewBox="0 0 127 128">
  <defs>
    <clipPath id="clip-path">
      <rect id="Rectángulo_457671" data-name="Rectángulo 457671" width="84.333" height="85.737" fill="#5d0b80"/>
    </clipPath>
  </defs>
  <g id="Grupo_1205623" data-name="Grupo 1205623" transform="translate(-0.116 0.498)">
    <ellipse id="Elipse_13609" data-name="Elipse 13609" cx="63.5" cy="64" rx="63.5" ry="64" transform="translate(0.116 -0.498)" fill="#fff"/>
    <g id="Grupo_1206782" data-name="Grupo 1206782" transform="translate(21.115 21.502)">
      <g id="Grupo_1206781" data-name="Grupo 1206781" clip-path="url(#clip-path)">
        <path id="Trazado_1264651" data-name="Trazado 1264651" d="M55.934,81.551a5.234,5.234,0,0,1-4.427,4.176l-46.824.01C1.473,85.452.084,82.773,0,79.791l0-66.57c.187-1.977.61-3.6,2.3-4.783,2.562-1.793,7.3-.521,10.36-.9.047-.91-.258-2.241.513-2.9,1.085-.932,7.419-.108,9.185-.378,1.717-5.483,9.865-5.861,11.06-.021.312.315,7.5-.32,8.861.122,1.23.4,1.012,1.937,1,2.926C46.4,7.58,51.7,6.4,54.174,8.663a13.138,13.138,0,0,1,1.506,2.289V42.709l3.173-1.255c.4-1.148-.4-3.291.775-4.033.691-.437,6.315-.434,7.121-.088,1.426.611.995,2.821,1.109,4.078,1.164-.04,3.417,1.793,4.255,1.429,1.168-.506,1.743-2.35,3.378-1.852a49.124,49.124,0,0,1,4.944,4.94c.507,1.727-1.967,2.487-1.964,3.739,0,.734,1.523,2.85,1.536,3.887,1.315.165,3.412-.441,4.076,1.112a22.55,22.55,0,0,1,0,6.7c-.67,1.68-2.676.892-4.074,1.113-.031,1.109-1.4,2.878-1.519,3.7-.183,1.267,2.765,1.908,2.132,3.873-.373,1.158-3.924,3.408-4.7,4.663-1.614.812-2.4-1.268-3.553-1.769-.811-.353-3.084,1.552-4.262,1.42-.082.958.215,3.465-.7,4.043-.647.408-6.847.381-7.522-.045-1.129-.713-.476-2.881-.685-4l-3.263-1.037c-.26,2.55.351,5.76,0,8.224M40.751,6.777h-8.73c-.778-.524-.647-1.5-1.009-2.281a3.266,3.266,0,0,0-5.827,0c-.23.5-.578,2.534-1.262,2.534H15.447V13.1h25.3Zm-28.088,3.29H4.693c-1.013,0-2.073,1.637-1.907,2.647V80.3a2.605,2.605,0,0,0,1.341,2.455l46.633.2c.744.281,2.392-1.1,2.392-1.657V74.593c-.547.271-1.115.753-1.758.374-.854-1.024-4.639-3.919-4.815-5.076-.233-1.524,1.54-2.139,1.979-3.475l-1.49-3.958c-1.168-.16-3.506.477-4.1-.831a26.946,26.946,0,0,1,0-7.217c.606-1.323,2.935-.648,4.09-.845-.121-1.1,1.771-3.517,1.428-4.269-.371-.814-2.423-2.047-1.977-3.225a54.7,54.7,0,0,1,4.634-4.74c.81-.521,1.123-.4,2.013-.14V11.712a3.15,3.15,0,0,0-1.392-1.392H43.282V15a2.311,2.311,0,0,1-1.639.891c-8.713-.616-18.509.8-27.093.006-.631-.058-1.886-.371-1.886-1.15Zm68.574,49.6V56.121c-4.155.612-3.372-1.25-4.628-4.1-.312-.71-1.417-2.015-1.45-2.626-.06-1.081,1.936-1.777,1.991-2.978-.484-.462-1.882-2.388-2.489-2.076-.866.445-1.359,2.155-2.852,1.875-.469-.088-2.073-1.212-2.8-1.526-2.768-1.2-4.159-.332-3.713-4.51l-3.147-.009c-.412,4.229-.693,3.1-3.682,4.443-.815.365-2.776,1.669-3.426,1.661-1.088-.014-1.681-1.686-2.781-1.984L50.1,46.632c0,.671,1.531,1.414,1.732,2.078.379,1.257-.865,2.456-1.338,3.62-1.121,2.754-.348,4.272-4.271,3.826l-.3.2-.112,3.307c4.047-.244,3.287.528,4.433,3.285.477,1.147,1.91,3.072,1.59,4.123-.244.8-2.1,1.892-1.591,2.715.239.388,1.573,1.136,1.8,1.782l3.007-2.028c1.213.505,2.285,1.294,3.5,1.811.8.343,2.914.531,3.164,1.391l.444,3.125,3.147-.009c-.386-4.207.775-3.319,3.464-4.507,2.565-1.133,3.4-2.83,5.9.093.614.323,2-1.636,2.51-2.074.1-.583-1.989-1.674-1.987-2.748,0-.559,1.285-2.4,1.621-3.169,1.151-2.624.371-4.137,4.433-3.791" transform="translate(0 0.001)" fill="#5d0b80"/>
        <path id="Trazado_1264652" data-name="Trazado 1264652" d="M25.559,128.248c1.707-1.718,2.932,2.354,3.59,2.207,1.312-.868,3.236-3.793,4.512-4.355a1.34,1.34,0,0,1,1.718,1.975c-1.335.9-5.331,5.959-6.522,6.145-1.524.238-4.4-4.859-3.3-5.972" transform="translate(-18.907 -94.08)" fill="#5d0b80"/>
        <path id="Trazado_1264653" data-name="Trazado 1264653" d="M28.62,82.787l5.134-4.625c.594-.341,1.186.129,1.571.575l-.117,1.408c-1.354.943-5.452,6.124-6.741,6.19-.619.032-1-.448-1.367-.892-.667-.811-2.277-3.545-1.98-4.5.691-2.227,3.453.4,3.5,1.847" transform="translate(-18.737 -58.297)" fill="#5d0b80"/>
        <path id="Trazado_1264654" data-name="Trazado 1264654" d="M33.789,221.819c1.451-.307,2.155.893,1.336,2.108a70.722,70.722,0,0,1-5.58,5.552,1.575,1.575,0,0,1-1.907.158c-.721-.534-2.916-4.524-2.153-5.484,1.32-1.663,2.955,1.18,3.439,2.171.337,0,3.732-4.265,4.866-4.505" transform="translate(-18.917 -165.654)" fill="#5d0b80"/>
        <path id="Trazado_1264655" data-name="Trazado 1264655" d="M25.475,176.041c2.232-1.229,2.185,1.42,3.591,2.207.607-.136,3.564-4.006,4.45-4.416a1.361,1.361,0,0,1,1.262-.006c1.062.984.774,1.331,0,2.286a52.938,52.938,0,0,1-5.307,5.317c-.549.4-.958.7-1.611.346-.836-.448-3.521-4.658-2.389-5.734" transform="translate(-18.824 -129.727)" fill="#5d0b80"/>
        <path id="Trazado_1264656" data-name="Trazado 1264656" d="M27.328,276.95c-.174-.145-2.219-3.647-2.29-3.909a1.474,1.474,0,0,1,.947-1.986c1.433-.387,2.243,2.568,2.9,2.419,1.058-.793,3.954-4.367,5.117-4.493a1.375,1.375,0,0,1,1.3,1.3c-.1,1.043-5.519,5.5-6.386,6.76a1.264,1.264,0,0,1-1.586-.092" transform="translate(-18.642 -200.915)" fill="#5d0b80"/>
        <path id="Trazado_1264657" data-name="Trazado 1264657" d="M219.692,188.73c13.767-1.754,15.9,18.879,2.691,20.4-13.877,1.6-15.794-18.735-2.691-20.4m.511,2.538c-9.906,1.055-8.532,16.52,2.186,15.089,8.882-1.185,8.1-16.184-2.186-15.089" transform="translate(-157.494 -140.895)" fill="#5d0b80"/>
        <path id="Trazado_1264658" data-name="Trazado 1264658" d="M72.288,37.316c-.991-.288-1.047-2.53,0-2.53H90.76c.856.426.753,2.53,0,2.53Z" transform="translate(-53.425 -25.984)" fill="#5d0b80"/>
        <rect id="Rectángulo_457666" data-name="Rectángulo 457666" width="29.69" height="2.924" transform="translate(19.355 23.212)" fill="#5d0b80"/>
        <rect id="Rectángulo_457667" data-name="Rectángulo 457667" width="29.69" height="2.924" transform="translate(19.355 33.671)" fill="#5d0b80"/>
        <rect id="Rectángulo_457668" data-name="Rectángulo 457668" width="18.669" height="2.699" transform="translate(19.355 47.279)" fill="#5d0b80"/>
        <rect id="Rectángulo_457669" data-name="Rectángulo 457669" width="18.669" height="2.699" transform="translate(19.355 58.3)" fill="#5d0b80"/>
        <rect id="Rectángulo_457670" data-name="Rectángulo 457670" width="18.669" height="2.699" transform="translate(19.355 71.121)" fill="#5d0b80"/>
      </g>
    </g>
  </g>
</svg>
