<svg xmlns="http://www.w3.org/2000/svg" xmlns:xlink="http://www.w3.org/1999/xlink" width="96" height="96" viewBox="0 0 96 96">
  <defs>
    <clipPath id="clip-path">
      <rect id="Rect치ngulo_457416" data-name="Rect치ngulo 457416" width="58.378" height="53.676" fill="#fff"/>
    </clipPath>
  </defs>
  <g id="Grupo_1205985" data-name="Grupo 1205985" transform="translate(-383.746 -8400.001)">
    <path id="Trazado_997400" data-name="Trazado 997400" d="M48,0A48,48,0,1,1,0,48,48,48,0,0,1,48,0Z" transform="translate(383.746 8400.001)" fill="#5d0b80"/>
    <g id="Grupo_1099776" data-name="Grupo 1099776" transform="translate(401.746 8418)">
      <g id="Grupo_1099618" data-name="Grupo 1099618" transform="translate(-0.035 -0.151)">
        <rect id="Rect치ngulo_401104" data-name="Rect치ngulo 401104" width="59.378" height="60.093" transform="translate(0)" fill="none"/>
      </g>
      <g id="Grupo_1206616" data-name="Grupo 1206616" transform="translate(0.965 2.856)">
        <g id="Grupo_1206615" data-name="Grupo 1206615" clip-path="url(#clip-path)">
          <path id="Trazado_1263969" data-name="Trazado 1263969" d="M161.318,132.619c.437.274-.09,1.065-.4,1.323a4.25,4.25,0,0,1-5.124-.078c-.581-.542-.688-1.467.248-1.263.771.168,1.048,1.069,2.517,1.008.992-.041,2.246-1.309,2.755-.99" transform="translate(-129.3 -110.336)" fill="#fff"/>
          <path id="Trazado_1263970" data-name="Trazado 1263970" d="M145.051,99.084c1.358-1.438,3.058,1.567,1.006,1.944-1.122.206-1.6-1.319-1.006-1.944" transform="translate(-120.514 -82.146)" fill="#fff"/>
          <path id="Trazado_1263971" data-name="Trazado 1263971" d="M191.07,99.084c.59.625.116,2.15-1.006,1.944-2.052-.377-.352-3.382,1.006-1.944" transform="translate(-157.397 -82.146)" fill="#fff"/>
          <path id="Trazado_1263972" data-name="Trazado 1263972" d="M20.693,207.75h7.043c.487,0,.487,1.174,0,1.174H20.693c-.39,0-.6-.969,0-1.174" transform="translate(-16.91 -172.911)" fill="#fff"/>
          <path id="Trazado_1263973" data-name="Trazado 1263973" d="M20.693,190.861h7.043c.487,0,.487,1.174,0,1.174H20.693c-.39,0-.6-.969,0-1.174" transform="translate(-16.91 -158.854)" fill="#fff"/>
          <path id="Trazado_1263974" data-name="Trazado 1263974" d="M20.693,169.972h7.043c.487,0,.487,1.174,0,1.174H20.693c-.39,0-.6-.969,0-1.174" transform="translate(-16.91 -141.468)" fill="#fff"/>
          <path id="Trazado_1263975" data-name="Trazado 1263975" d="M18.339,153.972h4.588c.317,0,.317,1.183,0,1.183H18.339c-.254,0-.391-.977,0-1.183" transform="translate(-15.06 -128.151)" fill="#fff"/>
          <path id="Trazado_1263976" data-name="Trazado 1263976" d="M231.545,97.646c12.669-1.436,13.836,16.754,2.278,17.874-11.858,1.149-13.347-16.619-2.278-17.874m.165,1.171c-10.355,1.265-7.57,18.068,3.186,15.261,9.174-2.394,6.852-16.487-3.186-15.261" transform="translate(-186.458 -81.204)" fill="#fff"/>
          <path id="Trazado_1263977" data-name="Trazado 1263977" d="M256.892,139.866c.583-.925,2.454,1.844,3.059,1.979.408-.071,2.525-2.808,3.127-3.089.787-.367,1.072.339.677,1.015-.147.251-2.95,3.024-3.279,3.259a1.209,1.209,0,0,1-.675.334,21.505,21.505,0,0,1-2.771-2.587c-.137-.238-.278-.689-.138-.911" transform="translate(-213.763 -115.403)" fill="#fff"/>
          <path id="Trazado_1263978" data-name="Trazado 1263978" d="M44.415,13.592c-.691.12-2.218.751-2.6.756a.8.8,0,0,1-.554-.386,26.535,26.535,0,0,1,0-3.522,17.031,17.031,0,0,0-1.194-3.669c-4.62-9.566-18.8-8.84-22.409,1.2-.881,2.446-.335,3.742-.721,5.819-.121.652-.886,1.338-1,2.354a17.443,17.443,0,0,0,.331,2.673c-.071,1.121-.807,1.961-.663,3.7.087,1.051,1.107,2.835,1.107,3.188,0,.25-.488,1.1-.589,1.529a5.478,5.478,0,0,0,.68,4.314l1.815,1.787-3.688.841v-8.3L9.743,20.657c-4.023.1-3.8-.2-8.312.093A1.818,1.818,0,0,0,0,21.782V38.8a1.487,1.487,0,0,0,.174.318,4.078,4.078,0,0,0,1.094.751h9.475l-.44,11.8a2.072,2.072,0,0,0,1.475,2.011l36.5,0A2.41,2.41,0,0,0,49.987,51.7a64.4,64.4,0,0,0,0-9.236,2.511,2.511,0,0,0-1.353-2.039l-.007-3.3a12.4,12.4,0,0,0,8.812-7.148A11.944,11.944,0,0,0,44.415,13.592m-6.923-8.6c.988,1.157,2.6,4.12,2.6,5.62v2.432c-.4-.421-1.592-.222-1.82-.361-.053-.033-.173-.621-.532-.893a14.165,14.165,0,0,0-1.679-.668c-.66-.342-1.683-1.391-2.254-1.447-1.016-.1-1.626,1.084-2.356,1.687a11.656,11.656,0,0,1-9.369,3.005c-1.358-.151-2.651-1.037-3.957-.988C17.036,2.7,30.4-3.317,37.492,4.988m2.933,9.973-2.18,1.6V13.878a2.148,2.148,0,0,1,2.18,1.083M33.714,27.58l.926-.62a13.125,13.125,0,0,0,2.1,5.364c-2.721-.79-3.344-1.905-3.021-4.743M38.948,36.8c-.776,2.322-2.254,2.421-4.008,3.371-1.179.639-.791,1.748-1.24,2.785A3.782,3.782,0,0,1,30.2,44.9L35.229,33c2.029,1.413,4.837.465,3.719,3.806M34.4,25.667a8,8,0,0,1-12.371-2.362,9.649,9.649,0,0,1-.886-3.139V15.387c4.751,1.141,9.329-1.035,12.492-4.5,1.036.74,2.117,1.718,3.432,1.822-.114,1.52.176,3.3.018,4.783-.1.9-.571,1.046-.939,1.744A15.09,15.09,0,0,0,34.4,25.667m-16.98-10.4c.713-1.335,1.473-.444,2.549-.218v4.7a3.025,3.025,0,0,1-2.549-4.478m-.282,12.8c.091-.832.8-1.764.8-2.366,0-.583-.69-1.462-.891-2.1a4.683,4.683,0,0,1,.164-3.682,4.726,4.726,0,0,0,2.932,1.006,8.221,8.221,0,0,0,2.175,4.952c.595.65,2.1,1.5,2.193,2.167.2,1.494.053,2.629-1.233,3.479a16.7,16.7,0,0,1-2.884,1.3,3.467,3.467,0,0,1-1.038-.459,4.3,4.3,0,0,1-2.212-4.29M28.014,44.9a3.782,3.782,0,0,1-3.5-1.944c-.344-.794-.176-1.783-.763-2.423-.487-.529-1.547-.674-2.258-1.1a5.211,5.211,0,0,1-2.528-5.1A9.256,9.256,0,0,0,22.981,33ZM10.241,22.767c.234-.058.133.139.244.251a15.152,15.152,0,0,1,2.27,2.43c-2.634.228-2.684-.188-2.514-2.681M1.251,38.546,1.038,22.2c.12-.354.882-.42,1.228-.449a43.921,43.921,0,0,1,6.22,0c.244.029.431.021.579.26v3.354c0,.425,1.3,1.258,1.761,1.258h2.935L13.553,38.49Zm27.267,14.07h-10.4V42.47a1.034,1.034,0,0,0-.6-.427c-.214-.089-.746.3-.746.427V52.616c-1.376-.174-3.312.235-4.612,0-.531-.1-.556-.644-.594-1.083a44.61,44.61,0,0,1,.181-5.2c.067-2.154.126-4.311.16-6.464,1.008,0,2.042.221,2.685-.753s.075-3.407.495-3.7l2.522-.58c.084,3.406,2.132,5.534,5.216,6.608.228,3.123,2.68,4.885,5.685,4.8ZM24.171,32.435c.059-.2.61-.435.828-.694.8-.952.672-2.446.67-3.608a8.576,8.576,0,0,0,6.872,0c-.032,1.4-.119,2.65.84,3.773.239.28.789.31.647.8l-5,11.36c-.414-1.478-5.051-10.961-4.852-11.628m18.6,18.594a12.627,12.627,0,0,0,.341,1.586H41.431V42.638c0-.775-1.342-.657-1.342-.168V52.616h-10.4V46.244c3,.091,5.46-1.675,5.685-4.8,2.623-.991,4.924-2.736,5.049-5.769a21.287,21.287,0,0,0,2.35,1.086c.363.13,1.089.124,1.34.337a9.582,9.582,0,0,1,.138,3.161c-.175.512-1.3.706-1.48,2.545a60.469,60.469,0,0,0-.008,8.221m5.97-8.653a58.2,58.2,0,0,1,.073,8.815c-.184,1.644-1.545,1.548-2.941,1.431-.825-.069-1.468-.107-1.682-1a58.5,58.5,0,0,1-.073-8.815c.046-.408.183-1.095.619-1.226a21.254,21.254,0,0,1,3.318-.028c.44.085.59.418.686.824m-3.113-2.169V37.188a1.924,1.924,0,0,0,1.677,0v3.019ZM55.714,30.76a10.776,10.776,0,0,1-17.632,1.308c-5.431-6.687-.961-16.7,7.507-17.47,8.6-.783,14.43,8.667,10.125,16.162" transform="translate(0 -0.001)" fill="#fff"/>
        </g>
      </g>
    </g>
  </g>
</svg>
