<svg xmlns="http://www.w3.org/2000/svg" xmlns:xlink="http://www.w3.org/1999/xlink" width="187.711" height="151.001" viewBox="0 0 187.711 151.001">
  <defs>
    <clipPath id="clip-path">
      <rect id="Rect치ngulo_457400" data-name="Rect치ngulo 457400" width="92.667" height="121.788" fill="none"/>
    </clipPath>
  </defs>
  <g id="Grupo_1205327" data-name="Grupo 1205327" transform="translate(-289.988 -8868.081)">
    <g id="Grupo_1204518" data-name="Grupo 1204518" transform="translate(289.988 8868.081)">
      <rect id="Rect치ngulo_455283" data-name="Rect치ngulo 455283" width="187.711" height="151.001" rx="19" fill="#96fef0"/>
    </g>
    <g id="Grupo_1206579" data-name="Grupo 1206579" transform="translate(337.988 8883.081)">
      <g id="Grupo_1206578" data-name="Grupo 1206578" clip-path="url(#clip-path)">
        <path id="Trazado_1263816" data-name="Trazado 1263816" d="M19.683,9.982V39.275c-2.349.084-5.287-.443-6.2,2.34.434,7.546-.826,16.252-.095,23.661.339,3.438,3.735,2.86,6.3,2.943V78.68c-2.06.053-5.6-.686-6.2,1.993.412,7.57-.8,16.217-.1,23.66.342,3.631,3.563,2.867,6.3,2.942-.512,5.575,2.024,10.151,7.889,10.767l64.994.043c-.017,1.412.441,5.9-.7,6.453l-83.188.189a1.664,1.664,0,0,1-1.064-.331c-1.157-.913-.034-9.045-.642-11.224-.311-1.114-1.5-.874-1.591-1.015-.222-.343.16-3.417,0-4.185,1.1,0,1.723-.379,1.76-1.553L7.139,11.212a1.348,1.348,0,0,1,.479-.915c.781-.614,10.183-.3,12.065-.315" transform="translate(-3.461 -6.456)" fill="#e2dee2"/>
        <path id="Trazado_1263817" data-name="Trazado 1263817" d="M1.924,105.7c.092.142,1.281-.1,1.591,1.015.607,2.179-.515,10.311.642,11.224a1.664,1.664,0,0,0,1.064.331l83.188-.189c1.137-.553.679-5.041.7-6.453.385-31.835-.288-63.712,0-95.55h-9.59c-1,0-3.313-2.836-3.313-3.662V3.526c-19.987.084-39.994-.112-59.98,0-1.882.01-11.284-.3-12.065.315a1.348,1.348,0,0,0-.479.915l.006,95.207c-.037,1.174-.664,1.553-1.76,1.553S.2,101.138.165,99.963V4.729A5.353,5.353,0,0,1,3.376.27C28.357-.261,53.441.18,78.461.046c4.888,4.024,9.122,9.04,13.8,13.4.59,34.911.467,70.126.061,105.065a5.635,5.635,0,0,1-2.964,2.964c-28.314.6-56.77.134-85.137.236-1.826-.164-3.754-2.282-4.02-4a69.484,69.484,0,0,1-.014-10.43A2.022,2.022,0,0,1,1.924,105.7M85.966,12.593c.152-.609-.252-.7-.521-1.049a42.918,42.918,0,0,0-4.707-4.707c-.352-.269-.44-.673-1.049-.521v5.405c0,.115.462.529.349.872Z" transform="translate(0 0)" fill="#050505"/>
        <path id="Trazado_1263818" data-name="Trazado 1263818" d="M46.4,10.045c19.986-.112,39.993.084,59.98,0v8.892c0,.825,2.313,3.662,3.313,3.662h9.59c-.288,31.837.385,63.715,0,95.55l-64.994-.043c-5.865-.617-8.4-5.192-7.889-10.767,6.546.18,13.131-.116,19.683-.02,1.037.014,2.635-1.724,2.635-2.6V94.784H80.922c-.094,1.228-1.571,1.18-1.953,2.434a1.873,1.873,0,0,0,2.309,2.309c1.107-.343,1.573-1.877,2.783-1.954v7.5c0,.946,1.962,2.158,2.956,2.275,6.992.819,15.521-.634,22.683,0,1.928-.228,2.8-1.463,2.972-3.3.676-7.349-.46-15.829-.109-23.3-.455-2.476-6.008-2.435-7.683-1.934-.8.239-.942.941-.942,1.675-.791.166-3.812-.232-4.185,0a1.546,1.546,0,0,0-.7-1.572c-.665-.324-10.622-.329-12.055-.195-.917.086-2.942,1.035-2.942,1.941v7.846c-1.676-.287-2.378-3.218-4.385-1.768-2.351,1.7.866,2.935,1.247,4.557H68.717V82.927c1.959-.2,7.577,2.737,7.356-.872-.138-2.26-3.062-1.819-4.565-2.439L86.4,68.356c7.294-.74,15.8.735,22.941-.075a3.445,3.445,0,0,0,3.157-2.074l.164-23.913c-.059-2-1.968-2.767-3.668-2.958a146.052,146.052,0,0,0-21.274,0c-1.062.118-3.661,1.03-3.661,2.268V49.45c-3.462-3.919-7.575-1.557-3.138,2.441H68.717V41.953c0-1.322-2.128-2.421-3.343-2.585-4.829-.65-13.832-.214-18.975-.03ZM66.625,28.527a30.875,30.875,0,0,0,3.836,0,1.984,1.984,0,0,0,1.9,1.761c7.536-.559,15.977.681,23.4,0,1.6-.147,3-.931,3.277-2.652a59.694,59.694,0,0,0,0-9.722,3.509,3.509,0,0,0-3.621-3c-12.2.92-26.047-1.162-38.046,0-1.993.193-3.317.909-3.612,3.014a57.865,57.865,0,0,0-.04,9.391,3.276,3.276,0,0,0,2.643,2.936c1.025.162,9.117.125,9.574-.15.43-.258.6-1.089.693-1.574" transform="translate(-30.177 -6.519)" fill="#eceaec"/>
        <path id="Trazado_1263819" data-name="Trazado 1263819" d="M34.32,93.384c5.144-.184,14.146-.62,18.975.03,1.215.164,3.343,1.263,3.343,2.585v9.939H68.844c-4.436-4-.324-6.36,3.138-2.441V95.651c0-1.238,2.6-2.15,3.661-2.268a145.955,145.955,0,0,1,21.274,0c1.7.19,3.609.958,3.668,2.958l-.164,23.913a3.445,3.445,0,0,1-3.157,2.074c-7.146.81-15.647-.666-22.941.075L59.43,133.663c1.5.619,4.427.179,4.565,2.439.22,3.609-5.4.677-7.357.872v8.369H68.844c-.38-1.623-3.6-2.859-1.246-4.557,2.007-1.451,2.709,1.481,4.385,1.768v-7.846c0-.907,2.025-1.856,2.943-1.941,1.432-.134,11.39-.129,12.055.195a1.546,1.546,0,0,1,.7,1.572c-.09.056-.629,1.744-1.221,1.744H75.47V157.9H97.09V136.277c-1.9-.262-5.231,1.005-5.231-1.744,0-.734.143-1.437.942-1.675,1.675-.5,7.228-.542,7.683,1.934-.351,7.466.786,15.946.11,23.3-.169,1.841-1.045,3.076-2.973,3.3-7.162-.634-15.691.82-22.683,0-.995-.116-2.956-1.328-2.956-2.274v-7.5c-1.21.076-1.676,1.61-2.782,1.954a1.873,1.873,0,0,1-2.309-2.309c.382-1.255,1.859-1.207,1.953-2.434H56.639v9.939c0,.871-1.6,2.61-2.635,2.6-6.552-.1-13.137.2-19.683.02-2.738-.075-5.958.689-6.3-2.942-.7-7.443.51-16.09.1-23.661.6-2.678,4.142-1.94,6.2-1.992,6.253-.16,12.542.149,18.8-.036.68-1.753.462-7.635,3.266-7.227,2.422.352.758,3.659,1.126,5.169,4.771-3.643,9.463-7.579,14.473-10.809v-7.672c-3.48,4.152-7.643,1.657-3.138-2.441H56.639v9.939c0,1.21-1.853,2.418-2.986,2.593-4.586.708-14.317.185-19.332.022-2.564-.083-5.959.5-6.3-2.943-.731-7.409.529-16.115.095-23.661.916-2.783,3.855-2.256,6.2-2.34M53.151,97.22H31.531v21.272H53.151Zm43.939,0H75.47v21.272H97.09ZM53.151,136.277H31.531V157.9H53.151Z" transform="translate(-18.098 -60.566)" fill="#050505"/>
        <path id="Trazado_1263820" data-name="Trazado 1263820" d="M46.519,153.665c5.015.163,14.746.686,19.332-.022,1.133-.175,2.986-1.383,2.986-2.593v-9.939H81.042c-4.5,4.1-.342,6.594,3.138,2.441v7.672c-5.01,3.23-9.7,7.166-14.474,10.809-.367-1.509,1.3-4.817-1.126-5.169-2.8-.407-2.585,5.475-3.266,7.227-6.254.184-12.543-.124-18.8.036Z" transform="translate(-30.297 -91.903)" fill="#eceaec"/>
        <path id="Trazado_1263821" data-name="Trazado 1263821" d="M234.8,24.326h-5.928c.113-.342-.349-.756-.349-.872V18.049c.608-.152.7.252,1.049.521a42.918,42.918,0,0,1,4.707,4.707c.269.352.673.44.521,1.049" transform="translate(-148.83 -11.733)" fill="#e2dee2"/>
        <path id="Trazado_1263822" data-name="Trazado 1263822" d="M180.909,211.971c0,2.749,3.327,1.482,5.231,1.744v21.621H164.519V213.715H175.5c.591,0,1.13-1.687,1.221-1.744.372-.232,3.394.166,4.185,0M179.587,225.5c-.838-1.409,1.2-7.254-1.472-8.467-1.748-.793-2.816.129-3.775,1.445a87.6,87.6,0,0,0-4.44,7.775c-1.39,4.463,5.181,2.176,5.779,2.8.185.194-.474,3.9,2.244,3.5,1.971-.288,1.327-2.256,1.646-3.279.161-.517,1.079-.411,1.269-1.512.378-2.192-.936-1.731-1.252-2.264" transform="translate(-107.148 -138.004)" fill="#e3a4fe"/>
        <path id="Trazado_1263823" data-name="Trazado 1263823" d="M83.923,37c.109-.051.72-1.744,1.569-1.744h23.539V27.411a3.5,3.5,0,0,0-.523-.523H70.672v8.369c1.828.317,7.342-.566,8.57.323.394.285.764,1.384.846,1.421-.089.485-.263,1.316-.693,1.574-.457.274-8.549.312-9.574.15a3.276,3.276,0,0,1-2.643-2.936,57.865,57.865,0,0,1,.04-9.391c.3-2.1,1.619-2.821,3.612-3.014,12-1.162,25.849.92,38.046,0a3.509,3.509,0,0,1,3.621,3,59.694,59.694,0,0,1,0,9.722c-.272,1.72-1.673,2.5-3.277,2.652-7.422.683-15.863-.557-23.4,0A1.984,1.984,0,0,1,83.923,37" transform="translate(-43.639 -14.992)" fill="#050505"/>
        <path id="Trazado_1263824" data-name="Trazado 1263824" d="M86.934,44.224c-.081-.036-.452-1.136-.846-1.421-1.227-.889-6.741-.006-8.57-.323V34.111h37.836a3.5,3.5,0,0,1,.523.523V42.48H92.34c-.849,0-1.46,1.693-1.569,1.744a30.874,30.874,0,0,1-3.836,0" transform="translate(-50.487 -22.216)" fill="#ffe9a1"/>
        <path id="Trazado_1263825" data-name="Trazado 1263825" d="M60.14,126.383H38.519V105.111H60.14ZM47.571,111.751c.387.387-.28,9.336.025,10.961a1.794,1.794,0,0,0,3.1.681c1.113-1.57-.054-11.376.364-13.913-.415-2.185-7.423-1.776-6.013,1.119.68,1.4,2.359.99,2.521,1.151" transform="translate(-25.087 -68.457)" fill="#e3a4fe"/>
        <path id="Trazado_1263826" data-name="Trazado 1263826" d="M60.14,238.732H38.519V217.111H60.14Zm-12.633-8.987c-1.278-1.331-3.154-.319-3.09,1.842.2,6.581,10.817,5.321,9.775-1.376-.133-.855-.9-1.6-.95-2.171-.052-.59.752-1.661.888-2.469.8-4.738-5.245-7.713-8.479-4.292-2.255,2.386-1.037,6,1.7,4.229.3-.191,1.854-4.063,3.122-1.32,1.177,2.548-3.076,1.028-2.926,3.91.1,1.864,1.979,1.266,2.743,2a1.374,1.374,0,0,1-.595,2.222c-2.166.53-1.493-1.845-2.191-2.573" transform="translate(-25.087 -141.4)" fill="#ffe9a1"/>
        <path id="Trazado_1263827" data-name="Trazado 1263827" d="M186.14,126.382H164.519V105.11H186.14ZM178.7,109.413a5.087,5.087,0,0,0-7.97,1.032c-.668,1.27-.962,3.118.751,3.586,2.185.6,2.207-2.37,3.378-2.584a1.533,1.533,0,0,1,1.536,1.165c.209,2.28-6.3,8.075-5.806,9.942a2.727,2.727,0,0,0,.9,1.214c.878.424,8.229.385,8.744-.409,1.685-2.6-2.307-3.371-4.209-2.909,1.912-2.94,6.076-7.666,2.671-11.037" transform="translate(-107.148 -68.456)" fill="#ffe9a1"/>
        <path id="Trazado_1263828" data-name="Trazado 1263828" d="M189.279,234.55c.317.533,1.63.071,1.253,2.264-.19,1.1-1.108,1-1.269,1.512-.319,1.023.325,2.991-1.646,3.278-2.718.4-2.059-3.306-2.244-3.5-.6-.625-7.169,1.662-5.779-2.8a87.6,87.6,0,0,1,4.44-7.775c.959-1.315,2.026-2.238,3.774-1.445,2.676,1.213.634,7.057,1.472,8.467m-3.562.071-.171-2.441-1.221,2.438Z" transform="translate(-116.84 -147.052)" fill="#050505"/>
        <path id="Trazado_1263829" data-name="Trazado 1263829" d="M59.42,117.317c-.161-.161-1.841.245-2.521-1.151-1.41-2.9,5.6-3.3,6.013-1.119-.419,2.537.748,12.343-.364,13.913a1.794,1.794,0,0,1-3.1-.681c-.305-1.625.363-10.574-.025-10.961" transform="translate(-36.936 -74.023)" fill="#050505"/>
        <path id="Trazado_1263830" data-name="Trazado 1263830" d="M58.519,234.769c.7.728.026,3.1,2.191,2.573a1.374,1.374,0,0,0,.595-2.222c-.764-.734-2.646-.136-2.743-2-.149-2.882,4.1-1.362,2.926-3.91-1.267-2.742-2.826,1.129-3.122,1.32-2.741,1.771-3.959-1.843-1.7-4.229,3.234-3.421,9.275-.446,8.479,4.292-.136.808-.94,1.879-.888,2.469.05.571.816,1.316.95,2.171,1.042,6.7-9.578,7.957-9.775,1.376-.065-2.161,1.812-3.173,3.09-1.842" transform="translate(-36.099 -146.424)" fill="#050505"/>
        <path id="Trazado_1263831" data-name="Trazado 1263831" d="M189.313,114.711c3.4,3.371-.759,8.1-2.671,11.037,1.9-.461,5.894.311,4.209,2.909-.515.794-7.866.833-8.744.409a2.727,2.727,0,0,1-.9-1.214c-.495-1.867,6.015-7.662,5.806-9.942a1.533,1.533,0,0,0-1.536-1.165c-1.171.215-1.193,3.182-3.378,2.584-1.713-.469-1.419-2.316-.751-3.586a5.087,5.087,0,0,1,7.97-1.032" transform="translate(-117.762 -73.754)" fill="#050505"/>
        <path id="Trazado_1263832" data-name="Trazado 1263832" d="M194.916,246.556l-1.392,0,1.221-2.438Z" transform="translate(-126.038 -158.987)" fill="#f97e85"/>
      </g>
    </g>
  </g>
</svg>
