<svg xmlns="http://www.w3.org/2000/svg" xmlns:xlink="http://www.w3.org/1999/xlink" width="70" height="70" viewBox="0 0 70 70">
  <defs>
    <clipPath id="clip-path">
      <rect id="Rectángulo_457471" data-name="Rectángulo 457471" width="38.7" height="38.66" fill="#5d0b80"/>
    </clipPath>
  </defs>
  <g id="Grupo_1205995" data-name="Grupo 1205995" transform="translate(-268.711 -957.695)">
    <circle id="Elipse_5614" data-name="Elipse 5614" cx="35" cy="35" r="35" transform="translate(268.711 957.695)" fill="#fff"/>
    <g id="Grupo_1206643" data-name="Grupo 1206643" transform="translate(284.711 973.695)">
      <g id="Grupo_1206642" data-name="Grupo 1206642" clip-path="url(#clip-path)">
        <path id="Trazado_1264127" data-name="Trazado 1264127" d="M175.056,165.662a10.027,10.027,0,1,1-8.336,14.18,10.037,10.037,0,0,1,8.336-14.18m2.186,5.518a2.183,2.183,0,0,1,.532,2.025c-.333,1.289-1.73,1.281-2.416,2.269-.712,1.024-1.083,4.98.931,4.1,1-.435.34-2.083.657-2.788.224-.5,2.031-1.082,2.615-2.623,1.637-4.323-3.935-7.465-6.752-4.134-.617.73-1.731,3.307-.269,3.582,1.541.29,1.1-1.542,1.853-2.374a2.206,2.206,0,0,1,2.85-.058m-2.12,11.216c.982.982,2.4-.611,1.416-1.484a1.027,1.027,0,0,0-1.416,1.484" transform="translate(-147.179 -147.015)" fill="#5d0b80"/>
        <path id="Trazado_1264128" data-name="Trazado 1264128" d="M36.87,103.09v7.419l-1.948-1.256a12.779,12.779,0,0,0-5.808-1.556c.082-.211.373-.179.565-.389a1.191,1.191,0,0,0-.426-1.826,7.049,7.049,0,0,0-3.278.033,1.164,1.164,0,0,0,.213,2.129l1.351.164a12.253,12.253,0,0,0-6.815,2.8l-.151.011c-.189-.934-3.094-.793-3.665-.569a1.2,1.2,0,0,0,.233,2.256H19c-.314.269-1.232,2.137-1.375,2.222-.329.2-.943-.056-1.308.659-.513,1.005.421,1.33.414,1.65-.006.283-.341,1.117-.4,1.512a12.712,12.712,0,0,0,1.208,7.672H.731c-.2,0-.731-.627-.731-.843V103.09ZM8.064,105.365A1.168,1.168,0,0,0,8.15,107.7a8.488,8.488,0,0,0,2.857-.178,1.138,1.138,0,0,0-.025-1.979,7.4,7.4,0,0,0-2.917-.176m9.217,0a1.155,1.155,0,0,0-.373,2.229,11,11,0,0,0,2.905.079,1.153,1.153,0,0,0,.307-2.167,7.922,7.922,0,0,0-2.84-.141m-9.331,4.607a1.161,1.161,0,0,0-.164,2.249,11.222,11.222,0,0,0,2.717.079,1.164,1.164,0,0,0,.258-2.267,11.059,11.059,0,0,0-2.81-.061m0,4.61a1.146,1.146,0,0,0-.386,2.131,6.064,6.064,0,0,0,3.49-.039,1.146,1.146,0,0,0-.121-1.98,9.826,9.826,0,0,0-2.983-.112m0,4.609a1.142,1.142,0,0,0-.307,2.165,6.127,6.127,0,0,0,3.483-.114,1.161,1.161,0,0,0-.271-1.974,10.848,10.848,0,0,0-2.9-.078" transform="translate(0 -91.502)" fill="#5d0b80"/>
        <path id="Trazado_1264129" data-name="Trazado 1264129" d="M64.234,2.377c-.748,0-1.5,0-2.248,0C62.005,1.543,61.8.068,63.055.009c1.453-.067,1.159,1.412,1.179,2.368" transform="translate(-55.016 -0.006)" fill="#5d0b80"/>
        <path id="Trazado_1264130" data-name="Trazado 1264130" d="M125.361,2.377c-.785,0-1.575,0-2.361,0,.023-.943-.137-2.435,1.291-2.368,1.231.058,1.048,1.541,1.069,2.368" transform="translate(-109.174 -0.007)" fill="#5d0b80"/>
        <path id="Trazado_1264131" data-name="Trazado 1264131" d="M187.163,2.371c-.748,0-1.5,0-2.248,0,.019-.929-.265-2.43,1.178-2.369,1.3.055,1.051,1.485,1.07,2.369" transform="translate(-164.119 0)" fill="#5d0b80"/>
        <path id="Trazado_1264132" data-name="Trazado 1264132" d="M248.361,2.378c-.785,0-1.575,0-2.361,0,.022-.827-.162-2.31,1.069-2.368,1.394-.066,1.258,1.426,1.291,2.368" transform="translate(-218.347 -0.007)" fill="#5d0b80"/>
        <path id="Trazado_1264133" data-name="Trazado 1264133" d="M6.969,20.366a24.32,24.32,0,0,0,.024,3.742c.24,1.062,1.964,1.168,2.2.112a25.269,25.269,0,0,0,.024-3.854c1.534,0,3.074,0,4.609,0a23.531,23.531,0,0,0,.027,3.514,1.161,1.161,0,0,0,2.155.523c.313-.556.2-3.227.178-4.037,1.534,0,3.074,0,4.609,0a25.235,25.235,0,0,0,.024,3.854,1.158,1.158,0,0,0,2.2-.114,24.35,24.35,0,0,0,.026-3.74c1.534,0,3.074,0,4.609,0a23.743,23.743,0,0,0,.027,3.627,1.132,1.132,0,0,0,2.192.222,15.848,15.848,0,0,0,.142-3.849,51.828,51.828,0,0,1,5.779.01c.417.059,1.078.51,1.078.945v5.9H0V21.209c0-.33.737-.785,1.078-.833a52.786,52.786,0,0,1,5.891-.01" transform="translate(0 -17.996)" fill="#5d0b80"/>
      </g>
    </g>
  </g>
</svg>
