<svg xmlns="http://www.w3.org/2000/svg" xmlns:xlink="http://www.w3.org/1999/xlink" width="160.5" height="160.501" viewBox="0 0 160.5 160.501">
  <defs>
    <clipPath id="clip-path">
      <rect id="Rectángulo_455261" data-name="Rectángulo 455261" width="38.951" height="37.623" fill="#e6fffa"/>
    </clipPath>
    <clipPath id="clip-path-2">
      <rect id="Rectángulo_457340" data-name="Rectángulo 457340" width="88.57" height="82.047" fill="#5d0b80"/>
    </clipPath>
  </defs>
  <g id="Grupo_1206100" data-name="Grupo 1206100" transform="translate(-307.436 -10011.92)">
    <path id="Sustracción_130" data-name="Sustracción 130" d="M26.051,25.795H0V11.245H11.352V0h14.7V25.795Z" transform="translate(441.641 10038.471) rotate(-90)" fill="#e3a4fe" stroke="rgba(0,0,0,0)" stroke-miterlimit="10" stroke-width="1"/>
    <g id="Grupo_1178100" data-name="Grupo 1178100" transform="translate(307.436 10172.421) rotate(-90)">
      <path id="Trazado_998183" data-name="Trazado 998183" d="M0,0V37.623H25.58V24.056H38.951V0Z" transform="translate(0 0)" fill="#5d0b80"/>
      <g id="Grupo_1178099" data-name="Grupo 1178099" transform="translate(0 0)">
        <g id="Grupo_1178098" data-name="Grupo 1178098" clip-path="url(#clip-path)">
          <path id="Trazado_998184" data-name="Trazado 998184" d="M0,9.021a9.025,9.025,0,1,1,9.025,9.021A9.023,9.023,0,0,1,0,9.021" transform="translate(4.434 5.629)" fill="#e3a4fe"/>
        </g>
      </g>
    </g>
    <g id="Grupo_1177470" data-name="Grupo 1177470" transform="translate(308.059 10012.421)">
      <circle id="Elipse_13609" data-name="Elipse 13609" cx="79.688" cy="79.688" r="79.688" fill="#f0d5fe"/>
      <g id="Grupo_1099776" data-name="Grupo 1099776" transform="translate(33.723 33.96)">
        <g id="Grupo_1099618" data-name="Grupo 1099618" transform="translate(0.338 0.273)">
          <rect id="Rectángulo_401104" data-name="Rectángulo 401104" width="90.569" height="91.661" transform="translate(0)" fill="none"/>
        </g>
        <g id="Grupo_1206542" data-name="Grupo 1206542" transform="translate(1.337 5.273)">
          <g id="Grupo_1206541" data-name="Grupo 1206541" clip-path="url(#clip-path-2)">
            <path id="Trazado_1263605" data-name="Trazado 1263605" d="M133.752,87.184l3.374,1.315c.935-.078,2.02-2.68,4.007-2.5,1.251.116,4.079,2.822,4.383,4,.682,2.642-2.748,3.34-2.371,4.875.193.785,1.166,1.978,1.252,2.952,1.963.015,4.993-.138,5.294,2.436a21.267,21.267,0,0,1-.02,3.793c-.454,2.877-5.03,1.874-5.337,2.319l-1.252,3.259c.086,1.037,2.753,1.931,2.544,4.045-.128,1.289-3.026,4.153-4.3,4.359-2.344.379-3.222-2.729-4.622-2.384-.785.193-1.978,1.166-2.952,1.252.464,4.656-1.538,5.955-5.975,5.272-3.008-.463-1.881-3.226-2.317-5.336l-3.519-1.246c-1.023.1-1.907,2.6-3.791,2.527-1.472-.059-4.381-2.876-4.61-4.289-.288-1.779,1.512-2.922,2.569-4.055l-1.392-3.437c-4.665.173-6.028-1.438-5.317-6.057.524-3.4,4.8-1.9,5.437-2.674l1.32-3.176c-.89-1.164-2.824-2.294-2.666-3.991.133-1.432,3.024-4.286,4.451-4.45,2.241-.257,2.871,2.7,4.43,2.447.792-.13,2.133-1.274,3.2-1.26.142-2.112-.674-4.83,2.2-5.273,4.437-.683,6.439.617,5.975,5.272m-2.823-2.753h-2.788v4.182c0,.706-2.519,1.2-3.108,1.455-.833.357-2.624,1.487-3.362,1.481-1.156-.009-2.267-2.234-3.164-2.7-.606-.313-1.775,1.389-2.216,1.786-.084.609,2.864,2.3,2.725,3.779a17.857,17.857,0,0,1-1.39,2.945c-.356.832-.7,3.291-1.779,3.291h-3.929v2.788h3.929c1.087,0,1.418,2.46,1.779,3.291a29.489,29.489,0,0,1,1.386,2.684c.3,1.759-2.813,3.378-2.721,4.041.441.4,1.61,2.1,2.216,1.786.9-.463,2.008-2.689,3.164-2.7.738-.006,2.529,1.124,3.362,1.481.588.252,3.108.749,3.108,1.455v4.182h2.788v-3.929c0-1.076,2.317-1.374,3.1-1.713s2.758-1.482,3.367-1.476c1.18.01,3,2.819,3.545,2.745l1.88-2.056c-.076-.432-2.194-1.983-2.53-2.555-.749-1.276.458-2.06.9-3.186.368-.943.939-4.052,2.031-4.052h3.929v-2.788h-3.929c-1.092,0-1.664-3.109-2.031-4.052-.439-1.126-1.646-1.91-.9-3.186.333-.567,2.462-2.134,2.53-2.555-.119-.564-1.526-2.1-2.029-2.018-.718.118-2.122,2.825-3.63,2.686a26.729,26.729,0,0,1-3.134-1.455c-.786-.339-3.1-.636-3.1-1.713Z" transform="translate(-81.538 -61.023)" fill="#5d0b80"/>
            <path id="Trazado_1263606" data-name="Trazado 1263606" d="M226.136,216.748c.717-.718,5.3-2.425,6.736-3.276A33.383,33.383,0,0,0,244,202.29c.79-1.346,2.978-6.969,3.537-7.433,1.661-1.379,6.96-1.213,7.148,1.667.118,1.8-3.034,8.048-4.094,9.823-4.451,7.456-12.85,14.759-21.254,17.271-1.064.318-1.849.56-2.872-.146-1.3-.9-1.314-5.733-.325-6.723M251.9,196.891c-.723.1-2.171-.267-2.668.244-.291.3-1.983,4.611-2.522,5.589a34.356,34.356,0,0,1-18.605,15.739l-.029,2.758A36.924,36.924,0,0,0,251.9,196.891" transform="translate(-168.293 -144.84)" fill="#5d0b80"/>
            <path id="Trazado_1263607" data-name="Trazado 1263607" d="M246.964,39.419c-.752-.722-1.44-3.126-2.02-4.19a33.057,33.057,0,0,0-12.185-12.908c-1.3-.761-6.113-2.625-6.671-3.285-.673-.8-.662-3.926-.515-5.013.514-3.791,5.792-1.089,7.787-.16,8.544,3.978,16.618,12.229,19.976,21.086.573,1.511,1.436,2.849.245,4.294-.939,1.139-5.623,1.132-6.617.177m4.473-1.941a36.809,36.809,0,0,0-23.317-22.81l.029,2.758a33.854,33.854,0,0,1,20.535,20.019Z" transform="translate(-168.336 -9.003)" fill="#5d0b80"/>
            <path id="Trazado_1263608" data-name="Trazado 1263608" d="M52.05,213.526c2.295-.192,2.978,2.691,4.016,4.236a32.735,32.735,0,0,0,11.342,10.711c1.174.654,5.5,2.312,6.007,2.864.7.764.612,3.73.512,4.835-.359,3.943-4.866,1.66-7.056.7a40.734,40.734,0,0,1-17.394-15.05c-1.037-1.655-3.732-5.5-1.513-7.046a30.64,30.64,0,0,1,4.086-1.245m.3,2.754a10.3,10.3,0,0,0-2.142.485c-.234.07-.509-.145-.36.372a24.644,24.644,0,0,0,2.825,4.781,37.453,37.453,0,0,0,18.708,13.86l-.029-2.758a33.59,33.59,0,0,1-19-16.74" transform="translate(-35.17 -159.397)" fill="#5d0b80"/>
            <path id="Trazado_1263609" data-name="Trazado 1263609" d="M9.535,117.6a1.7,1.7,0,0,1,.084,1.863,28.178,28.178,0,0,1-2.734,1.321c-6.652,4.038-5.309,14.382,2.091,16.51,10.828,3.114,16.491-11.748,6.966-16.851-1.182-.633-2.847-.422-2.545-2.258.436-2.648,5.782,1.148,6.727,2.131,8.544,8.89-.653,23.478-12.434,19.278-9.285-3.31-10.457-16.316-1.9-21.174.83-.471,2.929-1.644,3.745-.821" transform="translate(0 -87.54)" fill="#5d0b80"/>
            <path id="Trazado_1263610" data-name="Trazado 1263610" d="M307.773,136.184c1.065-.215,6.183-.2,7.006.227,2.153,1.1,1.907,5.326,1.681,7.446a3.234,3.234,0,0,1-3.168,3.168c-1.96.22-6.035.4-7.226-1.393-.663-1-.705-5.807-.492-7.086a3.212,3.212,0,0,1,2.2-2.363m.322,8.052c.249-.082.55.253.634.253h4.562a4.233,4.233,0,0,0,.634-.634V139.04l-.38-.38h-5.069l-.38.38Z" transform="translate(-228.034 -101.565)" fill="#5d0b80"/>
            <path id="Trazado_1263611" data-name="Trazado 1263611" d="M170.8.142c1.135-.257,6.2-.179,7.15.348A3.284,3.284,0,0,1,179.5,3c.226,1.978.409,6.078-1.283,7.335-1.171.869-5.184.838-6.707.655a3.747,3.747,0,0,1-2.4-1.4c-.7-1.05-.686-5.709-.445-7.039A3.6,3.6,0,0,1,170.8.142m.327,8.058c.249-.082.55.253.634.253h4.562a4.23,4.23,0,0,0,.634-.634V3l-.38-.38h-5.069l-.38.38Z" transform="translate(-125.796 0)" fill="#5d0b80"/>
            <path id="Trazado_1263612" data-name="Trazado 1263612" d="M171.085,280.107c1.378-.281,5.868-.236,7,.492,1.884,1.215,1.673,5.368,1.437,7.434a3.141,3.141,0,0,1-2.915,2.915c-1.247.142-5.544.174-6.452-.392a5.45,5.45,0,0,1-1.132-1.15c-.568-1.015-.567-5.637-.341-6.89a3.362,3.362,0,0,1,2.406-2.41m.069,2.73v5.2l.38.38H176.6l.38-.38v-4.816a4.229,4.229,0,0,0-.634-.634h-4.562c-.084,0-.385.336-.634.254" transform="translate(-125.818 -208.989)" fill="#5d0b80"/>
            <path id="Trazado_1263613" data-name="Trazado 1263613" d="M105.756,7.384H96c-1.3,0-1.63-2.788-.253-2.788h10.012c-.337-.794-1.914-1.606-2.036-2.422A1.35,1.35,0,0,1,105.256.641a51.556,51.556,0,0,1,4.821,4.574,1.237,1.237,0,0,1,0,1.55,52.9,52.9,0,0,1-4.5,4.371c-.89.27-1.877-.037-1.873-1.092,0-1.037,1.618-1.749,2.053-2.66" transform="translate(-70.813 -0.452)" fill="#5d0b80"/>
            <path id="Trazado_1263614" data-name="Trazado 1263614" d="M28.269,150.6c1.5-.929,2.15.265,3.106,1.2.269,0,3.051-3.353,3.87-3.747,1.095-.526,2.339.238,1.986,1.475a49.1,49.1,0,0,1-4.7,4.947,2.1,2.1,0,0,1-.991.5c-1.1.135-4.556-3.024-3.268-4.375" transform="translate(-20.892 -110.4)" fill="#5d0b80"/>
            <path id="Trazado_1263615" data-name="Trazado 1263615" d="M167.179,134.171a7.309,7.309,0,0,1,7.17,2.341c.637.777,1.508,1.877.392,2.686-1.472,1.067-2.407-1.46-3.777-2.089-4.318-1.982-8.364,2.761-5.748,6.509a4.537,4.537,0,0,0,6.681.847c.708-.6,2.108-3.113,3.077-.969.836,1.852-2.781,4.228-4.367,4.5-10.438,1.762-11.271-12.5-3.428-13.82" transform="translate(-120.896 -100.057)" fill="#5d0b80"/>
          </g>
        </g>
      </g>
    </g>
  </g>
</svg>
