<svg xmlns="http://www.w3.org/2000/svg" xmlns:xlink="http://www.w3.org/1999/xlink" width="127" height="128" viewBox="0 0 127 128">
  <defs>
    <clipPath id="clip-path">
      <rect id="Rect치ngulo_457674" data-name="Rect치ngulo 457674" width="61.517" height="80.124" fill="#5d0b80"/>
    </clipPath>
  </defs>
  <g id="Grupo_1205627" data-name="Grupo 1205627" transform="translate(-0.116)">
    <ellipse id="Elipse_13609" data-name="Elipse 13609" cx="63.5" cy="64" rx="63.5" ry="64" transform="translate(0.116)" fill="#fff"/>
    <g id="Grupo_1099776" data-name="Grupo 1099776" transform="translate(23.859 24)">
      <g id="Grupo_1099618" data-name="Grupo 1099618" transform="translate(-0.242 -0.498)">
        <rect id="Rect치ngulo_401104" data-name="Rect치ngulo 401104" width="78.706" height="80.124" transform="translate(0)" fill="none"/>
      </g>
      <g id="Grupo_1206788" data-name="Grupo 1206788" transform="translate(8.758 -0.498)">
        <g id="Grupo_1206787" data-name="Grupo 1206787" clip-path="url(#clip-path)">
          <path id="Trazado_1264674" data-name="Trazado 1264674" d="M8.107.852a1.577,1.577,0,0,1,.412-.63L48.4,0,61.134,11.022l.384,1.331L61.278,71.6a1.65,1.65,0,0,1-.63.412H54.892V78.99c0,.3-.852,1.286-1.335,1.114L.764,79.964a1.47,1.47,0,0,1-.756-1.449L.251,8.49a1.65,1.65,0,0,1,.63-.412H8.107c.273-2.152-.368-5.192,0-7.226m38.7,1.837H10.8V69.314H58.811V13.222H47.421a3.756,3.756,0,0,1-.612-.857Zm9.553,8.083c.084-.432-.221-.6-.486-.861-2-1.934-4.32-3.628-6.372-5.508v6.369Zm-48.254,0H2.718V77.4H52.2V72.009H8.72a4.089,4.089,0,0,1-.612-.612Z" transform="translate(0)" fill="#5d0b80"/>
          <path id="Trazado_1264675" data-name="Trazado 1264675" d="M77.813,70.915c17.792-1.807,29.2,17.938,18.279,32.241-8.872,11.621-27.36,9.684-33.79-3.4-6-12.215,1.908-27.457,15.51-28.839m0,2.69c-7.861.887-14.358,8.176-14.884,15.979-1.122,16.653,19.957,25.221,30.608,12.482,10.313-12.334.226-30.26-15.724-28.461" transform="translate(-45.507 -53.458)" fill="#5d0b80"/>
          <path id="Trazado_1264676" data-name="Trazado 1264676" d="M96.8,250.978c1.185.212,1.406,2.452-.729,2.7l-40.236-.192c-1.348-.566-.748-2.508-.186-2.508Z" transform="translate(-41.544 -189.502)" fill="#5d0b80"/>
          <path id="Trazado_1264677" data-name="Trazado 1264677" d="M77.269,44.171l22.75.179a1.218,1.218,0,0,1,0,2L77.7,46.585a1.244,1.244,0,0,1-.431-2.414" transform="translate(-57.724 -33.351)" fill="#5d0b80"/>
          <path id="Trazado_1264678" data-name="Trazado 1264678" d="M115.008,119.986a14.327,14.327,0,0,1-1.078,1c1.21,1.751,6.033,4.495,4.662,6.872-.107.186-1.9,2.129-2.211,2.442-1,1.014-1.753,1.859-3.282,1.064-.765-.4-4.571-4.617-4.93-4.617-1.066.947-1.988,2.13-3.058,3.061-1.152,1-2.333,2.458-3.912,1.454a40.672,40.672,0,0,1-3.635-3.712c-.706-2.329,3.608-4.831,4.845-6.563-1.231-1.826-5.588-3.786-4.842-6.316a17.25,17.25,0,0,1,3.853-3.984c2.6-.839,4.849,3.427,6.75,4.784,1.909-1.363,4.393-6,7.073-4.618a32.3,32.3,0,0,1,3.2,3.164c1.517,2.412-1.893,4.506-3.438,5.97m-9.513-3.674c-1.1-.984-2.2-1.952-3.2-3.037l-2.078,2.078,5.334,5.672c.092.981-4.572,4.795-5.334,5.841l2.078,2.078c1.207-.887,4.7-5.407,6.028-5.27,1.224.126,5.334,5.27,5.729,5.27l2.083-2.318c-.09-.326-4.363-3.7-4.911-4.645a1.6,1.6,0,0,1-.235-1.227c.164-.95,5.141-5.026,5.141-5.4l-2.078-2.078c-.383,0-4.365,4.955-5.648,5.148-.95.143-2.169-1.452-2.905-2.111" transform="translate(-73.604 -83.492)" fill="#5d0b80"/>
        </g>
      </g>
    </g>
  </g>
</svg>
