<svg xmlns="http://www.w3.org/2000/svg" xmlns:xlink="http://www.w3.org/1999/xlink" width="160.5" height="160.501" viewBox="0 0 160.5 160.501">
  <defs>
    <clipPath id="clip-path">
      <rect id="Rectángulo_455261" data-name="Rectángulo 455261" width="38.951" height="37.623" fill="#e6fffa"/>
    </clipPath>
    <clipPath id="clip-path-2">
      <rect id="Rectángulo_457338" data-name="Rectángulo 457338" width="88" height="87.14" fill="#5d0b80"/>
    </clipPath>
  </defs>
  <g id="Grupo_1206098" data-name="Grupo 1206098" transform="translate(-307.436 -10011.92)">
    <path id="Sustracción_130" data-name="Sustracción 130" d="M26.051,25.795H0V11.245H11.352V0h14.7V25.795Z" transform="translate(441.641 10038.471) rotate(-90)" fill="#e3a4fe" stroke="rgba(0,0,0,0)" stroke-miterlimit="10" stroke-width="1"/>
    <g id="Grupo_1178100" data-name="Grupo 1178100" transform="translate(307.436 10172.421) rotate(-90)">
      <path id="Trazado_998183" data-name="Trazado 998183" d="M0,0V37.623H25.58V24.056H38.951V0Z" transform="translate(0 0)" fill="#5d0b80"/>
      <g id="Grupo_1178099" data-name="Grupo 1178099" transform="translate(0 0)">
        <g id="Grupo_1178098" data-name="Grupo 1178098" clip-path="url(#clip-path)">
          <path id="Trazado_998184" data-name="Trazado 998184" d="M0,9.021a9.025,9.025,0,1,1,9.025,9.021A9.023,9.023,0,0,1,0,9.021" transform="translate(4.434 5.629)" fill="#e3a4fe"/>
        </g>
      </g>
    </g>
    <g id="Grupo_1177470" data-name="Grupo 1177470" transform="translate(308.059 10012.421)">
      <circle id="Elipse_13609" data-name="Elipse 13609" cx="79.688" cy="79.688" r="79.688" fill="#f0d5fe"/>
      <g id="Grupo_1099776" data-name="Grupo 1099776" transform="translate(33.723 33.96)">
        <g id="Grupo_1099618" data-name="Grupo 1099618" transform="translate(-0.344 0.273)">
          <rect id="Rectángulo_401104" data-name="Rectángulo 401104" width="90.569" height="91.661" transform="translate(0)" fill="none"/>
        </g>
        <g id="Grupo_1206538" data-name="Grupo 1206538" transform="translate(7.656 -74.248)">
          <g id="Grupo_1206537" data-name="Grupo 1206537" transform="translate(-8 74.091)" clip-path="url(#clip-path-2)">
            <path id="Trazado_1263587" data-name="Trazado 1263587" d="M65.03,81.172c-.32,1.8-2.514,3.173-4.255,3.218l-48.259.057c-1.382,3.194-4.894,3.7-6.858.7C4.68,83.65.476,75.336.342,73.97,1.206,61.43-.772,47.42.359,35.053c.335-3.664,2.384-5.72,5.674-7.006l-.01-15.674c.66-6.161,9.907-3.388,14.045-3.992l.518-.255c1.329-3.267,5.054-2.543,7.939-2.572,2.157-7.226,12.029-7.572,13.856-.035,3.134.112,7-.728,8.379,2.877,3.352.437,10.214-1.063,12.852,1.016a6.182,6.182,0,0,1,1.418,1.931v8.374H84.484a13.263,13.263,0,0,1,1.933,1.159,5.429,5.429,0,0,1,1.259,2.864,113.957,113.957,0,0,1,.038,16.472,7.088,7.088,0,0,1-.779,2.828,6.022,6.022,0,0,1-2.708,1.93H65.03V47.8H84.484a9.605,9.605,0,0,1,2.152,1.455,6.519,6.519,0,0,1,1.047,2.561A113.272,113.272,0,0,1,87.714,68.3a7.088,7.088,0,0,1-.779,2.828,6.022,6.022,0,0,1-2.708,1.93H65.03c-.3,2.424.408,5.821,0,8.117M39.52,5.545c-1.384-3.586-6.53-3.735-7.73,0ZM23.986,8.434a1.817,1.817,0,0,0-.822.724,39.738,39.738,0,0,0-.128,6.558,1.614,1.614,0,0,0,.95,1.112l22.625.06a1.582,1.582,0,0,0,1.556-1.02,31.58,31.58,0,0,0,.1-6.054,1.509,1.509,0,0,0-1-1.32ZM20.2,11.214H10.017c-.478,0-1.288,1.108-1.164,1.67L8.842,27.8l2.85.416V14.049h8.5Zm41.1,0c-2.919-.49-7.115.364-10.178,0v2.834h8.245v5.282c.679.733,1.913.27,2.834.387v-7.6c0-.29-.6-.851-.9-.9M20.453,16.883H14.526V29.766c0,.035.446.034.645.245a7.609,7.609,0,0,1,1.96,3.591c3.005-.229,5.557,1.057,5.9,4.279a69.379,69.379,0,0,1-.007,10.045c-.158.828-1.78,1.84-2.309,2.582l2.314,2.319v4.767H20.194c-.154-.154.215-2.84-.132-3.6-.273-.6-2.132-2.008-2.7-2.581V74.988c0,.17-.5.625-.515.9H56.784l-.054-3.041a4.363,4.363,0,0,1-2.787-3.266c-.684-5.679.509-12.716.022-18.542a4.346,4.346,0,0,1,2.777-3.019L56.8,45.09c-.056-.476-1.536-1.094-2.08-1.8a3.751,3.751,0,0,1-.757-1.562c.4-5.858-.588-12.532-.029-18.291.2-2.072,1.465-2.584,2.8-3.9l.048-2.657H50.6c-.047,0,.021.536-.246.9a4.639,4.639,0,0,1-3.737,1.942c-7.3.543-15.289-.409-22.663-.033a5.789,5.789,0,0,1-2.345-1,7.362,7.362,0,0,1-1.156-1.807M57.48,22.6c-.562.193-.638.57-.708,1.1-.693,5.206.553,11.918,0,17.29-.01,1.02.853,1.084,1.677,1.157,7.8.693,16.6-.552,24.5,0,1.441-.011,1.81-.594,1.933-1.933a112.763,112.763,0,0,0-.006-15.993A2.033,2.033,0,0,0,84.1,22.68ZM14.526,42.135V34.276a10.238,10.238,0,0,0-.655-1.406c-1.817-2.811-8.03-2.9-9.868-.1a14.377,14.377,0,0,0-.815,1.762v7.6Zm2.834,7.73c1.03-.99,2.7-1.99,2.85-3.463a57.039,57.039,0,0,0-.071-8.721c-.307-1.336-1.673-1.276-2.779-1.215Zm-2.834-4.9H3.189V47.8H14.526Zm47.67,0H59.36c.1.636-.245,2.384.243,2.723L62.2,47.8Zm-47.67,5.67H3.189V73.055H14.526Zm42.954.052c-.562.193-.638.57-.708,1.1-.693,5.206.553,11.918,0,17.29-.01,1.02.853,1.084,1.677,1.157,7.8.693,16.6-.552,24.5,0,1.441-.011,1.81-.594,1.933-1.933a112.763,112.763,0,0,0-.006-15.993,2.033,2.033,0,0,0-.778-1.541ZM62.2,73.055H59.361v5.669H15.3l-1.288,2.834H61.036a4.354,4.354,0,0,0,1.16-.9ZM13.5,75.89H4.22c1.448,2.228,2.345,5.774,3.9,7.823.438.577,1,.837,1.528.241Z" transform="translate(0 0)" fill="#5d0b80"/>
            <path id="Trazado_1263588" data-name="Trazado 1263588" d="M105.641,242.688a5.647,5.647,0,0,1-1.678-1.157c-.606-.721-1.163-3.963-2.182-2.7-.446.55-.45,1.955-1.281,2.842a3.49,3.49,0,0,1-5.042-.136c-.783-.91-.644-3.421-2.075-2.814-.816,5.338-7.009,5.354-7.455-.154-1.1.461-1.648,1.2-2.967,1.295-6.607.475-5.633-10.141,1.163-8.254v-3.092l2.594.114.205.31c.228,1.5-.206,3.35.093,4.8.125.609,1.586,4.774,1.872,5.342.254.5.554,1.137,1.181.616.573-2.456,1.825-4.5,4.69-3.908,2.543.528,2.441,3.9,3.154,4.062,1.339-.487,1-2.363,2.053-3.354a3.729,3.729,0,0,1,4.777.128c1.657,1.789.079,4.031,4.634,3.225v2.836c-1.114-.151-2.7.208-3.736,0m-23.135-8.456a1.418,1.418,0,1,0,.447,2.8c.924-.128,1.627-1.86.917-2.457a2.722,2.722,0,0,0-1.364-.339" transform="translate(-58.261 -169.633)" fill="#5d0b80"/>
            <rect id="Rectángulo_457331" data-name="Rectángulo 457331" width="25.252" height="3.092" transform="translate(25.864 27.963)" fill="#5d0b80"/>
            <path id="Trazado_1263589" data-name="Trazado 1263589" d="M125.629,209.613H100.377v-3.092h24.865c.755.748.253,2.1.386,3.092" transform="translate(-74.513 -153.307)" fill="#5d0b80"/>
            <rect id="Rectángulo_457332" data-name="Rectángulo 457332" width="25.252" height="2.834" transform="translate(25.864 39.3)" fill="#5d0b80"/>
            <rect id="Rectángulo_457333" data-name="Rectángulo 457333" width="25.252" height="2.834" transform="translate(25.864 47.803)" fill="#5d0b80"/>
            <rect id="Rectángulo_457334" data-name="Rectángulo 457334" width="19.841" height="2.834" transform="translate(31.275 22.552)" fill="#5d0b80"/>
            <rect id="Rectángulo_457335" data-name="Rectángulo 457335" width="17.006" height="2.834" transform="translate(34.11 33.631)" fill="#5d0b80"/>
            <rect id="Rectángulo_457336" data-name="Rectángulo 457336" width="5.669" height="2.834" transform="translate(25.864 33.631)" fill="#5d0b80"/>
            <rect id="Rectángulo_457337" data-name="Rectángulo 457337" width="2.837" height="2.837" transform="translate(25.863 22.55)" fill="#5d0b80"/>
            <path id="Trazado_1263590" data-name="Trazado 1263590" d="M255.277,94.589c.315-.055,2.336,1.706,1.777,2.3l-13.023,13.033c-.194.172-.313.1-.511,0-.3-.155-4.629-4.484-4.784-4.784-.27-.523,1.458-2.1,1.784-2.04l3.127,3.069Z" transform="translate(-177.199 -70.215)" fill="#5d0b80"/>
            <path id="Trazado_1263591" data-name="Trazado 1263591" d="M255.277,203.589c.315-.055,2.336,1.706,1.777,2.3l-13.023,13.033c-.194.172-.313.1-.511,0-.3-.155-4.629-4.484-4.784-4.784-.27-.523,1.458-2.1,1.784-2.04l3.127,3.069Z" transform="translate(-177.199 -151.129)" fill="#5d0b80"/>
            <path id="Trazado_1263592" data-name="Trazado 1263592" d="M101.09,43.6a1.413,1.413,0,1,1,.645,2.75,1.413,1.413,0,0,1-.645-2.75" transform="translate(-74.259 -32.341)" fill="#5d0b80"/>
            <path id="Trazado_1263593" data-name="Trazado 1263593" d="M166.6,43.623a1.419,1.419,0,0,1,.441,2.8,1.419,1.419,0,1,1-.441-2.8" transform="translate(-122.768 -32.368)" fill="#5d0b80"/>
          </g>
        </g>
      </g>
    </g>
  </g>
</svg>
