<svg xmlns="http://www.w3.org/2000/svg" xmlns:xlink="http://www.w3.org/1999/xlink" width="499.52" height="318.233" viewBox="0 0 499.52 318.233">
  <defs>
    <clipPath id="clip-path">
      <rect id="Rectángulo_457599" data-name="Rectángulo 457599" width="381.422" height="310.367" fill="none"/>
    </clipPath>
    <clipPath id="clip-path-3">
      <rect id="Rectángulo_457596" data-name="Rectángulo 457596" width="381.422" height="309.954" fill="none"/>
    </clipPath>
    <clipPath id="clip-path-4">
      <rect id="Rectángulo_457588" data-name="Rectángulo 457588" width="369.269" height="255.747" fill="none"/>
    </clipPath>
    <clipPath id="clip-path-6">
      <rect id="Rectángulo_457589" data-name="Rectángulo 457589" width="17.362" height="18.003" fill="none"/>
    </clipPath>
    <clipPath id="clip-path-7">
      <rect id="Rectángulo_457590" data-name="Rectángulo 457590" width="29.012" height="24.248" fill="none"/>
    </clipPath>
    <clipPath id="clip-path-8">
      <rect id="Rectángulo_457591" data-name="Rectángulo 457591" width="20.786" height="26.529" fill="none"/>
    </clipPath>
    <clipPath id="clip-path-9">
      <rect id="Rectángulo_457592" data-name="Rectángulo 457592" width="27.305" height="23.429" fill="none"/>
    </clipPath>
    <clipPath id="clip-path-10">
      <rect id="Rectángulo_457593" data-name="Rectángulo 457593" width="22.586" height="21.858" fill="none"/>
    </clipPath>
    <clipPath id="clip-path-11">
      <rect id="Rectángulo_457594" data-name="Rectángulo 457594" width="295.039" height="221.836" fill="none"/>
    </clipPath>
    <clipPath id="clip-path-12">
      <rect id="Rectángulo_457595" data-name="Rectángulo 457595" width="181.773" height="133.621" fill="none"/>
    </clipPath>
  </defs>
  <g id="Grupo_1204846" data-name="Grupo 1204846" transform="translate(-810.951 -5649.717)">
    <g id="Grupo_1206741" data-name="Grupo 1206741">
      <g id="Grupo_1204235" data-name="Grupo 1204235" transform="translate(810.951 5649.717)">
        <rect id="Rectángulo_402012" data-name="Rectángulo 402012" width="499.52" height="318.233" fill="#fbf1ff"/>
      </g>
      <g id="Grupo_1206740" data-name="Grupo 1206740" transform="translate(869.951 5657.582)">
        <g id="Grupo_1206739" data-name="Grupo 1206739" clip-path="url(#clip-path)">
          <g id="Grupo_1206738" data-name="Grupo 1206738" transform="translate(0 2)">
            <g id="Grupo_1206737" data-name="Grupo 1206737" clip-path="url(#clip-path)">
              <g id="Grupo_1206736" data-name="Grupo 1206736" transform="translate(0 0.414)" opacity="0.86">
                <g id="Grupo_1206735" data-name="Grupo 1206735">
                  <g id="Grupo_1206734" data-name="Grupo 1206734" clip-path="url(#clip-path-3)">
                    <g id="Grupo_1206712" data-name="Grupo 1206712" transform="translate(0 50.958)" opacity="0.68">
                      <g id="Grupo_1206711" data-name="Grupo 1206711">
                        <g id="Grupo_1206710" data-name="Grupo 1206710" clip-path="url(#clip-path-4)">
                          <g id="Grupo_1206709" data-name="Grupo 1206709" opacity="0.47">
                            <g id="Grupo_1206708" data-name="Grupo 1206708">
                              <g id="Grupo_1206707" data-name="Grupo 1206707" clip-path="url(#clip-path-4)">
                                <path id="Trazado_1264457" data-name="Trazado 1264457" d="M368.852,161.319c-1.808-20.694-10.5-41.425-25.567-56.239C319.815,82,284.312,76.178,253.2,81.514c-13.033,2.235-25.958,6.194-39.3,4.948-19.463-1.817-36.608-14.277-54.329-23.411C135.443,50.62,107.792,43.927,82.148,49.338c-29.076,6.134-52.917,29.3-55.761,60.047-1.288,13.929,11.809,38.47,7.675,51.672-4.193,13.39-34.8,54.4-34.048,85.6.752,31.079,7.8,40.746,17.764,56.541H312.483c25.012,0,42.75-25.074,34.628-49.194-.07-.209-.142-.418-.214-.628-5.8-16.792,9.963-30.622,16.062-46.254,5.429-13.911,7.216-30.642,5.892-45.8" transform="translate(0 -47.446)" fill="#c9c7f6"/>
                              </g>
                            </g>
                          </g>
                        </g>
                      </g>
                    </g>
                    <g id="Grupo_1206715" data-name="Grupo 1206715" transform="translate(3.768 154.497)" opacity="0.41">
                      <g id="Grupo_1206714" data-name="Grupo 1206714">
                        <g id="Grupo_1206713" data-name="Grupo 1206713" clip-path="url(#clip-path-6)">
                          <path id="Trazado_1264458" data-name="Trazado 1264458" d="M4.291,155.906c-1.909-4.2-.426-9.339,3.315-11.482s10.921-1.967,12.831,2.231-3.848,7.782-6.2,11.687c-3.282,5.445-8.036,1.762-9.945-2.436" transform="translate(-3.457 -143.073)" fill="#c9c7f6"/>
                        </g>
                      </g>
                    </g>
                    <g id="Grupo_1206718" data-name="Grupo 1206718" transform="translate(174.085)" opacity="0.41">
                      <g id="Grupo_1206717" data-name="Grupo 1206717">
                        <g id="Grupo_1206716" data-name="Grupo 1206716" clip-path="url(#clip-path-7)">
                          <path id="Trazado_1264459" data-name="Trazado 1264459" d="M160.1,11.764c1.432-6.935,7.943-12,14.542-11.321s15.375,7.331,13.944,14.265-11.849,6.24-18.32,8.992c-9.024,3.839-11.6-5-10.167-11.936" transform="translate(-159.727 -0.382)" fill="#c9c7f6"/>
                        </g>
                      </g>
                    </g>
                    <g id="Grupo_1206721" data-name="Grupo 1206721" transform="translate(360.636 237.856)" opacity="0.41">
                      <g id="Grupo_1206720" data-name="Grupo 1206720">
                        <g id="Grupo_1206719" data-name="Grupo 1206719" clip-path="url(#clip-path-8)">
                          <path id="Trazado_1264460" data-name="Trazado 1264460" d="M347.517,223c4.58,3.833,5.524,11.106,2.109,16.244s-12.27,9.77-16.85,5.937.524-12.09,1.3-18.441c1.086-8.858,8.859-7.573,13.438-3.74" transform="translate(-330.891 -220.062)" fill="#c9c7f6"/>
                        </g>
                      </g>
                    </g>
                    <g id="Grupo_1206724" data-name="Grupo 1206724" transform="translate(331.839 61.646)" opacity="0.41">
                      <g id="Grupo_1206723" data-name="Grupo 1206723">
                        <g id="Grupo_1206722" data-name="Grupo 1206722" clip-path="url(#clip-path-9)">
                          <path id="Trazado_1264461" data-name="Trazado 1264461" d="M327.158,78.062c-4.9,3.952-12.665,3.485-17.345-1.043s-7.756-14.549-2.857-18.5,12.5,2.929,18.961,4.984c9.016,2.867,6.139,10.608,1.24,14.56" transform="translate(-304.469 -57.317)" fill="#c9c7f6"/>
                        </g>
                      </g>
                    </g>
                    <g id="Grupo_1206727" data-name="Grupo 1206727" transform="translate(229.879 56.129)" opacity="0.41">
                      <g id="Grupo_1206726" data-name="Grupo 1206726">
                        <g id="Grupo_1206725" data-name="Grupo 1206725" clip-path="url(#clip-path-10)">
                          <path id="Trazado_1264462" data-name="Trazado 1264462" d="M213.085,57.353c3.033-5.186,9.137-6.69,13.633-3.361s8.805,12.547,5.772,17.733-10.241.248-15.643-.162c-7.533-.572-6.8-9.024-3.762-14.21" transform="translate(-210.919 -52.222)" fill="#c9c7f6"/>
                        </g>
                      </g>
                    </g>
                    <g id="Grupo_1206730" data-name="Grupo 1206730" transform="translate(29.883 88.118)" opacity="0.43">
                      <g id="Grupo_1206729" data-name="Grupo 1206729">
                        <g id="Grupo_1206728" data-name="Grupo 1206728" clip-path="url(#clip-path-11)">
                          <path id="Trazado_1264463" data-name="Trazado 1264463" d="M317.455,281.97c3.046-17.9-1.836-33.163-3.055-50.712-1.152-16.615,3.841-30.587,6.61-46.412,2.465-14.083,1.644-30.034-1.451-43.876-4.224-18.9-13.955-36.4-27.974-47.063-21.844-16.621-50.977-14.665-75.106-3.231-10.107,4.789-19.895,11.162-30.719,12.773-15.787,2.351-31.152-5.691-46.53-10.516-20.934-6.567-43.913-7.055-63.664,3.311C53.173,108,37.25,134.527,39.11,163.748c.844,13.24,5.155,26.306,3.629,39.459-1.549,13.34-8.254,24.5-11.8,37.064-4.846,17.149-5.286,42.351,2.5,59.752L292.269,303.6c12.238.169,22.944-8.845,25.154-21.44l.033-.19" transform="translate(-27.418 -81.766)" fill="#c9c7f6"/>
                        </g>
                      </g>
                    </g>
                    <g id="Grupo_1206733" data-name="Grupo 1206733" transform="translate(86.515 169.506)" opacity="0.47">
                      <g id="Grupo_1206732" data-name="Grupo 1206732">
                        <g id="Grupo_1206731" data-name="Grupo 1206731" clip-path="url(#clip-path-12)">
                          <path id="Trazado_1264464" data-name="Trazado 1264464" d="M260.946,216.43c-.889-10.812-5.17-21.643-12.585-29.383-11.554-12.061-29.029-15.1-44.347-12.313-6.415,1.168-12.777,3.237-19.347,2.586-9.58-.95-18.02-7.459-26.743-12.231-11.874-6.5-25.486-9.993-38.109-7.166A35.251,35.251,0,0,0,92.368,189.3c-.634,7.278,5.812,20.1,3.778,27-2.064,7-17.131,28.423-16.759,44.723.369,16.238,3.84,21.288,8.744,29.54H232.346c12.755,0,21.918-13.037,17.9-25.7-.035-.109-.07-.219-.106-.329-2.857-8.773,4.9-16,7.907-24.166a57.955,57.955,0,0,0,2.9-23.929" transform="translate(-79.38 -156.935)" fill="#c9c7f6"/>
                        </g>
                      </g>
                    </g>
                  </g>
                </g>
              </g>
              <path id="Trazado_1264465" data-name="Trazado 1264465" d="M215.286,214.33c2.708-68.666-59.734-76.772-59.734-76.772l0,.284-5.677-1.451-22.849,10.767-22.576-15.123-31,6.63S28.676,149.523,30.26,205.159a2.335,2.335,0,0,0,1.94,2.233l18.494,18.7,6.83,51.443c-3.121,6.358-8.43,18.663-8.43,18.663H206.766Z" transform="translate(2.716 10.924)" fill="#ef9797"/>
              <path id="Trazado_1264466" data-name="Trazado 1264466" d="M146.387,137.514l-24.358,8.994L95.865,132.565l2.369,163.586h52.5Z" transform="translate(8.618 10.968)" fill="#eaddcc"/>
              <path id="Trazado_1264467" data-name="Trazado 1264467" d="M122.241,295.45a.545.545,0,0,1-.545-.531L118.711,145.3a.545.545,0,0,1,1.09-.021L122.786,294.9a.543.543,0,0,1-.534.552Z" transform="translate(10.671 11.976)" fill="#373449"/>
              <path id="Trazado_1264468" data-name="Trazado 1264468" d="M128.7,167.156a2.932,2.932,0,1,1,2.951-2.932,2.945,2.945,0,0,1-2.951,2.932m0-4.781a1.849,1.849,0,1,0,1.862,1.849,1.859,1.859,0,0,0-1.862-1.849" transform="translate(11.304 13.345)" fill="#373449"/>
              <path id="Trazado_1264469" data-name="Trazado 1264469" d="M130.386,196.658a2.932,2.932,0,1,1,2.951-2.932,2.945,2.945,0,0,1-2.951,2.932m0-4.781a1.849,1.849,0,1,0,1.862,1.849,1.859,1.859,0,0,0-1.862-1.849" transform="translate(11.456 15.786)" fill="#373449"/>
              <path id="Trazado_1264470" data-name="Trazado 1264470" d="M133.123,262.2a2.932,2.932,0,1,1,2.951-2.932,2.945,2.945,0,0,1-2.951,2.932m0-4.781a1.849,1.849,0,1,0,1.862,1.849,1.859,1.859,0,0,0-1.862-1.849" transform="translate(11.702 21.209)" fill="#373449"/>
              <path id="Trazado_1264471" data-name="Trazado 1264471" d="M168.349,59.946a12.216,12.216,0,0,0,.33-18.721c-7.889-6.815-20.552-13.413-37.331-8.233,3-11.441-5.4-17.562-15.083-17.024a21.955,21.955,0,0,0-5.99,1.188S110-.261,95.669,0c0,0-10.791-.186-10.047,16.167,0,0-7.575-5.519-15.3-1.144a13.389,13.389,0,0,0-6.6,12.61A23.046,23.046,0,0,0,69.027,40.24s-9.489,5.449-3.614,13.875c4.779,6.855,15.518,3.976,15.518,3.976s-6.705,8.661-1.738,13.232h0A14.212,14.212,0,0,0,77.168,82,24.265,24.265,0,0,0,84.421,94.41s-9.135,6.957-1.866,14.939c5.915,6.492,16.707,2.044,16.707,2.044s-5.8,9.925,0,14.015,15.049,1.284,26.575-11.446c2.705-2.988,5.033-5.671,7.031-8.049a61.944,61.944,0,0,0,9.78-3.571c14.926-6.776,22.045-11.424,22.045-11.424,19.986-13.988,14.891-27.046,3.658-30.972" transform="translate(5.708 0)" fill="#2b241f"/>
              <path id="Trazado_1264472" data-name="Trazado 1264472" d="M156.27,84.045l-.377.264.377-.264" transform="translate(14.014 6.954)" fill="#2b241f"/>
              <path id="Trazado_1264473" data-name="Trazado 1264473" d="M156.356,83.97l-.117.081.117-.081" transform="translate(14.045 6.948)" fill="#2b241f"/>
              <path id="Trazado_1264474" data-name="Trazado 1264474" d="M155.924,84.289h0" transform="translate(13.983 6.974)" fill="#2b241f"/>
              <path id="Trazado_1264475" data-name="Trazado 1264475" d="M127.845,55.32a24.531,24.531,0,0,1-10.752,5.619c-2.453,8.018-6.785,13.989-11.171,14.687l-3.773-.834-6.857.142A12.768,12.768,0,0,0,82.785,87.889l.007.289A12.776,12.776,0,0,0,95.831,100.6l5.125-.106-1.8,40.253c-.082,11.48,11.232,18.1,22.975,18.185l.487,0c11.741.082,21.415-9.244,21.5-20.725l.071-10.038c13.439-2.051,23.051-15.372,21.691-30.512L162.281,57.7a61.216,61.216,0,0,1-12.768,3.511c-8.767,1.487-16-1.505-21.668-5.892" transform="translate(7.442 4.577)" fill="#c0644b"/>
              <path id="Trazado_1264476" data-name="Trazado 1264476" d="M152.621,81.757a2.475,2.475,0,1,1-2.532-2.4,2.464,2.464,0,0,1,2.532,2.4" transform="translate(13.275 6.566)" fill="#2b241f"/>
              <path id="Trazado_1264477" data-name="Trazado 1264477" d="M129.12,82.223a2.475,2.475,0,1,1-2.531-2.4,2.467,2.467,0,0,1,2.531,2.4" transform="translate(11.162 6.604)" fill="#2b241f"/>
              <path id="Trazado_1264478" data-name="Trazado 1264478" d="M127.524,94.322a11.512,11.512,0,0,1-7.92-3.13,11.419,11.419,0,0,1-1.06-15.555,11.6,11.6,0,0,1,16.917-1.14,11.423,11.423,0,0,1,.474,16.224,11.507,11.507,0,0,1-8.066,3.6c-.116,0-.23.005-.344.005m.015-20.789c-.093,0-.186,0-.279,0A9.389,9.389,0,0,0,120.239,77a9.266,9.266,0,0,0,.861,12.619,9.415,9.415,0,0,0,13.249-.383,9.209,9.209,0,0,0,2.551-6.659h0a9.222,9.222,0,0,0-2.936-6.5,9.337,9.337,0,0,0-6.425-2.539" transform="translate(10.426 5.905)" fill="#f1ce6d"/>
              <path id="Trazado_1264479" data-name="Trazado 1264479" d="M153.94,93.26a11.512,11.512,0,0,1-7.92-3.13,11.423,11.423,0,0,1-.474-16.224,11.516,11.516,0,1,1,8.739,19.349c-.116,0-.23.005-.344.005m.013-20.789c-.093,0-.183,0-.276,0a9.339,9.339,0,0,0-6.546,2.918,9.268,9.268,0,0,0,.385,13.162,9.383,9.383,0,0,0,15.8-7.042h0a9.356,9.356,0,0,0-9.364-9.042" transform="translate(12.8 5.817)" fill="#f1ce6d"/>
              <path id="Trazado_1264480" data-name="Trazado 1264480" d="M137.133,94.226c2.23.071,4.014.46,6.011-.922a6.655,6.655,0,0,0,2.733-4.185,3.456,3.456,0,0,0-2.957-3.907l-1.208-.179a.434.434,0,0,1-.368-.375l-1.48-11.851" transform="translate(12.327 6.024)" fill="#c0644b"/>
              <path id="Trazado_1264481" data-name="Trazado 1264481" d="M139.656,95.494c-.487,0-.97-.027-1.447-.055-.331-.018-.67-.038-1.021-.049a1.083,1.083,0,0,1,.035-2.165h.036c.369.011.727.032,1.075.052,1.689.1,2.911.165,4.277-.781a5.562,5.562,0,0,0,2.282-3.468,2.234,2.234,0,0,0-.422-1.692,2.477,2.477,0,0,0-1.62-.971l-1.208-.179a1.524,1.524,0,0,1-1.289-1.311l-1.48-11.853a1.09,1.09,0,0,1,2.163-.266l1.418,11.361.717.105a4.671,4.671,0,0,1,3.056,1.834,4.369,4.369,0,0,1,.815,3.314,7.709,7.709,0,0,1-3.187,4.9,6.938,6.938,0,0,1-4.2,1.22" transform="translate(12.237 5.941)" fill="#a3452f"/>
              <path id="Trazado_1264482" data-name="Trazado 1264482" d="M136.717,81.428l-1.3-1.737c1.7-1.262,5.86-2.935,9.437-.227l-1.32,1.722c-3.154-2.384-6.667.134-6.815.243" transform="translate(12.173 6.455)" fill="#f1ce6d"/>
              <line id="Línea_3605" data-name="Línea 3605" x2="19.319" y2="5.362" transform="translate(107.746 78.389)" fill="#fff"/>
              <path id="Trazado_1264483" data-name="Trazado 1264483" d="M118.269,78.927a1.074,1.074,0,0,1-.3-.041L98.656,73.524a1.083,1.083,0,1,1,.587-2.085L118.561,76.8a1.082,1.082,0,0,1-.292,2.125" transform="translate(8.797 5.908)" fill="#f1ce6d"/>
              <path id="Trazado_1264484" data-name="Trazado 1264484" d="M142.9,109.983a.522.522,0,0,1-.347-.005,4.4,4.4,0,0,0-4.792,1.206.518.518,0,0,1-.725.068.509.509,0,0,1-.07-.72c2.355-2.829,5.917-1.526,5.953-1.511a.511.511,0,0,1-.02.963" transform="translate(12.302 8.994)" fill="#a3452f"/>
              <path id="Trazado_1264485" data-name="Trazado 1264485" d="M120,71.267a7.552,7.552,0,0,0,3.1-.29c1.081-.248,2.173-.469,3.129-.628s2.063-.307,3.166-.426a7.482,7.482,0,0,0,3.02-.733c.763-.483.93-1.528-.248-2.58-1.114-1.031-3.721-1.918-6.89-1.4-3.163.537-5.295,2.216-5.972,3.547-.728,1.372-.2,2.3.693,2.505" transform="translate(10.694 5.383)" fill="#2b241f"/>
              <path id="Trazado_1264486" data-name="Trazado 1264486" d="M159.515,69.476a7.538,7.538,0,0,1-3.116.036c-1.1-.132-2.21-.238-3.177-.3s-2.085-.089-3.193-.09a7.52,7.52,0,0,1-3.082-.414c-.81-.4-1.087-1.421-.027-2.591,1-1.142,3.5-2.3,6.7-2.11s5.5,1.649,6.316,2.9c.869,1.288.439,2.266-.424,2.565" transform="translate(13.145 5.295)" fill="#2b241f"/>
              <path id="Trazado_1264487" data-name="Trazado 1264487" d="M126.162,94.908a2.464,2.464,0,0,1,3.014.036,16.8,16.8,0,0,0,9.8,3.468,1.728,1.728,0,0,1,1.459,2.377c-.89,2.37-3.5,6.129-9.776,3.82-7.655-2.814-6.789-7.9-4.5-9.7" transform="translate(11.196 7.811)" fill="#fff"/>
              <path id="Trazado_1264488" data-name="Trazado 1264488" d="M141.679,123.532s-25.087.73-29.221-8.158h0s-1.836,16.5,29.091,19.6Z" transform="translate(9.944 9.219)" fill="#a3452f"/>
              <path id="Trazado_1264489" data-name="Trazado 1264489" d="M93.349,90.247a1.091,1.091,0,0,1-.922-.5,1.078,1.078,0,0,1,.339-1.494l3.13-1.967-3.55-4.034a1.078,1.078,0,0,1,.1-1.528,1.094,1.094,0,0,1,1.538.1l4.387,4.987a1.078,1.078,0,0,1-.238,1.627L93.93,90.079a1.084,1.084,0,0,1-.581.168" transform="translate(8.277 6.656)" fill="#a3452f"/>
              <path id="Trazado_1264490" data-name="Trazado 1264490" d="M93.209,104.109c-.148,0-.3-.005-.447-.017a5.861,5.861,0,0,1-4.021-2.017,5.771,5.771,0,0,1-1.406-4.249,5.9,5.9,0,0,1,10.331-3.372,5.776,5.776,0,0,1,1.406,4.25,5.876,5.876,0,0,1-5.864,5.405m-3.7-6.121a3.642,3.642,0,0,0,.885,2.674A3.714,3.714,0,0,0,96.9,98.542a3.633,3.633,0,0,0-.885-2.674,3.714,3.714,0,0,0-6.506,2.121" transform="translate(7.849 7.647)" fill="#f1ce6d"/>
              <path id="Trazado_1264491" data-name="Trazado 1264491" d="M121.441,157.96v-8.778c0-12.7-11.7-23-26.129-23,0,0-10.97,31.424,26.129,31.775" transform="translate(8.432 10.44)" fill="#f2f1ec"/>
              <path id="Trazado_1264492" data-name="Trazado 1264492" d="M119.033,157.96v-8.778c0-12.7,11.7-23,26.129-23,0,0,10.97,31.424-26.129,31.775" transform="translate(10.7 10.44)" fill="#f2f1ec"/>
              <path id="Trazado_1264493" data-name="Trazado 1264493" d="M270.607,119.44H152.917c14.148,0,25.617,13.783,25.617,30.787V278.4c0,10.983,7.408,19.887,16.547,19.887H307.448V163.716c0-24.454-16.494-44.276-36.841-44.276" transform="translate(13.746 9.882)" fill="#fff"/>
              <path id="Trazado_1264494" data-name="Trazado 1264494" d="M328.251,254.953l-101.079.147H209.614l.073,11.472a20.776,20.776,0,0,1-16.72,20.3,17.555,17.555,0,0,0,2.281.1c1.741.04,3.125,0,3.125,0l92,.105c.118,0,.232-.017.349-.021l17.209.021a20.448,20.448,0,0,0,20.389-20.507Z" transform="translate(17.344 21.095)" fill="#373449"/>
              <path id="Trazado_1264495" data-name="Trazado 1264495" d="M286.265,169.624H195.81a.541.541,0,1,1,0-1.083h90.455a.541.541,0,1,1,0,1.083" transform="translate(17.553 13.945)" fill="#1b1f38"/>
              <path id="Trazado_1264496" data-name="Trazado 1264496" d="M261.452,153.134H213.708a1.624,1.624,0,1,1,0-3.248h47.744a1.624,1.624,0,1,1,0,3.248" transform="translate(19.064 12.401)" fill="#9595e5"/>
              <path id="Trazado_1264497" data-name="Trazado 1264497" d="M247.472,204.26H195.811a.541.541,0,1,1,0-1.083h51.661a.541.541,0,1,1,0,1.083" transform="translate(17.553 16.811)" fill="#1b1f38"/>
              <path id="Trazado_1264498" data-name="Trazado 1264498" d="M225.361,185.867h-29.55a.541.541,0,1,1,0-1.083h29.55a.541.541,0,1,1,0,1.083" transform="translate(17.553 15.289)" fill="#1b1f38"/>
              <path id="Trazado_1264499" data-name="Trazado 1264499" d="M248.345,185.867H233.059a.541.541,0,1,1,0-1.083h15.286a.541.541,0,1,1,0,1.083" transform="translate(20.902 15.289)" fill="#ef9797"/>
              <path id="Trazado_1264500" data-name="Trazado 1264500" d="M280.905,185.867H255.427a.541.541,0,1,1,0-1.083h25.478a.541.541,0,1,1,0,1.083" transform="translate(22.912 15.289)" fill="#1b1f38"/>
              <path id="Trazado_1264501" data-name="Trazado 1264501" d="M225.361,223.935h-29.55a.541.541,0,1,1,0-1.083h29.55a.541.541,0,1,1,0,1.083" transform="translate(17.553 18.439)" fill="#1b1f38"/>
              <path id="Trazado_1264502" data-name="Trazado 1264502" d="M236.317,223.935h-7.259a.541.541,0,1,1,0-1.083h7.259a.541.541,0,1,1,0,1.083" transform="translate(20.542 18.439)" fill="#1b1f38"/>
              <path id="Trazado_1264503" data-name="Trazado 1264503" d="M216.474,236.437H192.123a.541.541,0,1,1,0-1.083h24.352a.541.541,0,1,1,0,1.083" transform="translate(17.222 19.473)" fill="#1b1f38"/>
              <path id="Trazado_1264504" data-name="Trazado 1264504" d="M268.2,198.589a78.277,78.277,0,0,1-17.547,7.328.907.907,0,0,0-.666.871v9.457c0,19.03,16.567,26.95,19.257,26.95s19.257-7.92,19.257-26.95v-9.318a1.093,1.093,0,0,0-.8-1.048,81.087,81.087,0,0,1-17.414-7.291,2.118,2.118,0,0,0-2.087,0" transform="translate(22.473 16.408)" fill="#f1ce6d"/>
              <path id="Trazado_1264505" data-name="Trazado 1264505" d="M261.968,213.688a6.22,6.22,0,1,1,12.407,0v2.225h-1.034v-2.225a5.183,5.183,0,1,0-10.339,0v2.225h-1.034Z" transform="translate(23.549 17.128)" fill="#1b1f38"/>
              <path id="Trazado_1264506" data-name="Trazado 1264506" d="M275.624,229.488H261.149a1.575,1.575,0,0,1-1.578-1.569V215.593a.543.543,0,0,1,.545-.541h16.544a.543.543,0,0,1,.545.541v12.326a1.577,1.577,0,0,1-1.58,1.569m-14.963-13.353v11.785a.487.487,0,0,0,.488.486h14.475a.488.488,0,0,0,.49-.486V216.135Z" transform="translate(23.334 17.793)" fill="#1b1f38"/>
              <path id="Trazado_1264507" data-name="Trazado 1264507" d="M266.609,222.1l-.326,2.914a.512.512,0,0,0,.129.4.521.521,0,0,0,.385.171h2.069a.521.521,0,0,0,.385-.171.512.512,0,0,0,.129-.4l-.326-2.914a2.027,2.027,0,0,0,.846-1.652,2.068,2.068,0,0,0-4.135,0,2.027,2.027,0,0,0,.846,1.652" transform="translate(23.89 18.07)" fill="#1b1f38"/>
              <path id="Trazado_1264508" data-name="Trazado 1264508" d="M281.185,209.212a4.567,4.567,0,0,1-1.848-.376,4.74,4.74,0,0,1-1.492-1.016,4.788,4.788,0,0,1-1-1.494,4.568,4.568,0,0,1-.364-1.811v-.026a4.564,4.564,0,0,1,.364-1.811,4.767,4.767,0,0,1,2.507-2.529,4.719,4.719,0,0,1,3.706-.006,4.705,4.705,0,0,1,1.491,1.016,4.778,4.778,0,0,1,1,1.494,4.564,4.564,0,0,1,.364,1.811v.026a4.568,4.568,0,0,1-.364,1.811,4.764,4.764,0,0,1-2.508,2.529,4.551,4.551,0,0,1-1.856.382m0-.519a4.068,4.068,0,0,0,1.661-.336,4.228,4.228,0,0,0,1.322-.906,4.229,4.229,0,0,0,1.2-2.962v-.026a4.154,4.154,0,0,0-.318-1.618,4.267,4.267,0,0,0-.873-1.333,4.211,4.211,0,0,0-4.623-.892,4.231,4.231,0,0,0-1.322.905,4.155,4.155,0,0,0-.88,1.339,4.2,4.2,0,0,0-.319,1.624v.026a4.229,4.229,0,0,0,.313,1.617,4.063,4.063,0,0,0,.873,1.333,4.123,4.123,0,0,0,2.969,1.229m.093-1.695a2.9,2.9,0,0,1-1.076-.194,2.615,2.615,0,0,1-.847-.537,2.37,2.37,0,0,1-.553-.809,2.576,2.576,0,0,1-.2-1.009v-.026a2.539,2.539,0,0,1,.2-1,2.438,2.438,0,0,1,.553-.815,2.719,2.719,0,0,1,.853-.557,2.821,2.821,0,0,1,1.094-.207,2.482,2.482,0,0,1,1.381.35c.064.041.126.087.186.133a.769.769,0,0,1-.108,1.259l-.021.012a.807.807,0,0,1-.925-.094l-.005,0a.869.869,0,0,0-.56-.168.842.842,0,0,0-.677.311,1.143,1.143,0,0,0-.26.763v.026a1.131,1.131,0,0,0,.26.776.857.857,0,0,0,.677.3.892.892,0,0,0,.58-.175l.03-.025a.794.794,0,0,1,.909-.1.769.769,0,0,1,.134,1.256c-.06.05-.123.1-.189.145a2.412,2.412,0,0,1-1.438.389" transform="translate(24.854 16.528)" fill="#373449"/>
              <path id="Trazado_1264509" data-name="Trazado 1264509" d="M213.259,98.324l16.882,4.4a9.265,9.265,0,0,1,6.423,5.912l5.982,17.194a6.408,6.408,0,0,1-4.313,8.259l-3.689,1.059-.368-12.019.525,17.152a2.827,2.827,0,0,1-3.644,2.779,4.963,4.963,0,0,1-3.38-3.456l-4.7-17.378,2.7,20.333a1.679,1.679,0,0,1-2.656,1.566,24.354,24.354,0,0,1-9.248-13.462l-.98-8.576s-25.965.1-26.359-.89a8.172,8.172,0,0,1-.561-2.67c-.337-7.437,2.27-21.6,27.386-20.2" transform="translate(16.706 8.127)" fill="#c0644b"/>
              <path id="Trazado_1264510" data-name="Trazado 1264510" d="M231.706,133.123a.744.744,0,0,0,.374-.7l-.888-12.468a.748.748,0,0,0-1.492.106l.887,12.468a.749.749,0,0,0,1.119.591" transform="translate(20.648 9.868)" fill="#a3452f"/>
              <path id="Trazado_1264511" data-name="Trazado 1264511" d="M222.415,121.293a.742.742,0,0,0,.359-.8.75.75,0,0,0-.889-.57s-1.488.317-3.144.7a.738.738,0,0,0-.557.892.746.746,0,0,0,.9.553c1.641-.382,3.115-.7,3.119-.7a.766.766,0,0,0,.215-.082" transform="translate(19.611 9.921)" fill="#a3452f"/>
              <path id="Trazado_1264512" data-name="Trazado 1264512" d="M232.214,119.889a.74.74,0,0,0,.359-.8.75.75,0,0,0-.889-.57s-1.488.317-3.142.7a.743.743,0,1,0,.341,1.445c1.639-.381,3.114-.7,3.117-.7a.755.755,0,0,0,.215-.082" transform="translate(20.492 9.805)" fill="#a3452f"/>
              <path id="Trazado_1264513" data-name="Trazado 1264513" d="M211.363,123.792a.742.742,0,0,0,.347-.848,10.738,10.738,0,0,1-.282-2.681.748.748,0,0,0-1.5-.043,12.107,12.107,0,0,0,.339,3.131.749.749,0,0,0,.924.512.8.8,0,0,0,.168-.071" transform="translate(18.871 9.887)" fill="#a3452f"/>
              <path id="Trazado_1264514" data-name="Trazado 1264514" d="M162.241,174.054l-4.645,3.175a2.648,2.648,0,0,0-.6,3.711l3.347,4.832a2.688,2.688,0,0,0,3.7.769l4.644-3.175a2.648,2.648,0,0,0,.6-3.711l-3.346-4.832a2.687,2.687,0,0,0-3.7-.769" transform="translate(14.068 14.365)" fill="#373449"/>
              <path id="Trazado_1264537" data-name="Trazado 1264537" d="M0,0,10.84.033l.187,60.693L.187,60.693Z" transform="translate(172.599 197.552) rotate(-34.524)" fill="#736cc9"/>
              <path id="Trazado_1264515" data-name="Trazado 1264515" d="M198.933,222.944l-8.786,6c-.037.026-.173.119.017.121l11.955,7.822L199.041,223c-.012-.053-.07-.084-.108-.058" transform="translate(17.086 18.445)" fill="#c0644b"/>
              <path id="Trazado_1264516" data-name="Trazado 1264516" d="M200.327,231.223l-3.144,2.149c-.014.009-.062.042.005.043l4.279,2.8-1.1-4.97c0-.019-.025-.031-.038-.022" transform="translate(17.723 19.131)" fill="#373449"/>
              <path id="Trazado_1264517" data-name="Trazado 1264517" d="M132.88,204.444l15.446-9.584a30.88,30.88,0,0,1,16.415-4.637l18.8.08a13.986,13.986,0,0,1,7.59,2.274l8.343,5.451a3.952,3.952,0,0,1,1.737,4l-.181,1.02.644.394a5.3,5.3,0,0,1,2.518,5.109l-.4,3.627.456,1.482a5.462,5.462,0,0,1-1.572,5.668l-15.347,13.826a2.184,2.184,0,0,1-3.179-.276,6.138,6.138,0,0,1,.511-8.139l4.8-4.78-15.1,6.845a17.322,17.322,0,0,1-7.928,1.527l-8.814-.394-12.171,11.7Z" transform="translate(11.945 15.739)" fill="#c0644b"/>
              <line id="Línea_3606" data-name="Línea 3606" x2="10.192" y2="4.463" transform="translate(202.518 214.616)" fill="#c0644b"/>
              <path id="Trazado_1264518" data-name="Trazado 1264518" d="M196.052,203.262a.568.568,0,0,1-.22-.045l-10.193-4.463a.542.542,0,0,1-.279-.715.551.551,0,0,1,.719-.277l10.193,4.463a.541.541,0,0,1-.22,1.037" transform="translate(16.658 16.359)" fill="#a3452f"/>
              <line id="Línea_3607" data-name="Línea 3607" x2="12.757" y2="4.705" transform="translate(202.574 223.062)" fill="#c0644b"/>
              <path id="Trazado_1264519" data-name="Trazado 1264519" d="M198.668,211.3a.556.556,0,0,1-.19-.034l-12.757-4.7a.541.541,0,0,1-.322-.7.547.547,0,0,1,.7-.319l12.757,4.7a.541.541,0,0,1-.19,1.049" transform="translate(16.663 17.004)" fill="#a3452f"/>
              <line id="Línea_3608" data-name="Línea 3608" x1="2.958" y2="2.655" transform="translate(201.408 233.038)" fill="#c0644b"/>
              <path id="Trazado_1264520" data-name="Trazado 1264520" d="M184.841,218.468a.546.546,0,0,1-.405-.179.539.539,0,0,1,.039-.764l2.958-2.655a.547.547,0,0,1,.769.039.539.539,0,0,1-.039.764l-2.958,2.655a.544.544,0,0,1-.364.14" transform="translate(16.567 17.767)" fill="#a3452f"/>
              <path id="Trazado_1264521" data-name="Trazado 1264521" d="M151.629,240.787l-6.8,2.554a2.693,2.693,0,0,1-3.466-1.555l-14.391-37.832a2.665,2.665,0,0,1,1.565-3.443l6.8-2.554a2.694,2.694,0,0,1,3.466,1.554l14.391,37.833a2.667,2.667,0,0,1-1.565,3.443" transform="translate(11.398 16.364)" fill="#f2f1ec"/>
              <path id="Trazado_1264522" data-name="Trazado 1264522" d="M32.588,198.539l50.52,13.685,54.054-14.177a2.925,2.925,0,0,1,3.475,1.772l16.836,43.939a3.892,3.892,0,0,1-2.606,5.138c-10.22,2.855-30.238,8.716-51.121,14.442-10.041,2.752-20.283,5.474-29.732,7.815a34.707,34.707,0,0,1-43.005-30.777c-.4-5.011-.691-9.541-.783-12.907-.258-9.521.258-20.124,0-29.644" transform="translate(2.71 16.368)" fill="#ef9797"/>
              <path id="Trazado_1264523" data-name="Trazado 1264523" d="M73.454,213.692a.543.543,0,0,1-.542-.494L70.18,182.209a.543.543,0,0,1,.5-.587.551.551,0,0,1,.59.492L74,213.1a.543.543,0,0,1-.5.587l-.048,0" transform="translate(6.309 15.027)" fill="#373449"/>
              <path id="Trazado_1264524" data-name="Trazado 1264524" d="M63.385,215.551a.546.546,0,0,1-.524-.4.54.54,0,0,1,.377-.667l29.435-8.206a.547.547,0,0,1,.671.376.54.54,0,0,1-.378.667L63.533,215.53a.544.544,0,0,1-.148.021" transform="translate(5.649 17.066)" fill="#373449"/>
              <path id="Trazado_1264525" data-name="Trazado 1264525" d="M64.832,268.378a26.164,26.164,0,0,1-9.667-1.84.541.541,0,0,1-.3-.7.547.547,0,0,1,.708-.3,25.185,25.185,0,0,0,15.568.959l30.43-7.929a.541.541,0,1,1,.277,1.046l-30.43,7.93a26.154,26.154,0,0,1-6.583.838" transform="translate(4.928 21.392)" fill="#373449"/>
              <path id="Trazado_1264526" data-name="Trazado 1264526" d="M138.712,237.74a2.407,2.407,0,1,1-2.406-2.391,2.4,2.4,0,0,1,2.406,2.391" transform="translate(12.037 19.473)" fill="#f2f1ec"/>
              <path id="Trazado_1264527" data-name="Trazado 1264527" d="M144.625,246.029a.541.541,0,0,1-.129-1.068,3.823,3.823,0,0,0,2.639-5.217.537.537,0,0,1,.288-.709.547.547,0,0,1,.715.287,4.872,4.872,0,0,1-.132,4.124,4.925,4.925,0,0,1-3.252,2.567.6.6,0,0,1-.129.015" transform="translate(12.952 19.774)" fill="#373449"/>
              <path id="Trazado_1264528" data-name="Trazado 1264528" d="M258.206,63.156a37.572,37.572,0,0,1-60.178,21.512l-12.77,4.624,4.458-13.958a36.878,36.878,0,0,1-4.893-27.152,37.448,37.448,0,0,1,73.384,14.973" transform="translate(16.545 1.527)" fill="#736cc9"/>
              <path id="Trazado_1264529" data-name="Trazado 1264529" d="M258.964,83.162h32.815a12.433,12.433,0,0,1,12.437,12.355v2.811a12.433,12.433,0,0,1-12.437,12.355H258.964a12.433,12.433,0,0,1-12.437-12.355V95.517a12.433,12.433,0,0,1,12.437-12.355" transform="translate(22.161 6.881)" fill="#ef9797"/>
              <path id="Trazado_1264530" data-name="Trazado 1264530" d="M287.374,98.827a3.347,3.347,0,1,1,3.37-3.348,3.363,3.363,0,0,1-3.37,3.348m0-5.612a2.265,2.265,0,1,0,2.28,2.264,2.275,2.275,0,0,0-2.28-2.264" transform="translate(25.53 7.623)" fill="#fff"/>
              <path id="Trazado_1264531" data-name="Trazado 1264531" d="M273.27,98.827a3.347,3.347,0,1,1,3.37-3.348,3.363,3.363,0,0,1-3.37,3.348m0-5.612a2.265,2.265,0,1,0,2.28,2.264,2.275,2.275,0,0,0-2.28-2.264" transform="translate(24.262 7.623)" fill="#fff"/>
              <path id="Trazado_1264532" data-name="Trazado 1264532" d="M259.215,98.827a3.347,3.347,0,1,1,3.37-3.348,3.363,3.363,0,0,1-3.37,3.348m0-5.612a2.265,2.265,0,1,0,2.28,2.264,2.275,2.275,0,0,0-2.28-2.264" transform="translate(22.999 7.623)" fill="#fff"/>
              <path id="Trazado_1264533" data-name="Trazado 1264533" d="M293.55,64.692a14.915,14.915,0,0,1-25.1,3.709l-5.331.81,2.828-5.085a14.622,14.622,0,0,1,.228-10.941,14.9,14.9,0,0,1,19.478-7.843,14.728,14.728,0,0,1,7.9,19.35" transform="translate(23.653 3.655)" fill="#9595e5"/>
              <path id="Trazado_1264534" data-name="Trazado 1264534" d="M286.274,53.4H272.137a.541.541,0,1,1,0-1.083h14.137a.541.541,0,1,1,0,1.083" transform="translate(24.414 4.329)" fill="#fff"/>
              <path id="Trazado_1264535" data-name="Trazado 1264535" d="M286.274,57.762H272.137a.541.541,0,1,1,0-1.083h14.137a.541.541,0,1,1,0,1.083" transform="translate(24.414 4.69)" fill="#fff"/>
              <path id="Trazado_1264536" data-name="Trazado 1264536" d="M286.274,62.485H272.137a.541.541,0,1,1,0-1.083h14.137a.541.541,0,1,1,0,1.083" transform="translate(24.414 5.08)" fill="#fff"/>
            </g>
          </g>
        </g>
      </g>
    </g>
  </g>
</svg>
