<svg xmlns="http://www.w3.org/2000/svg" xmlns:xlink="http://www.w3.org/1999/xlink" width="96" height="96" viewBox="0 0 96 96">
  <defs>
    <clipPath id="clip-path">
      <rect id="Rect치ngulo_457613" data-name="Rect치ngulo 457613" width="59.234" height="57.84" fill="#fff"/>
    </clipPath>
  </defs>
  <g id="Grupo_1205911" data-name="Grupo 1205911" transform="translate(-383.746 -8400.001)">
    <path id="Trazado_997400" data-name="Trazado 997400" d="M48,0A48,48,0,1,1,0,48,48,48,0,0,1,48,0Z" transform="translate(383.746 8400.001)" fill="#5d0b80"/>
    <g id="Grupo_1099776" data-name="Grupo 1099776" transform="translate(401.746 8418)">
      <g id="Grupo_1099618" data-name="Grupo 1099618" transform="translate(-2.035 0)">
        <rect id="Rect치ngulo_401104" data-name="Rect치ngulo 401104" width="59.378" height="60.093" transform="translate(0)" fill="none"/>
      </g>
      <g id="Grupo_1206751" data-name="Grupo 1206751" transform="translate(-2.035 1)">
        <g id="Grupo_1206750" data-name="Grupo 1206750" clip-path="url(#clip-path)">
          <path id="Trazado_1264573" data-name="Trazado 1264573" d="M82.279,25.7a.881.881,0,0,1-1.727-.342L80.592.742l.9-.649C84.522.35,88.022-.221,90.988.1A.839.839,0,0,1,91.5,1.654H82.969a1.046,1.046,0,0,0,.135.641A25.485,25.485,0,0,0,85.383,6.05a3.993,3.993,0,0,0,2.024,1.079c6.083-.281,12.74.516,18.758.049,2.329-.181,2.812-1.22,3.9-2.995a25.794,25.794,0,0,0,1.35-2.529h-17.5c-.374,0-.635-1.081-.143-1.393L113.148.18l.509.353V25.1h11.465c.1,0,.393.193.549.224a1.229,1.229,0,0,1,.227.379V43.979c0,.546-1.552.546-1.552,0V26.825H113.657v2.931h8.017c.546,0,.546,1.552,0,1.552h-8.017v2.586h7.672c.839,0,1.106,1.724.172,1.724h-7.844V38.2h8.017c.546,0,.546,1.552,0,1.552h-8.017v3.362a2.913,2.913,0,0,1-.776.6H102.623v7.413H117.88c.1,0,.392.2.554.219.447.705-.018,1.449.047,2.279a2.946,2.946,0,0,0,5.249,1.455,7.983,7.983,0,0,0,.615-1.281V46.565c0-.546,1.552-.546,1.552,0v7.758c0,1.284-2.486,3.6-3.9,3.515h-20.65a4.586,4.586,0,0,1-3.888-5.574c.06-.387.578-1.131.938-1.131h2.672V43.72H96.158c-.781,0-1.043-1.724-.172-1.724h15.947V4.412c-1.123,1.446-1.59,3.115-3.408,3.919a10.021,10.021,0,0,1-2.023.563H97.968v7.758c3.956.807,3.944,6.882.045,7.545-5.192.883-6.571-6.048-1.769-7.631V8.895H87.71a5.745,5.745,0,0,1-3.95-2.256l-1.48-2.4ZM96.717,18.24c-2.755.532-2.034,4.715.631,4.445,2.963-.3,2.375-5.025-.631-4.445M116.76,52.858H99c-.339,1.112,1.024,3.276,2.155,3.276h16.637a5.427,5.427,0,0,1-1.034-3.276" transform="translate(-66.663 0)" fill="#fff"/>
          <path id="Trazado_1264574" data-name="Trazado 1264574" d="M22.125,184.52c1.081,1.093-2.013,2.575-2.772,2.918C6.2,193.376-5.985,177.393,3.209,166.293c9.094-10.979,27.04-2.308,23.735,12.012-.254,1.1-1.743,4.958-2.831,5.279a.791.791,0,0,1-1.089-.908c.037-.248,1.315-1.963,1.588-2.565,5.756-12.673-11-23.259-19.945-13.05-8.317,9.489,1.862,23.824,13.581,19.1.97-.391,2.439-1.608,3.056-1.786a.875.875,0,0,1,.821.145" transform="translate(0 -133.516)" fill="#fff"/>
          <path id="Trazado_1264575" data-name="Trazado 1264575" d="M40.257,192.224a2.308,2.308,0,0,1,2.587-1.292c-.695-3.743,2.351-7.444,6.152-5.378,2.071,1.126,1.976,3.125,2.026,5.216.241.344,2.132-.271,2.6,1.535a49.475,49.475,0,0,1,.09,7.686,1.965,1.965,0,0,1-1.815,1.978,68.554,68.554,0,0,1-9.992-.015c-.6-.093-1.649-.828-1.649-1.454v-2.931c0-.186.534-.447.776-.448,1.317,0,.891,2.244.948,3.12h10v-7.586h-10v2.5c0,.879-1.724.984-1.724.345a23.684,23.684,0,0,1,0-3.276m9.137-1.293c.217-1.859-.1-4.371-2.5-4.324-.837.017-2.328,1-2.328,1.824v2.5Z" transform="translate(-33.261 -153.073)" fill="#fff"/>
          <path id="Trazado_1264576" data-name="Trazado 1264576" d="M222.3,270.592h16.378c.546,0,.546,1.552,0,1.552H222.3c-.39,0-.587-1.317,0-1.552" transform="translate(-183.671 -223.941)" fill="#fff"/>
          <path id="Trazado_1264577" data-name="Trazado 1264577" d="M70.375,234.768a1.908,1.908,0,0,1,1.949,1.6c.129,1.386-.657,1.326-.835,1.931-.2.7.333,2.07-.809,2.138-1.362.081-.761-1.382-.984-2.138-.127-.43-.974-.831-.976-1.758a2.2,2.2,0,0,1,1.655-1.775" transform="translate(-56.872 -194.288)" fill="#fff"/>
          <path id="Trazado_1264578" data-name="Trazado 1264578" d="M289.762,246.684c-.192.192-.63.2-.9.221a29.69,29.69,0,0,1-4.651-.019,1.134,1.134,0,0,1-.7-.331c-.261-.753-.109-1.245.7-1.37a32.834,32.834,0,0,1,4.984-.007.935.935,0,0,1,.565,1.506" transform="translate(-234.535 -202.833)" fill="#fff"/>
        </g>
      </g>
    </g>
  </g>
</svg>
