<svg xmlns="http://www.w3.org/2000/svg" xmlns:xlink="http://www.w3.org/1999/xlink" width="127" height="128" viewBox="0 0 127 128">
  <defs>
    <clipPath id="clip-path">
      <rect id="Rect치ngulo_457673" data-name="Rect치ngulo 457673" width="70.602" height="80.124" fill="#5d0b80"/>
    </clipPath>
  </defs>
  <g id="Grupo_1205626" data-name="Grupo 1205626" transform="translate(-0.082)">
    <ellipse id="Elipse_13609" data-name="Elipse 13609" cx="63.5" cy="64" rx="63.5" ry="64" transform="translate(0.082)" fill="#fff"/>
    <g id="Grupo_1099776" data-name="Grupo 1099776" transform="translate(23.859 24)">
      <g id="Grupo_1099618" data-name="Grupo 1099618" transform="translate(-0.276 -0.498)">
        <rect id="Rect치ngulo_401104" data-name="Rect치ngulo 401104" width="78.706" height="80.124" transform="translate(0)" fill="none"/>
      </g>
      <g id="Grupo_1206786" data-name="Grupo 1206786" transform="translate(3.724 -0.498)">
        <g id="Grupo_1206785" data-name="Grupo 1206785" clip-path="url(#clip-path)">
          <path id="Trazado_1264670" data-name="Trazado 1264670" d="M12.127,55.852c.408-.479,1.427-.85,1.762-1.212.784-.845,1.279-2.107,2.51-2.87,1.776-1.1,2.443.019,2.9-.062a16.118,16.118,0,0,0,2.1-1.584c.5-1.025-1.808-2.037-1.926-2.444-.149-.517.177-.991.143-1.5-.155-2.314-1.249-4.254-1.1-7.161.093-1.821,1-3.839,1.1-5.311.034-.508-.293-.982-.143-1.5.161-.555.844-.525,1.214-.861.5-.45.976-1.72,1.5-2.274-1.149.165-3.192-.088-2.709-1.673.4-1.326,3.959-.664,5.066-.893l2.908-2.242H20.48c-1,0-1.883-2.308.444-2.532l40.764,0a1.279,1.279,0,0,1,.217,2.529H46l3.094,2.284c3.641.5,9.321-.7,12.713.1a1.218,1.218,0,0,1,.1,2.418H51.263l1.76,2.473,9.455.158.418.507c.366.444-.481,1.668-.762,1.668H53.78l.838,2.527,7.861.1c.725.5.475,2.177-.345,2.177H54.7v2.518h7.438c.82,0,1.07,1.672.345,2.177l-7.861.1-.838,2.527h8.354c.447,0,1.371,1.672.344,2.175l-9.455.158-1.76,2.474H61.9a1.218,1.218,0,0,1-.1,2.418c-3.392.8-9.072-.4-12.713.1L46,55.624H61.9a1.286,1.286,0,0,1-.006,2.512l-36.5,0c.238,1.087-.363,1.619-.685,2.519H59.387c4.822,0,8.242-4.589,8.59-9.032.49-6.255-.374-13.148-.019-19.472.2-1.485,2.136-1.592,2.309.459a181.927,181.927,0,0,1,0,21.99A21.724,21.724,0,0,1,65.34,67.07c-5.073,6-11.682,12.256-19.9,12.823-10.593.731-22.036-.55-32.717-.029a3.893,3.893,0,0,1-3.112-4.1c-1.017.724-1.975,1.245-3.184.552C5.99,76.067.774,70.879.453,70.387A2.231,2.231,0,0,1,.584,67.54L9.6,58.25l0-54.244c.161-1.879.861-3.3,2.739-3.9L66.72,0a3.671,3.671,0,0,1,3.539,3.327L70.252,26.9c-.222,1.192-2.032,1.525-2.276.228l0-23.342A1.4,1.4,0,0,0,67.068,2.4l-54.25.018a5.923,5.923,0,0,0-.691.682Zm22.149-31.52C24.212,25.464,18.381,36.824,22.086,46.007c.387.959,2.178,3.444,2.187,4,.021,1.245-2.264,2.7-2.988,3.666L23,55.391c.883-.631,2.435-2.946,3.434-3,.946-.047,1.861,1,2.707,1.436C43.444,61.166,58.272,45.777,50.3,31.98c-3.363-5.822-9.4-8.394-16.027-7.648M17.765,53.809l-1.5,1.668,5.1,4.935,1.5-1.668Zm-6.7,15.911c.165.1.307.274.526.284l7.844-7.661-4.935-5.1L6.666,64.937l.023.485c1.493.806,3.1,3.5,4.375,4.3m39.054,6.727c.2.167,2.155-.825,2.521-1.024,3.82-2.072,11.216-9.461,13.229-13.319a14.933,14.933,0,0,0,.954-2.362,12.265,12.265,0,0,1-6.982,3.2c-1.179.105-5.812-.31-6.312.325-.473.6-.106,4.8-.21,5.969a12.368,12.368,0,0,1-3.2,7.211m.915-13.5H21.739c-.112,1.141-1.3,1.614-1.831,2.518H50.8ZM50.8,67.753H20.251c-.839,0-.8-1.279-.914-1.83l-7.092,7.1c-.056,1.536-.869,4.583,1.355,4.587,9.3-.579,19.432.722,28.631-.006,5.217-.413,9.111-4.525,8.574-9.849m-46.085-.9L2.531,69.209l5.1,4.935L9.821,71.79Z" transform="translate(0)" fill="#5d0b80"/>
          <path id="Trazado_1264671" data-name="Trazado 1264671" d="M76.275,33.993V38.8h41.2V33.993H83.026a1.276,1.276,0,0,1-.245-2.077l36.368-.173c.456.153.565.792.614,1.217a49.269,49.269,0,0,1-.01,7.322,1.347,1.347,0,0,1-1.467,1.05L75.03,41.3a1.351,1.351,0,0,1-1.259-1.259,54.932,54.932,0,0,1,.105-7.647c.413-.935,3.654-.857,4.566-.685.755.142.922.777.808,1.469-.21,1.277-2.071.7-2.976.813" transform="translate(-56.824 -24.371)" fill="#5d0b80"/>
          <path id="Trazado_1264672" data-name="Trazado 1264672" d="M113.3,142.6c-1.133-2.747,2.321-1.846,3.925-2.03,11.162-1.283,12.818-17.985,1.63-21.263-10.564-3.1-18.527,9.153-11.679,17.4.9,1.084,3.319,2.321,2.827,3.735-.779,2.241-4.493-2.017-5.093-2.843a13.292,13.292,0,1,1,23.315-3.651c-1.887,5.933-8.773,10.384-14.925,8.652" transform="translate(-78.922 -89.777)" fill="#5d0b80"/>
          <path id="Trazado_1264673" data-name="Trazado 1264673" d="M137.479,148.083c3.541-.576,5.488,3.165,3.384,5.9a62.953,62.953,0,0,1-5.761,5.682,3.848,3.848,0,0,1-3.673.08,47.316,47.316,0,0,1-4.743-4.64,3.63,3.63,0,0,1,4.384-5.3c.956.314,1.337,1.277,2.2,1.638,1.355-1,2.456-3.076,4.206-3.361m.458,2.266c-1.453.287-3.758,4.664-5.278,3.836-.876-.477-1.745-2.2-2.8-2.265-1.16-.073-1.495.9-1.2,1.9a41.585,41.585,0,0,0,3.5,3.593c.437.308.732.561,1.313.417a42.95,42.95,0,0,0,5.637-5.365c.556-1.061.049-2.354-1.173-2.113" transform="translate(-97.262 -114.147)" fill="#5d0b80"/>
        </g>
      </g>
    </g>
  </g>
</svg>
