<svg xmlns="http://www.w3.org/2000/svg" xmlns:xlink="http://www.w3.org/1999/xlink" width="70" height="70" viewBox="0 0 70 70">
  <defs>
    <clipPath id="clip-path">
      <rect id="Rectángulo_457470" data-name="Rectángulo 457470" width="30.646" height="40" fill="#5d0b80"/>
    </clipPath>
  </defs>
  <g id="Grupo_1205994" data-name="Grupo 1205994" transform="translate(-268.711 -957.726)">
    <circle id="Elipse_5614" data-name="Elipse 5614" cx="35" cy="35" r="35" transform="translate(268.711 957.726)" fill="#fff"/>
    <g id="Grupo_1206641" data-name="Grupo 1206641" transform="translate(288.711 972.726)">
      <g id="Grupo_1206640" data-name="Grupo 1206640" clip-path="url(#clip-path)">
        <path id="Trazado_1264124" data-name="Trazado 1264124" d="M14.493.023c7.068-.386,13.771,4.2,15.6,10.813,2.883,10.434-5.962,20.093-14.768,24.751C6.519,30.926-2.328,21.271.556,10.836A15.329,15.329,0,0,1,14.493.023m-.622,4.419a10.735,10.735,0,0,0-9.385,10.9c.527,8.48,10.947,12.964,17.77,7.466,8.253-6.649,2.5-19.479-8.385-18.365" transform="translate(0 0)" fill="#5d0b80"/>
        <path id="Trazado_1264125" data-name="Trazado 1264125" d="M26.4,270.085a47.147,47.147,0,0,0,7.955,5.3,36.285,36.285,0,0,0,8.016-5.3c3.189.713,7.134,3.249,2.606,5.733-4.857,2.665-16.244,2.652-21.1,0-4.542-2.48-.654-4.935,2.523-5.734" transform="translate(-19.109 -237.812)" fill="#5d0b80"/>
        <path id="Trazado_1264126" data-name="Trazado 1264126" d="M59.276,51.014c7.309-.515,12.24,7.145,8.376,13.218-3.755,5.9-12.9,5.384-15.869-.924a8.722,8.722,0,0,1,7.492-12.294M61.241,55.8a1.847,1.847,0,0,1,.478,1.756c-.3,1.118-1.555,1.111-2.172,1.967-.64.888-.973,4.318.837,3.555.895-.377.305-1.806.591-2.417.2-.432,1.826-.938,2.35-2.274,1.471-3.748-3.536-6.472-6.069-3.584-.555.633-1.556,2.868-.242,3.106,1.385.251.987-1.337,1.665-2.058a2.038,2.038,0,0,1,2.562-.051m-1.906,9.725c.882.851,2.159-.529,1.273-1.287-.871-.744-2.1.492-1.273,1.287" transform="translate(-44.659 -44.896)" fill="#5d0b80"/>
      </g>
    </g>
  </g>
</svg>
