<svg xmlns="http://www.w3.org/2000/svg" xmlns:xlink="http://www.w3.org/1999/xlink" width="96" height="96" viewBox="0 0 96 96">
  <defs>
    <clipPath id="clip-path">
      <rect id="Rectángulo_457446" data-name="Rectángulo 457446" width="58.413" height="58.823" fill="#fff"/>
    </clipPath>
  </defs>
  <g id="Grupo_1205989" data-name="Grupo 1205989" transform="translate(-383.746 -8400.001)">
    <path id="Trazado_997400" data-name="Trazado 997400" d="M48,0A48,48,0,1,1,0,48,48,48,0,0,1,48,0Z" transform="translate(383.746 8400.001)" fill="#5d0b80"/>
    <g id="Grupo_1099776" data-name="Grupo 1099776" transform="translate(401.746 8418)">
      <g id="Grupo_1099618" data-name="Grupo 1099618" transform="translate(-0.035 -2.15)">
        <rect id="Rectángulo_401104" data-name="Rectángulo 401104" width="59.378" height="60.093" transform="translate(0)" fill="none"/>
      </g>
      <g id="Grupo_1206622" data-name="Grupo 1206622" transform="translate(0.965 -1.151)">
        <g id="Grupo_1206621" data-name="Grupo 1206621" clip-path="url(#clip-path)">
          <path id="Trazado_1263989" data-name="Trazado 1263989" d="M49.862,21.935V51.092H31.919c.612,1.706-.454,2.97-1.886,3.73a2.918,2.918,0,0,1-2.7,3.843c-5.891-.292-12.26.455-18.095.016a11.836,11.836,0,0,1-2.724-.554C4.342,57.366,2.442,55.4,0,55.752L.076,39.867c.208-.3,1.32-.09,1.83-.24,1.732-.511,4.346-3.544,6.807-3.544h5.435V2.094h20.7a2.193,2.193,0,0,1,2-1.883A78.036,78.036,0,0,1,48.048.2a14.226,14.226,0,0,1,4.226.949c1.367.587,3.275,2.4,4.323,2.751.513.173,1.606-.045,1.815.255V19.013c-.2.29-1.467.107-2,.243-1.13.287-2.9,1.613-4.138,2.073a19.145,19.145,0,0,1-2.413.606M48.568,2.094c-3.755-.347-8.011.258-11.818,0a3.017,3.017,0,0,0,2.689,2.918c.97.126,2.593-.19,3.4.05.682.2,2.294,2.725,3.313,2.725h3.709V19.865c2.455-.167,4.546-1.814,6.706-2.87L56.6,6c-.042-.153-.53-.162-.759-.3-2.433-1.5-4.22-3.315-7.275-3.6m-13.2,1.9H16.046v32.09h6.3c.766,0,1.343,1.595,1.279,2.307-.159,1.767-2.19,4.249-4.039,4.249H16.046v6.556h32.09V9.686h-1.9v1.9H40.545v-1.9h5.348l-1.71-.791C43.52,8.654,42.452,7.1,41.976,6.96a22.84,22.84,0,0,0-2.707-.054c-1.6-.184-3.466-1.268-3.9-2.915M21.739,37.98H8.886a15.425,15.425,0,0,0-2.62,1c-1.466.765-2.9,2.053-4.34,2.906V53.826C4.444,54.854,6.6,56.583,9.4,56.793c5.779.434,12.1-.329,17.939-.018,1.343-.212,1.054-1.887.356-1.887H17.944v-1.9H29.417c.294,0,.763-.631.779-.965.014-.3-.439-.933-.606-.933H14.148V44.019A7.059,7.059,0,0,1,9.489,45.4V43.5c2.387.313,3.762-1.23,5.3-2.724,2.671-.229,6.491.926,6.952-2.8" transform="translate(0 -0.001)" fill="#fff"/>
          <path id="Trazado_1263990" data-name="Trazado 1263990" d="M186.085,202.145h-17.08v-15.01h17.08Zm-1.9-13.112H170.9v11.214h13.285Z" transform="translate(-139.847 -154.849)" fill="#fff"/>
          <path id="Trazado_1263991" data-name="Trazado 1263991" d="M120.913,47.42H104V34.135h16.908Zm-1.9-11.387H105.9v9.489h13.112Z" transform="translate(-86.061 -28.246)" fill="#fff"/>
          <rect id="Rectángulo_457435" data-name="Rectángulo 457435" width="28.295" height="1.898" transform="translate(17.944 24.695)" fill="#fff"/>
          <path id="Trazado_1263992" data-name="Trazado 1263992" d="M150.5,123.033H126v-1.9h24.24c.491.455.181,1.281.259,1.9" transform="translate(-104.266 -100.236)" fill="#fff"/>
          <rect id="Rectángulo_457436" data-name="Rectángulo 457436" width="17.08" height="1.898" transform="translate(29.158 28.491)" fill="#fff"/>
          <rect id="Rectángulo_457437" data-name="Rectángulo 457437" width="9.489" height="1.898" transform="translate(36.749 13.481)" fill="#fff"/>
          <rect id="Rectángulo_457438" data-name="Rectángulo 457438" width="9.489" height="1.898" transform="translate(17.944 32.286)" fill="#fff"/>
          <rect id="Rectángulo_457439" data-name="Rectángulo 457439" width="9.489" height="1.898" transform="translate(17.944 45.398)" fill="#fff"/>
          <path id="Trazado_1263993" data-name="Trazado 1263993" d="M222.494,100.135c-.078.617.232,1.443-.259,1.9h-9.23v-1.9Z" transform="translate(-176.256 -82.859)" fill="#fff"/>
          <rect id="Rectángulo_457440" data-name="Rectángulo 457440" width="1.9" height="1.9" transform="translate(36.749 9.684)" fill="#fff"/>
          <rect id="Rectángulo_457441" data-name="Rectángulo 457441" width="1.9" height="1.9" transform="translate(17.943 20.898)" fill="#fff"/>
          <rect id="Rectángulo_457442" data-name="Rectángulo 457442" width="1.9" height="1.9" transform="translate(17.943 28.49)" fill="#fff"/>
          <rect id="Rectángulo_457443" data-name="Rectángulo 457443" width="1.9" height="1.9" transform="translate(21.739 28.49)" fill="#fff"/>
          <rect id="Rectángulo_457444" data-name="Rectángulo 457444" width="1.9" height="1.9" transform="translate(25.534 28.49)" fill="#fff"/>
          <path id="Trazado_1263994" data-name="Trazado 1263994" d="M149.9,243.03H148v-1.9l1.737.076c.326.227.1,1.4.163,1.823" transform="translate(-122.466 -199.528)" fill="#fff"/>
          <rect id="Rectángulo_457445" data-name="Rectángulo 457445" width="1.9" height="1.727" transform="translate(25.534 37.979)" fill="#fff"/>
          <path id="Trazado_1263995" data-name="Trazado 1263995" d="M201.411,205.2c.211-.037,1.564,1.142,1.19,1.537l-6.729,6.743c-.148.169-.233.19-.435.086-.629-.325-1.716-1.958-2.414-2.426l1.291-1.291,1.208,1.2Z" transform="translate(-159.721 -169.799)" fill="#fff"/>
        </g>
      </g>
    </g>
  </g>
</svg>
