<svg xmlns="http://www.w3.org/2000/svg" xmlns:xlink="http://www.w3.org/1999/xlink" width="160.5" height="160.501" viewBox="0 0 160.5 160.501">
  <defs>
    <clipPath id="clip-path">
      <rect id="Rectángulo_455261" data-name="Rectángulo 455261" width="38.951" height="37.623" fill="#e6fffa"/>
    </clipPath>
    <clipPath id="clip-path-2">
      <rect id="Rectángulo_457527" data-name="Rectángulo 457527" width="85" height="85" transform="translate(0 0.329)" fill="#5d0b80"/>
    </clipPath>
  </defs>
  <g id="Grupo_1205954" data-name="Grupo 1205954" transform="translate(-307.436 -10011.92)">
    <path id="Sustracción_130" data-name="Sustracción 130" d="M26.051,25.795H0V11.245H11.352V0h14.7V25.795Z" transform="translate(441.641 10038.471) rotate(-90)" fill="#e3a4fe" stroke="rgba(0,0,0,0)" stroke-miterlimit="10" stroke-width="1"/>
    <g id="Grupo_1178100" data-name="Grupo 1178100" transform="translate(307.436 10172.421) rotate(-90)">
      <path id="Trazado_998183" data-name="Trazado 998183" d="M0,0V37.623H25.58V24.056H38.951V0Z" transform="translate(0 0)" fill="#5d0b80"/>
      <g id="Grupo_1178099" data-name="Grupo 1178099" transform="translate(0 0)">
        <g id="Grupo_1178098" data-name="Grupo 1178098" clip-path="url(#clip-path)">
          <path id="Trazado_998184" data-name="Trazado 998184" d="M0,9.021a9.025,9.025,0,1,1,9.025,9.021A9.023,9.023,0,0,1,0,9.021" transform="translate(4.434 5.629)" fill="#e3a4fe"/>
        </g>
      </g>
    </g>
    <g id="Grupo_1177470" data-name="Grupo 1177470" transform="translate(308.059 10012.421)">
      <circle id="Elipse_13609" data-name="Elipse 13609" cx="79.688" cy="79.688" r="79.688" fill="#f0d5fe"/>
      <g id="Grupo_1099776" data-name="Grupo 1099776" transform="translate(33.723 33.96)">
        <g id="Grupo_1099618" data-name="Grupo 1099618" transform="translate(0.336 -0.406)">
          <rect id="Rectángulo_401104" data-name="Rectángulo 401104" width="90.569" height="91.661" transform="translate(0)" fill="none"/>
        </g>
        <g id="Grupo_1206666" data-name="Grupo 1206666" transform="translate(2.336 3.264)">
          <g id="Grupo_1206665" data-name="Grupo 1206665" clip-path="url(#clip-path-2)">
            <path id="Trazado_1264285" data-name="Trazado 1264285" d="M112.725,17.606V49.882l11.244-11.126-2.041-1.816L116.971,41.8l-1.732-1.569,6.9-6.967,3.668,3.659c.773-.529,3.091-3.6,3.863-3.393l6.28,6.209-23.225,23.23V85.338H100.255V82.893H110.28V65.776c-.427-.106-.489.177-.735.365-1.2.915-2.792,3.258-3.929,3.9-1.449.812-4.266.625-5.785,1.306-.6.271-2.223,2.253-2.388,2.253l-1.6-1.83c0-.645,1.838-1.733,2.146-2.509.6-1.507.453-4.433,1.279-5.812L110.23,52.4l.041-45.2c.06-1.844,1.036-3.274,1.965-4.759H67V0h52.205c3.228,0,6.969,4.338,6.969,7.458v9.781l-.367.367Zm0-10.637c-.364,2.33.27,5.518,0,7.947h10.759V6.724a8.706,8.706,0,0,0-1.659-2.812c-3.034-2.8-8.454-1.074-9.1,3.057m16.75,29.958-1.829,1.83,3.019,2.794,1.605-1.783Zm-28.73,31.538,4.036-.975L128.389,43.9l.122-.617L125.685,40.7l-24.219,24.2Z" transform="translate(-50.617)" fill="#5d0b80"/>
            <path id="Trazado_1264286" data-name="Trazado 1264286" d="M59.556,27.345c-2.151,1.291-1.678,3.494-4.789,3.892-.764.1-3.312-.27-3.514.413a37.634,37.634,0,0,0,2.553,5.479c.5.441,1.233.2,1.839.24v2.447c-1.7-.381-1.726,1.633-2.635,2.867a6.613,6.613,0,0,1-10.081.188c-1.108-1.376-.85-3.546-2.937-3.055l.23-2.341c1.239-.22,1.508.2,2.264-.915A41.691,41.691,0,0,0,44.6,32.3c.133-.778-.413-1.4-.459-2.147A3.775,3.775,0,0,1,50.391,27.1c1.583,1.33.814,2.139,3.892,1.7,1.653-.235,1.272-1.039,1.988-1.926,2.379-2.944,6.527-3.209,8.908-.136.809,1.044.413,1.811,2.1,2.054a18.091,18.091,0,0,0,3.606-.015c.39-.129.71-1.215,1.259-1.675a3.771,3.771,0,0,1,6.225,3.278c-.061.563-.5,1.016-.37,1.619a53.746,53.746,0,0,0,2.458,5.135c.578.509,1.639-.009,1.975.47l.108,2.218c-2.1-.453-1.736,1.482-2.836,2.911a6.673,6.673,0,0,1-9.767.52c-1.271-1.312-1.1-3.769-3.049-3.432V37.369c.606-.045,1.341.2,1.839-.24a23.225,23.225,0,0,0,2.564-5.872H66.525c-2.317,0-2.857-3.1-4.524-3.912v20.54A5.68,5.68,0,0,1,66.675,52.5l2.908.027v2.446H51.976V52.529l2.912-.023a5.408,5.408,0,0,1,4.67-4.621Zm-10.8,1.509c-1.25-.781-2.94.923-1.66,2.025,1.6,1.38,2.713-1.366,1.66-2.025m25.4.006c-1.2.361-.848,2.819.812,2.3a1.228,1.228,0,1,0-.812-2.3m-29.27,8.51H51l-1.851-3.919a3.654,3.654,0,0,1-2.32.121Zm32.766,0-1.71-3.808c-.9.011-1.667.365-2.552-.111L71.538,37.37ZM51.487,39.816H44.518l-.247.485c1.613,3.172,6.459,3.178,7.216-.485m19.562,0c.727,3.633,5.656,3.693,7.229.5l-.26-.5ZM63.958,52.531c-.623-3.13-5.741-3.147-6.358,0Z" transform="translate(-30.214 -18.542)" fill="#5d0b80"/>
            <path id="Trazado_1264287" data-name="Trazado 1264287" d="M13.938,0V2.445H7.213a7.969,7.969,0,0,0-3.187,1.7,8.327,8.327,0,0,0-1.581,3.31V82.893H47.193v2.445H0V6.969C0,4.226,3.962,0,6.724,0Z" fill="#5d0b80"/>
            <path id="Trazado_1264288" data-name="Trazado 1264288" d="M80.179,210.013c1.877-.3,2.542.853,3.6.89,1.138.04,2.108-1.033,3.426-.958a5.473,5.473,0,0,1,2.317.881c.944.711,1,1.9,1.73,2.427,1.254.907,2.721.162,4.014,2.1,1.172,1.755.232,2.954.678,4.456.348,1.173,2.159,1.257,1.849,4.138-.216,2.007-1.757,2.321-2.047,3.366-.3,1.079.637,2.264-.378,4-1.249,2.14-2.958,1.405-4.117,2.241-1.135.819-1,2.757-3.359,3.241-1.93.4-2.932-.993-4.084-.921-1.575.1-1.89,1.681-4.541.609-1.852-.749-1.706-2.216-2.7-2.929-1.159-.836-2.65-.062-4.014-2.1-1.218-1.82-.178-2.773-.537-4.087-.369-1.349-2.269-1.857-2.037-4.3.193-2.03,1.819-2.577,2.094-3.57.319-1.151-.7-2.344.475-4.15,1.26-1.938,2.845-1.249,4.02-2.093,1.192-.857,1.012-2.825,3.609-3.241m-7.2,14.54c.144.181.542.255.769.567,1.285,1.76.535,3.274,1,5.122,1.111.724,2.344.458,3.522,1.369,1.368,1.058.837,2.861,3.052,2.541.92-.133,1.465-.771,2.708-.741,1.195.029,2.04.873,3.182.774,1.225-.106,1.142-1.2,1.723-1.964,1.144-1.509,3.644-1.251,4.245-2.111.676-.966-.557-2.668.643-4.494.495-.753,1.562-1.129,1.5-2.3-.051-1.006-1.283-1.362-1.752-2.613-.584-1.557.026-2.029-.139-3.274-.215-1.616-1.566-1.184-2.639-1.529-1.922-.619-1.687-1.872-2.731-2.892-1.366-1.336-1.891.054-3.111.31-1.985.416-3.044-.907-4.354-.817-1.024.07-1.235,1.444-1.719,2.082-1.035,1.364-2.813,1.268-4.207,2.028-.443,1.242.168,2.331-.174,3.619-.447,1.685-3.012,2.442-1.519,4.318" transform="translate(-52.855 -158.606)" fill="#5d0b80"/>
            <rect id="Rectángulo_457523" data-name="Rectángulo 457523" width="27.105" height="3.012" transform="translate(17.066 39.494)" fill="#5d0b80"/>
            <rect id="Rectángulo_457524" data-name="Rectángulo 457524" width="20.077" height="3.012" transform="translate(21.081 44.514)" fill="#5d0b80"/>
            <rect id="Rectángulo_457525" data-name="Rectángulo 457525" width="2.448" height="2.448" transform="translate(27.385 63.574)" fill="#5d0b80"/>
            <rect id="Rectángulo_457526" data-name="Rectángulo 457526" width="2.448" height="2.448" transform="translate(32.276 63.574)" fill="#5d0b80"/>
          </g>
        </g>
      </g>
    </g>
  </g>
</svg>
