<svg xmlns="http://www.w3.org/2000/svg" xmlns:xlink="http://www.w3.org/1999/xlink" width="84" height="84" viewBox="0 0 84 84">
  <defs>
    <clipPath id="clip-path">
      <rect id="Rect치ngulo_457722" data-name="Rect치ngulo 457722" width="60.151" height="60.057" fill="#5d0b80"/>
    </clipPath>
  </defs>
  <g id="Grupo_1205631" data-name="Grupo 1205631" transform="translate(-185.422 -1046.16)">
    <rect id="Rect치ngulo_455472" data-name="Rect치ngulo 455472" width="84" height="84" rx="12" transform="translate(185.422 1046.16)" fill="#ffe9a1"/>
    <g id="Grupo_1206793" data-name="Grupo 1206793" transform="translate(197.422 1058.161)">
      <g id="Grupo_1206792" data-name="Grupo 1206792" clip-path="url(#clip-path)">
        <path id="Trazado_1264818" data-name="Trazado 1264818" d="M33.26,9.488a8.171,8.171,0,0,1,5,6.886c1.017.115,3.515-.44,3.778.961a35.45,35.45,0,0,1-.074,5.431c-.317,1.042-1.5.592-2.326.69-.245.238-.307,5.459-.355,6.278q-.177,3.016-.345,6.03c-.052.956-.612,5.439-.262,5.952,3.86,1.273,4.55,6.711,1.818,9.385a10.385,10.385,0,0,1,4.046,3.529A9.439,9.439,0,0,1,48.591,51.1c-1.937-1.47-2.055-5.367-.9-7.278a4.8,4.8,0,0,1,8.81,1.955A6.084,6.084,0,0,1,54.973,51.1a11.069,11.069,0,0,1,3.926,3.48c.668,1.087,2.121,4.821.547,5.476H.7C-.649,59.5.292,56.622.72,55.605a9.856,9.856,0,0,1,4.452-4.5c-1.919-1.762-2.133-5.644-.584-7.652a4.805,4.805,0,0,1,8,.582c.986,1.879.849,5.67-1.036,7.069A9.439,9.439,0,0,1,15.6,54.629,10.385,10.385,0,0,1,19.645,51.1c-2.754-2.648-2.026-8.126,1.818-9.385.349-.513-.211-5-.262-5.952q-.164-3.016-.345-6.03c-.048-.819-.11-6.039-.355-6.278-.824-.1-2.009.351-2.326-.69a36.746,36.746,0,0,1-.042-5.572c.353-1.209,2.8-.719,3.754-.812A8.443,8.443,0,0,1,26.882,9.4C23.908,6.4,25.2.165,29.9,0c4.977-.171,6.394,6.3,3.361,9.485M29.422,2.467c-2.152.448-2.287,4.306-.633,5.379A2.339,2.339,0,0,0,32.4,6.135c.254-2.1-.469-4.191-2.98-3.668m6.422,13.916a5.807,5.807,0,0,0-11.544,0Zm3.791,2.412H20.51v2.412h4.738c.263,0,.835.927.707,1.382-.359,1.271-2.037.775-3.033.857L23.947,41.6c1.563.544,3.3,1.965,3.586,3.685.333,1.973.138,4.472-1.506,5.817a10.094,10.094,0,0,1,4.046,3.529A10.094,10.094,0,0,1,34.118,51.1c-1.644-1.345-1.84-3.844-1.506-5.817.29-1.72,2.022-3.142,3.586-3.685l1.026-18.152c-1-.083-2.674.414-3.033-.857-.129-.455.444-1.382.707-1.382h4.738ZM6.612,49.233a2.51,2.51,0,0,0,3.879-.4c1.4-2.385-.544-6.261-3.444-4.478-1.328.816-1.43,3.888-.435,4.876M22.36,43.992c-1.982.325-2.09,2.541-1.839,4.168a2.436,2.436,0,0,0,2.641,1.809c3.128-.369,3.018-6.6-.8-5.977m14.3,0c-2.5.509-2.531,5.365.037,5.913A2.369,2.369,0,0,0,39.639,48c.257-2.138-.263-4.566-2.98-4.013m16.874,5.243c.995-.988.893-4.06-.435-4.876-2.9-1.783-4.843,2.093-3.444,4.478a2.51,2.51,0,0,0,3.879.4m-39.226,8.5a6.086,6.086,0,0,0-11.889,0Zm14.473,0a6.084,6.084,0,0,0-11.889,0Zm14.473,0a6.085,6.085,0,0,0-11.889,0Zm14.473,0a6.086,6.086,0,0,0-11.889,0Z" transform="translate(0 0)" fill="#5d0b80"/>
        <path id="Trazado_1264819" data-name="Trazado 1264819" d="M29.633,61.2c.509-.512,3.74-.521,4.481-.356a1.193,1.193,0,0,1,0,2.338,20.369,20.369,0,0,1-3.889,0,1.172,1.172,0,0,1-.591-1.983" transform="translate(-24.237 -50.279)" fill="#5d0b80"/>
        <path id="Trazado_1264820" data-name="Trazado 1264820" d="M300.22,62.983c-.386.313-3.877.325-4.479.187a1.215,1.215,0,0,1,.317-2.365,19.121,19.121,0,0,1,3.572.027,1.275,1.275,0,0,1,.59,2.151" transform="translate(-244.094 -50.27)" fill="#5d0b80"/>
        <path id="Trazado_1264821" data-name="Trazado 1264821" d="M46.747.108a1.372,1.372,0,0,1,.858.1,25.611,25.611,0,0,1,3.16,1.837c.919.967.149,2.282-1.267,1.955A16.235,16.235,0,0,1,46.02,1.8,1.209,1.209,0,0,1,46.747.108" transform="translate(-37.998 -0.063)" fill="#5d0b80"/>
        <path id="Trazado_1264822" data-name="Trazado 1264822" d="M285.775,2.09A22.983,22.983,0,0,1,282.429,4c-1.465.309-2.124-1.118-1.244-1.934.194-.18,3.2-1.92,3.391-1.961a1.206,1.206,0,0,1,1.2,1.986" transform="translate(-232.409 -0.059)" fill="#5d0b80"/>
        <path id="Trazado_1264823" data-name="Trazado 1264823" d="M49.455,113.131a1.139,1.139,0,0,1,1.26,1.781,20.263,20.263,0,0,1-3.273,2.065c-1.279.394-2.265-.579-1.571-1.742a26.3,26.3,0,0,1,3.584-2.1" transform="translate(-37.778 -93.61)" fill="#5d0b80"/>
        <path id="Trazado_1264824" data-name="Trazado 1264824" d="M281.838,113.061a1.417,1.417,0,0,1,.9.06,24.376,24.376,0,0,1,3.116,1.88c1.068,1.087.052,2.284-1.256,1.945-.177-.046-2.978-1.69-3.147-1.849a1.169,1.169,0,0,1,.387-2.037" transform="translate(-232.602 -93.543)" fill="#5d0b80"/>
        <path id="Trazado_1264825" data-name="Trazado 1264825" d="M168.546,122.916a1.175,1.175,0,1,1,0,2.166,1.213,1.213,0,0,1,0-2.166" transform="translate(-138.954 -101.671)" fill="#5d0b80"/>
      </g>
    </g>
  </g>
</svg>
