<svg xmlns="http://www.w3.org/2000/svg" xmlns:xlink="http://www.w3.org/1999/xlink" width="96" height="96" viewBox="0 0 96 96">
  <defs>
    <clipPath id="clip-path">
      <rect id="Rectángulo_457605" data-name="Rectángulo 457605" width="54.373" height="54.292" fill="#fff"/>
    </clipPath>
  </defs>
  <g id="Grupo_1205908" data-name="Grupo 1205908" transform="translate(-383.746 -8400.001)">
    <path id="Trazado_997400" data-name="Trazado 997400" d="M48,0A48,48,0,1,1,0,48,48,48,0,0,1,48,0Z" transform="translate(383.746 8400.001)" fill="#5d0b80"/>
    <g id="Grupo_1099776" data-name="Grupo 1099776" transform="translate(401.746 8418)">
      <g id="Grupo_1099618" data-name="Grupo 1099618" transform="translate(-0.035 0)">
        <rect id="Rectángulo_401104" data-name="Rectángulo 401104" width="59.378" height="60.093" transform="translate(0)" fill="none"/>
      </g>
      <g id="Grupo_1206745" data-name="Grupo 1206745" transform="translate(2.965 3)">
        <g id="Grupo_1206744" data-name="Grupo 1206744" clip-path="url(#clip-path)">
          <path id="Trazado_1264560" data-name="Trazado 1264560" d="M54.373,28.027H16.9a5.107,5.107,0,0,0-.168.873c-.554,7.039.615,14.944.014,21.954a3.519,3.519,0,0,1-6.172,2.162,3.442,3.442,0,0,1-5.181.05,11.789,11.789,0,0,1-.825-1.417V38.437c-1.843.205-3.487-.312-4.172-2.154C-.284,34.462,0,28.014.571,26.035c.77-2.687,3.437-5.591,6.237-6.177.1-.423-.312-.334-.567-.629-4.259-4.93,0-11.592,6.173-10.26V0h41.72l.24.24Zm-1.762-1.762V2l-.24-.24h-38.2V9.849a6.226,6.226,0,0,1,.8,9.367c3,.1,5.345-2.722,7.988-3.868C21.711,5.96,32.915-.2,40.195,6.091c7.735,6.687,2.257,19.33-7.982,18.392a11.912,11.912,0,0,1-6.744-3.345l-7.61,5.127ZM32.432,5.445a8.481,8.481,0,0,0-7.769,8.807c1-.406,2.364-1.749,3.374-1.91a3.118,3.118,0,0,1,2.553,5.434c-.486.448-3.546,2.071-3.443,2.481,3.17,3.015,8.357,3.483,11.688.483l-6.4-6.406Zm9.609,7.687c-.438-3.96-3.775-7.525-7.848-7.687v7.687Zm-32.07-2.52c-5.535.721-4.623,9.632,1.683,8.568,4.937-.832,4.23-9.339-1.683-8.568M16.5,20.98c-1.11.173-2.606-.127-3.764,0l.477,7.283-2.5,2.635L7.966,28.249l.6-7.108a7.931,7.931,0,0,0-6.29,5.32,29.869,29.869,0,0,0-.422,8.519c.213,1.567,1.285,1.861,2.709,1.7V27.066l1.5.022.263.378L6.361,51.3a1.733,1.733,0,0,0,2.683.828,2.562,2.562,0,0,0,.647-.795V35.074h1.762V51.009a4.719,4.719,0,0,0,.633.969A1.686,1.686,0,0,0,14.965,51c.446-7.175-.558-15,0-22.1a6.427,6.427,0,0,1,3.063-5.1c3.515-2.608,7.8-4.745,11.4-7.295.93-1.046.312-2.78-1.2-2.369-3.243,1.769-6.375,4.206-9.621,5.913a11.184,11.184,0,0,1-2.109.934m25.544-6.086H35.475l4.564,4.641a8.082,8.082,0,0,0,2-4.641M10.971,20.979h-.639c0,1.872-.418,3.828-.487,5.679-.033.877-.04,1.479.885,1.853l.732-.879Z" transform="translate(0)" fill="#fff"/>
          <path id="Trazado_1264561" data-name="Trazado 1264561" d="M110.106,203.965a9.976,9.976,0,0,1,5.925-7.129c-2.451-2.277-3.4-5.357-1.57-8.374a6.139,6.139,0,0,1,10.935,1.173c.986,2.828-.106,5.25-2.158,7.2a9.346,9.346,0,0,1,4.951,4.546l.331.1a9.17,9.17,0,0,1,4.967-4.646c.19-.208-.609-.652-.8-.875a6.139,6.139,0,0,1,7.584-9.5c3.883,2.283,3.779,7.659.429,10.38a9.569,9.569,0,0,1,5.518,5.774,13.388,13.388,0,0,1,.567,2.636v4.644l-.24.24H110.106c.178-1.936-.239-4.282,0-6.166m12.6-9.106c3.842-3.646-1.284-9.856-5.628-6.669-5.018,3.68,1.186,10.884,5.628,6.669m17.457-6.292c-4.443-4.215-10.6,3.02-5.628,6.669,4.384,3.216,9.461-3.033,5.628-6.669m-15.318,19.8h2.482a5.9,5.9,0,0,0,.238-2.8,7.929,7.929,0,0,0-15.851,0,5.9,5.9,0,0,0,.238,2.8h2.482v-7.047h1.762v7.047h6.887v-7.047h1.762Zm17.457,0h2.482a6.8,6.8,0,0,0,.22-3.1,7.916,7.916,0,0,0-13.027-5.541c-2.193,1.844-3.142,5.3-2.816,8.091.027.233.02.412.248.553h2.482v-7.047h1.762v7.047h6.887v-7.047H142.3Z" transform="translate(-92.408 -155.839)" fill="#fff"/>
          <path id="Trazado_1264562" data-name="Trazado 1264562" d="M273.506,120h4.564a4.26,4.26,0,0,1,1.524.718,2.615,2.615,0,0,1-1.218,4.553c-1.2.171-3.285.182-4.157-.78a5.431,5.431,0,0,1-.714-1.368Zm1.762,1.762c-.315,1.93.947,1.922,2.492,1.772a.9.9,0,0,0,.311-1.772Z" transform="translate(-229.703 -100.782)" fill="#fff"/>
          <path id="Trazado_1264563" data-name="Trazado 1264563" d="M106.132,26.96h-4.885c-.661,0-1.83-1.223-1.965-1.878-.625-3.032,2.257-3.769,4.65-3.369.788.132,2.2,1.136,2.2,1.964ZM104.37,25.2c.407-1.878-1.174-2.03-2.638-1.758-1.024.191-.888,1.758-.164,1.758Z" transform="translate(-83.309 -18.152)" fill="#fff"/>
          <rect id="Rectángulo_457601" data-name="Rectángulo 457601" width="5.285" height="1.762" transform="translate(45.565 3.523)" fill="#fff"/>
          <rect id="Rectángulo_457602" data-name="Rectángulo 457602" width="5.285" height="1.762" transform="translate(45.565 7.047)" fill="#fff"/>
          <rect id="Rectángulo_457603" data-name="Rectángulo 457603" width="5.285" height="1.762" transform="translate(45.565 10.57)" fill="#fff"/>
          <rect id="Rectángulo_457604" data-name="Rectángulo 457604" width="5.285" height="1.762" transform="translate(45.565 14.093)" fill="#fff"/>
        </g>
      </g>
    </g>
  </g>
</svg>
