<svg xmlns="http://www.w3.org/2000/svg" xmlns:xlink="http://www.w3.org/1999/xlink" width="70" height="70" viewBox="0 0 70 70">
  <defs>
    <clipPath id="clip-path">
      <rect id="Rectángulo_457538" data-name="Rectángulo 457538" width="38.251" height="40" fill="#5d0b80"/>
    </clipPath>
  </defs>
  <g id="Grupo_1205264" data-name="Grupo 1205264" transform="translate(-268.711 -957.727)">
    <circle id="Elipse_5614" data-name="Elipse 5614" cx="35" cy="35" r="35" transform="translate(268.711 957.727)" fill="#fff"/>
    <g id="Grupo_1206678" data-name="Grupo 1206678" transform="translate(284.711 972.726)">
      <g id="Grupo_1206677" data-name="Grupo 1206677" clip-path="url(#clip-path)">
        <path id="Trazado_1264315" data-name="Trazado 1264315" d="M45.915,67.607l7.5-8.125c1.213.266,2.336-1.177,2.874-2.074,7.4,1.876,14.26-3.95,12.9-11.395a10.014,10.014,0,0,0-7.058-7.58c-7.818-2.177-14.81,4.77-12.575,12.3a4.6,4.6,0,0,0-2.181,1.952c-.122.411.081.848-.224,1.159l-5.365,4.583V42.537l.177-.172h7.065a3.8,3.8,0,0,0,1.236-.861,3.376,3.376,0,0,0,.472-1.032V33.53H70.7a1.513,1.513,0,0,1,1,1.2l0,31.445c.127.582-.725,1.43-1.241,1.43Z" transform="translate(-36.872 -29.683)" fill="#5d0b80"/>
        <path id="Trazado_1264316" data-name="Trazado 1264316" d="M97.82,35.056V4.478a8.175,8.175,0,0,0-.49-.9,3.19,3.19,0,0,0-2.514-1.222c-6.145-.5-12.975.368-19.191,0-2.524.095-3.738,2.889-5.477,4.187-.119.089-.149.221-.354.171V1.266A1.589,1.589,0,0,1,70.85,0l28,.034a1.567,1.567,0,0,1,.978,1.571l0,32.016a1.575,1.575,0,0,1-2,1.434" transform="translate(-61.575)" fill="#5d0b80"/>
        <path id="Trazado_1264317" data-name="Trazado 1264317" d="M11.355,218.6l4.044,3.835L5.866,232.768c-.486.483-.849.966-1.622.655l-4.034-3.87a.868.868,0,0,1-.09-1.006Z" transform="translate(0 -193.521)" fill="#5d0b80"/>
        <path id="Trazado_1264318" data-name="Trazado 1264318" d="M123.371,85.392a8.763,8.763,0,0,1,9.112,4.822c3.072,6.719-3.28,13.733-10.5,11.6-1.56-.46-3.4-2.325-4.483-3.549-4.021-4.553-.085-12.255,5.867-12.877m.234,1.719a6.811,6.811,0,0,0-5.848,7.355c.534,5.207,7.018,7.811,11.174,4.49,5.375-4.3,1.677-12.667-5.327-11.845" transform="translate(-102.223 -75.545)" fill="#5d0b80"/>
        <path id="Trazado_1264319" data-name="Trazado 1264319" d="M48.794,48.07l6.712-6.54v5.794c0,.13-.465.746-.648.746Z" transform="translate(-43.048 -36.765)" fill="#5d0b80"/>
        <path id="Trazado_1264320" data-name="Trazado 1264320" d="M102.8,196.536a.323.323,0,0,1,.335.1l4.631,4.561.079.267-.886.863-5.011-4.654c-.253-.243.725-1.1.852-1.133" transform="translate(-89.908 -173.974)" fill="#5d0b80"/>
        <path id="Trazado_1264321" data-name="Trazado 1264321" d="M149.1,112.4c8.057-.951,8.2,11.322.086,10.523-6.228-.614-6.241-9.8-.086-10.523" transform="translate(-127.487 -99.46)" fill="#5d0b80"/>
      </g>
    </g>
  </g>
</svg>
