<svg xmlns="http://www.w3.org/2000/svg" xmlns:xlink="http://www.w3.org/1999/xlink" width="70" height="70" viewBox="0 0 70 70">
  <defs>
    <clipPath id="clip-path">
      <rect id="Rectángulo_457469" data-name="Rectángulo 457469" width="38.565" height="40" fill="#5d0b80"/>
    </clipPath>
  </defs>
  <g id="Grupo_1205992" data-name="Grupo 1205992" transform="translate(0.145 0.275)">
    <circle id="Elipse_5614" data-name="Elipse 5614" cx="35" cy="35" r="35" transform="translate(-0.145 -0.275)" fill="#fff"/>
    <g id="Grupo_1206639" data-name="Grupo 1206639" transform="translate(15.855 14.725)">
      <g id="Grupo_1206638" data-name="Grupo 1206638" clip-path="url(#clip-path)">
        <path id="Trazado_1264121" data-name="Trazado 1264121" d="M7.777,22.766v3.782a5.6,5.6,0,0,0,.788,1.5c1.114,1.032,5.382,1.011,6.514,0a4.688,4.688,0,0,0,.79-1.321V23.03c.154-.251.351-.243.607-.273a38.153,38.153,0,0,1,5.647,0c.256.03.452.022.607.273v3.694a4.687,4.687,0,0,0,.79,1.321c1.132,1.013,5.4,1.034,6.514,0a5.6,5.6,0,0,0,.788-1.5V22.766H36.89c.546,0,1.45,1.05,1.588,1.578l.087,32.465A2.694,2.694,0,0,1,37.5,58.56l-35.805.1c-.74.071-1.163-.618-1.467-1.172C-.164,46.5.054,35.366.12,24.344c.138-.528,1.042-1.578,1.588-1.578Zm10.337,9.017c-2.674.389-5.28,3.414-4.964,6.137a.849.849,0,0,0,1.626.2c.326-1.118.052-1.8.917-2.953,3.217-4.3,9.986-.254,7.635,4.644-1.084,2.257-3.421,2.066-4.446,4.35-.388.864-.92,3.744.417,3.744,1.143,0,.694-1.288.806-1.993.352-2.212,1.757-2.2,3.154-3.355,4.809-3.978,1.335-11.717-5.145-10.775m.7,17.762c-2.656.457-2.016,4.6.639,4.349a2.2,2.2,0,1,0-.639-4.349" transform="translate(0 -18.667)" fill="#5d0b80"/>
        <path id="Trazado_1264122" data-name="Trazado 1264122" d="M54.208.492c.1-.367.641-.419.957-.45.569-.057,3.617-.149,3.617.45V7.88c0,.315-.7.424-.957.45-.569.057-3.617.149-3.617-.45Z" transform="translate(-44.672 0)" fill="#5d0b80"/>
        <path id="Trazado_1264123" data-name="Trazado 1264123" d="M139.208.492c.1-.367.641-.419.957-.45.569-.057,3.617-.149,3.617.45V7.88c0,.315-.7.424-.957.45-.569.057-3.617.149-3.617-.45Z" transform="translate(-114.72 0)" fill="#5d0b80"/>
      </g>
    </g>
  </g>
</svg>
