<svg xmlns="http://www.w3.org/2000/svg" xmlns:xlink="http://www.w3.org/1999/xlink" width="70" height="70" viewBox="0 0 70 70">
  <defs>
    <clipPath id="clip-path">
      <rect id="Rect치ngulo_457535" data-name="Rect치ngulo 457535" width="32.332" height="40" fill="#5d0b80"/>
    </clipPath>
  </defs>
  <g id="Grupo_1205260" data-name="Grupo 1205260" transform="translate(0.145 0.245)">
    <circle id="Elipse_5614" data-name="Elipse 5614" cx="35" cy="35" r="35" transform="translate(-0.145 -0.245)" fill="#fff"/>
    <g id="Grupo_1206673" data-name="Grupo 1206673" transform="translate(18.855 14.756)">
      <g id="Grupo_1206672" data-name="Grupo 1206672" clip-path="url(#clip-path)">
        <path id="Trazado_1264309" data-name="Trazado 1264309" d="M18.788,0V8.707H27.5V22.913A9.945,9.945,0,0,0,15.118,33.285a12.13,12.13,0,0,0,1.265,4.177H0V0ZM11.113,5.041H3.781v7.332h7.332ZM6.186,15.122H3.666v2.291h2.52Zm17.528,0H8.707v2.291H23.714ZM6.186,20.048H3.666v2.234l.172.172H6.186Zm12.716,0H8.707v2.406H18.731l.172-.172ZM6.186,25.089H3.666V27.38h2.52Zm8.249,0H8.707V27.38h5.728ZM6.186,30.015H3.838l-.172.172v2.234h2.52Zm6.3,2.406V30.187l-.172-.172H8.707v2.406Z" fill="#5d0b80"/>
        <path id="Trazado_1264310" data-name="Trazado 1264310" d="M159.681,218.02c10.058-.872,10.99,14.36,1.224,14.972-9.9.621-10.878-14.135-1.224-14.972M163.443,222l-3.819,3.76c-.143.053-.219-.024-.326-.1-.344-.231-1.911-2.067-2.057-2.067l-1.538,1.643,3.928,3.845,5.449-5.449Z" transform="translate(-135.417 -193.012)" fill="#5d0b80"/>
        <path id="Trazado_1264311" data-name="Trazado 1264311" d="M189.155,16.041H184V11Z" transform="translate(-162.92 -9.74)" fill="#5d0b80"/>
        <rect id="Rect치ngulo_457534" data-name="Rect치ngulo 457534" width="2.75" height="2.635" transform="translate(6.072 7.447)" fill="#5d0b80"/>
      </g>
    </g>
  </g>
</svg>
