<svg xmlns="http://www.w3.org/2000/svg" xmlns:xlink="http://www.w3.org/1999/xlink" width="96" height="96" viewBox="0 0 96 96">
  <defs>
    <clipPath id="clip-path">
      <rect id="Rect치ngulo_457313" data-name="Rect치ngulo 457313" width="51.216" height="51.07" fill="#fff"/>
    </clipPath>
  </defs>
  <g id="Grupo_1206097" data-name="Grupo 1206097" transform="translate(-383.746 -8400.001)">
    <path id="Trazado_997400" data-name="Trazado 997400" d="M48,0A48,48,0,1,1,0,48,48,48,0,0,1,48,0Z" transform="translate(383.746 8400.001)" fill="#5d0b80"/>
    <g id="Grupo_1099776" data-name="Grupo 1099776" transform="translate(401.746 8418)">
      <g id="Grupo_1099618" data-name="Grupo 1099618" transform="translate(0 0)">
        <rect id="Rect치ngulo_401104" data-name="Rect치ngulo 401104" width="59.378" height="60.093" transform="translate(0)" fill="none"/>
      </g>
      <g id="Grupo_1206526" data-name="Grupo 1206526" transform="translate(4.742 4)">
        <g id="Grupo_1206525" data-name="Grupo 1206525" clip-path="url(#clip-path)">
          <path id="Trazado_1263551" data-name="Trazado 1263551" d="M.5,50.717a4.765,4.765,0,0,1-.422-.675L0,1.684A1.606,1.606,0,0,1,1.683,0L27.149,0l.806.218,9.869,9.733.475.841.041,38.739a1.431,1.431,0,0,1-1.39,1.536L.993,51.021a1.837,1.837,0,0,1-.5-.3M25.606,3.226H3.224V47.988h31.89V12.734H26.557c-.193,0-.951-.855-.951-.951Zm3.218,6.436h3.73l.148-.293-3.878-3.8Z" transform="translate(-0.001)" fill="#fff"/>
          <path id="Trazado_1263552" data-name="Trazado 1263552" d="M277.68,149.4c.46,1.361,2.444,2.626,1.438,4.144a1.58,1.58,0,0,1-2.243.392,51.56,51.56,0,0,1-3.586-5.191,1.568,1.568,0,0,1,.032-1.876,43.749,43.749,0,0,1,3.271-4.921,1.627,1.627,0,0,1,2.846,1.088c0,.953-1.407,2.236-1.758,3.145h3.365V133.451h-6.8a3.285,3.285,0,0,1-.872-.591,1.612,1.612,0,0,1,.906-2.593,54.816,54.816,0,0,1,8.3-.034,1.567,1.567,0,0,1,1.543,1.529c.479,5.2-.375,11.12,0,16.394.135.463-.8,1.24-1.1,1.24Z" transform="translate(-233.058 -111.063)" fill="#fff"/>
          <path id="Trazado_1263553" data-name="Trazado 1263553" d="M55.87,217.017c6.548.351,13.836-.6,20.3-.044.861.074,1.757.3,1.961,1.257l-.057,7.387a1.732,1.732,0,0,1-1.321,1.019l-21.442-.068a1.848,1.848,0,0,1-1.008-1.186,47.445,47.445,0,0,1-.012-7.017c.1-.885.758-1.216,1.578-1.348m1.5,6.4H74.848l.219-.219v-2.779l-.219-.219H57.587l-.219.219Z" transform="translate(-46.244 -185.081)" fill="#fff"/>
          <path id="Trazado_1263554" data-name="Trazado 1263554" d="M56,153.132l20-.025c1.613.255,1.541,3.176-.281,3.213l-19.313,0A1.627,1.627,0,0,1,56,153.132" transform="translate(-46.815 -130.71)" fill="#fff"/>
          <path id="Trazado_1263555" data-name="Trazado 1263555" d="M54.979,108.694a2.363,2.363,0,0,1,1.2-.484,53.043,53.043,0,0,1,8.029.017,1.614,1.614,0,0,1,.3,3.192,58.346,58.346,0,0,1-8.608,0,1.657,1.657,0,0,1-.919-2.721" transform="translate(-46.59 -92.258)" fill="#fff"/>
        </g>
      </g>
    </g>
  </g>
</svg>
