<svg xmlns="http://www.w3.org/2000/svg" xmlns:xlink="http://www.w3.org/1999/xlink" width="396" height="301" viewBox="0 0 396 301">
  <defs>
    <clipPath id="clip-path">
      <rect id="Rectángulo_457521" data-name="Rectángulo 457521" width="385.333" height="275.658" fill="none"/>
    </clipPath>
  </defs>
  <g id="Grupo_1206662" data-name="Grupo 1206662" transform="translate(-913.711 -1382)">
    <rect id="Rectángulo_457026" data-name="Rectángulo 457026" width="396" height="301" transform="translate(913.711 1382)" fill="#e6fffa"/>
    <g id="Grupo_1206661" data-name="Grupo 1206661" transform="translate(918.711 1407.343)">
      <g id="Grupo_1206660" data-name="Grupo 1206660" clip-path="url(#clip-path)">
        <path id="Trazado_1264191" data-name="Trazado 1264191" d="M440.063,188.747H210a6.579,6.579,0,0,1-6.58-6.58V14.42A6.58,6.58,0,0,1,210,7.84H440.063a6.58,6.58,0,0,1,6.58,6.58V182.167a6.579,6.579,0,0,1-6.58,6.58" transform="translate(-69.578 -2.682)" fill="#b5e1ff"/>
        <path id="Trazado_1264192" data-name="Trazado 1264192" d="M451.88,181.657H221.817a6.579,6.579,0,0,1-6.58-6.58V7.33a6.58,6.58,0,0,1,6.58-6.58H451.88a6.58,6.58,0,0,1,6.58,6.58V175.077a6.579,6.579,0,0,1-6.58,6.58" transform="translate(-73.62 -0.257)" fill="#fcfbff"/>
        <rect id="Rectángulo_457500" data-name="Rectángulo 457500" width="243.223" height="180.907" rx="10" transform="translate(141.617 0.493)" fill="none" stroke="#b5e1ff" stroke-linecap="round" stroke-linejoin="round" stroke-width="1.5"/>
        <rect id="Rectángulo_457501" data-name="Rectángulo 457501" width="25.27" height="42.132" transform="translate(225.675 77.146)" fill="#056154"/>
        <rect id="Rectángulo_457502" data-name="Rectángulo 457502" width="25.27" height="62.467" transform="translate(320.389 56.811)" fill="#056154"/>
        <rect id="Rectángulo_457503" data-name="Rectángulo 457503" width="25.27" height="54.249" transform="translate(271.42 65.029)" fill="#fbce73"/>
        <line id="Línea_3580" data-name="Línea 3580" x2="137.342" transform="translate(217.219 119.278)" fill="none" stroke="#1574dd" stroke-miterlimit="10" stroke-width="1.5"/>
        <path id="Trazado_1264193" data-name="Trazado 1264193" d="M309.222,54.787a26.823,26.823,0,0,0-24.287-15.433V66.179Z" transform="translate(-97.459 -13.461)" fill="#fbce73"/>
        <path id="Trazado_1264194" data-name="Trazado 1264194" d="M309.222,54.787a26.823,26.823,0,0,0-24.287-15.433V66.179Z" transform="translate(-97.459 -13.461)" fill="none" stroke="#b5e1ff" stroke-linecap="round" stroke-linejoin="round" stroke-width="1.5"/>
        <circle id="Elipse_13692" data-name="Elipse 13692" cx="26.825" cy="26.825" r="26.825" transform="matrix(0.29, -0.957, 0.957, 0.29, 154.028, 70.619)" fill="none" stroke="#b5e1ff" stroke-linecap="round" stroke-linejoin="round" stroke-width="1.5"/>
        <rect id="Rectángulo_457504" data-name="Rectángulo 457504" width="26.536" height="4.082" transform="translate(224.408 19.284)" fill="#fbce73"/>
        <rect id="Rectángulo_457505" data-name="Rectángulo 457505" width="42.086" height="4.082" transform="translate(224.409 27.448)" fill="#b5e1ff"/>
        <rect id="Rectángulo_457506" data-name="Rectángulo 457506" width="42.086" height="4.082" transform="translate(224.409 34.251)" fill="#b5e1ff"/>
        <rect id="Rectángulo_457507" data-name="Rectángulo 457507" width="26.536" height="4.082" transform="translate(225.675 128.285)" fill="#fbce73"/>
        <rect id="Rectángulo_457508" data-name="Rectángulo 457508" width="42.086" height="4.082" transform="translate(225.675 136.449)" fill="#b5e1ff"/>
        <rect id="Rectángulo_457509" data-name="Rectángulo 457509" width="26.536" height="4.082" transform="translate(225.675 143.252)" fill="#b5e1ff"/>
        <rect id="Rectángulo_457510" data-name="Rectángulo 457510" width="26.536" height="4.082" transform="translate(290.937 128.285)" fill="#fbce73"/>
        <rect id="Rectángulo_457511" data-name="Rectángulo 457511" width="42.086" height="4.082" transform="translate(290.937 136.449)" fill="#b5e1ff"/>
        <rect id="Rectángulo_457512" data-name="Rectángulo 457512" width="26.536" height="4.082" transform="translate(290.937 143.252)" fill="#b5e1ff"/>
        <rect id="Rectángulo_457513" data-name="Rectángulo 457513" width="15.198" height="4.082" transform="translate(160.651 86.686)" fill="#1574dd"/>
        <rect id="Rectángulo_457514" data-name="Rectángulo 457514" width="24.104" height="4.082" transform="translate(160.651 94.851)" fill="#b5e1ff"/>
        <rect id="Rectángulo_457515" data-name="Rectángulo 457515" width="15.198" height="4.082" transform="translate(160.651 107.032)" fill="#1574dd"/>
        <rect id="Rectángulo_457516" data-name="Rectángulo 457516" width="24.104" height="4.082" transform="translate(160.651 115.196)" fill="#b5e1ff"/>
        <rect id="Rectángulo_457517" data-name="Rectángulo 457517" width="15.198" height="4.082" transform="translate(160.651 127.378)" fill="#1574dd"/>
        <rect id="Rectángulo_457518" data-name="Rectángulo 457518" width="24.104" height="4.082" transform="translate(160.651 135.542)" fill="#b5e1ff"/>
        <path id="Trazado_1264195" data-name="Trazado 1264195" d="M112.519,348.02s-34.1,33.117-85.37,5.757l1.368-8.28,82.968-5.052Z" transform="translate(-9.286 -116.446)" fill="#d2552a"/>
        <path id="Trazado_1264196" data-name="Trazado 1264196" d="M35.054,313.208,17.4,381.8h82.08s7.592-44.741,3.549-68.592Z" transform="translate(-5.951 -107.13)" fill="#7040bf"/>
        <path id="Trazado_1264197" data-name="Trazado 1264197" d="M111,316.463c-.134-1.12-.288-2.209-.465-3.255H42.559l-3.217,12.5Z" transform="translate(-13.457 -107.13)" fill="#492994"/>
        <path id="Trazado_1264198" data-name="Trazado 1264198" d="M88.774,392.819l9.952-45.4,6.324-2" transform="translate(-30.364 -118.149)" fill="none" stroke="#492994" stroke-linecap="round" stroke-linejoin="round" stroke-width="1.5"/>
        <path id="Trazado_1264199" data-name="Trazado 1264199" d="M50.428,160.75a19.551,19.551,0,0,1-5.922-17.6c1.809-11.185,10.363-12.995,10.363-12.995S44.835,119.792,56.514,106.3c0,0,3.619-3.454,8.06-3.948,0,0,3.619-16.778,22.7-14.969s13.241,20.4,7.854,22.864c0,0,3.233,8.718-1.653,12.995V129s13.044,3.29,14.689,17.107-13.036,18.752-13.036,18.752-37.628,3.073-44.7-4.112" transform="translate(-15.129 -29.843)" fill="#00184c"/>
        <path id="Trazado_1264200" data-name="Trazado 1264200" d="M50.912,178.739,23.15,186.227a5.914,5.914,0,0,0-3.83,3.225c-3.837,8.282-15.891,35-18.235,48.648,0,0-4.834,16.677,5.9,22.892a14.84,14.84,0,0,0,9.568,1.7l7.392-1.072-6.086,36.846s26.483,3.454,31.747-15.133l3.29-16.12H85.8s-2.3,18.587,17.436,25.5l-5.593-40.958,2.89-15.827,10.537,9.182A27.083,27.083,0,0,0,122.02,251c6.533,1.689,15.325,1.2,20.526-10.429,9.047-20.232,14.146-46.88,14.146-46.88L144.685,181.35l-23.522,34.378L100.73,187.556a5.925,5.925,0,0,0-3.4-2.279l-27-6.539Z" transform="translate(0 -61.136)" fill="#fbce73"/>
        <path id="Trazado_1264201" data-name="Trazado 1264201" d="M115.444,218.909c-1.032-11.825-13.378-32.679-18.642-40.17H77.379s9.992,54.974,1.987,88.475h32.9s3.927-39.747,3.18-48.305" transform="translate(-26.467 -61.136)" fill="#fcfbff"/>
        <path id="Trazado_1264202" data-name="Trazado 1264202" d="M116.077,262.435c-10.321,3.321-23.036,4.977-32.619,5.8A133.744,133.744,0,0,1,80.4,295.842h32.9s1.865-18.871,2.78-33.407" transform="translate(-27.5 -89.763)" fill="#b5e1ff"/>
        <path id="Trazado_1264203" data-name="Trazado 1264203" d="M96.8,159.4l-.517-7.355a11.185,11.185,0,0,0,3.642-.561c8.882-2.961,6.57-13.793,5.264-19.739a42.176,42.176,0,0,0-2.648-8.44c-6.988,2.641-14.13-1.1-14.13-1.1a11.163,11.163,0,0,1-7.567,6.415,12.008,12.008,0,0,1-2.129,8.037c.359,1.142-1.338,22.743-1.338,22.743s2.038,12.809,2.983,21.3c2.706.225,5.485.349,8.327.349a94.509,94.509,0,0,0,19.618-2A166.816,166.816,0,0,0,96.8,159.4" transform="translate(-26.467 -41.8)" fill="#ffa189"/>
        <path id="Trazado_1264204" data-name="Trazado 1264204" d="M92.542,125.991s8.109,2.558,12.219-1.7c-.136-.329-.276-.656-.424-.978-6.988,2.64-14.13-1.1-14.13-1.1a11.163,11.163,0,0,1-7.567,6.415,15.879,15.879,0,0,1-.016,1.924c2.827.088,7.727-.413,9.918-4.556" transform="translate(-28.261 -41.8)" fill="#f8756a"/>
        <path id="Trazado_1264205" data-name="Trazado 1264205" d="M77.1,139.707a4.8,4.8,0,1,1-7.13-.705,5.083,5.083,0,0,1,7.13.705" transform="translate(-23.446 -47.149)" fill="#ffa189"/>
        <path id="Trazado_1264206" data-name="Trazado 1264206" d="M15.4,268.44s2.3-10.034,15.791-11.679,28.292-.493,34.049-2.3L66.4,271.236s-24.287,15.3-37.184,16.285Z" transform="translate(-5.267 -87.035)" fill="#fbce73"/>
        <path id="Trazado_1264207" data-name="Trazado 1264207" d="M40,249.062s1.574-3.939,4.581-16.754l-.53,16.486Z" transform="translate(-13.681 -79.459)" fill="#f8a908"/>
        <path id="Trazado_1264208" data-name="Trazado 1264208" d="M100.183,163.72a14.884,14.884,0,0,1-11.408-7.387s.626,9.11,11.743,12.153Z" transform="translate(-30.365 -53.472)" fill="#f8756a"/>
        <line id="Línea_3581" data-name="Línea 3581" x2="4.77" y2="3.29" transform="translate(48.129 93.649)" fill="none" stroke="#f8756a" stroke-linecap="round" stroke-linejoin="round" stroke-width="1.5"/>
        <path id="Trazado_1264209" data-name="Trazado 1264209" d="M151,248.143s2.664-9.662,2.7-17.071c.025-4.869-4.77-10.856-6.156-16.613" transform="translate(-50.466 -73.353)" fill="none" stroke="#d2552a" stroke-linecap="round" stroke-linejoin="round" stroke-width="1.5"/>
        <path id="Trazado_1264210" data-name="Trazado 1264210" d="M141.777,263.614H107.4l6.251-44.906h34.378Z" transform="translate(-36.735 -74.807)" fill="#1574dd"/>
        <path id="Trazado_1264211" data-name="Trazado 1264211" d="M91.295,251.352s5.414-2.461,7.142-4.681,7.635-5.361,7.635-5.361l-.562,4.864s18.176-5.672,20.479-4.767-2.138,3.619-2.138,3.619,4.277-1.542,4.441-.647-1.316,3.279-2.221,3.937c0,0,1.151-.329,1.234.822s-5.922,6-10.856,7.9c0,0,5.51-1.151,7.073,0,0,0-8.06,4.03-11.021,4.935s-20.272,2.876-20.272,2.876Z" transform="translate(-31.227 -82.538)" fill="#ffa189"/>
        <line id="Línea_3582" data-name="Línea 3582" x1="14.886" y2="4.935" transform="translate(77.737 162.488)" fill="none" stroke="#f8756a" stroke-linecap="round" stroke-linejoin="round" stroke-width="1.5"/>
        <path id="Trazado_1264212" data-name="Trazado 1264212" d="M136.068,251.958s-10.034,3.948-15.544,5.428" transform="translate(-41.224 -86.18)" fill="none" stroke="#f8756a" stroke-linecap="round" stroke-linejoin="round" stroke-width="1.5"/>
        <line id="Línea_3583" data-name="Línea 3583" x1="4.935" y2="1.398" transform="translate(80.287 174.496)" fill="none" stroke="#f8756a" stroke-linecap="round" stroke-linejoin="round" stroke-width="1.5"/>
        <path id="Trazado_1264213" data-name="Trazado 1264213" d="M80.277,281.256A173.408,173.408,0,0,1,60.03,291.949" transform="translate(-20.533 -96.201)" fill="none" stroke="#f6a606" stroke-linecap="round" stroke-linejoin="round" stroke-width="1.5"/>
        <path id="Trazado_1264214" data-name="Trazado 1264214" d="M15.4,268.44s2.3-10.034,15.791-11.679,28.292-.493,34.049-2.3" transform="translate(-5.267 -87.035)" fill="none" stroke="#f6a606" stroke-linecap="round" stroke-linejoin="round" stroke-width="1.5"/>
        <path id="Trazado_1264215" data-name="Trazado 1264215" d="M180.9,234.958a24.753,24.753,0,0,0-6.251,11.185" transform="translate(-59.737 -80.365)" fill="none" stroke="#f6a606" stroke-linecap="round" stroke-linejoin="round" stroke-width="1.5"/>
        <path id="Trazado_1264216" data-name="Trazado 1264216" d="M91.3,256.573l.934,13.492,3.107-.365Z" transform="translate(-31.227 -87.758)" fill="#f8756a"/>
        <path id="Trazado_1264217" data-name="Trazado 1264217" d="M221.132,169.892l9.242-12.287a30.262,30.262,0,0,1,8.636-6.415,130.8,130.8,0,0,0,14.228-8.389s2.714,1.727,0,4.277l-7.32,7.073,4.553,3.379a3.129,3.129,0,0,1,.107,5.156c-.095.063-.195.124-.3.182a3.571,3.571,0,0,1-1.974,4.359,3.31,3.31,0,0,1-2.056,3.043c-2.138.9-5.793-.493-5.793-.493s-.79,4.4-7.2,5.635l-2.829,4.022Z" transform="translate(-75.636 -48.844)" fill="#ffa189"/>
        <path id="Trazado_1264218" data-name="Trazado 1264218" d="M245.082,162.535l13.159-1.234s1.234,3.619-2.138,4.441a66.408,66.408,0,0,0-6.826,2.138,6.2,6.2,0,0,1-4.62,6.58Z" transform="translate(-83.682 -55.171)" fill="#ffa189"/>
        <path id="Trazado_1264219" data-name="Trazado 1264219" d="M247.411,162.316l10.831-1.015s1.234,3.619-2.138,4.441a66.41,66.41,0,0,0-6.826,2.138,6.2,6.2,0,0,1-4.621,6.58" transform="translate(-83.682 -55.171)" fill="none" stroke="#f8756a" stroke-linecap="round" stroke-linejoin="round" stroke-width="1.5"/>
        <path id="Trazado_1264220" data-name="Trazado 1264220" d="M251.678,171.3s6.662,2.138,9.047,1.316" transform="translate(-86.084 -58.592)" fill="none" stroke="#f8756a" stroke-linecap="round" stroke-linejoin="round" stroke-width="1.5"/>
        <path id="Trazado_1264221" data-name="Trazado 1264221" d="M250.5,176.9s3.9,2.4,7.849,1.994" transform="translate(-85.681 -60.506)" fill="none" stroke="#f8756a" stroke-linecap="round" stroke-linejoin="round" stroke-width="1.5"/>
        <path id="Trazado_1264222" data-name="Trazado 1264222" d="M249.514,182.5s-2.075-1.55-1.883-2.5" transform="translate(-84.695 -61.567)" fill="none" stroke="#f8756a" stroke-linecap="round" stroke-linejoin="round" stroke-width="1.5"/>
        <path id="Trazado_1264223" data-name="Trazado 1264223" d="M221.132,183.975l11.472,6.59-2.184,2.953Z" transform="translate(-75.636 -62.927)" fill="#f8756a"/>
        <path id="Trazado_1264224" data-name="Trazado 1264224" d="M103.392,138.729c.053.7-.309,1.3-.807,1.338s-.945-.5-1-1.2.309-1.3.807-1.339.944.5,1,1.2" transform="translate(-34.746 -47.039)" fill="#00184c"/>
        <path id="Trazado_1264225" data-name="Trazado 1264225" d="M117.329,137.354c.053.7-.309,1.3-.807,1.338s-.945-.5-1-1.2.309-1.3.807-1.339.944.5,1,1.2" transform="translate(-39.513 -46.568)" fill="#00184c"/>
        <path id="Trazado_1264226" data-name="Trazado 1264226" d="M97.034,133.108a4.123,4.123,0,0,1,4.656-1.18" transform="translate(-33.19 -45.021)" fill="none" stroke="#00184c" stroke-linecap="round" stroke-linejoin="round" stroke-width="3"/>
        <path id="Trazado_1264227" data-name="Trazado 1264227" d="M112.759,130.375a4.259,4.259,0,0,1,3.163-1.482" transform="translate(-38.568 -44.086)" fill="none" stroke="#00184c" stroke-linecap="round" stroke-linejoin="round" stroke-width="3"/>
        <path id="Trazado_1264228" data-name="Trazado 1264228" d="M104.48,137a4.268,4.268,0,1,1-4.233-4.814A4.552,4.552,0,0,1,104.48,137Z" transform="translate(-32.841 -45.214)" fill="none" stroke="#fcfbff" stroke-linecap="round" stroke-linejoin="round" stroke-width="1.5"/>
        <path id="Trazado_1264229" data-name="Trazado 1264229" d="M120.754,135.158c0,2.659-1.563,4.814-3.492,4.814s-3.491-2.155-3.491-4.814,1.563-4.814,3.491-4.814S120.754,132.5,120.754,135.158Z" transform="translate(-38.914 -44.583)" fill="none" stroke="#fcfbff" stroke-linecap="round" stroke-linejoin="round" stroke-width="1.5"/>
        <line id="Línea_3584" data-name="Línea 3584" y1="0.557" x2="3.259" transform="translate(71.598 90.576)" fill="none" stroke="#fcfbff" stroke-linecap="round" stroke-linejoin="round" stroke-width="1.5"/>
        <path id="Trazado_1264230" data-name="Trazado 1264230" d="M111.842,139.392s3.377,3.827,3.739,5.636-3.043,1.563-3.043,1.563" transform="translate(-38.254 -47.678)" fill="none" stroke="#f8756a" stroke-linecap="round" stroke-linejoin="round" stroke-width="1.5"/>
        <path id="Trazado_1264231" data-name="Trazado 1264231" d="M106.054,152.833l4.865.658s-.161,2.193-2.822,1.864-2.043-2.522-2.043-2.522" transform="translate(-36.253 -52.275)" fill="#fcfbff"/>
        <circle id="Elipse_13693" data-name="Elipse 13693" cx="7.073" cy="7.073" r="7.073" transform="translate(41.714 99.927)" fill="none" stroke="#fcfbff" stroke-linecap="round" stroke-linejoin="round" stroke-width="1.5"/>
        <path id="Trazado_1264232" data-name="Trazado 1264232" d="M136.547,218.708l-.534,3.564h12.158l.487-3.564" transform="translate(-46.522 -74.807)" fill="none" stroke="#00184c" stroke-linecap="round" stroke-linejoin="round" stroke-width="1.5"/>
        <path id="Trazado_1264233" data-name="Trazado 1264233" d="M63.368,47.791H29.791a3.7,3.7,0,0,0-3.7,3.7V63.839a3.7,3.7,0,0,0,3.7,3.7H51.485l6.884,7.746V67.542h5a3.7,3.7,0,0,0,3.7-3.7V51.494a3.7,3.7,0,0,0-3.7-3.7" transform="translate(-8.923 -16.346)" fill="#fcfbff"/>
        <path id="Trazado_1264234" data-name="Trazado 1264234" d="M44.914,61.082a1.957,1.957,0,1,1-1.957-1.957,1.957,1.957,0,0,1,1.957,1.957" transform="translate(-14.023 -20.223)" fill="#b5e1ff"/>
        <path id="Trazado_1264235" data-name="Trazado 1264235" d="M59.173,61.082a1.958,1.958,0,1,1-1.958-1.957,1.958,1.958,0,0,1,1.958,1.957" transform="translate(-18.9 -20.223)" fill="#b5e1ff"/>
        <path id="Trazado_1264236" data-name="Trazado 1264236" d="M72.114,61.082a1.957,1.957,0,1,1-1.957-1.957,1.957,1.957,0,0,1,1.957,1.957" transform="translate(-23.327 -20.223)" fill="#b5e1ff"/>
        <path id="Trazado_1264237" data-name="Trazado 1264237" d="M180.35,289.235l-22.911,8.873s-16.559,6.032-18.862,20.288-6.36,36.736-6.36,36.736l-30.486,5.812v12.282H239.355l-1.139-30.407,16.8-1.147c-3.654-23.385-7.766-41.918-32.549-47.84L200,288.136Z" transform="translate(-34.796 -98.554)" fill="#5d0b80"/>
        <path id="Trazado_1264238" data-name="Trazado 1264238" d="M213.716,291.891s-1.036,16.332,14.755,15.509,14.88-17.425,14.88-17.425" transform="translate(-73.095 -99.183)" fill="none" stroke="#492994" stroke-linecap="round" stroke-linejoin="round" stroke-width="1.5"/>
        <path id="Trazado_1264239" data-name="Trazado 1264239" d="M158.18,374.123,134.206,373c-1.14,6.459-1.988,11.16-1.988,11.16l-30.486,5.812v12.282h56.3Z" transform="translate(-34.796 -127.58)" fill="#ffa189"/>
        <path id="Trazado_1264240" data-name="Trazado 1264240" d="M151.088,373l23.973,1.126v5.839Z" transform="translate(-51.678 -127.58)" fill="#f8756a"/>
        <path id="Trazado_1264241" data-name="Trazado 1264241" d="M243.2,222.324a7.25,7.25,0,0,0-6.5-5.922c.658-4.277-3.537-7.484-10.034-6.826s-8.142-2.879-15.544-3.783-10.692,6.251-8.965,12.419,8.965,6.744,8.965,6.744l.576,20.479,18.007.493a8.22,8.22,0,0,0,8.476-7.937,7.466,7.466,0,0,0-.274-1.971c3.61-3.621,6.03-9.83,5.291-13.7" transform="translate(-68.994 -70.363)" fill="#00184c"/>
        <path id="Trazado_1264242" data-name="Trazado 1264242" d="M237.7,237.742a5.181,5.181,0,0,0-4.793,3.214c-1.566-1.44-2.994-3.927-3.1-8.231,0,0-6.1,2.654-8.389.411a7.673,7.673,0,0,1-2.221-5.428,6.174,6.174,0,0,1-7.349,3.089l-2.08,19.016s-1.691,8.481,8.3,10.322L217.053,270.8s-.649,9.658,7.786,10.034c12.282.548,12.282-10.034,12.282-10.034l-1.778-23.269a5.18,5.18,0,1,0,2.354-9.793" transform="translate(-71.71 -77.885)" fill="#ffa189"/>
        <path id="Trazado_1264243" data-name="Trazado 1264243" d="M230.938,232.725s-6.1,2.654-8.389.411a7.673,7.673,0,0,1-2.221-5.428,6.174,6.174,0,0,1-7.349,3.089,8.884,8.884,0,0,0,6.966,1.462s2.525,5.154,7.458,4.5c0,0,2.86,4.893,6.638,4.2-1.566-1.44-2.994-3.927-3.1-8.231" transform="translate(-72.847 -77.885)" fill="#f8756a"/>
        <path id="Trazado_1264244" data-name="Trazado 1264244" d="M222.2,273.517s8.863,1.376,12.235-6.684c0,0-.695,10.555-12.684,11.446Z" transform="translate(-75.846 -91.268)" fill="#f8756a"/>
        <line id="Línea_3585" data-name="Línea 3585" y1="2.796" x2="5.346" transform="translate(163.108 163.146)" fill="none" stroke="#f8756a" stroke-linecap="round" stroke-linejoin="round" stroke-width="1.5"/>
        <path id="Trazado_1264245" data-name="Trazado 1264245" d="M218.317,244.333l-3.46,5.641a1.316,1.316,0,0,0,.65,1.917l2.809,1.078" transform="translate(-73.423 -83.572)" fill="none" stroke="#f8756a" stroke-linecap="round" stroke-linejoin="round" stroke-width="1.5"/>
        <path id="Trazado_1264246" data-name="Trazado 1264246" d="M217.44,260.734s4,1.234,6.224-1.151" transform="translate(-74.373 -88.788)" fill="none" stroke="#f8756a" stroke-linecap="round" stroke-linejoin="round" stroke-width="1.5"/>
        <path id="Trazado_1264247" data-name="Trazado 1264247" d="M215.51,242.266c0,.7-.405,1.274-.9,1.274s-.9-.57-.9-1.274.405-1.274.9-1.274.9.57.9,1.274" transform="translate(-73.094 -82.429)" fill="#00184c"/>
        <path id="Trazado_1264248" data-name="Trazado 1264248" d="M229.044,244.345c0,.7-.405,1.274-.9,1.274s-.9-.57-.9-1.274.405-1.274.9-1.274.9.57.9,1.274" transform="translate(-77.724 -83.14)" fill="#00184c"/>
        <path id="Trazado_1264249" data-name="Trazado 1264249" d="M226.579,238.83a4.122,4.122,0,0,1,4.482,1.727" transform="translate(-77.499 -81.646)" fill="none" stroke="#00184c" stroke-linecap="round" stroke-linejoin="round" stroke-width="3"/>
        <path id="Trazado_1264250" data-name="Trazado 1264250" d="M211.9,237.674a5.7,5.7,0,0,1,3.646,0" transform="translate(-72.478 -81.193)" fill="none" stroke="#00184c" stroke-linecap="round" stroke-linejoin="round" stroke-width="3"/>
        <line id="Línea_3586" data-name="Línea 3586" y1="43.919" x2="0.493" transform="translate(123.137 230.094)" fill="none" stroke="#492994" stroke-linecap="round" stroke-linejoin="round" stroke-width="1.5"/>
        <line id="Línea_3587" data-name="Línea 3587" x2="23.217" y2="1.178" transform="translate(100.286 240.43)" fill="none" stroke="#492994" stroke-linecap="round" stroke-linejoin="round" stroke-width="1.5"/>
        <path id="Trazado_1264251" data-name="Trazado 1264251" d="M216.2,387.785,200.631,380s-2.412-1.645-5.7.877S181.989,392.5,177.6,392.939c0,0-1.645,3.619,3.51,3.619,0,0,2.083,2.413,6.141.658,0,0,2.632,1.974,6.36-.329a8.228,8.228,0,0,0,6.36.658l5.264-1.645a16.665,16.665,0,0,0,10.966,5.154h50.773s18.861-1.316,16.449-17.107c-2.017-13.2-2.542-14.447-2.542-14.447l-28.5,1.947.949,8.536Z" transform="translate(-60.662 -126.384)" fill="#ffa189"/>
        <path id="Trazado_1264252" data-name="Trazado 1264252" d="M291.388,371.447l28.5-1.947.913,4.42Z" transform="translate(-99.667 -126.384)" fill="#f8756a"/>
        <path id="Trazado_1264253" data-name="Trazado 1264253" d="M292.83,385.37s6.132-.97,10.819,2.566" transform="translate(-100.16 -131.77)" fill="none" stroke="#f8756a" stroke-linecap="round" stroke-linejoin="round" stroke-width="1.5"/>
        <line id="Línea_3588" data-name="Línea 3588" x2="4.112" y2="1.919" transform="translate(155.541 261.402)" fill="none" stroke="#f8756a" stroke-linecap="round" stroke-linejoin="round" stroke-width="1.5"/>
        <path id="Trazado_1264254" data-name="Trazado 1264254" d="M219.732,408.756l4.14-1.673s3.619,4.77,8.307,3.866" transform="translate(-75.157 -139.239)" fill="none" stroke="#f8756a" stroke-linecap="round" stroke-linejoin="round" stroke-width="1.5"/>
        <line id="Línea_3589" data-name="Línea 3589" y1="6.114" x2="10.006" transform="translate(132.951 264.39)" fill="none" stroke="#f8756a" stroke-linecap="round" stroke-linejoin="round" stroke-width="1.5"/>
        <line id="Línea_3590" data-name="Línea 3590" y1="9.075" x2="11.364" transform="translate(126.591 261.758)" fill="none" stroke="#f8756a" stroke-linecap="round" stroke-linejoin="round" stroke-width="1.5"/>
        <line id="Línea_3591" data-name="Línea 3591" y1="10.062" x2="13.049" transform="translate(120.45 260.113)" fill="none" stroke="#f8756a" stroke-linecap="round" stroke-linejoin="round" stroke-width="1.5"/>
        <line id="Línea_3592" data-name="Línea 3592" x1="2.625" y1="17.601" transform="translate(189.097 227.462)" fill="none" stroke="#492994" stroke-linecap="round" stroke-linejoin="round" stroke-width="1.5"/>
        <line id="Línea_3593" data-name="Línea 3593" y1="2.847" x2="28.29" transform="translate(191.031 237.583)" fill="none" stroke="#492994" stroke-linecap="round" stroke-linejoin="round" stroke-width="1.5"/>
        <rect id="Rectángulo_457519" data-name="Rectángulo 457519" width="61.355" height="5.209" transform="translate(82.836 269.462)" fill="#1574dd"/>
        <path id="Trazado_1264255" data-name="Trazado 1264255" d="M129.844,390.665H64.392l-13.159-51.54h65.453Z" transform="translate(-17.524 -115.994)" fill="#b5e1ff"/>
        <path id="Trazado_1264256" data-name="Trazado 1264256" d="M148.316,339.125h-4.606l13.159,51.54h4.606Z" transform="translate(-49.155 -115.994)" fill="#1574dd"/>
        <path id="Trazado_1264257" data-name="Trazado 1264257" d="M104.386,373.465c.682,2.732-.48,5.376-2.595,5.9s-4.383-1.259-5.066-3.991.48-5.376,2.595-5.9,4.383,1.259,5.066,3.991" transform="translate(-33.017 -126.343)" fill="#fcfbff"/>
        <path id="Trazado_1264258" data-name="Trazado 1264258" d="M407.061,235.834s-17.929,3.656-29.444-8.845S383.7,196.25,383.7,196.25s-9.376-8.738-4.935-17.127c0,0,4.387-6.086,12.474-2.138,0,0,9.454-12.83,25.22-5.593s15.6,27.636,15.108,31.364c0,0,19.459,29.942-24.509,33.079" transform="translate(-127.824 -57.866)" fill="#00184c"/>
        <path id="Trazado_1264259" data-name="Trazado 1264259" d="M362.914,287.614l-2.961,8.718-24.674-25.5a14.343,14.343,0,0,0-1.042-8.992c-2.194-4.606-.768-9.869-.768-9.869a3.138,3.138,0,0,0-3.838.987l-2.338,7.371-20.32-5.356a4.507,4.507,0,0,0-1.151-.205c-1.349-.062-4.308.06-4.812,2.248,0,0-3.729-1.234-5.835,2.015l2.106.946s-3.3.315-4.071,2.508l2.55,1.969s1.769,3.213,3.386,4.3c5.22,3.494,22.48,7.018,24.948,9.815l22.379,38.015c3.207,5.448,7.5,10.358,13.755,11.277,4.193.616,10.556-.556,13.707-4.88a135.451,135.451,0,0,0,13.324-22.371Z" transform="translate(-100.29 -86.087)" fill="#ffa189"/>
        <line id="Línea_3594" data-name="Línea 3594" x2="7.512" y2="7.95" transform="translate(259.663 210.245)" fill="none" stroke="#f8756a" stroke-linecap="round" stroke-linejoin="round" stroke-width="1.5"/>
        <path id="Trazado_1264260" data-name="Trazado 1264260" d="M424.445,320.778,420.9,341.9s7.676-12.816,10.034-17.655Z" transform="translate(-143.964 -109.719)" fill="#f8756a"/>
        <line id="Línea_3595" data-name="Línea 3595" x2="13.598" y2="4.387" transform="translate(200.721 170.932)" fill="none" stroke="#f8756a" stroke-linecap="round" stroke-linejoin="round" stroke-width="1.5"/>
        <line id="Línea_3596" data-name="Línea 3596" x2="15.133" y2="4.606" transform="translate(196.993 173.893)" fill="none" stroke="#f8756a" stroke-linecap="round" stroke-linejoin="round" stroke-width="1.5"/>
        <line id="Línea_3597" data-name="Línea 3597" x2="15.155" y2="4.15" transform="translate(194.887 177.968)" fill="none" stroke="#f8756a" stroke-linecap="round" stroke-linejoin="round" stroke-width="1.5"/>
        <path id="Trazado_1264261" data-name="Trazado 1264261" d="M331.274,276.2s7.567-4.112,10.61,3.29" transform="translate(-113.309 -94.081)" fill="none" stroke="#f8756a" stroke-linecap="round" stroke-linejoin="round" stroke-width="1.5"/>
        <path id="Trazado_1264262" data-name="Trazado 1264262" d="M505.717,297.291s15.023,1.755,20.507,18.916-12.5,60.149-12.5,60.149H441.566L468.323,328Z" transform="translate(-151.033 -101.685)" fill="#00184c"/>
        <path id="Trazado_1264263" data-name="Trazado 1264263" d="M498.243,352.875l4.029,2.961-8.5,39.532" transform="translate(-168.89 -120.697)" fill="none" stroke="#013f81" stroke-linecap="round" stroke-linejoin="round" stroke-width="1.5"/>
        <path id="Trazado_1264264" data-name="Trazado 1264264" d="M527.374,306.891l4.511,4.454a22.289,22.289,0,0,0,18.491,6.247l.153-.02" transform="translate(-180.383 -104.969)" fill="none" stroke="#013f81" stroke-linecap="round" stroke-linejoin="round" stroke-width="1.5"/>
        <path id="Trazado_1264265" data-name="Trazado 1264265" d="M541.232,385.3s16.23-50.043,10.308-61.867" transform="translate(-185.123 -110.626)" fill="none" stroke="#013f81" stroke-linecap="round" stroke-linejoin="round" stroke-width="1.5"/>
        <path id="Trazado_1264266" data-name="Trazado 1264266" d="M469.934,233.025a22.42,22.42,0,0,0-11.209-7.137,29.175,29.175,0,0,0-10.9-1.09l-11.339.945-15,9.13-5.535,2.958a18.81,18.81,0,0,0-9,10.525,39.86,39.86,0,0,0-1.222,4.528c-1.974,9.376-6.58,25.5-6.58,25.5l24.345,12.995,5.716-11.733a15.718,15.718,0,0,0,4.318.274c6.141,3.619,20.287,23.248,20.287,23.248l37.394-30.705s-14.694-31.143-21.274-39.434" transform="translate(-136.525 -76.853)" fill="#37dbc5"/>
        <path id="Trazado_1264267" data-name="Trazado 1264267" d="M438.493,299.4s-6.482-.078-7.636-5.647a63.676,63.676,0,0,0-3.509-11.3s1.563,20.451-1.059,25.213l6.487,3.463Z" transform="translate(-145.808 -96.612)" fill="#056154"/>
        <path id="Trazado_1264268" data-name="Trazado 1264268" d="M434.521,213.5l-12.031-5.971a5.045,5.045,0,0,0,3.148-4.762,4.74,4.74,0,1,0-9.458,0c0,.13.009.257.018.384l-.2-.171c-5.575-.748-16.5-14.076-16.5-14.08a9.513,9.513,0,0,0-2.148,4.97l.219,5.593L393.4,206.7h3.783s-.055,10.966,5.209,13.6a11.1,11.1,0,0,0,11.808-1.346l5.322,3.677s1.622,13.351,10.176,12.255c10.51-1.347,4.825-21.384,4.825-21.384" transform="translate(-134.558 -64.613)" fill="#ffa189"/>
        <path id="Trazado_1264269" data-name="Trazado 1264269" d="M416.457,202.483c-5.831-2.571-14.853-13.575-14.855-13.578a9.452,9.452,0,0,0-2.042,4.335c4.435,2.956,11.354,7.247,16.9,9.244Z" transform="translate(-136.666 -64.613)" fill="#f8756a"/>
        <path id="Trazado_1264270" data-name="Trazado 1264270" d="M425.013,231.2a31.509,31.509,0,0,0,4.7-6.507s.953,6.292-.345,9.513Z" transform="translate(-145.372 -76.852)" fill="#f8756a"/>
        <line id="Línea_3598" data-name="Línea 3598" y1="4.77" x2="3.117" transform="translate(284.674 135.485)" fill="none" stroke="#f8756a" stroke-linecap="round" stroke-linejoin="round" stroke-width="1.5"/>
        <path id="Trazado_1264271" data-name="Trazado 1264271" d="M405.9,219.818l5.374-2.193a3.047,3.047,0,0,1-2,3.81c-2.3.735-3.372-1.617-3.372-1.617" transform="translate(-138.834 -74.436)" fill="#fcfbff"/>
        <path id="Trazado_1264272" data-name="Trazado 1264272" d="M405.4,205.128c0,.7-.405,1.274-.9,1.274s-.9-.57-.9-1.274.405-1.274.9-1.274.9.57.9,1.274" transform="translate(-138.043 -69.726)" fill="#00184c"/>
        <path id="Trazado_1264273" data-name="Trazado 1264273" d="M402.649,198.571a4.122,4.122,0,0,1,4.482,1.727" transform="translate(-137.722 -67.876)" fill="none" stroke="#00184c" stroke-linecap="round" stroke-linejoin="round" stroke-width="3"/>
        <path id="Trazado_1264274" data-name="Trazado 1264274" d="M443.273,301.291l.329,9.211-28.128,35.365-19.3,7.735a7.153,7.153,0,0,0-3.486,2.981l-9.289,15.6a5.4,5.4,0,0,0,5.922-.822l-1.151,2.385s4.359,1.069,6.5-1.234l-.987,1.892a9.1,9.1,0,0,0,5.437.244s4.021,0,5.584-1.56a76.145,76.145,0,0,0,6.415-8.224s6.333.576,9.047-3.372l2.714-3.948,35.468-23.292a20.712,20.712,0,0,0,9.3-15.942l1.128-17.021Z" transform="translate(-131.138 -103.054)" fill="#ffa189"/>
        <line id="Línea_3599" data-name="Línea 3599" y1="11.926" x2="6.909" transform="translate(258.183 256.385)" fill="none" stroke="#f8756a" stroke-linecap="round" stroke-linejoin="round" stroke-width="1.5"/>
        <line id="Línea_3600" data-name="Línea 3600" y1="11.597" x2="6.168" transform="translate(263.529 257.865)" fill="none" stroke="#f8756a" stroke-linecap="round" stroke-linejoin="round" stroke-width="1.5"/>
        <line id="Línea_3601" data-name="Línea 3601" y1="11.512" x2="5.995" transform="translate(267.979 260.086)" fill="none" stroke="#f8756a" stroke-linecap="round" stroke-linejoin="round" stroke-width="1.5"/>
        <path id="Trazado_1264275" data-name="Trazado 1264275" d="M474.4,301.291h25.5L499.583,306Z" transform="translate(-162.264 -103.054)" fill="#f8756a"/>
        <rect id="Rectángulo_457520" data-name="Rectángulo 457520" width="61.355" height="5.209" transform="translate(222.982 269.462)" fill="#1574dd"/>
        <path id="Trazado_1264276" data-name="Trazado 1264276" d="M342.844,390.665H277.392l-13.159-51.54h65.453Z" transform="translate(-90.378 -115.994)" fill="#b5e1ff"/>
        <path id="Trazado_1264277" data-name="Trazado 1264277" d="M361.316,339.125h-4.606l13.159,51.54h4.606Z" transform="translate(-122.009 -115.994)" fill="#1574dd"/>
        <path id="Trazado_1264278" data-name="Trazado 1264278" d="M317.386,373.465c.682,2.732-.48,5.376-2.6,5.9s-4.383-1.259-5.066-3.991.48-5.376,2.6-5.9,4.383,1.259,5.066,3.991" transform="translate(-105.872 -126.343)" fill="#fcfbff"/>
        <line id="Línea_3602" data-name="Línea 3602" x1="1.48" y1="30.595" transform="translate(310.655 167.642)" fill="none" stroke="#056154" stroke-linecap="round" stroke-linejoin="round" stroke-width="1.5"/>
        <line id="Línea_3603" data-name="Línea 3603" y1="18.195" transform="translate(337.632 180.043)" fill="none" stroke="#056154" stroke-linecap="round" stroke-linejoin="round" stroke-width="1.5"/>
        <line id="Línea_3604" data-name="Línea 3604" x2="372.844" transform="translate(5.197 274.671)" fill="none" stroke="#b5e1ff" stroke-linecap="round" stroke-linejoin="round" stroke-width="3"/>
      </g>
    </g>
  </g>
</svg>
