<svg xmlns="http://www.w3.org/2000/svg" xmlns:xlink="http://www.w3.org/1999/xlink" width="160.5" height="160.501" viewBox="0 0 160.5 160.501">
  <defs>
    <clipPath id="clip-path">
      <rect id="Rectángulo_455261" data-name="Rectángulo 455261" width="38.951" height="37.623" fill="#e6fffa"/>
    </clipPath>
    <clipPath id="clip-path-2">
      <rect id="Rectángulo_457528" data-name="Rectángulo 457528" width="86.684" height="86.372" fill="#5d0b80"/>
    </clipPath>
  </defs>
  <g id="Grupo_1205955" data-name="Grupo 1205955" transform="translate(-307.436 -10011.92)">
    <path id="Sustracción_130" data-name="Sustracción 130" d="M26.051,25.795H0V11.245H11.352V0h14.7V25.795Z" transform="translate(441.641 10038.471) rotate(-90)" fill="#e3a4fe" stroke="rgba(0,0,0,0)" stroke-miterlimit="10" stroke-width="1"/>
    <g id="Grupo_1178100" data-name="Grupo 1178100" transform="translate(307.436 10172.421) rotate(-90)">
      <path id="Trazado_998183" data-name="Trazado 998183" d="M0,0V37.623H25.58V24.056H38.951V0Z" transform="translate(0 0)" fill="#5d0b80"/>
      <g id="Grupo_1178099" data-name="Grupo 1178099" transform="translate(0 0)">
        <g id="Grupo_1178098" data-name="Grupo 1178098" clip-path="url(#clip-path)">
          <path id="Trazado_998184" data-name="Trazado 998184" d="M0,9.021a9.025,9.025,0,1,1,9.025,9.021A9.023,9.023,0,0,1,0,9.021" transform="translate(4.434 5.629)" fill="#e3a4fe"/>
        </g>
      </g>
    </g>
    <g id="Grupo_1177470" data-name="Grupo 1177470" transform="translate(308.059 10012.421)">
      <circle id="Elipse_13609" data-name="Elipse 13609" cx="79.688" cy="79.688" r="79.688" fill="#f0d5fe"/>
      <g id="Grupo_1099776" data-name="Grupo 1099776" transform="translate(33.723 33.96)">
        <g id="Grupo_1099618" data-name="Grupo 1099618" transform="translate(0.395 0.273)">
          <rect id="Rectángulo_401104" data-name="Rectángulo 401104" width="90.569" height="91.661" transform="translate(0)" fill="none"/>
        </g>
        <g id="Grupo_1206668" data-name="Grupo 1206668" transform="translate(2.395 2.273)">
          <g id="Grupo_1206667" data-name="Grupo 1206667" clip-path="url(#clip-path-2)">
            <path id="Trazado_1264289" data-name="Trazado 1264289" d="M69.557,41.779H82.931a5.954,5.954,0,0,1,2.678,1.908,7.012,7.012,0,0,1,.771,2.8c.964,11.3-.738,23.968-.012,35.416-.31,3.09-2.209,4.41-5.208,4.473l-76.19,0C1.64,86.108.249,84.744,0,81.4L.125,17.819,17.069.628,18.286.061,65.1,0c1.657-.1,4.46,1.7,4.46,3.437Zm-2.8,0V3.695A4.309,4.309,0,0,0,65.608,2.8H19.626V18.47a2.488,2.488,0,0,1-1.146,1.146H2.813v62.54a3.171,3.171,0,0,0,1.4,1.4H50.2V44.709c0-.786,2.4-2.93,3.184-2.93ZM16.824,16.814V5.1L4.851,16.814ZM53.313,44.9l-.079,38.043a2.229,2.229,0,0,0,1.662.63c8.418.766,17.977-.607,26.518,0A2,2,0,0,0,83.58,81.4c-.791-11.243,1.011-23.842,0-34.924-.121-1.33-.492-1.9-1.911-1.911-8.764.559-18.362-.7-27.026,0a2.47,2.47,0,0,0-1.33.326" transform="translate(0 0.001)" fill="#5d0b80"/>
            <path id="Trazado_1264290" data-name="Trazado 1264290" d="M52.949,109.914c14.11-1.605,24.115,12.442,17,24.9-6.165,10.8-22.175,10.954-28.613.327-5.975-9.863-.059-23.9,11.611-25.226m-7.241,6.642c-13.025,13.024,7.1,32.776,19.882,19.5,12.6-13.082-7.061-32.32-19.882-19.5" transform="translate(-29.049 -81.82)" fill="#5d0b80"/>
            <path id="Trazado_1264291" data-name="Trazado 1264291" d="M135.89,33.945a5.665,5.665,0,0,1-3.37,9.568c-7.1.927-16.09-.63-23.393,0a5.618,5.618,0,0,1,.007-11.159c7.405.49,15.871-.755,23.151-.025a6.306,6.306,0,0,1,3.606,1.616m-26.727,1.241a2.808,2.808,0,0,0,.213,5.53h22.895a2.808,2.808,0,0,0,0-5.572Z" transform="translate(-77.633 -23.917)" fill="#5d0b80"/>
            <path id="Trazado_1264292" data-name="Trazado 1264292" d="M43.126,267.753c9.007-1.83,9.306,12.353.212,10.881-5.479-.887-5.627-9.781-.212-10.881m.5,2.8c-2.276.523-2.34,4.518-.194,5.18,4.937,1.524,5.273-6.347.194-5.18" transform="translate(-29.174 -199.422)" fill="#5d0b80"/>
            <path id="Trazado_1264293" data-name="Trazado 1264293" d="M105,294.581c3.54.281,8.251-.571,11.649-.038a1.385,1.385,0,0,1,0,2.77,75.5,75.5,0,0,1-11.177,0c-1.579-.248-1.972-2.028-.472-2.732" transform="translate(-77.551 -219.375)" fill="#5d0b80"/>
            <path id="Trazado_1264294" data-name="Trazado 1264294" d="M104.168,268.137c.788-.785,10.725-.063,12.542-.31a1.474,1.474,0,0,1,1.1,1.356,1.967,1.967,0,0,1-1.617,1.426,70.932,70.932,0,0,1-10.689.02c-1.325-.157-2.285-1.545-1.334-2.492" transform="translate(-77.346 -199.549)" fill="#5d0b80"/>
            <path id="Trazado_1264295" data-name="Trazado 1264295" d="M224.488,215.747c-.687-.682.09-2.573.492-3.333a6.068,6.068,0,0,1,7.734-2.984c3.59,1.471,5.331,6.645,9.42,1.8,1.049-1.245,1.606-3.84,3.511-3.266,2.174.655-1.135,4.948-1.987,5.808-3.216,3.248-5.576,2.892-9.122.464-1.859-1.273-2.958-3.286-5.526-2.119-1.615.734-1.7,2.475-2.54,3.826a2.287,2.287,0,0,1-1.981-.193" transform="translate(-167.097 -154.922)" fill="#5d0b80"/>
            <path id="Trazado_1264296" data-name="Trazado 1264296" d="M245.64,268.005c1.1.309,1.114,2.6-1.262,2.814-5.977.541-12.781-.415-18.847-.028-1.983-.313-1.556-2.786-.526-2.786Z" transform="translate(-167.039 -199.731)" fill="#5d0b80"/>
            <path id="Trazado_1264297" data-name="Trazado 1264297" d="M245.88,294.827a1.54,1.54,0,0,1-1.072,2.5c-6.041-.543-13.224.681-19.124-.008-2.126-.248-2.193-2.572-.263-2.82,6.2.416,13.008-.508,19.13,0,.4.033,1.048.044,1.329.326" transform="translate(-166.958 -219.36)" fill="#5d0b80"/>
            <path id="Trazado_1264298" data-name="Trazado 1264298" d="M87.7,154.1c1.336-.207,1.936,1.153,1.31,2.348a102.54,102.54,0,0,1-7.348,7.426c-.463.362-1.209.946-1.8.784a53.562,53.562,0,0,1-5.815-5.687,1.455,1.455,0,0,1,1.751-1.753c1.047.325,3.792,4.066,4.418,3.956,1.48-.95,6.21-6.878,7.48-7.075" transform="translate(-55.153 -114.828)" fill="#5d0b80"/>
          </g>
        </g>
      </g>
    </g>
  </g>
</svg>
