<svg xmlns="http://www.w3.org/2000/svg" xmlns:xlink="http://www.w3.org/1999/xlink" width="96" height="96" viewBox="0 0 96 96">
  <defs>
    <clipPath id="clip-path">
      <rect id="Rect치ngulo_457612" data-name="Rect치ngulo 457612" width="54" height="54" transform="translate(0 0.416)" fill="#fff"/>
    </clipPath>
  </defs>
  <g id="Grupo_1205912" data-name="Grupo 1205912" transform="translate(-383.746 -8400.001)">
    <path id="Trazado_997400" data-name="Trazado 997400" d="M48,0A48,48,0,1,1,0,48,48,48,0,0,1,48,0Z" transform="translate(383.746 8400.001)" fill="#5d0b80"/>
    <g id="Grupo_1099776" data-name="Grupo 1099776" transform="translate(401.746 8418)">
      <g id="Grupo_1099618" data-name="Grupo 1099618" transform="translate(-0.035 0)">
        <rect id="Rect치ngulo_401104" data-name="Rect치ngulo 401104" width="59.378" height="60.093" transform="translate(0)" fill="none"/>
      </g>
      <g id="Grupo_1206749" data-name="Grupo 1206749" transform="translate(2.965 2.584)">
        <g id="Grupo_1206748" data-name="Grupo 1206748" clip-path="url(#clip-path)">
          <path id="Trazado_1264569" data-name="Trazado 1264569" d="M47.647,35.258c-.745-.209-1.009-1.841.164-2.008a36.352,36.352,0,0,1,5.739,0,.937.937,0,0,1,.863.862L52.239,49.343c.228,2.638-.14,4.834-3.186,5.061l-47.788,0A1.154,1.154,0,0,1,.1,53.394c.266-4.414-.326-9.182,0-13.552a7.4,7.4,0,0,1,5.453-6.684c1.427-.447,3.283-.588,4.621-1.137a26.063,26.063,0,0,0,2.931-1.893,2.043,2.043,0,0,0,.148-1.715c-.083-.184-1.808-1.571-2.179-2.023a9.063,9.063,0,0,1-1.942-6.071c-2.827.364-5.613-1.655-4.587-4.663.176-.517.788-1.17.848-1.486.3-1.56-.14-4.18,0-5.916.216-2.732,2.29-5.51,5.1-5.948,1.083-.169,2.95.193,3.822-.069.3-.09,1.465-1.216,2.073-1.506,1.772-.843,8.117-.941,9.987-.377,6.455,1.947,3.9,8.994,4.537,13.669.09.656.77,1.118.9,1.9.526,3.081-1.781,4.633-4.632,4.4a8.986,8.986,0,0,1-4.168,7.968l-.035,1.726a21.212,21.212,0,0,0,3.391,2.09,21.387,21.387,0,0,0,5.864,1.125c2.179.031,4.359-.013,6.538.011a1.035,1.035,0,0,1,0,2.015c-.952.178-5.274-.21-5.654.026L31.23,48.018H50.37l1.712-12.76c-1.153-.208-3.434.28-4.435,0M28.74,13.317V5.77c0-1.327-1.827-3.149-3.11-3.425a42.4,42.4,0,0,0-7.083-.076c-1.822.206-2.423,1.778-3.144,1.991-1.631.484-3.632-.481-5.656.568-.732.379-2.17,2.012-2.17,2.809v5.68h7.7c.971,0,3.344-1.433,4.127-2.1S19.78,10.2,21.194,10.2a6.332,6.332,0,0,1,4.068,1.775c.2.195.98,1.346,1.066,1.346ZM11.312,15.5v6.613c0,2.465,3.537,5.234,5.852,5.507,7.238.856,8.4-6,7.84-11.574a4.292,4.292,0,0,0-2.983-3.552c-1.153-.3-.962.215-1.7.736C19,14.163,16.6,15.5,14.969,15.5Zm-2.179,0c-3.67-.665-3.471,3.214,0,2.645Zm18.051,2.645c3.673.51,3.428-3.29-.155-2.644-.059.168.155.34.155.388ZM18.311,34.634c.225-.943,3.013-4.557,2.491-5.29a9.633,9.633,0,0,1-5.288.156l.12,1.046,2.3,3.927ZM14.27,37.592,16.6,36.415c-.369-.557-2.243-4.2-2.586-4.257l-1.9,1.308Zm7.786-5.44-2.329,4.257,2.091,1.145a23.025,23.025,0,0,0,2.255-4.093c-.007-.3-1.8-1.464-2.017-1.309M2.287,39.226V52.219H5.866V44.828c0-1.306,2.179-1.223,2.179-.311v7.7h4.9l2.394-9.59c.152-1-.47-1.888-.607-2.858-.068-.055-.91.755-1.624-.009l-2.748-5.187a.43.43,0,0,0-.377-.258,32.314,32.314,0,0,0-4.154.985,5.718,5.718,0,0,0-3.545,3.924M30.915,35.42,26.2,34.34c-.2.063-.473.6-.6.814-.692,1.154-1.528,3.469-2.306,4.385-.668.787-.823.394-1.5.394-.479,0-.84,1.906-.941,2.379L22.225,48l6.914-.125ZM19.546,38.695c-1.263-.6-1.68-.734-2.877.136l.7,2.269,1.54.049ZM15.2,52.219h3.112a3.667,3.667,0,0,1,1.68-3.765.528.528,0,0,0,.039-.344,41.606,41.606,0,0,0-1.172-4.763c-.253-.3-1-.1-1.386-.162ZM28.9,50.2h-7.7c-.718,0-.791,1.518-.7,2.023h8.4Zm21.318,0H31.074v2.023h18.44c.608,0,.815-1.54.7-2.023" transform="translate(0 0)" fill="#fff"/>
          <path id="Trazado_1264570" data-name="Trazado 1264570" d="M236.445,28.479a9.663,9.663,0,0,1-1.32,14.832c-.083,1.9.544,5.381-2.136,5.8a40.022,40.022,0,0,1-6.065.016c-3.181-.3-2.267-3.655-2.44-5.886a9.474,9.474,0,0,1-3.212-12.226,9.612,9.612,0,0,1,15.173-2.535m-3.836,13.171c1.234.275,2.234-.748,2.953-1.636a7.427,7.427,0,1,0-11.953-.489c.632.981,1.969,2.387,3.243,2.126-.27-2.587-1.134-5.107-1.242-7.7.994-1.874,2.9.684,4.145,1.138,1.247-.493,3.833-3.414,4.259-.683Zm-1.247-4.978c-.7.4-1.143.975-2.029.707-.278-.084-1.067-.847-1.238-.705l.942,4.969,1.477-.141Zm1.558,7.158h-6.38v2.723a1.049,1.049,0,0,0,.262.4,31.169,31.169,0,0,0,5.265.147,1.174,1.174,0,0,0,.853-.392Z" transform="translate(-185.974 -21.799)" fill="#fff"/>
          <path id="Trazado_1264571" data-name="Trazado 1264571" d="M250.063,247.529a3.177,3.177,0,1,1-1.894,4.933,3.188,3.188,0,0,1,1.894-4.933m-.071,2.34c-1.144,1.144,1.042,2.737,1.745,1.2a1.086,1.086,0,0,0-1.745-1.2" transform="translate(-209.071 -208.967)" fill="#fff"/>
          <path id="Trazado_1264572" data-name="Trazado 1264572" d="M272.138,213.4a1.061,1.061,0,1,1,0,1.956,1.1,1.1,0,0,1,0-1.956" transform="translate(-229.283 -180.131)" fill="#fff"/>
        </g>
      </g>
    </g>
  </g>
</svg>
