<svg xmlns="http://www.w3.org/2000/svg" xmlns:xlink="http://www.w3.org/1999/xlink" width="1020" height="227" viewBox="0 0 1020 227">
  <defs>
    <clipPath id="clip-path">
      <rect id="Rectángulo_33824" data-name="Rectángulo 33824" width="1020" height="227" transform="translate(180 4246.831)" fill="#e6fffa"/>
    </clipPath>
    <clipPath id="clip-path-2">
      <rect id="Rectángulo_457467" data-name="Rectángulo 457467" width="716.56" height="456.071" fill="none"/>
    </clipPath>
    <clipPath id="clip-path-4">
      <rect id="Rectángulo_457461" data-name="Rectángulo 457461" width="126.341" height="126.342" fill="none"/>
    </clipPath>
    <clipPath id="clip-path-5">
      <rect id="Rectángulo_457462" data-name="Rectángulo 457462" width="33.003" height="33.003" fill="none"/>
    </clipPath>
    <clipPath id="clip-path-6">
      <rect id="Rectángulo_457463" data-name="Rectángulo 457463" width="6.151" height="11.075" fill="none"/>
    </clipPath>
  </defs>
  <g id="Enmascarar_grupo_54" data-name="Enmascarar grupo 54" transform="translate(-180 -4246.831)" clip-path="url(#clip-path)">
    <g id="Trazado_1264135" data-name="Trazado 1264135" transform="translate(160 4240.831)" fill="#fbf1ff">
      <path d="M 1063.5 242.5 L 0.5 242.5 L 0.5 0.5 L 1063.5 0.5 L 1063.5 242.5 Z" stroke="none"/>
      <path d="M 1 1 L 1 242 L 1063 242 L 1063 1 L 1 1 M 0 0 L 1064 0 L 1064 243 L 0 243 L 0 0 Z" stroke="none" fill="#707070"/>
    </g>
    <g id="Grupo_1206637" data-name="Grupo 1206637" transform="translate(332.009 4212.831)">
      <g id="Grupo_1206636" data-name="Grupo 1206636" clip-path="url(#clip-path-2)">
        <rect id="Rectángulo_457455" data-name="Rectángulo 457455" width="19.441" height="93.738" transform="translate(79.17 312.605)" fill="#397afa"/>
        <rect id="Rectángulo_457456" data-name="Rectángulo 457456" width="19.441" height="132.124" transform="translate(229.294 274.219)" fill="#397afa"/>
        <rect id="Rectángulo_457457" data-name="Rectángulo 457457" width="19.44" height="123.844" transform="translate(155.853 282.499)" fill="#397afa"/>
        <path id="Trazado_1264027" data-name="Trazado 1264027" d="M93.458,215.973V355.731h21.2V215.973Zm1.76,1.394H112.9V354.594H95.218Z" transform="translate(21.902 50.613)" fill="#fff"/>
        <path id="Trazado_1264028" data-name="Trazado 1264028" d="M155.882,186.154V362.719h21.2V186.154Zm1.759,1.759h17.682V361.281H157.641Z" transform="translate(36.531 43.625)" fill="#fff"/>
        <rect id="Rectángulo_457458" data-name="Rectángulo 457458" width="28.991" height="206.156" transform="translate(358.425 68.672)" fill="#056154"/>
        <rect id="Rectángulo_457459" data-name="Rectángulo 457459" width="28.991" height="197.029" transform="translate(582.298 77.799)" fill="#96fef0"/>
        <rect id="Rectángulo_457460" data-name="Rectángulo 457460" width="28.99" height="184.681" transform="translate(472.778 90.147)" fill="#37dbc5"/>
        <path id="Trazado_1264029" data-name="Trazado 1264029" d="M334.1,9.339v263.3h31.615V9.339Zm2.623,2.623h26.369V270.5H336.722Z" transform="translate(78.296 2.189)" fill="#fff"/>
        <path id="Trazado_1264030" data-name="Trazado 1264030" d="M427.187,9.339v263.3H458.8V9.339Zm2.624,2.623h26.368V270.5H429.811Z" transform="translate(100.111 2.189)" fill="#fff"/>
        <path id="Trazado_1264031" data-name="Trazado 1264031" d="M508.356,143.094v95.89h31.617v-95.89Zm2.624,2.623h26.368v90.6H510.98Z" transform="translate(119.133 33.534)" fill="#fff"/>
        <g id="Grupo_1206635" data-name="Grupo 1206635">
          <g id="Grupo_1206634" data-name="Grupo 1206634" clip-path="url(#clip-path-2)">
            <path id="Trazado_1264032" data-name="Trazado 1264032" d="M537.728,98.351a2.942,2.942,0,1,1-2.943-2.943,2.943,2.943,0,0,1,2.943,2.943" transform="translate(124.637 22.359)" fill="#37dbc5"/>
            <path id="Trazado_1264033" data-name="Trazado 1264033" d="M563.251,18.614a2.942,2.942,0,1,1-2.943-2.943,2.943,2.943,0,0,1,2.943,2.943" transform="translate(130.619 3.672)" fill="#397afa"/>
            <path id="Trazado_1264034" data-name="Trazado 1264034" d="M503.567,38.469a4.965,4.965,0,1,1,4.965-4.965,4.97,4.97,0,0,1-4.965,4.965m0-8.695a3.73,3.73,0,1,0,3.73,3.73,3.734,3.734,0,0,0-3.73-3.73" transform="translate(116.847 6.688)" fill="#fff"/>
            <path id="Trazado_1264035" data-name="Trazado 1264035" d="M577.437,75.435a4.965,4.965,0,1,1,4.963-4.965,4.97,4.97,0,0,1-4.963,4.965m0-8.695a3.73,3.73,0,1,0,3.729,3.73,3.733,3.733,0,0,0-3.729-3.73" transform="translate(134.159 15.351)" fill="#fff"/>
            <path id="Trazado_1264036" data-name="Trazado 1264036" d="M39.126,304.064a2.942,2.942,0,1,1-2.943-2.943,2.943,2.943,0,0,1,2.943,2.943" transform="translate(7.79 70.568)" fill="#397afa"/>
            <path id="Trazado_1264037" data-name="Trazado 1264037" d="M64.648,224.328a2.942,2.942,0,1,1-2.943-2.943,2.943,2.943,0,0,1,2.943,2.943" transform="translate(13.771 51.881)" fill="#397afa"/>
            <path id="Trazado_1264038" data-name="Trazado 1264038" d="M4.964,244.182a4.965,4.965,0,1,1,4.963-4.965,4.969,4.969,0,0,1-4.963,4.965m0-8.695a3.73,3.73,0,1,0,3.729,3.73,3.732,3.732,0,0,0-3.729-3.73" transform="translate(0 54.897)" fill="#fff"/>
            <path id="Trazado_1264039" data-name="Trazado 1264039" d="M9.195,171.753a4.347,4.347,0,1,1-4.347-4.347,4.348,4.348,0,0,1,4.347,4.347" transform="translate(0.117 39.231)" fill="#fff"/>
            <path id="Trazado_1264040" data-name="Trazado 1264040" d="M530.812,251.467h0c6.045-5.293,6.557-15.036-2.36-25.219L425.336,108.485c-8.918-10.183-21.046-14.148-27.092-8.855s-3.715,17.839,5.2,28.023L506.562,245.415c8.917,10.183,18.205,11.345,24.25,6.052" transform="translate(92.541 22.798)" fill="#576184"/>
            <path id="Trazado_1264041" data-name="Trazado 1264041" d="M522.828,255.3a14.711,14.711,0,0,1-3.082-.337c-4.539-.978-9.219-4.1-13.535-9.028L403.093,128.171c-9.126-10.424-11.433-23.386-5.144-28.894s18.836-1.508,27.962,8.912L529.028,225.954c4.288,4.9,6.689,10.02,6.943,14.817a13.688,13.688,0,0,1-4.641,11.271,12.655,12.655,0,0,1-8.5,3.255M405.224,98a9.562,9.562,0,0,0-6.461,2.2c-5.778,5.06-3.419,17.24,5.258,27.152L507.138,245.12c4.14,4.728,8.589,7.712,12.868,8.633a11.666,11.666,0,0,0,10.512-2.639,12.478,12.478,0,0,0,4.22-10.278c-.239-4.516-2.534-9.381-6.638-14.069L424.983,109c-6.112-6.981-13.757-11-19.759-11" transform="translate(92.429 22.686)" fill="#353148"/>
            <path id="Trazado_1264042" data-name="Trazado 1264042" d="M410.4,133.017l20.426-17.886a6.632,6.632,0,0,0,.621-9.359l-7.532-8.6a6.633,6.633,0,0,0-9.361-.62l-20.424,17.882a6.633,6.633,0,0,0-.621,9.359l7.53,8.6a6.635,6.635,0,0,0,9.361.621" transform="translate(91.834 22.242)" fill="#96fef0"/>
            <path id="Trazado_1264043" data-name="Trazado 1264043" d="M406.16,135.394c-.163,0-.327,0-.491-.016a7.2,7.2,0,0,1-4.974-2.459l-7.531-8.6a7.26,7.26,0,0,1,.68-10.23l20.422-17.882a7.251,7.251,0,0,1,10.232.678l7.532,8.6a7.25,7.25,0,0,1-.678,10.23L410.926,133.6a7.194,7.194,0,0,1-4.766,1.8m12.874-39.751a5.978,5.978,0,0,0-3.956,1.491l-20.422,17.882a6.025,6.025,0,0,0-.564,8.489l7.531,8.6a6.018,6.018,0,0,0,8.491.564l20.426-17.886a6.018,6.018,0,0,0,.562-8.489l-7.532-8.6a5.978,5.978,0,0,0-4.128-2.039c-.137-.01-.272-.015-.407-.015m-8.515,37.491h0Z" transform="translate(91.718 22.125)" fill="#121936"/>
            <line id="Línea_3578" data-name="Línea 3578" x2="13.266" y2="15.316" transform="translate(507.162 123.102)" fill="#708cf5"/>
            <path id="Trazado_1264044" data-name="Trazado 1264044" d="M424.258,115.78a.617.617,0,0,1-.467-.214l-13.267-15.316a.617.617,0,1,1,.933-.807l13.267,15.316a.617.617,0,0,1-.467,1.021" transform="translate(96.171 23.255)" fill="#121936"/>
            <line id="Línea_3579" data-name="Línea 3579" x2="6.633" y2="7.658" transform="translate(508.401 136.47)" fill="#708cf5"/>
            <path id="Trazado_1264045" data-name="Trazado 1264045" d="M418.629,118.952a.617.617,0,0,1-.467-.214l-6.633-7.658a.617.617,0,0,1,.933-.807l6.633,7.658a.617.617,0,0,1-.467,1.021" transform="translate(96.406 25.792)" fill="#121936"/>
            <path id="Trazado_1264046" data-name="Trazado 1264046" d="M322.015,127.095a76.62,76.62,0,1,0,7.169-108.118,76.619,76.619,0,0,0-7.169,108.118m17.972-96.478a60.783,60.783,0,1,1-5.687,85.771,60.783,60.783,0,0,1,5.687-85.771" transform="translate(71.017 0)" fill="#121936"/>
            <g id="Grupo_1206627" data-name="Grupo 1206627" transform="translate(388.077 12.795)" opacity="0.47">
              <g id="Grupo_1206626" data-name="Grupo 1206626">
                <g id="Grupo_1206625" data-name="Grupo 1206625" clip-path="url(#clip-path-4)">
                  <path id="Trazado_1264047" data-name="Trazado 1264047" d="M330.042,115.152a63.17,63.17,0,1,0,5.911-89.141,63.171,63.171,0,0,0-5.911,89.141" transform="translate(-314.398 -10.366)" fill="#fff"/>
                </g>
              </g>
            </g>
            <g id="Grupo_1206630" data-name="Grupo 1206630" transform="translate(427.124 22.286)" opacity="0.69">
              <g id="Grupo_1206629" data-name="Grupo 1206629">
                <g id="Grupo_1206628" data-name="Grupo 1206628" clip-path="url(#clip-path-5)">
                  <path id="Trazado_1264048" data-name="Trazado 1264048" d="M350.119,45.428a16.5,16.5,0,1,0,1.544-23.286,16.5,16.5,0,0,0-1.544,23.286" transform="translate(-346.032 -18.055)" fill="#fff"/>
                </g>
              </g>
            </g>
            <path id="Trazado_1264049" data-name="Trazado 1264049" d="M503.779,189.758c-.181-.716-71.232-7.8-71.232-7.8l-23.5,82.579a93.425,93.425,0,0,0-3.427,20.479l-6.9,100.633a2.844,2.844,0,0,0,2.87,3.038l32.007-.4a3.374,3.374,0,0,0,3.313-3l8.615-77.78,10.835-26.59,3.423,104.693a3.233,3.233,0,0,0,3.276,3.125l33.8-.011a2.136,2.136,0,0,0,2.128-1.947q2.888-57.694,5.776-115.383c.881-17.6,3.18-35.149,2.974-52.8a121.284,121.284,0,0,0-3.963-28.834" transform="translate(93.44 42.642)" fill="#121936"/>
            <path id="Trazado_1264050" data-name="Trazado 1264050" d="M444.283,275.153a.617.617,0,0,1-.574-.844l15.911-40.285a.616.616,0,1,1,1.147.453l-15.909,40.287a.617.617,0,0,1-.574.39" transform="translate(103.973 54.751)" fill="#fff"/>
            <path id="Trazado_1264051" data-name="Trazado 1264051" d="M457.533,349.276l-1.558,1.342-22.007,19.892a2.13,2.13,0,0,0,1.458,3.709l49.286-.683a2.352,2.352,0,0,0,2.318-2.429l-.088-21.821Z" transform="translate(101.535 81.853)" fill="#397afa"/>
            <path id="Trazado_1264052" data-name="Trazado 1264052" d="M433.968,366.754l.765-.692a2.054,2.054,0,0,0,1.443.558l49.286-.681a2.334,2.334,0,0,0,1.561-.636l.006,2.049a2.352,2.352,0,0,1-2.318,2.429l-49.286.683a2.13,2.13,0,0,1-1.458-3.709" transform="translate(101.535 85.608)" fill="#121936"/>
            <path id="Trazado_1264053" data-name="Trazado 1264053" d="M439.744,367a.617.617,0,0,1,0-1.234l45.866-.4h0a.617.617,0,0,1,0,1.234l-45.866.4Z" transform="translate(102.909 85.623)" fill="#fff"/>
            <path id="Trazado_1264054" data-name="Trazado 1264054" d="M455.908,355.6a.618.618,0,0,1-.455-.2l-4.128-4.505a.617.617,0,1,1,.911-.833l4.128,4.5a.617.617,0,0,1-.038.871.61.61,0,0,1-.417.163" transform="translate(105.73 81.99)" fill="#fff"/>
            <path id="Trazado_1264055" data-name="Trazado 1264055" d="M453.163,358.19a.618.618,0,0,1-.456-.2l-4.126-4.505a.617.617,0,1,1,.911-.833l4.126,4.5a.617.617,0,0,1-.456,1.034" transform="translate(105.087 82.597)" fill="#fff"/>
            <path id="Trazado_1264056" data-name="Trazado 1264056" d="M450.582,360.735a.618.618,0,0,1-.456-.2l-4.126-4.5a.618.618,0,1,1,.911-.834l4.126,4.5a.617.617,0,0,1-.455,1.034" transform="translate(104.482 83.193)" fill="#fff"/>
            <path id="Trazado_1264057" data-name="Trazado 1264057" d="M455.242,352.012l-.388-.131c-1.649-.838-1.122-7.717-1.037-8.175a2.727,2.727,0,0,1,5.363.992c-.164.89-2.585,6.646-3.661,7.177Zm1.254-9.3a1.5,1.5,0,0,0-1.465,1.221,22.424,22.424,0,0,0,.22,6.469,30.978,30.978,0,0,0,2.717-5.924,1.5,1.5,0,0,0-1.471-1.766" transform="translate(106.317 80.025)" fill="#fff"/>
            <path id="Trazado_1264058" data-name="Trazado 1264058" d="M455.885,351.278c-2.113,0-6.533-1.638-6.761-1.773a2.727,2.727,0,1,1,2.764-4.7h0c.7.414,4.723,3.582,5.141,5.257a1.115,1.115,0,0,1-.1.879c-.147.242-.526.338-1.042.338m-5.377-5.617a1.524,1.524,0,0,0-.378.048,1.494,1.494,0,0,0-.38,2.734,27.453,27.453,0,0,0,6.043,1.637,20.851,20.851,0,0,0-4.531-4.213,1.491,1.491,0,0,0-.754-.206" transform="translate(104.937 80.716)" fill="#fff"/>
            <path id="Trazado_1264059" data-name="Trazado 1264059" d="M406.407,349.276l-1.558,1.342-22.007,19.892a2.13,2.13,0,0,0,1.458,3.709l49.286-.683a2.352,2.352,0,0,0,2.318-2.429l-.088-21.821Z" transform="translate(89.553 81.853)" fill="#397afa"/>
            <path id="Trazado_1264060" data-name="Trazado 1264060" d="M382.842,366.754l.765-.692a2.053,2.053,0,0,0,1.443.558l49.286-.681a2.332,2.332,0,0,0,1.561-.636l.006,2.049a2.352,2.352,0,0,1-2.318,2.429l-49.286.683a2.13,2.13,0,0,1-1.458-3.709" transform="translate(89.553 85.608)" fill="#121936"/>
            <path id="Trazado_1264061" data-name="Trazado 1264061" d="M388.618,367a.617.617,0,0,1,0-1.234l45.866-.4h0a.617.617,0,0,1,0,1.234l-45.866.4Z" transform="translate(90.928 85.623)" fill="#fff"/>
            <path id="Trazado_1264062" data-name="Trazado 1264062" d="M418.1,362.388a4.686,4.686,0,0,1-4.591-3.81h0a4.673,4.673,0,1,1,4.591,3.812m-3.378-4.041a3.45,3.45,0,1,0,2.748-4.034,3.43,3.43,0,0,0-2.748,4.034" transform="translate(96.885 82.73)" fill="#fff"/>
            <path id="Trazado_1264063" data-name="Trazado 1264063" d="M404.782,355.6a.618.618,0,0,1-.456-.2L400.2,350.9a.617.617,0,1,1,.911-.833l4.128,4.5a.617.617,0,0,1-.038.871.61.61,0,0,1-.417.163" transform="translate(93.748 81.99)" fill="#fff"/>
            <path id="Trazado_1264064" data-name="Trazado 1264064" d="M402.038,358.191a.618.618,0,0,1-.455-.2l-4.128-4.505a.617.617,0,1,1,.911-.833l4.128,4.5a.617.617,0,0,1-.456,1.034" transform="translate(93.105 82.597)" fill="#fff"/>
            <path id="Trazado_1264065" data-name="Trazado 1264065" d="M399.456,360.735a.618.618,0,0,1-.455-.2l-4.126-4.5a.618.618,0,0,1,.911-.834l4.126,4.5a.617.617,0,0,1-.455,1.034" transform="translate(92.501 83.193)" fill="#fff"/>
            <path id="Trazado_1264066" data-name="Trazado 1264066" d="M404.118,352.013l-.388-.131c-1.65-.838-1.123-7.717-1.038-8.175a2.727,2.727,0,0,1,5.363.992c-.164.89-2.585,6.646-3.66,7.177Zm1.255-9.3a1.5,1.5,0,0,0-1.468,1.22,22.425,22.425,0,0,0,.221,6.469,31.041,31.041,0,0,0,2.716-5.924,1.491,1.491,0,0,0-1.469-1.765" transform="translate(94.336 80.024)" fill="#fff"/>
            <path id="Trazado_1264067" data-name="Trazado 1264067" d="M404.759,351.279c-2.113,0-6.532-1.639-6.761-1.774a2.727,2.727,0,1,1,2.764-4.7c.7.414,4.724,3.581,5.142,5.257a1.114,1.114,0,0,1-.1.88c-.148.241-.527.338-1.042.338m-5.376-5.618a1.493,1.493,0,0,0-.758,2.781,27.375,27.375,0,0,0,6.042,1.638,20.732,20.732,0,0,0-4.53-4.214h0a1.487,1.487,0,0,0-.753-.2" transform="translate(92.955 80.716)" fill="#fff"/>
            <path id="Trazado_1264068" data-name="Trazado 1264068" d="M370.209,107.516c-1.99-1.152-4.262-1.763-5.537.8-1.484,2.147.138,3.808,2.063,5.131-1.318-.638-2.656-.794-3.591.679-1.974,2.437-.128,4.731,2.011,6.125-2.408-.707-3.07,3.465-.865,5.9l11.278,13.825c2.363,3.049,10.143,4.3,12.61,4.756a2.236,2.236,0,0,0,1.507-.237c5.2-2.918,7.279-13.058,5.5-21.595,0,0-3.943-12.772-6.082-16.8a4.3,4.3,0,0,0-.834-1.2,1.58,1.58,0,0,0-1.342-.446,2.1,2.1,0,0,0-1.306,1.3,16.551,16.551,0,0,0-1.194,5.774c-1.2-1.236-2.482-2.566-3.862-4.039-3.133-2.895-7.712-8.3-11.26-3.986-1.1,1.6-.309,2.96.9,4.017" transform="translate(84.906 23.877)" fill="#ffa386"/>
            <g id="Grupo_1206633" data-name="Grupo 1206633" transform="translate(469.333 131.822)" opacity="0.36">
              <g id="Grupo_1206632" data-name="Grupo 1206632">
                <g id="Grupo_1206631" data-name="Grupo 1206631" clip-path="url(#clip-path-6)">
                  <path id="Trazado_1264069" data-name="Trazado 1264069" d="M380.227,110.372l6.151,7.5s-4.45-9.822-5.684-11.075Z" transform="translate(-380.227 -106.795)" fill="#ff6a48"/>
                </g>
              </g>
            </g>
            <path id="Trazado_1264070" data-name="Trazado 1264070" d="M373.03,111.305a.616.616,0,0,1-.446-.19,59.349,59.349,0,0,0-4.615-4.488.617.617,0,0,1,.627-1.063,57.6,57.6,0,0,1,4.879,4.7.617.617,0,0,1-.446,1.044" transform="translate(86.162 24.719)" fill="#ff6a48"/>
            <path id="Trazado_1264071" data-name="Trazado 1264071" d="M369.394,115.486a.611.611,0,0,1-.438-.183l-3.7-3.736a.617.617,0,0,1,.876-.869l3.7,3.736a.617.617,0,0,1-.438,1.052" transform="translate(85.555 25.899)" fill="#ff6a48"/>
            <path id="Trazado_1264072" data-name="Trazado 1264072" d="M366.77,119.467a.617.617,0,0,1-.43-.173l-2.039-1.969a.618.618,0,0,1,.858-.889l2.04,1.969a.617.617,0,0,1,.014.873.609.609,0,0,1-.443.189" transform="translate(85.33 27.247)" fill="#ff6a48"/>
            <path id="Trazado_1264073" data-name="Trazado 1264073" d="M468.327,87.244a11.187,11.187,0,0,1-5.2-3.634l6.458.207a7.318,7.318,0,0,0,2.729-.432c.031-.011.063-.02.093-.031a7.317,7.317,0,0,0,1.041-.484q.072-.039.144-.081a7.529,7.529,0,0,0,.925-.636c.038-.031.074-.063.111-.1a7.372,7.372,0,0,0,.836-.807l0,0a7.694,7.694,0,0,0,.688-.929c.026-.042.055-.081.08-.123a7.418,7.418,0,0,0,.5-.994c.026-.062.052-.125.077-.189a7.358,7.358,0,0,0,.328-1.074c.012-.058.021-.116.032-.174a7.4,7.4,0,0,0,.146-1.2l.006-.172a7.2,7.2,0,0,0-.03-.883c-.007-.089-.021-.175-.031-.262-.026-.207-.058-.412-.1-.613-.019-.09-.038-.179-.06-.268-.053-.216-.117-.428-.189-.637-.02-.058-.037-.12-.059-.178a7.536,7.536,0,0,0-.349-.8l-.012-.022a7.572,7.572,0,0,0-.426-.715c-.031-.047-.064-.093-.1-.139q-.207-.294-.441-.569c-.032-.038-.064-.078-.1-.116a7.663,7.663,0,0,0-1.316-1.179,7.435,7.435,0,0,0-4.047-1.357l-9.485-.3a39.894,39.894,0,0,1,1.065-4.977,4.712,4.712,0,0,0-5.622-5.841c-10.169,2.4-14.127,2.521-16.487,2.118-.311-.053-.595-.115-.863-.181l-4.816,25.061c-1.845,8.478,3.669,12.672,11.929,14.774l.107,10.164c.073,6.963,5.06,12.59,11.081,12.505l.249,0c6.021-.086,11.8-4.138,11.731-11.1L468.312,95.6a5.759,5.759,0,0,1-.9.152Z" transform="translate(101.592 13.453)" fill="#ffa386"/>
            <path id="Trazado_1264074" data-name="Trazado 1264074" d="M464.213,75.922a.612.612,0,0,1-.336-.1l-3.056-1.981,3.088-3.454a.618.618,0,0,1,.921.823L462.7,73.589l1.847,1.2a.616.616,0,0,1-.334,1.134" transform="translate(107.993 16.447)" fill="#ff6a48"/>
            <path id="Trazado_1264075" data-name="Trazado 1264075" d="M439.189,69.459a1.589,1.589,0,1,0,1.643-1.534,1.591,1.591,0,0,0-1.643,1.534" transform="translate(102.924 15.918)" fill="#121936"/>
            <path id="Trazado_1264076" data-name="Trazado 1264076" d="M443,78.31a5.878,5.878,0,0,1-2.643-.738.617.617,0,0,1,.564-1.1,3.484,3.484,0,0,0,2.991.41,1.717,1.717,0,0,0,.78-.7.621.621,0,0,1,.826-.274.613.613,0,0,1,.284.816,2.961,2.961,0,0,1-1.695,1.411A3.485,3.485,0,0,1,443,78.31" transform="translate(103.118 17.774)" fill="#ff6a48"/>
            <path id="Trazado_1264077" data-name="Trazado 1264077" d="M449.056,67.383a3.779,3.779,0,0,1-1.585-.707c-.521-.332-1.054-.649-1.527-.908s-1.031-.536-1.591-.8a3.756,3.756,0,0,1-1.448-.952c-.3-.414-.173-1.05.674-1.459a4.546,4.546,0,0,1,3.947.383,4.446,4.446,0,0,1,2.423,3.1c.1.926-.378,1.374-.894,1.339" transform="translate(103.76 14.593)" fill="#121936"/>
            <path id="Trazado_1264078" data-name="Trazado 1264078" d="M442.3,71.538a.62.62,0,0,1-.409-.154,1.616,1.616,0,0,0-2.035-.068.618.618,0,0,1-.712-1.01,2.861,2.861,0,0,1,3.569.156.617.617,0,0,1-.412,1.076" transform="translate(102.851 16.346)" fill="#ff6a48"/>
            <path id="Trazado_1264079" data-name="Trazado 1264079" d="M443.447,92.591s10.016,1.436,12.008-2.24h0s.538,6.024-11.945,8.15Z" transform="translate(103.922 20.791)" fill="#ff6a48"/>
            <path id="Trazado_1264080" data-name="Trazado 1264080" d="M437.868,66.121,437,68.749a1.91,1.91,0,0,1-2.414,1.215.956.956,0,0,0-1.207.609,3.091,3.091,0,0,0,1.965,3.9l1.065.352" transform="translate(101.525 15.495)" fill="#ffa386"/>
            <path id="Trazado_1264081" data-name="Trazado 1264081" d="M436.526,75.563a.629.629,0,0,1-.194-.031l-1.065-.353A3.711,3.711,0,0,1,432.91,70.5a1.571,1.571,0,0,1,1.987-1,1.3,1.3,0,0,0,1.634-.823l.868-2.628a.611.611,0,0,1,.78-.393.617.617,0,0,1,.391.78L437.7,69.06a2.526,2.526,0,0,1-3.193,1.607.332.332,0,0,0-.259.02.336.336,0,0,0-.168.2,2.475,2.475,0,0,0,1.573,3.125l1.065.352a.617.617,0,0,1-.194,1.2" transform="translate(101.408 15.378)" fill="#ff6a48"/>
            <path id="Trazado_1264082" data-name="Trazado 1264082" d="M442.993,76.275a5.936,5.936,0,1,1,5.936-5.936,5.944,5.944,0,0,1-5.936,5.936m0-10.638a4.7,4.7,0,1,0,4.7,4.7,4.707,4.707,0,0,0-4.7-4.7" transform="translate(102.424 15.093)" fill="#fff"/>
            <path id="Trazado_1264083" data-name="Trazado 1264083" d="M446.291,69.238a.617.617,0,0,1-.093-1.227l15.423-2.384a.618.618,0,0,1,.188,1.221L446.386,69.23a.615.615,0,0,1-.1.007" transform="translate(104.444 15.378)" fill="#fff"/>
            <path id="Trazado_1264084" data-name="Trazado 1264084" d="M438.316,68.849a.62.62,0,0,1-.288-.072,3.892,3.892,0,0,0-2.135-.206.623.623,0,0,1-.721-.493.617.617,0,0,1,.491-.72,5.162,5.162,0,0,1,2.939.327.617.617,0,0,1-.286,1.163" transform="translate(101.98 15.766)" fill="#fff"/>
            <path id="Trazado_1264085" data-name="Trazado 1264085" d="M467.348,43.727,458.064,42.5a7.66,7.66,0,0,0-13.827.941c-.294.13-.58.278-.869.422a6.132,6.132,0,0,0-8.56,7.854,20.207,20.207,0,0,0-1.892,3.966,7.349,7.349,0,0,0,5.176,7.992c.237.07.481.141.743.2s.551.128.862.181c2.36.4,6.32.286,16.487-2.118a4.712,4.712,0,0,1,5.622,5.841,40.1,40.1,0,0,0-1.064,4.977l9.485.3a7.446,7.446,0,0,1,4.047,1.358,7.6,7.6,0,0,1,1.315,1.179l.1.115c.156.184.3.373.439.57.032.047.065.093.1.139a7.561,7.561,0,0,1,.425.715l.012.022a7.543,7.543,0,0,1,.351.8c.021.058.038.118.059.178.072.209.136.421.189.637q.031.133.059.267.063.3.1.615c.011.086.025.173.032.26a7.5,7.5,0,0,1,.028.884l0,.172a7.535,7.535,0,0,1-.146,1.2c-.011.058-.02.116-.032.173a7.478,7.478,0,0,1-.328,1.075c-.025.063-.051.126-.077.189a7.71,7.71,0,0,1-.5.992c-.026.043-.054.083-.081.123a7.48,7.48,0,0,1-.687.931l0,0a7.6,7.6,0,0,1-.837.807c-.037.032-.073.064-.11.1a7.682,7.682,0,0,1-.926.636l-.143.081a7.667,7.667,0,0,1-1.041.484c-.031.011-.062.02-.093.03a7.264,7.264,0,0,1-2.73.432l-6.458-.207a11.178,11.178,0,0,0,5.2,3.635l-.916,8.5a5.759,5.759,0,0,0,.9-.152,6.428,6.428,0,0,0,1.221-.4,6.185,6.185,0,0,0,3.127-3.164l1.989-4.584a11.182,11.182,0,0,0,7.755-14.493,7.649,7.649,0,0,0,3.415-6.043c8.822-14.926-10.17-26.487-18.623-27.6" transform="translate(101.439 9.039)" fill="#121936"/>
            <path id="Trazado_1264086" data-name="Trazado 1264086" d="M552.307,174.972s-32.515-59.408-34.412-61.875a32.166,32.166,0,0,0-25.051-12.557l-18.612-.26-21.226-.548c-3.3,0-12.9,1.735-15.363,3.928-7.694,6.858-12.977,18.9-15.989,28.179L415.365,151.2l-18.645-21.669a2.278,2.278,0,0,0-2.956-.432l-21.95,14.072a2.091,2.091,0,0,0-.552,3.006l30.3,40.9a19.978,19.978,0,0,0,31.391,2.875l-5.445,43.633h90.1l2.916-37.219,21.932-1.144a12.861,12.861,0,0,0,9.849-20.243" transform="translate(86.909 23.372)" fill="#056154"/>
            <path id="Trazado_1264087" data-name="Trazado 1264087" d="M410.916,147.789a.617.617,0,0,1-.491-.243l-5.752-7.555a.617.617,0,1,1,.981-.748l5.752,7.555a.616.616,0,0,1-.49.991" transform="translate(94.805 32.574)" fill="#121936"/>
            <path id="Trazado_1264088" data-name="Trazado 1264088" d="M491.92,192.3a.625.625,0,0,1-.068,0,.618.618,0,0,1-.547-.68l5.494-50.744a.625.625,0,0,1,.68-.547.616.616,0,0,1,.547.679l-5.494,50.745a.616.616,0,0,1-.612.551" transform="translate(115.136 32.886)" fill="#121936"/>
            <path id="Trazado_1264089" data-name="Trazado 1264089" d="M421.279,179.121a.617.617,0,0,1-.515-.957L440.1,148.878a.617.617,0,1,1,1.029.679l-19.335,29.286a.615.615,0,0,1-.515.278" transform="translate(98.582 34.824)" fill="#121936"/>
            <path id="Trazado_1264090" data-name="Trazado 1264090" d="M319.431,241.9H38.51a7.73,7.73,0,0,1-7.729-7.731V42.692a7.73,7.73,0,0,1,7.729-7.731H319.431a7.731,7.731,0,0,1,7.731,7.731V234.173a7.731,7.731,0,0,1-7.731,7.731" transform="translate(7.214 8.193)" fill="#fff"/>
            <path id="Trazado_1264091" data-name="Trazado 1264091" d="M319.431,34.961H38.51a7.73,7.73,0,0,0-7.729,7.731V65.58H327.162V42.692a7.731,7.731,0,0,0-7.731-7.731" transform="translate(7.214 8.193)" fill="#37dbc5"/>
            <path id="Trazado_1264092" data-name="Trazado 1264092" d="M327.278,66.315H30.9a.617.617,0,0,1-.617-.617V42.809a8.358,8.358,0,0,1,8.348-8.348H319.548a8.357,8.357,0,0,1,8.347,8.348V65.7a.617.617,0,0,1-.617.617M31.515,65.08H326.661V42.809a7.121,7.121,0,0,0-7.112-7.114H38.629a7.121,7.121,0,0,0-7.114,7.114Z" transform="translate(7.096 8.076)" fill="#353148"/>
            <path id="Trazado_1264093" data-name="Trazado 1264093" d="M230.548,52.553a4.823,4.823,0,1,1,4.823-4.823,4.829,4.829,0,0,1-4.823,4.823m0-8.412a3.589,3.589,0,1,0,3.588,3.589,3.593,3.593,0,0,0-3.588-3.589" transform="translate(52.898 10.055)" fill="#fff"/>
            <path id="Trazado_1264094" data-name="Trazado 1264094" d="M244.45,52.553a4.823,4.823,0,1,1,4.823-4.823,4.829,4.829,0,0,1-4.823,4.823m0-8.412a3.589,3.589,0,1,0,3.588,3.589,3.593,3.593,0,0,0-3.588-3.589" transform="translate(56.156 10.055)" fill="#fff"/>
            <path id="Trazado_1264095" data-name="Trazado 1264095" d="M258.771,52.553a4.823,4.823,0,1,1,4.824-4.823,4.829,4.829,0,0,1-4.824,4.823m0-8.412a3.589,3.589,0,1,0,3.589,3.589,3.594,3.594,0,0,0-3.589-3.589" transform="translate(59.512 10.055)" fill="#fff"/>
            <path id="Trazado_1264096" data-name="Trazado 1264096" d="M304.628,219.857H48.133a6.294,6.294,0,0,1-6.294-6.294V75.067a6.294,6.294,0,0,1,6.294-6.294h256.5a6.294,6.294,0,0,1,6.294,6.294v138.5a6.294,6.294,0,0,1-6.294,6.294" transform="translate(9.805 16.117)" fill="#fff"/>
            <path id="Trazado_1264097" data-name="Trazado 1264097" d="M304.746,220.592H48.25a6.919,6.919,0,0,1-6.912-6.911V75.184a6.92,6.92,0,0,1,6.912-6.911h256.5a6.92,6.92,0,0,1,6.911,6.911v138.5a6.919,6.919,0,0,1-6.911,6.911M48.25,69.507a5.683,5.683,0,0,0-5.678,5.677v138.5a5.683,5.683,0,0,0,5.678,5.677h256.5a5.684,5.684,0,0,0,5.677-5.677V75.184a5.684,5.684,0,0,0-5.677-5.677Z" transform="translate(9.688 16)" fill="#353148"/>
            <path id="Trazado_1264098" data-name="Trazado 1264098" d="M114.773,203.115a59.861,59.861,0,1,1,0-119.722c.752,0,.346,119.722,0,119.722" transform="translate(12.869 19.543)" fill="#96fef0"/>
            <path id="Trazado_1264099" data-name="Trazado 1264099" d="M167.425,143.254a59.861,59.861,0,0,0-59.861-59.861c-.389,0-.468,29.223-.406,60.108,0,.225,60.267.01,60.267-.247" transform="translate(25.108 19.543)" fill="#056154"/>
            <path id="Trazado_1264100" data-name="Trazado 1264100" d="M108.428,180.983c-.784,0-.784,0-.844-22.816-.014-5.543-.016-11.087-.01-15.244.015-7.538.015-7.538.67-7.542,44.128-.086,44.409.2,44.686.474a.631.631,0,0,1,.184.442,44.736,44.736,0,0,1-44.686,44.686m.409-44.369c-.112,4.9.016,38.578.163,43.131a43.5,43.5,0,0,0,42.876-42.911c-2.934-.183-19.01-.267-43.039-.22" transform="translate(25.209 31.723)" fill="#121936"/>
            <path id="Trazado_1264101" data-name="Trazado 1264101" d="M252.324,108.5H171.106a.617.617,0,1,1,0-1.234h81.218a.617.617,0,0,1,0,1.234" transform="translate(39.954 25.138)" fill="#121936"/>
            <path id="Trazado_1264102" data-name="Trazado 1264102" d="M210.241,123.258H171.106a.617.617,0,1,1,0-1.234h39.135a.617.617,0,1,1,0,1.234" transform="translate(39.954 28.596)" fill="#121936"/>
            <path id="Trazado_1264103" data-name="Trazado 1264103" d="M243.512,123.258H208.184a.617.617,0,0,1,0-1.234h35.328a.617.617,0,0,1,0,1.234" transform="translate(48.643 28.596)" fill="#121936"/>
            <path id="Trazado_1264104" data-name="Trazado 1264104" d="M326.186,140.5c-2.721-.064-4.884-.006-4.884-.006l-143.818-.165a32.074,32.074,0,0,0-31.457,26.947H145.9l0,.858a32.26,32.26,0,0,0-.288,4.462l.075,12.262a32.892,32.892,0,0,1-10.91,25.055,32.086,32.086,0,0,1-14.9,7.358,26.412,26.412,0,0,0,3.566.151c2.722.064,4.884.006,4.884.006l143.818.165A32.074,32.074,0,0,0,303.6,190.645h.131l0-.858a32.282,32.282,0,0,0,.288-4.462l-.1-16.977a32.68,32.68,0,0,1,25.845-27.7,26.676,26.676,0,0,0-3.566-.151" transform="translate(28.082 32.886)" fill="#121936"/>
            <path id="Trazado_1264105" data-name="Trazado 1264105" d="M350.927,140.328H167c22.111,0,40.034,18.677,40.034,41.716V355.721c0,14.883,11.578,26.946,25.861,26.946H408.5V200.321c2.248-31.372-15.291-59.993-57.575-59.993" transform="translate(39.136 32.886)" fill="#fff"/>
            <path id="Trazado_1264106" data-name="Trazado 1264106" d="M408.685,204.147a.463.463,0,0,1-.463-.463V190.432a49.111,49.111,0,0,0-49.056-49.055H166.68a.463.463,0,1,1,0-.926H359.167a50.038,50.038,0,0,1,49.981,49.981v13.252a.463.463,0,0,1-.463.463" transform="translate(38.953 32.915)" fill="#121936"/>
            <path id="Trazado_1264107" data-name="Trazado 1264107" d="M437.861,295.018l-191.567.241.116,18.644a33.71,33.71,0,0,1-27,33,27.491,27.491,0,0,0,3.683.156c2.812.065,5.046.006,5.046.006l148.563.17c.335,0,.667-.019,1-.031l27.353.031A33.128,33.128,0,0,0,437.979,313.9Z" transform="translate(51.409 69.137)" fill="#121936"/>
            <path id="Trazado_1264108" data-name="Trazado 1264108" d="M367.609,202.335h-141.4a.617.617,0,1,1,0-1.234h141.4a.617.617,0,0,1,0,1.234" transform="translate(52.868 47.128)" fill="#121936"/>
            <path id="Trazado_1264109" data-name="Trazado 1264109" d="M303.239,178.7H228.606a1.234,1.234,0,1,1,0-2.469h74.632a1.234,1.234,0,0,1,0,2.469" transform="translate(53.285 41.3)" fill="#056154"/>
            <path id="Trazado_1264110" data-name="Trazado 1264110" d="M294.2,250.139H226.213a.617.617,0,0,1,0-1.234H294.2a.617.617,0,0,1,0,1.234" transform="translate(52.868 58.331)" fill="#121936"/>
            <path id="Trazado_1264111" data-name="Trazado 1264111" d="M272.405,224.754H226.212a.617.617,0,0,1,0-1.234h46.193a.617.617,0,0,1,0,1.234" transform="translate(52.868 52.382)" fill="#121936"/>
            <path id="Trazado_1264112" data-name="Trazado 1264112" d="M355.778,224.754H276.7a.617.617,0,0,1,0-1.234h79.077a.617.617,0,0,1,0,1.234" transform="translate(64.7 52.382)" fill="#121936"/>
            <path id="Trazado_1264113" data-name="Trazado 1264113" d="M272.405,277.3H226.212a.617.617,0,1,1,0-1.234h46.193a.617.617,0,1,1,0,1.234" transform="translate(52.868 64.695)" fill="#121936"/>
            <path id="Trazado_1264114" data-name="Trazado 1264114" d="M283.45,277.3H272.1a.617.617,0,1,1,0-1.234H283.45a.617.617,0,1,1,0,1.234" transform="translate(63.623 64.695)" fill="#121936"/>
            <rect id="Rectángulo_457464" data-name="Rectángulo 457464" width="14.836" height="47.131" transform="translate(362.183 299.229)" fill="#9dd3ff"/>
            <path id="Trazado_1264115" data-name="Trazado 1264115" d="M326.1,286.691H311.263a.617.617,0,0,1-.617-.617v-28.21a.617.617,0,0,1,.617-.617H326.1a.617.617,0,0,1,.617.617v28.21a.617.617,0,0,1-.617.617m-14.217-1.234h13.6V258.481h-13.6Z" transform="translate(72.8 60.286)" fill="#397afa"/>
            <rect id="Rectángulo_457465" data-name="Rectángulo 457465" width="14.836" height="51.976" transform="translate(405.643 294.384)" fill="#3e2fd1"/>
            <path id="Trazado_1264116" data-name="Trazado 1264116" d="M267.97,127.065,231.862,89.818a.618.618,0,0,1,.888-.859l35.262,36.376,39.178-36.758,46.437,36.01a.618.618,0,0,1-.758.975L307.267,90.2Z" transform="translate(54.296 20.758)" fill="#121936"/>
            <path id="Trazado_1264117" data-name="Trazado 1264117" d="M243.816,91.089a9.772,9.772,0,1,1-9.771-9.771,9.771,9.771,0,0,1,9.771,9.771" transform="translate(52.558 19.057)" fill="#37dbc5"/>
            <path id="Trazado_1264118" data-name="Trazado 1264118" d="M304.513,91.089a9.772,9.772,0,1,1-9.771-9.771,9.771,9.771,0,0,1,9.771,9.771" transform="translate(66.783 19.057)" fill="#96fef0"/>
            <path id="Trazado_1264119" data-name="Trazado 1264119" d="M272.725,120a9.772,9.772,0,1,1-9.771-9.771A9.771,9.771,0,0,1,272.725,120" transform="translate(59.333 25.832)" fill="#056154"/>
            <path id="Trazado_1264120" data-name="Trazado 1264120" d="M341.8,120a9.772,9.772,0,1,1-9.771-9.771A9.771,9.771,0,0,1,341.8,120" transform="translate(75.52 25.832)" fill="#37dbc5"/>
          </g>
        </g>
      </g>
    </g>
  </g>
</svg>
