<svg xmlns="http://www.w3.org/2000/svg" xmlns:xlink="http://www.w3.org/1999/xlink" width="398" height="352.514" viewBox="0 0 398 352.514">
  <defs>
    <clipPath id="clip-path">
      <rect id="Rectángulo_457721" data-name="Rectángulo 457721" width="396" height="352.514" transform="translate(1019.711 10829)" fill="#fff7d9"/>
    </clipPath>
    <clipPath id="clip-path-2">
      <rect id="Rectángulo_457720" data-name="Rectángulo 457720" width="482" height="402" transform="translate(0.333 0.019)" fill="none"/>
    </clipPath>
  </defs>
  <g id="Grupo_1205632" data-name="Grupo 1205632" transform="translate(-1017.711 -10829)">
    <rect id="Rectángulo_456940" data-name="Rectángulo 456940" width="396" height="352.514" transform="translate(1017.711 10829)" fill="#fff7d9"/>
    <g id="Enmascarar_grupo_1119247" data-name="Enmascarar grupo 1119247" clip-path="url(#clip-path)">
      <g id="Grupo_1206791" data-name="Grupo 1206791" transform="translate(1011.566 10851.759)">
        <g id="Grupo_1206790" data-name="Grupo 1206790">
          <g id="Grupo_1206789" data-name="Grupo 1206789" transform="translate(-45.333 -37.778)" clip-path="url(#clip-path-2)">
            <path id="Trazado_1264679" data-name="Trazado 1264679" d="M141.025,165.74h-53.7a3.5,3.5,0,0,1-3.5-3.5V153.76c0-13.544,11.609-23.46,23.058-12.214,9.835-9.432,21.444-.362,21.444,8.465,7.9-2.671,14.675,2.031,16.149,11.662a3.511,3.511,0,0,1-3.451,4.066" transform="translate(-16.37 -26.67)" fill="#f0d5fe"/>
            <path id="Trazado_1264680" data-name="Trazado 1264680" d="M109.159,347.253,98.875,405.267h6.185l15.371-58.014Z" transform="translate(-19.304 -67.718)" fill="#bedce0"/>
            <path id="Trazado_1264681" data-name="Trazado 1264681" d="M120.933,352.8,109,359.3l2.136-12.05H122.4Z" transform="translate(-21.276 -67.717)" fill="#a4cacf"/>
            <path id="Trazado_1264682" data-name="Trazado 1264682" d="M135.932,347.253l-10.283,58.014h6.185L147.2,347.253Z" transform="translate(-24.522 -67.718)" fill="#bedce0"/>
            <path id="Trazado_1264683" data-name="Trazado 1264683" d="M147.707,352.8l-11.938,6.5,2.136-12.05h11.272Z" transform="translate(-26.495 -67.717)" fill="#a4cacf"/>
            <path id="Trazado_1264684" data-name="Trazado 1264684" d="M205.943,347.253l10.283,58.014h-6.185l-15.371-58.014Z" transform="translate(-37.976 -67.718)" fill="#bedce0"/>
            <path id="Trazado_1264685" data-name="Trazado 1264685" d="M196.141,352.8l11.938,6.5-2.136-12.05H194.671Z" transform="translate(-37.976 -67.717)" fill="#a4cacf"/>
            <path id="Trazado_1264686" data-name="Trazado 1264686" d="M179.17,347.253l10.283,58.014h-6.185L167.9,347.253Z" transform="translate(-32.757 -67.718)" fill="#bedce0"/>
            <path id="Trazado_1264687" data-name="Trazado 1264687" d="M169.368,352.8l11.938,6.5-2.136-12.05H167.9Z" transform="translate(-32.757 -67.717)" fill="#a4cacf"/>
            <path id="Trazado_1264688" data-name="Trazado 1264688" d="M161.749,322.909H108.487l-17.7-68.829a2.769,2.769,0,0,1,2.683-3.459h47.541a2.77,2.77,0,0,1,2.683,2.08Z" transform="translate(-17.71 -48.882)" fill="#bedce0"/>
            <path id="Trazado_1264689" data-name="Trazado 1264689" d="M104.417,307.834l55.98,10.572,4.025,15.656H111.161Z" transform="translate(-20.384 -60.034)" fill="#a4cacf"/>
            <path id="Trazado_1264690" data-name="Trazado 1264690" d="M192.9,343.382H106.558a15.989,15.989,0,0,1,15.988-15.989h54.368A15.989,15.989,0,0,1,192.9,343.382" transform="translate(-20.801 -63.847)" fill="#bedce0"/>
            <path id="Trazado_1264691" data-name="Trazado 1264691" d="M188.885,328.041l-3.864,51.3,5.689,13.174,8.846,8.863-8.789.014a8.616,8.616,0,0,1-5.638-2.09l-6.018-5.187.01,7.251-2.373,0L174.8,389.541a7.285,7.285,0,0,1,.118-2.938l2.193-8.83-4.3-50.355Z" transform="translate(-33.715 -63.851)" fill="#de6767"/>
            <path id="Trazado_1264692" data-name="Trazado 1264692" d="M177.206,414.846l2.373,0-.01-7.251,6.018,5.187a8.617,8.617,0,0,0,5.638,2.09l8.789-.014-8.846-8.863-2.848-6.594-5.5,3.706-6.575-6.555-.877,3.529a7.284,7.284,0,0,0-.118,2.938Z" transform="translate(-34.172 -77.326)" fill="#1b2536"/>
            <path id="Trazado_1264693" data-name="Trazado 1264693" d="M126.324,328.04l-6.731,51.3-8.411,13.183L100.5,401.4h8.789a10.421,10.421,0,0,0,6.071-2.1l7.092-5.2-1.509,7.251h2.373l4.395-11.834a7.555,7.555,0,0,0,.49-2.938l-.37-8.827,14.7-50.36Z" transform="translate(-19.621 -63.847)" fill="#de6767"/>
            <path id="Trazado_1264694" data-name="Trazado 1264694" d="M123.318,414.828h-2.373l1.508-7.251-7.091,5.2a10.422,10.422,0,0,1-6.072,2.1H100.5L111.181,406l4.211-6.6,4.731,3.7,7.932-6.565.148,3.527a7.552,7.552,0,0,1-.49,2.938Z" transform="translate(-19.621 -77.322)" fill="#1b2536"/>
            <path id="Trazado_1264695" data-name="Trazado 1264695" d="M175.127,163.577c.214,4.469,3.279,6.3,6.592,9.363s3.249,9.879-.247,12.9c-4.4,3.806-28.1,1.482-31.69,1.137-5.142-.494-9.074-4.141-7.168-10.58,1.433-4.845,10.18-9.717,10.794-14.93Z" transform="translate(-27.734 -31.505)" fill="#28364f"/>
            <path id="Trazado_1264696" data-name="Trazado 1264696" d="M191.72,209.452l-6.659-15.126a15.644,15.644,0,0,0-9.915-8.708l-7.507-2.2H151.006l-7.507,2.2a15.642,15.642,0,0,0-9.915,8.708l-6.66,15.126h-7.712l1.275,9.386a10.177,10.177,0,0,0,19.34,2.863l3.115-6.81,2.076,6.723L136.846,240.8H181.8l-8.174-19.182,2.076-6.723,3.115,6.81a10.177,10.177,0,0,0,19.34-2.863l1.275-9.386Z" transform="translate(-23.268 -35.783)" fill="#6e3c3c"/>
            <line id="Línea_3609" data-name="Línea 3609" x2="5.285" y2="19.886" transform="translate(114.391 159.221)" fill="none" stroke="#1b2536" stroke-miterlimit="10" stroke-width="0.676"/>
            <line id="Línea_3610" data-name="Línea 3610" x2="6.657" y2="9.624" transform="translate(105.932 174.295)" fill="none" stroke="#1b2536" stroke-miterlimit="10" stroke-width="0.676"/>
            <line id="Línea_3611" data-name="Línea 3611" x1="5.285" y2="19.886" transform="translate(152.434 159.221)" fill="none" stroke="#1b2536" stroke-miterlimit="10" stroke-width="0.676"/>
            <line id="Línea_3612" data-name="Línea 3612" x1="6.658" y2="9.624" transform="translate(159.52 174.295)" fill="none" stroke="#1b2536" stroke-miterlimit="10" stroke-width="0.676"/>
            <path id="Trazado_1264697" data-name="Trazado 1264697" d="M159.413,191.4H174.9L167.158,220.2Z" transform="translate(-31.104 -37.339)" fill="#fff"/>
            <path id="Trazado_1264698" data-name="Trazado 1264698" d="M157.787,183.416l9.789,37.7-8.7-10.5a8.244,8.244,0,0,1-1.522-7.71l1.011-3.246-2.906-4.216a8.242,8.242,0,0,1,.679-10.213Z" transform="translate(-30.049 -35.783)" fill="#d9956a"/>
            <path id="Trazado_1264699" data-name="Trazado 1264699" d="M176.994,183.416l-9.789,37.7,8.7-10.5a8.244,8.244,0,0,0,1.522-7.71l-1.011-3.246,2.906-4.216a8.242,8.242,0,0,0-.679-10.213Z" transform="translate(-32.622 -35.783)" fill="#d9956a"/>
            <path id="Trazado_1264700" data-name="Trazado 1264700" d="M171.566,178.282l-.436-6.289h-8.245l-.437,6.289a2.461,2.461,0,0,1-1.646,2.154l-2.166.753,2.25,8.8h12.243l2.249-8.8-2.166-.753a2.462,2.462,0,0,1-1.646-2.154" transform="translate(-30.952 -33.556)" fill="#de6767"/>
            <path id="Trazado_1264701" data-name="Trazado 1264701" d="M172.471,177.26l-.366-5.268H163.86l-.219,3.153A7.981,7.981,0,0,0,169.7,177.7a8.733,8.733,0,0,0,2.768-.439" transform="translate(-31.928 -33.556)" fill="#28364f"/>
            <path id="Trazado_1264702" data-name="Trazado 1264702" d="M175.55,158.756a13.4,13.4,0,0,0-6.387-11.23l-2.22-1.406-2.22,1.406a13.405,13.405,0,0,0-6.387,11.23c0,1.015-.012,2.019-.028,2.92-.07,4.021,2.527,9.492,8.635,9.492s8.7-5.471,8.635-9.492c-.015-.9-.024-1.9-.028-2.92" transform="translate(-30.888 -28.513)" fill="#de6767"/>
            <path id="Trazado_1264703" data-name="Trazado 1264703" d="M165.141,167.97a1.649,1.649,0,1,1-1.649-1.649,1.649,1.649,0,0,1,1.649,1.649" transform="translate(-31.577 -32.451)" fill="#d65353"/>
            <path id="Trazado_1264704" data-name="Trazado 1264704" d="M175.427,167.97a1.649,1.649,0,1,1-1.649-1.649,1.649,1.649,0,0,1,1.649,1.649" transform="translate(-33.582 -32.451)" fill="#d65353"/>
            <path id="Trazado_1264705" data-name="Trazado 1264705" d="M158.3,158.638s4.812-3.856,5.438-8.5c0,0,5.24,8.1,11.964,10.115h2.142s.527-15.852-11.733-15.85c-7.582,0-10.481,9.492-9.986,13.744Z" transform="translate(-30.452 -28.178)" fill="#28364f"/>
            <path id="Trazado_1264706" data-name="Trazado 1264706" d="M158.377,162.215c1.218,1.583,1.172,3.661-.1,4.641s-3.3.494-4.513-1.089-1.173-3.66.1-4.641,3.3-.494,4.513,1.089" transform="translate(-29.83 -31.339)" fill="#de6767"/>
            <path id="Trazado_1264707" data-name="Trazado 1264707" d="M154.566,163.257s2.307-1.747,3.856,2.043" transform="translate(-30.159 -31.775)" fill="none" stroke="#6e3c3c" stroke-miterlimit="10" stroke-width="0.5"/>
            <line id="Línea_3613" data-name="Línea 3613" y1="1.984" x2="0.316" transform="translate(125.923 131.08)" fill="none" stroke="#6e3c3c" stroke-miterlimit="10" stroke-width="0.5"/>
            <path id="Trazado_1264708" data-name="Trazado 1264708" d="M178.146,162.215c-1.218,1.583-1.172,3.661.1,4.641s3.294.494,4.512-1.089,1.173-3.66-.1-4.641-3.3-.494-4.513,1.089" transform="translate(-34.583 -31.339)" fill="#de6767"/>
            <path id="Trazado_1264709" data-name="Trazado 1264709" d="M182.568,163.257s-2.307-1.747-3.856,2.043" transform="translate(-34.865 -31.775)" fill="none" stroke="#6e3c3c" stroke-miterlimit="10" stroke-width="0.5"/>
            <line id="Línea_3614" data-name="Línea 3614" x1="0.316" y1="1.984" transform="translate(145.87 131.08)" fill="none" stroke="#6e3c3c" stroke-miterlimit="10" stroke-width="0.5"/>
            <path id="Trazado_1264710" data-name="Trazado 1264710" d="M164.248,162.313a1.17,1.17,0,0,0-1.17,1.17,1.141,1.141,0,0,0,.052.325l.822-.161-.494.693a1.168,1.168,0,1,0,.791-2.027" transform="translate(-31.818 -31.67)" fill="#28364f"/>
            <path id="Trazado_1264711" data-name="Trazado 1264711" d="M173.254,162.313a1.17,1.17,0,0,1,1.17,1.17,1.141,1.141,0,0,1-.052.325l-.822-.161.494.693a1.168,1.168,0,1,1-.791-2.027" transform="translate(-33.573 -31.67)" fill="#28364f"/>
            <path id="Trazado_1264712" data-name="Trazado 1264712" d="M162.29,161.22s1.944-1.187,3.493,0" transform="translate(-31.664 -31.354)" fill="none" stroke="#28364f" stroke-miterlimit="10" stroke-width="1"/>
            <path id="Trazado_1264713" data-name="Trazado 1264713" d="M174.932,161.22s-1.944-1.187-3.493,0" transform="translate(-33.448 -31.354)" fill="none" stroke="#28364f" stroke-miterlimit="10" stroke-width="1"/>
            <path id="Trazado_1264714" data-name="Trazado 1264714" d="M168.858,162.045l.8,3.922h-1.608" transform="translate(-32.788 -31.617)" fill="none" stroke="#6e3c3c" stroke-miterlimit="10" stroke-width="0.5"/>
            <path id="Trazado_1264715" data-name="Trazado 1264715" d="M165.523,168.84h5.654s-.476,3.559-2.827,3.559-2.827-3.559-2.827-3.559" transform="translate(-32.295 -32.942)" fill="#6e3c3c"/>
            <path id="Trazado_1264716" data-name="Trazado 1264716" d="M168.517,170.774a4.206,4.206,0,0,0-2.136.535,2.288,2.288,0,0,0,4.272,0,4.206,4.206,0,0,0-2.136-.535" transform="translate(-32.462 -33.319)" fill="#943232"/>
            <path id="Trazado_1264717" data-name="Trazado 1264717" d="M184.218,254.687l-3.455,61.1c-6.826,2.175-15.923.023-25.613.8s-16.61,1.966-23.532,1.373l7.646-63.28Z" transform="translate(-25.686 -49.675)" fill="#6e3c3c"/>
            <path id="Trazado_1264718" data-name="Trazado 1264718" d="M133.444,312.82l48.506-4.713.984-17.394H136.115Z" transform="translate(-26.042 -56.697)" fill="#1b2536"/>
            <path id="Trazado_1264719" data-name="Trazado 1264719" d="M210.424,290.352H109.3a7.031,7.031,0,0,1-7.032-7.032V221.257a7.031,7.031,0,0,1,7.032-7.032H210.424a7.031,7.031,0,0,1,7.031,7.032V283.32a7.031,7.031,0,0,1-7.031,7.032" transform="translate(-19.965 -41.788)" fill="#056154"/>
            <rect id="Rectángulo_457676" data-name="Rectángulo 457676" width="7.071" height="8.829" transform="translate(96.443 225.187)" fill="#bedce0"/>
            <rect id="Rectángulo_457677" data-name="Rectángulo 457677" width="7.071" height="19.749" transform="translate(112.411 214.267)" fill="#bedce0"/>
            <rect id="Rectángulo_457678" data-name="Rectángulo 457678" width="7.071" height="27.805" transform="translate(128.377 206.211)" fill="#bedce0"/>
            <rect id="Rectángulo_457679" data-name="Rectángulo 457679" width="7.071" height="32.277" transform="translate(144.343 201.739)" fill="#bedce0"/>
            <rect id="Rectángulo_457680" data-name="Rectángulo 457680" width="7.071" height="43.464" transform="translate(160.311 190.552)" fill="#bedce0"/>
            <rect id="Rectángulo_457681" data-name="Rectángulo 457681" width="7.071" height="23.81" transform="translate(176.277 210.206)" fill="#bedce0"/>
            <rect id="Rectángulo_457682" data-name="Rectángulo 457682" width="7.071" height="28.26" transform="translate(96.443 205.756)" fill="none" stroke="#28364f" stroke-miterlimit="10" stroke-width="0.597"/>
            <rect id="Rectángulo_457683" data-name="Rectángulo 457683" width="7.071" height="23.81" transform="translate(112.411 210.206)" fill="none" stroke="#28364f" stroke-miterlimit="10" stroke-width="0.548"/>
            <rect id="Rectángulo_457684" data-name="Rectángulo 457684" width="7.071" height="39.498" transform="translate(128.377 194.518)" fill="none" stroke="#28364f" stroke-miterlimit="10" stroke-width="0.706"/>
            <rect id="Rectángulo_457685" data-name="Rectángulo 457685" width="7.071" height="42.893" transform="translate(144.343 191.123)" fill="none" stroke="#28364f" stroke-miterlimit="10" stroke-width="0.736"/>
            <rect id="Rectángulo_457686" data-name="Rectángulo 457686" width="7.071" height="50.177" transform="translate(160.311 183.839)" fill="none" stroke="#28364f" stroke-miterlimit="10" stroke-width="0.796"/>
            <rect id="Rectángulo_457687" data-name="Rectángulo 457687" width="7.071" height="35.375" transform="translate(176.277 198.642)" fill="none" stroke="#28364f" stroke-miterlimit="10" stroke-width="0.668"/>
            <line id="Línea_3615" data-name="Línea 3615" x2="101.149" transform="translate(89.321 234.016)" fill="none" stroke="#28364f" stroke-miterlimit="10" stroke-width="0.548"/>
            <path id="Trazado_1264720" data-name="Trazado 1264720" d="M505.162,347.253l10.283,58.014h-6.185L493.89,347.253Z" transform="translate(-96.299 -67.718)" fill="#bedce0"/>
            <path id="Trazado_1264721" data-name="Trazado 1264721" d="M495.36,352.8l11.938,6.5-2.136-12.05H493.89Z" transform="translate(-96.299 -67.717)" fill="#a4cacf"/>
            <path id="Trazado_1264722" data-name="Trazado 1264722" d="M478.389,347.253l10.283,58.014h-6.185l-15.371-58.014Z" transform="translate(-91.08 -67.718)" fill="#bedce0"/>
            <path id="Trazado_1264723" data-name="Trazado 1264723" d="M468.587,352.8l11.938,6.5-2.136-12.05H467.116Z" transform="translate(-91.08 -67.717)" fill="#a4cacf"/>
            <path id="Trazado_1264724" data-name="Trazado 1264724" d="M408.377,347.253l-10.283,58.014h6.185l15.371-58.014Z" transform="translate(-77.627 -67.718)" fill="#bedce0"/>
            <path id="Trazado_1264725" data-name="Trazado 1264725" d="M420.152,352.8l-11.938,6.5,2.136-12.05h11.272Z" transform="translate(-79.599 -67.717)" fill="#a4cacf"/>
            <path id="Trazado_1264726" data-name="Trazado 1264726" d="M435.151,347.253l-10.283,58.014h6.185l15.371-58.014Z" transform="translate(-82.845 -67.718)" fill="#bedce0"/>
            <path id="Trazado_1264727" data-name="Trazado 1264727" d="M446.925,352.8l-11.938,6.5,2.136-12.05H448.4Z" transform="translate(-84.818 -67.717)" fill="#a4cacf"/>
            <path id="Trazado_1264728" data-name="Trazado 1264728" d="M440.589,322.909H493.85l17.7-68.829a2.769,2.769,0,0,0-2.683-3.459H461.326a2.77,2.77,0,0,0-2.682,2.08Z" transform="translate(-85.91 -48.882)" fill="#bedce0"/>
            <path id="Trazado_1264729" data-name="Trazado 1264729" d="M500.594,307.834l-55.98,10.572-4.025,15.656H493.85Z" transform="translate(-85.91 -60.034)" fill="#a4cacf"/>
            <path id="Trazado_1264730" data-name="Trazado 1264730" d="M405.732,343.382h86.345a15.989,15.989,0,0,0-15.988-15.989H421.721a15.989,15.989,0,0,0-15.989,15.989" transform="translate(-79.115 -63.847)" fill="#bedce0"/>
            <line id="Línea_3616" data-name="Línea 3616" x2="394.908" transform="translate(47.177 337.505)" fill="none" stroke="#28364f" stroke-miterlimit="10" stroke-width="1.399"/>
            <path id="Trazado_1264731" data-name="Trazado 1264731" d="M470.318,394.388l-.184,8.858a7.442,7.442,0,0,0,.468,2.761l2.068,5.557a2.111,2.111,0,0,1-1.978,2.847H449.427a1.26,1.26,0,0,1-.7-2.309l9.438-6.266a4.568,4.568,0,0,0,2.035-4.03l-.366-7.417Z" transform="translate(-87.386 -76.905)" fill="#946351"/>
            <path id="Trazado_1264732" data-name="Trazado 1264732" d="M459.219,407.39a4.547,4.547,0,0,1-1.051.98l-9.438,6.266a1.26,1.26,0,0,0,.7,2.309h21.265a2.111,2.111,0,0,0,1.978-2.847l-1.532-4.115-5.385.858a4.219,4.219,0,0,1-3.836-1.461,8.546,8.546,0,0,0-2.7-1.99" transform="translate(-87.386 -79.439)" fill="#28364f"/>
            <path id="Trazado_1264733" data-name="Trazado 1264733" d="M435.691,389.334,437.537,398a7.476,7.476,0,0,0,1.087,2.581l3.285,4.937a2.11,2.11,0,0,1-1.274,3.223l-20.7,4.864a1.26,1.26,0,0,1-1.206-2.088l7.755-8.258a4.566,4.566,0,0,0,1.059-4.388l-2.053-7.138Z" transform="translate(-81.581 -75.92)" fill="#946351"/>
            <path id="Trazado_1264734" data-name="Trazado 1264734" d="M427.28,405.1a4.572,4.572,0,0,1-.8,1.195l-7.755,8.258a1.259,1.259,0,0,0,1.206,2.088l20.7-4.864a2.111,2.111,0,0,0,1.274-3.224l-2.433-3.655-5.045,2.067a4.222,4.222,0,0,1-4.07-.546,8.547,8.547,0,0,0-3.08-1.32" transform="translate(-81.581 -78.953)" fill="#28364f"/>
            <path id="Trazado_1264735" data-name="Trazado 1264735" d="M455.02,153.911c-.01-.143,4.071-5.69,5.06-8.655s-1.222-4.647-5.06-4.252c0,0,1.55-5.044-3.146-4.944s-6.131,1.134-8.6,0-5.933-.146-6.476,2.672,2.683,7.886,5.289,10.629c3.757,3.955,12.935,4.553,12.935,4.553" transform="translate(-85.158 -26.462)" fill="#1b2536"/>
            <path id="Trazado_1264736" data-name="Trazado 1264736" d="M435.869,226.3h26.4l-4.246-55.01H442.931Z" transform="translate(-84.99 -33.42)" fill="#d4b5a5"/>
            <path id="Trazado_1264737" data-name="Trazado 1264737" d="M410.568,182.78l-17.486,24-18.456,4.746v18.589l16.513-3.936a30.418,30.418,0,0,0,15.193-8.841l12.063-12.93,7.57-30.458-4.331,1.187a20.344,20.344,0,0,0-11.066,7.641" transform="translate(-73.052 -33.938)" fill="#415780"/>
            <path id="Trazado_1264738" data-name="Trazado 1264738" d="M392.289,215.464l-2.051,19.449-7.911,1.818,1.975-19.213Z" transform="translate(-74.553 -42.03)" fill="#28364f"/>
            <path id="Trazado_1264739" data-name="Trazado 1264739" d="M413.212,220.693l11.181-11.985-1.358-17.556-13.109,32.582a30.429,30.429,0,0,0,3.286-3.04" transform="translate(-79.933 -37.291)" fill="#28364f"/>
            <path id="Trazado_1264740" data-name="Trazado 1264740" d="M466.252,243.716l-1.78,123.133H447.616l-4.442-103.82h-3.221l-10.481,44.3,6.317,53.164-16.2,3.788-10.489-44.567a49.39,49.39,0,0,1,.511-24.613l14.37-51.382Z" transform="translate(-79.515 -47.536)" fill="#415780"/>
            <path id="Trazado_1264741" data-name="Trazado 1264741" d="M419.148,268.748l22.557-3.892.462-1.942h3.222l.055,1.3,22.783-3.931.241-16.564H426.19Z" transform="translate(-81.73 -47.536)" fill="#28364f"/>
            <line id="Línea_3617" data-name="Línea 3617" x1="1.302" y2="114.857" transform="translate(381.415 204.455)" fill="none" stroke="#1b2536" stroke-miterlimit="10" stroke-width="0.618"/>
            <path id="Trazado_1264742" data-name="Trazado 1264742" d="M440.266,265.948,429.318,310.8l7.705,54.713" transform="translate(-83.713 -51.87)" fill="none" stroke="#1b2536" stroke-miterlimit="10" stroke-width="0.618"/>
            <line id="Línea_3618" data-name="Línea 3618" y2="19.627" transform="translate(363.659 195.866)" fill="none" stroke="#1b2536" stroke-miterlimit="10" stroke-width="0.618"/>
            <path id="Trazado_1264743" data-name="Trazado 1264743" d="M447.065,244.309v7.73a7.076,7.076,0,0,0,3.538,6.128l.227.131" transform="translate(-87.172 -47.652)" fill="none" stroke="#1b2536" stroke-miterlimit="10" stroke-width="0.618"/>
            <line id="Línea_3619" data-name="Línea 3619" y1="0.989" x2="17.205" transform="translate(352.576 213.318)" fill="none" stroke="#1b2536" stroke-miterlimit="10" stroke-width="0.618"/>
            <rect id="Rectángulo_457688" data-name="Rectángulo 457688" width="33.634" height="4.746" transform="translate(346.842 192.884)" fill="#6e4c2e"/>
            <rect id="Rectángulo_457689" data-name="Rectángulo 457689" width="8.046" height="4.746" transform="translate(357.753 192.884)" fill="#1b2536"/>
            <path id="Trazado_1264744" data-name="Trazado 1264744" d="M453.263,144.891s-2.027,5.785,2.422,7.614l.741,10.431-7.218,4.35-3.609-2.67V161.5s-6.13-1.236-3.708-10.332l-.2-4.3s7.119.989,11.568-1.977" transform="translate(-86.053 -28.274)" fill="#946351"/>
            <path id="Trazado_1264745" data-name="Trazado 1264745" d="M462.733,156.391a3.358,3.358,0,1,1-1.169-4.868,3.552,3.552,0,0,1,1.169,4.868" transform="translate(-88.985 -29.496)" fill="#946351"/>
            <path id="Trazado_1264746" data-name="Trazado 1264746" d="M458.1,156.534c-.445-2.769,2.842-5.117,4.251-2.447" transform="translate(-89.314 -29.838)" fill="none" stroke="#422424" stroke-miterlimit="10" stroke-width="0.655"/>
            <line id="Línea_3620" data-name="Línea 3620" x1="1.245" y1="2.04" transform="translate(370.1 123.512)" fill="none" stroke="#422424" stroke-miterlimit="10" stroke-width="0.655"/>
            <path id="Trazado_1264747" data-name="Trazado 1264747" d="M447.106,165.316a8.538,8.538,0,0,0,7.449-1.45" transform="translate(-87.18 -31.972)" fill="none" stroke="#422424" stroke-miterlimit="10" stroke-width="0.655"/>
            <path id="Trazado_1264748" data-name="Trazado 1264748" d="M460.532,169.685l-3.26,64.853a9.31,9.31,0,0,0,9.3,9.777h14.073l-4.878-20.435,5.487-33.663a12.038,12.038,0,0,0-6.083-12.488Z" transform="translate(-89.159 -33.106)" fill="#415780"/>
            <path id="Trazado_1264749" data-name="Trazado 1264749" d="M473.859,205.561l5.273,23.714,1.944-11.926Z" transform="translate(-92.395 -40.099)" fill="#28364f"/>
            <path id="Trazado_1264750" data-name="Trazado 1264750" d="M439.54,172.221,435.6,236.075a9.31,9.31,0,0,1-9.291,8.735h-8.123l7.119-24.257-1.544-33.036a13.548,13.548,0,0,1,9.952-13.7Z" transform="translate(-81.542 -33.601)" fill="#415780"/>
            <path id="Trazado_1264751" data-name="Trazado 1264751" d="M439.847,174.49l-1.978,2.5a11.05,11.05,0,0,0-1.8,10.415l1.525,4.487-2.6,5a11.055,11.055,0,0,0-.6,8.86l3.991,11.061" transform="translate(-84.575 -34.043)" fill="none" stroke="#28364f" stroke-miterlimit="10" stroke-width="0.655"/>
            <path id="Trazado_1264752" data-name="Trazado 1264752" d="M462.8,173.369l1.67,2.956a11.054,11.054,0,0,1,.671,9.46l-2.34,5.987,2.071,3.492a11.051,11.051,0,0,1,.517,10.294l-5.307,11.427" transform="translate(-89.71 -33.825)" fill="none" stroke="#28364f" stroke-miterlimit="10" stroke-width="0.655"/>
            <line id="Línea_3621" data-name="Línea 3621" x2="1.055" y2="22.44" transform="translate(342.047 150.433)" fill="none" stroke="#1b2536" stroke-miterlimit="10" stroke-width="0.618"/>
            <rect id="Rectángulo_457690" data-name="Rectángulo 457690" width="9.59" height="2.01" transform="translate(342.032 198.115) rotate(-22.789)" fill="#fff"/>
            <rect id="Rectángulo_457691" data-name="Rectángulo 457691" width="2.01" height="9.59" transform="translate(372.471 196.254) rotate(-67.211)" fill="#fff"/>
            <path id="Trazado_1264753" data-name="Trazado 1264753" d="M448.015,175.958l1.854-3.248,2.275,3.248-.743,2.486,2.225,37.325-4.549,7.713-4.367-7.713,4.12-37.325Z" transform="translate(-86.713 -33.696)" fill="#fff"/>
            <path id="Trazado_1264754" data-name="Trazado 1264754" d="M494.383,285.614h-2.339a10.719,10.719,0,0,0-7.9,3.474l-7.031,7.666h32.2l-7.032-7.666A10.716,10.716,0,0,0,494.383,285.614Z" transform="translate(-93.029 -55.703)" fill="none" stroke="#d65353" stroke-miterlimit="10" stroke-width="2"/>
            <rect id="Rectángulo_457692" data-name="Rectángulo 457692" width="47.724" height="16.347" transform="translate(376.323 239.008)" fill="#96fef0"/>
            <rect id="Rectángulo_457693" data-name="Rectángulo 457693" width="47.724" height="17.928" transform="translate(376.323 255.355)" fill="#1b2536"/>
            <rect id="Rectángulo_457694" data-name="Rectángulo 457694" width="3.164" height="14.93" transform="translate(412.693 251.333)" fill="none" stroke="#fff" stroke-miterlimit="10" stroke-width="0.655"/>
            <rect id="Rectángulo_457695" data-name="Rectángulo 457695" width="3.164" height="14.93" transform="translate(384.513 251.333)" fill="none" stroke="#fff" stroke-miterlimit="10" stroke-width="0.655"/>
            <path id="Trazado_1264755" data-name="Trazado 1264755" d="M444.85,152.3l.71.213a.97.97,0,0,0,.043-.275,1,1,0,1,0-.232.63Z" transform="translate(-86.502 -29.514)" fill="#1b2536"/>
            <path id="Trazado_1264756" data-name="Trazado 1264756" d="M451.211,152.3l.71.213a.971.971,0,0,0,.043-.275,1,1,0,1,0-.232.63Z" transform="translate(-87.741 -29.514)" fill="#1b2536"/>
            <path id="Trazado_1264757" data-name="Trazado 1264757" d="M447.287,150.766l.247,1.566-.408,1.964a1,1,0,0,0,.982,1.208h1.317" transform="translate(-87.18 -29.419)" fill="none" stroke="#422424" stroke-miterlimit="10" stroke-width="0.655"/>
            <path id="Trazado_1264758" data-name="Trazado 1264758" d="M446.679,158.114a4.979,4.979,0,0,0,4.263-.7" transform="translate(-87.097 -30.714)" fill="none" stroke="#422424" stroke-miterlimit="10" stroke-width="0.655"/>
            <path id="Trazado_1264759" data-name="Trazado 1264759" d="M448.942,149.423a8.021,8.021,0,0,1,3.12,0" transform="translate(-87.538 -29.126)" fill="none" stroke="#1b2536" stroke-miterlimit="10" stroke-width="1"/>
            <path id="Trazado_1264760" data-name="Trazado 1264760" d="M442.917,149.423a8.021,8.021,0,0,1,3.12,0" transform="translate(-86.363 -29.126)" fill="none" stroke="#1b2536" stroke-miterlimit="10" stroke-width="1"/>
            <path id="Trazado_1264761" data-name="Trazado 1264761" d="M451.118,171.533l8.042-4.856,2.5,3.226-7.69,5.7Z" transform="translate(-87.962 -32.52)" fill="#b3988b"/>
            <path id="Trazado_1264762" data-name="Trazado 1264762" d="M449.448,171.907l-2.5,4.375-4.4-4.375,2.3-3.312Z" transform="translate(-86.292 -32.894)" fill="#b3988b"/>
            <path id="Trazado_1264763" data-name="Trazado 1264763" d="M492.135,275.872l.185,2.159-1.6,3.458a1.233,1.233,0,0,0,1.119,1.75l-.171,1.716a2.034,2.034,0,0,0,2.025,2.236h5.418a2.034,2.034,0,0,0,2.011-2.343l-1.027-6.7.1-2.275Z" transform="translate(-95.659 -53.804)" fill="#946351"/>
            <path id="Trazado_1264764" data-name="Trazado 1264764" d="M488.508,190.167,499.343,216.9a32.95,32.95,0,0,1,2.332,14.657l-1.845,26.547H486.515l-.659-28.08-12-29.662,3.4-21.467,2.406,1.323a19.86,19.86,0,0,1,8.841,9.947" transform="translate(-92.395 -34.902)" fill="#415780"/>
            <path id="Trazado_1264765" data-name="Trazado 1264765" d="M359.975,291.349H235.886V212.166a7.031,7.031,0,0,1,7.031-7.032H352.944a7.031,7.031,0,0,1,7.031,7.032Z" transform="translate(-46.01 -40.016)" fill="#415780"/>
            <path id="Trazado_1264766" data-name="Trazado 1264766" d="M352.944,398.439H242.917a7.031,7.031,0,0,1-7.031-7.032V312.223H359.975v79.184a7.031,7.031,0,0,1-7.031,7.032" transform="translate(-46.01 -60.89)" fill="#6e9296"/>
            <path id="Trazado_1264767" data-name="Trazado 1264767" d="M268.32,252.041h-19.9V290.5h30.2V262.342Z" transform="translate(-48.453 -49.159)" fill="#1b2536"/>
            <path id="Trazado_1264768" data-name="Trazado 1264768" d="M266.492,250.148H246.6v38.459h30.2V260.449Z" transform="translate(-48.097 -48.79)" fill="#fff"/>
            <path id="Trazado_1264769" data-name="Trazado 1264769" d="M271.309,250.148v10.3h10.3Z" transform="translate(-52.914 -48.79)" fill="#d9b59e"/>
            <rect id="Rectángulo_457696" data-name="Rectángulo 457696" width="9.593" height="1.768" transform="translate(202.248 209.891)" fill="#415780"/>
            <rect id="Rectángulo_457697" data-name="Rectángulo 457697" width="22.699" height="0.884" transform="translate(202.248 214.519)" fill="#415780"/>
            <rect id="Rectángulo_457698" data-name="Rectángulo 457698" width="22.699" height="0.884" transform="translate(202.248 217.644)" fill="#415780"/>
            <rect id="Rectángulo_457699" data-name="Rectángulo 457699" width="22.699" height="0.884" transform="translate(202.248 220.769)" fill="#415780"/>
            <rect id="Rectángulo_457700" data-name="Rectángulo 457700" width="22.699" height="0.884" transform="translate(202.248 223.895)" fill="#415780"/>
            <rect id="Rectángulo_457701" data-name="Rectángulo 457701" width="22.699" height="0.884" transform="translate(202.248 227.019)" fill="#415780"/>
            <rect id="Rectángulo_457702" data-name="Rectángulo 457702" width="9.593" height="0.884" transform="translate(202.248 230.144)" fill="#415780"/>
            <path id="Trazado_1264770" data-name="Trazado 1264770" d="M315.008,252.041h-19.9V290.5h30.2V262.342Z" transform="translate(-57.554 -49.159)" fill="#1b2536"/>
            <path id="Trazado_1264771" data-name="Trazado 1264771" d="M313.18,250.148h-19.9v38.459h30.2V260.449Z" transform="translate(-57.198 -48.79)" fill="#fff"/>
            <path id="Trazado_1264772" data-name="Trazado 1264772" d="M318,250.148v10.3h10.3Z" transform="translate(-62.014 -48.79)" fill="#d9b59e"/>
            <rect id="Rectángulo_457703" data-name="Rectángulo 457703" width="9.593" height="1.768" transform="translate(239.836 209.891)" fill="#415780"/>
            <rect id="Rectángulo_457704" data-name="Rectángulo 457704" width="22.699" height="0.884" transform="translate(239.835 214.519)" fill="#415780"/>
            <rect id="Rectángulo_457705" data-name="Rectángulo 457705" width="22.699" height="0.884" transform="translate(239.835 217.644)" fill="#415780"/>
            <rect id="Rectángulo_457706" data-name="Rectángulo 457706" width="22.699" height="0.884" transform="translate(239.835 220.769)" fill="#415780"/>
            <rect id="Rectángulo_457707" data-name="Rectángulo 457707" width="22.699" height="0.884" transform="translate(239.835 223.895)" fill="#415780"/>
            <rect id="Rectángulo_457708" data-name="Rectángulo 457708" width="22.699" height="0.884" transform="translate(239.835 227.019)" fill="#415780"/>
            <rect id="Rectángulo_457709" data-name="Rectángulo 457709" width="9.593" height="0.884" transform="translate(239.836 230.144)" fill="#415780"/>
            <path id="Trazado_1264773" data-name="Trazado 1264773" d="M361.7,252.041H341.8V290.5H372V262.342Z" transform="translate(-66.654 -49.159)" fill="#1b2536"/>
            <path id="Trazado_1264774" data-name="Trazado 1264774" d="M359.867,250.148h-19.9v38.459h30.2V260.449Z" transform="translate(-66.298 -48.79)" fill="#fff"/>
            <path id="Trazado_1264775" data-name="Trazado 1264775" d="M364.684,250.148v10.3h10.3Z" transform="translate(-71.114 -48.79)" fill="#d9b59e"/>
            <rect id="Rectángulo_457710" data-name="Rectángulo 457710" width="9.593" height="1.768" transform="translate(277.423 209.891)" fill="#415780"/>
            <rect id="Rectángulo_457711" data-name="Rectángulo 457711" width="22.699" height="0.884" transform="translate(277.423 214.519)" fill="#415780"/>
            <rect id="Rectángulo_457712" data-name="Rectángulo 457712" width="22.699" height="0.884" transform="translate(277.423 217.644)" fill="#415780"/>
            <rect id="Rectángulo_457713" data-name="Rectángulo 457713" width="22.699" height="0.884" transform="translate(277.423 220.769)" fill="#415780"/>
            <rect id="Rectángulo_457714" data-name="Rectángulo 457714" width="22.699" height="0.884" transform="translate(277.423 223.895)" fill="#415780"/>
            <rect id="Rectángulo_457715" data-name="Rectángulo 457715" width="22.699" height="0.884" transform="translate(277.423 227.019)" fill="#415780"/>
            <rect id="Rectángulo_457716" data-name="Rectángulo 457716" width="9.593" height="0.884" transform="translate(277.423 230.144)" fill="#415780"/>
            <path id="Trazado_1264776" data-name="Trazado 1264776" d="M350.033,345.134H253.8a4.026,4.026,0,0,1-4.025-4.025v-9.959a4.026,4.026,0,0,1,4.025-4.025h96.235a4.026,4.026,0,0,1,4.025,4.025v9.959a4.026,4.026,0,0,1-4.025,4.025" transform="translate(-48.716 -63.794)" fill="#496163"/>
            <path id="Trazado_1264777" data-name="Trazado 1264777" d="M348.445,342.893H252.21a4.025,4.025,0,0,1-4.025-4.025v-9.959a4.026,4.026,0,0,1,4.025-4.025h96.235a4.026,4.026,0,0,1,4.025,4.025v9.959a4.025,4.025,0,0,1-4.025,4.025" transform="translate(-48.407 -63.357)" fill="#fff"/>
            <path id="Trazado_1264778" data-name="Trazado 1264778" d="M270.857,334.534a6.336,6.336,0,1,1-6.337-6.337,6.337,6.337,0,0,1,6.337,6.337" transform="translate(-50.356 -64.003)" fill="#d9b59e"/>
            <line id="Línea_3622" data-name="Línea 3622" x2="71.404" transform="translate(224.609 266.92)" fill="none" stroke="#28364f" stroke-linecap="round" stroke-linejoin="round" stroke-width="0.75"/>
            <line id="Línea_3623" data-name="Línea 3623" x2="71.404" transform="translate(224.609 270.53)" fill="none" stroke="#28364f" stroke-linecap="round" stroke-linejoin="round" stroke-width="0.75"/>
            <line id="Línea_3624" data-name="Línea 3624" x2="71.404" transform="translate(224.609 274.141)" fill="none" stroke="#28364f" stroke-linecap="round" stroke-linejoin="round" stroke-width="0.75"/>
            <path id="Trazado_1264779" data-name="Trazado 1264779" d="M350.033,373.713H253.8a4.026,4.026,0,0,1-4.025-4.025v-9.959A4.026,4.026,0,0,1,253.8,355.7h96.235a4.026,4.026,0,0,1,4.025,4.025v9.959a4.026,4.026,0,0,1-4.025,4.025" transform="translate(-48.716 -69.365)" fill="#496163"/>
            <path id="Trazado_1264780" data-name="Trazado 1264780" d="M348.445,371.472H252.21a4.026,4.026,0,0,1-4.025-4.025v-9.959a4.026,4.026,0,0,1,4.025-4.025h96.235a4.026,4.026,0,0,1,4.025,4.025v9.959a4.026,4.026,0,0,1-4.025,4.025" transform="translate(-48.407 -68.928)" fill="#fff"/>
            <path id="Trazado_1264781" data-name="Trazado 1264781" d="M270.857,363.113a6.336,6.336,0,1,1-6.337-6.337,6.337,6.337,0,0,1,6.337,6.337" transform="translate(-50.356 -69.574)" fill="#d9b59e"/>
            <line id="Línea_3625" data-name="Línea 3625" x2="71.404" transform="translate(224.609 289.929)" fill="none" stroke="#28364f" stroke-linecap="round" stroke-linejoin="round" stroke-width="0.75"/>
            <line id="Línea_3626" data-name="Línea 3626" x2="71.404" transform="translate(224.609 293.539)" fill="none" stroke="#28364f" stroke-linecap="round" stroke-linejoin="round" stroke-width="0.75"/>
            <line id="Línea_3627" data-name="Línea 3627" x2="71.404" transform="translate(224.609 297.15)" fill="none" stroke="#28364f" stroke-linecap="round" stroke-linejoin="round" stroke-width="0.75"/>
            <path id="Trazado_1264782" data-name="Trazado 1264782" d="M350.033,402.293H253.8a4.026,4.026,0,0,1-4.025-4.025v-9.959a4.026,4.026,0,0,1,4.025-4.025h96.235a4.026,4.026,0,0,1,4.025,4.025v9.959a4.026,4.026,0,0,1-4.025,4.025" transform="translate(-48.716 -74.935)" fill="#496163"/>
            <path id="Trazado_1264783" data-name="Trazado 1264783" d="M348.445,400.051H252.21a4.025,4.025,0,0,1-4.025-4.025v-9.959a4.026,4.026,0,0,1,4.025-4.025h96.235a4.026,4.026,0,0,1,4.025,4.025v9.959a4.025,4.025,0,0,1-4.025,4.025" transform="translate(-48.407 -74.498)" fill="#fff"/>
            <path id="Trazado_1264784" data-name="Trazado 1264784" d="M270.857,391.693a6.336,6.336,0,1,1-6.337-6.337,6.337,6.337,0,0,1,6.337,6.337" transform="translate(-50.356 -75.145)" fill="#d9b59e"/>
            <line id="Línea_3628" data-name="Línea 3628" x2="71.404" transform="translate(224.609 312.937)" fill="none" stroke="#28364f" stroke-linecap="round" stroke-linejoin="round" stroke-width="0.75"/>
            <line id="Línea_3629" data-name="Línea 3629" x2="71.404" transform="translate(224.609 316.548)" fill="none" stroke="#28364f" stroke-linecap="round" stroke-linejoin="round" stroke-width="0.75"/>
            <line id="Línea_3630" data-name="Línea 3630" x2="71.404" transform="translate(224.609 320.159)" fill="none" stroke="#28364f" stroke-linecap="round" stroke-linejoin="round" stroke-width="0.75"/>
            <path id="Trazado_1264785" data-name="Trazado 1264785" d="M388.025,337.263H355.3a3.709,3.709,0,0,1-3.709-3.709V310.716a3.709,3.709,0,0,1,3.709-3.709h32.725a3.709,3.709,0,0,1,3.709,3.709v22.838a3.709,3.709,0,0,1-3.709,3.709" transform="translate(-68.562 -59.873)" fill="#5a4905"/>
            <rect id="Rectángulo_457717" data-name="Rectángulo 457717" width="32.629" height="22.346" transform="translate(286.785 250.613)" fill="#fff"/>
            <line id="Línea_3631" data-name="Línea 3631" x2="15.82" transform="translate(300.76 253.711)" fill="none" stroke="#415780" stroke-miterlimit="10" stroke-width="0.871"/>
            <line id="Línea_3632" data-name="Línea 3632" x2="15.82" transform="translate(300.76 256.743)" fill="none" stroke="#415780" stroke-miterlimit="10" stroke-width="0.871"/>
            <path id="Trazado_1264786" data-name="Trazado 1264786" d="M364.939,321.388,363.42,316.3a3.7,3.7,0,0,0-3.548-2.642H345.923a2.419,2.419,0,0,0-2.359,3.364l5.429,18.169a4.9,4.9,0,0,0,4.37,3.365h33.413a2.42,2.42,0,0,0,2.36-3.365L385.8,324.031a3.7,3.7,0,0,0-3.548-2.643Z" transform="translate(-66.969 -61.17)" fill="#fbce73"/>
            <path id="Trazado_1264787" data-name="Trazado 1264787" d="M521.283,119.1H485.513a7.031,7.031,0,0,0-7.032,7.031V138.7a1.327,1.327,0,0,1-.541,1.07L470.818,145a.73.73,0,0,0,.433,1.319h5.9a1.328,1.328,0,0,1,1.328,1.328v8.108a7.031,7.031,0,0,0,7.032,7.031h35.771a7.031,7.031,0,0,0,7.031-7.031V126.131A7.031,7.031,0,0,0,521.283,119.1Z" transform="translate(-91.743 -23.247)" fill="none" stroke="#bedce0" stroke-miterlimit="10" stroke-width="1.144"/>
            <path id="Trazado_1264788" data-name="Trazado 1264788" d="M522.9,130.464l3.658,3.658,5.076-5.075" transform="translate(-101.954 -25.185)" fill="none" stroke="#4a75c9" stroke-linecap="round" stroke-linejoin="round" stroke-width="1.144"/>
            <path id="Trazado_1264789" data-name="Trazado 1264789" d="M511.8,134.234H489.72a1.45,1.45,0,1,1,0-2.9H511.8a1.45,1.45,0,0,1,0,2.9" transform="translate(-95.203 -25.631)" fill="#ebbc3b"/>
            <path id="Trazado_1264790" data-name="Trazado 1264790" d="M522.9,144.5l3.658,3.658,5.076-5.075" transform="translate(-101.954 -27.921)" fill="none" stroke="#4a75c9" stroke-linecap="round" stroke-linejoin="round" stroke-width="1.144"/>
            <path id="Trazado_1264791" data-name="Trazado 1264791" d="M511.8,148.269H489.72a1.45,1.45,0,1,1,0-2.9H511.8a1.45,1.45,0,0,1,0,2.9" transform="translate(-95.203 -28.367)" fill="#ebbc3b"/>
            <path id="Trazado_1264792" data-name="Trazado 1264792" d="M522.9,158.535l3.658,3.658,5.076-5.075" transform="translate(-101.954 -30.657)" fill="none" stroke="#4a75c9" stroke-linecap="round" stroke-linejoin="round" stroke-width="1.144"/>
            <path id="Trazado_1264793" data-name="Trazado 1264793" d="M511.8,162.3H489.72a1.45,1.45,0,1,1,0-2.9H511.8a1.45,1.45,0,1,1,0,2.9" transform="translate(-95.203 -31.103)" fill="#ebbc3b"/>
            <path id="Trazado_1264794" data-name="Trazado 1264794" d="M398.756,107.169H457.3a3.811,3.811,0,0,0,3.811-3.81v-9.25c0-14.765-12.656-25.576-25.137-13.315C425.255,70.51,412.6,80.4,412.6,90.022c-8.61-2.912-16,2.214-17.606,12.713a3.827,3.827,0,0,0,3.763,4.434" transform="translate(-77.013 -14.743)" fill="#f0d5fe"/>
            <path id="Trazado_1264795" data-name="Trazado 1264795" d="M344.8,217.106H234.771a7.031,7.031,0,0,1-7.031-7.031V137.922a7.031,7.031,0,0,1,7.031-7.032H344.8a7.031,7.031,0,0,1,7.031,7.032v72.153a7.031,7.031,0,0,1-7.031,7.031" transform="translate(-44.422 -25.545)" fill="#fbce73"/>
            <path id="Trazado_1264796" data-name="Trazado 1264796" d="M300.718,176.874a31.225,31.225,0,1,1-31.225-31.225,31.226,31.226,0,0,1,31.225,31.225" transform="translate(-46.474 -28.421)" fill="#fff"/>
            <path id="Trazado_1264797" data-name="Trazado 1264797" d="M307.709,170.946a31.229,31.229,0,0,0-30.656-25.3v31.224Z" transform="translate(-54.034 -28.422)" fill="#96fef0"/>
            <path id="Trazado_1264798" data-name="Trazado 1264798" d="M308.278,183a31.389,31.389,0,0,0-.569-5.928L277.053,183l3.074,31.073A31.227,31.227,0,0,0,308.278,183" transform="translate(-54.034 -34.546)" fill="#4a75c9"/>
            <path id="Trazado_1264799" data-name="Trazado 1264799" d="M269.493,181.933,240.025,171.6a31.226,31.226,0,0,0,29.468,41.554c1.038,0,2.063-.053,3.074-.152Z" transform="translate(-46.474 -33.481)" fill="#6e9296"/>
            <path id="Trazado_1264800" data-name="Trazado 1264800" d="M240.451,169.31l29.468,10.329-24.141-19.8a31.173,31.173,0,0,0-5.326,9.473" transform="translate(-46.899 -31.187)" fill="#415780"/>
            <path id="Trazado_1264801" data-name="Trazado 1264801" d="M327.983,157.569a3.395,3.395,0,1,1-3.4-3.4,3.4,3.4,0,0,1,3.4,3.4" transform="translate(-62.638 -30.083)" fill="#5a4905"/>
            <line id="Línea_3633" data-name="Línea 3633" x2="26.212" transform="translate(267.551 127.486)" fill="none" stroke="#fff" stroke-miterlimit="10" stroke-width="0.842"/>
            <path id="Trazado_1264802" data-name="Trazado 1264802" d="M327.983,170.591a3.395,3.395,0,1,1-3.4-3.4,3.394,3.394,0,0,1,3.4,3.4" transform="translate(-62.638 -32.621)" fill="#4a75c9"/>
            <line id="Línea_3634" data-name="Línea 3634" x2="26.212" transform="translate(267.551 137.969)" fill="none" stroke="#fff" stroke-miterlimit="10" stroke-width="0.842"/>
            <path id="Trazado_1264803" data-name="Trazado 1264803" d="M327.983,183.612a3.395,3.395,0,1,1-3.4-3.4,3.394,3.394,0,0,1,3.4,3.4" transform="translate(-62.638 -35.159)" fill="#6e9296"/>
            <line id="Línea_3635" data-name="Línea 3635" x2="26.212" transform="translate(267.551 148.453)" fill="none" stroke="#fff" stroke-miterlimit="10" stroke-width="0.842"/>
            <path id="Trazado_1264804" data-name="Trazado 1264804" d="M327.983,196.634a3.395,3.395,0,1,1-3.4-3.4,3.394,3.394,0,0,1,3.4,3.4" transform="translate(-62.638 -37.698)" fill="#415780"/>
            <line id="Línea_3636" data-name="Línea 3636" x2="26.212" transform="translate(267.551 158.936)" fill="none" stroke="#fff" stroke-miterlimit="10" stroke-width="0.842"/>
            <path id="Trazado_1264805" data-name="Trazado 1264805" d="M327.983,209.656a3.395,3.395,0,1,1-3.4-3.4,3.394,3.394,0,0,1,3.4,3.4" transform="translate(-62.638 -40.236)" fill="#fff"/>
            <line id="Línea_3637" data-name="Línea 3637" x2="26.212" transform="translate(267.551 169.42)" fill="none" stroke="#fff" stroke-miterlimit="10" stroke-width="0.842"/>
            <path id="Trazado_1264806" data-name="Trazado 1264806" d="M118.718,209.924l7.432-.522a1.381,1.381,0,0,1,1.47,1.231l.5,4.71a1.652,1.652,0,0,1-1.643,1.828h-6.55a1.652,1.652,0,0,1-1.636-1.419l-.643-4.505a1.162,1.162,0,0,1,1.068-1.322" transform="translate(-22.961 -40.847)" fill="#de6767"/>
            <line id="Línea_3638" data-name="Línea 3638" x2="1.208" y2="6.231" transform="translate(96.593 170.092)" fill="none" stroke="#6e3c3c" stroke-miterlimit="10" stroke-width="0.5"/>
            <line id="Línea_3639" data-name="Línea 3639" x2="1.208" y2="6.231" transform="translate(99.2 170.092)" fill="none" stroke="#6e3c3c" stroke-miterlimit="10" stroke-width="0.5"/>
            <line id="Línea_3640" data-name="Línea 3640" x2="1.208" y2="6.231" transform="translate(101.808 170.092)" fill="none" stroke="#6e3c3c" stroke-miterlimit="10" stroke-width="0.5"/>
            <path id="Trazado_1264807" data-name="Trazado 1264807" d="M216.809,209.924l-7.432-.522a1.381,1.381,0,0,0-1.47,1.231l-.5,4.71a1.653,1.653,0,0,0,1.643,1.828h6.55a1.652,1.652,0,0,0,1.636-1.419l.643-4.505a1.162,1.162,0,0,0-1.068-1.322" transform="translate(-40.456 -40.847)" fill="#de6767"/>
            <line id="Línea_3641" data-name="Línea 3641" x1="1.208" y2="6.231" transform="translate(174.309 170.092)" fill="none" stroke="#6e3c3c" stroke-miterlimit="10" stroke-width="0.5"/>
            <line id="Línea_3642" data-name="Línea 3642" x1="1.208" y2="6.231" transform="translate(171.701 170.092)" fill="none" stroke="#6e3c3c" stroke-miterlimit="10" stroke-width="0.5"/>
            <line id="Línea_3643" data-name="Línea 3643" x1="1.208" y2="6.231" transform="translate(169.094 170.092)" fill="none" stroke="#6e3c3c" stroke-miterlimit="10" stroke-width="0.5"/>
            <rect id="Rectángulo_457718" data-name="Rectángulo 457718" width="6.196" height="33.749" transform="translate(303.613 114.558) rotate(-45)" fill="#4a75c9"/>
            <path id="Trazado_1264808" data-name="Trazado 1264808" d="M377.159,141.272l2.386,2.387a17.066,17.066,0,0,0,5.2-3.56l-3.207-3.207Z" transform="translate(-73.546 -26.715)" fill="#1b2536"/>
            <rect id="Rectángulo_457719" data-name="Rectángulo 457719" width="6.196" height="21.27" transform="translate(312.437 123.383) rotate(-45)" fill="#1b2536"/>
            <path id="Trazado_1264809" data-name="Trazado 1264809" d="M374.257,109.8a17.106,17.106,0,1,1-24.191,0,17.106,17.106,0,0,1,24.191,0" transform="translate(-67.289 -20.457)" fill="#4a75c9"/>
            <path id="Trazado_1264810" data-name="Trazado 1264810" d="M372.268,113.862a12.826,12.826,0,1,1-18.139,0,12.827,12.827,0,0,1,18.139,0" transform="translate(-68.325 -21.493)" fill="#fff"/>
            <path id="Trazado_1264811" data-name="Trazado 1264811" d="M357.189,134.689a10.144,10.144,0,0,1-.891-1.018" transform="translate(-69.48 -26.087)" fill="none" stroke="#bedce0" stroke-miterlimit="10" stroke-width="1.747"/>
            <path id="Trazado_1264812" data-name="Trazado 1264812" d="M354.5,128.209a10.135,10.135,0,0,1,2.187-11.071" transform="translate(-68.977 -22.864)" fill="none" stroke="#bedce0" stroke-miterlimit="10" stroke-width="1.747"/>
            <path id="Trazado_1264813" data-name="Trazado 1264813" d="M229.253,135.055H199.94a4.523,4.523,0,0,0-3.092,1.222l-6.466,6.061a1.317,1.317,0,0,1-2.217-.961v-40.95A7.031,7.031,0,0,1,195.2,93.4h34.057a7.031,7.031,0,0,1,7.031,7.032v27.6a7.031,7.031,0,0,1-7.031,7.032" transform="translate(-36.708 -18.236)" fill="#37dbc5"/>
            <path id="Trazado_1264814" data-name="Trazado 1264814" d="M228.93,106.827h-29.61a1.411,1.411,0,0,1,0-2.821h29.61a1.411,1.411,0,1,1,0,2.821Z" transform="translate(-38.607 -20.305)" fill="none" stroke="#fff" stroke-miterlimit="10" stroke-width="0.682"/>
            <path id="Trazado_1264815" data-name="Trazado 1264815" d="M228.93,115.834h-29.61a1.411,1.411,0,0,1,0-2.821h29.61a1.411,1.411,0,0,1,0,2.821Z" transform="translate(-38.607 -22.06)" fill="none" stroke="#fff" stroke-miterlimit="10" stroke-width="0.682"/>
            <path id="Trazado_1264816" data-name="Trazado 1264816" d="M228.93,124.84h-29.61a1.411,1.411,0,0,1,0-2.821h29.61a1.411,1.411,0,1,1,0,2.821Z" transform="translate(-38.607 -23.816)" fill="none" stroke="#fff" stroke-miterlimit="10" stroke-width="0.682"/>
            <path id="Trazado_1264817" data-name="Trazado 1264817" d="M228.93,133.846h-29.61a1.411,1.411,0,0,1,0-2.821h29.61a1.411,1.411,0,0,1,0,2.821Z" transform="translate(-38.607 -25.571)" fill="none" stroke="#fff" stroke-miterlimit="10" stroke-width="0.682"/>
          </g>
        </g>
      </g>
    </g>
  </g>
</svg>
