<svg xmlns="http://www.w3.org/2000/svg" xmlns:xlink="http://www.w3.org/1999/xlink" width="140.5" height="140" viewBox="0 0 140.5 140">
  <defs>
    <clipPath id="clip-path">
      <rect id="Rectángulo_454807" data-name="Rectángulo 454807" width="129.392" height="128.578" fill="#ffdc6b"/>
    </clipPath>
    <clipPath id="clip-path-2">
      <rect id="Rectángulo_455239" data-name="Rectángulo 455239" width="21.905" height="21.167" fill="#f0d5fe"/>
    </clipPath>
    <clipPath id="clip-path-3">
      <rect id="Rectángulo_457578" data-name="Rectángulo 457578" width="76.558" height="76.572" fill="none"/>
    </clipPath>
  </defs>
  <g id="Grupo_1205857" data-name="Grupo 1205857" transform="translate(-925.044 -4485.507)">
    <g id="Grupo_1205854" data-name="Grupo 1205854" transform="translate(925.044 4485.507)">
      <g id="Grupo_1177797" data-name="Grupo 1177797" transform="translate(3.608 3.493)">
        <rect id="Rectángulo_454806" data-name="Rectángulo 454806" width="129.392" height="128.578" rx="7" transform="translate(0.059)" fill="#e3a4fe"/>
        <path id="Rectángulo_454808" data-name="Rectángulo 454808" d="M0,0H90.392a12,12,0,0,1,12,12v88.578a0,0,0,0,1,0,0H12a12,12,0,0,1-12-12V0A0,0,0,0,1,0,0Z" transform="translate(15.059 14)" fill="#fff"/>
      </g>
      <g id="OBJECTS" transform="translate(0 0)">
        <g id="Grupo_1178078" data-name="Grupo 1178078">
          <path id="Trazado_998163" data-name="Trazado 998163" d="M0,0V21.167H14.386V13.534h7.52V0Z" transform="translate(0 0)" fill="#5d0b80"/>
          <g id="Grupo_1178077" data-name="Grupo 1178077" transform="translate(0 0)">
            <g id="Grupo_1178076" data-name="Grupo 1178076" clip-path="url(#clip-path-2)">
              <path id="Trazado_998164" data-name="Trazado 998164" d="M13.917,22.751a5.075,5.075,0,1,1,5.075,5.075,5.075,5.075,0,0,1-5.075-5.075" transform="translate(-11.423 -14.509)" fill="#fbf1ff"/>
            </g>
          </g>
        </g>
      </g>
      <rect id="Rectángulo_455274" data-name="Rectángulo 455274" width="13.423" height="19.449" transform="translate(108.404 120.551)" fill="#f0d5fe"/>
      <path id="Sustracción_129" data-name="Sustracción 129" d="M17.284,16.99H7.538V9.581H0V0H17.284Z" transform="translate(140 117.538) rotate(180)" fill="#5d0b80" stroke="rgba(0,0,0,0)" stroke-miterlimit="10" stroke-width="1"/>
    </g>
    <g id="Grupo_1206690" data-name="Grupo 1206690" transform="translate(953.587 4517.221)">
      <g id="Grupo_1206689" data-name="Grupo 1206689" clip-path="url(#clip-path-3)">
        <path id="Trazado_1264375" data-name="Trazado 1264375" d="M19.866.17a2.066,2.066,0,0,0-.823.506,77.827,77.827,0,0,0-7.566,7.567c-.729.969-.738,1.222,0,2.2a77.534,77.534,0,0,0,7.566,7.567c1.008.757,1.413.757,2.421,0a76,76,0,0,0,7.347-7.347,1.789,1.789,0,0,0,.105-2.527A82.5,82.5,0,0,0,21.464.676c-.557-.416-.832-.665-1.6-.506M75.361.178A4.452,4.452,0,0,0,74.2,1a67.763,67.763,0,0,0-6.8,6.8c-.983,1.231-1.113,1.687-.113,2.968a77.005,77.005,0,0,0,7.352,7.342c1.086.76,1.493.513,2.418-.214a74.415,74.415,0,0,0,7.456-7.458c.729-.969.738-1.222,0-2.2A77.824,77.824,0,0,0,76.952.676c-.541-.4-.845-.685-1.592-.5m-.232,55.707-8.051,7.96a1.649,1.649,0,0,0-.23,1.987l7.9,7.891a1.537,1.537,0,0,0,2.213,0,77.063,77.063,0,0,0,7.452-7.46c.927-1.17.809-1.564-.109-2.751a77.632,77.632,0,0,0-7.243-7.233,2.11,2.11,0,0,0-1.929-.394" transform="translate(-8.53 -0.093)" fill="#fff"/>
        <path id="Trazado_1264376" data-name="Trazado 1264376" d="M46.705,15.17a22.393,22.393,0,0,1,14.7,14.7c6.31-4.845,15.614-.315,15.137,7.8a9.348,9.348,0,0,1-13.249,7.75c-.373-.171-1.694-1.215-1.889-1.069a23.1,23.1,0,0,1-14.7,14.7c3.976,4.679,1.709,12.561-4.018,14.512A9.276,9.276,0,0,1,32.225,59.145l-5.371-2.688L8.749,75.582A5.582,5.582,0,0,1,.99,67.824L20.115,49.718l-2.688-5.371a9.341,9.341,0,0,1-14.75-5.215c-1.891-8.567,8.067-14.614,14.856-9.266a23.081,23.081,0,0,1,14.7-14.7A12.608,12.608,0,0,1,30.318,10.4c-.481-4.2,2.37-8.9,6.518-10.028,8.934-2.423,15.282,7.623,9.869,14.8M35.158,13.778a2.539,2.539,0,0,0,.723.45,18.39,18.39,0,0,1,7.222.05A6.2,6.2,0,0,0,38.48,3.109c-4.862.56-7.026,7.449-3.322,10.668m1.632,3.433c-17.837,1.815-23.545,25.518-9.368,36C41.8,63.831,61.947,51.928,59.4,34.17c-1.636-11.4-11.335-18.107-22.609-16.959M11.564,30.8a6.558,6.558,0,0,0-6.038,5.146,6.271,6.271,0,0,0,11.092,4.944,52.5,52.5,0,0,1-.188-5.663c.018-.828.5-1.363.02-2.2-.758-1.3-3.432-2.269-4.886-2.23M62.795,41.414c3.2,3.674,10.112,1.507,10.668-3.322a6.2,6.2,0,0,0-11.168-4.623,24.354,24.354,0,0,1,.43,3.973c-.021,1.225-.787,2.987.07,3.971M21.166,55.838c.271.263.623,1.065,1.055.989l2.1-2.1L22,52.254l-2.256,2.1c-.061.346,1.085,1.161,1.42,1.486m-3.74.571L3.4,69.574a2.618,2.618,0,0,0,3.183,3.839L20.163,59.147Zm18.251,3.545c-4.355,3.238-2.345,10.526,3.045,11.121a6.3,6.3,0,0,0,5.885-9.831c-1.285-1.83-1.572-1.138-3.267-1.1a52.279,52.279,0,0,1-5.664-.188" transform="translate(0 0)"/>
        <path id="Trazado_1264377" data-name="Trazado 1264377" d="M19.866.18c.766-.159,1.042.091,1.6.506a82.5,82.5,0,0,1,7.453,7.461,1.789,1.789,0,0,1-.105,2.527,76,76,0,0,1-7.347,7.347c-1.008.756-1.413.756-2.421,0a77.535,77.535,0,0,1-7.566-7.567c-.738-.98-.729-1.233,0-2.2A77.825,77.825,0,0,1,19.043.686,2.063,2.063,0,0,1,19.866.18m.2,3.707L14.677,9.433l5.547,5.388,5.388-5.547Z" transform="translate(-8.53 -0.103)"/>
        <path id="Trazado_1264378" data-name="Trazado 1264378" d="M273.541.178c.747-.186,1.051.095,1.592.5A77.874,77.874,0,0,1,282.7,8.243c.738.981.729,1.233,0,2.2a74.412,74.412,0,0,1-7.456,7.457c-.925.727-1.331.974-2.418.214a77.033,77.033,0,0,1-7.352-7.342c-1-1.28-.87-1.737.113-2.968a67.769,67.769,0,0,1,6.8-6.8,4.455,4.455,0,0,1,1.159-.827m.411,3.7-5.388,5.547,5.547,5.388L279.5,9.264Z" transform="translate(-206.711 -0.093)"/>
        <path id="Trazado_1264379" data-name="Trazado 1264379" d="M273.336,254.058a2.11,2.11,0,0,1,1.929.393,77.58,77.58,0,0,1,7.243,7.233c.919,1.187,1.036,1.582.109,2.751a77.087,77.087,0,0,1-7.452,7.46,1.538,1.538,0,0,1-2.213,0l-7.9-7.891a1.649,1.649,0,0,1,.23-1.987Zm4.793,10.612a13.581,13.581,0,0,1,1.408-1.555l-5.589-5.381-5.589,5.381,5.586,5.538c.286.039,3.675-3.418,4.183-3.983" transform="translate(-206.737 -198.266)"/>
        <path id="Trazado_1264380" data-name="Trazado 1264380" d="M106.015,78.021c11.274-1.147,20.973,5.558,22.609,16.96,2.548,17.757-17.6,29.66-31.977,19.037-14.177-10.479-8.469-34.181,9.368-36m.216,3.067c-1.154.13-4.322.746-4.323,2.242.66,2.654,3.645.737,5.606.577,11.986-.981,19.83,13.069,12.139,22.667-8.786,10.964-26.021,3.761-24.787-10.53.13-1.5,1.907-4.413-.372-4.888-2.013-.42-2.581,3.73-2.688,5.118a17.011,17.011,0,0,0,22.92,17.437c17.835-6.2,12.713-35.015-8.5-32.622m-8.781,4.36c-1.559.3-1.363,3.148.371,3.034a1.53,1.53,0,1,0-.371-3.034m10.741,3.3-8.62,8.723c-.229.746.039,1,.454,1.547a77.284,77.284,0,0,0,7.566,7.566c.969.729,1.222.738,2.2,0,2.683-2.019,5.194-5.726,7.9-7.887a1.65,1.65,0,0,0-.23-1.987,83.217,83.217,0,0,0-7.453-7.461,1.853,1.853,0,0,0-1.822-.5" transform="translate(-69.225 -60.81)" fill="#e6fffa"/>
        <path id="Trazado_1264381" data-name="Trazado 1264381" d="M154.23,273.364a52.281,52.281,0,0,0,5.664.188c1.695-.037,1.982-.728,3.267,1.1a6.3,6.3,0,0,1-5.885,9.831c-5.391-.595-7.4-7.882-3.046-11.121" transform="translate(-118.553 -213.41)" fill="#ffe9a1"/>
        <path id="Trazado_1264382" data-name="Trazado 1264382" d="M30.914,140.451c1.454-.039,4.128.926,4.886,2.23.485.834,0,1.369-.02,2.2a52.439,52.439,0,0,0,.188,5.663A6.271,6.271,0,0,1,24.875,145.6a6.558,6.558,0,0,1,6.038-5.146" transform="translate(-19.349 -109.646)" fill="#ffe9a1"/>
        <path id="Trazado_1264383" data-name="Trazado 1264383" d="M153.653,24.664c-3.7-3.219-1.54-10.109,3.322-10.668A6.2,6.2,0,0,1,161.6,25.164a18.391,18.391,0,0,0-7.222-.05,2.535,2.535,0,0,1-.722-.45" transform="translate(-118.495 -10.886)" fill="#ffe9a1"/>
        <path id="Trazado_1264384" data-name="Trazado 1264384" d="M284.534,151.132c-.857-.984-.091-2.746-.07-3.971a24.325,24.325,0,0,0-.43-3.973A6.2,6.2,0,0,1,295.2,147.81c-.556,4.828-7.471,7-10.668,3.322" transform="translate(-221.739 -109.718)" fill="#ffe9a1"/>
        <path id="Trazado_1264385" data-name="Trazado 1264385" d="M28.155,257.2l2.738,2.738L17.311,274.2a2.618,2.618,0,0,1-3.183-3.84Z" transform="translate(-10.729 -200.789)" fill="#5a4905"/>
        <path id="Trazado_1264386" data-name="Trazado 1264386" d="M91.443,241.836c-.335-.325-1.482-1.141-1.42-1.486l2.256-2.1,2.317,2.476-2.1,2.1c-.431.077-.784-.726-1.055-.989" transform="translate(-70.277 -185.998)" fill="#96fef0"/>
        <rect id="Rectángulo_457575" data-name="Rectángulo 457575" width="7.733" height="7.733" transform="translate(6.147 9.33) rotate(-45.833)" fill="#e3a4fe"/>
        <rect id="Rectángulo_457576" data-name="Rectángulo 457576" width="7.733" height="7.733" transform="translate(61.854 9.33) rotate(-45.833)" fill="#e3a4fe"/>
        <path id="Trazado_1264387" data-name="Trazado 1264387" d="M290.741,278.081c-.508.564-3.9,4.022-4.183,3.983l-5.586-5.538,5.589-5.381,5.589,5.381a13.581,13.581,0,0,0-1.408,1.555" transform="translate(-219.349 -211.677)" fill="#e3a4fe"/>
        <path id="Trazado_1264388" data-name="Trazado 1264388" d="M117.192,91.956c21.209-2.393,26.331,26.42,8.5,32.622a17.011,17.011,0,0,1-22.92-17.437c.107-1.387.675-5.537,2.688-5.117,2.28.475.5,3.386.372,4.888-1.235,14.292,16,21.495,24.786,10.53,7.691-9.6-.154-23.648-12.139-22.667-1.961.161-4.947,2.078-5.606-.577,0-1.5,3.169-2.112,4.323-2.242" transform="translate(-80.185 -71.678)"/>
        <path id="Trazado_1264389" data-name="Trazado 1264389" d="M146.686,127.1a1.853,1.853,0,0,1,1.822.5,83.219,83.219,0,0,1,7.453,7.461,1.649,1.649,0,0,1,.23,1.987c-2.708,2.161-5.219,5.868-7.9,7.887-.98.738-1.233.729-2.2,0a77.335,77.335,0,0,1-7.566-7.566c-.415-.551-.683-.8-.454-1.547Zm.422,3.7-5.388,5.547,5.547,5.388,5.388-5.547Z" transform="translate(-107.72 -99.164)"/>
        <path id="Trazado_1264390" data-name="Trazado 1264390" d="M124.926,112.22a1.53,1.53,0,1,1,.371,3.034c-1.734.114-1.93-2.735-.371-3.034" transform="translate(-96.701 -87.583)"/>
        <rect id="Rectángulo_457577" data-name="Rectángulo 457577" width="7.733" height="7.733" transform="translate(34 37.184) rotate(-45.833)" fill="#e3a4fe"/>
      </g>
    </g>
  </g>
</svg>
