<svg xmlns="http://www.w3.org/2000/svg" xmlns:xlink="http://www.w3.org/1999/xlink" width="96" height="96" viewBox="0 0 96 96">
  <defs>
    <clipPath id="clip-path">
      <rect id="Rectángulo_457364" data-name="Rectángulo 457364" width="54.736" height="58.747" fill="#fff"/>
    </clipPath>
  </defs>
  <g id="Grupo_1206111" data-name="Grupo 1206111" transform="translate(-383.746 -8400.001)">
    <path id="Trazado_997400" data-name="Trazado 997400" d="M48,0A48,48,0,1,1,0,48,48,48,0,0,1,48,0Z" transform="translate(383.746 8400.001)" fill="#5d0b80"/>
    <g id="Grupo_1099776" data-name="Grupo 1099776" transform="translate(401.746 8418)">
      <g id="Grupo_1099618" data-name="Grupo 1099618" transform="translate(-0.035 -0.409)">
        <rect id="Rectángulo_401104" data-name="Rectángulo 401104" width="59.378" height="60.093" transform="translate(0)" fill="none"/>
      </g>
      <g id="Grupo_1206552" data-name="Grupo 1206552" transform="translate(1.965 0.591)">
        <g id="Grupo_1206551" data-name="Grupo 1206551" clip-path="url(#clip-path)">
          <path id="Trazado_1263635" data-name="Trazado 1263635" d="M46.134,13.793c.994-.932,1.229-2.453,2.368-3.272a3.61,3.61,0,0,1,4.249.107c2.225,1.345,2.45,3.055,1.324,5.3-2.329,4.642-5.608,9.1-7.933,13.783l0,26.258a3.463,3.463,0,0,1-3.28,2.78L3.122,58.741A3.424,3.424,0,0,1,0,55.465V7.978A3.413,3.413,0,0,1,2.953,4.87c2.918-.315,6.368.236,9.343,0A1.517,1.517,0,0,1,12.8,3.439l5.281-.106a5.394,5.394,0,0,1,9.983.029c1.384.214,3.922-.326,5.155.029.611.176.7.941.624,1.481l9.64.039c.846.009,2.65,1.665,2.65,2.4ZM31.993,5.207H27.2c-.663,0-1-1.452-1.29-1.909a3.462,3.462,0,0,0-5.731.106c-.26.437-.574,1.8-1.228,1.8h-4.8V9.921H31.993ZM12.3,6.722H2.954c-.373,0-1.29,1.1-1.1,1.591l.083,47.574.81.874H43.4a4.568,4.568,0,0,0,.885-.8V32.984l-1.687,3.11c-.352,5.841.482,12.251.011,18.024-.023.283-.026.766-.287.932l-38.267.067L3.631,54.7V8.914a4.357,4.357,0,0,1,.5-.508H12.3Zm30.891,0H33.845V8.406H42.01a.981.981,0,0,1,.589.589V20.021l1.691-2.938c-.275-2.863.339-6.318,0-9.105a1.531,1.531,0,0,0-1.1-1.256M12.3,10.257h-6.9v43.1H40.747V38.034c-1.508.528-2.814,1.8-4.262,2.389-.467.19-.808.359-1.283.045a1.1,1.1,0,0,1-.35-.832c-.129-1.1-.124-5.633.247-6.492,1.366-3.161,4.11-6.506,5.647-9.672V10.257h-6.9c.054.6.041,1.094-.509,1.427l-20.534,0a1.512,1.512,0,0,1-.5-1.431m38.551,1.517a1.573,1.573,0,0,0-1.572.548L37.181,33.209l.033.359.76.4Zm1.85,1.009L39.863,34.549c-.346.523.312.631.633.938L52.774,14.458ZM36.707,35.509v2.525a7.369,7.369,0,0,0,2.356-1.345Z" transform="translate(-0.001 0.001)" fill="#fff"/>
          <path id="Trazado_1263636" data-name="Trazado 1263636" d="M63.473,168.042c.665.383,1.532-2.016,2.842-1.24,1.147,1.426-1.822,2.766-2.609,3.791-.324,1.89.7,4.813-2.037,5.2a28.592,28.592,0,0,1-5.6-.1,2.4,2.4,0,0,1-1.536-1.663,36.214,36.214,0,0,1-.012-5.55A2.517,2.517,0,0,1,56.8,166.55c1.174-.131,4.9-.156,5.8.43a5.03,5.03,0,0,1,.871,1.063m-7.092.528V173.7l.253.253h4.882c.439-.359.207-1.008.251-1.515-.57.357-.844,1.057-1.634.718a30.771,30.771,0,0,1-2.581-2.476.935.935,0,0,1,.924-1.447c.535.079,1.21,1.211,1.686,1.531.806.542,2.085-1.345,1.533-2.209a18.569,18.569,0,0,0-5.313.011" transform="translate(-45.263 -138.448)" fill="#fff"/>
          <path id="Trazado_1263637" data-name="Trazado 1263637" d="M66.446,241.016c1.076,1.07-2.221,3-2.793,3.774-.149,1.82.636,4.8-1.959,5.111a34.518,34.518,0,0,1-5.226,0,2.212,2.212,0,0,1-1.936-1.936,34.52,34.52,0,0,1,0-5.226,2.55,2.55,0,0,1,1.021-1.673c1.028-.65,6.033-.65,7.057,0,.471.3.69.894,1.1,1.253.807-.714,1.5-2.028,2.736-1.3m-10.059,1.643v5.134l.253.253h4.882c.439-.359.207-1.008.251-1.515-.513.327-.948,1.1-1.677.76-.162-.075-2.443-2.356-2.538-2.518a.8.8,0,0,1,.084-1.112c1.027-1.025,2.12.963,2.87,1.52.121-.323,1.172-.948,1.226-1.042a5.027,5.027,0,0,0,.013-1.456c-.188-.3-5.2-.275-5.364-.024" transform="translate(-45.268 -200.079)" fill="#fff"/>
          <path id="Trazado_1263638" data-name="Trazado 1263638" d="M63.587,93.989l.241-.006c.5-.284,1.405-1.4,1.9-1.482a1,1,0,0,1,1.061,1.062c-.081.768-2.694,2.353-2.947,2.955-.61,1.447.811,3.539-1.106,4.786-.908.591-4.618.556-5.8.429A2.518,2.518,0,0,1,54.658,99.8,31.716,31.716,0,0,1,54.8,93.87a2.724,2.724,0,0,1,1.813-1.384,32.707,32.707,0,0,1,5.2,0,2.217,2.217,0,0,1,1.781,1.5m-1.939.338H56.766l-.253.253v5.05l.253.253h4.882c.439-.359.207-1.008.251-1.515-.06-.083-.842,1.049-1.847.586-.152-.07-2.282-2.194-2.369-2.344a.906.906,0,0,1,.926-1.445c.531.075,1.211,1.211,1.684,1.53.858.577,2.288-1.622,1.354-2.367" transform="translate(-45.395 -76.83)" fill="#fff"/>
          <path id="Trazado_1263639" data-name="Trazado 1263639" d="M131.084,19.789a1.136,1.136,0,1,1,0,2.122c-1.091-.237-.894-1.858,0-2.122" transform="translate(-108.399 -16.401)" fill="#fff"/>
          <rect id="Rectángulo_457358" data-name="Rectángulo 457358" width="15.413" height="1.596" transform="translate(22.353 18.145)" fill="#fff"/>
          <rect id="Rectángulo_457359" data-name="Rectángulo 457359" width="15.413" height="1.596" transform="translate(22.353 21.537)" fill="#fff"/>
          <rect id="Rectángulo_457360" data-name="Rectángulo 457360" width="10.624" height="1.596" transform="translate(22.353 30.815)" fill="#fff"/>
          <rect id="Rectángulo_457361" data-name="Rectángulo 457361" width="10.624" height="1.596" transform="translate(22.353 34.206)" fill="#fff"/>
          <rect id="Rectángulo_457362" data-name="Rectángulo 457362" width="15.712" height="1.596" transform="translate(22.353 42.586)" fill="#fff"/>
          <rect id="Rectángulo_457363" data-name="Rectángulo 457363" width="15.712" height="1.596" transform="translate(22.353 45.978)" fill="#fff"/>
        </g>
      </g>
    </g>
  </g>
</svg>
