<svg id="Grupo_1206132" data-name="Grupo 1206132" xmlns="http://www.w3.org/2000/svg" xmlns:xlink="http://www.w3.org/1999/xlink" width="127.15" height="128" viewBox="0 0 127.15 128">
  <defs>
    <clipPath id="clip-path">
      <rect id="Rect치ngulo_457394" data-name="Rect치ngulo 457394" width="78.645" height="78.54" fill="none"/>
    </clipPath>
  </defs>
  <ellipse id="Elipse_13609" data-name="Elipse 13609" cx="63.576" cy="64" rx="63.576" ry="64" transform="translate(0)" fill="#fff"/>
  <g id="Grupo_1099776" data-name="Grupo 1099776" transform="translate(23.841 24)">
    <g id="Grupo_1099618" data-name="Grupo 1099618" transform="translate(-0.043 -1)">
      <rect id="Rect치ngulo_401104" data-name="Rect치ngulo 401104" width="78.645" height="80.124" transform="translate(0)" fill="none"/>
    </g>
    <g id="Grupo_1206569" data-name="Grupo 1206569" transform="translate(-0.042)">
      <g id="Grupo_1206568" data-name="Grupo 1206568" clip-path="url(#clip-path)">
        <path id="Trazado_1263769" data-name="Trazado 1263769" d="M39.439,68.1H11.022a2.066,2.066,0,0,1-.46-.467,24.2,24.2,0,0,1-.12-4.752,4.64,4.64,0,0,1,2.783-3.48c.218-.1,1.649-.579,1.741-.579h7.307V53.486H5.222c-2.105,0-5.279-3.212-5.221-5.45V12.078C.684,8.7,2.985,6.885,6.374,6.619l34.458.01c-.18-2.735-.009-5.636,3-6.628L67.282.009A4.576,4.576,0,0,1,70.065,3.49c-.46,4.772.6,10.661-.026,15.3a4.35,4.35,0,0,1-2.651,3.38l-.118,21c.325,1.249,1.033,2.25,1.328,3.543a11.514,11.514,0,0,1-4.8,12.226,55.549,55.549,0,0,1,5.542,2.8A21.676,21.676,0,0,1,78.061,73.9c.187.724,1.214,4.638,0,4.638H37c-1.463,0,.187-5.441.473-6.254.517-1.467,1.323-2.782,1.962-4.185M66.984,2.745c-.823-.779-20.029-.1-22.671-.173a2.16,2.16,0,0,0-.937,1.615,94.361,94.361,0,0,0,0,13.469c.422,4.576,5.948-.193,5.231,4.517,1.261-.439,2.934-2.111,4.188-2.307,3.714-.58,8.847.35,12.755,0,1.387-.126,1.847-.6,1.972-1.972a97.38,97.38,0,0,0,0-13.7,3.425,3.425,0,0,0-.529-1.442M40.83,9.179H5.918c-1.276,0-3.373,1.71-3.369,3.126L2.664,48.39a3.905,3.905,0,0,0,3.477,2.554l40.025-.01V47.571c0-.454.736-1.8.7-2.436H4.99a6,6,0,0,1-.692-.7L4.163,12.76c-.2-.735.933-1.957,1.523-1.957H40.83Zm0,4.176H6.73V42.583H48.37a11.276,11.276,0,0,1,12.178-4.176V22.4H53.241c-.457,0-6.6,4.212-7.835,4.69-1.094.424-2.486.013-2.223-1.271.108-.526,2.126-3.131,1.823-3.417a4.135,4.135,0,0,1-3.573-2.112,15.931,15.931,0,0,1-.6-1.485ZM64.724,22.4H63.1V39.568l1.624.928Zm-8.171,18.16c-11.6,1.265-9.681,19.146,2.468,17.545,10.592-1.4,9.19-18.816-2.468-17.545m-14.1,18.26V53.834l-.348-.348H24.824v5.335Zm8.583,0c-.739-.761-1.636-1.38-2.315-2.209-1.246-1.522-1.332-3.7-3.716-3.127v5.335ZM75.859,75.988a18.679,18.679,0,0,0-27.529-12.8,18.463,18.463,0,0,0-9.123,12.8ZM46.166,61.373H15.2a6.816,6.816,0,0,0-1.315.541c-1.375.856-.776,2.249-.888,3.635H41.41Z" transform="translate(0)"/>
        <path id="Trazado_1263770" data-name="Trazado 1263770" d="M63.11,57.569V63.02a16,16,0,0,0,.6,1.485,4.135,4.135,0,0,0,3.573,2.112c.3.287-1.715,2.891-1.823,3.417-.263,1.284,1.13,1.695,2.223,1.271,1.234-.478,7.378-4.69,7.835-4.69h7.307V82.622A11.276,11.276,0,0,0,70.65,86.8H29.01V57.569Zm-16.28.758c-17.895.513-17.352,27.9.621,27.8,18.183-.11,18.1-28.333-.621-27.8" transform="translate(-22.28 -44.214)" fill="#fbf1ff"/>
        <path id="Trazado_1263771" data-name="Trazado 1263771" d="M205.661,277.163H169.009a18.463,18.463,0,0,1,9.123-12.8,18.679,18.679,0,0,1,27.529,12.8" transform="translate(-129.803 -201.175)" fill="#e3a4fe"/>
        <path id="Trazado_1263772" data-name="Trazado 1263772" d="M49.268,39.569v1.624H14.124c-.59,0-1.721,1.222-1.523,1.957l.136,31.675a6,6,0,0,0,.692.7H55.3c.04.631-.7,1.981-.7,2.436v3.364l-40.025.01A3.905,3.905,0,0,1,11.1,78.78L10.987,42.7c0-1.416,2.093-3.126,3.369-3.126Z" transform="translate(-8.438 -30.39)" fill="#f0d5fe"/>
        <path id="Trazado_1263773" data-name="Trazado 1263773" d="M209.79,10.581a3.428,3.428,0,0,1,.529,1.442,97.383,97.383,0,0,1,0,13.7c-.125,1.369-.585,1.846-1.972,1.972-3.908.354-9.041-.576-12.755,0-1.254.2-2.927,1.869-4.188,2.307.717-4.71-4.809.059-5.231-4.517a94.389,94.389,0,0,1,0-13.469,2.159,2.159,0,0,1,.937-1.615c2.642.074,21.848-.606,22.671.173m-20.283,4.744a2.269,2.269,0,0,0,1.195.541c4.525.565,10.206-.446,14.86-.006,2.02-.235,2.139-2.542-.237-2.787a99.988,99.988,0,0,0-14.381,0c-1.263.132-2.412,1.065-1.437,2.252m.553,2.432a1.321,1.321,0,0,0,.192,2.5l16.248-.213a1.273,1.273,0,0,0-.484-2.328Zm-.562,4.886c-1,1.113.2,2.13,1.446,2.26a99.989,99.989,0,0,0,14.381,0c2.374-.245,2.374-2.538,0-2.782a99.937,99.937,0,0,0-14.387-.007,3.42,3.42,0,0,0-1.44.53" transform="translate(-142.806 -7.837)" fill="#f0d5fe"/>
        <path id="Trazado_1263774" data-name="Trazado 1263774" d="M218.13,174.633c11.658-1.271,13.06,16.148,2.468,17.545-12.149,1.6-14.072-16.279-2.468-17.545" transform="translate(-161.577 -134.072)" fill="#e3a4fe"/>
        <path id="Trazado_1263775" data-name="Trazado 1263775" d="M89.063,264.569l-4.755,4.176H55.89c.112-1.386-.486-2.779.888-3.635a6.814,6.814,0,0,1,1.315-.541Z" transform="translate(-42.897 -203.195)" fill="#f0d5fe"/>
        <path id="Trazado_1263776" data-name="Trazado 1263776" d="M124.64,235.9H107.01v-5.335h17.282l.348.348Z" transform="translate(-82.186 -177.083)" fill="#f0d5fe"/>
        <path id="Trazado_1263777" data-name="Trazado 1263777" d="M273.633,96.569v18.094l-1.624-.928V96.569Z" transform="translate(-208.91 -74.167)" fill="#fff"/>
        <path id="Trazado_1263778" data-name="Trazado 1263778" d="M200.041,235.593H194.01v-5.335c2.384-.574,2.47,1.6,3.716,3.127.679.829,1.576,1.448,2.315,2.209" transform="translate(-149.004 -176.771)" fill="#fff"/>
        <path id="Trazado_1263779" data-name="Trazado 1263779" d="M62.313,60.811c18.726-.537,18.8,27.686.621,27.8-17.973.109-18.516-27.282-.621-27.8m2.747,8.368c-2.767-2.8-7.27,1.434-4.562,4.447,2.754,3.064,7.608-1.37,4.562-4.447m4.9,14.257c.589-1.008-1.376-3.657-2.149-4.366A7.55,7.55,0,0,0,56.369,80.86c-1.351,2.435-.8,2.852,1.53,3.947a11.367,11.367,0,0,0,9.994-.078,21.974,21.974,0,0,0,2.069-1.293" transform="translate(-37.764 -46.698)" fill="#5d0b80"/>
        <path id="Trazado_1263780" data-name="Trazado 1263780" d="M200.109,23.966c-.975-1.187.174-2.12,1.437-2.252a99.922,99.922,0,0,1,14.381,0c2.377.246,2.257,2.553.237,2.787-4.654-.44-10.335.571-14.86.006a2.27,2.27,0,0,1-1.195-.541" transform="translate(-153.409 -16.478)"/>
        <path id="Trazado_1263781" data-name="Trazado 1263781" d="M200.041,61.224a3.42,3.42,0,0,1,1.44-.53,99.937,99.937,0,0,1,14.387.007c2.375.244,2.375,2.537,0,2.782a99.988,99.988,0,0,1-14.381,0c-1.249-.13-2.451-1.146-1.446-2.26" transform="translate(-153.349 -46.418)"/>
        <path id="Trazado_1263782" data-name="Trazado 1263782" d="M201.013,42.634l15.956-.039a1.273,1.273,0,0,1,.484,2.328l-16.248.213a1.321,1.321,0,0,1-.192-2.5" transform="translate(-153.759 -32.714)"/>
        <path id="Trazado_1263783" data-name="Trazado 1263783" d="M91.4,137.724a21.968,21.968,0,0,1-2.069,1.293,11.367,11.367,0,0,1-9.994.078c-2.328-1.1-2.881-1.512-1.53-3.947a7.55,7.55,0,0,1,11.444-1.791c.773.71,2.738,3.359,2.149,4.366" transform="translate(-59.198 -100.987)" fill="#fff"/>
        <path id="Trazado_1263784" data-name="Trazado 1263784" d="M99.8,93.882c3.046,3.076-1.809,7.51-4.562,4.447-2.708-3.012,1.8-7.242,4.562-4.447" transform="translate(-72.502 -71.402)" fill="#fff"/>
      </g>
    </g>
  </g>
</svg>
