<svg id="Grupo_1206125" data-name="Grupo 1206125" xmlns="http://www.w3.org/2000/svg" xmlns:xlink="http://www.w3.org/1999/xlink" width="127.15" height="128" viewBox="0 0 127.15 128">
  <defs>
    <clipPath id="clip-path">
      <rect id="Rectángulo_457393" data-name="Rectángulo 457393" width="72.056" height="80.124" fill="none"/>
    </clipPath>
  </defs>
  <ellipse id="Elipse_13609" data-name="Elipse 13609" cx="63.576" cy="64" rx="63.576" ry="64" transform="translate(0)" fill="#fff"/>
  <g id="Grupo_1099776" data-name="Grupo 1099776" transform="translate(23.841 24)">
    <g id="Grupo_1099618" data-name="Grupo 1099618" transform="translate(0.201 0)">
      <rect id="Rectángulo_401104" data-name="Rectángulo 401104" width="78.645" height="80.124" transform="translate(0)" fill="none"/>
    </g>
    <g id="Grupo_1206567" data-name="Grupo 1206567" transform="translate(3.202 0.001)">
      <rect id="Rectángulo_457392" data-name="Rectángulo 457392" width="56.8" height="77.59" transform="translate(7.446 1.301)" fill="#fbf1ff"/>
      <g id="Grupo_1206566" data-name="Grupo 1206566" transform="translate(0 -0.001)">
        <g id="Grupo_1206565" data-name="Grupo 1206565" clip-path="url(#clip-path)">
          <path id="Trazado_1263749" data-name="Trazado 1263749" d="M117.129,7.331h4.242c.95,0,1.848,1.52,1.954,2.4a99.281,99.281,0,0,1,0,13.311c-.032.539-.449.986-.418,1.33.436,4.732.419,9.431.423,14.267,0,.91,0,1.628,0,2.5,0,4.911.025,9.684-.418,14.491-.032.344.386.791.418,1.33a99.281,99.281,0,0,1,0,13.311c-.107.882-1,2.4-1.954,2.4h-4.242c-.23,1.517.487,5.964-.445,7.008a.82.82,0,0,1-.592.325l-45.638.017a1.2,1.2,0,0,1-.447-2.3h7.682a30.506,30.506,0,0,1-5.85-4.813c-12.415-14.571-.13-36.731,18.743-33.877,15.894,2.4,22.96,21.653,12.448,33.877a30.62,30.62,0,0,1-5.85,4.813h17.427V2.286H105.32c-.634,0-1.411-1.981.235-2.287L116.445.1c1.219.6.482,5.875.685,7.226m3.9,15.593V9.968l-.344-.344h-3.554v13.3Zm0,15.822V25.79l-.344-.344h-3.554v13.3ZM84.98,41.336c-7.05.758-13.361,6.506-15.152,13.282C65.367,71.5,84.641,84.462,98.537,73.925c14.678-11.13,5.311-34.617-13.557-32.59m36.048-.068h-3.9v13.3h3.554l.344-.344Zm0,15.822h-3.9v13.3h3.554l.344-.344Z" transform="translate(-51.5 0.001)"/>
          <path id="Trazado_1263750" data-name="Trazado 1263750" d="M8.762,2.835V8.109c3.965.706,3.847,5.893.037,6.916l-.007,4.4c1.54.8,2.949,1.737,2.949,3.7s-1.409,2.9-2.949,3.7l-.04,4.287c3.872,1.251,4,6.054-.006,7.173l.041,4.65c4.019.889,3.762,5.912-.036,7.058l.04,4.287c1.54.8,2.949,1.737,2.949,3.7s-1.409,2.9-2.949,3.7l-.04,4.287c3.769,1.224,4.082,6.209.009,7.033v5.274h5.159c.571,0,1.3,1.989-.234,2.288a47.842,47.842,0,0,1-6.41,0A1.645,1.645,0,0,1,6.24,79.308V73.232c-3.231.492-7.326-.938-5.973-4.941.212-.628,1.634-2.167,2.189-2.167H6.24V61.537H2.915A6.681,6.681,0,0,1,.962,60.445a3.589,3.589,0,0,1,.7-5.433,9.039,9.039,0,0,1,1.251-.583H6.24V49.842H2.456c-.655,0-1.964-1.5-2.19-2.167-1.357-4,2.746-5.436,5.973-4.941V38.377c-3.227.495-7.33-.943-5.973-4.941.225-.664,1.535-2.167,2.19-2.167H6.24V26.683H2.915A9.035,9.035,0,0,1,1.664,26.1a3.589,3.589,0,0,1-.7-5.433,6.676,6.676,0,0,1,1.953-1.092H6.24V14.988H2.456c-.556,0-1.977-1.54-2.189-2.167-1.353-4,2.742-5.433,5.973-4.941V1.8A4.289,4.289,0,0,1,6.792.75L49.3.711c1.014.474.38,2.124-.061,2.124ZM2.628,10.687a1.327,1.327,0,0,0,.271,1.8c.444.317,4.745.324,5.47.162a1.136,1.136,0,0,0,.045-2.238c-.719-.14-5.412-.089-5.786.28M8.932,24.1a1.278,1.278,0,0,0-.759-2.219c-1.11-.177-7.659-.427-5.478,2.039.6.675,5.705.683,6.237.179M2.628,35.57c.374.368,5.067.42,5.786.28a1.17,1.17,0,0,0,0-2.282c-.687-.135-5.114-.079-5.514.206a1.327,1.327,0,0,0-.271,1.8m0,9.971a1.327,1.327,0,0,0,.271,1.8c.4.285,4.827.341,5.514.206a1.17,1.17,0,0,0,0-2.283c-.719-.14-5.412-.089-5.786.28m6.3,11.469c-.532-.5-5.64-.5-6.237.179-2.181,2.467,4.368,2.216,5.478,2.039a1.278,1.278,0,0,0,.759-2.219m-6.3,13.415c.374.368,5.067.42,5.786.28a1.136,1.136,0,0,0-.045-2.238c-.725-.162-5.025-.155-5.47.162a1.327,1.327,0,0,0-.271,1.8" transform="translate(0 -0.548)"/>
          <path id="Trazado_1263751" data-name="Trazado 1263751" d="M71.521,59.965c1.315-.147,3.821-.11,2.866,1.836-.334.68-4.363.623-4.838.25a.887.887,0,0,1-.315-.6l0-19.48c.147-.773,1.022-1.07,1.7-1.048l37.672.185.7.673.055,19.457-.468.908-30.384.114c-1.181-.219-.886-2.293,0-2.293h28.548V43.456H71.521Z" transform="translate(-53.358 -31.537)"/>
          <path id="Trazado_1263752" data-name="Trazado 1263752" d="M141.489,61.974h17.656c.748,0,.748,2.293,0,2.293H141.489c-.689,0-1.056-1.931,0-2.293" transform="translate(-108.535 -47.763)"/>
          <path id="Trazado_1263753" data-name="Trazado 1263753" d="M97.934,61.521c1.169.213.863,2.293.229,2.293H90.826c-.748,0-.748-2.293,0-2.293,1.906,0,5.443-.3,7.108,0" transform="translate(-69.567 -47.31)"/>
          <path id="Trazado_1263754" data-name="Trazado 1263754" d="M90.436,82.747a58.925,58.925,0,0,1,7.057-.037c1.3.245.966,2.058-.229,2.28a41.789,41.789,0,0,1-6.4-.01,1.158,1.158,0,0,1-.429-2.233" transform="translate(-69.131 -63.676)"/>
          <path id="Trazado_1263755" data-name="Trazado 1263755" d="M92.879,179.854c18.868-2.027,28.236,21.46,13.557,32.589-13.9,10.537-33.17-2.425-28.709-19.308,1.79-6.776,8.1-12.524,15.152-13.282m.918,2.294c-12.039,1.083-18.428,15.1-11.377,25a15.929,15.929,0,0,0,26.742-1.378c6.338-11.162-2.662-24.763-15.365-23.62" transform="translate(-59.399 -138.518)" fill="#e3a4fe"/>
          <path id="Trazado_1263756" data-name="Trazado 1263756" d="M290.11,55.274h-3.9v-13.3h3.554l.344.344Z" transform="translate(-220.583 -32.349)" fill="#f0d5fe"/>
          <path id="Trazado_1263757" data-name="Trazado 1263757" d="M290.11,124.274h-3.9v-13.3h3.554l.344.344Z" transform="translate(-220.583 -85.527)" fill="#e3a4fe"/>
          <path id="Trazado_1263758" data-name="Trazado 1263758" d="M290.11,179.974V192.93l-.344.344h-3.554v-13.3Z" transform="translate(-220.583 -138.705)" fill="#fbf1ff"/>
          <path id="Trazado_1263759" data-name="Trazado 1263759" d="M290.11,248.974V261.93l-.344.344h-3.554v-13.3Z" transform="translate(-220.583 -191.883)" fill="#e3a4fe"/>
          <path id="Trazado_1263760" data-name="Trazado 1263760" d="M16.508,94.909c-.532.5-5.64.5-6.237-.179-2.181-2.467,4.368-2.216,5.478-2.039a1.278,1.278,0,0,1,.759,2.219" transform="translate(-7.576 -71.356)" fill="#e3a4fe"/>
          <path id="Trazado_1263761" data-name="Trazado 1263761" d="M16.508,245.037a1.278,1.278,0,0,1-.759,2.219c-1.11.177-7.659.427-5.478-2.039.6-.675,5.705-.683,6.237-.179" transform="translate(-7.576 -188.575)" fill="#e3a4fe"/>
          <path id="Trazado_1263762" data-name="Trazado 1263762" d="M10.626,145.767a1.327,1.327,0,0,1,.271-1.8c.4-.285,4.827-.341,5.514-.206a1.17,1.17,0,0,1,0,2.283c-.719.14-5.412.089-5.786-.28" transform="translate(-7.998 -110.744)" fill="#e3a4fe"/>
          <path id="Trazado_1263763" data-name="Trazado 1263763" d="M10.626,195.035c.374-.368,5.067-.42,5.786-.28a1.17,1.17,0,0,1,0,2.283c-.687.135-5.114.079-5.514-.206a1.327,1.327,0,0,1-.271-1.8" transform="translate(-7.998 -150.042)" fill="#e3a4fe"/>
          <path id="Trazado_1263764" data-name="Trazado 1263764" d="M10.626,43.035c.374-.368,5.067-.42,5.786-.28a1.136,1.136,0,0,1-.045,2.238c-.725.162-5.025.155-5.47-.162a1.327,1.327,0,0,1-.271-1.8" transform="translate(-7.998 -32.896)" fill="#e3a4fe"/>
          <path id="Trazado_1263765" data-name="Trazado 1263765" d="M10.626,297.8A1.327,1.327,0,0,1,10.9,296c.444-.317,4.745-.324,5.47-.162a1.136,1.136,0,0,1,.045,2.238c-.719.14-5.412.089-5.786-.28" transform="translate(-7.998 -227.924)" fill="#e3a4fe"/>
          <path id="Trazado_1263766" data-name="Trazado 1263766" d="M101.913,190.046c12.7-1.143,21.7,12.458,15.365,23.62a15.929,15.929,0,0,1-26.742,1.378c-7.051-9.9-.662-23.915,11.377-25m.241,2.49c-.674-.431-3.989.815-4.792,1.215a13.669,13.669,0,0,0-7.345,10.766c1.9.238,2.011,2.495.021,2.434a13.622,13.622,0,0,0,12.009,12.393c.64-2.147,2.165-2.142,2.8,0a13.621,13.621,0,0,0,12.009-12.393c-1.915.154-1.933-2.335-.016-2.316a13.458,13.458,0,0,0-7.308-10.884c-.953-.475-3.711-1.5-4.673-1.264-.321.079-.267,1.411-1.414,1.412s-1.069-1.218-1.3-1.362" transform="translate(-67.515 -146.416)"/>
          <path id="Trazado_1263767" data-name="Trazado 1263767" d="M110.272,200.832c.227.145.161,1.363,1.3,1.362s1.093-1.333,1.414-1.412c.962-.235,3.72.789,4.673,1.264a13.458,13.458,0,0,1,7.308,10.884c-1.917-.018-1.9,2.47.016,2.316a13.622,13.622,0,0,1-12.009,12.393c-.638-2.141-2.163-2.147-2.8,0a13.622,13.622,0,0,1-12.009-12.393c1.989.061,1.88-2.2-.021-2.434a13.668,13.668,0,0,1,7.345-10.766c.8-.4,4.117-1.645,4.792-1.215m2.557,12.117v-7.911a1.255,1.255,0,0,0-2.473.049c-.443,2.013.235,5.158-.039,7.3-.14,1.1-1.353,1.506-.207,2.938,1.193,1.49,2.355.107,3.3-.073,1.138-.216,5.05.447,5.5-.468.287-.586-.009-1.835-.692-1.835Z" transform="translate(-75.633 -154.711)" fill="#f0d5fe"/>
          <path id="Trazado_1263768" data-name="Trazado 1263768" d="M151.434,223.93h5.389c.683,0,.979,1.249.692,1.835-.448.915-4.36.252-5.5.468-.947.18-2.109,1.563-3.3.073-1.146-1.432.067-1.84.207-2.938.273-2.141-.4-5.287.039-7.3a1.255,1.255,0,0,1,2.473-.049Z" transform="translate(-114.238 -165.693)"/>
        </g>
      </g>
    </g>
  </g>
</svg>
