<svg id="Grupo_1206124" data-name="Grupo 1206124" xmlns="http://www.w3.org/2000/svg" xmlns:xlink="http://www.w3.org/1999/xlink" width="127.15" height="128" viewBox="0 0 127.15 128">
  <defs>
    <clipPath id="clip-path">
      <rect id="Rectángulo_457391" data-name="Rectángulo 457391" width="73" height="73" transform="translate(0.125 0)" fill="none"/>
    </clipPath>
  </defs>
  <ellipse id="Elipse_13609" data-name="Elipse 13609" cx="63.576" cy="64" rx="63.576" ry="64" transform="translate(0)" fill="#fff"/>
  <g id="Grupo_1099776" data-name="Grupo 1099776" transform="translate(23.841 24)">
    <g id="Grupo_1099618" data-name="Grupo 1099618" transform="translate(-0.102 0)">
      <rect id="Rectángulo_401104" data-name="Rectángulo 401104" width="78.645" height="80.124" transform="translate(0)" fill="none"/>
    </g>
    <g id="Grupo_1206564" data-name="Grupo 1206564" transform="translate(2.775 4.005)">
      <g id="Grupo_1206563" data-name="Grupo 1206563" transform="translate(-0.003 -0.005)" clip-path="url(#clip-path)">
        <path id="Trazado_1263719" data-name="Trazado 1263719" d="M2.3,37.75c-.766-.011-1.539.008-2.3,0V27.379c0-1.523,1.888-3.667,3.209-4.333,1.25-.63,8.177-2.311,8.432-2.673a3.963,3.963,0,0,0,.058-1.76c-.036-.105-1.285-1.139-1.606-1.536C7.578,13.965,7.458,7.345,9.47,3.955a8.309,8.309,0,0,1,14.562.858c1.2,2.652,1.081,8.831-.479,11.339-.736,1.184-3.248,2.749-2.2,4.122a37.121,37.121,0,0,0,5.574,1.77c.8,0,1.528-.91,2.266-1.3a13.831,13.831,0,0,1,12.192-.807c.914.37,3.54,2.273,3.777,2.312a2.478,2.478,0,0,0,.776-.051c.463-.066,5.354-1.577,5.6-1.743,1.68-1.152-1.363-3.282-2.044-4.432-1.475-2.492-1.582-8.592-.4-11.21,2.953-6.535,12.6-6.292,15.182.408,1.281,3.322,1.061,9-1.242,11.856-.321.4-1.57,1.431-1.606,1.536a3.963,3.963,0,0,0,.058,1.76c.255.361,7.182,2.043,8.432,2.673,1.321.666,3.209,2.811,3.209,4.333V37.75c-.766.008-1.539-.011-2.3,0-.415-2.878.829-9.027-.663-11.384-1.324-2.091-7.078-2.6-9.33-3.661-1.653,1.369-2.609,2.359-4.97,2.036-1.585-.216-2.995-1.957-3.4-2.035-.2-.04-3.472.986-4.008,1.16-.255.083-.884.157-.885.472A6.287,6.287,0,0,1,50.7,30.625l2.516-1.567c6.83-2.357,11.532,1.824,11.73,8.692.081,2.809-.093,5.349-1.921,7.612-.95,1.176-2.089,1.3-1.611,3.15,3.32,1.866,9.386,1.575,11.181,5.58.088.2.523,1.489.523,1.572V67.292H58.56a4.912,4.912,0,0,0-.733.733v5.133H15.295V68.025a4.912,4.912,0,0,0-.733-.733H0V55.663c0-.083.435-1.376.523-1.572,1.678-3.744,7.469-3.94,10.863-5.27,1.25-1.736-.357-2.3-1.293-3.46-1.828-2.263-2-4.8-1.921-7.612.2-6.968,5.005-11.109,11.878-8.63l2.578,1.715a11.513,11.513,0,0,1,1.359-4.612c.382-.78,1.186-1.4,1.157-2.3-.978.109-3.811-1.348-4.477-1.218-.4.079-1.813,1.819-3.4,2.035-2.36.322-3.316-.668-4.97-2.036-2.252,1.058-8.006,1.57-9.33,3.661C1.476,28.723,2.72,34.872,2.3,37.75M16.237,8.208c1.675.336,4.383-.249,6.181,0C21.887.6,11.071.513,10.684,8.209a3.73,3.73,0,0,0,2.079-.332c.439-.246.911-1.142,1.379-1.142.4,0,1.38,1.331,2.1,1.474m34.465,0h6.181c.558,0,1.692-1.474,2.1-1.474.468,0,.94.9,1.379,1.142a3.73,3.73,0,0,0,2.079.332C62.05.513,51.234.6,50.7,8.208M22.418,10.722H16.447c-.653,0-1.867-.824-2.3-.823-.624,0-2.438,1.223-3.458.822-.734,9.212,12.3,9.252,11.734,0m34.256,0c-1.842.225-4.083-.166-5.971,0-.57,9.251,12.468,9.211,11.734,0-1.021.4-2.835-.822-3.458-.822-.384,0-1.628.741-2.3.823m-37.819,9.01a14.383,14.383,0,0,1-2.234.338c-1.014.006-3.6-.987-2.258,1.118,1.43,2.238,4.915,1.241,4.492-1.456m40.227,0a10.342,10.342,0,0,1-4.816,0c-.355,3.664,4.906,3.467,4.816,0M48.4,34.188V29.264a7.185,7.185,0,0,0-1.12-2.337c-.533-.57-1.482-.812-2.009-1.238a24.163,24.163,0,0,0-3.434-2.851,11.386,11.386,0,0,0-17,11.352c2.479-1.616,5.2-.893,7.968-1.041a16.728,16.728,0,0,0,5.894-1.229c1.126-.484,2.077-1.258,3.208-1.712.2.577,1.014,2.609,1.468,2.829.573.277,1.806.026,2.57.154.885.147,1.585.841,2.46,1m-37.713,2.3h6.181c.524,0,1.712-1.417,1.914-1.452.294-.051,1.244,1.168,1.956,1.353a5.942,5.942,0,0,0,1.682.1c-.556-7.551-11.326-7.629-11.732,0m51.75,0c-.406-7.63-11.177-7.552-11.732,0a5.942,5.942,0,0,0,1.682-.1c.712-.185,1.662-1.4,1.956-1.353.2.035,1.391,1.452,1.914,1.452ZM43.579,35.445c-1.821.26-2.281-.193-2.727-1.886a24.933,24.933,0,0,1-2.4,1.052,19.579,19.579,0,0,1-3.566.834H29.542v7.228a17.931,17.931,0,0,0,1.006,2.346,7.13,7.13,0,0,0,12.025,0,17.931,17.931,0,0,0,1.006-2.346Zm-16.342.419c-3.312.554-3.259,5.719,0,6.285ZM45.884,42.15c3.259-.566,3.312-5.731,0-6.285ZM16.657,39.007c-1.811.244-4.1-.18-5.971,0-.767,9.245,12.354,9.249,11.734,0-.988.441-3.026-.841-3.633-.789-.42.036-1.558.713-2.13.791m45.779,0H56.465c-.463,0-1.721-.756-2.13-.791-.607-.052-2.645,1.231-3.633.789-.62,9.25,12.5,9.246,11.734,0M24.1,43.2c-.021,1.831-4,3.7-2.84,5.456.226.343,7.089,2.294,7.854,2.411.376.058.951.235,1.282,0a5.138,5.138,0,0,0,.162-2.494c-.1-.287-.632-.456-.9-.78-.633-.78-1.312-2.306-1.782-2.827-.3-.334-1.568-.457-2.186-.747-.586-.274-.993-.783-1.594-1.022m24.925,0c-.6.239-1.008.748-1.594,1.022-.619.29-1.886.413-2.186.747-.47.521-1.15,2.047-1.782,2.827-.263.324-.8.493-.9.78a5.138,5.138,0,0,0,.162,2.494c.331.232.906.054,1.282,0,.765-.117,7.627-2.068,7.854-2.411,1.158-1.753-2.819-3.626-2.84-5.456m-30.168,4.82c-1.648.522-3.141.251-4.818.21.165,3.378,5.185,3.3,4.818-.21m40.229.21c-1.677.041-3.17.312-4.818-.21-.381,3.472,4.631,3.622,4.818.21M40.016,50.112a9.8,9.8,0,0,1-6.912,0c-.889,1.1,3.061,3.768,3.456,3.768s4.342-2.659,3.456-3.768M16.552,62.473c-.418.007-.84,0-1.258,0-.22-3.609,1.274-7.062,4.565-8.741l4.863-1.523c-.818-.069-3.473-1.332-4.056-1.219a22.647,22.647,0,0,1-2.4,1.782A5.073,5.073,0,0,1,14.1,52.46c-.535-.315-1.39-1.478-1.8-1.471-2.193,1.026-8.068,1.642-9.33,3.662A7.891,7.891,0,0,0,2.3,56.292v8.381a2.1,2.1,0,0,0,.314.314h4.19a2.1,2.1,0,0,0,.314-.314V56.606h2.3v8.381H15.19a10.327,10.327,0,0,1,1.362.838A8.742,8.742,0,0,1,17.6,67.4v3.143a2.1,2.1,0,0,0,.314.314h5.447a2.1,2.1,0,0,0,.314-.314V61.425h2.3v9.428h5.762c.075,0,.247-.231.282-.347.087-3.641,1.482-7.406.449-10.968-.334-.29-2.531,1.456-2.721,1.256l-1.277-6.683c-.248-.209-5.137.915-5.85,1.129-3.813,1.149-4.97,3.3-5.028,7.229-.347.016-.7,0-1.046,0m40.018,3.352a10.328,10.328,0,0,1,1.362-.838h5.762V56.606H66v8.066a2.1,2.1,0,0,0,.314.314H70.5a2.1,2.1,0,0,0,.314-.314V56.292a7.891,7.891,0,0,0-.663-1.642c-1.262-2.02-7.137-2.636-9.33-3.662-.411-.008-1.265,1.156-1.8,1.471a5.073,5.073,0,0,1-4.171.312,22.647,22.647,0,0,1-2.4-1.782c-.582-.113-3.237,1.15-4.056,1.219l4.263,1.285c3.73,1.556,5.368,5.048,5.165,8.98-.418,0-.84.006-1.258,0-.348-.006-.7.014-1.046,0-.058-3.93-1.215-6.08-5.028-7.229-.713-.215-5.6-1.339-5.85-1.129L43.369,60.8c-.189.2-2.386-1.546-2.721-1.256-1.033,3.562.362,7.327.449,10.968.035.116.207.347.282.347h5.762V61.425h2.3v9.114a2.1,2.1,0,0,0,.314.314h5.447a2.1,2.1,0,0,0,.314-.314V67.4a8.742,8.742,0,0,1,1.048-1.571m-22.21-10.27c.148-.212-.083-.373-.22-.508s-2.034-1.538-2.172-1.6a1.885,1.885,0,0,0-1.168-.193l.629,3.771a32.5,32.5,0,0,0,2.93-1.47m7.962-2.3a1.885,1.885,0,0,0-1.168.193c-.138.061-2.031,1.458-2.172,1.6s-.368.3-.22.508a32.5,32.5,0,0,0,2.93,1.47ZM38.745,58.1a9.186,9.186,0,0,0-2.184-1.086A6.952,6.952,0,0,0,34.349,58.2a13.428,13.428,0,0,0,.669,1.943,11.382,11.382,0,0,0,3.137-.1,11,11,0,0,0,.589-1.945m.016,12.755-.869-8.036c-.169-.538-2.492-.537-2.663,0l-.869,8.036Z" transform="translate(0.002 -0.032)" fill="#050504"/>
        <path id="Trazado_1263720" data-name="Trazado 1263720" d="M10.641,123.213c.415-2.878-.829-9.027.663-11.384,1.324-2.091,7.078-2.6,9.33-3.662,1.653,1.369,2.609,2.359,4.97,2.036,1.586-.216,2.994-1.957,3.4-2.035.666-.13,3.5,1.327,4.477,1.218.029.9-.775,1.519-1.157,2.3a11.513,11.513,0,0,0-1.359,4.612l-2.578-1.715c-6.873-2.478-11.677,1.663-11.878,8.63-1.952-.021-3.915.028-5.866,0" transform="translate(-8.335 -85.496)" fill="#e3a4fe"/>
        <path id="Trazado_1263721" data-name="Trazado 1263721" d="M250.262,123.24c-1.952.028-3.914-.021-5.866,0-.2-6.868-4.9-11.049-11.73-8.692l-2.516,1.567a6.287,6.287,0,0,0-3.142-6.287c0-.315.631-.389.885-.472.537-.174,3.8-1.2,4.008-1.16.4.078,1.813,1.819,3.4,2.035,2.36.322,3.316-.668,4.97-2.036,2.252,1.058,8.006,1.57,9.33,3.661,1.492,2.357.248,8.506.663,11.384" transform="translate(-179.444 -85.522)" fill="#e3a4fe"/>
        <rect id="Rectángulo_457385" data-name="Rectángulo 457385" width="4" height="13" transform="translate(43.125 5)" fill="#050504"/>
        <rect id="Rectángulo_457386" data-name="Rectángulo 457386" width="4" height="13" transform="translate(26.125 5)" fill="#050504"/>
        <rect id="Rectángulo_457387" data-name="Rectángulo 457387" width="2" height="8" transform="translate(39.125 5)" fill="#050504"/>
        <rect id="Rectángulo_457388" data-name="Rectángulo 457388" width="2" height="8" transform="translate(32.125 5)" fill="#050504"/>
        <path id="Trazado_1263722" data-name="Trazado 1263722" d="M131.328,0c-.042,1.863.556,2.822-1.793,2.525-1.259-.159-.557-1.537-.723-2.525Z" transform="translate(-101.784 0.004)" fill="#050504"/>
        <path id="Trazado_1263723" data-name="Trazado 1263723" d="M210.328,0c-.042,1.863.556,2.822-1.793,2.525-1.259-.159-.557-1.537-.723-2.525Z" transform="translate(-164.232 0.004)" fill="#050504"/>
        <rect id="Rectángulo_457389" data-name="Rectángulo 457389" width="2.307" height="2.516" transform="translate(38.97 15.298)" fill="#050504"/>
        <rect id="Rectángulo_457390" data-name="Rectángulo 457390" width="2.307" height="2.516" transform="translate(31.847 15.298)" fill="#050504"/>
        <path id="Trazado_1263724" data-name="Trazado 1263724" d="M141.772,114.3c-.875-.156-1.575-.85-2.46-1-.764-.128-2,.123-2.57-.154-.455-.22-1.266-2.253-1.468-2.829-1.131.454-2.082,1.228-3.208,1.712a16.728,16.728,0,0,1-5.894,1.229c-2.772.149-5.489-.575-7.968,1.041a11.386,11.386,0,0,1,17-11.352,24.162,24.162,0,0,1,3.434,2.851c.527.426,1.477.667,2.009,1.238a7.185,7.185,0,0,1,1.12,2.337Z" transform="translate(-93.372 -80.142)" fill="#5d0b80"/>
        <path id="Trazado_1263725" data-name="Trazado 1263725" d="M79,266.366c.348-.006.7.014,1.046,0,.058-3.93,1.215-6.08,5.028-7.229.713-.215,5.6-1.339,5.85-1.129l1.277,6.683c.189.2,2.386-1.546,2.721-1.256,1.033,3.562-.362,7.327-.449,10.968-.035.116-.207.347-.282.347H88.428v-9.428h-2.3v9.114a2.1,2.1,0,0,1-.314.314H80.362a2.1,2.1,0,0,1-.314-.314V271.29A8.741,8.741,0,0,0,79,269.719Z" transform="translate(-62.447 -203.926)" fill="#f5f5f5"/>
        <path id="Trazado_1263726" data-name="Trazado 1263726" d="M208.5,269.719a8.741,8.741,0,0,0-1.048,1.571v3.143a2.1,2.1,0,0,1-.314.314h-5.447a2.1,2.1,0,0,1-.314-.314v-9.114h-2.3v9.428h-5.762c-.075,0-.247-.231-.282-.347-.087-3.641-1.482-7.406-.449-10.968.334-.29,2.531,1.456,2.721,1.256l1.277-6.683c.248-.209,5.137.915,5.85,1.129,3.813,1.149,4.97,3.3,5.028,7.229.347.016.7,0,1.046,0Z" transform="translate(-151.93 -203.926)" fill="#f5f5f5"/>
        <path id="Trazado_1263727" data-name="Trazado 1263727" d="M239.177,254.656c.418.007.84,0,1.258,0,.2-3.932-1.435-7.423-5.165-8.98l-4.263-1.285c.818-.069,3.473-1.332,4.056-1.219a22.653,22.653,0,0,0,2.4,1.782,5.073,5.073,0,0,0,4.171-.312c.535-.315,1.39-1.478,1.8-1.471,2.193,1.026,8.068,1.642,9.33,3.662a7.892,7.892,0,0,1,.663,1.642v8.381a2.1,2.1,0,0,1-.314.314h-4.19a2.1,2.1,0,0,1-.314-.314v-8.066h-2.3v8.381h-5.762a10.328,10.328,0,0,0-1.362.838Z" transform="translate(-182.606 -192.215)" fill="#f0d5fe"/>
        <path id="Trazado_1263728" data-name="Trazado 1263728" d="M25.247,258.008a10.327,10.327,0,0,0-1.362-.838H18.124v-8.381h-2.3v8.066a2.1,2.1,0,0,1-.314.314h-4.19a2.1,2.1,0,0,1-.314-.314v-8.381a7.891,7.891,0,0,1,.663-1.642c1.262-2.02,7.137-2.636,9.33-3.662.411-.008,1.265,1.156,1.8,1.471a5.073,5.073,0,0,0,4.171.312,22.65,22.65,0,0,0,2.4-1.782c.582-.113,3.237,1.15,4.056,1.219l-4.863,1.523c-3.291,1.679-4.786,5.132-4.565,8.741.418,0,.84.006,1.258,0Z" transform="translate(-8.694 -192.215)" fill="#f0d5fe"/>
        <path id="Trazado_1263729" data-name="Trazado 1263729" d="M155.038,161.89v7.228a17.93,17.93,0,0,1-1.006,2.346,7.13,7.13,0,0,1-12.025,0A17.932,17.932,0,0,1,141,169.118V161.89h5.343a19.578,19.578,0,0,0,3.566-.834,24.935,24.935,0,0,0,2.4-1.052c.447,1.693.906,2.146,2.727,1.886" transform="translate(-111.457 -126.477)" fill="#fbf1ff"/>
        <path id="Trazado_1263730" data-name="Trazado 1263730" d="M253.648,183.017c.767,9.245-12.354,9.249-11.734,0,.988.441,3.026-.841,3.633-.789.409.035,1.667.79,2.13.79Z" transform="translate(-191.211 -144.042)" fill="#fbf1ff"/>
        <path id="Trazado_1263731" data-name="Trazado 1263731" d="M56.849,183.017c.573-.077,1.71-.754,2.13-.79.607-.052,2.645,1.231,3.633.789.62,9.25-12.5,9.246-11.734,0,1.868-.18,4.16.244,5.971,0" transform="translate(-40.191 -144.042)" fill="#fbf1ff"/>
        <path id="Trazado_1263732" data-name="Trazado 1263732" d="M62.616,47.9c.57,9.251-12.468,9.211-11.734,0,1.021.4,2.835-.822,3.458-.822.438,0,1.652.823,2.3.823Z" transform="translate(-40.196 -37.209)" fill="#fbf1ff"/>
        <path id="Trazado_1263733" data-name="Trazado 1263733" d="M247.9,47.9c.677-.083,1.921-.824,2.3-.823.624,0,2.438,1.223,3.458.822.734,9.212-12.3,9.252-11.734,0,1.888-.166,4.129.225,5.971,0" transform="translate(-191.227 -37.209)" fill="#fbf1ff"/>
        <path id="Trazado_1263734" data-name="Trazado 1263734" d="M56.549,17.358c-.715-.143-1.692-1.474-2.1-1.474-.468,0-.94.9-1.379,1.142A3.73,3.73,0,0,1,51,17.359c.386-7.7,11.2-7.606,11.734,0-1.8-.249-4.505.336-6.181,0" transform="translate(-40.31 -9.183)" fill="#5d0b80"/>
        <path id="Trazado_1263735" data-name="Trazado 1263735" d="M242,17.358c.531-7.605,11.347-7.695,11.734,0a3.73,3.73,0,0,1-2.079-.332c-.439-.246-.911-1.142-1.379-1.142-.4,0-1.537,1.474-2.1,1.474Z" transform="translate(-191.296 -9.183)" fill="#5d0b80"/>
        <path id="Trazado_1263736" data-name="Trazado 1263736" d="M51,152.523c.406-7.63,11.177-7.552,11.732,0a5.942,5.942,0,0,1-1.682-.1c-.712-.185-1.662-1.4-1.956-1.353-.2.035-1.391,1.452-1.914,1.452Z" transform="translate(-40.313 -116.063)" fill="#5d0b80"/>
        <path id="Trazado_1263737" data-name="Trazado 1263737" d="M253.735,152.523h-6.181c-.524,0-1.712-1.417-1.914-1.452-.294-.051-1.244,1.168-1.956,1.353a5.942,5.942,0,0,1-1.682.1c.556-7.551,11.326-7.629,11.732,0" transform="translate(-191.298 -116.063)" fill="#5d0b80"/>
        <path id="Trazado_1263738" data-name="Trazado 1263738" d="M168.4,306.167H164l.869-8.036c.171-.537,2.493-.538,2.663,0Z" transform="translate(-129.638 -235.346)" fill="#e3a4fe"/>
        <path id="Trazado_1263739" data-name="Trazado 1263739" d="M164.428,239.009c.886,1.108-3.065,3.767-3.456,3.767s-4.344-2.666-3.456-3.767a9.8,9.8,0,0,0,6.912,0" transform="translate(-124.41 -188.929)" fill="#fbf1ff"/>
        <path id="Trazado_1263740" data-name="Trazado 1263740" d="M120.7,171.005v6.285c-3.259-.566-3.312-5.731,0-6.285" transform="translate(-93.465 -135.173)" fill="#fbf1ff"/>
        <path id="Trazado_1263741" data-name="Trazado 1263741" d="M219,177.29v-6.285c3.312.554,3.259,5.719,0,6.285" transform="translate(-173.114 -135.173)" fill="#fbf1ff"/>
        <path id="Trazado_1263742" data-name="Trazado 1263742" d="M168.341,273.03a10.979,10.979,0,0,1-.589,1.945,11.382,11.382,0,0,1-3.137.095,13.443,13.443,0,0,1-.669-1.943,6.952,6.952,0,0,1,2.211-1.183,9.19,9.19,0,0,1,2.184,1.086" transform="translate(-129.595 -214.964)" fill="#e3a4fe"/>
        <path id="Trazado_1263743" data-name="Trazado 1263743" d="M263.758,94.009c.09,3.467-5.171,3.664-4.816,0a10.339,10.339,0,0,0,4.816,0" transform="translate(-204.674 -74.309)" fill="#fbf1ff"/>
        <path id="Trazado_1263744" data-name="Trazado 1263744" d="M71.616,94.008c.423,2.7-3.062,3.694-4.492,1.456-1.344-2.1,1.243-1.112,2.258-1.118a14.333,14.333,0,0,0,2.234-.338" transform="translate(-52.76 -74.308)" fill="#fbf1ff"/>
        <path id="Trazado_1263745" data-name="Trazado 1263745" d="M71.815,229.008c.366,3.506-4.653,3.588-4.818.21,1.677.041,3.17.312,4.818-.21" transform="translate(-52.959 -181.023)" fill="#fbf1ff"/>
        <path id="Trazado_1263746" data-name="Trazado 1263746" d="M263.747,229.218c-.187,3.412-5.2,3.263-4.818-.21,1.648.522,3.141.251,4.818.21" transform="translate(-204.662 -181.023)" fill="#fbf1ff"/>
        <path id="Trazado_1263747" data-name="Trazado 1263747" d="M150.564,256.217a32.5,32.5,0,0,1-2.93,1.47L147,253.916a1.887,1.887,0,0,1,1.168.193c.138.061,2.031,1.458,2.172,1.6s.368.3.22.508" transform="translate(-116.203 -200.694)" fill="#fff"/>
        <path id="Trazado_1263748" data-name="Trazado 1263748" d="M188.386,253.916l-.629,3.771a32.565,32.565,0,0,1-2.93-1.471c-.148-.212.083-.373.22-.508s2.034-1.538,2.172-1.6a1.885,1.885,0,0,1,1.168-.193" transform="translate(-146.063 -200.694)" fill="#fff"/>
      </g>
    </g>
  </g>
</svg>
