<svg xmlns="http://www.w3.org/2000/svg" xmlns:xlink="http://www.w3.org/1999/xlink" width="96" height="96" viewBox="0 0 96 96">
  <defs>
    <clipPath id="clip-path">
      <rect id="Rectángulo_457614" data-name="Rectángulo 457614" width="47.493" height="63.745" fill="#fff"/>
    </clipPath>
  </defs>
  <g id="Grupo_1205913" data-name="Grupo 1205913" transform="translate(-383.711 -8400)">
    <path id="Trazado_997400" data-name="Trazado 997400" d="M48,0A48,48,0,1,1,0,48,48,48,0,0,1,48,0Z" transform="translate(383.711 8400)" fill="#5d0b80"/>
    <g id="Grupo_1206753" data-name="Grupo 1206753" transform="translate(407.711 8416)">
      <g id="Grupo_1206752" data-name="Grupo 1206752" clip-path="url(#clip-path)">
        <path id="Trazado_1264579" data-name="Trazado 1264579" d="M31.672,5.543c4.4,1.374,3.635,7.762,2.233,11.12a17.428,17.428,0,0,0-1.149,2.288l1.927.57a2.936,2.936,0,0,1,3.779-.792c.342.187.935.906,1.075.917a5.736,5.736,0,0,1,2.427-.515c2.286.322,2.2,2.914,2.213,4.661C48.26,25,47.829,30.75,46.778,34c-.955,2.954-4.933,6.848-4.871,9.622.009.4,1.5,1.508,1.255,2.371l-.1,17.185-.465.465-40.607.106c-.664-.059-1.121-.061-1.21-.834a54.444,54.444,0,0,1,.011-8c.158-1.382,1.079-1.464,1.262-2.082A14.237,14.237,0,0,0,2.1,50.07C1.97,48.578,1.047,47.857.6,46.554-.43,43.533.165,38.831.228,35.591c.044-2.257-.789-6.558,2.7-6.427.425.016,1.087.408,1.288.358.174-.043.923-1.326,2.271-1.456.933-.09,1.546.555,2.027.546.342-.006.951-.862,1.568-1.024a3.159,3.159,0,0,1,3.439,1.165c.943-.245.552-1.29.989-2.126.232-.442.83-.786.928-1.116a17.491,17.491,0,0,0,.047-3.13c-.126-1.286-1.173-2.369-1.548-3.655-.941-3.234-.167-5.508-.127-8.591.032-2.471-1.5-8.6,2.683-8.283.383.029.967.34,1.124.322.127-.014.985-1.254,2.05-1.42a5.266,5.266,0,0,1,2.379.526C22.4,1.218,23.288-.093,24.651,0c1.253.09,1.868,1.163,2.29,1.27.643.164,1.622-1.15,3.391-.062,1.6.986,1.292,2.715,1.339,4.33M23.094,2.507c-.224.789.165,2.525,0,3.438l2.788-.557c-.126-.883.259-2.5-.206-3.234a1.625,1.625,0,0,0-2.582.353m-3.208-.246c-1.405.283-1.2,3.922-1.066,5.077.228,2.033,2.293,2.239,2.707.478.2-.856.209-4.474-.282-5.132a1.41,1.41,0,0,0-1.358-.422M30.155,5.387c.721-4.159-3.359-4-2.787,0ZM15.984,3.372c-1.207.23-1.023,3.519-.891,4.533.164,1.261,1.89,1.558,2.2.512A25.087,25.087,0,0,0,17.24,3.9a1.32,1.32,0,0,0-1.256-.528m10.082,21.9V22.39A9.357,9.357,0,0,1,26.725,21c1.148-1.464,2.873-.6,3.241-.834.148-.093,1.74-2.545,1.939-2.9a11.506,11.506,0,0,0,1.132-2.771c.455-1.855.939-6.2-1.158-7.208-1.088-.523-6.484-.648-7.528-.177a1.434,1.434,0,0,0,.52,2.725c1.07.148,4.171-.53,4.183,1.029.007.932-.729,1.074-1.227,1.579a10.35,10.35,0,0,0-2.833,3.671c-.271.7-.329,2.8-1.53,2.193-.74-.374-.179-1.94.043-2.565a13.183,13.183,0,0,1,3.117-4.407c-1.826.1-3.4.105-4.366-1.671a2.756,2.756,0,0,1-2.965.73c-.385-.128-.8-.552-1.124-.542-.543.016-1.736,1.36-2.878.551-.224,2.631-.645,5.688.226,8.229.349,1.018,1.118,1.812,1.394,2.88a8.656,8.656,0,0,1,.051,3.758Zm9.477-.929c.895-.671,1.761-.507,2.8-.638.537-1.411.244-4.666-2.01-3.681-.235.1-.789.693-.789.882Zm-3.022-3.874a1.577,1.577,0,0,0-1.062,1,31.076,31.076,0,0,0-.014,4.65,1.3,1.3,0,0,0,2.571.137,25.626,25.626,0,0,0,.044-4.424,1.371,1.371,0,0,0-1.539-1.361m10.083,3.317c.77-4.332-3.375-4.323-2.6,0Zm-13.988-2.2a1.59,1.59,0,0,0-.707.421,18.437,18.437,0,0,0-.182,4.3,1.06,1.06,0,0,0,2.116.049,37.443,37.443,0,0,0-.053-3.784,1.062,1.062,0,0,0-1.175-.983m.98,18.646c.14.984-.1,2.233,0,3.252l10.759-.019c.524-4.4,4.356-6.875,5.285-11.16.507-2.339.885-6.732-2.379-7.039a46.364,46.364,0,0,0-6.414.1,1.463,1.463,0,0,0-.106,2.514c1.321.742,4.421-.815,4.895,1.356-.067.707-1.857,1.876-2.382,2.439a9.261,9.261,0,0,0-2.315,4.745.89.89,0,0,1-1.229-.078c-.636-.782.945-3.835,1.537-4.63.224-.3,2.05-1.969,1.826-2.168-1.688.056-3.323.235-4.192-1.5-1.135.542-1.69.989-3.021.628a10.744,10.744,0,0,1-1.089-.588c-.216-.034-2.154,1.405-3.031.529-.11,2.773-.628,5.945.415,8.6.376.956,1.3,2,1.442,3.018M26.253,26.757H16.5c-.117,0-.883.907-.824,1.189.075.325.895.445,1.2.667,1.574,1.154,1.408,2.663,1.413,4.441,4.124,1.048,3.5,7.376,2.35,10.476-1.072,2.9-3.811,5.217-4.509,8.125-.411,1.713-.135.99.55,2.054a7.4,7.4,0,0,1,.472,1.014v7.34h9.477V46.175c0-1.4,1.325-2.03,1.453-2.449a13.381,13.381,0,0,0,.041-2.576c-.136-1.481-.965-2.282-1.45-3.567-.836-2.217-.687-5.2-.61-7.582.033-1.038.471-2.187.194-3.244M9.528,30.194c-.179.9.131,2.288,0,3.252.479-.06.731-.42,1.251-.514A11.88,11.88,0,0,1,12.5,32.89c-.039-1.427.484-4.179-1.749-3.9a1.7,1.7,0,0,0-1.225,1.2m-3.021-.622A1.48,1.48,0,0,0,5.48,30.606a27.954,27.954,0,0,0-.049,4.615A1.3,1.3,0,0,0,8,35.358a25.626,25.626,0,0,0,.044-4.424,1.37,1.37,0,0,0-1.539-1.361M16.59,32.889c-.143-.981.486-2.69-.734-3.074-1.977-.624-1.992,1.712-1.868,3.074ZM2.6,30.689a1.59,1.59,0,0,0-.706.422,18.435,18.435,0,0,0-.182,4.3,1.091,1.091,0,0,0,1.761.811c.691-.476,1.1-5.833-.873-5.529m.98,18.646c.139.984-.1,2.233,0,3.252l10.79-.08c.546-4.27,4.437-6.923,5.29-11.063.492-2.386.879-6.768-2.415-7.075a39.339,39.339,0,0,0-5.772,0,1.409,1.409,0,0,0-.191,2.8c1.056.139,5.645-.572,4,1.756-1.38,1.956-2.762,2.135-3.856,4.877a13.5,13.5,0,0,1-.507,1.722.839.839,0,0,1-1.38-.453c-.062-1.162,1.151-3.5,1.873-4.442.214-.279,1.857-1.789,1.64-1.982-1.685.055-3.326.236-4.19-1.5a3.548,3.548,0,0,1-2.881.672c-.423-.093-1.218-.666-1.356-.641s-.527.521-1.036.645a8.766,8.766,0,0,1-1.872.079c-.1,2.628-.547,5.426.289,7.982.358,1.1,1.417,2.366,1.571,3.447M41.676,62.063V45.99c0-.492-.905-.97-1.39-1.026a74.1,74.1,0,0,0-10.786,0c-.31.037-1.2.366-1.2.654V62.063Zm-26.015,0V55.095a3.516,3.516,0,0,0-.451-.664L2.653,54.352a2.135,2.135,0,0,0-.372.557v7.154Z" transform="translate(0 0.001)" fill="#fff"/>
      </g>
    </g>
  </g>
</svg>
