<svg xmlns="http://www.w3.org/2000/svg" xmlns:xlink="http://www.w3.org/1999/xlink" width="96" height="96" viewBox="0 0 96 96">
  <defs>
    <clipPath id="clip-path">
      <rect id="Rectángulo_457624" data-name="Rectángulo 457624" width="57.298" height="57.404" fill="#fff"/>
    </clipPath>
  </defs>
  <g id="Grupo_1205915" data-name="Grupo 1205915" transform="translate(-383.746 -8400.001)">
    <path id="Trazado_997400" data-name="Trazado 997400" d="M48,0A48,48,0,1,1,0,48,48,48,0,0,1,48,0Z" transform="translate(383.746 8400.001)" fill="#5d0b80"/>
    <g id="Grupo_1099776" data-name="Grupo 1099776" transform="translate(401.746 8418)">
      <g id="Grupo_1099618" data-name="Grupo 1099618" transform="translate(-0.035 0)">
        <rect id="Rectángulo_401104" data-name="Rectángulo 401104" width="59.378" height="60.093" transform="translate(0)" fill="none"/>
      </g>
      <g id="Grupo_1206757" data-name="Grupo 1206757" transform="translate(0.965 1)">
        <g id="Grupo_1206756" data-name="Grupo 1206756" clip-path="url(#clip-path)">
          <path id="Trazado_1264584" data-name="Trazado 1264584" d="M83.719,81.9h6.55l1.039,2.513,1.9.819,2.577-1.08,4.665,4.665L99.382,91.3l.726,1.909,2.592,1.129v6.55l-2.513,1.039-.8,1.883,1.064,2.592-4.768,4.72c-.319.054-1.795-1.153-2.344-1.152a18.554,18.554,0,0,0-1.936.758c-.533.428-.658,2.43-1.131,2.589h-6.55c-.455-.154-.623-2.086-1.039-2.512a11.092,11.092,0,0,0-1.9-.816c-.7-.059-2.1,1.313-2.574,1.077L73.539,106.4c-.239-.482,1.08-1.835,1.092-2.442a10.8,10.8,0,0,0-.754-1.942c-.422-.531-2.43-.657-2.59-1.131v-6.55c.153-.454,2.082-.623,2.512-1.04a15.929,15.929,0,0,0,.818-1.9c.085-.575-.892-1.771-1.127-2.362L78.2,84.154l2.475,1.071,1.91-.73Zm6.019,4-.712-2.078a24.782,24.782,0,0,0-3.81-.084c-.651.122-.669,1.708-1.038,2.215-.939,0-2.683,1.292-3.37,1.337-.716.046-1.644-1.044-2.264-.765a29.712,29.712,0,0,0-2.69,2.747c-.028.714.865,1.48.822,2.15-.044.687-1.335,2.432-1.337,3.37l-2.19.894v3.844l2.135.823c.11,1.013,1.541,3.039,1.32,3.852-.147.541-.941,1.3-.694,1.853a29.672,29.672,0,0,0,2.747,2.69c.714.028,1.48-.865,2.15-.822.687.044,2.432,1.335,3.37,1.337l.894,2.19,3.839,0c.482-.163.595-1.66.828-2.131,1.013-.111,3.039-1.541,3.852-1.32.541.147,1.3.941,1.853.694a29.673,29.673,0,0,0,2.69-2.747c.028-.714-.865-1.48-.822-2.15.044-.687,1.335-2.432,1.337-3.37l2.19-.894,0-3.839c-.163-.481-1.66-.6-2.132-.827-.074-1.056-1.179-2.452-1.358-3.309-.184-.879,1.115-1.71.654-2.495a29.963,29.963,0,0,0-2.669-2.593l-2.152.823c-.421-.449-3.321-1.25-3.44-1.392" transform="translate(-59.231 -68.051)" fill="#fff"/>
          <path id="Trazado_1264585" data-name="Trazado 1264585" d="M14.909,261.767v11.162c.6-.076,1.414.228,1.86-.254v-5.328h5.412v5.581h1.861v1.861H.279c-.481-.446-.178-1.257-.255-1.861H1.886v-7.442H7.467v7.442h1.86V261.767Zm-1.86,1.86h-1.86v9.3h1.86Zm-7.442,3.721H3.746v5.581h1.86Zm14.714,1.86H18.63v3.721h1.691Z" transform="translate(0 -217.495)" fill="#fff"/>
          <path id="Trazado_1264586" data-name="Trazado 1264586" d="M16.018,1.852c-.528,2.063.642,3.266,2.726,3.023A18.125,18.125,0,0,1,12.488,19c-2.285,1.943-3.674,2.032-6,.078A18.02,18.02,0,0,1,.139,4.875c2.084.243,3.254-.96,2.726-3.023A20.276,20.276,0,0,1,7.543.356a14.833,14.833,0,0,1,8.475,1.5M8.6,2.17A9.758,9.758,0,0,0,4.99,3c-.221.187-.258.95-.422,1.312A3.633,3.633,0,0,1,2,6.573,16.161,16.161,0,0,0,8.087,17.985c.171.132.215.325.509.252V7.582h1.691V18.237c.294.073.338-.12.509-.252,2.782-2.149,6.161-7.191,5.932-10.83-.064-1.026-.559-.7-1.187-1.19-1.29-1-1.34-2.7-1.648-2.961a9.762,9.762,0,0,0-3.606-.834V5.722H8.6Z" transform="translate(-0.114 -0.18)" fill="#fff"/>
          <path id="Trazado_1264587" data-name="Trazado 1264587" d="M240.751,207.6a5.633,5.633,0,0,1,5.864,2.511c1.267,2.1.609,4.318.8,6.639.7.54,1.447.887,1.72,1.832a60.328,60.328,0,0,1,.1,8.839,2.816,2.816,0,0,1-1.81,2.08c-1.211.413-8.535.373-10.085.2a3.029,3.029,0,0,1-2.733-2.171,51.556,51.556,0,0,1-.06-8.366c.239-1.752,1.663-1.957,1.818-2.411.256-.751-.067-3.18.022-4.206a5.622,5.622,0,0,1,4.359-4.943m4.779,9.092v-4.651a10.589,10.589,0,0,0-.6-1.089,3.7,3.7,0,0,0-6.067,0,7.908,7.908,0,0,0-.6,1.257v4.482Zm-8.505,1.9a1.011,1.011,0,0,0-.636.886,51.734,51.734,0,0,0,0,7.459c.087.655.482.854,1.1.926a60.654,60.654,0,0,0,8.637,0c.682-.062,1.167-.17,1.269-.93a51.862,51.862,0,0,0,0-7.459.962.962,0,0,0-.421-.763Z" transform="translate(-194.766 -172.421)" fill="#fff"/>
          <path id="Trazado_1264588" data-name="Trazado 1264588" d="M228.476.011c8.739-.365,13.937,9.945,8.237,16.7a10.225,10.225,0,0,1-15.643-.09A10.231,10.231,0,0,1,228.476.011M228.3,1.873c-11.117.93-9.517,18.093,1.963,16.505C240.542,16.957,238.812.994,228.3,1.873" transform="translate(-181.804 -0.001)" fill="#fff"/>
          <rect id="Rectángulo_457620" data-name="Rectángulo 457620" width="1.691" height="20.295" transform="translate(8.482 22.116)" fill="#fff"/>
          <path id="Trazado_1264589" data-name="Trazado 1264589" d="M130.881,61.627H115.152v-1.86h15.475c.481.446.177,1.256.254,1.86" transform="translate(-95.677 -49.659)" fill="#fff"/>
          <rect id="Rectángulo_457621" data-name="Rectángulo 457621" width="13.868" height="1.86" transform="translate(24.042 50.699)" fill="#fff"/>
          <rect id="Rectángulo_457622" data-name="Rectángulo 457622" width="1.86" height="11.162" transform="translate(46.198 22.116)" fill="#fff"/>
          <path id="Trazado_1264590" data-name="Trazado 1264590" d="M113,114.757a10.222,10.222,0,0,1,11.345,11.006c-.069.794-.684,2.379-.651,2.887.026.4.537,1.111.628,1.746a3.942,3.942,0,0,1-3.755,4.613c-4.143.358-8.811-.264-13.01-.025a3.986,3.986,0,0,1-3.489-4.118c.047-.829.683-1.683.666-2.356-.017-.7-.562-1.857-.642-2.746A10.279,10.279,0,0,1,113,114.757m-.246,2.375L106.186,130.1a2.061,2.061,0,0,0,1.688,3.041c4.026-.283,8.559.378,12.522.007a2.1,2.1,0,0,0,2.028-2.718l-6.541-13.076a2.124,2.124,0,0,0-3.131-.222m-2.595.62c-3.007,1.29-4.479,4.976-4.227,8.117l.462-.3Zm12.346,8.286c.328-3.252-1.132-6.917-4.226-8.286Z" transform="translate(-86.453 -95.297)" fill="#fff"/>
          <path id="Trazado_1264591" data-name="Trazado 1264591" d="M266.118,283.934l-.026,2H264.23l0-1.911a2.777,2.777,0,0,1,1.274-5.37,2.725,2.725,0,0,1,.61,5.277m-.237-1.927c.789-.784-.532-2.2-1.393-1.31-.893.927.635,2.062,1.393,1.31" transform="translate(-218.033 -231.517)" fill="#fff"/>
          <path id="Trazado_1264592" data-name="Trazado 1264592" d="M261.531,21.762l.016,1.845a2.754,2.754,0,0,1,2.69,2.892l-1.586-.022c-.468-1.222-1.73-1.119-2.9-.994a.929.929,0,0,0-.3,1.819c1.6.309,3.046-.52,4.279,1.142a2.814,2.814,0,0,1-2.181,4.5l-.016,1.845h-1.862l-.016-1.845a2.793,2.793,0,0,1-2.69-2.892l1.756-.01c.041,1.426,3.206,1.325,3.567.514.811-1.818-1.9-1.253-2.851-1.369a2.8,2.8,0,0,1,.217-5.579l.016-1.845Z" transform="translate(-213.472 -18.081)" fill="#fff"/>
          <rect id="Rectángulo_457623" data-name="Rectángulo 457623" width="1.86" height="9.133" transform="translate(26.917 23.131)" fill="#fff"/>
          <path id="Trazado_1264593" data-name="Trazado 1264593" d="M159.636,201.732c1.443-.385,1.556,2.323-.131,1.761-.869-.29-.554-1.578.131-1.761" transform="translate(-132.089 -167.582)" fill="#fff"/>
        </g>
      </g>
    </g>
  </g>
</svg>
