<svg xmlns="http://www.w3.org/2000/svg" xmlns:xlink="http://www.w3.org/1999/xlink" width="150.5" height="150.501" viewBox="0 0 150.5 150.501">
  <defs>
    <clipPath id="clip-path">
      <rect id="Rectángulo_455261" data-name="Rectángulo 455261" width="38.951" height="37.623" fill="#e6fffa"/>
    </clipPath>
    <clipPath id="clip-path-2">
      <rect id="Rectángulo_457559" data-name="Rectángulo 457559" width="87.303" height="87.51" fill="#5d0b80"/>
    </clipPath>
  </defs>
  <g id="Grupo_1205959" data-name="Grupo 1205959" transform="translate(-307.436 -10011.92)">
    <path id="Sustracción_130" data-name="Sustracción 130" d="M26.051,25.795H0V11.245H11.352V0h14.7V25.795Z" transform="translate(431.641 10038.471) rotate(-90)" fill="#e3a4fe" stroke="rgba(0,0,0,0)" stroke-miterlimit="10" stroke-width="1"/>
    <g id="Grupo_1178100" data-name="Grupo 1178100" transform="translate(307.436 10162.421) rotate(-90)">
      <path id="Trazado_998183" data-name="Trazado 998183" d="M0,0V37.623H25.58V24.056H38.951V0Z" transform="translate(0 0)" fill="#5d0b80"/>
      <g id="Grupo_1178099" data-name="Grupo 1178099" transform="translate(0 0)">
        <g id="Grupo_1178098" data-name="Grupo 1178098" clip-path="url(#clip-path)">
          <path id="Trazado_998184" data-name="Trazado 998184" d="M0,9.021a9.025,9.025,0,1,1,9.025,9.021A9.023,9.023,0,0,1,0,9.021" transform="translate(4.434 5.629)" fill="#e3a4fe"/>
        </g>
      </g>
    </g>
    <g id="Grupo_1177470" data-name="Grupo 1177470" transform="translate(308.059 10012.421)">
      <circle id="Elipse_13609" data-name="Elipse 13609" cx="74.688" cy="74.688" r="74.688" fill="#fff"/>
      <g id="Grupo_1099776" data-name="Grupo 1099776" transform="translate(28.822 28.945)">
        <g id="Grupo_1099618" data-name="Grupo 1099618" transform="translate(0.266 -0.366)">
          <rect id="Rectángulo_401104" data-name="Rectángulo 401104" width="90.569" height="91.661" transform="translate(0)" fill="none"/>
        </g>
        <g id="Grupo_1206684" data-name="Grupo 1206684" transform="translate(1.267 1.634)">
          <g id="Grupo_1206683" data-name="Grupo 1206683" clip-path="url(#clip-path-2)">
            <path id="Trazado_1264334" data-name="Trazado 1264334" d="M4.746,120.383l23.34-.015,9.649,9.549.135,39.856a6.089,6.089,0,0,1-5.453,5.746c-8.646.774-18.436-.6-27.2-.014A5.765,5.765,0,0,1,0,170.052l.013-44.536a5.724,5.724,0,0,1,4.733-5.133m21.4,2.863H4.943c-.479,0-2.222,1.78-2.006,2.527L2.93,169.788a2.914,2.914,0,0,0,2.54,2.793c8.587-.6,18.223.783,26.683.007a2.334,2.334,0,0,0,1.592-.541,6.528,6.528,0,0,0,1.2-1.738V132.046H27.607c-.382,0-1.467-.785-1.467-1.2Zm2.933,2.133v3.733l3.469-.136Z" transform="translate(0 -88.272)" fill="#5d0b80"/>
            <path id="Trazado_1264335" data-name="Trazado 1264335" d="M51.759,6.986c-.481-.332-3.128,2-3.628,2.484-4.887,4.757-7.909,12.591-6.757,19.369l-2.933.538C36.037,10.69,53.75-4.262,71.907,1.106,80.948,3.78,88.491,11.971,90.083,21.327c.264,1.551,1.087,5.527-.563,6.2L65.5,27.773c-.968.182-2.358,3.813-3.06,4.689l-.355.079c-.406-.278-2.386-.931-2.212-1.581L62.65,26.09ZM87.5,24.842A23.168,23.168,0,0,0,62.824,2.964a24.781,24.781,0,0,0-8.316,2.081c-.266.133-.409-.064-.339.453L65.5,24.842Z" transform="translate(-28.03 -0.001)" fill="#5d0b80"/>
            <path id="Trazado_1264336" data-name="Trazado 1264336" d="M194.848,261.705c5.393.317,11.723-.632,17.006-.061a5.923,5.923,0,0,1,4.933,5.2c.216,1.908.184,6.892-.481,8.587a5.88,5.88,0,0,1-4.975,3.557,110.981,110.981,0,0,1-15.473-.014,5.921,5.921,0,0,1-5.139-4.461,46.068,46.068,0,0,1-.041-8.179,6.182,6.182,0,0,1,4.17-4.629m18.113,3.5a2.351,2.351,0,0,0-1.364-.637l-16.4.158a3.143,3.143,0,0,0-1.6,1.867,44.139,44.139,0,0,0-.021,6.925,2.718,2.718,0,0,0,2.533,2.535,104.644,104.644,0,0,0,14.952.005,2.788,2.788,0,0,0,2.365-1.368c.565-1,.622-6.543.409-7.83a4.2,4.2,0,0,0-.879-1.655" transform="translate(-139.717 -191.741)" fill="#5d0b80"/>
            <path id="Trazado_1264337" data-name="Trazado 1264337" d="M243.834,32.589c2.024-.411,12.087-.343,14.345-.067a6.251,6.251,0,0,1,3.916,2.75c1.056,1.865,1.076,9.116.313,11.091a5.927,5.927,0,0,1-5.025,3.508c-2.373.213-12.23.291-14.061-.359a6.034,6.034,0,0,1-3.658-4.342,47.394,47.394,0,0,1,0-7.952,6.252,6.252,0,0,1,4.17-4.629m.539,2.939a2.927,2.927,0,0,0-1.811,2.189,44.093,44.093,0,0,0,.027,6.929,2.977,2.977,0,0,0,2.772,2.294,83.568,83.568,0,0,0,12.017-.007,2.955,2.955,0,0,0,2.533-2.533,41,41,0,0,0-.023-6.655,2.63,2.63,0,0,0-2.5-2.3c-4.032-.424-8.9.3-13.017.083" transform="translate(-175.637 -23.686)" fill="#5d0b80"/>
            <path id="Trazado_1264338" data-name="Trazado 1264338" d="M169.861,120.159v2.933h-6.4l13.7,13.579c3.557-3.625,5.085-8.659,5.77-13.576h-1.6v-2.936l3.735.134c1.433.682.431,5.416.142,6.809a26.837,26.837,0,0,1-4.565,10.1c-.947,1.27-2.806,4.065-4.525,2.969l-17.449-17.478c-.844-.6-.561-2.533.4-2.533Z" transform="translate(-115.99 -88.118)" fill="#5d0b80"/>
            <path id="Trazado_1264339" data-name="Trazado 1264339" d="M190.819,223.362V226.3h-26.8l-8.913-9.163c.458-.4,1.474-1.981,2.112-1.652l7.868,7.882Z" transform="translate(-113.749 -157.991)" fill="#5d0b80"/>
            <path id="Trazado_1264340" data-name="Trazado 1264340" d="M217.981,106.168l-6.933,6.928-2-2,7.649-7.545,6.64-.295,17.171.239v2.668Z" transform="translate(-153.311 -75.727)" fill="#5d0b80"/>
            <path id="Trazado_1264341" data-name="Trazado 1264341" d="M159.425,174.451l-1.07-2.662a16.687,16.687,0,0,0,5.061-3.337l-14.01-14c-.272-.529,1.715-2.733,2.428-1.88l14.934,15.2a2.353,2.353,0,0,1,.069,1.424c-.31,1.028-6.873,5.66-7.412,5.257" transform="translate(-109.549 -111.746)" fill="#5d0b80"/>
            <path id="Trazado_1264342" data-name="Trazado 1264342" d="M150.233,236.822l-3.2.271v-2.936l2.685.117Z" transform="translate(-107.825 -171.721)" fill="#5d0b80"/>
            <rect id="Rectángulo_457541" data-name="Rectángulo 457541" width="17.332" height="2.933" transform="translate(5.876 58.172)" fill="#5d0b80"/>
            <rect id="Rectángulo_457542" data-name="Rectángulo 457542" width="14.665" height="2.933" transform="translate(17.342 64.038)" fill="#5d0b80"/>
            <rect id="Rectángulo_457543" data-name="Rectángulo 457543" width="14.399" height="2.933" transform="translate(5.876 69.904)" fill="#5d0b80"/>
            <rect id="Rectángulo_457544" data-name="Rectángulo 457544" width="14.399" height="2.933" transform="translate(11.742 46.44)" fill="#5d0b80"/>
            <rect id="Rectángulo_457545" data-name="Rectángulo 457545" width="11.732" height="2.933" transform="translate(20.275 52.306)" fill="#5d0b80"/>
            <rect id="Rectángulo_457546" data-name="Rectángulo 457546" width="11.466" height="2.933" transform="translate(5.876 52.306)" fill="#5d0b80"/>
            <rect id="Rectángulo_457547" data-name="Rectángulo 457547" width="8.533" height="2.933" transform="translate(5.876 64.038)" fill="#5d0b80"/>
            <rect id="Rectángulo_457548" data-name="Rectángulo 457548" width="5.866" height="2.933" transform="translate(26.141 58.172)" fill="#5d0b80"/>
            <path id="Trazado_1264343" data-name="Trazado 1264343" d="M27.9,142.163c-.12.953.359,2.23-.4,2.933H22.036v-2.933Z" transform="translate(-16.16 -104.256)" fill="#5d0b80"/>
            <rect id="Rectángulo_457549" data-name="Rectángulo 457549" width="5.6" height="2.933" transform="translate(23.474 69.904)" fill="#5d0b80"/>
            <path id="Trazado_1264344" data-name="Trazado 1264344" d="M98.525,283.163V286.1h-5.6c.12-.953-.359-2.23.4-2.933Z" transform="translate(-68.117 -207.659)" fill="#5d0b80"/>
            <rect id="Rectángulo_457550" data-name="Rectángulo 457550" width="2.936" height="2.936" transform="translate(29.073 46.438)" fill="#5d0b80"/>
            <rect id="Rectángulo_457551" data-name="Rectángulo 457551" width="8.799" height="2.933" transform="translate(61.071 80.037)" fill="#5d0b80"/>
            <rect id="Rectángulo_457552" data-name="Rectángulo 457552" width="8.799" height="2.933" transform="translate(58.138 74.171)" fill="#5d0b80"/>
            <rect id="Rectángulo_457553" data-name="Rectángulo 457553" width="2.936" height="2.936" transform="translate(69.869 74.169)" fill="#5d0b80"/>
            <rect id="Rectángulo_457554" data-name="Rectángulo 457554" width="2.936" height="2.936" transform="translate(55.204 80.036)" fill="#5d0b80"/>
            <rect id="Rectángulo_457555" data-name="Rectángulo 457555" width="5.866" height="2.933" transform="translate(71.204 13.109)" fill="#5d0b80"/>
            <rect id="Rectángulo_457556" data-name="Rectángulo 457556" width="5.866" height="2.933" transform="translate(74.137 18.975)" fill="#5d0b80"/>
            <rect id="Rectángulo_457557" data-name="Rectángulo 457557" width="2.936" height="2.936" transform="translate(68.269 18.974)" fill="#5d0b80"/>
            <rect id="Rectángulo_457558" data-name="Rectángulo 457558" width="2.936" height="2.936" transform="translate(80.002 13.108)" fill="#5d0b80"/>
          </g>
        </g>
      </g>
    </g>
  </g>
</svg>
