<svg id="Grupo_1206119" data-name="Grupo 1206119" xmlns="http://www.w3.org/2000/svg" xmlns:xlink="http://www.w3.org/1999/xlink" width="127.151" height="128" viewBox="0 0 127.151 128">
  <defs>
    <clipPath id="clip-path">
      <rect id="Rectángulo_457369" data-name="Rectángulo 457369" width="78.645" height="63.388" fill="none"/>
    </clipPath>
  </defs>
  <ellipse id="Elipse_13609" data-name="Elipse 13609" cx="63.576" cy="64" rx="63.576" ry="64" transform="translate(0)" fill="#fff"/>
  <g id="Grupo_1099776" data-name="Grupo 1099776" transform="translate(23.841 24)">
    <g id="Grupo_1099618" data-name="Grupo 1099618" transform="translate(-0.1 0)">
      <rect id="Rectángulo_401104" data-name="Rectángulo 401104" width="78.645" height="80.124" transform="translate(0)" fill="none"/>
    </g>
    <g id="Grupo_1206558" data-name="Grupo 1206558" transform="translate(-0.1 8)">
      <g id="Grupo_1206557" data-name="Grupo 1206557" clip-path="url(#clip-path)">
        <path id="Trazado_1263674" data-name="Trazado 1263674" d="M113.022,17.181c1.112-.056,1.878-.178,2.107,1.176-.52,1.608-1.493,12-2.283,12.481-1.508.917-2.285-1.822-2.823-1.7A62.753,62.753,0,0,1,78.157,46.488,112.235,112.235,0,0,1,60.13,49.1c-1.711.076-4.843.145-2.551-2.1,13.543-2.9,28.237-7.131,38.713-16.617,1.76-1.593,5.265-5.259,6.313-7.291.929-1.8-2.1-2.9-1.393-4.333.28-.568.967-.678,1.54-.738,3.3-.341,6.966-.675,10.271-.84m-.407,2.428-7.941.562c-.426.229.4.934.547,1.275.466,1.085.165,1.366-.357,2.318-4.168,7.605-14.757,14.6-22.522,18.066L75.655,44.55a58.35,58.35,0,0,0,23.519-9.245c3.771-2.59,7.048-5.8,10.5-8.774.659-.349,1.233.023,1.8.333Z" transform="translate(-43.897 -13.262)"/>
        <path id="Trazado_1263675" data-name="Trazado 1263675" d="M2.278,62.469c-.353,1.263-2.4.783-2.272-.676L0,1.688C.548-1.414,2.856.24,2.309,2.8l.535.372,26.142.05c.12.3.5.682.5.975.017.91-6.732,5.335-7.707,6.344l7.352,6.024c.708.378-.107,1.8-.44,1.8H2.278ZM24.5,5.213H2.618l-.34.34V16.1H24.727c-.738-1.381-5.878-4.252-5.88-5.555,0-1.119,4.322-3.692,5.309-4.653.223-.217.427-.3.344-.676" transform="translate(0 0)"/>
        <path id="Trazado_1263676" data-name="Trazado 1263676" d="M292.285,77.672l6.369,10.061c-.059,1.911-2.458.623-2.671,1.776v32.88c-.057.526-.57.706-1.036.778a41.26,41.26,0,0,1-6.564.019c-1.28-.148-1.383-.764-1.479-1.922l.01-32.323c-1.872.11-3.034-.147-2-2.108,1.591-3.005,4.14-5.928,5.747-8.991a1.4,1.4,0,0,1,1.619-.17m-3.1,9.8v33.107l.34.34h4.422V87.241l1.358-.9-3.739-5.555-3.739,5.555c-.229.586,1.2.165,1.358,1.13" transform="translate(-220.01 -59.92)"/>
        <path id="Trazado_1263677" data-name="Trazado 1263677" d="M240.793,167.83a2.2,2.2,0,0,1-1.184.29,42.318,42.318,0,0,1-6.137,0,1.619,1.619,0,0,1-1.425-.843l-.056-30.353a1.351,1.351,0,0,1,.854-1.188,61.613,61.613,0,0,1,7.435-.048c.485.09.624.4.743.844l.06,30.118Zm-1.987-29.878h-4.535v27.891h4.535Z" transform="translate(-179.385 -104.848)"/>
        <path id="Trazado_1263678" data-name="Trazado 1263678" d="M169.482,185.58l-.235-26.318c.17-.495.5-.561.964-.623a59.117,59.117,0,0,1,7.448.056.863.863,0,0,1,.5.407l.068,25.921a1.619,1.619,0,0,1-1.425.843,42.542,42.542,0,0,1-6.137,0,2.2,2.2,0,0,1-1.184-.29M176,160.917a10.506,10.506,0,0,0-4.535,0v22.676H176Z" transform="translate(-130.869 -122.598)"/>
        <path id="Trazado_1263679" data-name="Trazado 1263679" d="M114.89,177.053v22.109a1.666,1.666,0,0,1-.669.465,42.966,42.966,0,0,1-6.932.107,1.711,1.711,0,0,1-1.243-.571V177.053a7.778,7.778,0,0,1,1.689-.466,38.661,38.661,0,0,1,5.686.005c.576.066.933.362,1.468.46m-2.041,20.408V179.207l-.34-.34h-4.082l-.34.34v18.254Z" transform="translate(-81.999 -136.466)"/>
        <path id="Trazado_1263680" data-name="Trazado 1263680" d="M51.221,219.764a2.2,2.2,0,0,1-1.184.29c-1.135.092-6.085.146-6.867-.182a1.574,1.574,0,0,1-.626-.507V203.491a1.572,1.572,0,0,1,.626-.507,37.425,37.425,0,0,1,7.646-.054,1.943,1.943,0,0,1,.567.567Zm-1.987-14.686H44.7v12.7h4.535Z" transform="translate(-32.897 -156.782)"/>
        <path id="Trazado_1263681" data-name="Trazado 1263681" d="M177.011,27.994l-1.137,7.255c-.569-.31-1.143-.682-1.8-.333-3.456,2.975-6.733,6.184-10.5,8.774a58.349,58.349,0,0,1-23.519,9.245l6.688-2.719c7.765-3.462,18.354-10.461,22.522-18.066.522-.952.823-1.233.357-2.318-.147-.341-.973-1.046-.547-1.275Z" transform="translate(-108.293 -21.646)" fill="#5d0b80"/>
        <path id="Trazado_1263682" data-name="Trazado 1263682" d="M32.268,22.989c.083.381-.122.459-.344.676-.986.961-5.31,3.535-5.309,4.653,0,1.3,5.142,4.174,5.88,5.555H10.046V23.329l.34-.34Z" transform="translate(-7.768 -17.776)" fill="#e3a4fe"/>
        <path id="Trazado_1263683" data-name="Trazado 1263683" d="M300.331,98.694c-.159-.965-1.587-.544-1.358-1.13l3.739-5.555,3.739,5.555-1.358.9v33.674h-4.422l-.34-.34Z" transform="translate(-231.159 -71.145)" fill="#e3a4fe"/>
        <rect id="Rectángulo_457367" data-name="Rectángulo 457367" width="4.535" height="27.891" transform="translate(54.886 33.104)" fill="#e3a4fe"/>
        <path id="Trazado_1263684" data-name="Trazado 1263684" d="M183.581,168.145V190.82h-4.535V168.145a10.506,10.506,0,0,1,4.535,0" transform="translate(-138.446 -129.825)" fill="#f0d5fe"/>
        <path id="Trazado_1263685" data-name="Trazado 1263685" d="M119.808,205.583h-4.762V187.329l.34-.34h4.082l.34.34Z" transform="translate(-88.959 -144.588)" fill="#fbf1ff"/>
        <rect id="Rectángulo_457368" data-name="Rectángulo 457368" width="4.535" height="12.698" transform="translate(11.802 48.297)" fill="#fbf1ff"/>
      </g>
    </g>
  </g>
</svg>
