<svg xmlns="http://www.w3.org/2000/svg" xmlns:xlink="http://www.w3.org/1999/xlink" width="150.5" height="150.501" viewBox="0 0 150.5 150.501">
  <defs>
    <clipPath id="clip-path">
      <rect id="Rectángulo_455261" data-name="Rectángulo 455261" width="38.951" height="37.623" fill="#e6fffa"/>
    </clipPath>
    <clipPath id="clip-path-2">
      <rect id="Rectángulo_457540" data-name="Rectángulo 457540" width="87.809" height="87.482" fill="#5d0b80"/>
    </clipPath>
  </defs>
  <g id="Grupo_1205958" data-name="Grupo 1205958" transform="translate(-307.436 -10011.92)">
    <path id="Sustracción_130" data-name="Sustracción 130" d="M26.051,25.795H0V11.245H11.352V0h14.7V25.795Z" transform="translate(431.641 10038.471) rotate(-90)" fill="#e3a4fe" stroke="rgba(0,0,0,0)" stroke-miterlimit="10" stroke-width="1"/>
    <g id="Grupo_1178100" data-name="Grupo 1178100" transform="translate(307.436 10162.421) rotate(-90)">
      <path id="Trazado_998183" data-name="Trazado 998183" d="M0,0V37.623H25.58V24.056H38.951V0Z" transform="translate(0 0)" fill="#5d0b80"/>
      <g id="Grupo_1178099" data-name="Grupo 1178099" transform="translate(0 0)">
        <g id="Grupo_1178098" data-name="Grupo 1178098" clip-path="url(#clip-path)">
          <path id="Trazado_998184" data-name="Trazado 998184" d="M0,9.021a9.025,9.025,0,1,1,9.025,9.021A9.023,9.023,0,0,1,0,9.021" transform="translate(4.434 5.629)" fill="#e3a4fe"/>
        </g>
      </g>
    </g>
    <g id="Grupo_1177470" data-name="Grupo 1177470" transform="translate(308.059 10012.421)">
      <circle id="Elipse_13609" data-name="Elipse 13609" cx="74.688" cy="74.688" r="74.688" fill="#fff"/>
      <g id="Grupo_1099776" data-name="Grupo 1099776" transform="translate(28.822 28.945)">
        <g id="Grupo_1099618" data-name="Grupo 1099618" transform="translate(0.266 -0.366)">
          <rect id="Rectángulo_401104" data-name="Rectángulo 401104" width="90.569" height="91.661" transform="translate(0)" fill="none"/>
        </g>
        <g id="Grupo_1206682" data-name="Grupo 1206682" transform="translate(1.266 1.634)">
          <g id="Grupo_1206681" data-name="Grupo 1206681" clip-path="url(#clip-path-2)">
            <path id="Trazado_1264327" data-name="Trazado 1264327" d="M13.186,30.5a3.028,3.028,0,0,1-.873-.582l0-29.4L13.251,0,53.016.2c.452.286.456,1.123.5,1.612.483,5.825-.386,12.309-.011,18.2l4.656,1.166v-9.46l.437-.437H81.882a2.349,2.349,0,0,1,.741,1.878c.722,7.856-.578,16.795,0,24.77l-.741,1.878H74.459a29,29,0,0,1-2.831,21.4c4.146,4.871,9.826,9.124,13.9,13.96,5.938,7.049-.712,15.393-8.546,11.166L61.755,71.3a30.1,30.1,0,0,1-21.644,2.865V86.823a2.6,2.6,0,0,1-.587.578l-39,.006L0,86.764l.086-51.9,1.152-.594,20.973.015c.834-.158,2.01-3.033,2.764-3.786ZM51.172,2.554H14.5V24.676l4.415-7.665c2.821-3.689,5.19-.761,6.792,2.129,2.475-2.573,2.755-7.439,7.262-6.671,1.8.307,4.1,5.381,5.113,6.965L40.97,15.2c3.681-2.746,5.078,1.188,6.71,3.8l3.492.437ZM80.281,13.615H60.487V22.2l5.387,3.928c.478-.22-.147-.677-.147-.726V20.747c0-1.185,2.066-2.918,3.193-3.209,4.741-1.224,6.742,3.151,6.052,7.215-.175,1.032-.858,1.612-1.094,2.542a6.68,6.68,0,0,1,4.71,3.588c.136.272.821,1.978.821,2.09v4.512l.873-.437ZM28.762,19.146c1.082-.64,1.579-1.142,2.924-.743.394.117.759.722,1.166.622s1.471-.984,1.4-1.425l-1.707-2.678c-1.152-.557-1.5.389-2.044,1.162a17.929,17.929,0,0,0-1.737,3.063m15.425-1.167-1.019-1.446-1.309,1.737c.9.413,1.433-.283,2.328-.29M22.02,17.744a.946.946,0,0,0-.786,0c-.4.243-1.625,3.4-2.081,4.019,1.116-.693,1.938.389,2.755.307.65-.065,1.188-1.248,2.193-.889Zm47.7,2.035c-2.356.481-2.309,5.693-.3,6.291,4.566,1.36,4.321-7.113.3-6.291M36.616,21.187c-2-1.431-2.39.521-3.662.583-.836.04-1.265-.844-2.036-.884-1.18-.06-2.332,2.113-3.9.589l-3.79,6.4a12.9,12.9,0,0,0,3.77.16c.451-.2,2.764-2.613,3.53-3.19Zm9.258.374a25.618,25.618,0,0,0-19.508,40C36.975,77.11,60.49,76.081,69.745,59.7c9.928-17.578-3.837-39.419-23.871-38.134m-23.81,3.411c-.632.06-1.422-.786-1.895-.779-.456.006-1.877,1.295-3.01.82l-1.5,2.862,4.465.249ZM77.08,37.485c.7-5.681-1.943-9.053-7.859-8.15-.187.162,2.4,3.695,2.668,4.169a34.568,34.568,0,0,1,1.744,3.931Zm-55.6-.875H2.27V85.222H37.782V73.287c-.681.054-1.435-.784-1.946-.831-.541-.05-.931,1.006-1.676.847L4.794,73.02c-.815-.513-.131-2.061.241-2.061H32.543a10.47,10.47,0,0,0-2.772-2.031c-1.982-.379-9.367.52-10.449-.264-.425-.625-.32-2.071.558-2.071H27.3a9.863,9.863,0,0,0-1.6-1.747H19.59c-.755,0-.445-2.329.291-2.329H24.1l-.919-1.7c-.944-.6-5.526,1.223-3.62-2.112l2.209-.265c-.235-1.906-.537-1.48-1.882-1.754-1.466-.3-.706-2.117.449-2.516l-.313-1.841H5.618c-.313,0-1.227-.862-1.209-1.31-.017-.448.9-1.31,1.209-1.31H19.735l-.457-1.473-13.654.011c-1.853-.557-1.487-2.31.3-2.594,3.9-.62,9.27.41,13.338,0l.47-2.055H11.148a1.794,1.794,0,0,1-.742-1.034c-.154-.372.529-1.294.742-1.294h8.733ZM67.371,66.782c-.922.917-2.247,1.86-3.241,2.727-.165.144-.571.371-.3.577l14.145,14.1c4.839,3.315,10.008-2.412,6.247-6.829L70.238,63.4c-.222,0-2.393,2.915-2.867,3.386" transform="translate(0 0.001)" fill="#5d0b80"/>
            <path id="Trazado_1264328" data-name="Trazado 1264328" d="M16.854,185.776H27.915l.437.437v14.263a1.078,1.078,0,0,1-.5.372c-.98.532-8.337.506-9.831.355-.439-.045-1.535-.233-1.758-.571l.015-14.27Zm9.169,2.329H18.455v10.479h7.568Z" transform="translate(-11.528 -131.7)" fill="#5d0b80"/>
            <path id="Trazado_1264329" data-name="Trazado 1264329" d="M15.849,257.776H45.831c.516,0,.919,2.037-.59,2.32L16,259.953l-.748-.731Z" transform="translate(-10.814 -182.741)" fill="#5d0b80"/>
            <path id="Trazado_1264330" data-name="Trazado 1264330" d="M15.849,271.776H45.831c.516,0,.919,2.037-.59,2.321L16,273.953l-.748-.731Z" transform="translate(-10.814 -192.666)" fill="#5d0b80"/>
            <path id="Trazado_1264331" data-name="Trazado 1264331" d="M107.613,88.606c23.3-2.787,33.872,26.679,15.174,39.043-16.451,10.878-37.429-4.3-32.492-23.468,1.988-7.722,9.291-14.614,17.318-15.574m.581,2.328c-7.366.839-14.236,7.28-15.807,14.466a19.06,19.06,0,0,0,28.292,20.724c17.329-10.081,8.706-37.6-12.485-35.19" transform="translate(-63.491 -62.683)" fill="#5d0b80"/>
            <path id="Trazado_1264332" data-name="Trazado 1264332" d="M122.793,14.832c6.765-1.067,6.733,9.892-.3,8.6-4.5-.829-4.389-7.857.3-8.6m.584,2.316a2.014,2.014,0,0,0-.3,3.967c2.983.609,3.216-4.222.3-3.967" transform="translate(-84.502 -10.462)" fill="#5d0b80"/>
            <path id="Trazado_1264333" data-name="Trazado 1264333" d="M115.691,123.782c1.014-.285,1.692.555,1.548,1.543-.11.751-1.158,1.293-1.591,1.928a12.935,12.935,0,0,0-.463,14.4c.6.976,2.5,2.465,1.907,3.63-1.149,2.277-3.861-2.227-4.38-3.2a15.287,15.287,0,0,1-.865-12.809c.426-1.145,2.756-5.187,3.844-5.492" transform="translate(-78.573 -87.711)" fill="#5d0b80"/>
          </g>
        </g>
      </g>
    </g>
  </g>
</svg>
