<svg xmlns="http://www.w3.org/2000/svg" xmlns:xlink="http://www.w3.org/1999/xlink" width="150.5" height="150.501" viewBox="0 0 150.5 150.501">
  <defs>
    <clipPath id="clip-path">
      <rect id="Rectángulo_455261" data-name="Rectángulo 455261" width="38.951" height="37.623" fill="#e6fffa"/>
    </clipPath>
    <clipPath id="clip-path-2">
      <rect id="Rectángulo_457571" data-name="Rectángulo 457571" width="87.396" height="87.693" fill="#5d0b80"/>
    </clipPath>
  </defs>
  <g id="Grupo_1205960" data-name="Grupo 1205960" transform="translate(-307.436 -10011.92)">
    <path id="Sustracción_130" data-name="Sustracción 130" d="M26.051,25.795H0V11.245H11.352V0h14.7V25.795Z" transform="translate(431.641 10038.471) rotate(-90)" fill="#e3a4fe" stroke="rgba(0,0,0,0)" stroke-miterlimit="10" stroke-width="1"/>
    <g id="Grupo_1178100" data-name="Grupo 1178100" transform="translate(307.436 10162.421) rotate(-90)">
      <path id="Trazado_998183" data-name="Trazado 998183" d="M0,0V37.623H25.58V24.056H38.951V0Z" transform="translate(0 0)" fill="#5d0b80"/>
      <g id="Grupo_1178099" data-name="Grupo 1178099" transform="translate(0 0)">
        <g id="Grupo_1178098" data-name="Grupo 1178098" clip-path="url(#clip-path)">
          <path id="Trazado_998184" data-name="Trazado 998184" d="M0,9.021a9.025,9.025,0,1,1,9.025,9.021A9.023,9.023,0,0,1,0,9.021" transform="translate(4.434 5.629)" fill="#e3a4fe"/>
        </g>
      </g>
    </g>
    <g id="Grupo_1177470" data-name="Grupo 1177470" transform="translate(308.059 10012.421)">
      <circle id="Elipse_13609" data-name="Elipse 13609" cx="74.688" cy="74.688" r="74.688" fill="#fff"/>
      <g id="Grupo_1099776" data-name="Grupo 1099776" transform="translate(28.822 28.945)">
        <g id="Grupo_1099618" data-name="Grupo 1099618" transform="translate(0.267 -0.366)">
          <rect id="Rectángulo_401104" data-name="Rectángulo 401104" width="90.569" height="91.661" transform="translate(0)" fill="none"/>
        </g>
        <g id="Grupo_1206686" data-name="Grupo 1206686" transform="translate(1.266 1.635)">
          <g id="Grupo_1206685" data-name="Grupo 1206685" clip-path="url(#clip-path-2)">
            <path id="Trazado_1264345" data-name="Trazado 1264345" d="M64.189,35.959V53.874L98.52,63.8a1.735,1.735,0,0,1,.7,1.437,75.794,75.794,0,0,1,0,11.24c-.211,1.813-1.791,1.838-3.276,2.339-10.776,3.633-22.337,6.153-33.227,9.554-10.88-3.432-22.455-5.921-33.227-9.554-1.485-.5-3.065-.526-3.276-2.339a75.793,75.793,0,0,1,0-11.24,1.735,1.735,0,0,1,.7-1.437l34.331-9.922V35.959H50.686c-.751,0-1.308-1.582-1.213-2.263L49.6,1.988c.25-.6.625-1.095,1.337-1.07l15.536.266L75.9,11.015l.056,22.938c.053.629-.533,2.006-1.2,2.006Zm0-32.086H52.424V33.018H73.013V12.7H65.66c-.383,0-1.471-.787-1.471-1.2ZM67.13,6.012V9.755l3.479-.136Zm-5.882,50.8L33.174,64.969l29.545,8.691,29.545-8.691L64.189,56.815V64.3l3.342-3.2,1.881,1.859.1.52a19.306,19.306,0,0,0-2.387,2.017c-.934.956-3.167,3.895-4.406,3.895a2.144,2.144,0,0,1-1.011-.28c-.44-.207-3.087-3.3-3.657-3.885a14.3,14.3,0,0,0-2.124-1.747c-.232-.567,1.637-1.881,1.98-2.379l3.342,3.2Zm0,19.519L29.162,66.976V75.4L61.248,84.89Zm2.941,8.556L96.275,75.4V66.976L64.189,76.334Z" transform="translate(-19.053 -0.672)" fill="#5d0b80"/>
            <path id="Trazado_1264346" data-name="Trazado 1264346" d="M203.689,35.6c-.473-.1-1.33-.872-1.216-1.458.675-10.308-.852-21.661,0-31.843a2.6,2.6,0,0,1,.342-1.4,2.593,2.593,0,0,1,1.4-.342c4.71-.4,10.094.218,14.866.13l9.31,9.139.314,1.29-.064,23.491a1.3,1.3,0,0,1-.649.689c-1.541.875-10.68-.1-11.066.3a7.043,7.043,0,0,1-6.311,7.192c-2.3.267-5.632-.557-7.579.71-1.864,1.213-2.248,3.66-2.151,5.735.369.416,2.9-2.709,3.377-2.921.38-.066,2.129,1.639,1.952,2.224a59.8,59.8,0,0,1-6.147,5.909,1.126,1.126,0,0,1-.593.1c-1.121-.155-5.378-5.314-6.593-6.286l1.949-1.949c.627.109,2.353,2.91,3.379,2.922V45.36a11.466,11.466,0,0,1,1.61-2.935C204.5,37,212.626,43.443,214.25,35.6ZM216.924,3.514h-11.5V32.659h20.321V12.338h-7.353a3.328,3.328,0,0,1-1.471-1.471Zm6.685,5.88-3.741-3.741.114,3.493c.374.536,2.869.125,3.627.248" transform="translate(-141.306 -0.313)" fill="#5d0b80"/>
            <path id="Trazado_1264347" data-name="Trazado 1264347" d="M14.387,35.286c1.665,7.664,9.427,1.652,14.183,6.54a10.79,10.79,0,0,1,1.86,3.22v3.877c1.026-.012,2.752-2.813,3.379-2.922l1.949,1.95c-1.216.973-5.471,6.13-6.593,6.286a.818.818,0,0,1-.593-.1l-6.14-6.189L24.377,46c.435.076,2.974,3.376,3.378,2.921.1-2.075-.287-4.522-2.151-5.735-1.947-1.267-5.281-.443-7.579-.71a7.044,7.044,0,0,1-6.311-7.192c-.386-.4-9.524.577-11.066-.3A1.3,1.3,0,0,1,0,34.3L.194.7C.458.289,1.226.285,1.675.248A100.913,100.913,0,0,1,15.864.253a2.324,2.324,0,0,1,1.47.669,84.394,84.394,0,0,1,8.155,8.155,2.34,2.34,0,0,1,.607,1L25.9,34.637a5.06,5.06,0,0,1-.955.649Zm0-32.086H2.889V32.345H23.211V12.024H15.858a3.328,3.328,0,0,1-1.471-1.471Zm6.685,5.88L17.331,5.339l.114,3.493c.374.536,2.869.125,3.627.248" transform="translate(0 0)" fill="#5d0b80"/>
            <rect id="Rectángulo_457560" data-name="Rectángulo 457560" width="14.706" height="2.941" transform="translate(36.312 14.698)" fill="#5d0b80"/>
            <rect id="Rectángulo_457561" data-name="Rectángulo 457561" width="14.706" height="2.941" transform="translate(36.312 20.581)" fill="#5d0b80"/>
            <path id="Trazado_1264348" data-name="Trazado 1264348" d="M141.578,33.97v2.941H136.1c-.761-.705-.281-1.986-.4-2.941Z" transform="translate(-99.383 -24.887)" fill="#5d0b80"/>
            <rect id="Rectángulo_457562" data-name="Rectángulo 457562" width="2.944" height="2.944" transform="translate(36.311 26.462)" fill="#5d0b80"/>
            <rect id="Rectángulo_457563" data-name="Rectángulo 457563" width="2.944" height="2.944" transform="translate(42.194 26.462)" fill="#5d0b80"/>
            <rect id="Rectángulo_457564" data-name="Rectángulo 457564" width="2.944" height="2.944" transform="translate(48.076 26.462)" fill="#5d0b80"/>
            <rect id="Rectángulo_457565" data-name="Rectángulo 457565" width="14.439" height="2.941" transform="translate(67.062 14.698)" fill="#5d0b80"/>
            <rect id="Rectángulo_457566" data-name="Rectángulo 457566" width="14.439" height="2.941" transform="translate(67.062 20.581)" fill="#5d0b80"/>
            <rect id="Rectángulo_457567" data-name="Rectángulo 457567" width="14.439" height="2.941" transform="translate(67.062 26.463)" fill="#5d0b80"/>
            <path id="Trazado_1264349" data-name="Trazado 1264349" d="M256.688,33.97c-.121.956.36,2.236-.4,2.941h-5.481V33.97Z" transform="translate(-183.744 -24.887)" fill="#5d0b80"/>
            <rect id="Rectángulo_457568" data-name="Rectángulo 457568" width="14.439" height="2.941" transform="translate(5.831 14.698)" fill="#5d0b80"/>
            <rect id="Rectángulo_457569" data-name="Rectángulo 457569" width="14.439" height="2.941" transform="translate(5.831 20.581)" fill="#5d0b80"/>
            <rect id="Rectángulo_457570" data-name="Rectángulo 457570" width="14.439" height="2.941" transform="translate(5.831 26.463)" fill="#5d0b80"/>
            <path id="Trazado_1264350" data-name="Trazado 1264350" d="M27.688,33.97c-.121.956.36,2.236-.4,2.941H21.806V33.97Z" transform="translate(-15.975 -24.887)" fill="#5d0b80"/>
          </g>
        </g>
      </g>
    </g>
  </g>
</svg>
