<svg xmlns="http://www.w3.org/2000/svg" xmlns:xlink="http://www.w3.org/1999/xlink" width="84" height="84" viewBox="0 0 84 84">
  <defs>
    <clipPath id="clip-path">
      <rect id="Rect치ngulo_457579" data-name="Rect치ngulo 457579" width="52.122" height="62.773" fill="#5d0b80"/>
    </clipPath>
  </defs>
  <g id="Grupo_1205918" data-name="Grupo 1205918" transform="translate(-185.566 -1046.16)">
    <rect id="Rect치ngulo_455472" data-name="Rect치ngulo 455472" width="84" height="84" rx="12" transform="translate(185.566 1046.16)" fill="#ffe9a1"/>
    <g id="Grupo_1206692" data-name="Grupo 1206692" transform="translate(201.505 1055.991)">
      <g id="Grupo_1206691" data-name="Grupo 1206691" clip-path="url(#clip-path)">
        <path id="Trazado_1264392" data-name="Trazado 1264392" d="M44.043,3.977h3.325A3.037,3.037,0,0,1,48,4.786V8.111h3.325a2.055,2.055,0,0,1,.493.585l.14,38.69c-.207,1.8-1.981,1.264-1.981.176V9.908H48V38.036c0,.72-1.977.9-1.977-.18V5.774H44.043V30.308c0,.976-1.977.74-1.977-.18V1.82H1.986V52.864h40.08v-18.6c0-.721,1.771-1.416,1.98.356l-.139,19.458a2.055,2.055,0,0,1-.493.585H5.94v2.157H46.02V41.99c0-.674,1.764-1.521,1.981.355-.423,4.759.551,10.461,0,15.106-.035.3-.354,1.164-.633,1.164H9.894v2.337h40.08v-8.9a.983.983,0,1,1,1.967.01,65.332,65.332,0,0,1,.015,9.519,1.283,1.283,0,0,1-.668,1.129L8.9,62.758c-.354.126-.98-.6-.98-.818V58.615H4.592a3.037,3.037,0,0,1-.629-.809V54.661H.638a2.055,2.055,0,0,1-.493-.585L0,1.362C-.012.637.35-.073,1.167.012l41.9,0c.354-.126.98.6.98.818Z" transform="translate(0 0)" fill="#5d0b80"/>
        <path id="Trazado_1264393" data-name="Trazado 1264393" d="M26.264,26.349l12.211.094a10.568,10.568,0,0,0,1.329,0c.036,5.57.2,8.61,0,17.4v1.237H25.409c0-1.047.036-.777,0-1.418-.07-6.441-.07-9.691,0-15.83a13.824,13.824,0,0,0,0-1.482m12.408,1.758H27.393V43.384H37.817Z" transform="translate(-20.734 -21.613)" fill="#5d0b80"/>
        <path id="Trazado_1264394" data-name="Trazado 1264394" d="M120.52,26.344l16.236.042a.642.642,0,0,1,.53.548,45.1,45.1,0,0,1-.03,5,.606.606,0,0,1-.372.347l-16.5.051c-.358-.155-.629-.329-.707-.731-.027-2.076-.043-3.607-.013-4.319.077-.573.312-.765.856-.941M135.489,28.1l-14.043-.075V30.56l14.043.06Z" transform="translate(-98.096 -21.609)" fill="#5d0b80"/>
        <path id="Trazado_1264396" data-name="Trazado 1264396" d="M79.522,147.927c-.709-.2-.51-1.8.18-1.8h23.9c.586,0,.586,1.8,0,1.8Z" transform="translate(-64.865 -119.866)" fill="#5d0b80"/>
        <path id="Trazado_1264397" data-name="Trazado 1264397" d="M79.721,172.927c-.916-.167-.676-1.8-.18-1.8h24.084c.586,0,.586,1.8,0,1.8Z" transform="translate(-64.884 -140.373)" fill="#5d0b80"/>
        <path id="Trazado_1264399" data-name="Trazado 1264399" d="M79.469,196.13l23.7-.045a.91.91,0,1,1-.185,1.809l-23.018.006a1.023,1.023,0,0,1-.949-1.319Z" transform="translate(-64.776 -160.842)" fill="#5d0b80"/>
        <path id="Trazado_1264408" data-name="Trazado 1264408" d="M79.469,196.13l23.7-.045a.91.91,0,1,1-.185,1.809l-23.018.006a1.023,1.023,0,0,1-.949-1.319Z" transform="translate(-64.776 -156.638)" fill="#5d0b80"/>
        <path id="Trazado_1264409" data-name="Trazado 1264409" d="M79.469,196.13l23.7-.045a.91.91,0,1,1-.185,1.809l-23.018.006a1.023,1.023,0,0,1-.949-1.319Z" transform="translate(-64.776 -152.127)" fill="#5d0b80"/>
        <path id="Trazado_1264402" data-name="Trazado 1264402" d="M120.765,121.154l15.961-.041c1.006.007,1.319.867.733,1.638l-16.563.173c-1.014-.029-1.04-1.507-.132-1.77" transform="translate(-98.522 -99.345)" fill="#5d0b80"/>
        <path id="Trazado_1264410" data-name="Trazado 1264410" d="M120.765,121.154l15.961-.041c1.006.007,1.319.867.733,1.638l-16.563.173c-1.014-.029-1.04-1.507-.132-1.77" transform="translate(-98.522 -103.545)" fill="#5d0b80"/>
        <path id="Trazado_1264411" data-name="Trazado 1264411" d="M120.765,121.154l15.961-.041c1.006.007,1.319.867.733,1.638l-16.563.173c-1.014-.029-1.04-1.507-.132-1.77" transform="translate(-98.522 -108.768)" fill="#5d0b80"/>
        <path id="Trazado_1264403" data-name="Trazado 1264403" d="M27.39,219.85a30.171,30.171,0,0,1,5.134,0c1.263.278,1.195,1.71-.337,1.922-.767.106-4.852.121-5.287-.251a1.041,1.041,0,0,1,.491-1.669" transform="translate(-21.859 -180.246)" fill="#5d0b80"/>
        <path id="Trazado_1264404" data-name="Trazado 1264404" d="M33.114,145.648c.916.167.676,1.8.18,1.8H27.543c-.586,0-.586-1.8,0-1.8a43.564,43.564,0,0,1,5.572,0" transform="translate(-22.232 -119.384)" fill="#5d0b80"/>
        <path id="Trazado_1264405" data-name="Trazado 1264405" d="M33.294,171.13c.709.2.51,1.8-.18,1.8H27.543c-.586,0-.586-1.8,0-1.8Z" transform="translate(-22.232 -140.373)" fill="#5d0b80"/>
        <path id="Trazado_1264406" data-name="Trazado 1264406" d="M33.23,244.944a.958.958,0,0,1-.411,1.57,39.454,39.454,0,0,1-5.382,0,.9.9,0,0,1,.187-1.78,29.666,29.666,0,0,1,4.668-.019c.279.023.739.031.938.23" transform="translate(-21.941 -200.663)" fill="#5d0b80"/>
        <path id="Trazado_1264407" data-name="Trazado 1264407" d="M27.3,195.868a44.586,44.586,0,0,1,5.531-.031c1.018.192.757,1.614-.179,1.788a32.613,32.613,0,0,1-5.016-.008.917.917,0,0,1-.336-1.749" transform="translate(-21.957 -160.581)" fill="#5d0b80"/>
      </g>
    </g>
  </g>
</svg>
