<svg id="Grupo_1206134" data-name="Grupo 1206134" xmlns="http://www.w3.org/2000/svg" xmlns:xlink="http://www.w3.org/1999/xlink" width="127.15" height="128" viewBox="0 0 127.15 128">
  <defs>
    <clipPath id="clip-path">
      <rect id="Rect치ngulo_457399" data-name="Rect치ngulo 457399" width="66.548" height="73.195" fill="none"/>
    </clipPath>
  </defs>
  <ellipse id="Elipse_13609" data-name="Elipse 13609" cx="63.576" cy="64" rx="63.576" ry="64" transform="translate(0)" fill="#fff"/>
  <g id="Grupo_1099776" data-name="Grupo 1099776" transform="translate(23.841 24)">
    <g id="Grupo_1099618" data-name="Grupo 1099618" transform="translate(0 0)">
      <rect id="Rect치ngulo_401104" data-name="Rect치ngulo 401104" width="78.645" height="80.124" transform="translate(0)" fill="none"/>
    </g>
    <g id="Grupo_1206577" data-name="Grupo 1206577" transform="translate(7.389 2.5)">
      <path id="Trazado_1263808" data-name="Trazado 1263808" d="M7.074,121.928l-2.111,2.36-.124,41.481,2.484,2.857,58.744.124,3.229-2.608-.248-33.284-1.863-2.981-41.108.5-1.863-6.707L22.1,121.928Z" transform="translate(-3.825 -96.374)" fill="#e3a4fe"/>
      <path id="Trazado_1263809" data-name="Trazado 1263809" d="M43.95,29.653V7.174l1.615-1.987H77.731L89.9,17.234V37.6l-32.787-.248-1.863-7.328Z" transform="translate(-34.739 -4.1)" fill="#fbf1ff"/>
      <g id="Grupo_1206576" data-name="Grupo 1206576">
        <g id="Grupo_1206575" data-name="Grupo 1206575" clip-path="url(#clip-path)">
          <path id="Trazado_1263810" data-name="Trazado 1263810" d="M23.055,88.033H43.908c.912.891.592,1.85-.641,2.084H22.334a1.492,1.492,0,0,1-.621-.217c-.846-.543-1.7-5.361-2.458-6.554a2.5,2.5,0,0,0-1.224-.872c-4.357.2-9.7-.6-13.948-.1a2.319,2.319,0,0,0-1.994,2.407l0,39.419a2.4,2.4,0,0,0,2.41,2.41l58.016-.058a2.45,2.45,0,0,0,1.781-1.781l.052-11.684a1.06,1.06,0,0,1,2.087,0c-.244,3.719.34,7.866.013,11.531a4.37,4.37,0,0,1-4.087,4.087l-58.85-.058A4.91,4.91,0,0,1,.1,125.554L0,83.946c-.043-1.354,1.97-3.667,3.249-3.667H8.384V70.953c0-.175.865-.738,1.158-.73a2.056,2.056,0,0,1,.938.73v9.012l.314.314h7.754a6.1,6.1,0,0,1,1.345.751c2.03,1.464,2.292,4.779,3.161,7" transform="translate(0 -55.505)"/>
          <path id="Trazado_1263811" data-name="Trazado 1263811" d="M95.456,36.405a2.6,2.6,0,0,0-1.793-1.769l-14.827-.063c-1.241-.239-.743-2.045-.25-2.045h7.021V14.5H76.489c-1.251,0-3.248-2.479-3.248-3.668v-8.7H43.376c-2.862,0-1.443,7.5-1.787,9.32-.2,1.073-1.921,1.163-2.09-.41a46.621,46.621,0,0,1,.05-7.708A4.188,4.188,0,0,1,42.472.187c10.809-.2,21.79-.311,32.562.054L87.7,12.933V32.214l.314.314h6.5c.824,0,3.039,2.353,3.039,3.248V53.591c0,.684-2.1.684-2.1,0Zm-11.527-24L75.546,3.816v7.23c0,.382,1.169,1.362,1.572,1.362Z" transform="translate(-31.114 0)"/>
          <path id="Trazado_1263812" data-name="Trazado 1263812" d="M130.622,202.391a2.969,2.969,0,0,1,2.469,2.666,70.462,70.462,0,0,1,.019,10.671,3.016,3.016,0,0,1-2.819,2.839,86.461,86.461,0,0,1-12.38-.006,3.058,3.058,0,0,1-2.613-3.046,68.862,68.862,0,0,1,.016-10.458,2.969,2.969,0,0,1,2.469-2.666c-1.152-10.84,14.016-10.854,12.84,0m-2.123.028c1.025-8.046-9.587-8.09-8.593,0Zm2.305,13.832V204.829l-.314-.314H117.914l-.314.314v11.422Z" transform="translate(-90.982 -153.544)"/>
          <path id="Trazado_1263813" data-name="Trazado 1263813" d="M117.886,87c-.232.232-.768.241-1.094.268l-26.636,0a1.065,1.065,0,0,1-.211-2.119l27.781.116c.556.266.535,1.356.159,1.732" transform="translate(-70.36 -67.303)"/>
          <path id="Trazado_1263814" data-name="Trazado 1263814" d="M134.478,113.07c-.231.232-.768.241-1.093.268l-26.636,0a1.065,1.065,0,0,1-.211-2.119l27.782.116c.556.266.535,1.356.159,1.732" transform="translate(-83.475 -87.912)"/>
          <path id="Trazado_1263815" data-name="Trazado 1263815" d="M152.988,262.638h-3.982l.99-2.833c-1.605-1.256-1.146-3.681,1-3.681,2.123,0,2.668,2.453,1,3.681Z" transform="translate(-117.777 -202.446)"/>
        </g>
      </g>
    </g>
  </g>
</svg>
