<svg id="Grupo_1206131" data-name="Grupo 1206131" xmlns="http://www.w3.org/2000/svg" xmlns:xlink="http://www.w3.org/1999/xlink" width="127.15" height="128" viewBox="0 0 127.15 128">
  <defs>
    <clipPath id="clip-path">
      <rect id="Rectángulo_457398" data-name="Rectángulo 457398" width="55.463" height="76.772" fill="none"/>
    </clipPath>
  </defs>
  <ellipse id="Elipse_13609" data-name="Elipse 13609" cx="63.576" cy="64" rx="63.576" ry="64" transform="translate(0)" fill="#fff"/>
  <g id="Grupo_1099776" data-name="Grupo 1099776" transform="translate(23.841 24)">
    <g id="Grupo_1099618" data-name="Grupo 1099618" transform="translate(-0.406 0)">
      <rect id="Rectángulo_401104" data-name="Rectángulo 401104" width="78.645" height="80.124" transform="translate(0)" fill="none"/>
    </g>
    <g id="Grupo_1206574" data-name="Grupo 1206574" transform="translate(11.595)">
      <g id="Grupo_1206573" data-name="Grupo 1206573" clip-path="url(#clip-path)">
        <path id="Trazado_1263798" data-name="Trazado 1263798" d="M34.81,8.033H53.145c.679,0,2.445,1.857,2.311,2.74l-.174,63.954a3.548,3.548,0,0,1-1.866,1.866l-50.565.18A3.3,3.3,0,0,1,0,74.572V10.222A4.194,4.194,0,0,1,2.2,8.033H20.537V2.214c0-.593,1.3-1.833,1.961-1.992A64.575,64.575,0,0,1,32.672.18c.754.136,2.138,1.355,2.138,2.034ZM23.063,2.324l-.329.329v7.9c.843.653,4.175,4.047,4.941,4.047s4.1-3.394,4.941-4.047v-7.9l-.329-.329Zm-2.534,7.914-18,.1-.394.484L2.2,74.128l.484.394,50.131-.065.394-.484-.065-63.306-.869-.448-17.458.02-.287,1.36-1.038,1.263c1.694-.169,3.858.384,4.157,2.322.354,2.289-.108,4.493-2.722,4.715a107.756,107.756,0,0,1-14.509,0c-2.5-.235-2.965-2.066-2.747-4.3.228-2.341,2.116-2.858,4.182-2.736L20.816,11.6Zm-.32,7.456H35.139c.557-.507.558-2.349-.264-2.591a21.976,21.976,0,0,0-4.083,0c-.888.263-1.075,1.73-3.119,1.73-2.1,0-2.2-1.639-3.719-1.788-1.944-.192-4.925-.511-4.04,2.285Z" transform="translate(0 0)"/>
        <path id="Trazado_1263799" data-name="Trazado 1263799" d="M27.345,46.555l.287,1.36,1.038,1.263c-2.066-.122-3.953.394-4.182,2.736-.218,2.236.249,4.067,2.747,4.3a107.756,107.756,0,0,0,14.509,0c2.614-.222,3.076-2.426,2.722-4.715-.3-1.938-2.463-2.491-4.157-2.322l1.038-1.263.287-1.36,17.458-.02.869.448.065,63.306-.394.484L9.5,110.838l-.484-.394L8.953,47.138l.394-.484ZM16.594,60.379H41.517a1.18,1.18,0,0,0-.655-2.2c-7.7.546-16.366-.714-23.947,0-1.972.184-2.581,1.05-2.744,2.965l.1,38.776a2.672,2.672,0,0,0,1.277,1.8l37.723.068A2.831,2.831,0,0,0,54.8,99.355l-.025-38.622a2.538,2.538,0,0,0-2.5-2.55,43.2,43.2,0,0,0-6.322.047c-1.181.34-.863,2.149-.266,2.149h6.7V94.194c-.72-.687-1.084-1.506-1.862-2.2-2.4-2.139-7.085-2.6-10.07-3.763-1.891-2.507.7-3.143,1.792-4.945.543-.9.974-3.022,1.185-3.316.1-.145,1.34-.587,1.719-1.246a5.071,5.071,0,0,0,.2-3.513c-.18-.6-.581-.932-.659-1.537-.316-2.459.7-5.829-.772-8.011a6.127,6.127,0,0,0-3.073-2.2,78.979,78.979,0,0,0-11.633-.022,5.109,5.109,0,0,0-4.5,4.721c-.155,1.727.233,3.837.019,5.509-.086.675-.558.925-.658,1.538a11.982,11.982,0,0,0,.087,3.185c.319,1.037,1.643,1.311,1.831,1.573.334.466.558,2.371,1.4,3.537,1.055,1.456,2.789,1.869,2.061,4.113a1.172,1.172,0,0,1-.774.762c-3.4,1.328-7.777,1.44-10.439,4.273l-1.644,2.418Z" transform="translate(-6.987 -36.317)" fill="#fbf1ff"/>
        <path id="Trazado_1263800" data-name="Trazado 1263800" d="M103.859,10.581h9.222l.329.329v7.9c-.843.653-4.175,4.047-4.941,4.047s-4.1-3.394-4.941-4.047v-7.9Z" transform="translate(-80.797 -8.258)" fill="#e3a4fe"/>
        <path id="Trazado_1263801" data-name="Trazado 1263801" d="M35.919,100.955v34.694l1.644-2.418C40.225,130.4,44.6,130.286,48,128.958a1.173,1.173,0,0,0,.775-.762c.729-2.244-1.006-2.657-2.061-4.113-.844-1.166-1.069-3.071-1.4-3.537-.188-.262-1.512-.536-1.831-1.573a11.982,11.982,0,0,1-.087-3.185c.1-.613.572-.863.658-1.538.213-1.672-.174-3.782-.019-5.509a5.109,5.109,0,0,1,4.5-4.721,78.977,78.977,0,0,1,11.633.022,6.127,6.127,0,0,1,3.073,2.2c1.474,2.182.457,5.552.772,8.011.078.6.479.938.659,1.537a5.07,5.07,0,0,1-.2,3.513c-.379.659-1.615,1.1-1.719,1.246-.211.294-.642,2.417-1.185,3.316-1.089,1.8-3.683,2.438-1.792,4.945,2.985,1.164,7.674,1.625,10.07,3.763.778.694,1.141,1.514,1.862,2.2V100.955h-6.7c-.6,0-.915-1.81.266-2.149a43.2,43.2,0,0,1,6.322-.047,2.538,2.538,0,0,1,2.5,2.55l.025,38.622a2.831,2.831,0,0,1-1.526,2.426l-37.723-.068a2.672,2.672,0,0,1-1.277-1.8l-.1-38.776c.163-1.915.772-2.781,2.744-2.965,7.58-.709,16.25.551,23.947,0a1.18,1.18,0,0,1,.655,2.2Zm25.91,13.394v-6.038c0-.787-1.482-1.947-2.326-2.066a77.123,77.123,0,0,0-11.295.083,2.878,2.878,0,0,0-1.95,2.441,30.434,30.434,0,0,0-.018,5.03c.069.379.235.614.657.55v-3.623a2.817,2.817,0,0,1,2.736-2.533c1.9-.163,1.8.215,3.193.775,2.277.917,2.328-.413,3.669-.722a10.121,10.121,0,0,1,2.763,0,3.483,3.483,0,0,1,1.913,2.259v3.843Zm-2.855,1.866c-.348-1.259.258-4.042,0-5.49-1.686-1.058-2.917.827-4.939.785-1.8-.037-2.95-1.411-4.69-1.083l-.453,6.19c-1.116.929-2.178-.1-3.31-.292l-.009,1.851c2.473.057,1.7,1.944,2.456,3.715,2.241,5.232,10.689,4.793,12.367-.742.491-1.619-.19-2.915,2.1-2.948.355-.246.349-1.746-.136-1.864-.866.38-3.012,1.234-3.387-.123M57,127.3a8.3,8.3,0,0,1-5.924,0c.193,1.216-.451,2.042-.881,3.072l3.843,1.677,3.842-1.679c-.348-1.026-1.034-1.9-.88-3.071m-5.489,5.932-4.17-1.757,2.776,2.612Zm9-1.538-.959.246-2.992,1.505,1.539.559Zm10.1,8.561c.07-4.961-2.652-7.09-7.18-8.083-.776-.012-3.495,4.139-5.447,4.134-1.2,0-2.8-1.287-3.913-1.72-1.238.442-3.033,1.929-4.374,1.676-1.291-.244-3.688-3.1-4.767-4.013-4.793.581-7.274,3.275-7.915,8.007Z" transform="translate(-26.141 -76.893)"/>
        <path id="Trazado_1263802" data-name="Trazado 1263802" d="M83.126,259.854H49.53c.641-4.731,3.122-7.426,7.915-8.007,1.079.913,3.476,3.769,4.767,4.013,1.341.253,3.136-1.234,4.374-1.676,1.118.434,2.711,1.717,3.913,1.72,1.952.005,4.671-4.145,5.447-4.134,4.528.993,7.25,3.122,7.18,8.083" transform="translate(-38.654 -196.488)" fill="#5d0b80"/>
        <path id="Trazado_1263803" data-name="Trazado 1263803" d="M101.9,158.332c.375,1.357,2.521.5,3.387.123.485.117.491,1.617.136,1.864-2.293.033-1.612,1.329-2.1,2.948-1.678,5.535-10.126,5.973-12.367.742-.758-1.77.017-3.658-2.456-3.715l.009-1.851c1.132.19,2.194,1.222,3.31.292l.453-6.19c1.74-.328,2.886,1.047,4.69,1.083,2.023.041,3.254-1.844,4.939-.785.258,1.447-.348,4.231,0,5.49" transform="translate(-69.063 -119.01)" fill="#fff"/>
        <path id="Trazado_1263804" data-name="Trazado 1263804" d="M106.782,141.19h-.659v-3.843a3.483,3.483,0,0,0-1.913-2.259,10.121,10.121,0,0,0-2.763,0c-1.341.309-1.392,1.639-3.669.722-1.39-.56-1.29-.938-3.193-.775a2.817,2.817,0,0,0-2.736,2.533v3.623c-.422.064-.588-.171-.657-.55a30.434,30.434,0,0,1,.018-5.03,2.878,2.878,0,0,1,1.95-2.441,77.121,77.121,0,0,1,11.295-.083c.843.119,2.326,1.279,2.326,2.066Z" transform="translate(-71.093 -103.733)" fill="#f0d5fe"/>
        <path id="Trazado_1263805" data-name="Trazado 1263805" d="M116.334,229.581c-.153,1.169.532,2.045.88,3.071l-3.842,1.679-3.843-1.678c.43-1.03,1.074-1.856.881-3.072a8.3,8.3,0,0,0,5.924,0" transform="translate(-85.479 -179.17)" fill="#fff"/>
        <path id="Trazado_1263806" data-name="Trazado 1263806" d="M100.7,250.348l-1.395.855L96.53,248.59Z" transform="translate(-75.334 -194.005)" fill="#e3a4fe"/>
        <path id="Trazado_1263807" data-name="Trazado 1263807" d="M142.488,249.591l-2.411,2.311-1.539-.559,2.992-1.505Z" transform="translate(-108.117 -194.786)" fill="#e3a4fe"/>
        <rect id="Rectángulo_457397" data-name="Rectángulo 457397" width="35.914" height="2.602" transform="translate(9.509 67.343)"/>
      </g>
    </g>
  </g>
</svg>
